<svg width="386" height="155" viewBox="0 0 386 155" fill="none" xmlns="http://www.w3.org/2000/svg">
<path d="M107.655 33.0001V5.28006H124.175L123.495 9.96006H114.215V17.3201H122.295V22.0001H114.215V33.0001H107.655Z" fill="#313131"/>
<path d="M134.175 11.7601V33.0001H127.855V11.7601H134.175ZM130.975 0.560059C132.069 0.560059 132.962 0.906726 133.655 1.60006C134.375 2.26673 134.735 3.12006 134.735 4.16006C134.735 5.20006 134.375 6.06673 133.655 6.76006C132.962 7.42673 132.069 7.76006 130.975 7.76006C129.882 7.76006 128.989 7.42673 128.295 6.76006C127.602 6.06673 127.255 5.20006 127.255 4.16006C127.255 3.12006 127.602 2.26673 128.295 1.60006C128.989 0.906726 129.882 0.560059 130.975 0.560059Z" fill="#313131"/>
<path d="M152.664 11.1601C153.438 11.1601 154.144 11.2534 154.784 11.4401L153.784 17.5601C152.984 17.3734 152.344 17.2801 151.864 17.2801C150.611 17.2801 149.651 17.7201 148.984 18.6001C148.344 19.4534 147.838 20.7467 147.464 22.4801V33.0001H141.144V11.7601H146.664L147.184 15.8801C147.664 14.4134 148.384 13.2667 149.344 12.4401C150.331 11.5867 151.438 11.1601 152.664 11.1601Z" fill="#313131"/>
<path d="M174.673 26.8401C174.673 27.6401 174.779 28.2267 174.993 28.6001C175.233 28.9734 175.606 29.2534 176.113 29.4401L174.793 33.5601C173.486 33.4534 172.419 33.1734 171.593 32.7201C170.766 32.2401 170.126 31.4934 169.673 30.4801C168.286 32.6134 166.153 33.6801 163.273 33.6801C161.166 33.6801 159.486 33.0667 158.233 31.8401C156.979 30.6134 156.353 29.0134 156.353 27.0401C156.353 24.7201 157.206 22.9467 158.913 21.7201C160.619 20.4934 163.086 19.8801 166.313 19.8801H168.473V18.9601C168.473 17.7067 168.206 16.8534 167.673 16.4001C167.139 15.9201 166.206 15.6801 164.873 15.6801C164.179 15.6801 163.339 15.7867 162.353 16.0001C161.366 16.1867 160.353 16.4534 159.313 16.8001L157.873 12.6401C159.206 12.1334 160.566 11.7467 161.953 11.4801C163.366 11.2134 164.673 11.0801 165.873 11.0801C168.913 11.0801 171.139 11.7067 172.553 12.9601C173.966 14.2134 174.673 16.0934 174.673 18.6001V26.8401ZM165.113 29.1601C166.553 29.1601 167.673 28.4801 168.473 27.1201V23.3601H166.913C165.473 23.3601 164.393 23.6134 163.673 24.1201C162.979 24.6267 162.633 25.4134 162.633 26.4801C162.633 27.3334 162.846 28.0001 163.273 28.4801C163.726 28.9334 164.339 29.1601 165.113 29.1601Z" fill="#313131"/>
<path d="M202.239 4.60006C204.319 4.60006 206.119 4.89339 207.639 5.48006C209.186 6.06673 210.586 6.96006 211.839 8.16006L208.799 11.7201C206.906 10.1734 204.879 9.40006 202.719 9.40006C201.572 9.40006 200.666 9.64006 199.999 10.1201C199.332 10.5734 198.999 11.2401 198.999 12.1201C198.999 12.7334 199.146 13.2401 199.439 13.6401C199.732 14.0134 200.252 14.3734 200.999 14.7201C201.746 15.0667 202.866 15.4801 204.359 15.9601C207.186 16.8667 209.266 17.9867 210.599 19.3201C211.932 20.6267 212.599 22.4934 212.599 24.9201C212.599 26.6534 212.159 28.1867 211.279 29.5201C210.399 30.8267 209.132 31.8534 207.479 32.6001C205.826 33.3201 203.866 33.6801 201.599 33.6801C199.332 33.6801 197.319 33.3201 195.559 32.6001C193.826 31.8801 192.332 30.9201 191.079 29.7201L194.399 26.0801C195.466 26.9867 196.559 27.6667 197.679 28.1201C198.826 28.5734 200.066 28.8001 201.399 28.8001C202.759 28.8001 203.826 28.5067 204.599 27.9201C205.399 27.3067 205.799 26.4667 205.799 25.4001C205.799 24.7067 205.652 24.1334 205.359 23.6801C205.066 23.2001 204.559 22.7734 203.839 22.4001C203.119 22.0267 202.079 21.6267 200.719 21.2001C197.652 20.2667 195.466 19.1201 194.159 17.7601C192.879 16.4001 192.239 14.6801 192.239 12.6001C192.239 11.0001 192.666 9.60006 193.519 8.40006C194.372 7.17339 195.559 6.24006 197.079 5.60006C198.599 4.93339 200.319 4.60006 202.239 4.60006Z" fill="#313131"/>
<path d="M234.97 26.8401C234.97 27.6401 235.076 28.2267 235.29 28.6001C235.53 28.9734 235.903 29.2534 236.41 29.4401L235.09 33.5601C233.783 33.4534 232.716 33.1734 231.89 32.7201C231.063 32.2401 230.423 31.4934 229.97 30.4801C228.583 32.6134 226.45 33.6801 223.57 33.6801C221.463 33.6801 219.783 33.0667 218.53 31.8401C217.276 30.6134 216.65 29.0134 216.65 27.0401C216.65 24.7201 217.503 22.9467 219.21 21.7201C220.916 20.4934 223.383 19.8801 226.61 19.8801H228.77V18.9601C228.77 17.7067 228.503 16.8534 227.97 16.4001C227.436 15.9201 226.503 15.6801 225.17 15.6801C224.476 15.6801 223.636 15.7867 222.65 16.0001C221.663 16.1867 220.65 16.4534 219.61 16.8001L218.17 12.6401C219.503 12.1334 220.863 11.7467 222.25 11.4801C223.663 11.2134 224.97 11.0801 226.17 11.0801C229.21 11.0801 231.436 11.7067 232.85 12.9601C234.263 14.2134 234.97 16.0934 234.97 18.6001V26.8401ZM225.41 29.1601C226.85 29.1601 227.97 28.4801 228.77 27.1201V23.3601H227.21C225.77 23.3601 224.69 23.6134 223.97 24.1201C223.276 24.6267 222.93 25.4134 222.93 26.4801C222.93 27.3334 223.143 28.0001 223.57 28.4801C224.023 28.9334 224.636 29.1601 225.41 29.1601Z" fill="#313131"/>
<path d="M254.444 11.0801C256.284 11.0801 257.724 11.6401 258.764 12.7601C259.804 13.8801 260.324 15.4534 260.324 17.4801V33.0001H254.004V18.5601C254.004 17.4934 253.83 16.7601 253.484 16.3601C253.164 15.9334 252.67 15.7201 252.004 15.7201C250.724 15.7201 249.497 16.6401 248.324 18.4801V33.0001H242.004V11.7601H247.524L247.964 14.2801C248.87 13.2134 249.844 12.4134 250.884 11.8801C251.95 11.3467 253.137 11.0801 254.444 11.0801Z" fill="#313131"/>
<path d="M274.57 11.0801C276.09 11.0801 277.516 11.3067 278.85 11.7601C280.183 12.2134 281.356 12.8534 282.37 13.6801L280.05 17.2401C278.316 16.1467 276.57 15.6001 274.81 15.6001C273.983 15.6001 273.343 15.7467 272.89 16.0401C272.463 16.3067 272.25 16.6934 272.25 17.2001C272.25 17.6001 272.343 17.9334 272.53 18.2001C272.743 18.4401 273.156 18.6934 273.77 18.9601C274.383 19.2267 275.33 19.5467 276.61 19.9201C278.823 20.5601 280.463 21.4001 281.53 22.4401C282.623 23.4534 283.17 24.8667 283.17 26.6801C283.17 28.1201 282.756 29.3734 281.93 30.4401C281.103 31.4801 279.97 32.2801 278.53 32.8401C277.09 33.4001 275.49 33.6801 273.73 33.6801C271.943 33.6801 270.276 33.4001 268.73 32.8401C267.21 32.2801 265.916 31.5067 264.85 30.5201L267.93 27.0801C269.716 28.4667 271.596 29.1601 273.57 29.1601C274.53 29.1601 275.276 28.9867 275.81 28.6401C276.37 28.2934 276.65 27.8001 276.65 27.1601C276.65 26.6534 276.543 26.2534 276.33 25.9601C276.116 25.6667 275.703 25.4001 275.09 25.1601C274.476 24.8934 273.503 24.5734 272.17 24.2001C270.063 23.5867 268.49 22.7334 267.45 21.6401C266.41 20.5467 265.89 19.1867 265.89 17.5601C265.89 16.3334 266.236 15.2401 266.93 14.2801C267.65 13.2934 268.663 12.5201 269.97 11.9601C271.303 11.3734 272.836 11.0801 274.57 11.0801Z" fill="#313131"/>
<path d="M37.1682 108.15C37.1682 108.65 37.2348 109.017 37.3682 109.25C37.5182 109.483 37.7515 109.658 38.0682 109.775L37.2432 112.35C36.4265 112.283 35.7598 112.108 35.2432 111.825C34.7265 111.525 34.3265 111.058 34.0432 110.425C33.1765 111.758 31.8432 112.425 30.0432 112.425C28.7265 112.425 27.6765 112.042 26.8932 111.275C26.1098 110.508 25.7182 109.508 25.7182 108.275C25.7182 106.825 26.2515 105.717 27.3182 104.95C28.3848 104.183 29.9265 103.8 31.9432 103.8H33.2932V103.225C33.2932 102.442 33.1265 101.908 32.7932 101.625C32.4598 101.325 31.8765 101.175 31.0432 101.175C30.6098 101.175 30.0848 101.242 29.4682 101.375C28.8515 101.492 28.2182 101.658 27.5682 101.875L26.6682 99.2751C27.5015 98.9584 28.3515 98.7167 29.2182 98.5501C30.1015 98.3834 30.9182 98.3001 31.6682 98.3001C33.5682 98.3001 34.9598 98.6917 35.8432 99.4751C36.7265 100.258 37.1682 101.433 37.1682 103V108.15ZM31.1932 109.6C32.0932 109.6 32.7932 109.175 33.2932 108.325V105.975H32.3182C31.4182 105.975 30.7432 106.133 30.2932 106.45C29.8598 106.767 29.6432 107.258 29.6432 107.925C29.6432 108.458 29.7765 108.875 30.0432 109.175C30.3265 109.458 30.7098 109.6 31.1932 109.6Z" fill="#313131"/>
<path d="M47.8395 98.3001C49.4228 98.3001 50.6395 98.9251 51.4895 100.175C52.3395 101.408 52.7645 103.142 52.7645 105.375C52.7645 106.742 52.5478 107.958 52.1145 109.025C51.6978 110.092 51.0895 110.925 50.2895 111.525C49.5061 112.125 48.5728 112.425 47.4895 112.425C46.7728 112.425 46.1145 112.275 45.5145 111.975C44.9311 111.675 44.4311 111.258 44.0145 110.725L43.8145 112H40.3145V93.4501L44.2645 93.0251V100.075C44.6645 99.5251 45.1728 99.0917 45.7895 98.7751C46.4228 98.4584 47.1061 98.3001 47.8395 98.3001ZM46.3395 109.55C47.8895 109.55 48.6645 108.158 48.6645 105.375C48.6645 103.792 48.4811 102.7 48.1145 102.1C47.7478 101.5 47.2145 101.2 46.5145 101.2C45.6311 101.2 44.8811 101.717 44.2645 102.75V108.275C44.5145 108.675 44.8145 108.992 45.1645 109.225C45.5311 109.442 45.9228 109.55 46.3395 109.55Z" fill="#313131"/>
<path d="M60.9814 98.3001C61.8981 98.3001 62.7231 98.4334 63.4564 98.7001C64.1898 98.9667 64.8814 99.3751 65.5314 99.9251L63.8314 102.275C62.9981 101.642 62.1564 101.325 61.3064 101.325C60.4231 101.325 59.7564 101.65 59.3064 102.3C58.8564 102.95 58.6314 104 58.6314 105.45C58.6314 106.85 58.8564 107.842 59.3064 108.425C59.7564 109.008 60.4064 109.3 61.2564 109.3C61.7064 109.3 62.1148 109.233 62.4814 109.1C62.8481 108.95 63.2898 108.717 63.8064 108.4L65.5314 110.85C64.2148 111.9 62.7231 112.425 61.0564 112.425C59.7064 112.425 58.5398 112.142 57.5564 111.575C56.5731 110.992 55.8148 110.183 55.2814 109.15C54.7481 108.1 54.4814 106.875 54.4814 105.475C54.4814 104.075 54.7481 102.833 55.2814 101.75C55.8148 100.667 56.5731 99.8251 57.5564 99.2251C58.5398 98.6084 59.6814 98.3001 60.9814 98.3001Z" fill="#313131"/>
<path d="M78.6061 93.4501V112H75.1061L74.9061 110.45C73.9727 111.767 72.7144 112.425 71.1311 112.425C69.4811 112.425 68.2227 111.792 67.3561 110.525C66.5061 109.258 66.0811 107.525 66.0811 105.325C66.0811 103.975 66.3061 102.767 66.7561 101.7C67.2061 100.633 67.8394 99.8001 68.6561 99.2001C69.4894 98.6001 70.4394 98.3001 71.5061 98.3001C72.7727 98.3001 73.8227 98.7167 74.6561 99.5501V93.0251L78.6061 93.4501ZM72.3561 109.525C73.2727 109.525 74.0394 109.025 74.6561 108.025V102.3C74.3394 101.917 74.0144 101.633 73.6811 101.45C73.3644 101.267 72.9977 101.175 72.5811 101.175C71.8477 101.175 71.2644 101.517 70.8311 102.2C70.3977 102.883 70.1811 103.933 70.1811 105.35C70.1811 106.9 70.3644 107.983 70.7311 108.6C71.1144 109.217 71.6561 109.525 72.3561 109.525Z" fill="#313131"/>
<path d="M93.2713 105.1C93.2713 105.65 93.2463 106.125 93.1963 106.525H84.9713C85.1046 107.642 85.4213 108.425 85.9213 108.875C86.4213 109.325 87.113 109.55 87.9963 109.55C88.5296 109.55 89.0463 109.458 89.5463 109.275C90.0463 109.075 90.588 108.775 91.1713 108.375L92.7963 110.575C91.2463 111.808 89.5213 112.425 87.6213 112.425C85.4713 112.425 83.8213 111.792 82.6713 110.525C81.5213 109.258 80.9463 107.558 80.9463 105.425C80.9463 104.075 81.188 102.867 81.6713 101.8C82.1546 100.717 82.863 99.8667 83.7963 99.2501C84.7296 98.6167 85.8463 98.3001 87.1463 98.3001C89.063 98.3001 90.563 98.9001 91.6463 100.1C92.7296 101.3 93.2713 102.967 93.2713 105.1ZM89.3963 103.975C89.363 101.942 88.6463 100.925 87.2463 100.925C86.563 100.925 86.0296 101.175 85.6463 101.675C85.2796 102.175 85.0546 103 84.9713 104.15H89.3963V103.975Z" fill="#313131"/>
<path d="M101.565 95.9501C100.999 95.9501 100.59 96.0834 100.34 96.3501C100.09 96.6167 99.9652 97.0667 99.9652 97.7001V98.7251H103.09L102.665 101.475H99.9652V112H96.0152V101.475H94.0152V98.7251H96.0152V97.5501C96.0152 96.2167 96.4486 95.1334 97.3152 94.3001C98.1986 93.4501 99.4569 93.0251 101.09 93.0251C102.407 93.0251 103.615 93.3084 104.715 93.8751L103.64 96.4501C102.974 96.1167 102.282 95.9501 101.565 95.9501Z" fill="#313131"/>
<path d="M116.626 99.5001C115.76 99.8501 114.485 100.025 112.801 100.025C113.668 100.392 114.301 100.842 114.701 101.375C115.101 101.908 115.301 102.6 115.301 103.45C115.301 104.3 115.076 105.067 114.626 105.75C114.176 106.417 113.526 106.942 112.676 107.325C111.843 107.708 110.86 107.9 109.726 107.9C109.193 107.9 108.685 107.85 108.201 107.75C108.068 107.817 107.96 107.925 107.876 108.075C107.81 108.208 107.776 108.35 107.776 108.5C107.776 108.75 107.868 108.95 108.051 109.1C108.251 109.233 108.643 109.3 109.226 109.3H111.226C112.243 109.3 113.135 109.467 113.901 109.8C114.668 110.133 115.26 110.592 115.676 111.175C116.093 111.758 116.301 112.417 116.301 113.15C116.301 114.533 115.701 115.608 114.501 116.375C113.318 117.158 111.601 117.55 109.351 117.55C107.735 117.55 106.46 117.375 105.526 117.025C104.593 116.692 103.935 116.217 103.551 115.6C103.185 114.983 103.001 114.208 103.001 113.275H106.551C106.551 113.675 106.626 113.992 106.776 114.225C106.943 114.458 107.235 114.633 107.651 114.75C108.068 114.867 108.668 114.925 109.451 114.925C110.535 114.925 111.285 114.792 111.701 114.525C112.118 114.275 112.326 113.908 112.326 113.425C112.326 113.025 112.168 112.708 111.851 112.475C111.535 112.242 111.06 112.125 110.426 112.125H108.501C107.135 112.125 106.11 111.883 105.426 111.4C104.76 110.9 104.426 110.267 104.426 109.5C104.426 109.017 104.568 108.55 104.851 108.1C105.135 107.633 105.518 107.25 106.001 106.95C105.168 106.5 104.56 105.975 104.176 105.375C103.81 104.758 103.626 104.017 103.626 103.15C103.626 101.667 104.16 100.492 105.226 99.6251C106.293 98.7417 107.701 98.3001 109.451 98.3001C110.785 98.3334 111.91 98.2001 112.826 97.9001C113.76 97.6001 114.718 97.1584 115.701 96.5751L116.626 99.5001ZM109.551 100.9C108.935 100.9 108.443 101.1 108.076 101.5C107.726 101.883 107.551 102.417 107.551 103.1C107.551 103.817 107.726 104.375 108.076 104.775C108.443 105.158 108.935 105.35 109.551 105.35C110.201 105.35 110.693 105.158 111.026 104.775C111.376 104.392 111.551 103.817 111.551 103.05C111.551 101.617 110.885 100.9 109.551 100.9Z" fill="#313131"/>
<path d="M125.946 98.3001C127.096 98.3001 127.996 98.6501 128.646 99.3501C129.296 100.05 129.621 101.033 129.621 102.3V112H125.671V102.975C125.671 102.308 125.563 101.85 125.346 101.6C125.129 101.333 124.821 101.2 124.421 101.2C123.621 101.2 122.854 101.767 122.121 102.9V112H118.171V93.4501L122.121 93.0501V100.15C122.671 99.5334 123.254 99.0751 123.871 98.7751C124.488 98.4584 125.179 98.3001 125.946 98.3001Z" fill="#313131"/>
<path d="M136.55 98.7251V112H132.6V98.7251H136.55ZM134.55 91.7251C135.233 91.7251 135.791 91.9417 136.225 92.3751C136.675 92.7917 136.9 93.3251 136.9 93.9751C136.9 94.6251 136.675 95.1667 136.225 95.6001C135.791 96.0167 135.233 96.2251 134.55 96.2251C133.866 96.2251 133.308 96.0167 132.875 95.6001C132.441 95.1667 132.225 94.6251 132.225 93.9751C132.225 93.3251 132.441 92.7917 132.875 92.3751C133.308 91.9417 133.866 91.7251 134.55 91.7251Z" fill="#313131"/>
<path d="M143.58 110.5C143.58 111.883 143.355 113.025 142.905 113.925C142.472 114.825 141.872 115.542 141.105 116.075C140.355 116.625 139.405 117.108 138.255 117.525L136.93 114.65C137.58 114.35 138.089 114.058 138.455 113.775C138.822 113.492 139.105 113.108 139.305 112.625C139.522 112.158 139.63 111.533 139.63 110.75V98.7251H143.58V110.5ZM141.605 91.7251C142.289 91.7251 142.847 91.9417 143.28 92.3751C143.73 92.7917 143.955 93.3251 143.955 93.9751C143.955 94.6251 143.73 95.1667 143.28 95.6001C142.847 96.0167 142.289 96.2251 141.605 96.2251C140.922 96.2251 140.364 96.0167 139.93 95.6001C139.497 95.1667 139.28 94.6251 139.28 93.9751C139.28 93.3251 139.497 92.7917 139.93 92.3751C140.364 91.9417 140.922 91.7251 141.605 91.7251Z" fill="#313131"/>
<path d="M150.637 93.0251V112H146.687V93.4501L150.637 93.0251ZM158.837 98.7251L154.812 104.55L159.162 112H154.712L150.762 104.75L154.812 98.7251H158.837Z" fill="#313131"/>
<path d="M164.005 112.425C162.855 112.425 161.955 112.1 161.305 111.45C160.672 110.783 160.355 109.842 160.355 108.625V93.4501L164.305 93.0251V108.475C164.305 109.025 164.53 109.3 164.98 109.3C165.214 109.3 165.43 109.258 165.63 109.175L166.405 111.975C165.689 112.275 164.889 112.425 164.005 112.425Z" fill="#313131"/>
<path d="M182.577 98.3001C183.627 98.3001 184.469 98.6584 185.102 99.3751C185.736 100.075 186.052 101.05 186.052 102.3V112H182.102V102.975C182.102 101.792 181.727 101.2 180.977 101.2C180.561 101.2 180.194 101.342 179.877 101.625C179.561 101.908 179.252 102.342 178.952 102.925V112H175.002V102.975C175.002 101.792 174.627 101.2 173.877 101.2C173.477 101.2 173.111 101.35 172.777 101.65C172.461 101.933 172.152 102.358 171.852 102.925V112H167.902V98.7251H171.352L171.627 100.275C172.144 99.6084 172.711 99.1167 173.327 98.8001C173.961 98.4667 174.677 98.3001 175.477 98.3001C176.227 98.3001 176.869 98.4834 177.402 98.8501C177.952 99.2167 178.352 99.7334 178.602 100.4C179.136 99.6834 179.719 99.1584 180.352 98.8251C181.002 98.4751 181.744 98.3001 182.577 98.3001Z" fill="#313131"/>
<path d="M196.796 98.3001C197.946 98.3001 198.846 98.6501 199.496 99.3501C200.146 100.05 200.471 101.033 200.471 102.3V112H196.521V102.975C196.521 102.308 196.412 101.85 196.196 101.6C195.996 101.333 195.687 101.2 195.271 101.2C194.471 101.2 193.704 101.775 192.971 102.925V112H189.021V98.7251H192.471L192.746 100.3C193.312 99.6334 193.921 99.1334 194.571 98.8001C195.237 98.4667 195.979 98.3001 196.796 98.3001Z" fill="#313131"/>
<path d="M209.199 98.3001C211.233 98.3001 212.824 98.9251 213.974 100.175C215.124 101.408 215.699 103.142 215.699 105.375C215.699 106.792 215.433 108.033 214.899 109.1C214.383 110.15 213.633 110.967 212.649 111.55C211.683 112.133 210.533 112.425 209.199 112.425C207.183 112.425 205.591 111.808 204.424 110.575C203.274 109.325 202.699 107.583 202.699 105.35C202.699 103.933 202.958 102.7 203.474 101.65C204.008 100.583 204.758 99.7584 205.724 99.1751C206.708 98.5917 207.866 98.3001 209.199 98.3001ZM209.199 101.2C208.399 101.2 207.799 101.542 207.399 102.225C206.999 102.892 206.799 103.933 206.799 105.35C206.799 106.8 206.991 107.858 207.374 108.525C207.774 109.192 208.383 109.525 209.199 109.525C209.999 109.525 210.599 109.192 210.999 108.525C211.399 107.842 211.599 106.792 211.599 105.375C211.599 103.925 211.399 102.867 210.999 102.2C210.616 101.533 210.016 101.2 209.199 101.2Z" fill="#313131"/>
<path d="M225.549 98.3001C227.215 98.3001 228.457 98.9167 229.274 100.15C230.091 101.383 230.499 103.108 230.499 105.325C230.499 106.692 230.282 107.917 229.849 109C229.432 110.067 228.824 110.908 228.024 111.525C227.224 112.125 226.29 112.425 225.224 112.425C223.89 112.425 222.815 111.967 221.999 111.05V117.125L218.049 117.55V98.7251H221.524L221.724 100.2C222.24 99.5501 222.832 99.0751 223.499 98.7751C224.165 98.4584 224.849 98.3001 225.549 98.3001ZM224.024 109.525C225.607 109.525 226.399 108.142 226.399 105.375C226.399 103.808 226.224 102.725 225.874 102.125C225.524 101.508 224.999 101.2 224.299 101.2C223.849 101.2 223.424 101.333 223.024 101.6C222.641 101.867 222.299 102.25 221.999 102.75V108.35C222.532 109.133 223.207 109.525 224.024 109.525Z" fill="#313131"/>
<path d="M244.866 98.7251V117.55L240.916 117.125V110.725C240.032 111.858 238.857 112.425 237.391 112.425C235.741 112.425 234.482 111.792 233.616 110.525C232.766 109.258 232.341 107.525 232.341 105.325C232.341 103.958 232.566 102.75 233.016 101.7C233.466 100.633 234.099 99.8001 234.916 99.2001C235.749 98.6001 236.707 98.3001 237.791 98.3001C239.141 98.3001 240.282 98.8251 241.216 99.8751L241.416 98.7251H244.866ZM238.616 109.525C239.532 109.525 240.299 109.025 240.916 108.025V102.3C240.599 101.917 240.282 101.633 239.966 101.45C239.649 101.267 239.282 101.175 238.866 101.175C238.116 101.175 237.524 101.517 237.091 102.2C236.657 102.867 236.441 103.917 236.441 105.35C236.441 106.9 236.624 107.983 236.991 108.6C237.374 109.217 237.916 109.525 238.616 109.525Z" fill="#313131"/>
<path d="M255.156 98.3501C255.639 98.3501 256.081 98.4084 256.481 98.5251L255.856 102.35C255.356 102.233 254.956 102.175 254.656 102.175C253.873 102.175 253.273 102.45 252.856 103C252.456 103.533 252.139 104.342 251.906 105.425V112H247.956V98.7251H251.406L251.731 101.3C252.031 100.383 252.481 99.6667 253.081 99.1501C253.698 98.6167 254.389 98.3501 255.156 98.3501Z" fill="#313131"/>
<path d="M262.372 98.3001C263.322 98.3001 264.214 98.4417 265.047 98.7251C265.881 99.0084 266.614 99.4084 267.247 99.9251L265.797 102.15C264.714 101.467 263.622 101.125 262.522 101.125C262.006 101.125 261.606 101.217 261.322 101.4C261.056 101.567 260.922 101.808 260.922 102.125C260.922 102.375 260.981 102.583 261.097 102.75C261.231 102.9 261.489 103.058 261.872 103.225C262.256 103.392 262.847 103.592 263.647 103.825C265.031 104.225 266.056 104.75 266.722 105.4C267.406 106.033 267.747 106.917 267.747 108.05C267.747 108.95 267.489 109.733 266.972 110.4C266.456 111.05 265.747 111.55 264.847 111.9C263.947 112.25 262.947 112.425 261.847 112.425C260.731 112.425 259.689 112.25 258.722 111.9C257.772 111.55 256.964 111.067 256.297 110.45L258.222 108.3C259.339 109.167 260.514 109.6 261.747 109.6C262.347 109.6 262.814 109.492 263.147 109.275C263.497 109.058 263.672 108.75 263.672 108.35C263.672 108.033 263.606 107.783 263.472 107.6C263.339 107.417 263.081 107.25 262.697 107.1C262.314 106.933 261.706 106.733 260.872 106.5C259.556 106.117 258.572 105.583 257.922 104.9C257.272 104.217 256.947 103.367 256.947 102.35C256.947 101.583 257.164 100.9 257.597 100.3C258.047 99.6834 258.681 99.2001 259.497 98.8501C260.331 98.4834 261.289 98.3001 262.372 98.3001Z" fill="#313131"/>
<path d="M278.107 111.375C277.624 111.708 277.057 111.967 276.407 112.15C275.774 112.333 275.141 112.425 274.507 112.425C271.607 112.408 270.157 110.808 270.157 107.625V101.475H268.282V98.7251H270.157V95.8501L274.107 95.4001V98.7251H277.157L276.732 101.475H274.107V107.575C274.107 108.192 274.207 108.633 274.407 108.9C274.607 109.167 274.924 109.3 275.357 109.3C275.807 109.3 276.282 109.158 276.782 108.875L278.107 111.375Z" fill="#313131"/>
<path d="M290.626 112H287.201L287.026 110.325C286.059 111.725 284.717 112.425 283.001 112.425C281.784 112.425 280.859 112.058 280.226 111.325C279.609 110.592 279.301 109.567 279.301 108.25V98.7251H283.251V107.75C283.251 108.4 283.351 108.858 283.551 109.125C283.767 109.375 284.092 109.5 284.526 109.5C285.359 109.5 286.076 108.983 286.676 107.95V98.7251H290.626V112Z" fill="#313131"/>
<path d="M305.157 98.7251L300.982 112H296.307L292.032 98.7251H296.332L298.682 109L301.132 98.7251H305.157Z" fill="#313131"/>
<path d="M323.6 98.7251L320.85 112H316.125L314.35 102.25L312.6 112H307.925L305.1 98.7251H309.1L310.475 109.05L312.55 98.7251H316.4L318.225 109.05L319.825 98.7251H323.6Z" fill="#313131"/>
<path d="M332.5 104.9L336.775 112H332.3L330 107.025L327.75 112H323.45L327.725 105.025L323.875 98.7251H328.3L330.15 102.975L331.925 98.7251H336.125L332.5 104.9Z" fill="#313131"/>
<path d="M345.393 112.025C344.86 113.742 343.985 115.058 342.768 115.975C341.568 116.908 339.952 117.433 337.918 117.55L337.493 114.775C338.76 114.608 339.693 114.325 340.293 113.925C340.91 113.525 341.402 112.883 341.768 112H340.418L336.368 98.7251H340.568L342.943 109.475L345.543 98.7251H349.618L345.393 112.025Z" fill="#313131"/>
<path d="M360.358 98.7251V101.5L354.358 109H360.483L360.133 112H349.783V109.2L355.808 101.7H350.308V98.7251H360.358Z" fill="#313131"/>
<path d="M11.9041 150L11.0041 146.275H5.9541L5.0791 150H0.829102L6.0541 132.675H11.0291L16.2541 150H11.9041ZM6.6541 143.3H10.3041L8.4791 135.65L6.6541 143.3Z" fill="#313131"/>
<path d="M26.7502 140.825C27.9002 141.042 28.8335 141.467 29.5502 142.1C30.2835 142.733 30.6502 143.683 30.6502 144.95C30.6502 146.8 29.9835 148.108 28.6502 148.875C27.3335 149.625 25.4835 150 23.1002 150H17.5252V132.675H22.4252C24.8585 132.675 26.7169 133.025 28.0002 133.725C29.2835 134.408 29.9252 135.533 29.9252 137.1C29.9252 138.117 29.6169 138.942 29.0002 139.575C28.4002 140.192 27.6502 140.608 26.7502 140.825ZM21.6252 135.575V139.6H23.1502C24.8835 139.6 25.7502 138.9 25.7502 137.5C25.7502 136.8 25.5169 136.308 25.0502 136.025C24.5835 135.725 23.8419 135.575 22.8252 135.575H21.6252ZM23.1252 147.025C24.2085 147.025 25.0252 146.867 25.5752 146.55C26.1419 146.217 26.4252 145.608 26.4252 144.725C26.4252 143.125 25.4252 142.325 23.4252 142.325H21.6252V147.025H23.1252Z" fill="#313131"/>
<path d="M40.0299 132.25C41.1132 132.25 42.0716 132.408 42.9049 132.725C43.7549 133.042 44.5549 133.517 45.3049 134.15L43.3549 136.475C42.8382 136.075 42.3299 135.775 41.8299 135.575C41.3299 135.375 40.7965 135.275 40.2299 135.275C39.0632 135.275 38.1382 135.767 37.4549 136.75C36.7882 137.733 36.4549 139.25 36.4549 141.3C36.4549 143.317 36.7882 144.817 37.4549 145.8C38.1382 146.767 39.0799 147.25 40.2799 147.25C40.9132 147.25 41.4882 147.133 42.0049 146.9C42.5215 146.65 43.0799 146.3 43.6799 145.85L45.5049 148.2C44.8549 148.85 44.0632 149.383 43.1299 149.8C42.2132 150.217 41.1966 150.425 40.0799 150.425C38.4799 150.425 37.0882 150.075 35.9049 149.375C34.7216 148.675 33.7965 147.642 33.1299 146.275C32.4799 144.892 32.1549 143.233 32.1549 141.3C32.1549 139.417 32.4882 137.792 33.1549 136.425C33.8382 135.058 34.7716 134.025 35.9549 133.325C37.1549 132.608 38.5132 132.25 40.0299 132.25Z" fill="#313131"/>
<path d="M52.1598 132.675C54.8764 132.675 57.0514 133.292 58.6848 134.525C60.3348 135.742 61.1598 137.983 61.1598 141.25C61.1598 144.467 60.3598 146.733 58.7598 148.05C57.1598 149.35 55.0848 150 52.5348 150H47.3348V132.675H52.1598ZM51.4348 135.65V147.025H52.7848C54.1348 147.025 55.1598 146.608 55.8598 145.775C56.5598 144.925 56.9098 143.417 56.9098 141.25C56.9098 139.767 56.7348 138.617 56.3848 137.8C56.0348 136.983 55.5598 136.425 54.9598 136.125C54.3598 135.808 53.6181 135.65 52.7348 135.65H51.4348Z" fill="#313131"/>
<path d="M74.2439 132.675L73.8189 135.6H67.7189V139.75H73.0439V142.625H67.7189V147.05H74.2439V150H63.6189V132.675H74.2439Z" fill="#313131"/>
<path d="M76.7781 150V132.675H87.1031L86.6781 135.6H80.8781V140.2H85.9281V143.125H80.8781V150H76.7781Z" fill="#313131"/>
<path d="M95.9969 132.25C98.2302 132.25 100.155 132.958 101.772 134.375L99.6969 136.55C99.0802 136.083 98.5052 135.75 97.9719 135.55C97.4552 135.333 96.8552 135.225 96.1719 135.225C94.8885 135.225 93.8635 135.733 93.0969 136.75C92.3302 137.75 91.9469 139.275 91.9469 141.325C91.9469 143.542 92.2385 145.117 92.8219 146.05C93.4052 146.967 94.3135 147.425 95.5469 147.425C96.4135 147.425 97.1969 147.233 97.8969 146.85V142.925H95.6469L95.2469 140.025H101.872V148.6C100.972 149.183 99.9802 149.633 98.8969 149.95C97.8135 150.267 96.7302 150.425 95.6469 150.425C93.0135 150.425 91.0302 149.658 89.6969 148.125C88.3635 146.575 87.6969 144.308 87.6969 141.325C87.6969 139.425 88.0552 137.792 88.7719 136.425C89.5052 135.058 90.4969 134.025 91.7469 133.325C93.0135 132.608 94.4302 132.25 95.9969 132.25Z" fill="#313131"/>
<path d="M113.91 150V142.575H108.71V150H104.61V132.675H108.71V139.375H113.91V132.675H118.01V150H113.91Z" fill="#313131"/>
<path d="M125.361 132.675V150H121.261V132.675H125.361Z" fill="#313131"/>
<path d="M133.36 147.375C133.36 148.758 133.11 149.9 132.61 150.8C132.126 151.7 131.476 152.4 130.66 152.9C129.86 153.417 128.901 153.858 127.785 154.225L126.685 151.325C127.418 151.042 127.968 150.717 128.335 150.35C128.701 149.983 128.943 149.558 129.06 149.075C129.193 148.592 129.26 147.975 129.26 147.225V132.675H133.36V147.375Z" fill="#313131"/>
<path d="M140.619 132.675V150H136.519V132.675H140.619ZM150.569 132.675L145.044 140.45L151.019 150H146.269L140.744 140.75L146.244 132.675H150.569Z" fill="#313131"/>
<path d="M156.44 132.675V146.75H163.19L162.765 150H152.34V132.675H156.44Z" fill="#313131"/>
<path d="M182.113 150H178.088L177.788 143.225C177.705 141.608 177.663 140.167 177.663 138.9C177.663 137.933 177.688 137.017 177.738 136.15L175.063 148.175H171.188L168.338 136.15C168.438 137.6 168.488 138.967 168.488 140.25C168.488 141.217 168.463 142.225 168.413 143.275L168.113 150H164.113L165.413 132.675H170.588L173.188 144.425L175.613 132.675H180.813L182.113 150Z" fill="#313131"/>
<path d="M197.916 150H192.691L187.691 136.575C187.858 137.892 187.983 139.058 188.066 140.075C188.166 141.075 188.216 142.267 188.216 143.65V150H184.566V132.675H189.666L194.791 146.125C194.425 143.842 194.241 141.692 194.241 139.675V132.675H197.916V150Z" fill="#313131"/>
<path d="M208.143 132.25C210.61 132.25 212.527 133.042 213.893 134.625C215.277 136.208 215.968 138.442 215.968 141.325C215.968 143.208 215.652 144.833 215.018 146.2C214.402 147.567 213.502 148.617 212.318 149.35C211.152 150.067 209.76 150.425 208.143 150.425C206.527 150.425 205.135 150.067 203.968 149.35C202.802 148.633 201.902 147.6 201.268 146.25C200.652 144.883 200.343 143.242 200.343 141.325C200.343 139.458 200.652 137.842 201.268 136.475C201.902 135.108 202.802 134.067 203.968 133.35C205.135 132.617 206.527 132.25 208.143 132.25ZM208.143 135.25C206.96 135.25 206.077 135.733 205.493 136.7C204.927 137.65 204.643 139.192 204.643 141.325C204.643 143.458 204.935 145.008 205.518 145.975C206.102 146.942 206.977 147.425 208.143 147.425C209.343 147.425 210.227 146.95 210.793 146C211.377 145.033 211.668 143.475 211.668 141.325C211.668 139.175 211.377 137.625 210.793 136.675C210.21 135.725 209.327 135.25 208.143 135.25Z" fill="#313131"/>
<path d="M224.029 132.675C226.312 132.675 228.087 133.15 229.354 134.1C230.62 135.05 231.254 136.458 231.254 138.325C231.254 140.275 230.629 141.75 229.379 142.75C228.145 143.733 226.487 144.225 224.404 144.225H222.529V150H218.429V132.675H224.029ZM224.054 141.275C225.02 141.275 225.754 141.05 226.254 140.6C226.77 140.133 227.029 139.375 227.029 138.325C227.029 136.508 226.012 135.6 223.979 135.6H222.529V141.275H224.054Z" fill="#313131"/>
<path d="M244.169 148.875C245.252 148.875 246.194 149.008 246.994 149.275C247.794 149.525 248.56 149.917 249.294 150.45L246.819 153.675C245.869 152.608 244.894 151.783 243.894 151.2C242.894 150.633 241.652 150.35 240.169 150.35C238.619 150.35 237.277 150 236.144 149.3C235.01 148.583 234.135 147.55 233.519 146.2C232.919 144.85 232.619 143.225 232.619 141.325C232.619 139.458 232.927 137.842 233.544 136.475C234.177 135.108 235.077 134.067 236.244 133.35C237.41 132.617 238.802 132.25 240.419 132.25C242.885 132.25 244.802 133.042 246.169 134.625C247.552 136.208 248.244 138.442 248.244 141.325C248.244 144.858 246.885 147.375 244.169 148.875ZM236.919 141.325C236.919 143.458 237.21 145.008 237.794 145.975C238.377 146.942 239.252 147.425 240.419 147.425C241.619 147.425 242.502 146.95 243.069 146C243.652 145.033 243.944 143.475 243.944 141.325C243.944 139.175 243.652 137.625 243.069 136.675C242.485 135.725 241.602 135.25 240.419 135.25C239.235 135.25 238.352 135.733 237.769 136.7C237.202 137.65 236.919 139.192 236.919 141.325Z" fill="#313131"/>
<path d="M256.379 143.375H254.779V150H250.679V132.675H256.354C258.721 132.675 260.496 133.108 261.68 133.975C262.88 134.842 263.479 136.167 263.479 137.95C263.479 139.067 263.213 140 262.68 140.75C262.146 141.483 261.304 142.108 260.154 142.625L264.555 150H259.93L256.379 143.375ZM254.779 140.55H256.504C257.421 140.55 258.105 140.342 258.555 139.925C259.021 139.508 259.254 138.85 259.254 137.95C259.254 137.117 259.004 136.508 258.504 136.125C258.021 135.742 257.271 135.55 256.254 135.55H254.779V140.55Z" fill="#313131"/>
<path d="M271.464 132.25C272.764 132.25 273.889 132.433 274.839 132.8C275.806 133.167 276.681 133.725 277.464 134.475L275.564 136.7C274.381 135.733 273.114 135.25 271.764 135.25C271.048 135.25 270.481 135.4 270.064 135.7C269.648 135.983 269.439 136.4 269.439 136.95C269.439 137.333 269.531 137.65 269.714 137.9C269.898 138.133 270.223 138.358 270.689 138.575C271.156 138.792 271.856 139.05 272.789 139.35C274.556 139.917 275.856 140.617 276.689 141.45C277.523 142.267 277.939 143.433 277.939 144.95C277.939 146.033 277.664 146.992 277.114 147.825C276.564 148.642 275.773 149.283 274.739 149.75C273.706 150.2 272.481 150.425 271.064 150.425C269.648 150.425 268.389 150.2 267.289 149.75C266.206 149.3 265.273 148.7 264.489 147.95L266.564 145.675C267.231 146.242 267.914 146.667 268.614 146.95C269.331 147.233 270.106 147.375 270.939 147.375C271.789 147.375 272.456 147.192 272.939 146.825C273.439 146.442 273.689 145.917 273.689 145.25C273.689 144.817 273.598 144.458 273.414 144.175C273.231 143.875 272.914 143.608 272.464 143.375C272.014 143.142 271.364 142.892 270.514 142.625C268.598 142.042 267.231 141.325 266.414 140.475C265.614 139.625 265.214 138.55 265.214 137.25C265.214 136.25 265.481 135.375 266.014 134.625C266.548 133.858 267.289 133.275 268.239 132.875C269.189 132.458 270.264 132.25 271.464 132.25Z" fill="#313131"/>
<path d="M291.509 132.675L291.109 135.825H286.834V150H282.734V135.825H278.259V132.675H291.509Z" fill="#313131"/>
<path d="M306.435 144.25C306.435 145.433 306.177 146.492 305.66 147.425C305.16 148.358 304.402 149.092 303.385 149.625C302.368 150.158 301.127 150.425 299.66 150.425C297.46 150.425 295.785 149.867 294.635 148.75C293.485 147.633 292.91 146.133 292.91 144.25V132.675H297.01V144.075C297.01 145.192 297.218 146.025 297.635 146.575C298.068 147.108 298.743 147.375 299.66 147.375C300.593 147.375 301.268 147.108 301.685 146.575C302.118 146.025 302.335 145.192 302.335 144.075V132.675H306.435V144.25Z" fill="#313131"/>
<path d="M322.419 132.675L317.594 150H312.494L307.494 132.675H311.819L315.119 146.8L318.219 132.675H322.419Z" fill="#313131"/>
<path d="M343.002 132.675L340.102 150H334.777L332.627 136.775L330.352 150H325.152L322.302 132.675H326.402L328.127 146.9L330.527 132.675H334.827L337.077 146.9L339.102 132.675H343.002Z" fill="#313131"/>
<path d="M352.869 140.65L357.869 150H353.394L350.419 143.4L347.494 150H343.144L347.994 140.8L343.519 132.675H347.969L350.469 138.225L353.094 132.675H357.444L352.869 140.65Z" fill="#313131"/>
<path d="M372.795 132.675L367.245 143.5V150H363.145V143.525L357.595 132.675H362.07L365.27 140.3L368.47 132.675H372.795Z" fill="#313131"/>
<path d="M385.048 132.675V135.775L377.523 146.725H385.173L384.773 150H372.698V146.925L380.373 135.85H373.473V132.675H385.048Z" fill="#313131"/>
<path d="M35.5543 56.7501C37.621 56.7501 39.196 57.5084 40.2793 59.0251C41.3793 60.5417 41.9293 62.7251 41.9293 65.5751C41.9293 68.4084 41.3793 70.5917 40.2793 72.1251C39.196 73.6584 37.621 74.4251 35.5543 74.4251C33.4876 74.4251 31.9043 73.6584 30.8043 72.1251C29.721 70.5917 29.1793 68.4084 29.1793 65.5751C29.1793 62.7251 29.721 60.5417 30.8043 59.0251C31.9043 57.5084 33.4876 56.7501 35.5543 56.7501ZM35.5543 59.6751C34.9876 59.6751 34.5376 59.8584 34.2043 60.2251C33.871 60.5917 33.621 61.2001 33.4543 62.0501C33.3043 62.9001 33.2293 64.0751 33.2293 65.5751C33.2293 67.0751 33.3043 68.2584 33.4543 69.1251C33.621 69.9751 33.871 70.5834 34.2043 70.9501C34.5376 71.3167 34.9876 71.5001 35.5543 71.5001C36.121 71.5001 36.571 71.3251 36.9043 70.9751C37.2376 70.6084 37.4793 70.0001 37.6293 69.1501C37.796 68.2834 37.8793 67.0917 37.8793 65.5751C37.8793 64.0584 37.796 62.8751 37.6293 62.0251C37.4793 61.1584 37.2376 60.5501 36.9043 60.2001C36.571 59.8501 36.121 59.6751 35.5543 59.6751Z" fill="#313131"/>
<path d="M51.8418 57.1001V74.0001H47.9668V60.9501L44.3418 63.1751L42.6168 60.5501L48.3168 57.1001H51.8418Z" fill="#313131"/>
<path d="M59.8385 56.7501C61.0551 56.7501 62.0968 56.9667 62.9635 57.4001C63.8468 57.8334 64.5135 58.4167 64.9635 59.1501C65.4301 59.8834 65.6635 60.6917 65.6635 61.5751C65.6635 62.4751 65.4801 63.3334 65.1135 64.1501C64.7468 64.9667 64.0968 65.9084 63.1635 66.9751C62.2301 68.0251 60.8718 69.3584 59.0885 70.9751H66.0135L65.6135 74.0001H54.6135V71.2001C56.6635 69.1834 58.1551 67.6667 59.0885 66.6501C60.0218 65.6167 60.6718 64.7584 61.0385 64.0751C61.4218 63.3917 61.6135 62.6917 61.6135 61.9751C61.6135 61.2917 61.4135 60.7584 61.0135 60.3751C60.6301 59.9751 60.1051 59.7751 59.4385 59.7751C58.8385 59.7751 58.3051 59.9167 57.8385 60.2001C57.3718 60.4667 56.8801 60.9084 56.3635 61.5251L54.0385 59.6751C54.7385 58.7584 55.5718 58.0417 56.5385 57.5251C57.5218 57.0084 58.6218 56.7501 59.8385 56.7501Z" fill="#313131"/>
<path d="M72.6564 56.7501C73.8398 56.7501 74.8481 56.9417 75.6814 57.3251C76.5314 57.7084 77.1731 58.2251 77.6064 58.8751C78.0564 59.5251 78.2814 60.2501 78.2814 61.0501C78.2814 62.0667 77.9898 62.9167 77.4064 63.6001C76.8398 64.2834 76.0314 64.7751 74.9814 65.0751C76.1148 65.1917 77.0398 65.6001 77.7564 66.3001C78.4731 66.9834 78.8314 67.9584 78.8314 69.2251C78.8314 70.1751 78.5814 71.0501 78.0814 71.8501C77.5814 72.6334 76.8398 73.2584 75.8564 73.7251C74.8898 74.1917 73.7314 74.4251 72.3814 74.4251C69.9148 74.4251 67.9814 73.5751 66.5814 71.8751L68.7064 69.8001C69.2731 70.3667 69.8231 70.7834 70.3564 71.0501C70.9064 71.3001 71.5064 71.4251 72.1564 71.4251C72.9398 71.4251 73.5731 71.2084 74.0564 70.7751C74.5398 70.3417 74.7814 69.7417 74.7814 68.9751C74.7814 68.1084 74.5481 67.4917 74.0814 67.1251C73.6314 66.7417 72.9481 66.5501 72.0314 66.5501H70.6314L71.0564 63.8251H72.0314C72.7814 63.8251 73.3731 63.6334 73.8064 63.2501C74.2398 62.8667 74.4564 62.3251 74.4564 61.6251C74.4564 61.0084 74.2564 60.5334 73.8564 60.2001C73.4564 59.8501 72.9064 59.6751 72.2064 59.6751C71.0231 59.6751 69.9231 60.1667 68.9064 61.1501L66.9564 59.0251C68.5564 57.5084 70.4564 56.7501 72.6564 56.7501Z" fill="#313131"/>
<path d="M93.2209 67.4001V70.3501H91.3209V74.0001H87.4709L87.4459 70.3501H80.3209V67.7251L85.1209 56.6751L88.4709 57.9251L84.3959 67.4001H87.4959L87.9209 63.4001H91.3209V67.4001H93.2209Z" fill="#313131"/>
<path d="M104.863 59.9251H98.7375V63.4751C99.5208 63.1084 100.354 62.9251 101.238 62.9251C102.171 62.9251 103.004 63.1417 103.738 63.5751C104.471 64.0084 105.046 64.6417 105.463 65.4751C105.879 66.3084 106.088 67.2917 106.088 68.4251C106.088 69.6084 105.812 70.6584 105.262 71.5751C104.729 72.4751 103.954 73.1751 102.938 73.6751C101.938 74.1751 100.779 74.4251 99.4625 74.4251C97.1792 74.4251 95.3042 73.5751 93.8375 71.8751L96.0375 69.8251C96.9542 70.9084 98.0458 71.4501 99.3125 71.4501C100.179 71.4501 100.846 71.1917 101.312 70.6751C101.796 70.1584 102.037 69.4167 102.037 68.4501C102.037 66.5667 101.246 65.6251 99.6625 65.6251C99.3292 65.6251 99.0042 65.6751 98.6875 65.7751C98.3708 65.8584 98.0208 66.0084 97.6375 66.2251H94.9625V57.1001H105.312L104.863 59.9251Z" fill="#313131"/>
<path d="M115.541 62.6251C116.474 62.6251 117.307 62.8501 118.041 63.3001C118.774 63.7334 119.349 64.3751 119.766 65.2251C120.182 66.0584 120.391 67.0584 120.391 68.2251C120.391 69.3751 120.141 70.4251 119.641 71.3751C119.141 72.3084 118.424 73.0501 117.491 73.6001C116.574 74.1501 115.499 74.4251 114.266 74.4251C112.099 74.4251 110.491 73.7001 109.441 72.2501C108.391 70.8001 107.866 68.8084 107.866 66.2751C107.866 64.3751 108.157 62.7084 108.741 61.2751C109.341 59.8417 110.191 58.7334 111.291 57.9501C112.407 57.1501 113.716 56.7501 115.216 56.7501C116.666 56.7501 117.949 57.1251 119.066 57.8751L117.616 60.2251C116.866 59.7917 116.099 59.5751 115.316 59.5751C114.366 59.5751 113.599 59.9751 113.016 60.7751C112.432 61.5751 112.082 62.7084 111.966 64.1751C112.982 63.1417 114.174 62.6251 115.541 62.6251ZM114.316 71.6001C115.016 71.6001 115.541 71.3084 115.891 70.7251C116.257 70.1251 116.441 69.3084 116.441 68.2751C116.441 67.2251 116.274 66.4751 115.941 66.0251C115.607 65.5751 115.107 65.3501 114.441 65.3501C113.541 65.3501 112.716 65.7917 111.966 66.6751C111.999 68.4584 112.191 69.7251 112.541 70.4751C112.891 71.2251 113.482 71.6001 114.316 71.6001Z" fill="#313131"/>
<path d="M131.642 57.1001V59.7751L125.442 74.4001L121.867 73.2001L127.542 60.0751H120.717V57.1001H131.642Z" fill="#313131"/>
<path d="M142.097 64.9251C143.23 65.4751 144.072 66.1251 144.622 66.8751C145.172 67.6084 145.447 68.4584 145.447 69.4251C145.447 70.3417 145.18 71.1834 144.647 71.9501C144.13 72.7001 143.372 73.3001 142.372 73.7501C141.372 74.2001 140.197 74.4251 138.847 74.4251C137.53 74.4251 136.38 74.2084 135.397 73.7751C134.43 73.3251 133.688 72.7334 133.172 72.0001C132.655 71.2501 132.397 70.4167 132.397 69.5001C132.397 67.6167 133.447 66.2167 135.547 65.3001C133.897 64.3334 133.072 63.0001 133.072 61.3001C133.072 60.4001 133.322 59.6084 133.822 58.9251C134.322 58.2417 135.013 57.7084 135.897 57.3251C136.797 56.9417 137.813 56.7501 138.947 56.7501C140.663 56.7501 142.063 57.1417 143.147 57.9251C144.247 58.6917 144.797 59.7501 144.797 61.1001C144.797 61.8501 144.572 62.5584 144.122 63.2251C143.688 63.8751 143.013 64.4417 142.097 64.9251ZM138.972 59.4251C138.338 59.4251 137.83 59.5917 137.447 59.9251C137.08 60.2584 136.897 60.7334 136.897 61.3501C136.897 61.9167 137.055 62.3834 137.372 62.7501C137.705 63.1001 138.23 63.4251 138.947 63.7251L139.472 63.9251C140.038 63.5584 140.43 63.1751 140.647 62.7751C140.863 62.3584 140.972 61.8667 140.972 61.3001C140.972 60.7334 140.797 60.2834 140.447 59.9501C140.113 59.6001 139.622 59.4251 138.972 59.4251ZM138.972 71.6001C139.772 71.6001 140.388 71.4001 140.822 71.0001C141.272 70.5834 141.497 70.0501 141.497 69.4001C141.497 68.7167 141.305 68.1834 140.922 67.8001C140.538 67.4001 139.863 67.0251 138.897 66.6751L138.072 66.3751C136.938 67.0084 136.372 67.9834 136.372 69.3001C136.372 70.0001 136.605 70.5584 137.072 70.9751C137.538 71.3917 138.172 71.6001 138.972 71.6001Z" fill="#313131"/>
<path d="M152.732 56.7501C154.766 56.7501 156.324 57.3501 157.407 58.5501C158.491 59.7334 159.032 61.3167 159.032 63.3001C159.032 65.5834 158.657 67.4751 157.907 68.9751C157.174 70.4751 156.041 71.6834 154.507 72.6001C152.974 73.5001 150.974 74.2001 148.507 74.7001L147.707 71.9501C149.891 71.4167 151.532 70.7501 152.632 69.9501C153.732 69.1334 154.449 67.9917 154.782 66.5251C153.899 67.6084 152.732 68.1501 151.282 68.1501C150.399 68.1501 149.591 67.9251 148.857 67.4751C148.124 67.0251 147.541 66.3751 147.107 65.5251C146.674 64.6751 146.457 63.6917 146.457 62.5751C146.457 61.4251 146.732 60.4084 147.282 59.5251C147.832 58.6417 148.582 57.9584 149.532 57.4751C150.499 56.9917 151.566 56.7501 152.732 56.7501ZM152.507 65.3751C152.991 65.3751 153.441 65.2501 153.857 65.0001C154.291 64.7334 154.674 64.3584 155.007 63.8751C155.024 62.3084 154.857 61.2001 154.507 60.5501C154.157 59.9001 153.566 59.5751 152.732 59.5751C152.016 59.5751 151.449 59.8251 151.032 60.3251C150.632 60.8084 150.432 61.5167 150.432 62.4501C150.432 63.4834 150.616 64.2334 150.982 64.7001C151.366 65.1501 151.874 65.3751 152.507 65.3751Z" fill="#313131"/>
<path d="M170.829 56.6751L170.329 67.6251H167.129L166.629 56.6751H170.829ZM168.729 69.9001C169.363 69.9001 169.896 70.1251 170.329 70.5751C170.779 71.0084 171.004 71.5334 171.004 72.1501C171.004 72.7834 170.779 73.3251 170.329 73.7751C169.896 74.2084 169.363 74.4251 168.729 74.4251C168.113 74.4251 167.579 74.2084 167.129 73.7751C166.696 73.3251 166.479 72.7834 166.479 72.1501C166.479 71.5334 166.696 71.0084 167.129 70.5751C167.579 70.1251 168.113 69.9001 168.729 69.9001Z" fill="#313131"/>
<path d="M184.91 61.4251C185.61 61.4251 186.335 61.5251 187.085 61.7251C187.852 61.9084 188.568 62.1834 189.235 62.5501V68.7251C189.235 69.7417 189.318 70.4501 189.485 70.8501C189.668 71.2501 189.977 71.4501 190.41 71.4501C191.06 71.4501 191.568 71.0501 191.935 70.2501C192.302 69.4334 192.485 68.0667 192.485 66.1501C192.485 63.9167 191.852 62.1917 190.585 60.9751C189.318 59.7417 187.418 59.1251 184.885 59.1251C183.135 59.1251 181.627 59.5001 180.36 60.2501C179.11 60.9834 178.152 62.0167 177.485 63.3501C176.835 64.6667 176.51 66.2001 176.51 67.9501C176.51 70.6501 177.227 72.7667 178.66 74.3001C180.11 75.8501 182.193 76.6251 184.91 76.6251C185.743 76.6251 186.602 76.5417 187.485 76.3751C188.368 76.2251 189.152 76.0251 189.835 75.7751L190.76 78.5001C189.943 78.8167 189.01 79.0667 187.96 79.2501C186.927 79.4501 185.902 79.5501 184.885 79.5501C182.485 79.5501 180.385 79.0751 178.585 78.1251C176.785 77.1751 175.393 75.8251 174.41 74.0751C173.427 72.3251 172.935 70.2834 172.935 67.9501C172.935 65.7167 173.443 63.7084 174.46 61.9251C175.493 60.1417 176.918 58.7501 178.735 57.7501C180.552 56.7501 182.61 56.2501 184.91 56.2501C187.193 56.2501 189.177 56.7084 190.86 57.6251C192.543 58.5251 193.827 59.7251 194.71 61.2251C195.593 62.7251 196.035 64.3501 196.035 66.1001C196.035 67.6001 195.81 68.9417 195.36 70.1251C194.91 71.3084 194.268 72.2334 193.435 72.9001C192.618 73.5667 191.668 73.9001 190.585 73.9001C189.652 73.9001 188.893 73.6501 188.31 73.1501C187.743 72.6501 187.385 72.0501 187.235 71.3501C186.918 72.1001 186.46 72.7001 185.86 73.1501C185.26 73.5834 184.527 73.8001 183.66 73.8001C182.143 73.8001 181.002 73.2917 180.235 72.2751C179.468 71.2417 179.085 69.8751 179.085 68.1751C179.085 66.1084 179.593 64.4667 180.61 63.2501C181.643 62.0334 183.077 61.4251 184.91 61.4251ZM184.185 71.3251C184.585 71.3251 184.927 71.2084 185.21 70.9751C185.493 70.7417 185.718 70.4501 185.885 70.1001V64.1501C185.502 64.0001 185.135 63.9251 184.785 63.9251C184.102 63.9251 183.577 64.2584 183.21 64.9251C182.843 65.5751 182.66 66.6667 182.66 68.2001C182.66 69.3334 182.777 70.1417 183.01 70.6251C183.26 71.0917 183.652 71.3251 184.185 71.3251Z" fill="#313131"/>
<path d="M210.773 63.0001H209.023L208.398 67.8001H209.848V70.4251H208.048L207.573 74.0001H204.298L204.773 70.4251H202.273L201.798 74.0001H198.523L198.998 70.4251H197.598V67.8001H199.348L199.973 63.0001H198.523V60.3751H200.323L200.748 57.1001H204.023L203.598 60.3751H206.098L206.523 57.1001H209.798L209.373 60.3751H210.773V63.0001ZM205.123 67.8001L205.748 63.0001H203.248L202.623 67.8001H205.123Z" fill="#313131"/>
<path d="M223.898 69.0001C223.898 70.3001 223.49 71.4001 222.673 72.3001C221.857 73.1834 220.723 73.7751 219.273 74.0751V78.0251H216.423V74.2251C214.223 74.0417 212.415 73.2584 210.998 71.8751L213.023 69.6751C214.223 70.7917 215.607 71.3501 217.173 71.3501C217.99 71.3501 218.632 71.1667 219.098 70.8001C219.565 70.4334 219.798 69.9334 219.798 69.3001C219.798 68.8834 219.715 68.5417 219.548 68.2751C219.382 67.9917 219.082 67.7417 218.648 67.5251C218.215 67.2917 217.59 67.0501 216.773 66.8001C214.94 66.2167 213.632 65.5251 212.848 64.7251C212.082 63.9251 211.698 62.9001 211.698 61.6501C211.698 60.4001 212.132 59.3584 212.998 58.5251C213.865 57.6751 215.007 57.1501 216.423 56.9501V53.2501H219.273V56.9501C220.923 57.2167 222.307 57.8917 223.423 58.9751L221.598 61.1251C220.498 60.1917 219.29 59.7251 217.973 59.7251C217.273 59.7251 216.723 59.8667 216.323 60.1501C215.923 60.4334 215.723 60.8334 215.723 61.3501C215.723 61.7167 215.807 62.0167 215.973 62.2501C216.157 62.4834 216.473 62.7084 216.923 62.9251C217.373 63.1251 218.048 63.3667 218.948 63.6501C220.632 64.1834 221.873 64.8501 222.673 65.6501C223.49 66.4501 223.898 67.5667 223.898 69.0001Z" fill="#313131"/>
<path d="M239.844 56.0001L242.269 57.5501L230.694 75.0001L228.269 73.4501L239.844 56.0001ZM229.669 56.7501C230.502 56.7501 231.252 56.9334 231.919 57.3001C232.602 57.6667 233.136 58.1917 233.519 58.8751C233.919 59.5584 234.119 60.3501 234.119 61.2501C234.119 62.1501 233.919 62.9417 233.519 63.6251C233.136 64.3084 232.602 64.8334 231.919 65.2001C231.252 65.5667 230.502 65.7501 229.669 65.7501C228.836 65.7501 228.077 65.5667 227.394 65.2001C226.727 64.8167 226.194 64.2917 225.794 63.6251C225.411 62.9417 225.219 62.1501 225.219 61.2501C225.219 60.3501 225.411 59.5667 225.794 58.9001C226.194 58.2167 226.727 57.6917 227.394 57.3251C228.077 56.9417 228.836 56.7501 229.669 56.7501ZM229.669 59.1251C228.586 59.1251 228.044 59.8334 228.044 61.2501C228.044 61.8667 228.161 62.3751 228.394 62.7751C228.644 63.1751 229.069 63.3751 229.669 63.3751C230.736 63.3751 231.269 62.6667 231.269 61.2501C231.269 59.8334 230.736 59.1251 229.669 59.1251ZM240.794 65.4501C241.627 65.4501 242.377 65.6334 243.044 66.0001C243.727 66.3667 244.261 66.8917 244.644 67.5751C245.044 68.2417 245.244 69.0251 245.244 69.9251C245.244 70.8251 245.044 71.6167 244.644 72.3001C244.261 72.9834 243.727 73.5084 243.044 73.8751C242.377 74.2417 241.627 74.4251 240.794 74.4251C239.961 74.4251 239.202 74.2417 238.519 73.8751C237.836 73.5084 237.294 72.9834 236.894 72.3001C236.511 71.6167 236.319 70.8251 236.319 69.9251C236.319 69.0251 236.511 68.2417 236.894 67.5751C237.294 66.8917 237.836 66.3667 238.519 66.0001C239.202 65.6334 239.961 65.4501 240.794 65.4501ZM240.794 67.8251C239.711 67.8251 239.169 68.5251 239.169 69.9251C239.169 70.5417 239.286 71.0584 239.519 71.4751C239.769 71.8751 240.194 72.0751 240.794 72.0751C241.861 72.0751 242.394 71.3584 242.394 69.9251C242.394 68.5251 241.861 67.8251 240.794 67.8251Z" fill="#313131"/>
<path d="M254.753 52.9001L259.478 60.8251H255.628L252.928 55.8501L250.353 60.8251H246.428L251.153 52.9001H254.753Z" fill="#313131"/>
<path d="M267.768 56.2501C268.868 56.2501 269.818 56.4251 270.618 56.7751C271.435 57.1251 272.052 57.6001 272.468 58.2001C272.902 58.8001 273.118 59.4834 273.118 60.2501C273.118 61.2334 272.835 62.0917 272.268 62.8251C271.718 63.5417 270.902 64.2584 269.818 64.9751L273.193 68.1501C273.677 67.1501 274.076 65.9501 274.393 64.5501L277.693 65.5251C277.06 67.3584 276.293 68.9084 275.393 70.1751L278.418 72.8501L275.043 74.4251L273.093 72.5501C271.543 73.8001 269.718 74.4251 267.618 74.4251C266.401 74.4251 265.326 74.2251 264.393 73.8251C263.46 73.4251 262.735 72.8584 262.218 72.1251C261.702 71.3917 261.443 70.5417 261.443 69.5751C261.443 68.5751 261.71 67.7001 262.243 66.9501C262.793 66.2001 263.652 65.4417 264.818 64.6751C263.918 63.8084 263.293 63.0751 262.943 62.4751C262.593 61.8584 262.418 61.1667 262.418 60.4001C262.418 59.6501 262.618 58.9667 263.018 58.3501C263.418 57.7167 264.018 57.2084 264.818 56.8251C265.635 56.4417 266.618 56.2501 267.768 56.2501ZM267.818 58.8001C267.318 58.8001 266.926 58.9501 266.643 59.2501C266.36 59.5334 266.218 59.9167 266.218 60.4001C266.218 60.8334 266.318 61.2251 266.518 61.5751C266.735 61.9251 267.11 62.3667 267.643 62.9001C268.226 62.5167 268.651 62.1251 268.918 61.7251C269.201 61.3251 269.343 60.8667 269.343 60.3501C269.343 59.8667 269.201 59.4917 268.918 59.2251C268.651 58.9417 268.285 58.8001 267.818 58.8001ZM267.068 66.8001C266.552 67.1834 266.168 67.5834 265.918 68.0001C265.685 68.4001 265.568 68.8501 265.568 69.3501C265.568 70.0334 265.818 70.5834 266.318 71.0001C266.818 71.4167 267.476 71.6251 268.293 71.6251C269.343 71.6251 270.285 71.3084 271.118 70.6751L267.068 66.8001Z" fill="#313131"/>
<path d="M288.961 60.6251L285.436 61.2001L287.961 63.7501L285.211 65.7501L283.561 62.5751L281.911 65.7751L279.161 63.7751L281.661 61.2251L278.136 60.6251L279.161 57.4751L282.361 59.0251L281.861 55.4501H285.261L284.736 59.0501L287.911 57.4501L288.961 60.6251Z" fill="#313131"/>
<path d="M296.992 54.2251C295.808 55.9251 294.95 57.6251 294.417 59.3251C293.883 61.0084 293.617 62.9834 293.617 65.2501C293.617 67.5167 293.883 69.5001 294.417 71.2001C294.95 72.8834 295.808 74.5751 296.992 76.2751L294.467 77.9751C293.383 76.4751 292.517 75.1751 291.867 74.0751C291.217 72.9917 290.675 71.7167 290.242 70.2501C289.825 68.7834 289.617 67.1167 289.617 65.2501C289.617 63.3834 289.825 61.7167 290.242 60.2501C290.675 58.7834 291.217 57.5084 291.867 56.4251C292.517 55.3251 293.383 54.0251 294.467 52.5251L296.992 54.2251Z" fill="#313131"/>
<path d="M300.122 52.5251C301.205 54.0417 302.063 55.3417 302.697 56.4251C303.347 57.5084 303.88 58.7834 304.297 60.2501C304.73 61.7167 304.947 63.3834 304.947 65.2501C304.947 67.1167 304.73 68.7834 304.297 70.2501C303.88 71.7167 303.347 72.9917 302.697 74.0751C302.063 75.1584 301.205 76.4584 300.122 77.9751L297.597 76.2751C298.78 74.5584 299.638 72.8584 300.172 71.1751C300.705 69.4751 300.972 67.5001 300.972 65.2501C300.972 63.0001 300.705 61.0334 300.172 59.3501C299.638 57.6501 298.78 55.9417 297.597 54.2251L300.122 52.5251Z" fill="#313131"/>
<path d="M311.627 56.2501C312.793 56.2501 313.785 56.4417 314.602 56.8251C315.435 57.1917 316.06 57.6917 316.477 58.3251C316.893 58.9584 317.102 59.6584 317.102 60.4251C317.102 61.1084 316.977 61.6917 316.727 62.1751C316.493 62.6584 316.21 63.0501 315.877 63.3501C315.543 63.6501 315.102 64.0001 314.552 64.4001C313.885 64.8501 313.393 65.2584 313.077 65.6251C312.76 65.9751 312.602 66.4334 312.602 67.0001V67.6251H309.002V66.8501C309.002 66.0667 309.118 65.4084 309.352 64.8751C309.602 64.3251 309.893 63.9001 310.227 63.6001C310.577 63.2834 311.01 62.9417 311.527 62.5751C312.027 62.2417 312.393 61.9501 312.627 61.7001C312.86 61.4501 312.977 61.1417 312.977 60.7751C312.977 60.3251 312.818 59.9751 312.502 59.7251C312.202 59.4751 311.777 59.3501 311.227 59.3501C310.177 59.3501 309.202 59.8584 308.302 60.8751L305.777 58.9251C307.293 57.1417 309.243 56.2501 311.627 56.2501ZM310.852 69.9001C311.468 69.9001 311.993 70.1251 312.427 70.5751C312.877 71.0084 313.102 71.5334 313.102 72.1501C313.102 72.7834 312.877 73.3251 312.427 73.7751C311.993 74.2084 311.468 74.4251 310.852 74.4251C310.235 74.4251 309.702 74.2084 309.252 73.7751C308.818 73.3251 308.602 72.7834 308.602 72.1501C308.602 71.5334 308.818 71.0084 309.252 70.5751C309.702 70.1251 310.235 69.9001 310.852 69.9001Z" fill="#313131"/>
<path d="M320.488 54.8501C321.088 54.8501 321.588 55.0417 321.988 55.4251C322.388 55.8084 322.588 56.2917 322.588 56.8751C322.588 57.1917 322.529 57.5167 322.413 57.8501C322.313 58.1834 322.129 58.6334 321.863 59.2001L320.263 62.4751H318.238L319.288 58.5751C318.671 58.1417 318.363 57.5667 318.363 56.8501C318.363 56.2834 318.563 55.8084 318.963 55.4251C319.379 55.0417 319.888 54.8501 320.488 54.8501Z" fill="#313131"/>
<path d="M326.567 54.8501C327.167 54.8501 327.667 55.0417 328.067 55.4251C328.467 55.8084 328.667 56.2917 328.667 56.8751C328.667 57.1917 328.608 57.5167 328.492 57.8501C328.392 58.1834 328.208 58.6334 327.942 59.2001L326.342 62.4751H324.317L325.367 58.5751C324.75 58.1417 324.442 57.5667 324.442 56.8501C324.442 56.2834 324.642 55.8084 325.042 55.4251C325.458 55.0417 325.967 54.8501 326.567 54.8501ZM331.692 54.8501C332.292 54.8501 332.792 55.0417 333.192 55.4251C333.592 55.8084 333.792 56.2917 333.792 56.8751C333.792 57.1917 333.733 57.5167 333.617 57.8501C333.517 58.1834 333.333 58.6334 333.067 59.2001L331.467 62.4751H329.442L330.492 58.5751C329.875 58.1417 329.567 57.5667 329.567 56.8501C329.567 56.2834 329.767 55.8084 330.167 55.4251C330.583 55.0417 331.092 54.8501 331.692 54.8501Z" fill="#313131"/>
<path d="M337.748 69.9001C338.381 69.9001 338.915 70.1167 339.348 70.5501C339.781 70.9834 339.998 71.5167 339.998 72.1501C339.998 72.5167 339.94 72.8834 339.823 73.2501C339.706 73.6167 339.498 74.1334 339.198 74.8001L337.623 78.4251H335.398L336.473 74.0251C336.156 73.8084 335.906 73.5417 335.723 73.2251C335.556 72.8917 335.473 72.5334 335.473 72.1501C335.473 71.5167 335.69 70.9834 336.123 70.5501C336.556 70.1167 337.098 69.9001 337.748 69.9001ZM337.748 61.2501C338.365 61.2501 338.89 61.4751 339.323 61.9251C339.773 62.3584 339.998 62.8834 339.998 63.5001C339.998 64.1334 339.773 64.6751 339.323 65.1251C338.89 65.5584 338.365 65.7751 337.748 65.7751C337.115 65.7751 336.573 65.5584 336.123 65.1251C335.69 64.6751 335.473 64.1334 335.473 63.5001C335.473 62.8834 335.69 62.3584 336.123 61.9251C336.573 61.4751 337.115 61.2501 337.748 61.2501Z" fill="#313131"/>
<path d="M343.754 69.9001C344.37 69.9001 344.895 70.1251 345.329 70.5751C345.779 71.0084 346.004 71.5334 346.004 72.1501C346.004 72.7834 345.779 73.3251 345.329 73.7751C344.895 74.2084 344.37 74.4251 343.754 74.4251C343.12 74.4251 342.579 74.2084 342.129 73.7751C341.695 73.3251 341.479 72.7834 341.479 72.1501C341.479 71.5334 341.695 71.0084 342.129 70.5751C342.579 70.1251 343.12 69.9001 343.754 69.9001ZM343.754 61.2501C344.37 61.2501 344.895 61.4751 345.329 61.9251C345.779 62.3584 346.004 62.8834 346.004 63.5001C346.004 64.1334 345.779 64.6751 345.329 65.1251C344.895 65.5584 344.37 65.7751 343.754 65.7751C343.12 65.7751 342.579 65.5584 342.129 65.1251C341.695 64.6751 341.479 64.1334 341.479 63.5001C341.479 62.8834 341.695 62.3584 342.129 61.9251C342.579 61.4751 343.12 61.2501 343.754 61.2501Z" fill="#313131"/>
<path d="M349.76 69.9001C350.393 69.9001 350.926 70.1167 351.36 70.5501C351.793 70.9834 352.01 71.5167 352.01 72.1501C352.01 72.5167 351.951 72.8834 351.835 73.2501C351.718 73.6167 351.51 74.1334 351.21 74.8001L349.635 78.4251H347.41L348.485 74.0251C348.168 73.8084 347.918 73.5417 347.735 73.2251C347.568 72.8917 347.485 72.5334 347.485 72.1501C347.485 71.5167 347.701 70.9834 348.135 70.5501C348.568 70.1167 349.11 69.9001 349.76 69.9001Z" fill="#313131"/>
<path d="M355.765 69.9001C356.382 69.9001 356.907 70.1251 357.34 70.5751C357.79 71.0084 358.015 71.5334 358.015 72.1501C358.015 72.7834 357.79 73.3251 357.34 73.7751C356.907 74.2084 356.382 74.4251 355.765 74.4251C355.132 74.4251 354.59 74.2084 354.14 73.7751C353.707 73.3251 353.49 72.7834 353.49 72.1501C353.49 71.5334 353.707 71.0084 354.14 70.5751C354.59 70.1251 355.132 69.9001 355.765 69.9001Z" fill="#313131"/>
</svg>
