<svg width="371" height="150" viewBox="0 0 371 150" fill="none" xmlns="http://www.w3.org/2000/svg">
<path d="M108.795 27.9998V0.799825H111.995V27.9998H108.795Z" fill="#313131"/>
<path d="M130.386 7.43983C133.586 7.43983 135.586 9.10649 136.386 12.4398C137.159 10.8398 138.146 9.61316 139.346 8.75982C140.573 7.87982 141.826 7.43983 143.106 7.43983C145.159 7.43983 146.733 8.14649 147.826 9.55982C148.919 10.9465 149.466 13.0398 149.466 15.8398V27.9998H146.426V15.8398C146.426 12.0532 145.159 10.1598 142.626 10.1598C141.159 10.1598 139.826 10.9598 138.626 12.5598C137.453 14.1598 136.826 16.3598 136.746 19.1598V27.9998H133.706V15.8398C133.706 12.0532 132.439 10.1598 129.906 10.1598C128.439 10.1598 127.106 10.9598 125.906 12.5598C124.733 14.1598 124.106 16.3598 124.026 19.1598V27.9998H120.986V11.9998L120.586 7.99983L123.226 7.79983L123.986 11.8398C124.786 10.4265 125.759 9.34649 126.906 8.59982C128.053 7.82649 129.213 7.43983 130.386 7.43983Z" fill="#313131"/>
<path d="M167.189 7.43983C169.482 7.43983 171.362 8.30649 172.829 10.0398C174.295 11.7732 175.029 14.2798 175.029 17.5598C175.029 20.8132 174.095 23.4665 172.229 25.5198C170.389 27.5465 168.042 28.5598 165.189 28.5598C163.775 28.5598 162.349 28.3065 160.909 27.7998V36.9998H157.869V11.9998L157.469 7.99983L160.109 7.79983L160.789 11.4798C162.282 8.78649 164.415 7.43983 167.189 7.43983ZM171.989 17.6398C171.989 15.2132 171.482 13.3598 170.469 12.0798C169.455 10.7998 168.162 10.1598 166.589 10.1598C165.042 10.1598 163.722 10.9198 162.629 12.4398C161.535 13.9598 160.962 16.1332 160.909 18.9598V24.7198C162.295 25.4665 163.722 25.8398 165.189 25.8398C167.162 25.8398 168.789 25.0798 170.069 23.5598C171.349 22.0132 171.989 20.0398 171.989 17.6398Z" fill="#313131"/>
<path d="M185.487 27.9998H182.447V11.9998L182.047 7.99983L184.687 7.79983L185.487 12.5998C186.287 10.9465 187.3 9.69316 188.527 8.83982C189.754 7.98649 191.087 7.55982 192.527 7.55982L192.727 10.5998C188.034 10.9732 185.62 14.5598 185.487 21.3598V27.9998Z" fill="#313131"/>
<path d="M198.789 3.63982C198.469 3.26649 198.309 2.79982 198.309 2.23982C198.309 1.67982 198.469 1.22649 198.789 0.879824C199.109 0.506491 199.576 0.319824 200.189 0.319824C200.803 0.319824 201.283 0.506491 201.629 0.879824C201.976 1.25316 202.149 1.70649 202.149 2.23982C202.149 2.77316 201.976 3.22649 201.629 3.59982C201.283 3.97316 200.803 4.15982 200.189 4.15982C199.576 4.15982 199.109 3.98649 198.789 3.63982ZM198.709 27.9998V7.99983H201.749V27.9998H198.709Z" fill="#313131"/>
<path d="M220.144 7.43983C223.344 7.43983 225.344 9.10649 226.144 12.4398C226.917 10.8398 227.904 9.61316 229.104 8.75982C230.33 7.87982 231.584 7.43983 232.864 7.43983C234.917 7.43983 236.49 8.14649 237.584 9.55982C238.677 10.9465 239.224 13.0398 239.224 15.8398V27.9998H236.184V15.8398C236.184 12.0532 234.917 10.1598 232.384 10.1598C230.917 10.1598 229.584 10.9598 228.384 12.5598C227.21 14.1598 226.584 16.3598 226.504 19.1598V27.9998H223.464V15.8398C223.464 12.0532 222.197 10.1598 219.664 10.1598C218.197 10.1598 216.864 10.9598 215.664 12.5598C214.49 14.1598 213.864 16.3598 213.784 19.1598V27.9998H210.744V11.9998L210.344 7.99983L212.984 7.79983L213.744 11.8398C214.544 10.4265 215.517 9.34649 216.664 8.59982C217.81 7.82649 218.97 7.43983 220.144 7.43983Z" fill="#313131"/>
<path d="M253.867 28.5598C251.573 28.5598 249.693 27.6932 248.227 25.9598C246.76 24.2265 246.027 21.7332 246.027 18.4798C246.027 15.1998 246.947 12.5465 248.787 10.5198C250.653 8.46649 252.96 7.43983 255.707 7.43983C258.48 7.43983 260.973 8.21316 263.187 9.75982V23.9998L263.587 27.9998L260.947 28.1998L260.267 24.5998C258.773 27.2398 256.64 28.5598 253.867 28.5598ZM249.067 18.3998C249.067 20.7998 249.573 22.6398 250.587 23.9198C251.6 25.1998 252.893 25.8398 254.467 25.8398C256.067 25.8398 257.413 25.0532 258.507 23.4798C259.6 21.8798 260.147 19.6265 260.147 16.7198V11.1598C258.813 10.4932 257.387 10.1598 255.867 10.1598C253.893 10.1598 252.267 10.9332 250.987 12.4798C249.707 13.9998 249.067 15.9732 249.067 18.3998Z" fill="#313131"/>
<path d="M33.066 107.35C31.6327 107.35 30.4577 106.808 29.541 105.725C28.6243 104.641 28.166 103.083 28.166 101.05C28.166 98.9998 28.741 97.3415 29.891 96.0748C31.0577 94.7915 32.4993 94.1498 34.216 94.1498C35.9493 94.1498 37.5077 94.6332 38.891 95.5998V104.5L39.141 107L37.491 107.125L37.066 104.875C36.1327 106.525 34.7994 107.35 33.066 107.35ZM30.066 101C30.066 102.5 30.3827 103.65 31.016 104.45C31.6493 105.25 32.4577 105.65 33.441 105.65C34.441 105.65 35.2827 105.158 35.966 104.175C36.6493 103.175 36.991 101.766 36.991 99.9498V96.4748C36.1577 96.0582 35.266 95.8498 34.316 95.8498C33.0827 95.8498 32.066 96.3332 31.266 97.2998C30.466 98.2498 30.066 99.4832 30.066 101Z" fill="#313131"/>
<path d="M44.9273 89.4998V96.5498C45.844 94.9498 47.194 94.1498 48.9773 94.1498C50.3773 94.1498 51.519 94.6915 52.4023 95.7748C53.3023 96.8582 53.7523 98.4248 53.7523 100.475C53.7523 102.508 53.169 104.166 52.0023 105.45C50.8523 106.716 49.444 107.35 47.7773 107.35C46.1107 107.35 44.9023 106.883 44.1523 105.95C43.4023 105 43.0273 103.716 43.0273 102.1V89.4998H44.9273ZM51.8523 100.5C51.8523 98.9832 51.569 97.8332 51.0023 97.0498C50.4357 96.2498 49.6357 95.8498 48.6023 95.8498C47.5857 95.8498 46.7273 96.3082 46.0273 97.2248C45.3273 98.1415 44.9607 99.5498 44.9273 101.45V102.1C44.9273 103.15 45.144 104.008 45.5773 104.675C46.0273 105.325 46.7023 105.65 47.6023 105.65C48.8357 105.65 49.8523 105.175 50.6523 104.225C51.4523 103.258 51.8523 102.016 51.8523 100.5Z" fill="#313131"/>
<path d="M65.8201 105.8C64.6201 106.833 63.2201 107.35 61.6201 107.35C60.0368 107.35 58.7201 106.816 57.6701 105.75C56.6368 104.683 56.1201 103.133 56.1201 101.1C56.1201 99.0498 56.6368 97.3832 57.6701 96.0998C58.7201 94.7998 60.1701 94.1498 62.0201 94.1498C63.1701 94.1498 64.2368 94.4498 65.2201 95.0498L64.7451 96.5748C63.8618 96.0915 62.9701 95.8498 62.0701 95.8498C60.8368 95.8498 59.8535 96.3165 59.1201 97.2498C58.3868 98.1832 58.0201 99.4332 58.0201 101C58.0201 102.55 58.3535 103.716 59.0201 104.5C59.7035 105.266 60.5701 105.65 61.6201 105.65C62.9535 105.65 64.1034 105.25 65.0701 104.45L65.8201 105.8Z" fill="#313131"/>
<path d="M72.1773 107.35C70.744 107.35 69.569 106.808 68.6523 105.725C67.7357 104.641 67.2773 103.083 67.2773 101.05C67.2773 98.9998 67.8523 97.3415 69.0023 96.0748C70.169 94.7915 71.644 94.1498 73.4273 94.1498C74.3107 94.1498 75.2023 94.3082 76.1023 94.6248V89.4998H78.0023V104.5L78.2523 107L76.6023 107.125L76.1773 104.875C75.244 106.525 73.9107 107.35 72.1773 107.35ZM69.1773 101C69.1773 102.5 69.494 103.65 70.1273 104.45C70.7607 105.25 71.569 105.65 72.5523 105.65C73.5523 105.65 74.394 105.158 75.0773 104.175C75.7607 103.175 76.1023 101.766 76.1023 99.9498V96.4748C75.269 96.0582 74.3773 95.8498 73.4273 95.8498C72.194 95.8498 71.1773 96.3332 70.3773 97.2998C69.5773 98.2498 69.1773 99.4832 69.1773 101Z" fill="#313131"/>
<path d="M86.5637 107.35C85.0637 107.35 83.822 106.825 82.8387 105.775C81.872 104.725 81.3887 103.183 81.3887 101.15C81.3887 99.1165 81.9637 97.4415 83.1137 96.1248C84.2637 94.8082 85.7553 94.1498 87.5887 94.1498C88.7553 94.1498 89.697 94.5082 90.4137 95.2248C91.1303 95.9248 91.4887 96.8082 91.4887 97.8748C91.4887 98.9248 90.9387 99.8915 89.8387 100.775C88.7553 101.658 87.172 102.1 85.0887 102.1C84.5387 102.1 83.9553 102.075 83.3387 102.025C83.4553 103.208 83.8137 104.108 84.4137 104.725C85.0303 105.341 85.772 105.65 86.6387 105.65C88.0887 105.65 89.297 105.2 90.2637 104.3L91.1637 105.525C89.897 106.741 88.3637 107.35 86.5637 107.35ZM87.5137 95.8498C86.3637 95.8498 85.4053 96.2582 84.6387 97.0748C83.8887 97.8915 83.447 98.9748 83.3137 100.325C83.8637 100.408 84.472 100.45 85.1387 100.45C86.572 100.45 87.672 100.183 88.4387 99.6498C89.2053 99.1165 89.5887 98.4998 89.5887 97.7998C89.5887 97.2832 89.397 96.8332 89.0137 96.4498C88.647 96.0498 88.147 95.8498 87.5137 95.8498Z" fill="#313131"/>
<path d="M93.373 96.1248V94.4998H94.998V93.2248C94.998 91.8082 95.2897 90.7748 95.873 90.1248C96.473 89.4748 97.248 89.1498 98.198 89.1498C99.1647 89.1498 100.165 89.4832 101.198 90.1498L100.448 91.4998C99.5814 91.1165 98.9064 90.9248 98.423 90.9248C97.4064 90.9248 96.898 91.6582 96.898 93.1248V94.4998H99.773V96.1248H96.898V111H94.998V96.1248H93.373Z" fill="#313131"/>
<path d="M111.791 106.15C111.791 108.15 111.208 109.783 110.041 111.05C108.891 112.333 107.45 112.975 105.716 112.975C104 112.975 102.45 112.491 101.066 111.525L102.016 110.05C102.416 110.383 102.95 110.658 103.616 110.875C104.283 111.091 104.958 111.2 105.641 111.2C106.875 111.2 107.891 110.725 108.691 109.775C109.491 108.825 109.891 107.608 109.891 106.125V104.95C108.958 106.55 107.65 107.35 105.966 107.35C104.533 107.35 103.358 106.808 102.441 105.725C101.525 104.641 101.066 103.083 101.066 101.05C101.066 98.9998 101.641 97.3415 102.791 96.0748C103.958 94.7915 105.4 94.1498 107.116 94.1498C108.85 94.1498 110.408 94.6332 111.791 95.5998V106.15ZM102.966 101C102.966 102.5 103.283 103.65 103.916 104.45C104.55 105.25 105.358 105.65 106.341 105.65C107.341 105.65 108.183 105.15 108.866 104.15C109.55 103.15 109.891 101.725 109.891 99.8748V96.4748C109.058 96.0582 108.166 95.8498 107.216 95.8498C105.983 95.8498 104.966 96.3332 104.166 97.2998C103.366 98.2498 102.966 99.4832 102.966 101Z" fill="#313131"/>
<path d="M126.381 107H124.481V99.3998C124.481 97.0332 123.64 95.8498 121.956 95.8498C120.99 95.8498 120.106 96.3498 119.306 97.3498C118.523 98.3498 118.106 99.7248 118.056 101.475V107H116.156V89.4998H118.056V96.9248C118.556 96.0248 119.181 95.3415 119.931 94.8748C120.698 94.3915 121.481 94.1498 122.281 94.1498C125.015 94.1498 126.381 95.8998 126.381 99.3998V107Z" fill="#313131"/>
<path d="M130.562 91.7748C130.362 91.5415 130.262 91.2498 130.262 90.8998C130.262 90.5498 130.362 90.2665 130.562 90.0498C130.762 89.8165 131.053 89.6998 131.437 89.6998C131.82 89.6998 132.12 89.8165 132.337 90.0498C132.553 90.2832 132.662 90.5665 132.662 90.8998C132.662 91.2332 132.553 91.5165 132.337 91.7498C132.12 91.9832 131.82 92.0998 131.437 92.0998C131.053 92.0998 130.762 91.9915 130.562 91.7748ZM130.512 107V94.4998H132.412V107H130.512Z" fill="#313131"/>
<path d="M137.008 91.7248C136.808 91.5082 136.708 91.2332 136.708 90.8998C136.708 90.5665 136.808 90.2915 137.008 90.0748C137.208 89.8582 137.492 89.7498 137.858 89.7498C138.225 89.7498 138.508 89.8582 138.708 90.0748C138.908 90.2915 139.008 90.5665 139.008 90.8998C139.008 91.2332 138.908 91.5082 138.708 91.7248C138.508 91.9415 138.225 92.0498 137.858 92.0498C137.492 92.0498 137.208 91.9415 137.008 91.7248ZM135.383 111.2C136.4 111.2 136.908 110.466 136.908 109V94.4998H138.808V108.9C138.808 110.316 138.508 111.35 137.908 112C137.325 112.65 136.55 112.975 135.583 112.975C134.633 112.975 133.642 112.641 132.608 111.975L133.358 110.625C134.225 111.008 134.9 111.2 135.383 111.2Z" fill="#313131"/>
<path d="M152.73 97.3748C152.73 99.0748 151.721 100.425 149.705 101.425L153.005 107H150.805L147.905 102.075C147.155 102.291 146.255 102.45 145.205 102.55V107H143.305V89.4998H145.205V96.4748C146.205 94.9248 147.521 94.1498 149.155 94.1498C150.355 94.1498 151.246 94.4498 151.83 95.0498C152.43 95.6498 152.73 96.4248 152.73 97.3748ZM149.105 95.8498C148.005 95.8498 147.08 96.3248 146.33 97.2748C145.58 98.2082 145.205 99.2248 145.205 100.325V100.875C147.055 100.725 148.455 100.333 149.405 99.6998C150.355 99.0498 150.83 98.3165 150.83 97.4998C150.83 97.0165 150.688 96.6248 150.405 96.3248C150.121 96.0082 149.688 95.8498 149.105 95.8498Z" fill="#313131"/>
<path d="M155.625 89.4998H157.525V104.25C157.525 105.166 157.9 105.625 158.65 105.625C159.133 105.625 159.608 105.458 160.075 105.125L160.825 106.475C159.908 107.058 159.042 107.35 158.225 107.35C157.408 107.35 156.767 107.125 156.3 106.675C155.85 106.225 155.625 105.416 155.625 104.25V89.4998Z" fill="#313131"/>
<path d="M168.317 94.1498C170.317 94.1498 171.567 95.1915 172.067 97.2748C172.551 96.2748 173.167 95.5082 173.917 94.9748C174.684 94.4248 175.467 94.1498 176.267 94.1498C177.551 94.1498 178.534 94.5915 179.217 95.4748C179.901 96.3415 180.242 97.6498 180.242 99.3998V107H178.342V99.3998C178.342 97.0332 177.551 95.8498 175.967 95.8498C175.051 95.8498 174.217 96.3498 173.467 97.3498C172.734 98.3498 172.342 99.7248 172.292 101.475V107H170.392V99.3998C170.392 97.0332 169.601 95.8498 168.017 95.8498C167.101 95.8498 166.267 96.3498 165.517 97.3498C164.784 98.3498 164.392 99.7248 164.342 101.475V107H162.442V96.9998L162.192 94.4998L163.842 94.3748L164.317 96.8998C164.817 96.0165 165.426 95.3415 166.142 94.8748C166.859 94.3915 167.584 94.1498 168.317 94.1498Z" fill="#313131"/>
<path d="M190.369 94.1498C193.102 94.1498 194.469 95.8998 194.469 99.3998V107H192.569V99.3998C192.569 97.0332 191.727 95.8498 190.044 95.8498C189.077 95.8498 188.194 96.3498 187.394 97.3498C186.611 98.3498 186.194 99.7248 186.144 101.475V107H184.244V96.9998L183.994 94.4998L185.644 94.3748L186.119 96.9498C186.636 96.0498 187.277 95.3582 188.044 94.8748C188.811 94.3915 189.586 94.1498 190.369 94.1498Z" fill="#313131"/>
<path d="M198.978 105.525C198.061 104.291 197.603 102.7 197.603 100.75C197.603 98.7998 198.061 97.2165 198.978 95.9998C199.894 94.7665 201.261 94.1498 203.078 94.1498C204.911 94.1498 206.294 94.7665 207.228 95.9998C208.161 97.2165 208.628 98.7998 208.628 100.75C208.628 102.7 208.161 104.291 207.228 105.525C206.294 106.741 204.911 107.35 203.078 107.35C201.261 107.35 199.894 106.741 198.978 105.525ZM200.403 97.2248C199.803 98.1248 199.503 99.2998 199.503 100.75C199.503 102.2 199.803 103.383 200.403 104.3C201.003 105.2 201.903 105.65 203.103 105.65C204.303 105.65 205.203 105.2 205.803 104.3C206.419 103.383 206.728 102.2 206.728 100.75C206.728 99.2998 206.419 98.1248 205.803 97.2248C205.203 96.3082 204.303 95.8498 203.103 95.8498C201.903 95.8498 201.003 96.3082 200.403 97.2248Z" fill="#313131"/>
<path d="M217.828 94.1498C219.261 94.1498 220.436 94.6915 221.353 95.7748C222.27 96.8582 222.728 98.4248 222.728 100.475C222.728 102.508 222.145 104.166 220.978 105.45C219.828 106.716 218.361 107.35 216.578 107.35C215.695 107.35 214.803 107.191 213.903 106.875V112.625H212.003V96.9998L211.753 94.4998L213.403 94.3748L213.828 96.6748C214.761 94.9915 216.095 94.1498 217.828 94.1498ZM220.828 100.525C220.828 99.0082 220.511 97.8498 219.878 97.0498C219.245 96.2498 218.436 95.8498 217.453 95.8498C216.486 95.8498 215.661 96.3248 214.978 97.2748C214.295 98.2248 213.936 99.5832 213.903 101.35V104.95C214.77 105.416 215.661 105.65 216.578 105.65C217.811 105.65 218.828 105.175 219.628 104.225C220.428 103.258 220.828 102.025 220.828 100.525Z" fill="#313131"/>
<path d="M235.964 112.625H234.064V105.05C233.148 106.6 231.798 107.375 230.014 107.375C228.614 107.375 227.464 106.833 226.564 105.75C225.681 104.666 225.239 103.108 225.239 101.075C225.239 99.0248 225.814 97.3665 226.964 96.0998C228.131 94.8165 229.564 94.1748 231.264 94.1748C232.981 94.1748 234.548 94.6665 235.964 95.6498V112.625ZM230.014 105.675C231.164 105.675 232.123 105.166 232.889 104.15C233.673 103.116 234.064 101.658 234.064 99.7748V96.4748C233.298 96.0748 232.348 95.8748 231.214 95.8748C230.098 95.8748 229.139 96.3582 228.339 97.3248C227.539 98.2748 227.139 99.5082 227.139 101.025C227.139 102.525 227.406 103.675 227.939 104.475C228.489 105.275 229.181 105.675 230.014 105.675Z" fill="#313131"/>
<path d="M242.248 107H240.348V96.9998L240.098 94.4998L241.748 94.3748L242.248 97.3748C242.748 96.3415 243.381 95.5582 244.148 95.0248C244.914 94.4915 245.748 94.2248 246.648 94.2248L246.773 96.1248C243.839 96.3582 242.331 98.5998 242.248 102.85V107Z" fill="#313131"/>
<path d="M252.412 105.625C253.145 105.625 253.762 105.45 254.262 105.1C254.762 104.75 255.012 104.316 255.012 103.8C255.012 103.266 254.87 102.85 254.587 102.55C254.303 102.233 253.995 102.008 253.662 101.875C253.345 101.741 252.887 101.591 252.287 101.425C251.687 101.241 251.228 101.091 250.912 100.975C250.595 100.841 250.22 100.641 249.787 100.375C248.97 99.8748 248.562 99.0248 248.562 97.8248C248.562 96.6082 248.97 95.6915 249.787 95.0748C250.603 94.4582 251.562 94.1498 252.662 94.1498C253.345 94.1498 254.028 94.2415 254.712 94.4248C255.412 94.6082 255.937 94.7998 256.287 94.9998L255.587 96.5248C254.787 96.0915 253.812 95.8748 252.662 95.8748C252.078 95.8748 251.562 96.0332 251.112 96.3498C250.678 96.6498 250.462 97.0415 250.462 97.5248C250.462 97.9915 250.595 98.3582 250.862 98.6248C251.128 98.8915 251.403 99.0832 251.687 99.1998C251.97 99.3165 252.403 99.4582 252.987 99.6248C253.57 99.7915 254.037 99.9498 254.387 100.1C254.753 100.233 255.162 100.45 255.612 100.75C256.478 101.333 256.912 102.258 256.912 103.525C256.912 104.775 256.478 105.725 255.612 106.375C254.762 107.025 253.695 107.35 252.412 107.35C250.678 107.35 249.212 106.791 248.012 105.675L249.037 104.3C249.953 105.183 251.078 105.625 252.412 105.625Z" fill="#313131"/>
<path d="M258.503 96.1248V94.4998H260.403L261.003 90.7498H262.303V94.4998H265.228V96.1248H262.303V104.275C262.303 105.191 262.678 105.65 263.428 105.65C263.995 105.65 264.612 105.408 265.278 104.925L265.978 106.2C265.012 106.966 264.07 107.35 263.153 107.35C262.237 107.35 261.545 107.133 261.078 106.7C260.628 106.25 260.403 105.441 260.403 104.275V96.1248H258.503Z" fill="#313131"/>
<path d="M267.93 94.4998H269.83V102.1C269.83 104.466 270.671 105.65 272.355 105.65C273.321 105.65 274.196 105.158 274.98 104.175C275.78 103.175 276.205 101.8 276.255 100.05V94.4998H278.155V104.5L278.405 107L276.755 107.125L276.255 104.55C275.755 105.45 275.121 106.141 274.355 106.625C273.588 107.108 272.813 107.35 272.03 107.35C269.296 107.35 267.93 105.6 267.93 102.1V94.4998Z" fill="#313131"/>
<path d="M282.463 94.4998L286.213 104.825L289.938 94.4998H291.963L287.313 107H285.063L280.413 94.4998H282.463Z" fill="#313131"/>
<path d="M300.005 94.4998H301.805L304.655 104.05L307.355 94.4998H309.355L305.83 107H303.705L300.905 97.7748L298.105 107H295.98L292.455 94.4998H294.455L297.155 104.05L300.005 94.4998Z" fill="#313131"/>
<path d="M310.131 94.4998H312.381L315.231 98.9248L318.106 94.4998H320.356L316.381 100.675L320.481 107H318.231L315.156 102.275L312.106 107H309.856L314.031 100.55L310.131 94.4998Z" fill="#313131"/>
<path d="M325.521 112.975L323.896 112.425L325.596 107.65L320.721 94.4998H322.771L326.546 104.95L330.271 94.4998H332.271L325.521 112.975Z" fill="#313131"/>
<path d="M333.511 96.1248V94.4998H342.461L335.911 105.375H342.436V107H332.736L339.236 96.1248H333.511Z" fill="#313131"/>
<path d="M8.46992 128L14.1949 145H12.1199L10.4699 140H4.01992L2.36992 145H0.294922L6.01992 128H8.46992ZM7.24492 130.2L4.59492 138.2H9.86992L7.24492 130.2Z" fill="#313131"/>
<path d="M16.4365 145V128H22.6865C23.8199 128 24.7865 128.4 25.5865 129.2C26.3865 130 26.7865 130.966 26.7865 132.1C26.7865 132.883 26.5865 133.6 26.1865 134.25C25.7865 134.883 25.2532 135.375 24.5865 135.725C25.4865 136.075 26.2032 136.616 26.7365 137.35C27.2699 138.083 27.5365 138.941 27.5365 139.925C27.5365 141.341 27.0449 142.541 26.0615 143.525C25.0782 144.508 23.8782 145 22.4615 145H16.4365ZM22.4115 136.65H18.4365V143.2H22.4115C23.2949 143.2 24.0532 142.875 24.6865 142.225C25.3199 141.575 25.6365 140.808 25.6365 139.925C25.6365 139.025 25.3199 138.258 24.6865 137.625C24.0532 136.975 23.2949 136.65 22.4115 136.65ZM22.3115 129.8H18.4365V134.85H22.3115C23.0282 134.85 23.6365 134.608 24.1365 134.125C24.6365 133.641 24.8865 133.041 24.8865 132.325C24.8865 131.608 24.6365 131.008 24.1365 130.525C23.6365 130.041 23.0282 129.8 22.3115 129.8Z" fill="#313131"/>
<path d="M36.6979 145.4C34.3145 145.4 32.5229 144.575 31.3229 142.925C30.1395 141.275 29.5479 139.133 29.5479 136.5C29.5479 133.866 30.1395 131.725 31.3229 130.075C32.5229 128.425 34.3145 127.6 36.6979 127.6C38.2645 127.6 39.6895 127.991 40.9729 128.775L40.2729 130.45C39.1729 129.766 37.9812 129.425 36.6979 129.425C34.9812 129.425 33.6895 130.083 32.8229 131.4C31.9729 132.7 31.5479 134.4 31.5479 136.5C31.5479 138.6 31.9729 140.308 32.8229 141.625C33.6895 142.925 34.9812 143.575 36.6979 143.575C38.1145 143.575 39.3895 143.225 40.5229 142.525L41.3979 144.075C39.9645 144.958 38.3979 145.4 36.6979 145.4Z" fill="#313131"/>
<path d="M43.9023 145V128H49.9773C52.3773 128 54.1773 128.791 55.3773 130.375C56.5773 131.958 57.1773 134 57.1773 136.5C57.1773 139 56.5773 141.041 55.3773 142.625C54.1773 144.208 52.3773 145 49.9773 145H43.9023ZM49.9773 129.8H45.9023V143.2H49.9773C51.7107 143.2 53.0107 142.583 53.8773 141.35C54.744 140.1 55.1773 138.483 55.1773 136.5C55.1773 134.516 54.744 132.908 53.8773 131.675C53.0107 130.425 51.7107 129.8 49.9773 129.8Z" fill="#313131"/>
<path d="M59.8865 145V128H69.1365V129.8H61.8865V135.6H67.8115V137.4H61.8865V143.2H69.6365V145H59.8865Z" fill="#313131"/>
<path d="M72.9307 145V128H81.9307V129.8H74.9307V135.6H80.6057V137.4H74.9307V145H72.9307Z" fill="#313131"/>
<path d="M90.6547 145.4C89.0214 145.4 87.6464 144.991 86.5297 144.175C85.4297 143.358 84.638 142.3 84.1547 141C83.6714 139.7 83.4297 138.2 83.4297 136.5C83.4297 134.8 83.6714 133.3 84.1547 132C84.638 130.7 85.4297 129.641 86.5297 128.825C87.6464 128.008 89.1047 127.6 90.9047 127.6C92.7214 127.6 94.3297 127.983 95.7297 128.75L95.0297 130.45C93.6964 129.766 92.188 129.425 90.5047 129.425C88.838 129.425 87.5714 130.083 86.7047 131.4C85.8547 132.7 85.4297 134.408 85.4297 136.525C85.4297 138.625 85.8547 140.325 86.7047 141.625C87.5547 142.925 88.8047 143.575 90.4547 143.575C92.1214 143.575 93.4797 143.283 94.5297 142.7V137.4H90.7047V135.6H96.4297V143.675C94.5964 144.825 92.6714 145.4 90.6547 145.4Z" fill="#313131"/>
<path d="M100.543 145V128H102.543V135.575H110.643V128H112.643V145H110.643V137.425H102.543V145H100.543Z" fill="#313131"/>
<path d="M117.145 145V128H119.145V145H117.145Z" fill="#313131"/>
<path d="M125.664 143.6C127.347 143.6 128.189 142.466 128.189 140.2V128H130.189V140.2C130.189 141.85 129.789 143.133 128.989 144.05C128.205 144.95 127.189 145.4 125.939 145.4C124.122 145.4 122.605 144.791 121.389 143.575L122.489 142.175C123.489 143.125 124.547 143.6 125.664 143.6Z" fill="#313131"/>
<path d="M134.308 145V128H136.308V135.975H137.908L142.983 128H145.208L140.108 136C140.941 136.066 141.566 136.308 141.983 136.725C142.399 137.141 142.766 137.733 143.083 138.5L145.458 144.8L143.558 145.4L141.083 138.85C140.883 138.25 140.624 137.9 140.308 137.8C140.158 137.75 139.974 137.725 139.758 137.725H136.308V145H134.308Z" fill="#313131"/>
<path d="M150.077 143.2H157.002V145H148.077V128H150.077V143.2Z" fill="#313131"/>
<path d="M159.009 145L159.634 128H161.959L167.184 139.975L172.434 128H174.759L175.384 145H173.384L172.884 131.7L168.234 142.35H166.159L161.484 131.7L161.009 145H159.009Z" fill="#313131"/>
<path d="M179.645 145V128H181.97L190.145 141.825V128H192.145V145H189.82L181.645 131.175V145H179.645Z" fill="#313131"/>
<path d="M197.412 142.925C196.228 141.275 195.637 139.133 195.637 136.5C195.637 133.866 196.228 131.725 197.412 130.075C198.612 128.425 200.403 127.6 202.787 127.6C204.403 127.6 205.762 128.008 206.862 128.825C207.978 129.641 208.778 130.7 209.262 132C209.745 133.3 209.987 134.8 209.987 136.5C209.987 138.2 209.745 139.7 209.262 141C208.778 142.3 207.978 143.358 206.862 144.175C205.762 144.991 204.403 145.4 202.787 145.4C200.403 145.4 198.612 144.575 197.412 142.925ZM198.912 131.4C198.062 132.7 197.637 134.4 197.637 136.5C197.637 138.6 198.062 140.308 198.912 141.625C199.778 142.925 201.07 143.575 202.787 143.575C204.52 143.575 205.82 142.916 206.687 141.6C207.553 140.283 207.987 138.583 207.987 136.5C207.987 134.416 207.553 132.716 206.687 131.4C205.82 130.083 204.52 129.425 202.787 129.425C201.07 129.425 199.778 130.083 198.912 131.4Z" fill="#313131"/>
<path d="M213.482 145V128H218.757C220.174 128 221.374 128.491 222.357 129.475C223.341 130.458 223.832 131.658 223.832 133.075C223.832 134.491 223.341 135.691 222.357 136.675C221.374 137.658 220.174 138.15 218.757 138.15H215.482V145H213.482ZM218.682 129.825H215.482V136.325H218.682C219.549 136.325 220.291 136.008 220.907 135.375C221.541 134.725 221.857 133.958 221.857 133.075C221.857 132.191 221.541 131.433 220.907 130.8C220.291 130.15 219.549 129.825 218.682 129.825Z" fill="#313131"/>
<path d="M237.602 148.575C236.569 149.241 235.569 149.575 234.602 149.575C233.652 149.575 232.877 149.25 232.277 148.6C231.694 147.95 231.402 146.916 231.402 145.5V145.35C229.319 145.116 227.76 144.2 226.727 142.6C225.71 140.983 225.202 138.908 225.202 136.375C225.202 133.825 225.794 131.725 226.977 130.075C228.177 128.425 229.969 127.6 232.352 127.6C233.969 127.6 235.335 128.008 236.452 128.825C238.519 130.358 239.552 132.916 239.552 136.5C239.552 138.933 239.027 140.958 237.977 142.575C236.944 144.191 235.385 145.116 233.302 145.35V145.6C233.302 147.066 233.81 147.8 234.827 147.8C235.31 147.8 235.985 147.608 236.852 147.225L237.602 148.575ZM228.477 131.4C227.627 132.7 227.202 134.4 227.202 136.5C227.202 138.6 227.627 140.308 228.477 141.625C229.344 142.925 230.635 143.575 232.352 143.575C234.085 143.575 235.385 142.916 236.252 141.6C237.119 140.283 237.552 138.583 237.552 136.5C237.552 134.416 237.119 132.716 236.252 131.4C235.385 130.083 234.085 129.425 232.352 129.425C230.635 129.425 229.344 130.083 228.477 131.4Z" fill="#313131"/>
<path d="M243.048 145V128H248.873C250.223 128 251.373 128.475 252.323 129.425C253.273 130.358 253.748 131.508 253.748 132.875C253.748 133.841 253.49 134.716 252.973 135.5C252.473 136.283 251.798 136.875 250.948 137.275C251.448 137.491 251.815 137.9 252.048 138.5L254.423 144.8L252.523 145.4L250.048 138.85C249.815 138.25 249.581 137.908 249.348 137.825C249.215 137.775 249.048 137.741 248.848 137.725H245.048V145H243.048ZM248.773 129.825H245.048V135.975H248.773C249.59 135.975 250.29 135.666 250.873 135.05C251.456 134.433 251.748 133.708 251.748 132.875C251.748 132.041 251.456 131.325 250.873 130.725C250.29 130.125 249.59 129.825 248.773 129.825Z" fill="#313131"/>
<path d="M257.175 141.6C257.675 142.15 258.325 142.608 259.125 142.975C259.942 143.341 260.825 143.525 261.775 143.525C262.742 143.525 263.567 143.275 264.25 142.775C264.95 142.275 265.3 141.575 265.3 140.675C265.3 139.758 265 139.041 264.4 138.525C263.817 138.008 263.1 137.616 262.25 137.35C261.417 137.083 260.575 136.8 259.725 136.5C258.892 136.2 258.175 135.708 257.575 135.025C256.992 134.325 256.7 133.408 256.7 132.275C256.7 130.725 257.2 129.558 258.2 128.775C259.217 127.991 260.409 127.6 261.775 127.6C263.659 127.6 265.217 127.991 266.45 128.775L265.45 130.375C264.5 129.775 263.267 129.475 261.75 129.475C260.95 129.475 260.242 129.7 259.625 130.15C259.009 130.6 258.7 131.266 258.7 132.15C258.7 133.266 259.275 134.083 260.425 134.6C260.925 134.833 261.475 135.041 262.075 135.225C262.692 135.408 263.3 135.625 263.9 135.875C264.517 136.125 265.075 136.425 265.575 136.775C266.725 137.558 267.3 138.783 267.3 140.45C267.3 142.1 266.767 143.341 265.7 144.175C264.65 144.991 263.317 145.4 261.7 145.4C259.55 145.4 257.659 144.633 256.025 143.1L257.175 141.6Z" fill="#313131"/>
<path d="M272.919 145V129.8H268.169V128H279.669V129.8H274.919V145H272.919Z" fill="#313131"/>
<path d="M281.662 128H283.662V138.8C283.662 140.216 284.012 141.366 284.712 142.25C285.429 143.133 286.504 143.575 287.937 143.575C289.37 143.575 290.445 143.133 291.162 142.25C291.879 141.366 292.237 140.216 292.237 138.8V128H294.237V138.675C294.237 140.658 293.712 142.275 292.662 143.525C291.612 144.775 290.037 145.4 287.937 145.4C285.837 145.4 284.262 144.775 283.212 143.525C282.179 142.275 281.662 140.658 281.662 138.675V128Z" fill="#313131"/>
<path d="M298.195 128L303.07 142.8L307.945 128H310.02L304.295 145H301.845L296.12 128H298.195Z" fill="#313131"/>
<path d="M323.737 145L320.287 131.675L316.712 145H314.387L310.012 128H312.087L315.587 142L319.337 128H321.387L324.912 142L328.637 128H330.637L326.062 145H323.737Z" fill="#313131"/>
<path d="M331.267 128H333.592L337.767 134.4L341.967 128H344.292L338.917 136.175L344.717 145H342.417L337.792 137.975L333.192 145H330.892L336.642 136.2L331.267 128Z" fill="#313131"/>
<path d="M350.573 145V139.125L344.973 128H347.173L351.573 137.15L355.973 128H358.173L352.573 139.125V145H350.573Z" fill="#313131"/>
<path d="M370.331 145H358.556V143.3L367.406 129.8H359.181V128H370.206V129.025L360.931 143.2H370.331V145Z" fill="#313131"/>
<path d="M36.3072 67.1498C35.3572 65.6332 34.8822 63.6665 34.8822 61.2498C34.8822 58.8332 35.3572 56.8748 36.3072 55.3748C37.2572 53.8582 38.6906 53.0998 40.6072 53.0998C42.5239 53.0998 43.9656 53.8582 44.9322 55.3748C45.8989 56.8915 46.3822 58.8498 46.3822 61.2498C46.3822 63.6498 45.8989 65.6082 44.9322 67.1248C43.9656 68.6415 42.5239 69.3998 40.6072 69.3998C38.6906 69.3998 37.2572 68.6498 36.3072 67.1498ZM37.7572 56.6998C37.1406 57.8665 36.8322 59.3832 36.8322 61.2498C36.8322 63.1165 37.1406 64.6415 37.7572 65.8248C38.3906 66.9915 39.3406 67.5748 40.6072 67.5748C41.8739 67.5748 42.8239 66.9832 43.4572 65.7998C44.1072 64.6165 44.4322 63.0998 44.4322 61.2498C44.4322 59.3998 44.1072 57.8832 43.4572 56.6998C42.8239 55.5165 41.8739 54.9248 40.6072 54.9248C39.3406 54.9248 38.3906 55.5165 37.7572 56.6998Z" fill="#313131"/>
<path d="M49.8967 68.9998V67.1998H53.1217L53.0967 53.4998H55.0967V67.1998H57.8967V68.9998H49.8967ZM49.6717 56.4998L49.2217 54.7498L53.0967 53.4998V55.4998L49.6717 56.4998Z" fill="#313131"/>
<path d="M66.8361 61.1998C67.5861 60.3498 68.1028 59.6415 68.3861 59.0748C68.6861 58.5082 68.8361 57.8998 68.8361 57.2498C68.8361 56.5832 68.5695 56.0248 68.0361 55.5748C67.5195 55.1082 66.7445 54.8748 65.7111 54.8748C65.1445 54.8748 64.5945 54.9498 64.0611 55.0998C63.2945 55.3332 62.7611 55.5748 62.4611 55.8248L61.6611 54.2748C62.8611 53.4915 64.2528 53.0998 65.8361 53.0998C67.4195 53.0998 68.6445 53.4998 69.5111 54.2998C70.3945 55.0998 70.8361 56.0998 70.8361 57.2998C70.8361 58.7498 70.0445 60.3915 68.4611 62.2248L64.0611 67.1998H70.9861V68.9998H61.3361V67.4248L66.8361 61.1998Z" fill="#313131"/>
<path d="M74.9506 66.8248C75.7673 67.3582 76.8339 67.6248 78.1506 67.6248C79.4839 67.6248 80.4756 67.3332 81.1256 66.7498C81.7756 66.1665 82.1006 65.4915 82.1006 64.7248C82.1006 63.9415 81.8339 63.2915 81.3006 62.7748C80.7672 62.2582 79.9506 61.9998 78.8506 61.9998H76.4756V60.2748H77.3756C79.5923 60.2748 80.9839 59.5998 81.5506 58.2498C81.6839 57.9332 81.7506 57.6165 81.7506 57.2998C81.7506 56.5998 81.4839 56.0248 80.9506 55.5748C80.4339 55.1082 79.6589 54.8748 78.6256 54.8748C78.0589 54.8748 77.5089 54.9498 76.9756 55.0998C76.2089 55.3332 75.6756 55.5748 75.3756 55.8248L74.5756 54.2748C75.7756 53.4915 77.1673 53.0998 78.7506 53.0998C80.3339 53.0998 81.5423 53.4998 82.3756 54.2998C83.2256 55.0998 83.6506 56.1248 83.6506 57.3748C83.6506 58.8915 82.9756 60.0498 81.6256 60.8498C83.2089 61.5665 84.0006 62.8165 84.0006 64.5998C84.0006 65.9165 83.5006 67.0498 82.5006 67.9998C81.5173 68.9332 80.1339 69.3998 78.3506 69.3998C76.5839 69.3998 75.1756 69.0415 74.1256 68.3248L74.9506 66.8248Z" fill="#313131"/>
<path d="M94.215 68.9998V65.4498H86.74V64.4248L91.19 53.4998H93.315L89.165 63.6498H94.215V57.7498H96.165V63.6498H97.49V65.4498H96.165V68.9998H94.215Z" fill="#313131"/>
<path d="M109.379 53.4998V55.2998H103.379L103.179 59.9748H104.929C106.679 59.9748 107.971 60.3998 108.804 61.2498C109.654 62.0998 110.079 63.1998 110.079 64.5498C110.079 65.8998 109.579 67.0498 108.579 67.9998C107.596 68.9332 106.213 69.3998 104.429 69.3998C102.663 69.3998 101.254 69.0415 100.204 68.3248L101.029 66.8248C101.846 67.3582 102.913 67.6248 104.229 67.6248C105.563 67.6248 106.554 67.3332 107.204 66.7498C107.854 66.1665 108.179 65.4665 108.179 64.6498C108.179 63.8332 107.913 63.1498 107.379 62.5998C106.846 62.0332 106.029 61.7498 104.929 61.7498H101.254L101.579 53.4998H109.379Z" fill="#313131"/>
<path d="M122.494 55.9998C121.794 55.2498 120.811 54.8748 119.544 54.8748C118.277 54.8748 117.244 55.4415 116.444 56.5748C115.661 57.6915 115.194 59.1915 115.044 61.0748C116.261 60.0582 117.536 59.5498 118.869 59.5498C119.802 59.5498 120.611 59.6998 121.294 59.9998C121.994 60.2998 122.511 60.6998 122.844 61.1998C123.511 62.1332 123.844 63.1332 123.844 64.1998C123.844 65.6498 123.402 66.8832 122.519 67.8998C121.636 68.8998 120.294 69.3998 118.494 69.3998C116.711 69.3998 115.352 68.7582 114.419 67.4748C113.502 66.1748 113.044 64.5498 113.044 62.5998C113.044 59.7665 113.619 57.4748 114.769 55.7248C115.936 53.9748 117.527 53.0998 119.544 53.0998C121.177 53.0998 122.452 53.5582 123.369 54.4748L122.494 55.9998ZM118.819 61.2998C117.336 61.2998 116.069 61.9582 115.019 63.2748C115.236 66.1748 116.419 67.6248 118.569 67.6248C119.636 67.6248 120.452 67.3082 121.019 66.6748C121.602 66.0415 121.894 65.2832 121.894 64.3998C121.894 63.9165 121.819 63.4665 121.669 63.0498C121.536 62.6165 121.219 62.2165 120.719 61.8498C120.236 61.4832 119.602 61.2998 118.819 61.2998Z" fill="#313131"/>
<path d="M136.383 53.4998V54.5248L130.333 68.9998H128.158L133.933 55.2998H126.183V53.4998H136.383Z" fill="#313131"/>
<path d="M138.748 64.9248C138.748 63.0248 139.665 61.6415 141.498 60.7748C140.048 59.9582 139.323 58.8332 139.323 57.3998C139.323 56.1665 139.74 55.1415 140.573 54.3248C141.406 53.5082 142.598 53.0998 144.148 53.0998C145.698 53.0998 146.89 53.5082 147.723 54.3248C148.556 55.1248 148.973 56.1915 148.973 57.5248C148.973 58.8582 148.265 59.9582 146.848 60.8248C148.648 61.6248 149.548 62.9915 149.548 64.9248C149.548 66.1415 149.065 67.1915 148.098 68.0748C147.148 68.9582 145.831 69.3998 144.148 69.3998C142.465 69.3998 141.14 68.9582 140.173 68.0748C139.223 67.1915 138.748 66.1415 138.748 64.9248ZM140.648 64.9248C140.648 65.6748 140.956 66.3165 141.573 66.8498C142.19 67.3665 143.048 67.6248 144.148 67.6248C145.248 67.6248 146.106 67.3665 146.723 66.8498C147.34 66.3165 147.648 65.6498 147.648 64.8498C147.648 64.0332 147.365 63.3915 146.798 62.9248C146.231 62.4582 145.323 62.0665 144.073 61.7498C143.69 61.6665 143.381 61.5832 143.148 61.4998C141.481 62.3832 140.648 63.5248 140.648 64.9248ZM141.973 55.5998C141.473 56.0665 141.223 56.6498 141.223 57.3498C141.223 58.0498 141.498 58.6165 142.048 59.0498C142.598 59.4832 143.565 59.8748 144.948 60.2248C146.365 59.4748 147.073 58.4915 147.073 57.2748C147.073 56.5915 146.823 56.0248 146.323 55.5748C145.823 55.1082 145.098 54.8748 144.148 54.8748C143.215 54.8748 142.49 55.1165 141.973 55.5998Z" fill="#313131"/>
<path d="M156.062 67.6248C157.162 67.6248 158.104 67.1165 158.887 66.0998C159.687 65.0665 160.162 63.5748 160.312 61.6248C159.046 62.6248 157.696 63.1248 156.262 63.1248C155.379 63.1248 154.612 62.9665 153.962 62.6498C153.312 62.3332 152.812 61.9248 152.462 61.4248C151.829 60.4915 151.512 59.4665 151.512 58.3498C151.512 56.8998 151.962 55.6665 152.862 54.6498C153.762 53.6165 155.079 53.0998 156.812 53.0998C157.829 53.0998 158.704 53.3082 159.437 53.7248C160.187 54.1248 160.762 54.6832 161.162 55.3998C161.929 56.7498 162.312 58.4165 162.312 60.3998C162.312 63.3165 161.712 65.5498 160.512 67.0998C159.312 68.6332 157.796 69.3998 155.962 69.3998C154.146 69.3998 152.696 68.9415 151.612 68.0248L152.637 66.4998C153.421 67.2498 154.562 67.6248 156.062 67.6248ZM156.262 61.3748C156.946 61.3748 157.654 61.2165 158.387 60.8998C159.121 60.5665 159.762 60.0665 160.312 59.3998C160.212 58.0665 159.879 56.9832 159.312 56.1498C158.762 55.2998 157.937 54.8748 156.837 54.8748C155.737 54.8748 154.896 55.2165 154.312 55.8998C153.746 56.5665 153.462 57.3332 153.462 58.1998C153.462 59.0498 153.679 59.7915 154.112 60.4248C154.546 61.0582 155.262 61.3748 156.262 61.3748Z" fill="#313131"/>
<path d="M172.352 64.4998L172.102 52.4998H174.252L174.002 64.4998H172.352ZM172.152 68.9748C171.918 68.7082 171.802 68.3748 171.802 67.9748C171.802 67.5748 171.918 67.2498 172.152 66.9998C172.385 66.7332 172.718 66.5998 173.152 66.5998C173.602 66.5998 173.943 66.7332 174.177 66.9998C174.427 67.2498 174.552 67.5748 174.552 67.9748C174.552 68.3748 174.427 68.7082 174.177 68.9748C173.943 69.2248 173.602 69.3498 173.152 69.3498C172.718 69.3498 172.385 69.2248 172.152 68.9748Z" fill="#313131"/>
<path d="M184.015 62.9248C184.015 63.9582 184.215 64.7415 184.615 65.2748C185.032 65.7915 185.557 66.0498 186.19 66.0498C186.84 66.0498 187.39 65.7082 187.84 65.0248C188.29 64.3415 188.515 63.3748 188.515 62.1248V59.7248C187.948 59.4915 187.39 59.3748 186.84 59.3748C186.023 59.3748 185.348 59.7082 184.815 60.3748C184.282 61.0248 184.015 61.8748 184.015 62.9248ZM186.865 71.3248C184.098 71.3248 181.973 70.5165 180.49 68.8998C179.023 67.2665 178.29 65.2165 178.29 62.7498C178.29 60.2832 179.023 58.2415 180.49 56.6248C181.973 54.9915 184.032 54.1748 186.665 54.1748C189.315 54.1748 191.357 54.9998 192.79 56.6498C194.223 58.2832 194.94 60.3165 194.94 62.7498C194.94 64.1332 194.582 65.2832 193.865 66.1998C193.148 67.0998 192.173 67.5498 190.94 67.5498C190.357 67.5498 189.84 67.3665 189.39 66.9998C188.957 66.6332 188.698 66.1998 188.615 65.6998H188.465C188.232 66.2998 187.873 66.7582 187.39 67.0748C186.923 67.3915 186.44 67.5498 185.94 67.5498C184.873 67.5498 183.99 67.1498 183.29 66.3498C182.607 65.5498 182.265 64.4082 182.265 62.9248C182.265 61.4248 182.69 60.2165 183.54 59.2998C184.39 58.3665 185.482 57.8998 186.815 57.8998C188.165 57.8998 189.307 58.1915 190.24 58.7748V64.7748C190.24 65.6082 190.54 66.0248 191.14 66.0248C191.84 66.0248 192.365 65.6998 192.715 65.0498C193.065 64.3832 193.24 63.6165 193.24 62.7498C193.24 60.7665 192.665 59.0998 191.515 57.7498C190.382 56.3998 188.765 55.7248 186.665 55.7248C184.582 55.7248 182.948 56.3915 181.765 57.7248C180.582 59.0582 179.99 60.7332 179.99 62.7498C179.99 64.7665 180.582 66.4415 181.765 67.7748C182.948 69.1082 184.648 69.7748 186.865 69.7748C188.498 69.7748 189.873 69.3915 190.99 68.6248L191.815 69.8748C190.398 70.8415 188.748 71.3248 186.865 71.3248Z" fill="#313131"/>
<path d="M203.932 69.6498L204.632 64.7248H200.657L199.957 69.6498H198.257L198.957 64.7248H196.332L196.532 63.1748H199.182L199.732 59.3498H197.107L197.307 57.7748H199.957L200.682 52.8498H202.382L201.657 57.7748H205.632L206.332 52.8498H208.032L207.307 57.7748H209.982L209.782 59.3498H207.082L206.532 63.1748H209.207L208.982 64.7248H206.307L205.607 69.6498H203.932ZM201.432 59.3498L200.882 63.1748H204.857L205.407 59.3498H201.432Z" fill="#313131"/>
<path d="M211.496 57.3748C211.496 56.1915 211.879 55.2082 212.646 54.4248C213.413 53.6248 214.554 53.1915 216.071 53.1248L216.196 51.3748H217.521L217.396 53.1498C218.546 53.2832 219.604 53.6582 220.571 54.2748L219.771 55.8248C218.938 55.3248 218.104 55.0248 217.271 54.9248L216.896 60.2248L218.021 60.5748C219.021 60.8915 219.771 61.4082 220.271 62.1248C220.771 62.8415 221.021 63.7332 221.021 64.7998C221.021 65.8665 220.596 66.8582 219.746 67.7748C218.913 68.6748 217.754 69.1998 216.271 69.3498L216.146 71.1248H214.821L214.946 69.3748C213.329 69.3082 212.063 68.9582 211.146 68.3248L211.971 66.8248C212.704 67.3082 213.738 67.5748 215.071 67.6248L215.471 61.7248L214.246 61.3248C213.263 61.0082 212.554 60.4748 212.121 59.7248C211.704 58.9582 211.496 58.1748 211.496 57.3748ZM219.146 64.6998C219.146 63.5165 218.521 62.7165 217.271 62.2998L216.771 62.1498L216.396 67.5498C217.263 67.3998 217.938 67.0582 218.421 66.5248C218.904 65.9915 219.146 65.3832 219.146 64.6998ZM213.346 57.2998C213.346 58.4998 213.938 59.2832 215.121 59.6498L215.621 59.8248L215.946 54.8998C215.096 54.9832 214.446 55.2498 213.996 55.6998C213.563 56.1498 213.346 56.6832 213.346 57.2998Z" fill="#313131"/>
<path d="M227.936 71.1248L234.586 51.3748H236.436L229.786 71.1248H227.936ZM228.986 54.9748C229.552 55.8748 229.836 57.0498 229.836 58.4998C229.836 59.9498 229.552 61.1332 228.986 62.0498C228.419 62.9498 227.552 63.3998 226.386 63.3998C225.236 63.3998 224.369 62.9415 223.786 62.0248C223.219 61.1082 222.936 59.9332 222.936 58.4998C222.936 57.0665 223.219 55.8915 223.786 54.9748C224.369 54.0582 225.236 53.5998 226.386 53.5998C227.552 53.5998 228.419 54.0582 228.986 54.9748ZM227.661 60.8748C227.944 60.2582 228.086 59.4665 228.086 58.4998C228.086 57.5332 227.944 56.7498 227.661 56.1498C227.377 55.5332 226.952 55.2248 226.386 55.2248C225.819 55.2248 225.394 55.5332 225.111 56.1498C224.827 56.7498 224.686 57.5332 224.686 58.4998C224.686 59.4665 224.827 60.2582 225.111 60.8748C225.394 61.4748 225.819 61.7748 226.386 61.7748C226.952 61.7748 227.377 61.4748 227.661 60.8748ZM235.386 67.5498C234.819 66.6332 234.536 65.4498 234.536 63.9998C234.536 62.5498 234.819 61.3748 235.386 60.4748C235.952 59.5582 236.811 59.0998 237.961 59.0998C239.127 59.0998 239.994 59.5582 240.561 60.4748C241.144 61.3915 241.436 62.5665 241.436 63.9998C241.436 65.4332 241.144 66.6082 240.561 67.5248C239.994 68.4415 239.127 68.8998 237.961 68.8998C236.811 68.8998 235.952 68.4498 235.386 67.5498ZM236.711 61.6498C236.427 62.2498 236.286 63.0332 236.286 63.9998C236.286 64.9665 236.427 65.7582 236.711 66.3748C236.994 66.9748 237.419 67.2748 237.986 67.2748C238.552 67.2748 238.977 66.9748 239.261 66.3748C239.544 65.7582 239.686 64.9665 239.686 63.9998C239.686 63.0332 239.544 62.2498 239.261 61.6498C238.977 61.0332 238.552 60.7248 237.986 60.7248C237.419 60.7248 236.994 61.0332 236.711 61.6498Z" fill="#313131"/>
<path d="M247.674 52.5998H248.899L253.849 60.9998L252.324 61.9248L248.274 55.0748L244.224 61.9248L242.699 60.9998L247.674 52.5998Z" fill="#313131"/>
<path d="M269.888 59.5498V61.2498H267.063C266.98 63.9332 266.472 65.9582 265.538 67.3248C264.605 68.6748 263.155 69.3498 261.188 69.3498C259.238 69.3498 257.822 68.8748 256.938 67.9248C256.055 66.9582 255.613 65.7498 255.613 64.2998C255.613 63.4332 255.847 62.6248 256.313 61.8748C256.797 61.1248 257.48 60.5582 258.363 60.1748C257.063 59.3915 256.413 58.2915 256.413 56.8748C256.413 55.4582 256.838 54.3582 257.688 53.5748C258.555 52.7915 259.73 52.3998 261.213 52.3998C262.713 52.3998 264.03 52.7832 265.163 53.5498L264.313 55.2998C264.03 55.0165 263.605 54.7665 263.038 54.5498C262.488 54.3165 261.947 54.1998 261.413 54.1998C260.447 54.1998 259.705 54.4332 259.188 54.8998C258.672 55.3498 258.413 55.9582 258.413 56.7248C258.413 57.2915 258.638 57.8665 259.088 58.4498C259.355 58.7665 259.78 59.0332 260.363 59.2498C260.963 59.4498 261.688 59.5498 262.538 59.5498H269.888ZM261.013 67.5498C263.78 67.5498 265.163 65.4498 265.163 61.2498H261.013C259.963 61.2498 259.13 61.5582 258.513 62.1748C257.913 62.7748 257.613 63.5165 257.613 64.3998C257.613 65.2665 257.888 66.0082 258.438 66.6248C259.005 67.2415 259.863 67.5498 261.013 67.5498Z" fill="#313131"/>
<path d="M276.974 56.8498L276.324 54.9248L279.599 54.2498L279.974 55.4998L276.974 56.8498L278.624 59.7498L277.549 60.4998L275.324 58.0498L276.974 56.8498ZM275.324 58.0498L273.074 60.4998L272.024 59.7248L273.674 56.8498L275.324 58.0498ZM273.674 56.8498L270.649 55.4748L271.049 54.2498L274.299 54.9248L273.674 56.8498ZM274.299 54.9248L274.674 51.6248H275.949L276.324 54.9248H274.299Z" fill="#313131"/>
<path d="M285.09 71.3248C284.19 70.1082 283.482 68.5915 282.965 66.7748C282.465 64.9582 282.215 63.1248 282.215 61.2748C282.215 59.4082 282.465 57.5665 282.965 55.7498C283.482 53.9165 284.19 52.3915 285.09 51.1748L286.49 52.2498C285.79 53.2332 285.223 54.6248 284.79 56.4248C284.373 58.2248 284.165 59.8332 284.165 61.2498C284.165 62.6665 284.373 64.2748 284.79 66.0748C285.223 67.8748 285.79 69.2665 286.49 70.2498L285.09 71.3248Z" fill="#313131"/>
<path d="M288.917 66.0748C289.351 64.2748 289.567 62.6665 289.567 61.2498C289.567 59.8332 289.351 58.2248 288.917 56.4248C288.501 54.6248 287.942 53.2332 287.242 52.2498L288.642 51.1748C289.542 52.3915 290.242 53.9165 290.742 55.7498C291.259 57.5665 291.517 59.4082 291.517 61.2748C291.517 63.1248 291.259 64.9582 290.742 66.7748C290.242 68.5915 289.542 70.1082 288.642 71.3248L287.242 70.2498C287.942 69.2665 288.501 67.8748 288.917 66.0748Z" fill="#313131"/>
<path d="M297.395 64.4998H295.645V62.8248C295.645 62.0248 295.795 61.3165 296.095 60.6998C296.395 60.0665 296.695 59.6165 296.995 59.3498C297.295 59.0832 297.686 58.7748 298.17 58.4248C298.653 58.0582 298.978 57.7998 299.145 57.6498C299.328 57.4832 299.511 57.2415 299.695 56.9248C299.878 56.6082 299.97 56.2582 299.97 55.8748C299.97 55.2248 299.72 54.7332 299.22 54.3998C298.72 54.0665 298.086 53.8998 297.32 53.8998C295.986 53.8998 294.903 54.3332 294.07 55.1998L293.02 53.7998C294.203 52.6998 295.661 52.1498 297.395 52.1498C298.661 52.1498 299.72 52.4748 300.57 53.1248C301.436 53.7582 301.87 54.6748 301.87 55.8748C301.87 56.5082 301.728 57.0832 301.445 57.5998C301.178 58.1165 300.903 58.4998 300.62 58.7498C300.353 58.9998 299.978 59.2915 299.495 59.6248C299.028 59.9582 298.67 60.2332 298.42 60.4498C298.186 60.6665 297.953 60.9915 297.72 61.4248C297.503 61.8582 297.395 62.3248 297.395 62.8248V64.4998ZM295.495 68.9748C295.261 68.7082 295.145 68.3748 295.145 67.9748C295.145 67.5748 295.261 67.2498 295.495 66.9998C295.728 66.7332 296.061 66.5998 296.495 66.5998C296.945 66.5998 297.286 66.7332 297.52 66.9998C297.77 67.2498 297.895 67.5748 297.895 67.9748C297.895 68.3748 297.77 68.7082 297.52 68.9748C297.286 69.2248 296.945 69.3498 296.495 69.3498C296.061 69.3498 295.728 69.2248 295.495 68.9748Z" fill="#313131"/>
<path d="M305.482 53.1748C305.482 53.4748 305.191 54.1665 304.607 55.2498L303.157 57.8998L302.357 57.6248L303.382 51.9998C304.782 51.9998 305.482 52.3915 305.482 53.1748Z" fill="#313131"/>
<path d="M312.858 53.1748C312.858 53.4748 312.567 54.1665 311.983 55.2498L310.533 57.8998L309.733 57.6248L310.758 51.9998C312.158 51.9998 312.858 52.3915 312.858 53.1748ZM309.608 53.1748C309.608 53.4748 309.317 54.1665 308.733 55.2498L307.283 57.8998L306.483 57.6248L307.508 51.9998C308.908 51.9998 309.608 52.3915 309.608 53.1748Z" fill="#313131"/>
<path d="M317.306 66.5998C317.923 66.5998 318.356 66.7915 318.606 67.1748L316.256 72.3998L315.431 72.1498L315.831 67.9748C315.931 67.0582 316.423 66.5998 317.306 66.5998ZM316.206 59.9748C315.973 59.7082 315.856 59.3748 315.856 58.9748C315.856 58.5748 315.973 58.2498 316.206 57.9998C316.44 57.7332 316.773 57.5998 317.206 57.5998C317.656 57.5998 317.998 57.7332 318.231 57.9998C318.481 58.2498 318.606 58.5748 318.606 58.9748C318.606 59.3748 318.481 59.7082 318.231 59.9748C317.998 60.2248 317.656 60.3498 317.206 60.3498C316.773 60.3498 316.44 60.2248 316.206 59.9748Z" fill="#313131"/>
<path d="M322.701 68.9748C322.467 68.7082 322.351 68.3748 322.351 67.9748C322.351 67.5748 322.467 67.2498 322.701 66.9998C322.934 66.7332 323.267 66.5998 323.701 66.5998C324.151 66.5998 324.492 66.7332 324.726 66.9998C324.976 67.2498 325.101 67.5748 325.101 67.9748C325.101 68.3748 324.976 68.7082 324.726 68.9748C324.492 69.2248 324.151 69.3498 323.701 69.3498C323.267 69.3498 322.934 69.2248 322.701 68.9748ZM322.701 59.9748C322.467 59.7082 322.351 59.3748 322.351 58.9748C322.351 58.5748 322.467 58.2498 322.701 57.9998C322.934 57.7332 323.267 57.5998 323.701 57.5998C324.151 57.5998 324.492 57.7332 324.726 57.9998C324.976 58.2498 325.101 58.5748 325.101 58.9748C325.101 59.3748 324.976 59.7082 324.726 59.9748C324.492 60.2248 324.151 60.3498 323.701 60.3498C323.267 60.3498 322.934 60.2248 322.701 59.9748Z" fill="#313131"/>
<path d="M329.045 66.5998C329.661 66.5998 330.095 66.7915 330.345 67.1748L327.995 72.3998L327.17 72.1498L327.57 67.9748C327.67 67.0582 328.161 66.5998 329.045 66.5998Z" fill="#313131"/>
<path d="M333.194 68.9748C332.96 68.7082 332.844 68.3748 332.844 67.9748C332.844 67.5748 332.96 67.2498 333.194 66.9998C333.427 66.7332 333.76 66.5998 334.194 66.5998C334.644 66.5998 334.985 66.7332 335.219 66.9998C335.469 67.2498 335.594 67.5748 335.594 67.9748C335.594 68.3748 335.469 68.7082 335.219 68.9748C334.985 69.2248 334.644 69.3498 334.194 69.3498C333.76 69.3498 333.427 69.2248 333.194 68.9748Z" fill="#313131"/>
</svg>
