<svg width="402" height="150" viewBox="0 0 402 150" fill="none" xmlns="http://www.w3.org/2000/svg">
<path d="M153.191 28.9999H147.549V2.38716H153.191V14.5611L155.395 11.4468L162.615 2.38716H168.863L159.581 14.1768L168.944 28.9999H162.534L155.557 17.7967L153.191 19.4954V28.9999Z" fill="#313131"/>
<path d="M192.656 15.734V28.9999H187.095V17.1091C187.095 14.1836 186.003 12.7208 183.819 12.7208C182.269 12.7208 181.143 13.2466 180.442 14.2982C179.754 15.3498 179.411 17.0619 179.411 19.4347V28.9999H173.87V0.688477H179.411V6.45187C179.411 7.47648 179.33 9.08079 179.168 11.2648H179.451C180.678 9.26953 182.646 8.27189 185.356 8.27189C187.729 8.27189 189.535 8.91227 190.776 10.193C192.029 11.4738 192.656 13.3208 192.656 15.734Z" fill="#313131"/>
<path d="M219.027 28.9999H214.78L214.032 26.3912H213.729C213.136 27.3484 212.293 28.0832 211.201 28.5955C210.109 29.1078 208.869 29.3639 207.48 29.3639C205.107 29.3639 203.307 28.7303 202.081 27.463C200.867 26.1822 200.261 24.3353 200.261 21.922V8.65612H205.802V20.5469C205.802 22.0164 206.064 23.1152 206.59 23.8432C207.116 24.5712 207.945 24.9352 209.078 24.9352C210.628 24.9352 211.747 24.4229 212.435 23.3983C213.136 22.3602 213.486 20.6346 213.486 18.2213V8.65612H219.027V28.9999Z" fill="#313131"/>
<path d="M232.395 0.688477V28.9999H226.854V0.688477H232.395Z" fill="#313131"/>
<path d="M257.026 28.9999H253.143L252.071 26.2294H251.93C250.986 27.4158 250.022 28.2382 249.038 28.6966C248.054 29.1415 246.766 29.3639 245.176 29.3639C243.207 29.3639 241.664 28.8044 240.545 27.6854C239.426 26.553 238.866 24.9419 238.866 22.8523C238.866 20.7626 239.608 19.1988 241.091 18.1607C242.587 17.1226 244.879 16.5496 247.966 16.4418L251.505 16.3407V15.4509C251.505 13.3882 250.447 12.3568 248.33 12.3568C246.726 12.3568 244.818 12.8422 242.607 13.8128L240.767 10.0717C243.099 8.84486 245.668 8.23145 248.472 8.23145C251.29 8.23145 253.42 8.83812 254.862 10.0515C256.305 11.2513 257.026 13.0511 257.026 15.4509V28.9999ZM251.505 21.2547V19.5762L249.362 19.6369C247.73 19.6908 246.524 19.9874 245.742 20.5267C244.96 21.0525 244.569 21.8614 244.569 22.9534C244.569 24.5173 245.465 25.2992 247.259 25.2992C248.553 25.2992 249.584 24.9352 250.353 24.2072C251.121 23.4657 251.505 22.4815 251.505 21.2547Z" fill="#313131"/>
<path d="M41.5584 107H39.1317L38.4618 105.268H38.3734C37.7835 106.01 37.1811 106.524 36.566 106.81C35.9509 107.088 35.1462 107.227 34.1519 107.227C32.9217 107.227 31.957 106.878 31.2576 106.178C30.5582 105.471 30.2086 104.464 30.2086 103.158C30.2086 101.852 30.672 100.874 31.5989 100.225C32.5341 99.5766 33.9666 99.2185 35.8961 99.1511L38.1079 99.0879V98.5318C38.1079 97.2426 37.4465 96.598 36.1236 96.598C35.1209 96.598 33.9286 96.9013 32.5468 97.508L31.3966 95.1698C32.8543 94.403 34.4595 94.0196 36.2121 94.0196C37.9731 94.0196 39.3044 94.3988 40.206 95.1571C41.1076 95.9071 41.5584 97.0319 41.5584 98.5318V107ZM38.1079 102.159V101.11L36.7682 101.148C35.7487 101.182 34.9945 101.367 34.5058 101.704C34.0171 102.033 33.7728 102.538 33.7728 103.221C33.7728 104.198 34.3331 104.687 35.4538 104.687C36.2627 104.687 36.9072 104.459 37.3875 104.004C37.8678 103.541 38.1079 102.926 38.1079 102.159Z" fill="#313131"/>
<path d="M52.8277 103.423C53.249 102.757 53.4596 101.809 53.4596 100.579C53.4596 99.3491 53.249 98.418 52.8277 97.786C52.4148 97.1457 51.8039 96.8255 50.995 96.8255C50.1946 96.8255 49.5963 97.0909 49.2003 97.6217C48.8043 98.1526 48.5978 99.0205 48.581 100.225V100.592C48.581 101.949 48.7832 102.926 49.1876 103.524C49.5921 104.122 50.2367 104.422 51.1214 104.422C51.846 104.422 52.4148 104.089 52.8277 103.423ZM48.581 95.9281C49.4067 94.6726 50.5906 94.0449 52.1325 94.0449C53.6829 94.0449 54.8794 94.6347 55.722 95.8144C56.573 96.9856 56.9986 98.6034 56.9986 100.668C56.9986 102.732 56.5604 104.341 55.6841 105.496C54.8078 106.65 53.6155 107.227 52.1073 107.227C50.599 107.227 49.4236 106.684 48.581 105.597H48.3535L47.7721 107H45.1179V89.3053H48.581V93.4129C48.581 93.9943 48.5388 94.8327 48.4546 95.9281H48.581Z" fill="#313131"/>
<path d="M65.0333 107.227C61.0731 107.227 59.093 105.053 59.093 100.706C59.093 98.5486 59.628 96.9013 60.6981 95.7638C61.7767 94.6179 63.3228 94.0449 65.3367 94.0449C66.7859 94.0449 68.1046 94.3314 69.2927 94.9044L68.2689 97.5965C67.0134 97.0909 66.036 96.8381 65.3367 96.8381C63.5335 96.8381 62.6319 98.102 62.6319 100.63C62.6319 103.158 63.5335 104.422 65.3367 104.422C66.5921 104.422 67.7802 104.051 68.9009 103.309V106.279C68.3532 106.633 67.7928 106.878 67.2199 107.013C66.6553 107.156 65.9265 107.227 65.0333 107.227Z" fill="#313131"/>
<path d="M79.4852 105.357C78.6932 106.604 77.5178 107.227 75.959 107.227C74.4086 107.227 73.2079 106.65 72.3568 105.496C71.5058 104.325 71.0803 102.703 71.0803 100.63C71.0803 98.557 71.5142 96.9434 72.3821 95.7891C73.2584 94.6263 74.476 94.0449 76.0348 94.0449C77.5936 94.0449 78.7943 94.6684 79.6369 95.9155H79.7507C79.5737 94.9633 79.4852 94.1165 79.4852 93.375V89.3053H82.961V107H80.3068L79.6369 105.357H79.4852ZM74.5939 100.706C74.5939 103.208 75.4281 104.459 77.0965 104.459C77.9812 104.459 78.63 104.202 79.0429 103.688C79.4642 103.166 79.6917 102.29 79.7254 101.06V100.693C79.7254 99.328 79.5147 98.3506 79.0934 97.7608C78.6721 97.1625 77.9854 96.8634 77.0333 96.8634C76.2581 96.8634 75.6556 97.1962 75.2259 97.8619C74.8046 98.5191 74.5939 99.467 74.5939 100.706Z" fill="#313131"/>
<path d="M94.2819 99.2016C94.2735 98.3506 94.0544 97.6891 93.6247 97.2173C93.1949 96.7454 92.6093 96.5095 91.8678 96.5095C91.1348 96.5095 90.5576 96.7454 90.1363 97.2173C89.715 97.6807 89.4749 98.3422 89.4159 99.2016H94.2819ZM96.8223 106.33C95.6258 106.928 94.1344 107.227 92.3481 107.227C90.3006 107.227 88.6997 106.667 87.5453 105.546C86.3993 104.417 85.8264 102.8 85.8264 100.693C85.8264 98.5865 86.3572 96.9519 87.4189 95.7891C88.4974 94.6263 89.9509 94.0449 91.7794 94.0449C93.6162 94.0449 95.036 94.5589 96.0387 95.5869C97.0414 96.6148 97.5428 98.0262 97.5428 99.8209V101.502H89.34C89.3737 102.496 89.6644 103.271 90.2121 103.828C90.7682 104.375 91.535 104.649 92.5124 104.649C93.9701 104.649 95.4068 104.316 96.8223 103.651V106.33Z" fill="#313131"/>
<path d="M107.394 94.285V96.8887H104.399V107H100.923V96.8887H99.0145V95.2203L100.923 94.285V93.3498C100.923 91.9005 101.281 90.843 101.997 90.1774C102.714 89.5117 103.855 89.1789 105.423 89.1789C106.619 89.1789 107.681 89.3558 108.608 89.7097L107.723 92.2628C107.015 92.0437 106.396 91.9342 105.865 91.9342C105.342 91.9342 104.968 92.0732 104.74 92.3513C104.512 92.6293 104.399 93.0085 104.399 93.4888V94.285H107.394Z" fill="#313131"/>
<path d="M111.296 107.607C110.866 107.91 110.651 108.302 110.651 108.782C110.651 109.271 110.879 109.65 111.334 109.92C111.797 110.198 112.442 110.337 113.268 110.337C114.506 110.337 115.479 110.164 116.187 109.818C116.895 109.481 117.249 109.018 117.249 108.428C117.249 107.956 117.047 107.628 116.642 107.442C116.238 107.257 115.585 107.164 114.683 107.164H112.888C112.265 107.164 111.734 107.312 111.296 107.607ZM120.472 94.285V96.0419L118.475 96.5601C118.837 97.1246 119.018 97.7608 119.018 98.4686C119.018 99.8251 118.542 100.887 117.59 101.654C116.646 102.42 115.328 102.804 113.634 102.804L112.497 102.715C112.134 102.976 111.953 103.28 111.953 103.625C111.953 104.122 112.594 104.371 113.874 104.371H116.036C117.434 104.371 118.496 104.67 119.221 105.268C119.954 105.867 120.32 106.747 120.32 107.91C120.32 109.393 119.697 110.543 118.45 111.36C117.211 112.186 115.433 112.599 113.116 112.599C111.355 112.599 110.003 112.291 109.059 111.676C108.115 111.061 107.643 110.193 107.643 109.073C107.643 108.306 107.883 107.666 108.364 107.152C108.844 106.638 109.548 106.267 110.474 106.039C110.104 105.879 109.788 105.631 109.526 105.294C109.265 104.948 109.135 104.565 109.135 104.143C109.135 103.722 109.265 103.351 109.526 103.031C109.796 102.703 110.213 102.374 110.778 102.045C110.104 101.742 109.573 101.274 109.185 100.642C108.798 100.002 108.604 99.2564 108.604 98.4054C108.604 97.0151 109.055 95.9408 109.956 95.1824C110.866 94.4241 112.155 94.0449 113.824 94.0449C114.144 94.0449 114.569 94.0786 115.1 94.146C115.64 94.2134 115.951 94.2598 116.036 94.285H120.472ZM113.824 96.143C112.551 96.143 111.915 96.9097 111.915 98.4433C111.915 99.1511 112.075 99.703 112.396 100.099C112.724 100.495 113.2 100.693 113.824 100.693C114.456 100.693 114.928 100.495 115.239 100.099C115.551 99.703 115.707 99.1511 115.707 98.4433C115.707 96.9097 115.079 96.143 113.824 96.143Z" fill="#313131"/>
<path d="M134.301 98.7087V107H130.825V99.5682C130.825 97.7397 130.143 96.8255 128.778 96.8255C127.809 96.8255 127.105 97.1541 126.667 97.8113C126.237 98.4686 126.022 99.5387 126.022 101.022V107H122.559V89.3053H126.022V92.9074C126.022 93.5478 125.972 94.5505 125.871 95.9155H126.048C126.814 94.6684 128.045 94.0449 129.738 94.0449C131.221 94.0449 132.35 94.4451 133.126 95.2456C133.909 96.0461 134.301 97.2004 134.301 98.7087Z" fill="#313131"/>
<path d="M141.33 94.285V107H137.867V94.285H141.33ZM139.611 92.7052C138.347 92.7052 137.715 92.1406 137.715 91.0115C137.715 89.874 138.343 89.3053 139.598 89.3053C140.862 89.3053 141.494 89.8698 141.494 90.9989C141.494 91.5466 141.334 91.9679 141.014 92.2628C140.694 92.5577 140.226 92.7052 139.611 92.7052Z" fill="#313131"/>
<path d="M148.434 108.378C148.434 109.726 148.043 110.766 147.259 111.499C146.484 112.232 145.38 112.599 143.948 112.599C143.08 112.599 142.317 112.502 141.66 112.308V109.578C142.208 109.722 142.751 109.793 143.29 109.793C144.411 109.793 144.971 109.149 144.971 107.859V94.285H148.434V108.378ZM146.716 92.7052C145.452 92.7052 144.82 92.1406 144.82 91.0115C144.82 89.874 145.447 89.3053 146.703 89.3053C147.967 89.3053 148.599 89.8698 148.599 90.9989C148.599 91.5466 148.439 91.9679 148.118 92.2628C147.798 92.5577 147.331 92.7052 146.716 92.7052Z" fill="#313131"/>
<path d="M155.539 107H152.076V89.3053H155.539V97.192L155.362 100.086H155.413L156.917 98.1526L160.481 94.285H164.399L159.343 99.7957L164.702 107H160.696L157.03 101.843L155.539 103.044V107Z" fill="#313131"/>
<path d="M169.992 89.3053V107H166.529V89.3053H169.992Z" fill="#313131"/>
<path d="M185.021 100.617V107H181.546V99.5682C181.546 98.6413 181.39 97.9546 181.078 97.508C180.766 97.053 180.286 96.8255 179.637 96.8255C178.752 96.8255 178.108 97.1499 177.703 97.7987C177.299 98.4391 177.097 99.5134 177.097 101.022V107H173.633V94.285H176.288L176.755 95.9155H176.945C177.282 95.3257 177.771 94.8664 178.411 94.5378C179.06 94.2092 179.801 94.0449 180.636 94.0449C182.548 94.0449 183.837 94.6684 184.503 95.9155H184.819C185.148 95.3172 185.645 94.858 186.31 94.5378C186.976 94.2092 187.73 94.0449 188.573 94.0449C190.039 94.0449 191.134 94.4199 191.859 95.1698C192.584 95.9197 192.946 97.0993 192.946 98.7087V107H189.47V99.5682C189.47 98.6413 189.314 97.9546 189.003 97.508C188.691 97.053 188.211 96.8255 187.562 96.8255C186.702 96.8255 186.062 97.133 185.641 97.7481C185.228 98.3548 185.021 99.3112 185.021 100.617Z" fill="#313131"/>
<path d="M208.251 98.7087V107H204.775V99.5682C204.775 98.6413 204.611 97.9546 204.282 97.508C203.954 97.053 203.436 96.8255 202.728 96.8255C201.767 96.8255 201.068 97.1499 200.63 97.7987C200.192 98.4391 199.973 99.5134 199.973 101.022V107H196.509V94.285H199.164L199.631 95.9155H199.821C200.2 95.3088 200.727 94.8454 201.401 94.5252C202.083 94.205 202.858 94.0449 203.726 94.0449C205.209 94.0449 206.334 94.4451 207.101 95.2456C207.868 96.0377 208.251 97.192 208.251 98.7087Z" fill="#313131"/>
<path d="M219.198 97.7734C218.785 97.1499 218.12 96.8381 217.201 96.8381C216.283 96.8381 215.617 97.1499 215.204 97.7734C214.791 98.3885 214.585 99.3406 214.585 100.63C214.585 101.911 214.796 102.867 215.217 103.499C215.638 104.131 216.304 104.447 217.214 104.447C218.124 104.447 218.785 104.131 219.198 103.499C219.62 102.867 219.83 101.911 219.83 100.63C219.83 99.3406 219.62 98.3885 219.198 97.7734ZM217.239 94.0449C219.085 94.0196 220.576 94.6137 221.713 95.827C222.851 97.0319 223.403 98.6287 223.369 100.617C223.369 102.69 222.821 104.312 221.726 105.483C220.639 106.646 219.122 107.227 217.176 107.227C215.331 107.244 213.839 106.646 212.702 105.433C211.573 104.219 211.021 102.614 211.046 100.617C211.046 98.5444 211.585 96.9308 212.664 95.7764C213.751 94.6221 215.276 94.0449 217.239 94.0449Z" fill="#313131"/>
<path d="M229.709 107.442V112.599H226.246V94.285H229.064L229.557 95.9281H229.709C230.535 94.6726 231.719 94.0449 233.26 94.0449C234.802 94.0449 235.999 94.6263 236.85 95.7891C237.701 96.9434 238.126 98.5444 238.126 100.592C238.135 102.639 237.693 104.266 236.799 105.471C235.906 106.667 234.718 107.253 233.235 107.227C231.727 107.227 230.551 106.684 229.709 105.597H229.532C229.65 106.701 229.709 107.316 229.709 107.442ZM234.588 100.579C234.588 99.3154 234.394 98.3759 234.006 97.7608C233.619 97.1372 233.008 96.8255 232.174 96.8255C231.339 96.8255 230.724 97.0909 230.328 97.6217C229.932 98.1526 229.726 99.0205 229.709 100.225V100.592C229.709 101.949 229.911 102.926 230.316 103.524C230.72 104.122 231.365 104.422 232.249 104.422C233.808 104.422 234.588 103.141 234.588 100.579Z" fill="#313131"/>
<path d="M243.76 100.706C243.76 101.995 243.962 102.951 244.367 103.575C244.771 104.198 245.407 104.51 246.275 104.51C247.143 104.51 247.779 104.257 248.184 103.752C248.596 103.246 248.824 102.366 248.866 101.11V100.693C248.866 99.3364 248.655 98.359 248.234 97.7608C247.813 97.1625 247.134 96.8634 246.199 96.8634C244.573 96.8634 243.76 98.1442 243.76 100.706ZM245.024 107.227C243.515 107.227 242.336 106.654 241.485 105.508C240.642 104.354 240.221 102.736 240.221 100.655C240.221 98.5739 240.655 96.9519 241.523 95.7891C242.391 94.6263 243.591 94.0449 245.125 94.0449C246.667 94.0449 247.884 94.6684 248.778 95.9155H248.866L249.169 94.285H252.102V112.599H248.626V107.265C248.626 106.802 248.676 106.166 248.778 105.357H248.626C247.859 106.604 246.658 107.227 245.024 107.227Z" fill="#313131"/>
<path d="M262.841 94.0449C263.279 94.0449 263.667 94.0786 264.004 94.146L263.751 97.3942C263.465 97.3184 263.123 97.2805 262.727 97.2805C261.615 97.2805 260.747 97.567 260.124 98.1399C259.509 98.7045 259.201 99.5007 259.201 100.529V107H255.738V94.285H258.367L258.872 96.421H259.049C259.454 95.6964 259.993 95.1192 260.667 94.6895C261.341 94.2598 262.066 94.0449 262.841 94.0449Z" fill="#313131"/>
<path d="M273.829 100.402C274.731 101.085 275.182 102.054 275.182 103.309C275.182 104.565 274.727 105.534 273.817 106.216C272.907 106.89 271.597 107.227 269.886 107.227C268.184 107.227 266.743 106.983 265.564 106.494V103.625C266.212 103.929 266.937 104.181 267.737 104.384C268.546 104.586 269.258 104.687 269.873 104.687C271.129 104.687 271.757 104.325 271.757 103.6C271.757 103.238 271.588 102.943 271.251 102.715C270.914 102.488 270.211 102.142 269.14 101.679C268.079 101.215 267.312 100.811 266.84 100.466C266.385 100.112 266.052 99.7114 265.842 99.2648C265.639 98.8098 265.538 98.2537 265.538 97.5965C265.538 96.4674 265.976 95.5953 266.853 94.9802C267.729 94.3567 268.951 94.0449 270.518 94.0449C272.094 94.0449 273.602 94.3777 275.043 95.0434L273.994 97.5459C273.261 97.2341 272.629 97.0024 272.098 96.8508C271.576 96.6907 271.049 96.6106 270.518 96.6106C269.49 96.6106 268.976 96.8887 268.976 97.4448C268.976 97.7566 269.149 98.0304 269.494 98.2663C269.84 98.5023 270.526 98.8267 271.554 99.2395C272.591 99.6524 273.349 100.04 273.829 100.402Z" fill="#313131"/>
<path d="M281.724 103.019C281.724 103.499 281.859 103.861 282.128 104.106C282.398 104.341 282.807 104.459 283.354 104.459C283.902 104.459 284.593 104.329 285.427 104.068V106.646C284.568 107.034 283.476 107.227 282.154 107.227C280.839 107.227 279.862 106.882 279.221 106.191C278.581 105.5 278.261 104.443 278.261 103.019V96.8887H276.592V95.4226L278.501 94.2598L279.512 91.5803H281.724V94.285H285.288V96.8887H281.724V103.019Z" fill="#313131"/>
<path d="M299.655 107H297.001L296.533 105.369H296.343C295.973 105.968 295.446 106.427 294.763 106.747C294.081 107.067 293.306 107.227 292.438 107.227C290.955 107.227 289.83 106.831 289.063 106.039C288.305 105.239 287.926 104.084 287.926 102.576V94.285H291.389V101.717C291.389 102.635 291.553 103.322 291.882 103.777C292.21 104.232 292.729 104.459 293.436 104.459C294.405 104.459 295.105 104.139 295.534 103.499C295.973 102.85 296.192 101.772 296.192 100.263V94.285H299.655V107Z" fill="#313131"/>
<path d="M309.882 107H306.317L301.477 94.285H305.104L307.556 101.527C307.842 102.471 308.015 103.339 308.074 104.131H308.137C308.171 103.423 308.344 102.555 308.656 101.527L311.095 94.285H314.722L309.882 107Z" fill="#313131"/>
<path d="M330.785 107H327.006L326.033 102.551L324.706 96.9392H324.63L322.304 107H318.576L314.961 94.285H318.424L319.89 99.9094C320.109 100.845 320.345 102.239 320.598 104.093H320.674C320.699 103.469 320.893 102.231 321.255 100.377L322.822 94.285H326.639L328.131 100.377C328.485 102.079 328.678 103.318 328.712 104.093H328.775C328.843 103.629 328.965 102.905 329.142 101.919C329.319 100.925 329.445 100.255 329.521 99.9094L331.05 94.285H334.45L330.785 107Z" fill="#313131"/>
<path d="M334.793 107L339.103 100.503L335.008 94.285H338.939L341.416 98.3295L343.906 94.285H347.837L343.704 100.503L348.039 107H344.083L341.416 102.639L338.724 107H334.793Z" fill="#313131"/>
<path d="M350.709 112.599C350.103 112.599 349.517 112.536 348.953 112.409V109.654C349.391 109.747 349.846 109.793 350.318 109.793C351.598 109.793 352.491 109.039 352.997 107.531L353.212 106.911L348.156 94.285H351.961L354.349 101.439C354.56 102.037 354.703 102.774 354.779 103.651H354.842C354.927 102.875 355.091 102.138 355.335 101.439L357.686 94.285H361.402L356.03 108.63C355.533 109.936 354.83 110.922 353.92 111.588C353.01 112.262 351.94 112.599 350.709 112.599Z" fill="#313131"/>
<path d="M372.08 104.346V107H362.032V104.952L367.935 96.9392H362.386V94.285H371.878V96.5348L366.14 104.346H372.08Z" fill="#313131"/>
<path d="M16.3327 145H12.5284L11.3276 141.044H5.26091L4.06021 145H0.255859L6.12037 128.304H10.4303L16.3327 145ZM6.14565 138.086H10.4808L8.59762 132.007C8.4628 131.552 8.36169 131.177 8.29428 130.882C8.06678 131.792 7.35057 134.194 6.14565 138.086Z" fill="#313131"/>
<path d="M24.143 137.758H21.9691V142.093H24.2568C25.2258 142.093 25.942 141.908 26.4054 141.537C26.8688 141.166 27.1005 140.597 27.1005 139.831C27.1005 138.449 26.1147 137.758 24.143 137.758ZM21.9691 131.261V134.952H24.0166C24.9772 134.952 25.6681 134.804 26.0894 134.51C26.5191 134.215 26.734 133.739 26.734 133.081C26.734 132.424 26.5023 131.956 26.0389 131.678C25.5754 131.4 24.8339 131.261 23.8144 131.261H21.9691ZM18.4428 145V128.367H23.6122C25.963 128.367 27.6735 128.704 28.7436 129.378C29.8137 130.044 30.3488 131.11 30.3488 132.576C30.3488 133.562 30.1171 134.375 29.6536 135.015C29.1902 135.655 28.5667 136.043 27.783 136.178V136.292C28.8194 136.519 29.5736 136.953 30.0454 137.593C30.5257 138.234 30.7659 139.093 30.7659 140.172C30.7659 141.697 30.214 142.885 29.1101 143.736C28.0148 144.579 26.5318 145 24.6612 145H18.4428Z" fill="#313131"/>
<path d="M41.1448 131.072C39.8219 131.072 38.7939 131.569 38.0609 132.563C37.3362 133.566 36.9739 134.956 36.9739 136.734C36.9739 140.441 38.3642 142.295 41.1448 142.295C42.3244 142.295 43.74 142.004 45.3915 141.423V144.381C44.0349 144.945 42.5098 145.227 40.8162 145.227C38.3979 145.227 36.5484 144.494 35.2677 143.028C33.9869 141.554 33.3465 139.447 33.3465 136.709C33.3212 134.113 34.0206 132.028 35.4446 130.452C36.877 128.868 38.7771 128.093 41.1448 128.127C42.7626 128.127 44.3888 128.519 46.0235 129.302L44.886 132.171C43.344 131.438 42.0969 131.072 41.1448 131.072Z" fill="#313131"/>
<path d="M53.9663 142.093C57.362 142.093 59.0598 140.269 59.0598 136.62C59.0598 133.048 57.4842 131.261 54.3328 131.261H52.4623V142.093H53.9663ZM54.1559 128.367C56.8606 128.367 58.9629 129.083 60.4628 130.516C61.971 131.94 62.7252 133.983 62.7252 136.646C62.7252 139.3 61.9457 141.356 60.3869 142.813C58.8281 144.271 56.5784 145 53.6377 145H48.936V128.367H54.1559Z" fill="#313131"/>
<path d="M75.74 142.093V145H66.1723V128.367H75.74V131.261H69.6986V134.914H75.323V137.796H69.6986V142.093H75.74Z" fill="#313131"/>
<path d="M82.6725 138.428V145H79.2094V128.367H88.7392V131.261H82.6725V135.546H88.3095V138.428H82.6725Z" fill="#313131"/>
<path d="M98.3092 138.592V135.66H104.907V144.279C103.003 144.911 101.031 145.227 98.9918 145.227C96.4892 145.227 94.5723 144.49 93.241 143.016C91.9181 141.541 91.2567 139.447 91.2567 136.734C91.2567 134.012 92.0234 131.897 93.557 130.389C95.1074 128.881 97.2391 128.127 99.9523 128.127C101.663 128.127 103.306 128.468 104.882 129.151L103.719 131.982C102.505 131.375 101.242 131.072 99.927 131.072C98.4104 131.072 97.1886 131.586 96.2617 132.614C95.3433 133.633 94.8841 135.028 94.8841 136.797C94.8841 138.558 95.2548 139.915 95.9963 140.867C96.7378 141.819 97.8121 142.295 99.2193 142.295C99.9523 142.295 100.698 142.219 101.456 142.068V138.592H98.3092Z" fill="#313131"/>
<path d="M122.497 128.367V145H118.984V137.821H112.399V145H108.872V128.367H112.399V134.889H118.984V128.367H122.497Z" fill="#313131"/>
<path d="M130.221 145H126.695V128.367H130.221V145Z" fill="#313131"/>
<path d="M137.936 143.926C137.936 145.88 137.489 147.363 136.596 148.375C135.711 149.386 134.401 149.891 132.665 149.891C131.882 149.891 131.187 149.807 130.58 149.638V146.706C131.187 146.858 131.743 146.934 132.248 146.934C133.007 146.934 133.554 146.694 133.891 146.213C134.237 145.741 134.41 144.987 134.41 143.951V128.367H137.936V143.926Z" fill="#313131"/>
<path d="M145.651 145H142.124V128.367H145.651V135.976L147.028 134.029L151.541 128.367H155.446L149.645 135.735L155.497 145H151.49L147.13 137.998L145.651 139.06V145Z" fill="#313131"/>
<path d="M167.866 145H157.603V128.367H161.129V142.093H167.866V145Z" fill="#313131"/>
<path d="M185.246 137.126C185.246 136.595 185.246 136.174 185.246 135.862C185.255 135.542 185.314 134.248 185.423 131.982H185.322L181.025 145H177.802L173.796 131.956H173.694C173.838 134.695 173.909 136.464 173.909 137.265V145H170.762V128.367H175.552L179.496 141.082H179.559L183.73 128.367H188.533V145H185.246V137.126Z" fill="#313131"/>
<path d="M207.485 128.367V145H202.998L195.768 132.424H195.667C195.81 134.699 195.882 136.283 195.882 137.176V145H192.735V128.367H197.171L204.401 140.829H204.476C204.367 138.748 204.312 137.218 204.312 136.241V128.367H207.485Z" fill="#313131"/>
<path d="M218.872 131.046C217.473 131.046 216.416 131.518 215.699 132.462C214.992 133.406 214.638 134.804 214.638 136.658C214.638 140.399 216.041 142.27 218.846 142.27C221.661 142.27 223.068 140.399 223.068 136.658C223.068 132.917 221.669 131.046 218.872 131.046ZM212.982 130.301C214.364 128.843 216.331 128.114 218.884 128.114C221.437 128.114 223.388 128.851 224.736 130.326C226.093 131.801 226.771 133.915 226.771 136.671C226.771 139.426 226.089 141.541 224.724 143.016C223.359 144.49 221.4 145.227 218.846 145.227C216.302 145.227 214.347 144.49 212.982 143.016C211.617 141.541 210.934 139.418 210.934 136.646C210.934 133.873 211.617 131.758 212.982 130.301Z" fill="#313131"/>
<path d="M233.737 131.261V136.191H234.887C237.052 136.191 238.135 135.356 238.135 133.688C238.135 132.854 237.908 132.243 237.453 131.855C237.006 131.459 236.298 131.261 235.329 131.261H233.737ZM235.519 128.367C237.541 128.367 239.075 128.805 240.119 129.681C241.173 130.549 241.699 131.86 241.699 133.612C241.699 135.365 241.139 136.717 240.018 137.669C238.906 138.613 237.314 139.085 235.241 139.085H233.737V145H230.21V128.367H235.519Z" fill="#313131"/>
<path d="M252.026 131.046C250.627 131.046 249.57 131.518 248.854 132.462C248.146 133.406 247.792 134.804 247.792 136.658C247.792 140.399 249.195 142.27 252.001 142.27C254.815 142.27 256.222 140.399 256.222 136.658C256.222 132.917 254.823 131.046 252.026 131.046ZM259.925 136.658C259.925 138.621 259.576 140.264 258.876 141.587C258.185 142.91 257.17 143.879 255.83 144.494L259.837 148.956H255.312L252.266 145.227H252.001C249.456 145.227 247.501 144.49 246.136 143.016C244.771 141.541 244.089 139.418 244.089 136.646C244.089 133.873 244.771 131.758 246.136 130.301C247.518 128.843 249.486 128.114 252.039 128.114C254.592 128.114 256.542 128.851 257.891 130.326C259.247 131.801 259.925 133.911 259.925 136.658Z" fill="#313131"/>
<path d="M266.891 138.617V145H263.365V128.367H268.205C270.455 128.367 272.124 128.78 273.21 129.606C274.306 130.423 274.854 131.67 274.854 133.347C274.854 134.324 274.584 135.196 274.045 135.963C273.514 136.721 272.751 137.32 271.757 137.758C274.26 141.49 275.89 143.905 276.648 145H272.73L268.762 138.617H266.891ZM266.891 131.261V135.748H268.028C269.141 135.748 269.962 135.563 270.493 135.192C271.024 134.821 271.289 134.244 271.289 133.46C271.289 132.677 271.02 132.117 270.48 131.779C269.95 131.434 269.107 131.261 267.953 131.261H266.891Z" fill="#313131"/>
<path d="M288.553 140.387C288.553 141.878 288.014 143.058 286.936 143.926C285.857 144.793 284.391 145.227 282.537 145.227C280.684 145.227 279.078 144.895 277.722 144.229V140.955C278.842 141.444 279.79 141.794 280.566 142.004C281.341 142.215 282.086 142.32 282.803 142.32C283.519 142.32 284.079 142.173 284.484 141.878C284.897 141.575 285.103 141.132 285.103 140.551C285.103 140.214 285.01 139.923 284.825 139.679C284.64 139.426 284.383 139.19 284.054 138.971C283.734 138.744 283.03 138.377 281.943 137.871C280.865 137.358 280.077 136.881 279.58 136.443C278.467 135.483 277.911 134.278 277.911 132.829C277.911 131.379 278.409 130.233 279.403 129.391C280.397 128.548 281.775 128.127 283.536 128.127C285.027 128.127 286.674 128.519 288.478 129.302L287.34 132.045C286.455 131.683 285.718 131.43 285.128 131.287C284.538 131.143 283.94 131.072 283.333 131.072C282.735 131.072 282.255 131.223 281.893 131.527C281.539 131.83 281.362 132.239 281.362 132.753C281.362 133.343 281.661 133.84 282.259 134.244C282.554 134.446 283.3 134.83 284.496 135.394C286.038 136.136 287.1 136.881 287.681 137.631C288.263 138.381 288.553 139.3 288.553 140.387Z" fill="#313131"/>
<path d="M297.971 131.299V145H294.445V131.299H289.932V128.367H302.483V131.299H297.971Z" fill="#313131"/>
<path d="M315.05 128.367H318.576V139.135C318.593 140.981 317.973 142.464 316.718 143.584C315.462 144.705 313.781 145.253 311.675 145.227C309.526 145.227 307.862 144.68 306.683 143.584C305.511 142.481 304.926 140.981 304.926 139.085V128.367H308.439V138.554C308.439 139.852 308.696 140.795 309.21 141.385C309.733 141.975 310.575 142.27 311.738 142.27C312.909 142.27 313.752 141.971 314.266 141.372C314.788 140.774 315.05 139.826 315.05 138.529V128.367Z" fill="#313131"/>
<path d="M328.974 138.263L332.121 128.367H335.686L330.036 145H326.181L320.544 128.367H324.108L327.23 138.263C327.382 138.777 327.554 139.439 327.748 140.248C327.95 141.057 328.073 141.617 328.115 141.929C328.207 141.17 328.494 139.949 328.974 138.263Z" fill="#313131"/>
<path d="M358.203 128.367L353.969 145H349.95L347.7 136.266C347.625 135.988 347.486 135.356 347.283 134.37C347.081 133.385 346.963 132.719 346.929 132.374C346.896 132.786 346.782 133.448 346.588 134.358L346.171 136.292L343.921 145H339.927L335.681 128.367H339.144L341.28 137.442C341.667 139.22 341.937 140.673 342.089 141.802C342.131 141.364 342.228 140.719 342.379 139.868C342.539 139.009 342.7 138.28 342.86 137.682L345.286 128.367H348.61L351.037 137.682C351.138 138.044 351.269 138.685 351.429 139.603C351.564 140.286 351.686 141.019 351.795 141.802C351.863 141.297 351.981 140.576 352.149 139.641C352.326 138.706 352.482 137.973 352.617 137.442L354.728 128.367H358.203Z" fill="#313131"/>
<path d="M368.136 136.62L373.748 145H369.729L365.861 138.706L361.994 145H358.215L363.725 136.418L358.569 128.367H362.462L366.038 134.358L369.552 128.367H373.356L368.136 136.62Z" fill="#313131"/>
<path d="M382.766 145H379.253V138.642L373.742 128.367H377.559L381.01 135.217L384.485 128.367H388.277L382.766 138.529V145Z" fill="#313131"/>
<path d="M401.198 142.093V145H388.825V142.712L396.8 131.287H389.04V128.367H400.983V130.642L393.021 142.093H401.198Z" fill="#313131"/>
<path d="M39.0447 56.2977C38.6908 57.1824 38.5139 58.6443 38.5139 60.6834C38.5139 62.7225 38.6908 64.1844 39.0447 65.0692C39.3986 65.9539 39.9885 66.3963 40.8142 66.3963C41.64 66.3963 42.234 65.9539 42.5963 65.0692C42.9586 64.176 43.1398 62.7141 43.1398 60.6834C43.1398 58.6528 42.9544 57.1908 42.5837 56.2977C42.2213 55.4045 41.6273 54.9579 40.8016 54.9579C39.9842 54.9579 39.3986 55.4045 39.0447 56.2977ZM35.0255 60.6076C35.0255 57.7343 35.4974 55.6025 36.4411 54.2122C37.3932 52.8135 38.8383 52.1142 40.7763 52.1142C42.7227 52.1142 44.1846 52.843 45.162 54.3007C46.1479 55.75 46.6408 57.9028 46.6408 60.7593C46.6408 63.6157 46.1647 65.7432 45.2126 67.142C44.2604 68.5323 42.8112 69.2274 40.8648 69.2274C38.9183 69.2274 37.4564 68.507 36.479 67.0661C35.51 65.6253 35.0255 63.4724 35.0255 60.6076Z" fill="#313131"/>
<path d="M57.1027 52.3669V68.9999H53.589V59.3816L53.6775 56.0702C53.1214 56.6263 52.7169 57.0097 52.4642 57.2203L50.5557 58.7496L48.862 56.6389L54.221 52.3669H57.1027Z" fill="#313131"/>
<path d="M73.3532 66.0424V68.9999H61.7253V66.5606L65.8962 62.3391C67.1685 61.0331 67.9774 60.1526 68.3229 59.6976C69.0307 58.7876 69.3846 57.9028 69.3846 57.0434C69.3846 56.3946 69.2034 55.9059 68.8411 55.5773C68.4872 55.2402 67.9943 55.0717 67.3623 55.0717C66.2164 55.0717 64.9567 55.6404 63.5833 56.778L61.6748 54.5029C62.4837 53.8204 63.162 53.3317 63.7097 53.0368C64.805 52.4301 66.1195 52.1268 67.653 52.1268C69.1866 52.1268 70.442 52.5481 71.4195 53.3907C72.3969 54.2249 72.8856 55.3076 72.8856 56.6389C72.8856 57.3973 72.7508 58.1135 72.4811 58.7876C72.2199 59.4616 71.7944 60.1568 71.2046 60.873C70.6232 61.5892 69.6331 62.5877 68.2344 63.8685L66.0984 65.8781V66.0424H73.3532Z" fill="#313131"/>
<path d="M86.0017 56.0955C86.0017 57.1319 85.6857 58.0166 85.0537 58.7496C84.4302 59.4743 83.5497 59.9714 82.4122 60.2411V60.3043C83.7519 60.4728 84.7673 60.8814 85.4582 61.5302C86.1491 62.179 86.4946 63.0553 86.4946 64.1592C86.4946 65.7517 85.9132 66.9945 84.7504 67.8877C83.596 68.7808 81.9403 69.2274 79.7833 69.2274C77.9969 69.2274 76.396 68.9283 74.9804 68.33V65.3346C76.4466 66.0761 77.9211 66.4468 79.4041 66.4468C80.5753 66.4468 81.4348 66.2488 81.9825 65.8528C82.5302 65.4568 82.804 64.8501 82.804 64.0328C82.804 63.207 82.488 62.6298 81.8561 62.3012C81.2325 61.9642 80.2172 61.7957 78.8101 61.7957H77.5462V59.1035H78.8227C80.1287 59.1035 81.0767 58.9308 81.6665 58.5853C82.2563 58.2399 82.5512 57.6669 82.5512 56.8664C82.5512 55.6025 81.7592 54.9706 80.1751 54.9706C79.0713 54.9706 77.8916 55.3792 76.6361 56.1966L75.0057 53.7699C76.514 52.6745 78.3214 52.1268 80.4279 52.1268C82.1468 52.1268 83.5034 52.4765 84.4976 53.1758C85.5003 53.8668 86.0017 54.84 86.0017 56.0955Z" fill="#313131"/>
<path d="M94.8963 62.8194V60.0009C94.8963 59.4364 94.9132 58.737 94.9469 57.9028C94.9806 57.0687 95.0143 56.5673 95.048 56.3988H94.9595C94.673 57.0139 94.3318 57.6206 93.9357 58.2188L90.8897 62.8194H94.8963ZM100.331 62.8194V65.5494H98.3341V68.9999H94.8963V65.5494H87.7932V63.1101L95.0859 52.3669H98.3341V62.8194H100.331Z" fill="#313131"/>
<path d="M107.696 58.3705C109.306 58.3705 110.582 58.8255 111.526 59.7355C112.478 60.6371 112.954 61.8715 112.954 63.4387C112.954 65.3009 112.377 66.7333 111.223 67.736C110.077 68.7303 108.446 69.2274 106.331 69.2274C104.486 69.2274 102.99 68.9283 101.845 68.33V65.2967C102.426 65.6084 103.117 65.8654 103.917 66.0676C104.726 66.2699 105.489 66.371 106.205 66.371C108.345 66.371 109.415 65.4905 109.415 63.7294C109.415 62.0526 108.307 61.2143 106.091 61.2143C105.257 61.2143 104.419 61.3407 103.576 61.5934L102.173 60.8477L102.805 52.3669H111.817V55.3498H105.876L105.573 58.6106L105.978 58.5348C106.424 58.4252 106.997 58.3705 107.696 58.3705Z" fill="#313131"/>
<path d="M118.323 63.1986C118.323 64.1002 118.559 64.8627 119.03 65.4863C119.511 66.1098 120.117 66.4215 120.85 66.4215C121.592 66.4215 122.161 66.1688 122.557 65.6632C122.961 65.1576 123.163 64.4667 123.163 63.5904C123.163 62.7057 122.97 62.0358 122.582 61.5808C122.203 61.1174 121.647 60.8856 120.914 60.8856C120.189 60.8856 119.574 61.1174 119.068 61.5808C118.571 62.0442 118.323 62.5835 118.323 63.1986ZM121.811 58.1935C123.302 58.1935 124.469 58.657 125.312 59.5838C126.155 60.5107 126.576 61.8294 126.576 63.5398C126.576 65.2503 126.075 66.628 125.072 67.6728C124.069 68.7092 122.658 69.2274 120.838 69.2274C119.018 69.2274 117.56 68.587 116.465 67.3063C115.378 66.0171 114.834 64.2266 114.834 61.9347C114.834 58.657 115.525 56.2134 116.907 54.604C118.297 52.9863 120.383 52.1774 123.163 52.1774C124.132 52.1774 124.878 52.2321 125.4 52.3417V55.1602C124.735 55.0085 124.065 54.9327 123.391 54.9327C121.04 54.9327 119.485 55.6531 118.727 57.0939C118.339 57.8101 118.116 58.8213 118.057 60.1273H118.209C118.95 58.8381 120.151 58.1935 121.811 58.1935Z" fill="#313131"/>
<path d="M127.938 55.3498V52.3922H139.882V54.604L133.587 68.9999H129.897L136.14 55.3498H127.938Z" fill="#313131"/>
<path d="M144.694 64.5762C144.694 65.225 144.921 65.7348 145.376 66.1056C145.831 66.4679 146.467 66.649 147.285 66.649C148.102 66.649 148.734 66.4679 149.181 66.1056C149.627 65.7348 149.851 65.2672 149.851 64.7026C149.851 64.1297 149.636 63.6241 149.206 63.186C148.785 62.7394 148.089 62.2633 147.12 61.7577C145.503 62.5077 144.694 63.4472 144.694 64.5762ZM147.285 58.7496C148.018 58.4126 148.536 58.0629 148.839 57.7006C149.143 57.3383 149.294 56.9086 149.294 56.4114C149.294 55.9059 149.105 55.5014 148.726 55.1981C148.355 54.8863 147.866 54.7304 147.26 54.7304C146.661 54.7304 146.177 54.8821 145.806 55.1854C145.444 55.4888 145.263 55.8848 145.263 56.3735C145.263 56.8622 145.406 57.2877 145.692 57.6501C145.987 58.0039 146.518 58.3705 147.285 58.7496ZM143.417 53.2643C144.403 52.5228 145.692 52.1521 147.285 52.1521C148.877 52.1521 150.162 52.5144 151.14 53.239C152.117 53.9637 152.606 54.9411 152.606 56.1713C152.606 57.0307 152.366 57.7891 151.885 58.4463C151.405 59.1035 150.651 59.6934 149.623 60.2158C150.845 60.8646 151.73 61.5513 152.277 62.2759C152.833 63.0006 153.111 63.8053 153.111 64.69C153.111 66.055 152.576 67.1546 151.506 67.9888C150.428 68.8145 148.999 69.2274 147.222 69.2274C145.452 69.2274 144.045 68.8398 143 68.0646C141.964 67.2894 141.446 66.194 141.446 64.7785C141.446 63.8179 141.698 62.9711 142.204 62.238C142.718 61.505 143.527 60.8604 144.631 60.3043C142.844 59.1836 141.951 57.7975 141.951 56.146C141.951 54.9579 142.44 53.9974 143.417 53.2643Z" fill="#313131"/>
<path d="M158.075 69.2274C157.073 69.2274 156.327 69.1726 155.838 69.0631V66.2446C156.47 66.4047 157.186 66.4805 157.987 66.4721C158.796 66.4637 159.512 66.371 160.135 66.194C160.759 66.0087 161.294 65.718 161.741 65.3219C162.187 64.9175 162.524 64.3867 162.752 63.7294C162.979 63.0722 163.122 62.2591 163.181 61.2901H163.042C162.613 61.9895 162.107 62.4866 161.526 62.7815C160.953 63.0764 160.228 63.2239 159.352 63.2239C157.903 63.2239 156.761 62.7604 155.927 61.8336C155.092 60.8983 154.675 59.5754 154.675 57.8649C154.675 56.146 155.181 54.7684 156.192 53.732C157.22 52.6956 158.602 52.1774 160.338 52.1774C162.191 52.1605 163.674 52.8093 164.787 54.1238C165.899 55.4298 166.442 57.2119 166.417 59.4701C166.417 62.7478 165.726 65.1956 164.344 66.8134C162.971 68.4227 160.881 69.2274 158.075 69.2274ZM162.208 55.9311C161.736 55.3076 161.134 54.9959 160.401 54.9959C159.668 54.9959 159.095 55.2486 158.682 55.7542C158.278 56.2598 158.075 56.9507 158.075 57.827C158.075 58.7033 158.265 59.3732 158.644 59.8366C159.032 60.3 159.588 60.5318 160.312 60.5318C161.045 60.5318 161.665 60.3 162.17 59.8366C162.676 59.3732 162.929 58.8339 162.929 58.2188C162.929 57.3088 162.689 56.5462 162.208 55.9311Z" fill="#313131"/>
<path d="M180.332 67.3568C180.332 67.9635 180.155 68.4396 179.801 68.785C179.456 69.1305 178.967 69.3032 178.335 69.3032C177.711 69.3032 177.223 69.1347 176.869 68.7977C176.523 68.4606 176.351 67.9804 176.351 67.3568C176.351 66.7333 176.519 66.2572 176.856 65.9286C177.202 65.6 177.695 65.4357 178.335 65.4357C178.975 65.4357 179.468 65.6042 179.814 65.9413C180.159 66.2783 180.332 66.7502 180.332 67.3568ZM180.332 52.3669L179.751 63.4893H176.983L176.401 52.3669H180.332Z" fill="#313131"/>
<path d="M193.823 58.5601C192.887 58.5601 192.154 58.855 191.624 59.4448C191.093 60.0262 190.827 60.8351 190.827 61.8715C190.827 63.4724 191.48 64.2729 192.786 64.2729C193.469 64.2729 193.987 64.0328 194.341 63.5525C194.695 63.0638 194.91 62.2802 194.986 61.2016L195.137 58.6865C194.766 58.6022 194.328 58.5601 193.823 58.5601ZM195.643 64.8796C194.817 65.857 193.755 66.3457 192.458 66.3457C191.16 66.3457 190.124 65.9455 189.348 65.145C188.573 64.3277 188.186 63.2197 188.186 61.8209C188.186 60.22 188.695 58.9308 189.715 57.9534C190.735 56.976 192.062 56.4873 193.696 56.4873C194.345 56.4873 195.053 56.5505 195.82 56.6768C196.586 56.7948 197.244 56.9423 197.791 57.1192L197.526 62.693C197.526 63.7463 197.812 64.2729 198.385 64.2729C198.874 64.2729 199.262 63.919 199.548 63.2112C199.835 62.5034 199.978 61.5724 199.978 60.418C200.012 58.598 199.456 57.115 198.31 55.9691C197.164 54.8147 195.702 54.2586 193.924 54.3007C192.416 54.2839 191.088 54.5998 189.943 55.2486C188.805 55.889 187.933 56.8032 187.326 57.9913C186.72 59.171 186.42 60.536 186.429 62.0864C186.429 64.1844 186.989 65.7938 188.11 66.9145C189.231 68.0267 190.848 68.5828 192.963 68.5828C194.674 68.5828 196.506 68.2331 198.461 67.5338V69.7203C196.843 70.4113 195.04 70.7567 193.052 70.7567C190.17 70.7567 187.924 69.9984 186.315 68.4817C184.706 66.965 183.901 64.8543 183.901 62.1495C183.901 60.279 184.31 58.5811 185.127 57.056C185.944 55.5309 187.116 54.3344 188.641 53.4665C190.166 52.5902 191.918 52.1521 193.899 52.1521C195.575 52.1521 197.067 52.4933 198.373 53.1758C199.679 53.8583 200.686 54.8316 201.393 56.0955C202.11 57.3509 202.472 58.8086 202.48 60.4686C202.489 62.1201 202.093 63.523 201.292 64.6774C200.5 65.8233 199.489 66.3794 198.259 66.3457C197.703 66.3457 197.206 66.2109 196.768 65.9413C196.329 65.6716 196.018 65.3177 195.832 64.8796H195.643Z" fill="#313131"/>
<path d="M218.172 59.3942H214.999L214.468 62.0358H217.401V64.3867H214.026L213.141 68.9999H210.639L211.536 64.3867H209.324L208.465 68.9999H206.013L206.86 64.3867H204.142V62.0358H207.302L207.833 59.3942H204.964V57.0181H208.25L209.135 52.3922H211.625L210.74 57.0181H213.002L213.887 52.3922H216.326L215.442 57.0181H218.172V59.3942ZM210.297 59.3942L209.767 62.0358H211.991L212.535 59.3942H210.297Z" fill="#313131"/>
<path d="M231.124 63.8053C231.124 65.0102 230.686 65.9792 229.81 66.7122C228.942 67.4453 227.72 67.8835 226.145 68.0267V70.3523H224.59V68.0646C222.728 68.0225 221.106 67.6981 219.724 67.0914V64.0833C220.373 64.4119 221.169 64.7026 222.113 64.9554C223.056 65.1998 223.882 65.3472 224.59 65.3978V61.8715L223.832 61.5682C222.323 60.9699 221.257 60.3295 220.634 59.647C220.01 58.9477 219.699 58.0671 219.699 57.0055C219.699 55.9438 220.128 55.0591 220.988 54.3513C221.847 53.6435 223.048 53.2138 224.59 53.0621V51.3179H226.145V53.0242C227.897 53.1 229.469 53.4455 230.859 54.0606L229.785 56.7274C228.622 56.2387 227.408 55.9438 226.145 55.8427V59.192C227.611 59.7566 228.66 60.2495 229.292 60.6708C229.924 61.0921 230.387 61.5555 230.682 62.0611C230.977 62.5582 231.124 63.1396 231.124 63.8053ZM227.699 63.9696C227.699 63.6578 227.577 63.3924 227.333 63.1733C227.097 62.9542 226.701 62.7225 226.145 62.4782V65.3093C227.181 65.1408 227.699 64.6942 227.699 63.9696ZM223.124 57.0687C223.124 57.3888 223.233 57.6585 223.452 57.8776C223.68 58.0966 224.059 58.3241 224.59 58.5601V55.8806C223.613 56.0238 223.124 56.4199 223.124 57.0687Z" fill="#313131"/>
<path d="M248.323 61.1511C247.944 61.1511 247.666 61.3828 247.489 61.8462C247.32 62.3096 247.236 63.0259 247.236 63.9948C247.236 65.9076 247.598 66.8639 248.323 66.8639C249.047 66.8639 249.41 65.9118 249.41 64.0075C249.41 62.1032 249.047 61.1511 248.323 61.1511ZM248.298 58.7749C249.578 58.7749 250.56 59.2257 251.242 60.1273C251.933 61.0205 252.279 62.3181 252.279 64.0201C252.279 65.7222 251.942 67.0114 251.268 67.8877C250.602 68.764 249.625 69.2021 248.335 69.2021C247.046 69.2021 246.06 68.7513 245.378 67.8498C244.704 66.9482 244.367 65.6548 244.367 63.9696C244.367 60.5065 245.677 58.7749 248.298 58.7749ZM236.67 54.5029C236.29 54.5029 236.012 54.7347 235.835 55.1981C235.667 55.6615 235.583 56.3777 235.583 57.3467C235.583 59.2594 235.945 60.2158 236.67 60.2158C237.394 60.2158 237.757 59.2636 237.757 57.3594C237.757 55.4551 237.394 54.5029 236.67 54.5029ZM245.719 52.3669H248.449L239.223 68.9999H236.493L245.719 52.3669ZM236.644 52.1268C237.925 52.1268 238.907 52.5776 239.589 53.4792C240.28 54.3808 240.626 55.6826 240.626 57.3846C240.626 59.0867 240.289 60.3801 239.615 61.2648C238.949 62.1411 237.976 62.5793 236.695 62.5793C235.414 62.5793 234.433 62.1285 233.75 61.2269C233.068 60.3169 232.726 59.0193 232.726 57.3341C232.726 53.8626 234.032 52.1268 236.644 52.1268Z" fill="#313131"/>
<path d="M255.758 63.0848H253.066L258.046 52.2785H259.689L265.313 63.0848H262.596L258.943 55.7668L255.758 63.0848Z" fill="#313131"/>
<path d="M277.261 67.7107C275.811 68.7218 274.168 69.2274 272.331 69.2274C270.494 69.2274 269.028 68.8019 267.933 67.9509C266.854 67.0998 266.315 65.9539 266.315 64.513C266.315 63.4598 266.543 62.5709 266.998 61.8462C267.461 61.1216 268.249 60.4391 269.361 59.7987C268.788 59.1499 268.371 58.5264 268.11 57.9281C267.857 57.3299 267.731 56.6811 267.731 55.9817C267.731 54.8273 268.173 53.8963 269.058 53.1885C269.943 52.4807 271.105 52.1268 272.546 52.1268C273.987 52.1268 275.133 52.4554 275.984 53.1126C276.835 53.7699 277.261 54.6504 277.261 55.7542C277.261 56.6642 276.995 57.49 276.464 58.2314C275.933 58.9729 275.091 59.6807 273.936 60.3548L277.159 63.5019C277.707 62.6172 278.175 61.4755 278.562 60.0767H282.177C281.613 62.2254 280.694 64.0875 279.422 65.6632L282.847 68.9999H278.562L277.261 67.7107ZM269.968 64.1718C269.968 64.829 270.212 65.3514 270.701 65.739C271.19 66.1266 271.864 66.3204 272.723 66.3204C273.583 66.3204 274.396 66.0887 275.163 65.6253L271.383 61.8715C270.44 62.5793 269.968 63.346 269.968 64.1718ZM272.028 58.421C272.719 58.0334 273.229 57.6669 273.557 57.3214C273.886 56.9675 274.05 56.58 274.05 56.1586C274.05 55.7289 273.915 55.4003 273.646 55.1728C273.376 54.9369 273.001 54.8189 272.521 54.8189C272.049 54.8189 271.666 54.9411 271.371 55.1854C271.084 55.4214 270.941 55.7626 270.941 56.2092C270.941 56.8833 271.303 57.6206 272.028 58.421Z" fill="#313131"/>
<path d="M287.677 51.3053H290.659L290.192 55.4888L294.439 54.3007L294.818 57.1698L290.95 57.4478L293.478 60.8225L290.9 62.2001L289.13 58.6359L287.563 62.1748L284.883 60.8225L287.399 57.4478L283.556 57.1445L283.999 54.3007L288.144 55.4888L287.677 51.3053Z" fill="#313131"/>
<path d="M300.018 71.553C298.906 70.2638 298.055 68.7598 297.465 67.0409C296.884 65.3135 296.593 63.4556 296.593 61.467C296.593 59.4701 296.884 57.5953 297.465 55.8427C298.055 54.0901 298.906 52.5523 300.018 51.2294H302.862C301.8 52.6871 300.991 54.2923 300.435 56.0449C299.887 57.7975 299.614 59.6007 299.614 61.4544C299.614 63.3081 299.892 65.1029 300.448 66.8386C301.004 68.566 301.8 70.1374 302.837 71.553H300.018Z" fill="#313131"/>
<path d="M308.73 51.2294C309.842 52.5607 310.689 54.1027 311.27 55.8553C311.86 57.6079 312.155 59.4827 312.155 61.4797C312.155 63.4682 311.86 65.3219 311.27 67.0409C310.689 68.7598 309.842 70.2638 308.73 71.553H305.911C306.931 70.1543 307.718 68.5955 308.275 66.8765C308.839 65.1492 309.121 63.3503 309.121 61.4797C309.121 59.6007 308.848 57.7891 308.3 56.0449C307.752 54.2923 306.948 52.6871 305.886 51.2294H308.73Z" fill="#313131"/>
<path d="M321.549 67.3695C321.549 67.9761 321.372 68.4522 321.018 68.7977C320.672 69.1347 320.184 69.3032 319.552 69.3032C318.92 69.3032 318.431 69.1347 318.086 68.7977C317.74 68.4606 317.568 67.9804 317.568 67.3568C317.568 66.7333 317.736 66.2572 318.073 65.9286C318.419 65.6 318.911 65.4357 319.552 65.4357C320.192 65.4357 320.685 65.6042 321.031 65.9413C321.376 66.2783 321.549 66.7544 321.549 67.3695ZM320.942 63.4893H317.921V62.6425C317.921 61.9178 318.077 61.2859 318.389 60.7466C318.701 60.2074 319.261 59.6428 320.07 59.053C320.887 58.4632 321.422 57.9913 321.675 57.6374C321.928 57.2835 322.054 56.8749 322.054 56.4114C322.054 55.948 321.873 55.5857 321.511 55.3245C321.149 55.0633 320.639 54.9327 319.982 54.9327C318.836 54.9327 317.538 55.3034 316.089 56.0449L314.85 53.555C316.552 52.6029 318.347 52.1268 320.234 52.1268C321.785 52.1268 323.023 52.506 323.95 53.2643C324.877 54.0142 325.341 55.0127 325.341 56.2598C325.341 57.0939 325.151 57.8144 324.772 58.421C324.393 59.0277 323.672 59.7102 322.61 60.4686C321.861 61.0331 321.393 61.4544 321.208 61.7325C321.031 62.0021 320.942 62.3602 320.942 62.8068V63.4893Z" fill="#313131"/>
<path d="M328.037 52.3669H331.234L331.399 52.6197C331.02 54.1027 330.354 55.9185 329.402 58.0671H326.899C327.43 55.8427 327.809 53.9426 328.037 52.3669Z" fill="#313131"/>
<path d="M339.779 52.3669L339.944 52.6197C339.564 54.1027 338.899 55.9185 337.947 58.0671H335.444C335.975 55.8427 336.354 53.9426 336.582 52.3669H339.779ZM345.088 52.3669L345.252 52.6197C344.873 54.1027 344.207 55.9185 343.255 58.0671H340.765C341.279 55.8511 341.658 53.951 341.903 52.3669H345.088Z" fill="#313131"/>
<path d="M343.886 66.2952H347.071L347.236 66.5606C346.856 68.0435 346.191 69.8594 345.239 72.008H342.736C343.216 70.0447 343.6 68.1404 343.886 66.2952ZM347.324 57.966C347.324 58.5811 347.147 59.0614 346.793 59.4069C346.448 59.7439 345.959 59.9124 345.327 59.9124C344.704 59.9124 344.215 59.7481 343.861 59.4195C343.515 59.0825 343.343 58.6022 343.343 57.9787C343.343 56.6895 344.013 56.0449 345.352 56.0449C345.984 56.0449 346.469 56.2134 346.806 56.5505C347.151 56.8791 347.324 57.3509 347.324 57.966Z" fill="#313131"/>
<path d="M354.087 67.3568C354.087 67.9635 353.91 68.4396 353.556 68.785C353.21 69.1305 352.722 69.3032 352.09 69.3032C351.466 69.3032 350.978 69.1347 350.624 68.7977C350.278 68.4606 350.105 67.9804 350.105 67.3568C350.105 66.7333 350.274 66.2572 350.611 65.9286C350.956 65.6 351.449 65.4357 352.09 65.4357C352.73 65.4357 353.223 65.6042 353.569 65.9413C353.914 66.2783 354.087 66.7502 354.087 67.3568ZM354.087 57.966C354.087 58.5811 353.91 59.0614 353.556 59.4069C353.21 59.7439 352.722 59.9124 352.09 59.9124C351.466 59.9124 350.978 59.7481 350.624 59.4195C350.278 59.0825 350.105 58.6022 350.105 57.9787C350.105 56.6895 350.775 56.0449 352.115 56.0449C352.747 56.0449 353.231 56.2134 353.569 56.5505C353.914 56.8791 354.087 57.3509 354.087 57.966Z" fill="#313131"/>
<path d="M360.475 66.2952L360.639 66.5606C360.26 68.0435 359.594 69.8594 358.642 72.008H356.139C356.62 70.0447 357.003 68.1404 357.29 66.2952H360.475Z" fill="#313131"/>
<path d="M367.49 67.3568C367.49 67.9635 367.313 68.4396 366.959 68.785C366.614 69.1305 366.125 69.3032 365.493 69.3032C364.87 69.3032 364.381 69.1347 364.027 68.7977C363.681 68.4606 363.509 67.9804 363.509 67.3568C363.509 66.7333 363.677 66.2572 364.014 65.9286C364.36 65.6 364.853 65.4357 365.493 65.4357C366.133 65.4357 366.626 65.6042 366.972 65.9413C367.317 66.2783 367.49 66.7502 367.49 67.3568Z" fill="#313131"/>
</svg>
