<svg width="384" height="150" viewBox="0 0 384 150" fill="none" xmlns="http://www.w3.org/2000/svg">
<path d="M120.614 22.4803H112.414L110.654 29.0003H105.054L113.374 2.88027H119.894L128.174 29.0003H122.374L120.614 22.4803ZM119.494 18.2403L118.774 15.5603C118.454 14.3869 117.974 12.5469 117.334 10.0403L116.574 7.08027H116.414C115.614 10.5203 114.907 13.3469 114.294 15.5603L113.574 18.2403H119.494Z" fill="#313131"/>
<path d="M139.053 29.4803C137.773 29.4803 136.44 29.2269 135.053 28.7203C133.693 28.2136 132.507 27.5469 131.493 26.7203L133.973 23.2803C134.907 24.0003 135.787 24.5336 136.613 24.8803C137.467 25.2269 138.333 25.4003 139.213 25.4003C140.12 25.4003 140.8 25.2403 141.253 24.9203C141.707 24.5736 141.933 24.0936 141.933 23.4803C141.933 23.0536 141.747 22.6803 141.373 22.3603C141.027 22.0403 140.52 21.7469 139.853 21.4803C139.187 21.1869 138.52 20.9069 137.853 20.6403C136.28 20.0269 134.987 19.2803 133.973 18.4003C132.987 17.4936 132.493 16.3069 132.493 14.8403C132.493 13.0269 133.173 11.5603 134.533 10.4403C135.893 9.29361 137.693 8.72027 139.933 8.72027C142.387 8.72027 144.667 9.54694 146.773 11.2003L144.333 14.4803C142.76 13.3603 141.347 12.8003 140.093 12.8003C139.267 12.8003 138.64 12.9603 138.213 13.2803C137.813 13.6003 137.613 14.0269 137.613 14.5603C137.613 15.0936 137.88 15.5336 138.413 15.8803C138.947 16.2003 139.56 16.4803 140.253 16.7203C140.947 16.9603 141.4 17.1203 141.613 17.2003C143.293 17.8136 144.613 18.5603 145.573 19.4403C146.56 20.2936 147.053 21.5336 147.053 23.1603C147.053 24.3603 146.733 25.4403 146.093 26.4003C145.48 27.3336 144.573 28.0803 143.373 28.6403C142.173 29.2003 140.733 29.4803 139.053 29.4803Z" fill="#313131"/>
<path d="M158.631 29.4803C157.351 29.4803 156.018 29.2269 154.631 28.7203C153.271 28.2136 152.085 27.5469 151.071 26.7203L153.551 23.2803C154.485 24.0003 155.365 24.5336 156.191 24.8803C157.045 25.2269 157.911 25.4003 158.791 25.4003C159.698 25.4003 160.378 25.2403 160.831 24.9203C161.285 24.5736 161.511 24.0936 161.511 23.4803C161.511 23.0536 161.325 22.6803 160.951 22.3603C160.605 22.0403 160.098 21.7469 159.431 21.4803C158.765 21.1869 158.098 20.9069 157.431 20.6403C155.858 20.0269 154.565 19.2803 153.551 18.4003C152.565 17.4936 152.071 16.3069 152.071 14.8403C152.071 13.0269 152.751 11.5603 154.111 10.4403C155.471 9.29361 157.271 8.72027 159.511 8.72027C161.965 8.72027 164.245 9.54694 166.351 11.2003L163.911 14.4803C162.338 13.3603 160.925 12.8003 159.671 12.8003C158.845 12.8003 158.218 12.9603 157.791 13.2803C157.391 13.6003 157.191 14.0269 157.191 14.5603C157.191 15.0936 157.458 15.5336 157.991 15.8803C158.525 16.2003 159.138 16.4803 159.831 16.7203C160.525 16.9603 160.978 17.1203 161.191 17.2003C162.871 17.8136 164.191 18.5603 165.151 19.4403C166.138 20.2936 166.631 21.5336 166.631 23.1603C166.631 24.3603 166.311 25.4403 165.671 26.4003C165.058 27.3336 164.151 28.0803 162.951 28.6403C161.751 29.2003 160.311 29.4803 158.631 29.4803Z" fill="#313131"/>
<path d="M172.49 9.20027H177.93V29.0003H172.49V9.20027ZM175.21 6.12027C174.303 6.12027 173.556 5.85361 172.97 5.32028C172.41 4.76027 172.13 4.05361 172.13 3.20027C172.13 2.34694 172.41 1.65361 172.97 1.12027C173.556 0.560274 174.303 0.280273 175.21 0.280273C176.116 0.280273 176.85 0.560274 177.41 1.12027C177.996 1.65361 178.29 2.34694 178.29 3.20027C178.29 4.05361 177.996 4.76027 177.41 5.32028C176.85 5.85361 176.116 6.12027 175.21 6.12027Z" fill="#313131"/>
<path d="M191.108 29.4803C189.828 29.4803 188.495 29.2269 187.108 28.7203C185.748 28.2136 184.561 27.5469 183.548 26.7203L186.028 23.2803C186.961 24.0003 187.841 24.5336 188.668 24.8803C189.521 25.2269 190.388 25.4003 191.268 25.4003C192.175 25.4003 192.855 25.2403 193.308 24.9203C193.761 24.5736 193.988 24.0936 193.988 23.4803C193.988 23.0536 193.801 22.6803 193.428 22.3603C193.081 22.0403 192.575 21.7469 191.908 21.4803C191.241 21.1869 190.575 20.9069 189.908 20.6403C188.335 20.0269 187.041 19.2803 186.028 18.4003C185.041 17.4936 184.548 16.3069 184.548 14.8403C184.548 13.0269 185.228 11.5603 186.588 10.4403C187.948 9.29361 189.748 8.72027 191.988 8.72027C194.441 8.72027 196.721 9.54694 198.828 11.2003L196.388 14.4803C194.815 13.3603 193.401 12.8003 192.148 12.8003C191.321 12.8003 190.695 12.9603 190.268 13.2803C189.868 13.6003 189.668 14.0269 189.668 14.5603C189.668 15.0936 189.935 15.5336 190.468 15.8803C191.001 16.2003 191.615 16.4803 192.308 16.7203C193.001 16.9603 193.455 17.1203 193.668 17.2003C195.348 17.8136 196.668 18.5603 197.628 19.4403C198.615 20.2936 199.108 21.5336 199.108 23.1603C199.108 24.3603 198.788 25.4403 198.148 26.4003C197.535 27.3336 196.628 28.0803 195.428 28.6403C194.228 29.2003 192.788 29.4803 191.108 29.4803Z" fill="#313131"/>
<path d="M211.936 29.4803C209.643 29.4803 207.963 28.8269 206.896 27.5203C205.83 26.1869 205.296 24.3336 205.296 21.9603V13.5203H202.536V9.44028L205.576 9.20027L206.216 3.92027H210.736V9.20027H215.576V13.5203H210.736V21.9203C210.736 24.0803 211.616 25.1603 213.376 25.1603C213.936 25.1603 214.59 25.0269 215.336 24.7603L216.216 28.7603C214.776 29.2403 213.35 29.4803 211.936 29.4803Z" fill="#313131"/>
<path d="M225.636 29.4803C223.876 29.4803 222.449 28.9203 221.356 27.8003C220.289 26.6803 219.756 25.2669 219.756 23.5603C219.756 21.4536 220.649 19.8269 222.436 18.6803C224.223 17.5069 227.089 16.7069 231.036 16.2803C230.956 14.1469 229.863 13.0803 227.756 13.0803C226.929 13.0803 226.089 13.2403 225.236 13.5603C224.383 13.8803 223.449 14.3336 222.436 14.9203L220.476 11.3203C223.276 9.58694 226.049 8.72027 228.796 8.72027C231.329 8.72027 233.249 9.46694 234.556 10.9603C235.863 12.4269 236.516 14.6269 236.516 17.5603V29.0003H232.036L231.636 26.9203H231.516C229.543 28.6269 227.583 29.4803 225.636 29.4803ZM227.436 25.2403C228.103 25.2403 228.703 25.0936 229.236 24.8003C229.796 24.4803 230.396 24.0136 231.036 23.4003V19.6003C228.876 19.8936 227.329 20.3336 226.396 20.9203C225.463 21.5069 224.996 22.2403 224.996 23.1203C224.996 23.8136 225.209 24.3469 225.636 24.7203C226.063 25.0669 226.663 25.2403 227.436 25.2403Z" fill="#313131"/>
<path d="M243.693 9.20027H248.133L248.533 11.7603H248.693C249.653 10.8269 250.639 10.0936 251.653 9.56027C252.693 9.00027 253.839 8.72027 255.093 8.72027C257.173 8.72027 258.706 9.41361 259.693 10.8003C260.706 12.1603 261.213 14.1203 261.213 16.6803V29.0003H255.733V17.3603C255.733 15.8936 255.519 14.8669 255.093 14.2803C254.693 13.6936 254.026 13.4003 253.093 13.4003C252.346 13.4003 251.693 13.5603 251.133 13.8803C250.573 14.2003 249.906 14.7336 249.133 15.4803V29.0003H243.693V9.20027Z" fill="#313131"/>
<path d="M275.827 29.4803C273.534 29.4803 271.854 28.8269 270.787 27.5203C269.72 26.1869 269.187 24.3336 269.187 21.9603V13.5203H266.427V9.44028L269.467 9.20027L270.107 3.92027H274.627V9.20027H279.467V13.5203H274.627V21.9203C274.627 24.0803 275.507 25.1603 277.267 25.1603C277.827 25.1603 278.48 25.0269 279.227 24.7603L280.107 28.7603C278.667 29.2403 277.24 29.4803 275.827 29.4803Z" fill="#313131"/>
<path d="M35.0924 107.3C33.9924 107.3 33.1007 106.95 32.4174 106.25C31.7507 105.55 31.4174 104.667 31.4174 103.6C31.4174 102.284 31.9757 101.267 33.0924 100.55C34.2091 99.8169 36.0007 99.3169 38.4674 99.0503C38.4174 97.7169 37.7341 97.0503 36.4174 97.0503C35.9007 97.0503 35.3757 97.1503 34.8424 97.3503C34.3091 97.5503 33.7257 97.8336 33.0924 98.2003L31.8674 95.9503C33.6174 94.8669 35.3507 94.3253 37.0674 94.3253C38.6507 94.3253 39.8507 94.7919 40.6674 95.7253C41.4841 96.6419 41.8924 98.0169 41.8924 99.8503V107H39.0924L38.8424 105.7H38.7674C37.534 106.767 36.3091 107.3 35.0924 107.3ZM36.2174 104.65C36.6341 104.65 37.0091 104.559 37.3424 104.375C37.6924 104.175 38.0674 103.884 38.4674 103.5V101.125C37.1174 101.309 36.1507 101.584 35.5674 101.95C34.984 102.317 34.6924 102.775 34.6924 103.325C34.6924 103.759 34.8257 104.092 35.0924 104.325C35.3591 104.542 35.7341 104.65 36.2174 104.65Z" fill="#313131"/>
<path d="M51.4527 107.3C50.8861 107.3 50.3194 107.167 49.7527 106.9C49.2027 106.617 48.6777 106.209 48.1777 105.675H48.0777L47.8027 107H45.1277V89.4253H48.5277V93.8003L48.4527 95.7503C48.9527 95.3169 49.4861 94.9753 50.0527 94.7253C50.6361 94.4586 51.2194 94.3253 51.8027 94.3253C53.3027 94.3253 54.4861 94.8919 55.3527 96.0253C56.2361 97.1586 56.6777 98.6836 56.6777 100.6C56.6777 101.967 56.4361 103.159 55.9527 104.175C55.4694 105.192 54.8277 105.967 54.0277 106.5C53.2277 107.034 52.3694 107.3 51.4527 107.3ZM50.6777 104.5C51.4111 104.5 52.0111 104.175 52.4777 103.525C52.9444 102.875 53.1777 101.917 53.1777 100.65C53.1777 98.3003 52.4027 97.1253 50.8527 97.1253C50.0861 97.1253 49.3111 97.5253 48.5277 98.3253V103.625C49.1777 104.209 49.8944 104.5 50.6777 104.5Z" fill="#313131"/>
<path d="M64.6855 107.3C63.5355 107.3 62.5022 107.042 61.5855 106.525C60.6689 106.009 59.9439 105.267 59.4105 104.3C58.8939 103.317 58.6355 102.159 58.6355 100.825C58.6355 99.4919 58.9189 98.3336 59.4855 97.3503C60.0689 96.3669 60.8439 95.6169 61.8105 95.1003C62.7772 94.5836 63.8355 94.3253 64.9855 94.3253C66.3355 94.3253 67.5439 94.7753 68.6105 95.6753L66.9855 97.8753C66.6689 97.6086 66.3689 97.4169 66.0855 97.3003C65.8022 97.1669 65.5022 97.1003 65.1855 97.1003C64.2689 97.1003 63.5272 97.4419 62.9605 98.1253C62.4105 98.7919 62.1355 99.6919 62.1355 100.825C62.1355 101.942 62.4022 102.842 62.9355 103.525C63.4855 104.192 64.1939 104.525 65.0605 104.525C65.8105 104.525 66.5939 104.209 67.4105 103.575L68.7605 105.8C68.1772 106.3 67.5272 106.675 66.8105 106.925C66.1105 107.175 65.4022 107.3 64.6855 107.3Z" fill="#313131"/>
<path d="M74.7225 107.3C73.1725 107.3 71.9391 106.725 71.0225 105.575C70.1225 104.425 69.6725 102.842 69.6725 100.825C69.6725 99.5253 69.9141 98.3836 70.3975 97.4003C70.8808 96.4169 71.5141 95.6586 72.2975 95.1253C73.0975 94.5919 73.9391 94.3253 74.8225 94.3253C75.4725 94.3253 76.0308 94.4336 76.4975 94.6503C76.9641 94.8669 77.4391 95.2003 77.9225 95.6503L77.7975 93.7253V89.4253H81.2225V107H78.4225L78.1725 105.725H78.0975C77.6308 106.192 77.0975 106.575 76.4975 106.875C75.9141 107.159 75.3225 107.3 74.7225 107.3ZM75.5975 104.5C76.0308 104.5 76.4225 104.409 76.7725 104.225C77.1225 104.025 77.4641 103.717 77.7975 103.3V98.0003C77.1641 97.4169 76.4308 97.1253 75.5975 97.1253C74.9141 97.1253 74.3391 97.4419 73.8725 98.0753C73.4058 98.7086 73.1725 99.6086 73.1725 100.775C73.1725 102.009 73.3808 102.942 73.7975 103.575C74.2141 104.192 74.8141 104.5 75.5975 104.5Z" fill="#313131"/>
<path d="M94.8553 100.25C94.8553 100.884 94.8053 101.4 94.7053 101.8H87.0553C87.2219 102.784 87.6219 103.509 88.2553 103.975C88.9053 104.442 89.6553 104.675 90.5053 104.675C91.3886 104.675 92.3053 104.4 93.2553 103.85L94.3803 105.925C93.7636 106.359 93.0719 106.7 92.3053 106.95C91.5553 107.184 90.8053 107.3 90.0553 107.3C88.8886 107.3 87.8303 107.042 86.8803 106.525C85.9469 106.009 85.2053 105.259 84.6553 104.275C84.1219 103.292 83.8553 102.142 83.8553 100.825C83.8553 99.5253 84.1219 98.3836 84.6553 97.4003C85.2053 96.4169 85.9219 95.6586 86.8053 95.1253C87.6886 94.5919 88.6303 94.3253 89.6303 94.3253C91.3136 94.3253 92.6053 94.8753 93.5053 95.9753C94.4053 97.0586 94.8553 98.4836 94.8553 100.25ZM91.9303 99.5253C91.9303 98.7253 91.7469 98.1003 91.3803 97.6503C91.0136 97.1836 90.4553 96.9503 89.7053 96.9503C89.0886 96.9503 88.5386 97.1669 88.0553 97.6003C87.5886 98.0169 87.2719 98.6586 87.1053 99.5253H91.9303Z" fill="#313131"/>
<path d="M102.775 91.8253C101.808 91.8253 101.325 92.4503 101.325 93.7003V94.6253H103.6V97.3253H101.325V107H97.9V97.3253H96.25V94.7753L97.9 94.6503V93.7753C97.9 92.3753 98.25 91.2503 98.95 90.4003C99.6667 89.5503 100.783 89.1253 102.3 89.1253C103.167 89.1253 103.967 89.2753 104.7 89.5753L104.075 92.1003C103.625 91.9169 103.192 91.8253 102.775 91.8253Z" fill="#313131"/>
<path d="M109.732 112.325C108.199 112.325 106.949 112.059 105.982 111.525C105.032 110.992 104.557 110.209 104.557 109.175C104.557 108.142 105.149 107.292 106.332 106.625V106.525C105.582 106.042 105.207 105.342 105.207 104.425C105.207 103.992 105.332 103.567 105.582 103.15C105.849 102.734 106.182 102.392 106.582 102.125V102.025C106.099 101.692 105.699 101.242 105.382 100.675C105.082 100.109 104.932 99.4836 104.932 98.8003C104.932 97.8669 105.157 97.0669 105.607 96.4003C106.074 95.7169 106.691 95.2003 107.457 94.8503C108.224 94.5003 109.057 94.3253 109.957 94.3253C110.591 94.3253 111.224 94.4253 111.857 94.6253H116.332V97.1253H114.257C114.407 97.3253 114.532 97.5919 114.632 97.9253C114.732 98.2419 114.782 98.5669 114.782 98.9003C114.782 100.25 114.332 101.284 113.432 102C112.532 102.717 111.374 103.075 109.957 103.075C109.441 103.075 108.924 102.992 108.407 102.825C108.241 102.975 108.116 103.125 108.032 103.275C107.949 103.409 107.907 103.592 107.907 103.825C107.907 104.142 108.049 104.384 108.332 104.55C108.632 104.717 109.124 104.8 109.807 104.8H111.882C113.416 104.8 114.574 105.05 115.357 105.55C116.141 106.05 116.532 106.842 116.532 107.925C116.532 108.759 116.249 109.509 115.682 110.175C115.132 110.859 114.341 111.384 113.307 111.75C112.291 112.134 111.099 112.325 109.732 112.325ZM109.957 101C110.507 101 110.949 100.809 111.282 100.425C111.632 100.042 111.807 99.5003 111.807 98.8003C111.807 98.1169 111.632 97.5919 111.282 97.2253C110.949 96.8419 110.507 96.6503 109.957 96.6503C109.407 96.6503 108.966 96.8419 108.632 97.2253C108.299 97.5919 108.132 98.1169 108.132 98.8003C108.132 99.4836 108.299 100.025 108.632 100.425C108.982 100.809 109.424 101 109.957 101ZM110.257 110.175C111.124 110.175 111.841 110.009 112.407 109.675C112.974 109.359 113.257 108.967 113.257 108.5C113.257 108.1 113.099 107.825 112.782 107.675C112.466 107.525 111.966 107.45 111.282 107.45H109.857C109.124 107.45 108.557 107.392 108.157 107.275C107.641 107.692 107.382 108.142 107.382 108.625C107.382 109.125 107.641 109.509 108.157 109.775C108.674 110.042 109.374 110.175 110.257 110.175Z" fill="#313131"/>
<path d="M118.614 89.4253H122.014V93.8003L121.864 96.1003C122.447 95.5503 123.047 95.1169 123.664 94.8003C124.281 94.4836 124.972 94.3253 125.739 94.3253C127.039 94.3253 127.997 94.7586 128.614 95.6253C129.247 96.4753 129.564 97.7003 129.564 99.3003V107H126.139V99.7253C126.139 98.8086 126.006 98.1669 125.739 97.8003C125.489 97.4336 125.072 97.2503 124.489 97.2503C124.022 97.2503 123.614 97.3503 123.264 97.5503C122.914 97.7503 122.497 98.0836 122.014 98.5503V107H118.614V89.4253Z" fill="#313131"/>
<path d="M132.799 94.6253H136.199V107H132.799V94.6253ZM134.499 92.7003C133.932 92.7003 133.465 92.5336 133.099 92.2003C132.749 91.8503 132.574 91.4086 132.574 90.8753C132.574 90.3419 132.749 89.9086 133.099 89.5753C133.465 89.2253 133.932 89.0503 134.499 89.0503C135.065 89.0503 135.524 89.2253 135.874 89.5753C136.24 89.9086 136.424 90.3419 136.424 90.8753C136.424 91.4086 136.24 91.8503 135.874 92.2003C135.524 92.5336 135.065 92.7003 134.499 92.7003Z" fill="#313131"/>
<path d="M141.36 92.7003C140.793 92.7003 140.327 92.5336 139.96 92.2003C139.61 91.8503 139.435 91.4086 139.435 90.8753C139.435 90.3419 139.61 89.9086 139.96 89.5753C140.327 89.2253 140.793 89.0503 141.36 89.0503C141.927 89.0503 142.385 89.2253 142.735 89.5753C143.102 89.9086 143.285 90.3419 143.285 90.8753C143.285 91.4086 143.102 91.8503 142.735 92.2003C142.385 92.5336 141.927 92.7003 141.36 92.7003ZM139.785 94.6253H143.21L143.16 107.15C143.16 108.617 142.827 109.792 142.16 110.675C141.51 111.559 140.427 112 138.91 112C138.077 112 137.368 111.884 136.785 111.65L137.385 109.125C137.802 109.242 138.143 109.3 138.41 109.3C138.91 109.3 139.26 109.134 139.46 108.8C139.66 108.484 139.76 107.967 139.76 107.25L139.785 94.6253Z" fill="#313131"/>
<path d="M146.446 89.4253H149.771V99.8003H149.871L153.996 94.6253H157.721L153.421 99.7003L158.071 107H154.371L151.471 102L149.771 103.925V107H146.446V89.4253Z" fill="#313131"/>
<path d="M163.098 107.3C161.981 107.3 161.173 106.959 160.673 106.275C160.173 105.592 159.923 104.625 159.923 103.375V89.4253H163.323V103.525C163.323 103.875 163.389 104.134 163.523 104.3C163.656 104.45 163.806 104.525 163.973 104.525C164.139 104.525 164.289 104.509 164.423 104.475L164.848 107.025C164.364 107.209 163.781 107.3 163.098 107.3Z" fill="#313131"/>
<path d="M166.954 94.6253H169.729L169.979 96.2503H170.079C170.679 95.6336 171.271 95.1586 171.854 94.8253C172.437 94.4919 173.096 94.3253 173.829 94.3253C174.696 94.3253 175.404 94.5086 175.954 94.8753C176.504 95.2253 176.937 95.7503 177.254 96.4503C177.887 95.7836 178.512 95.2669 179.129 94.9003C179.746 94.5169 180.421 94.3253 181.154 94.3253C182.454 94.3253 183.421 94.7586 184.054 95.6253C184.687 96.4919 185.004 97.7169 185.004 99.3003V107H181.604V99.7253C181.604 98.8253 181.471 98.1919 181.204 97.8253C180.954 97.4419 180.537 97.2503 179.954 97.2503C179.287 97.2503 178.529 97.6836 177.679 98.5503V107H174.279V99.7253C174.279 98.8253 174.146 98.1919 173.879 97.8253C173.629 97.4419 173.212 97.2503 172.629 97.2503C171.962 97.2503 171.204 97.6836 170.354 98.5503V107H166.954V94.6253Z" fill="#313131"/>
<path d="M188.267 94.6253H191.042L191.292 96.2253H191.392C191.992 95.6419 192.609 95.1836 193.242 94.8503C193.892 94.5003 194.609 94.3253 195.392 94.3253C196.692 94.3253 197.651 94.7586 198.267 95.6253C198.901 96.4753 199.217 97.7003 199.217 99.3003V107H195.792V99.7253C195.792 98.8086 195.659 98.1669 195.392 97.8003C195.142 97.4336 194.726 97.2503 194.142 97.2503C193.676 97.2503 193.267 97.3503 192.917 97.5503C192.567 97.7503 192.151 98.0836 191.667 98.5503V107H188.267V94.6253Z" fill="#313131"/>
<path d="M207.701 107.3C206.635 107.3 205.643 107.042 204.726 106.525C203.826 106.009 203.101 105.259 202.551 104.275C202.001 103.292 201.726 102.142 201.726 100.825C201.726 99.4919 202.001 98.3336 202.551 97.3503C203.101 96.3669 203.826 95.6169 204.726 95.1003C205.643 94.5836 206.635 94.3253 207.701 94.3253C208.751 94.3253 209.735 94.5836 210.651 95.1003C211.568 95.6169 212.301 96.3753 212.851 97.3753C213.401 98.3586 213.676 99.5086 213.676 100.825C213.676 102.142 213.401 103.292 212.851 104.275C212.301 105.259 211.568 106.009 210.651 106.525C209.735 107.042 208.751 107.3 207.701 107.3ZM207.701 104.525C208.485 104.525 209.093 104.2 209.526 103.55C209.96 102.884 210.176 101.975 210.176 100.825C210.176 99.6753 209.96 98.7669 209.526 98.1003C209.093 97.4336 208.485 97.1003 207.701 97.1003C206.901 97.1003 206.285 97.4336 205.851 98.1003C205.435 98.7669 205.226 99.6753 205.226 100.825C205.226 101.975 205.435 102.884 205.851 103.55C206.285 104.2 206.901 104.525 207.701 104.525Z" fill="#313131"/>
<path d="M216.295 94.6253H219.07L219.32 95.8753H219.42C219.936 95.4086 220.503 95.0336 221.12 94.7503C221.753 94.4669 222.378 94.3253 222.995 94.3253C224.495 94.3253 225.678 94.8919 226.545 96.0253C227.411 97.1586 227.845 98.6919 227.845 100.625C227.845 101.975 227.603 103.159 227.12 104.175C226.636 105.192 225.995 105.967 225.195 106.5C224.395 107.034 223.536 107.3 222.62 107.3C221.57 107.3 220.561 106.859 219.595 105.975L219.695 107.975V111.7H216.295V94.6253ZM221.845 104.5C222.578 104.5 223.178 104.175 223.645 103.525C224.111 102.875 224.345 101.917 224.345 100.65C224.345 98.3003 223.57 97.1253 222.02 97.1253C221.253 97.1253 220.478 97.5253 219.695 98.3253V103.625C220.361 104.209 221.078 104.5 221.845 104.5Z" fill="#313131"/>
<path d="M238.003 107.825L238.128 105.875C237.694 106.309 237.194 106.659 236.628 106.925C236.061 107.175 235.494 107.3 234.928 107.3C233.378 107.3 232.144 106.725 231.228 105.575C230.328 104.425 229.878 102.842 229.878 100.825C229.878 99.5253 230.119 98.3836 230.603 97.4003C231.086 96.4169 231.719 95.6586 232.503 95.1253C233.303 94.5919 234.144 94.3253 235.028 94.3253C235.694 94.3253 236.294 94.4503 236.828 94.7003C237.361 94.9336 237.878 95.3169 238.378 95.8503H238.453L238.753 94.6253H241.428V111.7H238.003V107.825ZM235.803 104.5C236.236 104.5 236.628 104.409 236.978 104.225C237.328 104.025 237.669 103.717 238.003 103.3V98.0003C237.369 97.4169 236.636 97.1253 235.803 97.1253C235.119 97.1253 234.544 97.4419 234.078 98.0753C233.611 98.7086 233.378 99.6086 233.378 100.775C233.378 102.009 233.586 102.942 234.003 103.575C234.419 104.192 235.019 104.5 235.803 104.5Z" fill="#313131"/>
<path d="M244.81 94.6253H247.585L247.835 96.8003H247.935C248.369 96.0003 248.894 95.3919 249.51 94.9753C250.144 94.5419 250.785 94.3253 251.435 94.3253C252.019 94.3253 252.502 94.4086 252.885 94.5753L252.31 97.5253C252.26 97.5086 252.11 97.4753 251.86 97.4253C251.61 97.3586 251.327 97.3253 251.01 97.3253C250.477 97.3253 249.96 97.5169 249.46 97.9003C248.96 98.2836 248.544 98.8836 248.21 99.7003V107H244.81V94.6253Z" fill="#313131"/>
<path d="M257.931 107.3C257.131 107.3 256.298 107.142 255.431 106.825C254.581 106.509 253.84 106.092 253.206 105.575L254.756 103.425C255.34 103.875 255.89 104.209 256.406 104.425C256.94 104.642 257.481 104.75 258.031 104.75C258.598 104.75 259.023 104.65 259.306 104.45C259.59 104.234 259.731 103.934 259.731 103.55C259.731 103.284 259.615 103.05 259.381 102.85C259.165 102.65 258.848 102.467 258.431 102.3C258.015 102.117 257.598 101.942 257.181 101.775C256.198 101.392 255.39 100.925 254.756 100.375C254.14 99.8086 253.831 99.0669 253.831 98.1503C253.831 97.0169 254.256 96.1003 255.106 95.4003C255.956 94.6836 257.081 94.3253 258.481 94.3253C260.015 94.3253 261.44 94.8419 262.756 95.8753L261.231 97.9253C260.248 97.2253 259.365 96.8753 258.581 96.8753C258.065 96.8753 257.673 96.9753 257.406 97.1753C257.156 97.3753 257.031 97.6419 257.031 97.9753C257.031 98.3086 257.198 98.5836 257.531 98.8003C257.865 99.0003 258.248 99.1753 258.681 99.3253C259.115 99.4753 259.398 99.5753 259.531 99.6253C260.581 100.009 261.406 100.475 262.006 101.025C262.623 101.559 262.931 102.334 262.931 103.35C262.931 104.1 262.731 104.775 262.331 105.375C261.948 105.959 261.381 106.425 260.631 106.775C259.881 107.125 258.981 107.3 257.931 107.3Z" fill="#313131"/>
<path d="M269.699 107.3C268.266 107.3 267.216 106.892 266.549 106.075C265.882 105.242 265.549 104.084 265.549 102.6V97.3253H263.824V94.7753L265.724 94.6253L266.124 91.3253H268.949V94.6253H271.974V97.3253H268.949V102.575C268.949 103.925 269.499 104.6 270.599 104.6C270.949 104.6 271.357 104.517 271.824 104.35L272.374 106.85C271.474 107.15 270.582 107.3 269.699 107.3Z" fill="#313131"/>
<path d="M278.173 107.3C276.873 107.3 275.907 106.875 275.273 106.025C274.657 105.159 274.348 103.925 274.348 102.325V94.6253H277.748V101.9C277.748 102.8 277.882 103.442 278.148 103.825C278.415 104.192 278.84 104.375 279.423 104.375C279.907 104.375 280.315 104.267 280.648 104.05C280.998 103.817 281.382 103.434 281.798 102.9V94.6253H285.198V107H282.423L282.173 105.25H282.073C281.507 105.917 280.915 106.425 280.298 106.775C279.682 107.125 278.973 107.3 278.173 107.3Z" fill="#313131"/>
<path d="M287.209 94.6253H290.659L292.384 100.65L293.359 104.425H293.459L294.459 100.65L296.184 94.6253H299.459L295.359 107H291.434L287.209 94.6253Z" fill="#313131"/>
<path d="M300.351 94.6253H303.751L305.051 100.575C305.068 100.659 305.193 101.425 305.426 102.875C305.459 103.175 305.526 103.625 305.626 104.225H305.726C306.009 102.609 306.259 101.392 306.476 100.575L307.926 94.6253H310.926L312.401 100.575C312.668 101.709 312.893 102.759 313.076 103.725L313.176 104.225H313.276L313.576 102.45C313.609 102.25 313.643 101.992 313.676 101.675C313.726 101.359 313.793 100.992 313.876 100.575L315.151 94.6253H318.326L315.301 107H311.301L310.051 101.775C309.734 100.125 309.509 98.9253 309.376 98.1753H309.276C309.009 99.7586 308.784 100.967 308.601 101.8L307.426 107H303.501L300.351 94.6253Z" fill="#313131"/>
<path d="M323.116 100.55L319.516 94.6253H323.166L324.366 96.7503C324.666 97.3669 325.024 98.0669 325.441 98.8503H325.541L326.041 97.6253L326.416 96.7503L327.366 94.6253H330.916L327.316 100.95L331.141 107H327.491L326.166 104.825L324.991 102.65H324.891C324.724 102.967 324.391 103.692 323.891 104.825L322.816 107H319.266L323.116 100.55Z" fill="#313131"/>
<path d="M334.096 111.925C333.496 111.925 332.921 111.842 332.371 111.675L332.996 109.05C333.346 109.167 333.63 109.225 333.846 109.225C334.946 109.225 335.696 108.625 336.096 107.425L336.296 106.725L331.496 94.6253H334.946L336.821 100.2C337.021 100.784 337.255 101.559 337.521 102.525C337.638 102.975 337.746 103.367 337.846 103.7H337.946C338.163 102.75 338.455 101.584 338.821 100.2L340.446 94.6253H343.721L339.371 107.275C338.771 108.875 338.08 110.05 337.296 110.8C336.513 111.55 335.446 111.925 334.096 111.925Z" fill="#313131"/>
<path d="M344.231 105.175L349.631 97.3253H344.831V94.6253H353.881V96.4503L348.481 104.3H354.056V107H344.231V105.175Z" fill="#313131"/>
<path d="M10.6449 140.925H5.51992L4.41992 145H0.919922L6.11992 128.675H10.1949L15.3699 145H11.7449L10.6449 140.925ZM9.94492 138.275L9.49492 136.6C9.29492 135.867 8.99492 134.717 8.59492 133.15L8.11992 131.3H8.01992C7.51992 133.45 7.07826 135.217 6.69492 136.6L6.24492 138.275H9.94492Z" fill="#313131"/>
<path d="M17.2289 128.675H22.7039C26.6706 128.675 28.6539 130.025 28.6539 132.725C28.6539 133.492 28.4539 134.209 28.0539 134.875C27.6539 135.542 27.1206 136 26.4539 136.25V136.35C27.3706 136.584 28.1039 137.025 28.6539 137.675C29.2039 138.309 29.4789 139.15 29.4789 140.2C29.4789 141.784 28.8956 142.984 27.7289 143.8C26.5622 144.6 25.0372 145 23.1539 145H17.2289V128.675ZM22.5039 135.275C23.4539 135.275 24.1539 135.1 24.6039 134.75C25.0706 134.384 25.3039 133.875 25.3039 133.225C25.3039 132.559 25.0789 132.075 24.6289 131.775C24.1789 131.475 23.4789 131.325 22.5289 131.325H20.6539V135.275H22.5039ZM22.8539 142.35C25.0372 142.35 26.1289 141.559 26.1289 139.975C26.1289 139.225 25.8539 138.684 25.3039 138.35C24.7706 138 23.9539 137.825 22.8539 137.825H20.6539V142.35H22.8539Z" fill="#313131"/>
<path d="M39.0174 145.3C37.6174 145.3 36.3424 144.975 35.1924 144.325C34.059 143.675 33.159 142.725 32.4924 141.475C31.8257 140.209 31.4924 138.692 31.4924 136.925C31.4924 135.175 31.8341 133.659 32.5174 132.375C33.2007 131.075 34.1257 130.084 35.2924 129.4C36.4591 128.717 37.734 128.375 39.1174 128.375C40.1007 128.375 41.0007 128.575 41.8174 128.975C42.6507 129.359 43.3674 129.859 43.9674 130.475L42.1424 132.675C41.6924 132.242 41.2257 131.917 40.7424 131.7C40.2757 131.467 39.759 131.35 39.1924 131.35C38.3924 131.35 37.6757 131.575 37.0424 132.025C36.4091 132.459 35.909 133.092 35.5424 133.925C35.1924 134.742 35.0174 135.7 35.0174 136.8C35.0174 138.517 35.384 139.867 36.1174 140.85C36.8674 141.834 37.8757 142.325 39.1424 142.325C40.3924 142.325 41.4841 141.8 42.4174 140.75L44.2424 142.9C42.8757 144.5 41.1341 145.3 39.0174 145.3Z" fill="#313131"/>
<path d="M46.7943 128.675H51.3193C53.886 128.675 55.8777 129.35 57.2943 130.7C58.7277 132.05 59.4443 134.075 59.4443 136.775C59.4443 139.475 58.736 141.525 57.3193 142.925C55.9193 144.309 53.986 145 51.5193 145H46.7943V128.675ZM51.1193 142.225C54.3193 142.225 55.9193 140.409 55.9193 136.775C55.9193 134.892 55.5027 133.534 54.6693 132.7C53.8527 131.867 52.6693 131.45 51.1193 131.45H50.2193V142.225H51.1193Z" fill="#313131"/>
<path d="M62.5902 128.675H72.6902V131.55H66.0152V135.125H71.6902V138H66.0152V142.125H72.9402V145H62.5902V128.675Z" fill="#313131"/>
<path d="M76.2133 128.675H86.3633V131.55H79.6383V135.625H85.3883V138.5H79.6383V145H76.2133V128.675Z" fill="#313131"/>
<path d="M96.033 145.3C94.5163 145.3 93.158 144.975 91.958 144.325C90.7747 143.675 89.8413 142.725 89.158 141.475C88.4747 140.209 88.133 138.692 88.133 136.925C88.133 135.175 88.483 133.659 89.183 132.375C89.883 131.075 90.8247 130.084 92.008 129.4C93.208 128.717 94.5413 128.375 96.008 128.375C97.9913 128.375 99.683 129.075 101.083 130.475L99.283 132.675C98.8163 132.242 98.333 131.917 97.833 131.7C97.3497 131.467 96.783 131.35 96.133 131.35C94.783 131.35 93.6997 131.842 92.883 132.825C92.0663 133.792 91.658 135.117 91.658 136.8C91.658 138.567 92.058 139.934 92.858 140.9C93.658 141.85 94.833 142.325 96.383 142.325C96.7497 142.325 97.108 142.275 97.458 142.175C97.808 142.075 98.0913 141.942 98.308 141.775V138.725H95.483V135.925H101.358V143.325C100.758 143.909 99.9913 144.384 99.058 144.75C98.1247 145.117 97.1163 145.3 96.033 145.3Z" fill="#313131"/>
<path d="M104.802 128.675H108.227V135.05H114.177V128.675H117.602V145H114.177V138.05H108.227V145H104.802V128.675Z" fill="#313131"/>
<path d="M121.55 128.675H124.975V145H121.55V128.675Z" fill="#313131"/>
<path d="M132.548 145.3C131.348 145.3 130.332 145.067 129.498 144.6C128.665 144.117 127.973 143.384 127.423 142.4L129.748 140.675C130.348 141.775 131.14 142.325 132.123 142.325C132.84 142.325 133.373 142.1 133.723 141.65C134.073 141.2 134.248 140.442 134.248 139.375V128.675H137.673V139.675C137.673 141.325 137.24 142.675 136.373 143.725C135.507 144.775 134.232 145.3 132.548 145.3Z" fill="#313131"/>
<path d="M141.521 128.675H144.946V135.6H145.046L150.221 128.675H153.996L149.021 135.15L154.871 145H151.121L146.996 137.85L144.946 140.5V145H141.521V128.675Z" fill="#313131"/>
<path d="M156.755 128.675H160.18V142.125H166.73V145H156.755V128.675Z" fill="#313131"/>
<path d="M169.573 128.675H173.348L176.073 136.175C176.323 136.892 176.539 137.575 176.723 138.225L177.048 139.25H177.148L177.598 137.825C177.864 136.925 178.039 136.375 178.123 136.175L180.773 128.675H184.548V145H181.423V138.525C181.423 137.609 181.531 136.125 181.748 134.075L181.848 133.1H181.748L180.423 136.925L177.998 143.55H176.048L173.623 136.925L172.323 133.1H172.223L172.323 134.075C172.539 136.125 172.648 137.609 172.648 138.525V145H169.573V128.675Z" fill="#313131"/>
<path d="M188.494 128.675H192.019L196.544 137.15L198.169 140.7H198.269C198.252 140.417 198.21 139.975 198.144 139.375C197.944 137.442 197.844 135.942 197.844 134.875V128.675H201.094V145H197.594L193.069 136.525L191.419 132.975H191.319C191.335 133.175 191.377 133.55 191.444 134.1C191.527 134.867 191.602 135.675 191.669 136.525C191.735 137.359 191.769 138.1 191.769 138.75V145H188.494V128.675Z" fill="#313131"/>
<path d="M211.596 145.3C210.146 145.3 208.863 144.959 207.746 144.275C206.646 143.592 205.788 142.609 205.171 141.325C204.555 140.025 204.246 138.509 204.246 136.775C204.246 135.025 204.555 133.525 205.171 132.275C205.788 131.009 206.646 130.042 207.746 129.375C208.863 128.709 210.146 128.375 211.596 128.375C213.046 128.375 214.321 128.709 215.421 129.375C216.538 130.042 217.396 131.009 217.996 132.275C218.613 133.542 218.921 135.042 218.921 136.775C218.921 138.509 218.613 140.025 217.996 141.325C217.396 142.609 216.538 143.592 215.421 144.275C214.321 144.959 213.046 145.3 211.596 145.3ZM211.596 142.325C212.763 142.325 213.688 141.825 214.371 140.825C215.071 139.825 215.421 138.475 215.421 136.775C215.421 135.092 215.071 133.767 214.371 132.8C213.688 131.834 212.763 131.35 211.596 131.35C210.413 131.35 209.48 131.834 208.796 132.8C208.113 133.75 207.771 135.075 207.771 136.775C207.771 138.475 208.113 139.825 208.796 140.825C209.496 141.825 210.43 142.325 211.596 142.325Z" fill="#313131"/>
<path d="M222.063 128.675H227.513C229.48 128.675 231.038 129.084 232.188 129.9C233.355 130.7 233.938 132.017 233.938 133.85C233.938 135.65 233.346 137.009 232.163 137.925C230.98 138.842 229.463 139.3 227.613 139.3H225.488V145H222.063V128.675ZM227.388 136.575C229.521 136.575 230.588 135.667 230.588 133.85C230.588 132.984 230.313 132.359 229.763 131.975C229.23 131.592 228.405 131.4 227.288 131.4H225.488V136.575H227.388Z" fill="#313131"/>
<path d="M251.508 148.975C251.208 149.125 250.808 149.242 250.308 149.325C249.824 149.425 249.291 149.475 248.708 149.475C247.074 149.475 245.666 149.084 244.483 148.3C243.299 147.517 242.416 146.467 241.833 145.15C240.066 144.8 238.658 143.892 237.608 142.425C236.574 140.942 236.058 139.059 236.058 136.775C236.058 135.025 236.366 133.525 236.983 132.275C237.599 131.009 238.458 130.042 239.558 129.375C240.674 128.709 241.958 128.375 243.408 128.375C244.858 128.375 246.133 128.709 247.233 129.375C248.349 130.042 249.208 131.009 249.808 132.275C250.424 133.542 250.733 135.042 250.733 136.775C250.733 138.959 250.258 140.775 249.308 142.225C248.374 143.659 247.091 144.6 245.458 145.05C245.808 145.617 246.308 146.034 246.958 146.3C247.608 146.584 248.324 146.725 249.108 146.725C249.724 146.725 250.324 146.634 250.908 146.45L251.508 148.975ZM239.583 136.775C239.583 138.559 239.924 139.959 240.608 140.975C241.291 141.992 242.224 142.5 243.408 142.5C244.574 142.5 245.499 141.992 246.183 140.975C246.883 139.959 247.233 138.559 247.233 136.775C247.233 135.092 246.883 133.767 246.183 132.8C245.499 131.834 244.574 131.35 243.408 131.35C242.224 131.35 241.291 131.834 240.608 132.8C239.924 133.75 239.583 135.075 239.583 136.775Z" fill="#313131"/>
<path d="M262.724 145L259.474 138.95H257.299V145H253.874V128.675H259.624C261.524 128.675 263.033 129.067 264.149 129.85C265.266 130.617 265.824 131.892 265.824 133.675C265.824 134.842 265.558 135.825 265.024 136.625C264.491 137.409 263.749 137.992 262.799 138.375L266.574 145H262.724ZM257.299 136.225H259.324C260.358 136.225 261.141 136.017 261.674 135.6C262.208 135.167 262.474 134.525 262.474 133.675C262.474 132.859 262.216 132.275 261.699 131.925C261.183 131.575 260.391 131.4 259.324 131.4H257.299V136.225Z" fill="#313131"/>
<path d="M273.594 145.3C272.494 145.3 271.419 145.1 270.369 144.7C269.319 144.284 268.394 143.692 267.594 142.925L269.569 140.575C270.169 141.109 270.828 141.534 271.544 141.85C272.278 142.167 272.986 142.325 273.669 142.325C274.469 142.325 275.078 142.175 275.494 141.875C275.928 141.559 276.144 141.125 276.144 140.575C276.144 140.225 276.044 139.934 275.844 139.7C275.661 139.467 275.419 139.275 275.119 139.125C274.836 138.975 274.369 138.767 273.719 138.5L271.569 137.575C270.603 137.175 269.811 136.617 269.194 135.9C268.578 135.167 268.269 134.25 268.269 133.15C268.269 132.267 268.511 131.467 268.994 130.75C269.494 130.017 270.178 129.442 271.044 129.025C271.911 128.592 272.886 128.375 273.969 128.375C274.919 128.375 275.853 128.567 276.769 128.95C277.686 129.317 278.478 129.834 279.144 130.5L277.419 132.675C276.853 132.225 276.294 131.892 275.744 131.675C275.194 131.459 274.603 131.35 273.969 131.35C273.286 131.35 272.744 131.492 272.344 131.775C271.944 132.059 271.744 132.45 271.744 132.95C271.744 133.3 271.844 133.592 272.044 133.825C272.261 134.059 272.519 134.25 272.819 134.4C273.136 134.55 273.619 134.759 274.269 135.025L276.369 135.875C277.419 136.309 278.228 136.884 278.794 137.6C279.361 138.3 279.644 139.2 279.644 140.3C279.644 141.217 279.403 142.059 278.919 142.825C278.436 143.575 277.736 144.175 276.819 144.625C275.903 145.075 274.828 145.3 273.594 145.3Z" fill="#313131"/>
<path d="M285.2 131.55H280.65V128.675H293.2V131.55H288.625V145H285.2V131.55Z" fill="#313131"/>
<path d="M302.118 145.3C300.035 145.3 298.443 144.675 297.343 143.425C296.26 142.175 295.718 140.225 295.718 137.575V128.675H299.143V137.9C299.143 139.484 299.393 140.617 299.893 141.3C300.393 141.984 301.135 142.325 302.118 142.325C303.118 142.325 303.877 141.984 304.393 141.3C304.91 140.617 305.168 139.484 305.168 137.9V128.675H308.468V137.575C308.468 140.225 307.927 142.175 306.843 143.425C305.777 144.675 304.202 145.3 302.118 145.3Z" fill="#313131"/>
<path d="M310.026 128.675H313.651L315.726 136.475C315.976 137.375 316.201 138.25 316.401 139.1C316.934 141.2 317.159 142.084 317.076 141.75H317.176C317.259 141.45 317.542 140.359 318.026 138.475L318.526 136.475L320.576 128.675H324.076L319.101 145H315.001L310.026 128.675Z" fill="#313131"/>
<path d="M324.296 128.675H327.821L329.046 136.5L329.746 141.675H329.846L330.846 136.5L332.696 128.675H335.621L337.446 136.5L338.471 141.675H338.571C338.888 139.225 339.121 137.5 339.271 136.5L340.496 128.675H343.771L340.796 145H336.496L334.771 137.2C334.504 135.95 334.279 134.692 334.096 133.425H333.996L333.796 134.575C333.596 135.742 333.429 136.617 333.296 137.2L331.621 145H327.396L324.296 128.675Z" fill="#313131"/>
<path d="M348.986 136.6L344.711 128.675H348.536L350.086 131.95C350.236 132.25 350.494 132.8 350.861 133.6L351.286 134.525H351.386C351.619 133.875 351.969 133.017 352.436 131.95L353.886 128.675H357.536L353.261 136.75L357.811 145H353.986L352.261 141.5C351.944 140.884 351.527 139.992 351.011 138.825H350.911C350.711 139.309 350.327 140.2 349.761 141.5L348.086 145H344.436L348.986 136.6Z" fill="#313131"/>
<path d="M362.851 139.1L357.926 128.675H361.601L363.176 132.575L364.526 136.175H364.626C364.692 136.025 364.759 135.867 364.826 135.7C364.892 135.534 364.967 135.35 365.051 135.15C365.451 134.134 365.784 133.275 366.051 132.575L367.626 128.675H371.201L366.276 139.1V145H362.851V139.1Z" fill="#313131"/>
<path d="M371.355 142.925L378.805 131.55H372.055V128.675H383.03V130.75L375.58 142.125H383.08V145H371.355V142.925Z" fill="#313131"/>
<path d="M33.84 69.3003C32.7067 69.3003 31.715 68.9836 30.865 68.3503C30.0317 67.7003 29.3817 66.7503 28.915 65.5003C28.465 64.2503 28.24 62.7419 28.24 60.9753C28.24 58.3419 28.74 56.3253 29.74 54.9253C30.74 53.5086 32.1067 52.8003 33.84 52.8003C35.5567 52.8003 36.915 53.5086 37.915 54.9253C38.915 56.3253 39.415 58.3419 39.415 60.9753C39.415 62.7419 39.1817 64.2503 38.715 65.5003C38.265 66.7503 37.6234 67.7003 36.79 68.3503C35.9567 68.9836 34.9734 69.3003 33.84 69.3003ZM33.84 66.6503C34.5734 66.6503 35.1484 66.2253 35.565 65.3753C35.9817 64.5086 36.19 63.0419 36.19 60.9753C36.19 58.9419 35.9817 57.5169 35.565 56.7003C35.1484 55.8669 34.5734 55.4503 33.84 55.4503C33.09 55.4503 32.5067 55.8586 32.09 56.6753C31.69 57.4919 31.49 58.9253 31.49 60.9753C31.49 63.0419 31.6984 64.5086 32.115 65.3753C32.5317 66.2253 33.1067 66.6503 33.84 66.6503Z" fill="#313131"/>
<path d="M41.376 66.2253H44.876V56.6253H41.926V54.5003C42.7426 54.3503 43.451 54.1669 44.051 53.9503C44.651 53.7336 45.226 53.4503 45.776 53.1003H48.301V66.2253H51.326V69.0003H41.376V66.2253Z" fill="#313131"/>
<path d="M53.2645 67.0253C54.9978 65.3753 56.3145 64.0753 57.2145 63.1253C58.1311 62.1753 58.8645 61.2669 59.4145 60.4003C59.9645 59.5336 60.2395 58.7336 60.2395 58.0003C60.2395 57.2169 60.0311 56.6086 59.6145 56.1753C59.1978 55.7253 58.6145 55.5003 57.8645 55.5003C57.3311 55.5003 56.8311 55.6503 56.3645 55.9503C55.8978 56.2503 55.4311 56.6503 54.9645 57.1503L53.0895 55.3003C53.8895 54.4503 54.6895 53.8253 55.4895 53.4253C56.3061 53.0086 57.2561 52.8003 58.3395 52.8003C59.8895 52.8003 61.1395 53.2586 62.0895 54.1753C63.0395 55.0753 63.5145 56.2836 63.5145 57.8003C63.5145 59.0336 63.0561 60.3169 62.1395 61.6503C61.2228 62.9669 59.9061 64.5169 58.1895 66.3003C59.1561 66.1836 60.0478 66.1253 60.8645 66.1253H64.2895V69.0003H53.2645V67.0253Z" fill="#313131"/>
<path d="M71.4504 69.3003C69.1337 69.3003 67.3087 68.5503 65.9754 67.0503L67.5504 64.8753C68.6837 65.9753 69.8754 66.5253 71.1254 66.5253C71.9421 66.5253 72.5921 66.3503 73.0754 66.0003C73.5754 65.6336 73.8254 65.1253 73.8254 64.4753C73.8254 63.6753 73.5004 63.0753 72.8504 62.6753C72.2171 62.2753 71.0754 62.0753 69.4254 62.0753V59.6253C70.8254 59.6253 71.8171 59.4336 72.4004 59.0503C73.0004 58.6503 73.3004 58.0919 73.3004 57.3753C73.3004 56.7753 73.1171 56.3169 72.7504 56.0003C72.3837 55.6669 71.8754 55.5003 71.2254 55.5003C70.6587 55.5003 70.1337 55.6169 69.6504 55.8503C69.1837 56.0836 68.6921 56.4419 68.1754 56.9253L66.4504 54.8253C68.0171 53.4753 69.6587 52.8003 71.3754 52.8003C73.0087 52.8003 74.3087 53.1836 75.2754 53.9503C76.2421 54.7003 76.7254 55.7586 76.7254 57.1253C76.7254 58.7586 75.8337 59.9419 74.0504 60.6753V60.7753C75.0171 61.0586 75.7921 61.5336 76.3754 62.2003C76.9587 62.8503 77.2504 63.6753 77.2504 64.6753C77.2504 65.6253 76.9921 66.4503 76.4754 67.1503C75.9587 67.8503 75.2587 68.3836 74.3754 68.7503C73.4921 69.1169 72.5171 69.3003 71.4504 69.3003Z" fill="#313131"/>
<path d="M90.9613 65.1003H89.0613V69.0003H85.8863V65.1003H78.9613V62.7503L84.9363 53.1003H89.0613V62.5003H90.9613V65.1003ZM85.8863 62.5003V59.5753C85.8863 58.8753 85.928 57.7169 86.0113 56.1003H85.9113C85.7447 56.4503 85.3863 57.1669 84.8363 58.2503L84.6113 58.7003L82.2613 62.5003H85.8863Z" fill="#313131"/>
<path d="M97.6973 69.3003C95.4806 69.3003 93.6306 68.5586 92.1473 67.0753L93.6973 64.9003C94.8473 65.9836 96.0223 66.5253 97.2223 66.5253C98.0723 66.5253 98.7473 66.2919 99.2473 65.8253C99.7639 65.3586 100.022 64.7003 100.022 63.8503C100.022 63.0336 99.7806 62.3919 99.2973 61.9253C98.8139 61.4586 98.1806 61.2253 97.3973 61.2253C96.9306 61.2253 96.5306 61.2836 96.1973 61.4003C95.8806 61.5169 95.4723 61.7419 94.9723 62.0753L93.4223 61.0753L93.8723 53.1003H102.722V55.9753H96.8223L96.5473 59.2503C97.1973 58.9669 97.8223 58.8253 98.4223 58.8253C99.8723 58.8253 101.072 59.2503 102.022 60.1003C102.972 60.9336 103.447 62.1586 103.447 63.7753C103.447 64.9086 103.181 65.8919 102.647 66.7253C102.131 67.5586 101.431 68.2003 100.547 68.6503C99.6806 69.0836 98.7306 69.3003 97.6973 69.3003Z" fill="#313131"/>
<path d="M112.133 59.1003C113.55 59.1003 114.683 59.5169 115.533 60.3503C116.4 61.1669 116.833 62.3836 116.833 64.0003C116.833 65.0669 116.6 66.0003 116.133 66.8003C115.667 67.6003 115.033 68.2169 114.233 68.6503C113.45 69.0836 112.583 69.3003 111.633 69.3003C110.567 69.3003 109.583 69.0169 108.683 68.4503C107.783 67.8836 107.058 67.0169 106.508 65.8503C105.975 64.6669 105.708 63.2003 105.708 61.4503C105.708 59.5336 106 57.9253 106.583 56.6253C107.167 55.3253 107.942 54.3669 108.908 53.7503C109.875 53.1169 110.933 52.8003 112.083 52.8003C113.033 52.8003 113.883 52.9753 114.633 53.3253C115.383 53.6753 116.033 54.1253 116.583 54.6753L114.783 56.7253C114.483 56.3919 114.1 56.1169 113.633 55.9003C113.183 55.6836 112.733 55.5753 112.283 55.5753C111.283 55.5753 110.475 55.9919 109.858 56.8253C109.242 57.6586 108.9 59.0086 108.833 60.8753C109.25 60.3253 109.767 59.8919 110.383 59.5753C111 59.2586 111.583 59.1003 112.133 59.1003ZM111.583 66.7253C112.2 66.7253 112.708 66.4919 113.108 66.0253C113.508 65.5586 113.708 64.8836 113.708 64.0003C113.708 63.1669 113.508 62.5503 113.108 62.1503C112.708 61.7336 112.167 61.5253 111.483 61.5253C111.017 61.5253 110.558 61.6586 110.108 61.9253C109.675 62.1919 109.283 62.6169 108.933 63.2003C109.083 64.4336 109.392 65.3336 109.858 65.9003C110.325 66.4503 110.9 66.7253 111.583 66.7253Z" fill="#313131"/>
<path d="M121.794 69.0003C121.944 66.2169 122.327 63.8669 122.944 61.9503C123.561 60.0169 124.611 58.0253 126.094 55.9753H118.844V53.1003H129.769V55.2003C128.552 56.6669 127.636 58.0503 127.019 59.3503C126.419 60.6503 125.994 62.0169 125.744 63.4503C125.511 64.8669 125.344 66.7169 125.244 69.0003H121.794Z" fill="#313131"/>
<path d="M137.355 69.3003C136.322 69.3003 135.388 69.1169 134.555 68.7503C133.722 68.3669 133.063 67.8503 132.58 67.2003C132.113 66.5336 131.88 65.7753 131.88 64.9253C131.88 63.2753 132.797 61.9586 134.63 60.9753V60.8753C133.197 59.8253 132.48 58.5836 132.48 57.1503C132.48 55.8336 132.947 54.7836 133.88 54.0003C134.813 53.2003 136.013 52.8003 137.48 52.8003C138.913 52.8003 140.063 53.2003 140.93 54.0003C141.813 54.7836 142.255 55.8336 142.255 57.1503C142.255 57.8669 142.055 58.5336 141.655 59.1503C141.255 59.7669 140.755 60.2753 140.155 60.6753V60.7753C141.005 61.2419 141.672 61.8086 142.155 62.4753C142.655 63.1253 142.905 63.9419 142.905 64.9253C142.905 65.7419 142.672 66.4836 142.205 67.1503C141.738 67.8169 141.08 68.3419 140.23 68.7253C139.397 69.1086 138.438 69.3003 137.355 69.3003ZM138.38 59.8503C139.097 59.0503 139.455 58.2253 139.455 57.3753C139.455 56.7086 139.272 56.1836 138.905 55.8003C138.538 55.4003 138.038 55.2003 137.405 55.2003C136.855 55.2003 136.397 55.3753 136.03 55.7253C135.68 56.0586 135.505 56.5336 135.505 57.1503C135.505 57.7836 135.738 58.3003 136.205 58.7003C136.688 59.0836 137.413 59.4669 138.38 59.8503ZM137.43 66.9003C138.113 66.9003 138.663 66.7169 139.08 66.3503C139.497 65.9836 139.705 65.4669 139.705 64.8003C139.705 64.3336 139.563 63.9336 139.28 63.6003C138.997 63.2669 138.63 62.9919 138.18 62.7753C137.747 62.5419 137.088 62.2419 136.205 61.8753C135.788 62.2253 135.455 62.6336 135.205 63.1003C134.955 63.5669 134.83 64.0503 134.83 64.5503C134.83 65.2503 135.08 65.8169 135.58 66.2503C136.08 66.6836 136.697 66.9003 137.43 66.9003Z" fill="#313131"/>
<path d="M149.991 52.8003C151.058 52.8003 152.041 53.0836 152.941 53.6503C153.841 54.2169 154.558 55.0919 155.091 56.2753C155.641 57.4419 155.916 58.9003 155.916 60.6503C155.916 62.5669 155.624 64.1753 155.041 65.4753C154.458 66.7753 153.683 67.7419 152.716 68.3753C151.749 68.9919 150.691 69.3003 149.541 69.3003C148.591 69.3003 147.741 69.1253 146.991 68.7753C146.241 68.4253 145.591 67.9753 145.041 67.4253L146.841 65.3753C147.124 65.7086 147.491 65.9836 147.941 66.2003C148.408 66.4169 148.874 66.5253 149.341 66.5253C150.341 66.5253 151.149 66.1086 151.766 65.2753C152.383 64.4419 152.724 63.0919 152.791 61.2253C152.374 61.7753 151.858 62.2086 151.241 62.5253C150.624 62.8419 150.041 63.0003 149.491 63.0003C148.074 63.0003 146.933 62.5919 146.066 61.7753C145.216 60.9419 144.791 59.7169 144.791 58.1003C144.791 57.0336 145.024 56.1003 145.491 55.3003C145.958 54.5003 146.583 53.8836 147.366 53.4503C148.166 53.0169 149.041 52.8003 149.991 52.8003ZM150.141 60.5753C150.608 60.5753 151.058 60.4419 151.491 60.1753C151.941 59.9086 152.341 59.4836 152.691 58.9003C152.541 57.6669 152.233 56.7753 151.766 56.2253C151.299 55.6586 150.724 55.3753 150.041 55.3753C149.424 55.3753 148.916 55.6086 148.516 56.0753C148.116 56.5419 147.916 57.2169 147.916 58.1003C147.916 58.9503 148.108 59.5753 148.491 59.9753C148.891 60.3753 149.441 60.5753 150.141 60.5753Z" fill="#313131"/>
<path d="M164.557 55.4003L164.457 52.2503H167.882L167.757 55.4003L167.282 63.3503H165.032L164.557 55.4003ZM166.157 69.3003C165.557 69.3003 165.057 69.0919 164.657 68.6753C164.257 68.2586 164.057 67.7336 164.057 67.1003C164.057 66.4669 164.257 65.9419 164.657 65.5253C165.057 65.1086 165.557 64.9003 166.157 64.9003C166.757 64.9003 167.257 65.1086 167.657 65.5253C168.057 65.9419 168.257 66.4669 168.257 67.1003C168.257 67.7336 168.057 68.2586 167.657 68.6753C167.257 69.0919 166.757 69.3003 166.157 69.3003Z" fill="#313131"/>
<path d="M180.908 73.2253C179.191 73.2253 177.624 72.8753 176.208 72.1753C174.791 71.4753 173.658 70.4169 172.808 69.0003C171.958 67.6003 171.533 65.8919 171.533 63.8753C171.533 61.6253 172.033 59.6253 173.033 57.8753C174.049 56.1253 175.408 54.7669 177.108 53.8003C178.808 52.8336 180.666 52.3503 182.683 52.3503C184.433 52.3503 185.966 52.7253 187.283 53.4753C188.616 54.2086 189.641 55.2419 190.358 56.5753C191.074 57.9086 191.433 59.4419 191.433 61.1753C191.433 62.6086 191.158 63.8419 190.608 64.8753C190.058 65.9086 189.349 66.6919 188.483 67.2253C187.633 67.7419 186.758 68.0003 185.858 68.0003C185.108 68.0003 184.474 67.8336 183.958 67.5003C183.441 67.1669 183.124 66.7003 183.008 66.1003H182.958C182.608 66.5836 182.149 66.9836 181.583 67.3003C181.016 67.6169 180.474 67.7753 179.958 67.7753C178.991 67.7753 178.208 67.4419 177.608 66.7753C177.008 66.0919 176.708 65.1836 176.708 64.0503C176.708 63.0503 176.924 62.0836 177.358 61.1503C177.808 60.2003 178.416 59.4336 179.183 58.8503C179.949 58.2669 180.791 57.9753 181.708 57.9753C182.591 57.9753 183.233 58.3836 183.633 59.2003H183.683L184.033 58.1753H186.133L185.033 63.6003C184.949 63.9169 184.908 64.2419 184.908 64.5753C184.908 65.4419 185.341 65.8753 186.208 65.8753C186.724 65.8753 187.216 65.6836 187.683 65.3003C188.149 64.9169 188.524 64.3753 188.808 63.6753C189.108 62.9586 189.258 62.1503 189.258 61.2503C189.258 59.9836 189.016 58.8419 188.533 57.8253C188.049 56.7919 187.291 55.9753 186.258 55.3753C185.241 54.7586 183.958 54.4503 182.408 54.4503C180.958 54.4503 179.574 54.8419 178.258 55.6253C176.941 56.4086 175.874 57.5086 175.058 58.9253C174.258 60.3419 173.858 61.9586 173.858 63.7753C173.858 65.3586 174.183 66.7086 174.833 67.8253C175.499 68.9253 176.383 69.7503 177.483 70.3003C178.599 70.8669 179.833 71.1503 181.183 71.1503C181.833 71.1503 182.499 71.0586 183.183 70.8753C183.866 70.6919 184.483 70.4503 185.033 70.1503L185.783 72.0253C184.333 72.8253 182.708 73.2253 180.908 73.2253ZM180.683 65.6003C180.966 65.6003 181.241 65.5086 181.508 65.3253C181.791 65.1419 182.099 64.8419 182.433 64.4253L183.058 60.9503C182.758 60.4336 182.341 60.1753 181.808 60.1753C181.324 60.1753 180.883 60.3669 180.483 60.7503C180.099 61.1336 179.799 61.6086 179.583 62.1753C179.383 62.7419 179.283 63.3003 179.283 63.8503C179.283 64.4336 179.408 64.8753 179.658 65.1753C179.908 65.4586 180.249 65.6003 180.683 65.6003Z" fill="#313131"/>
<path d="M195.396 64.2503H193.521V62.0503H195.646L195.996 59.1503H194.021V56.9503H196.271L196.821 52.7503H198.796L198.296 56.9503H200.996L201.521 52.7503H203.496L202.996 56.9503H204.971V59.1503H202.721L202.371 62.0503H204.471V64.2503H202.121L201.546 69.0003H199.521L200.096 64.2503H197.396L196.821 69.0003H194.821L195.396 64.2503ZM200.346 62.0503L200.721 59.1503H198.021L197.646 62.0503H200.346Z" fill="#313131"/>
<path d="M217.307 64.4253C217.307 65.6419 216.966 66.6753 216.282 67.5253C215.616 68.3586 214.666 68.9003 213.432 69.1503V71.7503H211.132V69.2503C210.349 69.1503 209.566 68.9419 208.782 68.6253C207.999 68.2919 207.324 67.8669 206.757 67.3503L208.257 65.0253C208.907 65.5253 209.524 65.9003 210.107 66.1503C210.691 66.4003 211.282 66.5253 211.882 66.5253C213.316 66.5253 214.032 65.9086 214.032 64.6753C214.032 64.1253 213.807 63.6753 213.357 63.3253C212.924 62.9586 212.241 62.5336 211.307 62.0503C210.474 61.6169 209.791 61.2253 209.257 60.8753C208.741 60.5253 208.299 60.0669 207.932 59.5003C207.566 58.9336 207.382 58.2586 207.382 57.4753C207.382 56.2753 207.716 55.2753 208.382 54.4753C209.049 53.6753 209.966 53.1586 211.132 52.9253V50.3503H213.432V52.8753C214.816 53.0753 216.041 53.7503 217.107 54.9003L215.382 56.8503C214.899 56.4169 214.441 56.1003 214.007 55.9003C213.591 55.6836 213.124 55.5753 212.607 55.5753C211.307 55.5753 210.657 56.1503 210.657 57.3003C210.657 57.8003 210.866 58.2086 211.282 58.5253C211.699 58.8419 212.341 59.2086 213.207 59.6253C214.057 60.0419 214.757 60.4336 215.307 60.8003C215.857 61.1503 216.324 61.6253 216.707 62.2253C217.107 62.8253 217.307 63.5586 217.307 64.4253Z" fill="#313131"/>
<path d="M223.518 62.3503C222.318 62.3503 221.343 61.8919 220.593 60.9753C219.86 60.0419 219.493 58.7669 219.493 57.1503C219.493 55.5503 219.86 54.2919 220.593 53.3753C221.343 52.4586 222.318 52.0003 223.518 52.0003C224.702 52.0003 225.66 52.4586 226.393 53.3753C227.143 54.2919 227.518 55.5503 227.518 57.1503C227.518 58.7503 227.143 60.0169 226.393 60.9503C225.66 61.8836 224.702 62.3503 223.518 62.3503ZM232.793 52.3753H234.793L225.943 69.3003H223.943L232.793 52.3753ZM223.518 60.4253C224.002 60.4253 224.385 60.1669 224.668 59.6503C224.968 59.1169 225.118 58.2836 225.118 57.1503C225.118 56.0336 224.968 55.2169 224.668 54.7003C224.385 54.1836 224.002 53.9253 223.518 53.9253C223.035 53.9253 222.643 54.1836 222.343 54.7003C222.043 55.2169 221.893 56.0336 221.893 57.1503C221.893 58.2669 222.043 59.0919 222.343 59.6253C222.643 60.1586 223.035 60.4253 223.518 60.4253ZM235.243 69.3003C234.06 69.3003 233.093 68.8336 232.343 67.9003C231.61 66.9669 231.243 65.7003 231.243 64.1003C231.243 62.5003 231.61 61.2419 232.343 60.3253C233.093 59.4086 234.06 58.9503 235.243 58.9503C236.443 58.9503 237.41 59.4086 238.143 60.3253C238.893 61.2419 239.268 62.5003 239.268 64.1003C239.268 65.7169 238.893 66.9919 238.143 67.9253C237.41 68.8419 236.443 69.3003 235.243 69.3003ZM235.243 67.3753C235.727 67.3753 236.118 67.1086 236.418 66.5753C236.718 66.0419 236.868 65.2169 236.868 64.1003C236.868 62.9836 236.718 62.1669 236.418 61.6503C236.118 61.1336 235.727 60.8753 235.243 60.8753C234.76 60.8753 234.368 61.1336 234.068 61.6503C233.785 62.1669 233.643 62.9836 233.643 64.1003C233.643 65.2169 233.785 66.0419 234.068 66.5753C234.368 67.1086 234.76 67.3753 235.243 67.3753Z" fill="#313131"/>
<path d="M245.087 52.2503H247.862L251.737 62.1003H248.912L247.687 58.7003L246.537 55.3253H246.437L245.287 58.7003L244.062 62.1003H241.237L245.087 52.2503Z" fill="#313131"/>
<path d="M268.197 69.3003C266.831 69.0169 265.464 68.4503 264.097 67.6003C262.614 68.7336 260.931 69.3003 259.047 69.3003C257.931 69.3003 256.964 69.0919 256.147 68.6753C255.331 68.2586 254.714 67.7003 254.297 67.0003C253.881 66.2836 253.672 65.5003 253.672 64.6503C253.672 63.6169 253.939 62.7419 254.472 62.0253C255.006 61.3086 255.747 60.6503 256.697 60.0503C256.014 58.7669 255.672 57.6086 255.672 56.5753C255.672 55.8086 255.847 55.1086 256.197 54.4753C256.564 53.8253 257.072 53.3169 257.722 52.9503C258.389 52.5669 259.156 52.3753 260.022 52.3753C261.206 52.3753 262.147 52.7086 262.847 53.3753C263.547 54.0253 263.897 54.9003 263.897 56.0003C263.897 56.9669 263.589 57.8086 262.972 58.5253C262.372 59.2253 261.522 59.9419 260.422 60.6753C261.339 61.8086 262.481 62.8836 263.847 63.9003C264.731 62.7169 265.381 61.3669 265.797 59.8503H268.922C268.272 61.9336 267.356 63.7919 266.172 65.4253C267.272 66.0419 268.222 66.4086 269.022 66.5253L268.197 69.3003ZM258.497 56.5753C258.497 57.2253 258.689 57.9169 259.072 58.6503C259.789 58.2336 260.331 57.8253 260.697 57.4253C261.081 57.0086 261.272 56.5336 261.272 56.0003C261.272 55.5836 261.172 55.2586 260.972 55.0253C260.772 54.7753 260.472 54.6503 260.072 54.6503C259.622 54.6503 259.247 54.8253 258.947 55.1753C258.647 55.5253 258.497 55.9919 258.497 56.5753ZM256.922 64.4503C256.922 65.1169 257.156 65.6586 257.622 66.0753C258.106 66.4753 258.722 66.6753 259.472 66.6753C260.206 66.6753 260.956 66.4253 261.722 65.9253C260.372 64.8253 259.189 63.6169 258.172 62.3003C257.772 62.6503 257.464 63.0003 257.247 63.3503C257.031 63.7003 256.922 64.0669 256.922 64.4503Z" fill="#313131"/>
<path d="M271.703 58.9253L273.153 56.4003L270.503 55.2003L271.053 53.5003L273.903 54.1003L274.203 51.2003H276.028L276.328 54.1253L279.153 53.5003L279.728 55.2003L277.053 56.4003L278.528 58.9253L277.078 60.0003L275.128 57.7753L273.153 60.0003L271.703 58.9253Z" fill="#313131"/>
<path d="M285.907 73.4753C284.823 71.6919 283.998 69.8753 283.432 68.0253C282.882 66.1753 282.607 64.1836 282.607 62.0503C282.607 59.9169 282.882 57.9253 283.432 56.0753C283.998 54.2253 284.823 52.4086 285.907 50.6253L288.032 51.5253C287.132 53.0919 286.457 54.7753 286.007 56.5753C285.574 58.3753 285.357 60.2003 285.357 62.0503C285.357 63.9003 285.574 65.7253 286.007 67.5253C286.457 69.3253 287.132 71.0086 288.032 72.5753L285.907 73.4753Z" fill="#313131"/>
<path d="M290.379 72.5753C291.279 71.0086 291.946 69.3253 292.379 67.5253C292.829 65.7253 293.054 63.9003 293.054 62.0503C293.054 60.2003 292.829 58.3753 292.379 56.5753C291.946 54.7753 291.279 53.0919 290.379 51.5253L292.504 50.6253C293.587 52.4086 294.404 54.2253 294.954 56.0753C295.521 57.9253 295.804 59.9169 295.804 62.0503C295.804 64.1836 295.521 66.1753 294.954 68.0253C294.404 69.8753 293.587 71.6919 292.504 73.4753L290.379 72.5753Z" fill="#313131"/>
<path d="M301.526 63.3503C301.493 63.0503 301.476 62.8336 301.476 62.7003C301.476 61.9503 301.643 61.2919 301.976 60.7253C302.31 60.1419 302.785 59.5003 303.401 58.8003C303.868 58.2669 304.201 57.8336 304.401 57.5003C304.618 57.1503 304.726 56.7919 304.726 56.4253C304.726 55.8919 304.56 55.4753 304.226 55.1753C303.91 54.8586 303.476 54.7003 302.926 54.7003C302.476 54.7003 302.06 54.8086 301.676 55.0253C301.31 55.2253 300.935 55.5169 300.551 55.9003L298.676 54.1753C299.276 53.4919 299.976 52.9503 300.776 52.5503C301.576 52.1503 302.435 51.9503 303.351 51.9503C304.751 51.9503 305.876 52.3086 306.726 53.0253C307.576 53.7419 308.001 54.7919 308.001 56.1753C308.001 56.8419 307.851 57.4336 307.551 57.9503C307.251 58.4503 306.801 59.0419 306.201 59.7253C305.635 60.3586 305.21 60.9086 304.926 61.3753C304.643 61.8419 304.501 62.3753 304.501 62.9753C304.501 63.1419 304.51 63.2669 304.526 63.3503H301.526ZM303.026 69.3003C302.426 69.3003 301.926 69.0919 301.526 68.6753C301.126 68.2586 300.926 67.7336 300.926 67.1003C300.926 66.4669 301.126 65.9419 301.526 65.5253C301.926 65.1086 302.426 64.9003 303.026 64.9003C303.626 64.9003 304.126 65.1086 304.526 65.5253C304.926 65.9419 305.126 66.4669 305.126 67.1003C305.126 67.7336 304.926 68.2586 304.526 68.6753C304.126 69.0919 303.626 69.3003 303.026 69.3003Z" fill="#313131"/>
<path d="M311.947 51.5753C312.664 51.5753 313.214 51.8419 313.597 52.3753C313.98 52.9086 314.172 53.6753 314.172 54.6753C314.172 56.9919 313.039 58.7253 310.772 59.8753L309.997 58.3753C310.747 57.9919 311.297 57.5503 311.647 57.0503C312.014 56.5503 312.197 55.9419 312.197 55.2253C312.147 55.2419 312.064 55.2503 311.947 55.2503C311.43 55.2503 310.997 55.0919 310.647 54.7753C310.297 54.4419 310.122 54.0169 310.122 53.5003C310.122 52.9169 310.289 52.4503 310.622 52.1003C310.972 51.7503 311.414 51.5753 311.947 51.5753Z" fill="#313131"/>
<path d="M319.247 51.5753C319.964 51.5753 320.514 51.8419 320.897 52.3753C321.28 52.9086 321.472 53.6753 321.472 54.6753C321.472 56.9919 320.339 58.7253 318.072 59.8753L317.297 58.3753C318.047 57.9919 318.597 57.5503 318.947 57.0503C319.314 56.5503 319.497 55.9419 319.497 55.2253C319.447 55.2419 319.364 55.2503 319.247 55.2503C318.73 55.2503 318.297 55.0919 317.947 54.7753C317.597 54.4419 317.422 54.0169 317.422 53.5003C317.422 52.9169 317.589 52.4503 317.922 52.1003C318.272 51.7503 318.714 51.5753 319.247 51.5753ZM324.922 51.5753C325.639 51.5753 326.189 51.8419 326.572 52.3753C326.955 52.9086 327.147 53.6753 327.147 54.6753C327.147 56.9919 326.014 58.7253 323.747 59.8753L322.972 58.3753C323.722 57.9919 324.272 57.5503 324.622 57.0503C324.989 56.5503 325.172 55.9419 325.172 55.2253C325.122 55.2419 325.039 55.2503 324.922 55.2503C324.405 55.2503 323.972 55.0919 323.622 54.7753C323.272 54.4419 323.097 54.0169 323.097 53.5003C323.097 52.9169 323.264 52.4503 323.597 52.1003C323.947 51.7503 324.389 51.5753 324.922 51.5753Z" fill="#313131"/>
<path d="M332.161 61.0503C331.561 61.0503 331.061 60.8419 330.661 60.4253C330.261 60.0086 330.061 59.4836 330.061 58.8503C330.061 58.2169 330.261 57.6919 330.661 57.2753C331.061 56.8586 331.561 56.6503 332.161 56.6503C332.761 56.6503 333.261 56.8586 333.661 57.2753C334.061 57.6919 334.261 58.2169 334.261 58.8503C334.261 59.4836 334.061 60.0086 333.661 60.4253C333.261 60.8419 332.761 61.0503 332.161 61.0503ZM332.261 64.9003C333.027 64.9003 333.619 65.1919 334.036 65.7753C334.469 66.3586 334.686 67.1753 334.686 68.2253C334.686 69.5586 334.311 70.7086 333.561 71.6753C332.827 72.6419 331.769 73.3419 330.386 73.7753L329.686 71.9253C330.552 71.6253 331.219 71.2003 331.686 70.6503C332.152 70.1169 332.386 69.5253 332.386 68.8753H332.186C331.602 68.8753 331.102 68.7003 330.686 68.3503C330.286 68.0003 330.086 67.5169 330.086 66.9003C330.086 66.3169 330.294 65.8419 330.711 65.4753C331.127 65.0919 331.644 64.9003 332.261 64.9003Z" fill="#313131"/>
<path d="M339.461 61.0503C338.861 61.0503 338.361 60.8419 337.961 60.4253C337.561 60.0086 337.361 59.4836 337.361 58.8503C337.361 58.2169 337.561 57.6919 337.961 57.2753C338.361 56.8586 338.861 56.6503 339.461 56.6503C340.061 56.6503 340.561 56.8586 340.961 57.2753C341.361 57.6919 341.561 58.2169 341.561 58.8503C341.561 59.4836 341.361 60.0086 340.961 60.4253C340.561 60.8419 340.061 61.0503 339.461 61.0503ZM339.461 69.3003C338.861 69.3003 338.361 69.0919 337.961 68.6753C337.561 68.2586 337.361 67.7336 337.361 67.1003C337.361 66.4669 337.561 65.9419 337.961 65.5253C338.361 65.1086 338.861 64.9003 339.461 64.9003C340.061 64.9003 340.561 65.1086 340.961 65.5253C341.361 65.9419 341.561 66.4669 341.561 67.1003C341.561 67.7336 341.361 68.2586 340.961 68.6753C340.561 69.0919 340.061 69.3003 339.461 69.3003Z" fill="#313131"/>
<path d="M346.86 64.9003C347.627 64.9003 348.219 65.1919 348.635 65.7753C349.069 66.3586 349.285 67.1753 349.285 68.2253C349.285 69.5586 348.91 70.7086 348.16 71.6753C347.427 72.6419 346.369 73.3419 344.985 73.7753L344.285 71.9253C345.152 71.6253 345.819 71.2003 346.285 70.6503C346.752 70.1169 346.985 69.5253 346.985 68.8753H346.785C346.202 68.8753 345.702 68.7003 345.285 68.3503C344.885 68.0003 344.685 67.5169 344.685 66.9003C344.685 66.3169 344.894 65.8419 345.31 65.4753C345.727 65.0919 346.244 64.9003 346.86 64.9003Z" fill="#313131"/>
<path d="M354.06 69.3003C353.46 69.3003 352.96 69.0919 352.56 68.6753C352.16 68.2586 351.96 67.7336 351.96 67.1003C351.96 66.4669 352.16 65.9419 352.56 65.5253C352.96 65.1086 353.46 64.9003 354.06 64.9003C354.66 64.9003 355.16 65.1086 355.56 65.5253C355.96 65.9419 356.16 66.4669 356.16 67.1003C356.16 67.7336 355.96 68.2586 355.56 68.6753C355.16 69.0919 354.66 69.3003 354.06 69.3003Z" fill="#313131"/>
</svg>
