<svg width="434" height="144" viewBox="0 0 434 144" fill="none" xmlns="http://www.w3.org/2000/svg">
<path d="M60.6813 2.99996H70.3213V27.4C70.3213 28.8933 70.0679 30.2133 69.5612 31.36C69.0812 32.5066 68.4146 33.4666 67.5612 34.24C66.7079 35.04 65.6812 35.6533 64.4812 36.08C63.3079 36.5066 62.0413 36.7333 60.6813 36.76V33.6C62.5213 33.4933 64.0279 32.9066 65.2012 31.84C66.4012 30.7733 67.0013 29.2533 67.0013 27.28V6.15996H60.6813V2.99996Z" fill="#313131"/>
<path d="M75.1031 23.48C75.1031 22.4133 75.3031 21.4 75.7031 20.44C76.1298 19.48 76.7031 18.6533 77.4231 17.96C78.1431 17.24 78.9831 16.68 79.9431 16.28C80.9298 15.8533 81.9831 15.64 83.1031 15.64C84.2231 15.64 85.2765 15.8533 86.2631 16.28C87.2498 16.68 88.1031 17.24 88.8231 17.96C89.5431 18.6533 90.1031 19.48 90.5031 20.44C90.9298 21.4 91.1431 22.4133 91.1431 23.48C91.1431 24.5733 90.9298 25.6 90.5031 26.56C90.1031 27.4933 89.5431 28.32 88.8231 29.04C88.1031 29.76 87.2498 30.3333 86.2631 30.76C85.2765 31.16 84.2231 31.36 83.1031 31.36C81.9831 31.36 80.9298 31.16 79.9431 30.76C78.9831 30.3333 78.1431 29.76 77.4231 29.04C76.7031 28.32 76.1298 27.4933 75.7031 26.56C75.3031 25.6 75.1031 24.5733 75.1031 23.48ZM78.4231 23.52C78.4231 24.16 78.5431 24.76 78.7831 25.32C79.0231 25.88 79.3431 26.3733 79.7431 26.8C80.1698 27.2 80.6631 27.52 81.2231 27.76C81.7831 28 82.3831 28.12 83.0231 28.12C83.6631 28.12 84.2631 28 84.8231 27.76C85.3831 27.52 85.8765 27.2 86.3031 26.8C86.7298 26.3733 87.0631 25.88 87.3031 25.32C87.5431 24.76 87.6631 24.16 87.6631 23.52C87.6631 22.88 87.5431 22.28 87.3031 21.72C87.0631 21.16 86.7298 20.6666 86.3031 20.24C85.8765 19.8133 85.3831 19.48 84.8231 19.24C84.2631 19 83.6631 18.88 83.0231 18.88C82.3831 18.88 81.7831 19 81.2231 19.24C80.6631 19.48 80.1698 19.8133 79.7431 20.24C79.3431 20.6666 79.0231 21.16 78.7831 21.72C78.5431 22.28 78.4231 22.88 78.4231 23.52Z" fill="#313131"/>
<path d="M99.3713 26.2V27.76C99.6913 27.8933 99.9979 27.9866 100.291 28.04C100.611 28.0666 100.998 28.08 101.451 28.08C101.478 28.08 101.571 28.08 101.731 28.08C101.918 28.0533 102.118 28 102.331 27.92C102.545 27.8133 102.731 27.6666 102.891 27.48C103.078 27.2933 103.185 27.0133 103.211 26.64C103.238 26.16 103.105 25.8 102.811 25.56C102.518 25.2933 102.131 25.08 101.651 24.92C101.198 24.7333 100.691 24.56 100.131 24.4C99.5712 24.2133 99.0379 23.9733 98.5312 23.68C98.0513 23.36 97.6513 22.92 97.3313 22.36C97.0113 21.8 96.8512 21.0533 96.8512 20.12C96.8512 19.2933 97.0113 18.6 97.3313 18.04C97.6513 17.48 98.0513 17.0266 98.5312 16.68C99.0113 16.3066 99.5312 16.04 100.091 15.88C100.651 15.72 101.158 15.64 101.611 15.64C101.878 15.64 102.198 15.6666 102.571 15.72C102.971 15.7733 103.371 15.8666 103.771 16C104.171 16.1333 104.558 16.3066 104.931 16.52C105.331 16.7333 105.678 17 105.971 17.32V20.8H103.011V19.08C102.611 18.9466 102.211 18.88 101.811 18.88C101.225 18.88 100.798 19.0133 100.531 19.28C100.265 19.52 100.158 19.8533 100.211 20.28C100.265 20.6 100.465 20.8666 100.811 21.08C101.158 21.2666 101.558 21.4533 102.011 21.64C102.491 21.8266 102.998 22.04 103.531 22.28C104.065 22.52 104.558 22.8266 105.011 23.2C105.465 23.5466 105.838 24 106.131 24.56C106.425 25.0933 106.571 25.7733 106.571 26.6C106.571 26.9733 106.491 27.4266 106.331 27.96C106.198 28.4933 105.945 29.0133 105.571 29.52C105.198 30.0266 104.678 30.4533 104.011 30.8C103.345 31.1466 102.478 31.32 101.411 31.32C100.425 31.32 99.4779 31.2 98.5713 30.96C97.6646 30.6933 96.9446 30.2666 96.4112 29.68V26.2H99.3713Z" fill="#313131"/>
<path d="M119.213 18.88C117.853 18.88 116.746 19.2933 115.893 20.12C115.039 20.92 114.586 21.9333 114.533 23.16C115.786 22.7066 117.026 22.2533 118.253 21.8C119.506 21.32 120.759 20.8533 122.012 20.4C121.639 19.9466 121.212 19.5866 120.732 19.32C120.279 19.0266 119.773 18.88 119.213 18.88ZM126.253 22.28C124.439 22.9466 122.626 23.6133 120.812 24.28C119.026 24.9466 117.226 25.6133 115.412 26.28C115.812 26.84 116.333 27.2933 116.973 27.64C117.639 27.96 118.386 28.12 119.213 28.12C120.439 28.12 121.453 27.6933 122.253 26.84L124.293 29.24C123.626 29.9066 122.866 30.4266 122.012 30.8C121.159 31.1733 120.226 31.36 119.213 31.36C118.093 31.36 117.039 31.16 116.052 30.76C115.092 30.3333 114.253 29.76 113.533 29.04C112.813 28.32 112.239 27.4933 111.812 26.56C111.412 25.6 111.213 24.5733 111.213 23.48C111.213 22.4133 111.412 21.4 111.812 20.44C112.239 19.48 112.813 18.6533 113.533 17.96C114.253 17.24 115.092 16.68 116.052 16.28C117.039 15.8533 118.093 15.64 119.213 15.64C120.039 15.64 120.826 15.8133 121.573 16.16C122.346 16.48 123.026 16.9333 123.613 17.52C124.226 18.1066 124.759 18.8133 125.213 19.64C125.666 20.44 126.013 21.32 126.253 22.28Z" fill="#313131"/>
<path d="M131.22 27.84H133.66V19.24H131.22V16H133.62V10.32C133.62 8.82663 133.86 7.50663 134.34 6.35996C134.847 5.21329 135.527 4.25329 136.38 3.47996C137.234 2.67996 138.247 2.07996 139.42 1.67996C140.62 1.2533 141.9 1.0133 143.26 0.959961V4.11996C141.42 4.22663 139.9 4.81329 138.7 5.87996C137.527 6.94663 136.94 8.46663 136.94 10.44V16H141.66V19.24H136.94V27.84H140.1V31H131.22V27.84Z" fill="#313131"/>
<path d="M146.658 27.84H149.458V19.16H146.658V16H152.778V27.84H155.538V31H146.658V27.84ZM149.098 10.2C149.098 9.58663 149.311 9.07996 149.738 8.67996C150.164 8.27996 150.644 8.07996 151.178 8.07996C151.684 8.07996 152.151 8.27996 152.578 8.67996C153.004 9.07996 153.218 9.58663 153.218 10.2C153.218 10.8133 153.004 11.32 152.578 11.72C152.151 12.0933 151.684 12.28 151.178 12.28C150.644 12.28 150.164 12.0933 149.738 11.72C149.311 11.32 149.098 10.8133 149.098 10.2Z" fill="#313131"/>
<path d="M171.857 27.84H174.938V21.64C174.884 20.92 174.617 20.3066 174.137 19.8C173.684 19.2666 172.951 18.9733 171.938 18.92C171.244 18.92 170.578 19.04 169.938 19.28C169.324 19.52 168.778 19.8533 168.298 20.28C167.818 20.7066 167.431 21.2133 167.137 21.8C166.844 22.3866 166.697 23.0266 166.697 23.72V27.84H169.217V31H160.337V27.84H163.378V19.16H160.738V16H166.298V16.36C166.351 17 166.391 17.5866 166.417 18.12C166.471 18.6266 166.524 19.2 166.577 19.84C167.111 18.56 167.964 17.5466 169.137 16.8C170.337 16.0266 171.658 15.64 173.098 15.64C174.671 15.64 175.911 16.0533 176.818 16.88C177.724 17.7066 178.204 18.7866 178.258 20.12V27.84H180.738V31H171.857V27.84Z" fill="#313131"/>
<path d="M198.973 27.28V22.64H202.133V26.2C202.826 26.7333 203.653 27.2 204.613 27.6C205.573 27.9733 206.653 28.16 207.853 28.16C208.546 28.16 209.213 28.0666 209.853 27.88C210.493 27.6666 211.053 27.3733 211.533 27C212.039 26.6 212.439 26.1066 212.733 25.52C213.026 24.9333 213.173 24.2533 213.173 23.48C213.173 22.0933 212.853 21.0266 212.213 20.28C211.573 19.5333 210.773 18.96 209.813 18.56C208.853 18.1333 207.813 17.7733 206.693 17.48C205.573 17.1866 204.519 16.7866 203.533 16.28C202.573 15.7733 201.759 15.0666 201.093 14.16C200.453 13.2533 200.119 11.9733 200.093 10.32C200.066 9.43996 200.186 8.55996 200.453 7.67996C200.719 6.79996 201.159 5.99996 201.773 5.27996C202.386 4.55996 203.199 3.9733 204.213 3.51996C205.226 3.06663 206.466 2.83996 207.933 2.83996C208.413 2.83996 208.933 2.86663 209.493 2.91996C210.053 2.97329 210.639 3.07996 211.253 3.23996C211.866 3.39996 212.493 3.63996 213.133 3.95996C213.799 4.27996 214.453 4.70663 215.093 5.23996V9.15996H211.933V6.79996C211.426 6.58663 210.839 6.39996 210.173 6.23996C209.506 6.07996 208.773 5.99996 207.973 5.99996C206.426 5.99996 205.279 6.43996 204.533 7.31996C203.786 8.19996 203.413 9.23996 203.413 10.44C203.413 11.24 203.599 11.8933 203.973 12.4C204.346 12.88 204.839 13.2933 205.453 13.64C206.066 13.96 206.759 14.24 207.533 14.48C208.333 14.72 209.133 14.9866 209.933 15.28C210.759 15.5466 211.559 15.88 212.333 16.28C213.133 16.6533 213.839 17.16 214.453 17.8C215.066 18.4133 215.559 19.1866 215.933 20.12C216.306 21.0266 216.493 22.16 216.493 23.52C216.493 24.72 216.266 25.8 215.813 26.76C215.386 27.72 214.786 28.5466 214.013 29.24C213.266 29.9066 212.386 30.4266 211.373 30.8C210.359 31.1466 209.293 31.32 208.173 31.32C207.159 31.32 206.173 31.2133 205.213 31C204.253 30.76 203.373 30.4533 202.573 30.08C201.773 29.7066 201.053 29.28 200.413 28.8C199.799 28.32 199.319 27.8133 198.973 27.28Z" fill="#313131"/>
<path d="M220.634 27.84H223.674V4.15996H221.034V0.99996H226.994V27.84H229.514V31H220.634V27.84Z" fill="#313131"/>
<path d="M234.314 23.52C234.314 22.48 234.514 21.48 234.914 20.52C235.341 19.56 235.914 18.72 236.634 18C237.354 17.28 238.207 16.7066 239.194 16.28C240.181 15.8533 241.234 15.64 242.354 15.64C243.074 15.64 243.741 15.7466 244.354 15.96C244.967 16.1733 245.501 16.4133 245.954 16.68C246.407 16.92 246.767 17.16 247.034 17.4C247.301 17.64 247.434 17.8 247.434 17.88C247.434 17.5866 247.461 17.28 247.514 16.96C247.567 16.64 247.594 16.32 247.594 16H250.354V27.84H253.394V31H247.434V29.4C247.407 29.48 247.274 29.6266 247.034 29.84C246.794 30.0533 246.447 30.28 245.994 30.52C245.567 30.7333 245.047 30.92 244.434 31.08C243.821 31.2666 243.127 31.36 242.354 31.36C241.234 31.36 240.181 31.16 239.194 30.76C238.207 30.3333 237.354 29.76 236.634 29.04C235.914 28.32 235.341 27.4933 234.914 26.56C234.514 25.6 234.314 24.5866 234.314 23.52ZM237.674 23.48C237.674 24.7866 238.101 25.8933 238.954 26.8C239.834 27.68 240.967 28.12 242.354 28.12C243.741 28.12 244.861 27.68 245.714 26.8C246.594 25.8933 247.034 24.7866 247.034 23.48C247.034 22.1466 246.594 21.0533 245.714 20.2C244.861 19.32 243.741 18.88 242.354 18.88C240.967 18.88 239.834 19.32 238.954 20.2C238.101 21.0533 237.674 22.1466 237.674 23.48Z" fill="#313131"/>
<path d="M258.189 27.84H261.229V4.15996H258.589V0.99996H264.549V16.52C264.496 16.7333 264.429 16.9466 264.349 17.16C264.269 17.3466 264.202 17.5466 264.149 17.76C264.176 17.68 264.322 17.52 264.589 17.28C264.882 17.04 265.256 16.8 265.709 16.56C266.162 16.32 266.682 16.1066 267.269 15.92C267.882 15.7333 268.536 15.64 269.229 15.64C270.349 15.64 271.402 15.8533 272.389 16.28C273.376 16.68 274.229 17.24 274.949 17.96C275.669 18.68 276.229 19.52 276.629 20.48C277.056 21.4133 277.269 22.4133 277.269 23.48C277.269 24.5466 277.056 25.56 276.629 26.52C276.229 27.48 275.669 28.32 274.949 29.04C274.229 29.76 273.376 30.3333 272.389 30.76C271.402 31.16 270.349 31.36 269.229 31.36C268.456 31.36 267.762 31.2666 267.149 31.08C266.536 30.92 266.002 30.7333 265.549 30.52C265.122 30.28 264.789 30.0533 264.549 29.84C264.309 29.6266 264.176 29.48 264.149 29.4V31H258.189V27.84ZM273.909 23.48C273.909 22.1466 273.469 21.0533 272.589 20.2C271.736 19.32 270.616 18.88 269.229 18.88C267.842 18.88 266.709 19.32 265.829 20.2C264.976 21.0533 264.549 22.1466 264.549 23.48C264.549 24.7866 264.976 25.8933 265.829 26.8C266.709 27.68 267.842 28.12 269.229 28.12C270.616 28.12 271.736 27.68 272.589 26.8C273.469 25.8933 273.909 24.7866 273.909 23.48Z" fill="#313131"/>
<path d="M296.056 27.84H297.856V6.15996H296.056V2.99996H305.176C306.483 2.99996 307.67 3.13329 308.736 3.39996C309.83 3.66663 310.75 4.07996 311.496 4.63996C312.27 5.19996 312.87 5.9333 313.296 6.83996C313.723 7.71996 313.936 8.7733 313.936 9.99996C313.936 11.6533 313.536 13.1066 312.736 14.36C311.963 15.6133 310.776 16.4666 309.176 16.92C309.923 17.08 310.643 17.3466 311.336 17.72C312.056 18.0933 312.67 18.5733 313.176 19.16C313.71 19.7466 314.136 20.4266 314.456 21.2C314.776 21.9733 314.936 22.84 314.936 23.8C314.936 25 314.683 26.0533 314.176 26.96C313.67 27.84 312.99 28.5866 312.136 29.2C311.31 29.7866 310.35 30.24 309.256 30.56C308.163 30.8533 307.043 31 305.896 31H296.056V27.84ZM301.176 18.48V27.84H305.616C306.443 27.84 307.216 27.7466 307.936 27.56C308.656 27.3733 309.283 27.0933 309.816 26.72C310.376 26.32 310.816 25.84 311.136 25.28C311.456 24.72 311.616 24.0533 311.616 23.28C311.616 22.4533 311.43 21.7333 311.056 21.12C310.683 20.5066 310.19 20.0133 309.576 19.64C308.99 19.24 308.296 18.9466 307.496 18.76C306.696 18.5733 305.883 18.48 305.056 18.48H301.176ZM301.176 6.15996V15.32H305.496C307.07 15.32 308.31 14.88 309.216 14C310.15 13.12 310.616 11.96 310.616 10.52C310.616 8.94663 310.136 7.82663 309.176 7.15996C308.216 6.49329 306.963 6.15996 305.416 6.15996H301.176Z" fill="#313131"/>
<path d="M319.736 23.48C319.736 22.4133 319.936 21.4 320.336 20.44C320.763 19.48 321.336 18.6533 322.056 17.96C322.776 17.24 323.616 16.68 324.576 16.28C325.563 15.8533 326.616 15.64 327.736 15.64C328.856 15.64 329.909 15.8533 330.896 16.28C331.883 16.68 332.736 17.24 333.456 17.96C334.176 18.6533 334.736 19.48 335.136 20.44C335.563 21.4 335.776 22.4133 335.776 23.48C335.776 24.5733 335.563 25.6 335.136 26.56C334.736 27.4933 334.176 28.32 333.456 29.04C332.736 29.76 331.883 30.3333 330.896 30.76C329.909 31.16 328.856 31.36 327.736 31.36C326.616 31.36 325.563 31.16 324.576 30.76C323.616 30.3333 322.776 29.76 322.056 29.04C321.336 28.32 320.763 27.4933 320.336 26.56C319.936 25.6 319.736 24.5733 319.736 23.48ZM323.056 23.52C323.056 24.16 323.176 24.76 323.416 25.32C323.656 25.88 323.976 26.3733 324.376 26.8C324.803 27.2 325.296 27.52 325.856 27.76C326.416 28 327.016 28.12 327.656 28.12C328.296 28.12 328.896 28 329.456 27.76C330.016 27.52 330.509 27.2 330.936 26.8C331.363 26.3733 331.696 25.88 331.936 25.32C332.176 24.76 332.296 24.16 332.296 23.52C332.296 22.88 332.176 22.28 331.936 21.72C331.696 21.16 331.363 20.6666 330.936 20.24C330.509 19.8133 330.016 19.48 329.456 19.24C328.896 19 328.296 18.88 327.656 18.88C327.016 18.88 326.416 19 325.856 19.24C325.296 19.48 324.803 19.8133 324.376 20.24C323.976 20.6666 323.656 21.16 323.416 21.72C323.176 22.28 323.056 22.88 323.056 23.52Z" fill="#313131"/>
<path d="M340.564 27.84H343.604V4.15996H340.964V0.99996H346.924V27.84H349.444V31H340.564V27.84Z" fill="#313131"/>
<path d="M367.364 29.4C367.337 29.48 367.204 29.6266 366.964 29.84C366.724 30.0533 366.377 30.28 365.924 30.52C365.497 30.7333 364.977 30.92 364.364 31.08C363.75 31.2666 363.057 31.36 362.284 31.36C361.164 31.36 360.11 31.16 359.124 30.76C358.137 30.3333 357.284 29.76 356.564 29.04C355.844 28.32 355.27 27.48 354.844 26.52C354.444 25.56 354.244 24.5466 354.244 23.48C354.244 22.4133 354.444 21.4133 354.844 20.48C355.27 19.52 355.844 18.68 356.564 17.96C357.284 17.24 358.137 16.68 359.124 16.28C360.11 15.8533 361.164 15.64 362.284 15.64C362.95 15.64 363.577 15.7333 364.164 15.92C364.777 16.1066 365.31 16.32 365.764 16.56C366.217 16.8 366.577 17.04 366.844 17.28C367.137 17.52 367.31 17.68 367.364 17.76C367.31 17.5466 367.244 17.3466 367.164 17.16C367.084 16.9466 367.017 16.7333 366.964 16.52V4.15996H364.324V0.99996H370.284V27.84H373.324V31H367.364V29.4ZM357.604 23.48C357.604 24.7866 358.03 25.8933 358.884 26.8C359.764 27.68 360.897 28.12 362.284 28.12C363.67 28.12 364.79 27.68 365.644 26.8C366.524 25.8933 366.964 24.7866 366.964 23.48C366.964 22.1466 366.524 21.0533 365.644 20.2C364.79 19.32 363.67 18.88 362.284 18.88C360.897 18.88 359.764 19.32 358.884 20.2C358.03 21.0533 357.604 22.1466 357.604 23.48Z" fill="#313131"/>
<path d="M57.2056 100.325C57.2056 99.675 57.3306 99.05 57.5806 98.45C57.8472 97.85 58.2056 97.325 58.6556 96.875C59.1056 96.425 59.6389 96.0666 60.2556 95.8C60.8722 95.5333 61.5306 95.4 62.2306 95.4C62.6806 95.4 63.0972 95.4666 63.4806 95.6C63.8639 95.7333 64.1972 95.8833 64.4806 96.05C64.7639 96.2 64.9889 96.35 65.1556 96.5C65.3222 96.65 65.4056 96.75 65.4056 96.8C65.4056 96.6166 65.4222 96.425 65.4556 96.225C65.4889 96.025 65.5056 95.825 65.5056 95.625H67.2306V103.025H69.1306V105H65.4056V104C65.3889 104.05 65.3056 104.142 65.1556 104.275C65.0056 104.408 64.7889 104.55 64.5056 104.7C64.2389 104.833 63.9139 104.95 63.5306 105.05C63.1472 105.167 62.7139 105.225 62.2306 105.225C61.5306 105.225 60.8722 105.1 60.2556 104.85C59.6389 104.583 59.1056 104.225 58.6556 103.775C58.2056 103.325 57.8472 102.808 57.5806 102.225C57.3306 101.625 57.2056 100.992 57.2056 100.325ZM59.3056 100.3C59.3056 101.117 59.5722 101.808 60.1056 102.375C60.6556 102.925 61.3639 103.2 62.2306 103.2C63.0972 103.2 63.7972 102.925 64.3306 102.375C64.8806 101.808 65.1556 101.117 65.1556 100.3C65.1556 99.4666 64.8806 98.7833 64.3306 98.25C63.7972 97.7 63.0972 97.425 62.2306 97.425C61.3639 97.425 60.6556 97.7 60.1056 98.25C59.5722 98.7833 59.3056 99.4666 59.3056 100.3Z" fill="#313131"/>
<path d="M70.8774 103.025H72.7774V88.225H71.1274V86.25H74.8524V95.95C74.8191 96.0833 74.7774 96.2166 74.7274 96.35C74.6774 96.4666 74.6358 96.5916 74.6024 96.725C74.6191 96.675 74.7108 96.575 74.8774 96.425C75.0608 96.275 75.2941 96.125 75.5774 95.975C75.8608 95.825 76.1858 95.6916 76.5524 95.575C76.9358 95.4583 77.3441 95.4 77.7774 95.4C78.4774 95.4 79.1358 95.5333 79.7524 95.8C80.3691 96.05 80.9024 96.4 81.3524 96.85C81.8024 97.3 82.1524 97.825 82.4024 98.425C82.6691 99.0083 82.8024 99.6333 82.8024 100.3C82.8024 100.967 82.6691 101.6 82.4024 102.2C82.1524 102.8 81.8024 103.325 81.3524 103.775C80.9024 104.225 80.3691 104.583 79.7524 104.85C79.1358 105.1 78.4774 105.225 77.7774 105.225C77.2941 105.225 76.8608 105.167 76.4774 105.05C76.0941 104.95 75.7608 104.833 75.4774 104.7C75.2108 104.55 75.0024 104.408 74.8524 104.275C74.7024 104.142 74.6191 104.05 74.6024 104V105H70.8774V103.025ZM80.7024 100.3C80.7024 99.4666 80.4274 98.7833 79.8774 98.25C79.3441 97.7 78.6441 97.425 77.7774 97.425C76.9108 97.425 76.2024 97.7 75.6524 98.25C75.1191 98.7833 74.8524 99.4666 74.8524 100.3C74.8524 101.117 75.1191 101.808 75.6524 102.375C76.2024 102.925 76.9108 103.2 77.7774 103.2C78.6441 103.2 79.3441 102.925 79.8774 102.375C80.4274 101.808 80.7024 101.117 80.7024 100.3Z" fill="#313131"/>
<path d="M92.6743 104.15C92.241 104.483 91.7577 104.75 91.2243 104.95C90.7077 105.133 90.1493 105.225 89.5493 105.225C88.8493 105.225 88.191 105.1 87.5743 104.85C86.9743 104.583 86.4493 104.225 85.9993 103.775C85.5493 103.325 85.191 102.808 84.9243 102.225C84.6743 101.625 84.5493 100.983 84.5493 100.3C84.5493 99.6333 84.6743 99 84.9243 98.4C85.191 97.8 85.5493 97.2833 85.9993 96.85C86.4493 96.4 86.9743 96.05 87.5743 95.8C88.191 95.5333 88.8493 95.4 89.5493 95.4C90.166 95.4 90.741 95.5 91.2743 95.7C91.8076 95.8833 92.291 96.1416 92.7243 96.475V99.375H90.8743V97.7C90.4576 97.5166 90.016 97.425 89.5493 97.425C88.6826 97.425 87.9743 97.7 87.4243 98.25C86.891 98.7833 86.6243 99.4666 86.6243 100.3C86.6243 101.117 86.891 101.808 87.4243 102.375C87.9743 102.925 88.6826 103.2 89.5493 103.2C90.2826 103.2 90.9076 102.992 91.4243 102.575L92.6743 104.15Z" fill="#313131"/>
<path d="M102.686 104C102.669 104.05 102.586 104.142 102.436 104.275C102.286 104.408 102.069 104.55 101.786 104.7C101.519 104.833 101.194 104.95 100.811 105.05C100.428 105.167 99.9942 105.225 99.5108 105.225C98.8108 105.225 98.1525 105.1 97.5358 104.85C96.9192 104.583 96.3858 104.225 95.9358 103.775C95.4858 103.325 95.1275 102.8 94.8608 102.2C94.6108 101.6 94.4858 100.967 94.4858 100.3C94.4858 99.6333 94.6108 99.0083 94.8608 98.425C95.1275 97.825 95.4858 97.3 95.9358 96.85C96.3858 96.4 96.9192 96.05 97.5358 95.8C98.1525 95.5333 98.8108 95.4 99.5108 95.4C99.9275 95.4 100.319 95.4583 100.686 95.575C101.069 95.6916 101.403 95.825 101.686 95.975C101.969 96.125 102.194 96.275 102.361 96.425C102.544 96.575 102.653 96.675 102.686 96.725C102.653 96.5916 102.611 96.4666 102.561 96.35C102.511 96.2166 102.469 96.0833 102.436 95.95V88.225H100.786V86.25H104.511V103.025H106.411V105H102.686V104ZM96.5858 100.3C96.5858 101.117 96.8525 101.808 97.3858 102.375C97.9358 102.925 98.6442 103.2 99.5108 103.2C100.378 103.2 101.078 102.925 101.611 102.375C102.161 101.808 102.436 101.117 102.436 100.3C102.436 99.4666 102.161 98.7833 101.611 98.25C101.078 97.7 100.378 97.425 99.5108 97.425C98.6442 97.425 97.9358 97.7 97.3858 98.25C96.8525 98.7833 96.5858 99.4666 96.5858 100.3Z" fill="#313131"/>
<path d="M113.158 97.425C112.308 97.425 111.616 97.6833 111.083 98.2C110.549 98.7 110.266 99.3333 110.233 100.1C111.016 99.8166 111.791 99.5333 112.558 99.25C113.341 98.95 114.124 98.6583 114.908 98.375C114.674 98.0916 114.408 97.8666 114.108 97.7C113.824 97.5166 113.508 97.425 113.158 97.425ZM117.558 99.55C116.424 99.9666 115.291 100.383 114.158 100.8C113.041 101.217 111.916 101.633 110.783 102.05C111.033 102.4 111.358 102.683 111.758 102.9C112.174 103.1 112.641 103.2 113.158 103.2C113.924 103.2 114.558 102.933 115.058 102.4L116.333 103.9C115.916 104.317 115.441 104.642 114.908 104.875C114.374 105.108 113.791 105.225 113.158 105.225C112.458 105.225 111.799 105.1 111.183 104.85C110.583 104.583 110.058 104.225 109.608 103.775C109.158 103.325 108.799 102.808 108.533 102.225C108.283 101.625 108.158 100.983 108.158 100.3C108.158 99.6333 108.283 99 108.533 98.4C108.799 97.8 109.158 97.2833 109.608 96.85C110.058 96.4 110.583 96.05 111.183 95.8C111.799 95.5333 112.458 95.4 113.158 95.4C113.674 95.4 114.166 95.5083 114.633 95.725C115.116 95.925 115.541 96.2083 115.908 96.575C116.291 96.9416 116.624 97.3833 116.908 97.9C117.191 98.4 117.408 98.95 117.558 99.55Z" fill="#313131"/>
<path d="M119.413 103.025H120.938V97.65H119.413V95.625H120.913V92.075C120.913 91.1416 121.063 90.3166 121.363 89.6C121.679 88.8833 122.104 88.2833 122.638 87.8C123.171 87.3 123.804 86.925 124.538 86.675C125.288 86.4083 126.088 86.2583 126.938 86.225V88.2C125.788 88.2666 124.838 88.6333 124.088 89.3C123.354 89.9666 122.988 90.9166 122.988 92.15V95.625H125.938V97.65H122.988V103.025H124.963V105H119.413V103.025Z" fill="#313131"/>
<path d="M136.111 95.625H139.736V97.6H137.836V106.5C137.836 107.167 137.703 107.783 137.436 108.35C137.186 108.933 136.836 109.433 136.386 109.85C135.936 110.283 135.411 110.625 134.811 110.875C134.211 111.125 133.561 111.25 132.861 111.25C132.111 111.25 131.386 111.083 130.686 110.75C129.986 110.433 129.386 110.1 128.886 109.75L130.261 108.05C130.594 108.3 130.978 108.533 131.411 108.75C131.861 108.983 132.328 109.1 132.811 109.1C133.244 109.1 133.636 109.025 133.986 108.875C134.353 108.725 134.669 108.517 134.936 108.25C135.203 108 135.403 107.692 135.536 107.325C135.686 106.975 135.761 106.592 135.761 106.175V104.5C135.794 104.433 135.828 104.367 135.861 104.3C135.894 104.217 135.928 104.133 135.961 104.05C135.911 104.133 135.803 104.242 135.636 104.375C135.469 104.492 135.253 104.617 134.986 104.75C134.719 104.867 134.403 104.967 134.036 105.05C133.686 105.15 133.286 105.2 132.836 105.2C132.136 105.2 131.478 105.075 130.861 104.825C130.244 104.558 129.711 104.208 129.261 103.775C128.811 103.325 128.453 102.808 128.186 102.225C127.936 101.625 127.811 100.992 127.811 100.325C127.811 99.675 127.936 99.05 128.186 98.45C128.453 97.85 128.811 97.325 129.261 96.875C129.711 96.425 130.244 96.0666 130.861 95.8C131.478 95.5333 132.136 95.4 132.836 95.4C133.286 95.4 133.703 95.4666 134.086 95.6C134.469 95.7333 134.803 95.8833 135.086 96.05C135.369 96.2 135.594 96.35 135.761 96.5C135.928 96.65 136.011 96.75 136.011 96.8C136.011 96.6166 136.028 96.425 136.061 96.225C136.094 96.025 136.111 95.825 136.111 95.625ZM129.911 100.3C129.911 101.117 130.178 101.808 130.711 102.375C131.261 102.925 131.969 103.2 132.836 103.2C133.703 103.2 134.403 102.925 134.936 102.375C135.486 101.808 135.761 101.117 135.761 100.3C135.761 99.4666 135.486 98.7833 134.936 98.25C134.403 97.7 133.703 97.425 132.836 97.425C131.969 97.425 131.261 97.7 130.711 98.25C130.178 98.7833 129.911 99.4666 129.911 100.3Z" fill="#313131"/>
<path d="M148.683 103.025H150.608V99.15C150.575 98.7 150.408 98.3166 150.108 98C149.825 97.6666 149.366 97.4833 148.733 97.45C148.3 97.45 147.883 97.525 147.483 97.675C147.1 97.825 146.758 98.0333 146.458 98.3C146.158 98.5666 145.916 98.8833 145.733 99.25C145.55 99.6166 145.458 100.017 145.458 100.45V103.025H147.033V105H141.483V103.025H143.383V88.225H141.483V86.25H145.458V96.9L145.383 98.025C145.75 97.2083 146.283 96.5833 146.983 96.15C147.683 95.7 148.508 95.45 149.458 95.4C150.441 95.4 151.216 95.6583 151.783 96.175C152.35 96.6916 152.65 97.3666 152.683 98.2V103.025H154.233V105H148.683V103.025Z" fill="#313131"/>
<path d="M155.985 103.025H157.735V97.6H155.985V95.625H159.81V103.025H161.535V105H155.985V103.025ZM157.51 92C157.51 91.6166 157.643 91.3 157.91 91.05C158.177 90.8 158.477 90.675 158.81 90.675C159.127 90.675 159.418 90.8 159.685 91.05C159.952 91.3 160.085 91.6166 160.085 92C160.085 92.3833 159.952 92.7 159.685 92.95C159.418 93.1833 159.127 93.3 158.81 93.3C158.477 93.3 158.177 93.1833 157.91 92.95C157.643 92.7 157.51 92.3833 157.51 92Z" fill="#313131"/>
<path d="M163.285 95.625H166.835V105C166.835 106.017 166.66 106.9 166.31 107.65C165.96 108.417 165.468 109.042 164.835 109.525L163.41 107.975C163.843 107.642 164.176 107.225 164.41 106.725C164.643 106.225 164.76 105.625 164.76 104.925V97.6H163.285V95.625ZM164.585 92C164.585 91.6166 164.718 91.3 164.985 91.05C165.251 90.8 165.551 90.675 165.885 90.675C166.201 90.675 166.493 90.8 166.76 91.05C167.026 91.3 167.16 91.6166 167.16 92C167.16 92.3833 167.026 92.7 166.76 92.95C166.493 93.1833 166.201 93.3 165.885 93.3C165.551 93.3 165.251 93.1833 164.985 92.95C164.718 92.7 164.585 92.3833 164.585 92Z" fill="#313131"/>
<path d="M174.983 103.025H175.258C175.008 102.692 174.758 102.358 174.508 102.025C174.258 101.675 174.016 101.333 173.783 101L172.558 102.15V103.025H174.133V105H168.583V103.025H170.483V88.225H168.833V86.25H172.558V99.725L174.833 97.6H173.908V95.625H178.933V97.6H177.383C177.016 97.9333 176.658 98.275 176.308 98.625C175.958 98.975 175.599 99.3166 175.233 99.65C175.633 100.217 176.033 100.783 176.433 101.35C176.849 101.9 177.266 102.458 177.683 103.025H180.008V105H174.983V103.025Z" fill="#313131"/>
<path d="M181.766 103.025H183.666V88.225H182.016V86.25H185.741V103.025H187.316V105H181.766V103.025Z" fill="#313131"/>
<path d="M203.516 103.025H205.416V99.15C205.383 98.7 205.216 98.3166 204.916 98C204.633 97.6666 204.174 97.4833 203.541 97.45C203.108 97.45 202.691 97.525 202.291 97.675C201.908 97.825 201.566 98.0333 201.266 98.3C200.966 98.5666 200.724 98.8833 200.541 99.25C200.358 99.6166 200.266 100.017 200.266 100.45V103.025H201.841V105H196.291V103.025H198.191V99.15C198.158 98.7 197.991 98.3166 197.691 98C197.408 97.6666 196.949 97.4833 196.316 97.45C195.883 97.45 195.466 97.525 195.066 97.675C194.683 97.825 194.341 98.0333 194.041 98.3C193.741 98.5666 193.499 98.8833 193.316 99.25C193.133 99.6166 193.041 100.017 193.041 100.45V103.025H194.616V105H189.066V103.025H190.966V97.6H189.316V95.625H192.791V95.85C192.824 96.25 192.849 96.6166 192.866 96.95C192.899 97.2666 192.933 97.625 192.966 98.025C193.316 97.225 193.841 96.6 194.541 96.15C195.258 95.6833 196.091 95.4333 197.041 95.4C197.958 95.4 198.691 95.6333 199.241 96.1C199.808 96.55 200.141 97.15 200.241 97.9C200.608 97.1333 201.141 96.5333 201.841 96.1C202.541 95.6666 203.349 95.4333 204.266 95.4C205.249 95.4 206.024 95.6583 206.591 96.175C207.158 96.6916 207.458 97.3666 207.491 98.2V103.025H209.066V105H203.516V103.025Z" fill="#313131"/>
<path d="M218.019 103.025H219.944V99.15C219.911 98.7 219.744 98.3166 219.444 98C219.161 97.6666 218.702 97.4833 218.069 97.45C217.636 97.45 217.219 97.525 216.819 97.675C216.436 97.825 216.094 98.0333 215.794 98.3C215.494 98.5666 215.252 98.8833 215.069 99.25C214.886 99.6166 214.794 100.017 214.794 100.45V103.025H216.369V105H210.819V103.025H212.719V97.6H211.069V95.625H214.544V95.85C214.577 96.25 214.602 96.6166 214.619 96.95C214.652 97.2666 214.686 97.625 214.719 98.025C215.052 97.225 215.586 96.5916 216.319 96.125C217.069 95.6416 217.894 95.4 218.794 95.4C219.777 95.4 220.552 95.6583 221.119 96.175C221.686 96.6916 221.986 97.3666 222.019 98.2V103.025H223.569V105H218.019V103.025Z" fill="#313131"/>
<path d="M225.321 100.3C225.321 99.6333 225.446 99 225.696 98.4C225.962 97.8 226.321 97.2833 226.771 96.85C227.221 96.4 227.746 96.05 228.346 95.8C228.962 95.5333 229.621 95.4 230.321 95.4C231.021 95.4 231.679 95.5333 232.296 95.8C232.912 96.05 233.446 96.4 233.896 96.85C234.346 97.2833 234.696 97.8 234.946 98.4C235.212 99 235.346 99.6333 235.346 100.3C235.346 100.983 235.212 101.625 234.946 102.225C234.696 102.808 234.346 103.325 233.896 103.775C233.446 104.225 232.912 104.583 232.296 104.85C231.679 105.1 231.021 105.225 230.321 105.225C229.621 105.225 228.962 105.1 228.346 104.85C227.746 104.583 227.221 104.225 226.771 103.775C226.321 103.325 225.962 102.808 225.696 102.225C225.446 101.625 225.321 100.983 225.321 100.3ZM227.396 100.325C227.396 100.725 227.471 101.1 227.621 101.45C227.771 101.8 227.971 102.108 228.221 102.375C228.487 102.625 228.796 102.825 229.146 102.975C229.496 103.125 229.871 103.2 230.271 103.2C230.671 103.2 231.046 103.125 231.396 102.975C231.746 102.825 232.054 102.625 232.321 102.375C232.587 102.108 232.796 101.8 232.946 101.45C233.096 101.1 233.171 100.725 233.171 100.325C233.171 99.925 233.096 99.55 232.946 99.2C232.796 98.85 232.587 98.5416 232.321 98.275C232.054 98.0083 231.746 97.8 231.396 97.65C231.046 97.5 230.671 97.425 230.271 97.425C229.871 97.425 229.496 97.5 229.146 97.65C228.796 97.8 228.487 98.0083 228.221 98.275C227.971 98.5416 227.771 98.85 227.621 99.2C227.471 99.55 227.396 99.925 227.396 100.325Z" fill="#313131"/>
<path d="M237.338 109.275H239.013V97.6H237.088V95.625H240.738C240.738 95.8083 240.747 96.0083 240.763 96.225C240.78 96.425 240.805 96.6166 240.838 96.8C240.855 96.75 240.947 96.65 241.113 96.5C241.297 96.3333 241.53 96.175 241.813 96.025C242.097 95.8583 242.422 95.7166 242.788 95.6C243.172 95.4666 243.58 95.4 244.013 95.4C244.713 95.4 245.372 95.5333 245.988 95.8C246.605 96.05 247.138 96.4 247.588 96.85C248.038 97.3 248.388 97.825 248.638 98.425C248.905 99.0083 249.038 99.6333 249.038 100.3C249.038 100.967 248.905 101.6 248.638 102.2C248.388 102.8 248.038 103.325 247.588 103.775C247.138 104.225 246.605 104.583 245.988 104.85C245.372 105.1 244.713 105.225 244.013 105.225C243.547 105.225 243.13 105.175 242.763 105.075C242.397 104.975 242.08 104.858 241.813 104.725C241.547 104.592 241.33 104.467 241.163 104.35C241.013 104.217 240.913 104.117 240.863 104.05C240.897 104.133 240.93 104.217 240.963 104.3C241.013 104.367 241.055 104.442 241.088 104.525V109.275H242.888V111.25H237.338V109.275ZM246.938 100.3C246.938 99.4666 246.663 98.7833 246.113 98.25C245.58 97.7 244.88 97.425 244.013 97.425C243.147 97.425 242.438 97.7 241.888 98.25C241.355 98.7833 241.088 99.4666 241.088 100.3C241.088 101.117 241.355 101.808 241.888 102.375C242.438 102.925 243.147 103.2 244.013 103.2C244.88 103.2 245.58 102.925 246.113 102.375C246.663 101.808 246.938 101.117 246.938 100.3Z" fill="#313131"/>
<path d="M256.835 109.275H258.735V104.525C258.768 104.442 258.801 104.367 258.835 104.3C258.885 104.217 258.926 104.133 258.96 104.05C258.91 104.117 258.801 104.217 258.635 104.35C258.468 104.467 258.251 104.592 257.985 104.725C257.718 104.858 257.401 104.975 257.035 105.075C256.668 105.175 256.26 105.225 255.81 105.225C255.11 105.225 254.451 105.1 253.835 104.85C253.218 104.583 252.685 104.225 252.235 103.775C251.785 103.325 251.426 102.8 251.16 102.2C250.91 101.6 250.785 100.967 250.785 100.3C250.785 99.6333 250.91 99.0083 251.16 98.425C251.426 97.825 251.785 97.3 252.235 96.85C252.685 96.4 253.218 96.05 253.835 95.8C254.451 95.5333 255.11 95.4 255.81 95.4C256.243 95.4 256.643 95.4666 257.01 95.6C257.393 95.7166 257.726 95.8583 258.01 96.025C258.293 96.175 258.518 96.3333 258.685 96.5C258.851 96.65 258.951 96.75 258.985 96.8C258.985 96.6166 259.001 96.425 259.035 96.225C259.068 96.025 259.085 95.825 259.085 95.625H262.81V97.6H260.81V109.275H262.385V111.25H256.835V109.275ZM252.885 100.3C252.885 101.117 253.151 101.808 253.685 102.375C254.235 102.925 254.943 103.2 255.81 103.2C256.676 103.2 257.376 102.925 257.91 102.375C258.46 101.808 258.735 101.117 258.735 100.3C258.735 99.4666 258.46 98.7833 257.91 98.25C257.376 97.7 256.676 97.425 255.81 97.425C254.943 97.425 254.235 97.7 253.685 98.25C253.151 98.7833 252.885 99.4666 252.885 100.3Z" fill="#313131"/>
<path d="M264.554 103.025H266.454V97.6H264.804V95.625H268.279V95.85C268.313 96.25 268.338 96.6166 268.354 96.95C268.388 97.2666 268.421 97.625 268.454 98.025C268.654 97.6083 268.904 97.2416 269.204 96.925C269.521 96.5916 269.846 96.3166 270.179 96.1C270.529 95.8666 270.863 95.6916 271.179 95.575C271.513 95.4583 271.804 95.4 272.054 95.4L271.904 97.45C270.888 97.45 270.071 97.7333 269.454 98.3C268.838 98.8666 268.529 99.5833 268.529 100.45V103.025H270.104V105H264.554V103.025Z" fill="#313131"/>
<path d="M275.957 102V102.975C276.157 103.058 276.349 103.117 276.532 103.15C276.732 103.167 276.974 103.175 277.257 103.175C277.274 103.175 277.332 103.175 277.432 103.175C277.549 103.158 277.674 103.125 277.807 103.075C277.94 103.008 278.057 102.917 278.157 102.8C278.274 102.683 278.34 102.508 278.357 102.275C278.374 101.975 278.29 101.75 278.107 101.6C277.924 101.433 277.682 101.3 277.382 101.2C277.099 101.083 276.782 100.975 276.432 100.875C276.082 100.758 275.749 100.608 275.432 100.425C275.132 100.225 274.882 99.95 274.682 99.6C274.482 99.25 274.382 98.7833 274.382 98.2C274.382 97.6833 274.482 97.25 274.682 96.9C274.882 96.55 275.132 96.2666 275.432 96.05C275.732 95.8166 276.057 95.65 276.407 95.55C276.757 95.45 277.074 95.4 277.357 95.4C277.524 95.4 277.724 95.4166 277.957 95.45C278.207 95.4833 278.457 95.5416 278.707 95.625C278.957 95.7083 279.199 95.8166 279.432 95.95C279.682 96.0833 279.899 96.25 280.082 96.45V98.625H278.232V97.55C277.982 97.4666 277.732 97.425 277.482 97.425C277.115 97.425 276.849 97.5083 276.682 97.675C276.515 97.825 276.449 98.0333 276.482 98.3C276.515 98.5 276.64 98.6666 276.857 98.8C277.074 98.9166 277.324 99.0333 277.607 99.15C277.907 99.2666 278.224 99.4 278.557 99.55C278.89 99.7 279.199 99.8916 279.482 100.125C279.765 100.342 279.999 100.625 280.182 100.975C280.365 101.308 280.457 101.733 280.457 102.25C280.457 102.483 280.407 102.767 280.307 103.1C280.224 103.433 280.065 103.758 279.832 104.075C279.599 104.392 279.274 104.658 278.857 104.875C278.44 105.092 277.899 105.2 277.232 105.2C276.615 105.2 276.024 105.125 275.457 104.975C274.89 104.808 274.44 104.542 274.107 104.175V102H275.957Z" fill="#313131"/>
<path d="M284.208 89.525H286.283V95.625H288.733V97.65H286.283V103.025H288.158V105H284.208V97.65H282.108V95.625H284.208V89.525Z" fill="#313131"/>
<path d="M290.482 95.625H294.207V101.475C294.24 101.925 294.399 102.317 294.682 102.65C294.982 102.967 295.449 103.142 296.082 103.175C296.515 103.175 296.924 103.1 297.307 102.95C297.707 102.8 298.057 102.592 298.357 102.325C298.657 102.058 298.899 101.742 299.082 101.375C299.265 101.008 299.357 100.608 299.357 100.175V97.6H297.707V95.625H301.432V103.25H302.982V105H299.357V103.725L299.432 102.6C299.099 103.4 298.557 104.042 297.807 104.525C297.074 104.992 296.257 105.225 295.357 105.225C294.374 105.225 293.599 104.967 293.032 104.45C292.465 103.933 292.165 103.258 292.132 102.425V97.6H290.482V95.625Z" fill="#313131"/>
<path d="M304.74 95.625H310.29V97.6H308.99C309.423 98.3333 309.84 99.0666 310.24 99.8C310.64 100.533 310.956 101.267 311.19 102C311.423 101.267 311.731 100.533 312.115 99.8C312.515 99.0666 312.931 98.3333 313.365 97.6H311.865V95.625H317.59V97.6H315.515C314.798 98.95 314.073 100.283 313.34 101.6C312.623 102.917 311.906 104.242 311.19 105.575C310.456 104.242 309.731 102.917 309.015 101.6C308.298 100.267 307.573 98.9333 306.84 97.6H304.74V95.625Z" fill="#313131"/>
<path d="M332.989 95.625H338.339V97.6H336.439C335.773 98.95 335.098 100.283 334.414 101.6C333.748 102.917 333.081 104.242 332.414 105.575L329.014 98.85L325.614 105.575C324.931 104.242 324.256 102.917 323.589 101.6C322.923 100.267 322.248 98.9333 321.564 97.6H319.339V95.625H324.514V97.6H323.639C324.006 98.3333 324.364 99.0666 324.714 99.8C325.064 100.517 325.364 101.25 325.614 102C325.798 101.433 326.014 100.883 326.264 100.35C326.531 99.8 326.798 99.25 327.064 98.7C327.148 98.5166 327.231 98.3333 327.314 98.15C327.414 97.9666 327.506 97.7833 327.589 97.6H326.314V95.625H331.864V97.6H330.439C330.806 98.3333 331.164 99.0666 331.514 99.8C331.864 100.517 332.164 101.25 332.414 102C332.664 101.25 332.956 100.517 333.289 99.8C333.639 99.0666 334.006 98.3333 334.389 97.6H332.989V95.625Z" fill="#313131"/>
<path d="M340.091 95.625H345.641V97.6H345.066L346.141 99.075L347.191 97.6H346.516V95.625H351.491V97.6H349.666L347.441 100.675C347.725 101.075 348.008 101.475 348.291 101.875C348.591 102.258 348.891 102.642 349.191 103.025H351.491V105H345.941V103.025H346.566C346.383 102.792 346.208 102.567 346.041 102.35C345.891 102.133 345.733 101.908 345.566 101.675C345.4 101.908 345.233 102.133 345.066 102.35C344.9 102.567 344.733 102.792 344.566 103.025H345.066V105H340.091V103.025H342.016C342.4 102.508 342.775 102 343.141 101.5C343.525 100.983 343.908 100.467 344.291 99.95C344.008 99.5666 343.716 99.175 343.416 98.775C343.133 98.375 342.85 97.9833 342.566 97.6H340.091V95.625Z" fill="#313131"/>
<path d="M354.675 109.275H356.925C357.275 108.558 357.625 107.842 357.975 107.125C358.342 106.408 358.709 105.7 359.076 105C358.442 103.75 357.817 102.517 357.201 101.3C356.601 100.083 355.984 98.85 355.35 97.6H353.25V95.625H358.8V97.6H357.475C357.959 98.5166 358.442 99.4416 358.925 100.375C359.409 101.292 359.809 102.217 360.125 103.15C360.442 102.217 360.834 101.292 361.3 100.375C361.784 99.4416 362.267 98.5166 362.75 97.6H361.201V95.625H366.925V97.6H364.875C363.892 99.5666 362.909 101.517 361.925 103.45C360.959 105.367 359.984 107.308 359 109.275H360.225V111.25H354.675V109.275Z" fill="#313131"/>
<path d="M377.805 101.55V105H368.68V102.975C369.197 102.508 369.68 102.058 370.13 101.625C370.597 101.175 371.047 100.733 371.48 100.3C371.93 99.8666 372.38 99.425 372.83 98.975C373.28 98.525 373.772 98.0666 374.305 97.6H368.98V94.75H370.83V95.625H377.23V97.65C376.697 98.1166 376.205 98.575 375.755 99.025C375.305 99.4583 374.855 99.8916 374.405 100.325C373.972 100.758 373.522 101.192 373.055 101.625C372.605 102.058 372.122 102.508 371.605 102.975H375.955V101.55H377.805Z" fill="#313131"/>
<path d="M0.284668 138.025H2.33467C3.48467 135.275 4.63467 132.558 5.78467 129.875C6.95133 127.175 8.10967 124.45 9.25967 121.7C10.4097 124.45 11.5597 127.175 12.7097 129.875C13.8763 132.558 15.0347 135.275 16.1847 138.025H18.2347V140H12.6847V138.025H14.0847C13.7347 137.192 13.3847 136.367 13.0347 135.55C12.7013 134.733 12.3597 133.908 12.0097 133.075H6.50967L4.40967 138.025H5.83467V140H0.284668V138.025ZM9.48467 127.125L9.23467 126.3C9.218 126.333 9.20133 126.392 9.18467 126.475C9.168 126.558 9.143 126.65 9.10967 126.75C9.07633 126.867 9.03467 126.992 8.98467 127.125C8.768 127.608 8.568 128.083 8.38467 128.55C8.218 128.95 8.043 129.383 7.85967 129.85C7.67634 130.317 7.50967 130.733 7.35967 131.1H11.1597L9.48467 127.125Z" fill="#313131"/>
<path d="M19.9868 138.025H21.1118V124.475H19.9868V122.5H25.6868C26.5035 122.5 27.2452 122.583 27.9118 122.75C28.5952 122.917 29.1702 123.175 29.6368 123.525C30.1202 123.875 30.4951 124.333 30.7618 124.9C31.0285 125.45 31.1618 126.108 31.1618 126.875C31.1618 127.908 30.9118 128.817 30.4118 129.6C29.9285 130.383 29.1868 130.917 28.1868 131.2C28.6535 131.3 29.1035 131.467 29.5368 131.7C29.9868 131.933 30.3702 132.233 30.6868 132.6C31.0202 132.967 31.2868 133.392 31.4868 133.875C31.6868 134.358 31.7868 134.9 31.7868 135.5C31.7868 136.25 31.6285 136.908 31.3118 137.475C30.9952 138.025 30.5701 138.492 30.0368 138.875C29.5201 139.242 28.9201 139.525 28.2368 139.725C27.5535 139.908 26.8535 140 26.1368 140H19.9868V138.025ZM23.1868 132.175V138.025H25.9618C26.4785 138.025 26.9618 137.967 27.4118 137.85C27.8618 137.733 28.2535 137.558 28.5868 137.325C28.9368 137.075 29.2118 136.775 29.4118 136.425C29.6118 136.075 29.7118 135.658 29.7118 135.175C29.7118 134.658 29.5951 134.208 29.3618 133.825C29.1285 133.442 28.8202 133.133 28.4368 132.9C28.0702 132.65 27.6368 132.467 27.1368 132.35C26.6368 132.233 26.1285 132.175 25.6118 132.175H23.1868ZM23.1868 124.475V130.2H25.8868C26.8702 130.2 27.6451 129.925 28.2118 129.375C28.7952 128.825 29.0868 128.1 29.0868 127.2C29.0868 126.217 28.7868 125.517 28.1868 125.1C27.5868 124.683 26.8035 124.475 25.8368 124.475H23.1868Z" fill="#313131"/>
<path d="M45.0616 126.35V124.825C44.2283 124.458 43.3616 124.275 42.4616 124.275C41.5116 124.275 40.62 124.458 39.7866 124.825C38.97 125.192 38.245 125.7 37.6116 126.35C36.995 126.983 36.5033 127.725 36.1366 128.575C35.7866 129.425 35.6116 130.325 35.6116 131.275C35.6116 132.225 35.7866 133.125 36.1366 133.975C36.5033 134.825 36.995 135.567 37.6116 136.2C38.245 136.817 38.97 137.308 39.7866 137.675C40.62 138.042 41.5116 138.225 42.4616 138.225C43.695 138.225 44.8366 137.917 45.8866 137.3L47.0116 138.95C46.345 139.333 45.6283 139.642 44.8616 139.875C44.1116 140.092 43.3116 140.2 42.4616 140.2C41.2283 140.2 40.07 139.967 38.9866 139.5C37.9033 139.033 36.9533 138.4 36.1366 137.6C35.3366 136.783 34.7033 135.833 34.2366 134.75C33.77 133.667 33.5366 132.508 33.5366 131.275C33.5366 130.042 33.77 128.883 34.2366 127.8C34.7033 126.7 35.3366 125.75 36.1366 124.95C36.9533 124.133 37.9033 123.492 38.9866 123.025C40.07 122.542 41.2283 122.3 42.4616 122.3C43.3116 122.3 44.1116 122.408 44.8616 122.625C45.6283 122.842 46.3533 123.15 47.0366 123.55V126.35H45.0616Z" fill="#313131"/>
<path d="M48.7954 138H49.9704V124.475H48.7954V122.5H54.0454C55.2454 122.5 56.3787 122.708 57.4454 123.125C58.5121 123.525 59.4454 124.108 60.2454 124.875C61.0454 125.642 61.6787 126.567 62.1454 127.65C62.6121 128.717 62.8454 129.925 62.8454 131.275C62.8454 132.258 62.6704 133.267 62.3204 134.3C61.9871 135.333 61.4371 136.275 60.6704 137.125C59.9037 137.958 58.9037 138.65 57.6704 139.2C56.4537 139.733 54.9621 140 53.1954 140H48.7954V138ZM52.0454 124.475V138H53.7954C54.7787 138 55.6954 137.842 56.5454 137.525C57.3954 137.208 58.1287 136.758 58.7454 136.175C59.3787 135.575 59.8704 134.867 60.2204 134.05C60.5871 133.217 60.7704 132.283 60.7704 131.25C60.7704 130.217 60.5871 129.283 60.2204 128.45C59.8704 127.617 59.3787 126.908 58.7454 126.325C58.1287 125.725 57.3954 125.267 56.5454 124.95C55.6954 124.633 54.7787 124.475 53.7954 124.475H52.0454Z" fill="#313131"/>
<path d="M64.5913 138.025H65.9913V124.475H64.5913V122.5H76.7663V126.35H74.7913V124.475H68.0663V130.2H75.7913V132.175H68.0663V138.025H75.1413V136.15H77.1163V140H64.5913V138.025Z" fill="#313131"/>
<path d="M78.8735 138.025H80.2735V124.475H78.8735V122.5H91.0485V126.35H89.0735V124.475H82.3485V130.2H90.0735V132.175H82.3485V138.025H84.9235V140H78.8735V138.025Z" fill="#313131"/>
<path d="M106.265 132.55V139C105.598 139.383 104.881 139.692 104.115 139.925C103.365 140.142 102.565 140.25 101.715 140.25C100.481 140.25 99.3229 140.017 98.2395 139.55C97.1562 139.083 96.2062 138.45 95.3895 137.65C94.5895 136.833 93.9562 135.883 93.4895 134.8C93.0229 133.717 92.7896 132.558 92.7896 131.325C92.7896 130.092 93.0229 128.933 93.4895 127.85C93.9562 126.75 94.5895 125.8 95.3895 125C96.2062 124.183 97.1562 123.542 98.2395 123.075C99.3229 122.592 100.481 122.35 101.715 122.35C102.565 122.35 103.365 122.458 104.115 122.675C104.881 122.892 105.606 123.2 106.29 123.6L105.14 125.275C104.623 124.975 104.081 124.742 103.515 124.575C102.948 124.408 102.348 124.325 101.715 124.325C100.765 124.325 99.8729 124.508 99.0396 124.875C98.2229 125.242 97.4979 125.75 96.8645 126.4C96.2479 127.033 95.7562 127.775 95.3895 128.625C95.0395 129.475 94.8645 130.375 94.8645 131.325C94.8645 132.275 95.0395 133.175 95.3895 134.025C95.7562 134.875 96.2479 135.617 96.8645 136.25C97.4979 136.867 98.2229 137.358 99.0396 137.725C99.8729 138.092 100.765 138.275 101.715 138.275C102.581 138.275 103.406 138.125 104.19 137.825V134.525H101.615V132.55H106.265Z" fill="#313131"/>
<path d="M119.524 122.5H125.574V124.475H123.599V138.025H125.574V140H119.524V138.025H121.524V132.175H112.074V138.025H114.074V140H108.024V138.025H109.999V124.475H108.024V122.5H114.074V124.475H112.074V130.2H121.524V124.475H119.524V122.5Z" fill="#313131"/>
<path d="M127.335 138.025H129.31V124.475H127.335V122.5H133.385V124.475H131.385V138.025H133.385V140H127.335V138.025Z" fill="#313131"/>
<path d="M135.124 122.5H141.149V137.75C141.149 138.683 140.99 139.508 140.674 140.225C140.374 140.942 139.957 141.542 139.424 142.025C138.89 142.525 138.249 142.908 137.499 143.175C136.765 143.442 135.974 143.583 135.124 143.6V141.625C136.274 141.558 137.215 141.192 137.949 140.525C138.699 139.858 139.074 138.908 139.074 137.675V124.475H135.124V122.5Z" fill="#313131"/>
<path d="M152.737 138.025H154.037C153.087 136.842 152.146 135.667 151.212 134.5C150.296 133.317 149.371 132.125 148.437 130.925L146.887 132.4V138.025H148.937V140H142.887V138.025H144.812V124.475H142.887V122.5H148.437V124.475H146.887V129.35C146.871 129.483 146.854 129.617 146.837 129.75C146.837 129.883 146.829 130.017 146.812 130.15L147.287 129.575L152.637 124.475H151.712V122.5H157.262V124.475H155.187L149.812 129.6C150.929 131.017 152.037 132.425 153.137 133.825C154.254 135.208 155.371 136.608 156.487 138.025H158.287V140H152.737V138.025Z" fill="#313131"/>
<path d="M160.026 138.025H161.426V124.475H160.026V122.5H165.576V124.475H163.501V138.025H170.576V136.15H172.551V140H160.026V138.025Z" fill="#313131"/>
<path d="M194.158 122.5H196.958V124.475H194.783V138.025H196.958V140H190.908V138.025H192.708V128.25C192.725 128.117 192.733 127.983 192.733 127.85C192.75 127.717 192.766 127.583 192.783 127.45C192.65 127.633 192.516 127.825 192.383 128.025C192.25 128.225 192.116 128.417 191.983 128.6C190.983 130.017 189.933 131.408 188.833 132.775C187.75 134.125 186.683 135.492 185.633 136.875L178.933 128.125L178.483 127.45C178.5 127.583 178.508 127.717 178.508 127.85C178.525 127.983 178.541 128.117 178.558 128.25V138.025H180.358V140H174.308V138.025H176.483V124.475H174.308V122.5H177.108C178.541 124.35 179.958 126.2 181.358 128.05C182.775 129.883 184.2 131.725 185.633 133.575C187.066 131.725 188.483 129.883 189.883 128.05C191.3 126.2 192.725 124.35 194.158 122.5Z" fill="#313131"/>
<path d="M198.698 138.025H200.873V124.475H198.698V122.5H201.598L213.673 135.575L214.148 136.225L214.073 135.425V124.475H212.273V122.5H218.323V124.475H216.148V140.8L203.348 127.2L202.873 126.55L202.948 127.35V138.025H204.748V140H198.698V138.025Z" fill="#313131"/>
<path d="M220.084 131.275C220.084 130.058 220.318 128.908 220.784 127.825C221.251 126.725 221.884 125.767 222.684 124.95C223.501 124.133 224.451 123.492 225.534 123.025C226.618 122.542 227.776 122.3 229.009 122.3C230.226 122.3 231.376 122.542 232.459 123.025C233.559 123.492 234.518 124.133 235.334 124.95C236.151 125.767 236.793 126.725 237.259 127.825C237.743 128.908 237.984 130.058 237.984 131.275C237.984 132.508 237.743 133.667 237.259 134.75C236.793 135.833 236.151 136.783 235.334 137.6C234.518 138.4 233.559 139.033 232.459 139.5C231.376 139.967 230.226 140.2 229.009 140.2C227.776 140.2 226.618 139.967 225.534 139.5C224.451 139.033 223.501 138.4 222.684 137.6C221.884 136.783 221.251 135.833 220.784 134.75C220.318 133.667 220.084 132.508 220.084 131.275ZM222.159 131.275C222.159 132.242 222.334 133.15 222.684 134C223.051 134.833 223.543 135.567 224.159 136.2C224.793 136.817 225.526 137.308 226.359 137.675C227.193 138.042 228.084 138.225 229.034 138.225C229.984 138.225 230.876 138.042 231.709 137.675C232.543 137.308 233.268 136.817 233.884 136.2C234.518 135.567 235.009 134.833 235.359 134C235.726 133.15 235.909 132.242 235.909 131.275C235.909 130.308 235.726 129.408 235.359 128.575C235.009 127.725 234.518 126.983 233.884 126.35C233.268 125.717 232.543 125.217 231.709 124.85C230.876 124.483 229.984 124.3 229.034 124.3C228.084 124.3 227.193 124.483 226.359 124.85C225.526 125.217 224.793 125.717 224.159 126.35C223.543 126.983 223.051 127.725 222.684 128.575C222.334 129.408 222.159 130.308 222.159 131.275Z" fill="#313131"/>
<path d="M239.738 138.025H240.863V124.475H239.738V122.5H244.988C245.554 122.5 246.179 122.592 246.863 122.775C247.563 122.942 248.213 123.217 248.813 123.6C249.413 123.983 249.913 124.475 250.313 125.075C250.713 125.675 250.913 126.4 250.913 127.25C250.913 128.767 250.463 129.975 249.563 130.875C248.663 131.758 247.363 132.2 245.663 132.2H242.938V138.025H245.788V140H239.738V138.025ZM242.938 130.2H245.113C245.846 130.2 246.446 130.108 246.913 129.925C247.396 129.725 247.779 129.483 248.063 129.2C248.346 128.917 248.546 128.6 248.663 128.25C248.779 127.9 248.838 127.567 248.838 127.25C248.838 126.883 248.738 126.533 248.538 126.2C248.354 125.867 248.096 125.575 247.763 125.325C247.446 125.058 247.054 124.85 246.588 124.7C246.138 124.55 245.654 124.475 245.138 124.475H242.938V130.2Z" fill="#313131"/>
<path d="M254.728 131.275C254.728 132.225 254.903 133.125 255.253 133.975C255.62 134.825 256.111 135.567 256.728 136.2C257.361 136.817 258.086 137.308 258.903 137.675C259.736 138.042 260.628 138.225 261.578 138.225C262.528 138.225 263.42 138.042 264.253 137.675C265.086 137.308 265.811 136.817 266.428 136.2C267.061 135.567 267.561 134.825 267.928 133.975C268.294 133.125 268.478 132.225 268.478 131.275C268.478 130.325 268.294 129.425 267.928 128.575C267.561 127.725 267.061 126.983 266.428 126.35C265.811 125.7 265.086 125.192 264.253 124.825C263.42 124.458 262.528 124.275 261.578 124.275C260.628 124.275 259.736 124.458 258.903 124.825C258.086 125.192 257.361 125.7 256.728 126.35C256.111 126.983 255.62 127.725 255.253 128.575C254.903 129.425 254.728 130.325 254.728 131.275ZM252.653 131.275C252.653 130.042 252.886 128.883 253.353 127.8C253.819 126.7 254.453 125.75 255.253 124.95C256.07 124.133 257.02 123.492 258.103 123.025C259.186 122.542 260.344 122.3 261.578 122.3C262.811 122.3 263.969 122.542 265.053 123.025C266.153 123.492 267.103 124.133 267.903 124.95C268.719 125.75 269.361 126.7 269.828 127.8C270.311 128.883 270.553 130.042 270.553 131.275C270.553 132.625 270.269 133.883 269.703 135.05C269.136 136.217 268.378 137.208 267.428 138.025H271.103V140H263.428C262.794 140.133 262.178 140.2 261.578 140.2C260.344 140.2 259.186 139.967 258.103 139.5C257.02 139.033 256.07 138.4 255.253 137.6C254.453 136.783 253.819 135.833 253.353 134.75C252.886 133.667 252.653 132.508 252.653 131.275Z" fill="#313131"/>
<path d="M272.843 138.025H273.968V124.475H272.843V122.5H278.093C278.66 122.5 279.285 122.592 279.968 122.775C280.668 122.942 281.318 123.217 281.918 123.6C282.518 123.983 283.018 124.475 283.418 125.075C283.818 125.675 284.018 126.4 284.018 127.25C284.018 128.5 283.702 129.55 283.068 130.4C282.452 131.233 281.543 131.783 280.343 132.05L283.143 138.025H285.493V140H281.843L278.168 132.2H276.043V138.025H278.893V140H272.843V138.025ZM276.043 130.2H278.218C278.952 130.2 279.552 130.108 280.018 129.925C280.502 129.725 280.885 129.483 281.168 129.2C281.452 128.917 281.652 128.6 281.768 128.25C281.885 127.9 281.943 127.567 281.943 127.25C281.943 126.883 281.843 126.533 281.643 126.2C281.46 125.867 281.202 125.575 280.868 125.325C280.552 125.058 280.16 124.85 279.693 124.7C279.243 124.55 278.76 124.475 278.243 124.475H276.043V130.2Z" fill="#313131"/>
<path d="M286.898 137.675V134.775H288.873V137C289.306 137.333 289.823 137.625 290.423 137.875C291.023 138.108 291.698 138.225 292.448 138.225C292.881 138.225 293.298 138.167 293.698 138.05C294.098 137.917 294.448 137.733 294.748 137.5C295.064 137.25 295.314 136.942 295.498 136.575C295.681 136.208 295.773 135.783 295.773 135.3C295.773 134.433 295.573 133.767 295.173 133.3C294.773 132.833 294.273 132.475 293.673 132.225C293.073 131.958 292.423 131.733 291.723 131.55C291.023 131.367 290.364 131.117 289.748 130.8C289.148 130.483 288.639 130.042 288.223 129.475C287.823 128.908 287.614 128.108 287.598 127.075C287.581 126.525 287.656 125.975 287.823 125.425C287.989 124.875 288.264 124.375 288.648 123.925C289.031 123.475 289.539 123.108 290.173 122.825C290.806 122.542 291.581 122.4 292.498 122.4C292.798 122.4 293.123 122.417 293.473 122.45C293.823 122.483 294.189 122.55 294.573 122.65C294.956 122.75 295.348 122.9 295.748 123.1C296.164 123.3 296.573 123.567 296.973 123.9V126.35H294.998V124.875C294.681 124.742 294.314 124.625 293.898 124.525C293.481 124.425 293.023 124.375 292.523 124.375C291.556 124.375 290.839 124.65 290.373 125.2C289.906 125.75 289.673 126.4 289.673 127.15C289.673 127.65 289.789 128.058 290.023 128.375C290.256 128.675 290.564 128.933 290.948 129.15C291.331 129.35 291.764 129.525 292.248 129.675C292.748 129.825 293.248 129.992 293.748 130.175C294.264 130.342 294.764 130.55 295.248 130.8C295.748 131.033 296.189 131.35 296.573 131.75C296.956 132.133 297.264 132.617 297.498 133.2C297.731 133.767 297.848 134.475 297.848 135.325C297.848 136.075 297.706 136.75 297.423 137.35C297.156 137.95 296.781 138.467 296.298 138.9C295.831 139.317 295.281 139.642 294.648 139.875C294.014 140.092 293.348 140.2 292.648 140.2C292.014 140.2 291.398 140.133 290.798 140C290.198 139.85 289.648 139.658 289.148 139.425C288.648 139.192 288.198 138.925 287.798 138.625C287.414 138.325 287.114 138.008 286.898 137.675Z" fill="#313131"/>
<path d="M302.936 138.025H305.086V124.475H301.161V126.35H299.186V122.5H313.011V126.35H311.036V124.475H307.161V138.025H308.986V140H302.936V138.025Z" fill="#313131"/>
<path d="M314.762 122.5H320.812V124.475H318.762V134.275C318.762 134.908 318.862 135.475 319.062 135.975C319.279 136.458 319.571 136.867 319.937 137.2C320.321 137.533 320.771 137.792 321.287 137.975C321.804 138.142 322.371 138.225 322.987 138.225C323.604 138.225 324.171 138.142 324.687 137.975C325.204 137.792 325.646 137.533 326.012 137.2C326.396 136.867 326.696 136.458 326.912 135.975C327.129 135.475 327.237 134.908 327.237 134.275V124.475H325.187V122.5H331.237V124.475H329.312V134.35C329.312 135.3 329.146 136.142 328.812 136.875C328.496 137.608 328.054 138.225 327.487 138.725C326.921 139.208 326.254 139.575 325.487 139.825C324.721 140.075 323.887 140.2 322.987 140.2C322.087 140.2 321.254 140.075 320.487 139.825C319.721 139.575 319.054 139.208 318.487 138.725C317.921 138.225 317.479 137.608 317.162 136.875C316.846 136.142 316.687 135.3 316.687 134.35V124.475H314.762V122.5Z" fill="#313131"/>
<path d="M332.975 122.5H339.025V124.475H337.225C338.008 126.292 338.775 128.108 339.525 129.925C340.292 131.742 341.067 133.558 341.85 135.375L342.075 136.2L342.3 135.375C343.083 133.558 343.85 131.75 344.6 129.95C345.367 128.133 346.133 126.308 346.9 124.475H345.425V122.5H351.475V124.475H349C347.85 127.225 346.692 129.95 345.525 132.65C344.375 135.333 343.225 138.05 342.075 140.8C340.925 138.05 339.767 135.333 338.6 132.65C337.45 129.95 336.3 127.225 335.15 124.475H332.975V122.5Z" fill="#313131"/>
<path d="M353.214 122.5H359.264V124.475H357.464C358.248 126.292 359.014 128.108 359.764 129.925C360.531 131.742 361.306 133.558 362.089 135.375L362.314 136.2C362.514 135.45 362.756 134.708 363.039 133.975C363.339 133.225 363.648 132.483 363.964 131.75C364.298 131 364.631 130.258 364.964 129.525C365.314 128.792 365.639 128.067 365.939 127.35C365.739 126.867 365.531 126.392 365.314 125.925C365.114 125.442 364.914 124.958 364.714 124.475H362.414V122.5H368.464V124.475H366.789C367.573 126.292 368.339 128.108 369.089 129.925C369.856 131.742 370.631 133.558 371.414 135.375L371.639 136.2L371.864 135.375C372.648 133.558 373.414 131.75 374.164 129.95C374.931 128.133 375.698 126.308 376.464 124.475H374.864V122.5H380.914V124.475H378.564C377.414 127.225 376.256 129.95 375.089 132.65C373.939 135.333 372.789 138.05 371.639 140.8L367.214 130.375L366.964 129.5C366.731 130.433 366.431 131.383 366.064 132.35C365.698 133.3 365.298 134.25 364.864 135.2C364.431 136.15 363.989 137.1 363.539 138.05C363.106 138.983 362.698 139.9 362.314 140.8C361.164 138.05 360.006 135.333 358.839 132.65C357.689 129.95 356.539 127.225 355.389 124.475H353.214V122.5Z" fill="#313131"/>
<path d="M382.658 122.5H388.708V124.475H387.333C387.799 125.208 388.266 125.933 388.733 126.65C389.199 127.35 389.666 128.058 390.133 128.775L390.458 129.45L390.783 128.775L393.583 124.475H392.208V122.5H398.258V124.475H396.108C395.374 125.608 394.649 126.742 393.933 127.875C393.216 128.992 392.483 130.108 391.733 131.225C392.483 132.375 393.224 133.508 393.958 134.625C394.691 135.742 395.433 136.875 396.183 138.025H398.258V140H392.208V138.025H393.583L390.683 133.55C390.616 133.433 390.558 133.317 390.508 133.2C390.458 133.083 390.399 132.967 390.333 132.85L390.008 133.55C389.524 134.3 389.041 135.05 388.558 135.8C388.074 136.533 387.591 137.275 387.108 138.025H388.708V140H382.658V138.025H384.533L389.083 131.075L384.783 124.475H382.658V122.5Z" fill="#313131"/>
<path d="M406.066 138.025H407.741V133.25C406.858 131.783 405.983 130.325 405.116 128.875C404.266 127.408 403.408 125.942 402.541 124.475H400.016V122.5H406.066V124.475H405.066C405.683 125.492 406.291 126.508 406.891 127.525C407.491 128.542 408.099 129.558 408.716 130.575L408.991 131.35H409.016L409.316 130.575L412.916 124.475H411.941V122.5H417.991V124.475H415.466C414.599 125.942 413.733 127.408 412.866 128.875C412.016 130.342 411.158 131.808 410.291 133.275V138.025H412.116V140H406.066V138.025Z" fill="#313131"/>
<path d="M433.718 133.95V140H419.743V138L430.443 124.475H420.143V121.625H422.218V122.5H432.993V124.475L422.293 138H431.743V133.95H433.718Z" fill="#313131"/>
<path d="M64.3845 61.825C64.3845 60.5583 64.5595 59.4166 64.9095 58.4C65.2761 57.3666 65.7595 56.4916 66.3595 55.775C66.9761 55.0583 67.6928 54.5083 68.5095 54.125C69.3261 53.7416 70.2011 53.55 71.1345 53.55C72.0678 53.55 72.9428 53.75 73.7595 54.15C74.5761 54.55 75.2845 55.1166 75.8845 55.85C76.4845 56.5666 76.9511 57.4416 77.2845 58.475C77.6178 59.5083 77.7845 60.6583 77.7845 61.925C77.7845 63.1916 77.5845 64.3333 77.1845 65.35C76.8011 66.3666 76.2928 67.2416 75.6595 67.975C75.0261 68.6916 74.3095 69.2416 73.5095 69.625C72.7095 70.0083 71.8845 70.2 71.0345 70.2C70.1845 70.2 69.3595 70 68.5595 69.6C67.7595 69.2 67.0428 68.6333 66.4095 67.9C65.7928 67.1666 65.3011 66.2916 64.9345 65.275C64.5678 64.2416 64.3845 63.0916 64.3845 61.825ZM66.4845 61.85C66.4845 62.7333 66.6011 63.5583 66.8345 64.325C67.0678 65.0916 67.3928 65.7583 67.8095 66.325C68.2261 66.8916 68.7095 67.3416 69.2595 67.675C69.8095 68.0083 70.4011 68.175 71.0345 68.175C71.6511 68.175 72.2428 68.0166 72.8095 67.7C73.3761 67.3833 73.8678 66.9416 74.2845 66.375C74.7178 65.8083 75.0595 65.1416 75.3095 64.375C75.5595 63.6083 75.6845 62.7833 75.6845 61.9C75.6845 61.3 75.6095 60.6333 75.4595 59.9C75.3095 59.1666 75.0511 58.4833 74.6845 57.85C74.3345 57.2 73.8678 56.6583 73.2845 56.225C72.7011 55.7916 71.9845 55.575 71.1345 55.575C70.2845 55.575 69.5595 55.7916 68.9595 56.225C68.3761 56.6416 67.9011 57.1666 67.5345 57.8C67.1678 58.4333 66.9011 59.1166 66.7345 59.85C66.5678 60.5833 66.4845 61.25 66.4845 61.85Z" fill="#313131"/>
<path d="M79.4397 68.025H81.4147V55.775H79.7147V53.75H83.5147V68.025H85.4897V70H79.4397V68.025Z" fill="#313131"/>
<path d="M92.4407 67.975H96.5407V65.65H98.5157V70H87.4407C88.4741 68.9666 89.4741 67.9666 90.4407 67C91.4074 66.0166 92.2657 65.075 93.0157 64.175C93.7657 63.2583 94.3657 62.375 94.8157 61.525C95.2657 60.6583 95.4907 59.8333 95.4907 59.05C95.4907 58.4333 95.3907 57.9083 95.1907 57.475C94.9907 57.0416 94.7324 56.6833 94.4157 56.4C94.1157 56.1166 93.7824 55.9083 93.4157 55.775C93.0657 55.6416 92.7407 55.575 92.4407 55.575C91.8074 55.575 91.2907 55.6833 90.8907 55.9C90.4907 56.1166 90.1741 56.3833 89.9407 56.7C89.7074 57.0166 89.5407 57.35 89.4407 57.7C89.3574 58.05 89.3157 58.3583 89.3157 58.625C89.3157 59.175 89.3991 59.6666 89.5657 60.1C89.7324 60.5166 89.9741 60.8916 90.2907 61.225L89.0407 62.5C88.7574 62.3166 88.4991 62.075 88.2657 61.775C88.0491 61.4583 87.8574 61.125 87.6907 60.775C87.5407 60.4083 87.4241 60.0416 87.3407 59.675C87.2574 59.2916 87.2157 58.9416 87.2157 58.625C87.2157 57.9583 87.3241 57.3166 87.5407 56.7C87.7741 56.0833 88.1074 55.5416 88.5407 55.075C88.9907 54.6083 89.5407 54.2416 90.1907 53.975C90.8407 53.6916 91.5907 53.55 92.4407 53.55C93.2074 53.55 93.9074 53.6916 94.5407 53.975C95.1741 54.2583 95.7157 54.6416 96.1657 55.125C96.6157 55.5916 96.9657 56.1416 97.2157 56.775C97.4657 57.3916 97.5907 58.05 97.5907 58.75C97.5907 59.5833 97.4407 60.3916 97.1407 61.175C96.8574 61.9416 96.4741 62.7083 95.9907 63.475C95.5241 64.2416 94.9824 65 94.3657 65.75C93.7491 66.4833 93.1074 67.225 92.4407 67.975Z" fill="#313131"/>
<path d="M102.93 61.85L106.405 55.8H103.63V56.975H101.655V53.75H109.88L106.305 59.7C106.855 59.9 107.355 60.1666 107.805 60.5C108.255 60.8166 108.646 61.1916 108.98 61.625C109.313 62.0583 109.571 62.5416 109.755 63.075C109.938 63.6083 110.03 64.175 110.03 64.775C110.03 65.525 109.88 66.2333 109.58 66.9C109.296 67.55 108.905 68.125 108.405 68.625C107.905 69.1083 107.321 69.4916 106.655 69.775C106.005 70.0583 105.305 70.2 104.555 70.2C103.755 70.2 103.013 70.0416 102.33 69.725C101.646 69.3916 101.055 68.9583 100.555 68.425L102.08 67C102.38 67.3666 102.738 67.6583 103.155 67.875C103.588 68.075 104.055 68.175 104.555 68.175C105.021 68.175 105.455 68.0833 105.855 67.9C106.271 67.7166 106.63 67.475 106.93 67.175C107.246 66.8583 107.496 66.5 107.68 66.1C107.863 65.6833 107.955 65.2416 107.955 64.775C107.955 64.3083 107.863 63.875 107.68 63.475C107.496 63.0583 107.246 62.7 106.93 62.4C106.63 62.1 106.271 61.8666 105.855 61.7C105.455 61.5166 105.021 61.425 104.555 61.425C103.955 61.425 103.413 61.5666 102.93 61.85Z" fill="#313131"/>
<path d="M118.046 68.025H119.921V65.425H112.871L122.021 53.55V63.4H124.446V65.425H122.021V68.025H124.096V70H118.046V68.025ZM119.921 59.675L117.071 63.4H119.921V59.675Z" fill="#313131"/>
<path d="M135.928 53.75V56.975H133.953V55.775H130.853V59.45C130.953 59.4333 131.053 59.425 131.153 59.425C131.27 59.4083 131.387 59.4 131.503 59.4C132.253 59.4 132.953 59.5416 133.603 59.825C134.27 60.0916 134.853 60.475 135.353 60.975C135.853 61.4583 136.245 62.025 136.528 62.675C136.828 63.325 136.978 64.025 136.978 64.775C136.978 65.525 136.828 66.2333 136.528 66.9C136.245 67.55 135.853 68.125 135.353 68.625C134.853 69.1083 134.27 69.4916 133.603 69.775C132.953 70.0583 132.253 70.2 131.503 70.2C130.77 70.2 130.078 70.0666 129.428 69.8C128.795 69.5333 128.237 69.1583 127.753 68.675L129.278 67.275C129.562 67.5583 129.895 67.7833 130.278 67.95C130.662 68.1 131.07 68.175 131.503 68.175C131.97 68.175 132.403 68.0833 132.803 67.9C133.22 67.7166 133.578 67.475 133.878 67.175C134.195 66.8583 134.445 66.5 134.628 66.1C134.812 65.6833 134.903 65.2416 134.903 64.775C134.903 64.3083 134.812 63.875 134.628 63.475C134.445 63.0583 134.195 62.7 133.878 62.4C133.578 62.1 133.22 61.8666 132.803 61.7C132.403 61.5166 131.97 61.425 131.503 61.425C130.92 61.425 130.387 61.525 129.903 61.725C129.42 61.9083 129.037 62.2333 128.753 62.7V53.75H135.928Z" fill="#313131"/>
<path d="M142.102 64.775C142.102 65.2416 142.186 65.6833 142.352 66.1C142.519 66.5 142.752 66.8583 143.052 67.175C143.352 67.475 143.702 67.7166 144.102 67.9C144.502 68.0833 144.927 68.175 145.377 68.175C145.844 68.175 146.277 68.0833 146.677 67.9C147.094 67.7166 147.452 67.475 147.752 67.175C148.069 66.8583 148.319 66.5 148.502 66.1C148.686 65.6833 148.777 65.2416 148.777 64.775C148.777 64.3083 148.686 63.875 148.502 63.475C148.319 63.0583 148.069 62.7 147.752 62.4C147.452 62.1 147.094 61.8666 146.677 61.7C146.277 61.5166 145.844 61.425 145.377 61.425C144.927 61.425 144.502 61.5166 144.102 61.7C143.702 61.8666 143.352 62.1 143.052 62.4C142.752 62.7 142.519 63.0583 142.352 63.475C142.186 63.875 142.102 64.3083 142.102 64.775ZM139.952 65.075C139.952 63.875 140.202 62.7583 140.702 61.725C141.219 60.675 141.877 59.7 142.677 58.8C143.477 57.9 144.369 57.0583 145.352 56.275C146.336 55.4916 147.294 54.7583 148.227 54.075C148.444 54.3416 148.661 54.6083 148.877 54.875C149.094 55.1416 149.311 55.4083 149.527 55.675C148.444 56.3916 147.527 57.0666 146.777 57.7C146.027 58.3166 145.386 58.8916 144.852 59.425C144.936 59.425 145.019 59.425 145.102 59.425C145.202 59.4083 145.294 59.4 145.377 59.4C146.127 59.4 146.827 59.5416 147.477 59.825C148.144 60.0916 148.727 60.475 149.227 60.975C149.727 61.4583 150.119 62.025 150.402 62.675C150.702 63.325 150.852 64.025 150.852 64.775C150.852 65.525 150.702 66.2333 150.402 66.9C150.119 67.55 149.727 68.125 149.227 68.625C148.727 69.1083 148.144 69.4916 147.477 69.775C146.827 70.0583 146.127 70.2 145.377 70.2C144.661 70.2 143.977 70.0666 143.327 69.8C142.694 69.5333 142.127 69.175 141.627 68.725C141.144 68.2583 140.752 67.7166 140.452 67.1C140.152 66.4666 139.986 65.7916 139.952 65.075Z" fill="#313131"/>
<path d="M162.416 53.75L155.116 70H152.741L159.166 55.8H154.066V56.975H152.091V53.75H162.416Z" fill="#313131"/>
<path d="M167.959 57.55C167.959 58.0833 168.143 58.525 168.509 58.875C168.876 59.225 169.318 59.4 169.834 59.4C170.368 59.4 170.809 59.225 171.159 58.875C171.526 58.525 171.709 58.0833 171.709 57.55C171.709 57.0166 171.526 56.5583 171.159 56.175C170.809 55.775 170.368 55.575 169.834 55.575C169.318 55.575 168.876 55.775 168.509 56.175C168.143 56.5583 167.959 57.0166 167.959 57.55ZM166.509 64.775C166.509 65.2416 166.593 65.6833 166.759 66.1C166.926 66.5 167.159 66.8583 167.459 67.175C167.759 67.475 168.109 67.7166 168.509 67.9C168.909 68.0833 169.334 68.175 169.784 68.175C170.251 68.175 170.684 68.0833 171.084 67.9C171.501 67.7166 171.859 67.475 172.159 67.175C172.476 66.8583 172.726 66.5 172.909 66.1C173.093 65.6833 173.184 65.2416 173.184 64.775C173.184 64.325 173.093 63.9 172.909 63.5C172.743 63.1 172.509 62.75 172.209 62.45C171.926 62.15 171.584 61.9083 171.184 61.725C170.784 61.5416 170.359 61.4416 169.909 61.425C169.426 61.425 168.976 61.5166 168.559 61.7C168.143 61.8666 167.784 62.1 167.484 62.4C167.184 62.7 166.943 63.0583 166.759 63.475C166.593 63.875 166.509 64.3083 166.509 64.775ZM164.359 64.775C164.359 63.8083 164.593 62.9333 165.059 62.15C165.526 61.35 166.143 60.7083 166.909 60.225C166.576 59.8916 166.309 59.5 166.109 59.05C165.926 58.5833 165.834 58.0833 165.834 57.55C165.834 57 165.934 56.4833 166.134 56C166.351 55.5166 166.634 55.0916 166.984 54.725C167.351 54.3583 167.768 54.075 168.234 53.875C168.718 53.6583 169.234 53.55 169.784 53.55C170.334 53.55 170.851 53.6583 171.334 53.875C171.818 54.075 172.243 54.3583 172.609 54.725C172.976 55.0916 173.259 55.5166 173.459 56C173.676 56.4833 173.784 57 173.784 57.55C173.784 58.0833 173.684 58.5833 173.484 59.05C173.284 59.5 173.018 59.8916 172.684 60.225C173.451 60.7083 174.068 61.35 174.534 62.15C175.018 62.9333 175.259 63.8083 175.259 64.775C175.259 65.525 175.109 66.2333 174.809 66.9C174.526 67.55 174.134 68.125 173.634 68.625C173.134 69.1083 172.551 69.4916 171.884 69.775C171.234 70.0583 170.534 70.2 169.784 70.2C169.034 70.2 168.326 70.0583 167.659 69.775C167.009 69.4916 166.434 69.1083 165.934 68.625C165.451 68.125 165.068 67.55 164.784 66.9C164.501 66.2333 164.359 65.525 164.359 64.775Z" fill="#313131"/>
<path d="M185.604 59.525C185.604 59.0583 185.52 58.625 185.354 58.225C185.187 57.8083 184.954 57.45 184.654 57.15C184.354 56.8333 184.004 56.5833 183.604 56.4C183.204 56.2166 182.779 56.125 182.329 56.125C181.862 56.125 181.42 56.2166 181.004 56.4C180.604 56.5833 180.245 56.8333 179.929 57.15C179.629 57.45 179.387 57.8083 179.204 58.225C179.02 58.625 178.929 59.0583 178.929 59.525C178.929 59.9916 179.02 60.4333 179.204 60.85C179.387 61.25 179.629 61.6 179.929 61.9C180.245 62.2 180.604 62.4416 181.004 62.625C181.42 62.7916 181.862 62.875 182.329 62.875C182.779 62.875 183.204 62.7916 183.604 62.625C184.004 62.4416 184.354 62.2 184.654 61.9C184.954 61.6 185.187 61.25 185.354 60.85C185.52 60.4333 185.604 59.9916 185.604 59.525ZM187.754 59.525C187.754 60.6583 187.487 61.7333 186.954 62.75C186.437 63.7666 185.77 64.725 184.954 65.625C184.137 66.5083 183.245 67.3333 182.279 68.1C181.312 68.8666 180.379 69.575 179.479 70.225C179.262 69.9583 179.045 69.6916 178.829 69.425C178.612 69.1583 178.395 68.8916 178.179 68.625C179.262 67.9083 180.179 67.2416 180.929 66.625C181.679 65.9916 182.32 65.4083 182.854 64.875C182.77 64.8916 182.679 64.9 182.579 64.9C182.495 64.9 182.412 64.9 182.329 64.9C181.579 64.9 180.87 64.7666 180.204 64.5C179.554 64.2166 178.979 63.8333 178.479 63.35C177.979 62.85 177.579 62.275 177.279 61.625C176.995 60.975 176.854 60.275 176.854 59.525C176.854 58.775 176.995 58.075 177.279 57.425C177.579 56.7583 177.979 56.1833 178.479 55.7C178.979 55.2 179.554 54.8083 180.204 54.525C180.87 54.2416 181.579 54.1 182.329 54.1C183.079 54.1 183.779 54.25 184.429 54.55C185.095 54.8333 185.67 55.225 186.154 55.725C186.654 56.2083 187.045 56.7833 187.329 57.45C187.612 58.1 187.754 58.7916 187.754 59.525Z" fill="#313131"/>
<path d="M199.333 70C199 70 198.7 69.875 198.434 69.625C198.167 69.375 198.033 69.0583 198.033 68.675C198.033 68.2916 198.167 67.9833 198.434 67.75C198.7 67.5 199 67.375 199.333 67.375C199.65 67.375 199.942 67.5 200.208 67.75C200.475 67.9833 200.608 68.2916 200.608 68.675C200.608 69.0583 200.475 69.375 200.208 69.625C199.942 69.875 199.65 70 199.333 70ZM198.283 51.25H200.358V65.85H198.283V51.25Z" fill="#313131"/>
<path d="M211.063 65.3C211.063 66.1166 211.329 66.8083 211.863 67.375C212.413 67.925 213.121 68.2 213.988 68.2C214.854 68.2 215.554 67.925 216.088 67.375C216.638 66.8083 216.913 66.1166 216.913 65.3C216.913 64.4666 216.638 63.7833 216.088 63.25C215.554 62.7 214.854 62.425 213.988 62.425C213.121 62.425 212.413 62.7 211.863 63.25C211.329 63.7833 211.063 64.4666 211.063 65.3ZM224.613 65.3C224.546 66.1833 224.338 66.925 223.988 67.525C223.654 68.1083 223.254 68.5916 222.788 68.975C222.321 69.3416 221.821 69.6083 221.288 69.775C220.754 69.925 220.263 70 219.813 70H217.163V69C217.146 69.05 217.063 69.1416 216.913 69.275C216.763 69.4083 216.546 69.5416 216.263 69.675C215.996 69.8083 215.671 69.9333 215.288 70.05C214.904 70.1666 214.471 70.225 213.988 70.225C213.288 70.225 212.629 70.1 212.013 69.85C211.396 69.5833 210.863 69.225 210.413 68.775C209.963 68.325 209.604 67.8083 209.338 67.225C209.088 66.625 208.963 65.9916 208.963 65.325C208.963 64.675 209.088 64.0583 209.338 63.475C209.604 62.875 209.963 62.35 210.413 61.9C210.863 61.45 211.396 61.1 212.013 60.85C212.629 60.5833 213.288 60.45 213.988 60.45C214.421 60.45 214.821 60.5083 215.188 60.625C215.571 60.7416 215.904 60.8833 216.188 61.05C216.471 61.2 216.696 61.35 216.863 61.5C217.029 61.65 217.129 61.75 217.163 61.8C217.163 61.6166 217.179 61.425 217.213 61.225C217.246 61.025 217.263 60.825 217.263 60.625H218.988V67.975H219.813C220.146 67.975 220.471 67.9333 220.788 67.85C221.104 67.75 221.388 67.6 221.638 67.4C221.888 67.1833 222.088 66.9083 222.238 66.575C222.388 66.225 222.479 65.8 222.513 65.3C222.513 64.1166 222.288 63.0083 221.838 61.975C221.404 60.9416 220.804 60.0416 220.038 59.275C219.271 58.4916 218.379 57.8833 217.363 57.45C216.346 57 215.254 56.775 214.088 56.775C212.904 56.775 211.796 57 210.763 57.45C209.746 57.8833 208.846 58.4916 208.063 59.275C207.296 60.0416 206.688 60.9416 206.238 61.975C205.804 63.0083 205.588 64.1166 205.588 65.3C205.588 66.4833 205.804 67.5916 206.238 68.625C206.688 69.6416 207.296 70.5333 208.063 71.3C208.846 72.0666 209.746 72.6666 210.763 73.1C211.796 73.55 212.904 73.775 214.088 73.775C215.071 73.775 215.996 73.625 216.863 73.325C217.746 73.0416 218.563 72.6416 219.313 72.125C219.529 72.375 219.738 72.6166 219.938 72.85C220.138 73.1 220.346 73.35 220.563 73.6C220.146 73.9666 219.679 74.2833 219.163 74.55C218.646 74.8333 218.096 75.0666 217.513 75.25C216.946 75.4333 216.371 75.5666 215.788 75.65C215.204 75.75 214.638 75.8 214.088 75.8C212.621 75.8 211.246 75.525 209.963 74.975C208.679 74.425 207.554 73.675 206.588 72.725C205.638 71.775 204.879 70.6583 204.313 69.375C203.763 68.0916 203.488 66.725 203.488 65.275C203.488 63.825 203.763 62.4583 204.313 61.175C204.879 59.8916 205.638 58.775 206.588 57.825C207.554 56.875 208.679 56.125 209.963 55.575C211.246 55.025 212.621 54.75 214.088 54.75C215.538 54.75 216.904 55.025 218.188 55.575C219.471 56.125 220.588 56.875 221.538 57.825C222.488 58.775 223.238 59.8916 223.788 61.175C224.338 62.4583 224.613 63.8333 224.613 65.3Z" fill="#313131"/>
<path d="M232.194 60.725L231.894 63.275H234.394L234.694 60.725H232.194ZM233.594 70C233.677 69.2 233.769 68.4166 233.869 67.65C233.969 66.8833 234.06 66.1 234.144 65.3H231.644C231.56 66.1 231.469 66.8833 231.369 67.65C231.269 68.4166 231.177 69.2 231.094 70H228.994C229.077 69.2 229.169 68.4166 229.269 67.65C229.369 66.8833 229.46 66.1 229.544 65.3H227.244C227.277 64.9666 227.319 64.6333 227.369 64.3C227.419 63.95 227.46 63.6083 227.494 63.275H229.794L230.094 60.725H227.819C227.852 60.3916 227.885 60.0583 227.919 59.725C227.952 59.375 227.985 59.0333 228.019 58.7H230.319C230.419 57.9 230.519 57.1083 230.619 56.325C230.719 55.525 230.819 54.725 230.919 53.925H233.019C232.919 54.725 232.819 55.525 232.719 56.325C232.619 57.1083 232.519 57.9 232.419 58.7H234.919C235.019 57.9 235.119 57.1083 235.219 56.325C235.319 55.525 235.419 54.725 235.519 53.925H237.619C237.519 54.725 237.419 55.525 237.319 56.325C237.219 57.1083 237.119 57.9 237.019 58.7H239.569C239.535 59.0333 239.502 59.375 239.469 59.725C239.435 60.0583 239.402 60.3916 239.369 60.725H236.794L236.494 63.275H239.044C239.01 63.6083 238.969 63.95 238.919 64.3C238.869 64.6333 238.827 64.9666 238.794 65.3H236.244C236.16 66.1 236.069 66.8833 235.969 67.65C235.869 68.4166 235.777 69.2 235.694 70H233.594Z" fill="#313131"/>
<path d="M249.526 56.35V54.875C249.293 54.775 249.043 54.6833 248.776 54.6C248.526 54.5166 248.243 54.4583 247.926 54.425V60.05C248.459 60.2333 248.993 60.4416 249.526 60.675C250.059 60.9083 250.534 61.2166 250.951 61.6C251.384 61.9833 251.726 62.475 251.976 63.075C252.243 63.675 252.376 64.425 252.376 65.325C252.376 66.0083 252.259 66.6333 252.026 67.2C251.793 67.75 251.476 68.2333 251.076 68.65C250.676 69.0666 250.201 69.4083 249.651 69.675C249.118 69.925 248.543 70.0833 247.926 70.15V71.7H245.826V70.075C244.826 69.925 243.934 69.625 243.151 69.175C242.368 68.725 241.793 68.225 241.426 67.675V64.775H243.401V67C243.734 67.25 244.101 67.475 244.501 67.675C244.901 67.875 245.343 68.025 245.826 68.125V61.425C245.343 61.275 244.884 61.1 244.451 60.9C244.018 60.7 243.626 60.4416 243.276 60.125C242.943 59.7916 242.668 59.3833 242.451 58.9C242.251 58.4166 242.143 57.8083 242.126 57.075C242.109 56.6083 242.159 56.1333 242.276 55.65C242.409 55.15 242.626 54.6916 242.926 54.275C243.226 53.8416 243.609 53.475 244.076 53.175C244.559 52.8583 245.143 52.6333 245.826 52.5V50.9H247.926V52.45C248.459 52.5 249.026 52.625 249.626 52.825C250.243 53.025 250.868 53.3833 251.501 53.9V56.35H249.526ZM250.301 65.3C250.301 64.8333 250.234 64.4333 250.101 64.1C249.984 63.75 249.818 63.45 249.601 63.2C249.401 62.95 249.151 62.7416 248.851 62.575C248.568 62.3916 248.259 62.2333 247.926 62.1V68.125C248.593 67.975 249.151 67.6666 249.601 67.2C250.068 66.7333 250.301 66.1 250.301 65.3ZM244.201 57.15C244.201 57.7166 244.351 58.1666 244.651 58.5C244.951 58.8166 245.343 59.0916 245.826 59.325V54.6C245.276 54.8166 244.868 55.1583 244.601 55.625C244.334 56.075 244.201 56.5833 244.201 57.15Z" fill="#313131"/>
<path d="M267.035 67.225C267.035 67.5583 267.135 67.8333 267.335 68.05C267.535 68.2666 267.802 68.375 268.135 68.375C268.469 68.375 268.735 68.2666 268.935 68.05C269.135 67.8333 269.235 67.5583 269.235 67.225C269.235 66.8916 269.135 66.625 268.935 66.425C268.735 66.2083 268.469 66.1 268.135 66.1C267.802 66.1 267.535 66.2083 267.335 66.425C267.135 66.625 267.035 66.8916 267.035 67.225ZM268.135 70.4C267.702 70.4 267.285 70.3166 266.885 70.15C266.502 69.9833 266.16 69.7583 265.86 69.475C265.577 69.1916 265.352 68.8583 265.185 68.475C265.019 68.0916 264.935 67.675 264.935 67.225C264.935 66.7916 265.019 66.3833 265.185 66C265.352 65.6166 265.577 65.2833 265.86 65C266.16 64.7166 266.502 64.4916 266.885 64.325C267.285 64.1583 267.702 64.075 268.135 64.075C268.569 64.075 268.977 64.1583 269.36 64.325C269.744 64.4916 270.077 64.7166 270.36 65C270.66 65.2833 270.894 65.6166 271.06 66C271.244 66.3833 271.335 66.7916 271.335 67.225C271.335 67.675 271.244 68.0916 271.06 68.475C270.894 68.8583 270.66 69.1916 270.36 69.475C270.077 69.7583 269.744 69.9833 269.36 70.15C268.977 70.3166 268.569 70.4 268.135 70.4ZM259.435 60.275C259.435 60.6083 259.535 60.8833 259.735 61.1C259.935 61.3166 260.202 61.425 260.535 61.425C260.869 61.425 261.135 61.3166 261.335 61.1C261.535 60.8833 261.635 60.6083 261.635 60.275C261.635 59.9416 261.535 59.675 261.335 59.475C261.135 59.2583 260.869 59.15 260.535 59.15C260.202 59.15 259.935 59.2583 259.735 59.475C259.535 59.675 259.435 59.9416 259.435 60.275ZM260.535 63.45C260.102 63.45 259.685 63.3666 259.285 63.2C258.902 63.0333 258.56 62.8083 258.26 62.525C257.977 62.2416 257.752 61.9083 257.585 61.525C257.419 61.1416 257.335 60.725 257.335 60.275C257.335 59.8416 257.419 59.4333 257.585 59.05C257.752 58.6666 257.977 58.3333 258.26 58.05C258.56 57.7666 258.902 57.5416 259.285 57.375C259.685 57.2083 260.102 57.125 260.535 57.125C260.969 57.125 261.377 57.2083 261.76 57.375C262.144 57.5416 262.477 57.7666 262.76 58.05C263.06 58.3333 263.294 58.6666 263.46 59.05C263.644 59.4333 263.735 59.8416 263.735 60.275C263.735 60.725 263.644 61.1416 263.46 61.525C263.294 61.9083 263.06 62.2416 262.76 62.525C262.477 62.8083 262.144 63.0333 261.76 63.2C261.377 63.3666 260.969 63.45 260.535 63.45ZM259.435 70C260.685 67.9 261.927 65.8166 263.16 63.75C264.394 61.6833 265.635 59.6 266.885 57.5H269.16C267.91 59.6 266.669 61.6833 265.435 63.75C264.202 65.8166 262.96 67.9 261.71 70H259.435Z" fill="#313131"/>
<path d="M279.025 53.5C279.525 54.25 280.025 55.0083 280.525 55.775C281.025 56.525 281.525 57.275 282.025 58.025H280.55C280.3 57.725 280.042 57.425 279.775 57.125C279.525 56.825 279.275 56.525 279.025 56.225C278.775 56.525 278.517 56.825 278.25 57.125C278 57.425 277.75 57.725 277.5 58.025H276.025C276.525 57.275 277.025 56.525 277.525 55.775C278.025 55.0083 278.525 54.25 279.025 53.5Z" fill="#313131"/>
<path d="M295.518 60.625H299.993V62.65H297.618V64.65C297.618 64.9333 297.61 65.2333 297.593 65.55C297.577 65.85 297.543 66.125 297.493 66.375L299.368 69.4L297.743 70.475L296.493 68.425C296.027 68.975 295.46 69.4166 294.793 69.75C294.127 70.0666 293.393 70.225 292.593 70.225C291.893 70.225 291.235 70.1 290.618 69.85C290.018 69.5833 289.493 69.225 289.043 68.775C288.593 68.325 288.235 67.8083 287.968 67.225C287.718 66.625 287.593 65.9833 287.593 65.3C287.593 64.7 287.693 64.1333 287.893 63.6C288.093 63.0666 288.377 62.5916 288.743 62.175C289.11 61.7416 289.535 61.3833 290.018 61.1C290.502 60.8 291.035 60.6 291.618 60.5L289.868 57.6C289.635 57.2 289.452 56.7916 289.318 56.375C289.185 55.9416 289.118 55.5166 289.118 55.1C289.118 54.6833 289.202 54.2583 289.368 53.825C289.552 53.375 289.81 52.9666 290.143 52.6C290.477 52.2166 290.885 51.9083 291.368 51.675C291.852 51.425 292.41 51.3 293.043 51.3C293.677 51.3 294.277 51.4166 294.843 51.65C295.41 51.8666 295.902 52.1083 296.318 52.375L295.493 54C295.243 53.8666 294.91 53.7166 294.493 53.55C294.093 53.3666 293.693 53.275 293.293 53.275C292.943 53.275 292.643 53.35 292.393 53.5C292.143 53.65 291.935 53.8416 291.768 54.075C291.602 54.2916 291.477 54.5333 291.393 54.8C291.31 55.05 291.268 55.275 291.268 55.475C291.268 55.7583 291.31 56.0416 291.393 56.325C291.493 56.5916 291.627 56.8583 291.793 57.125L295.518 63.175V60.625ZM289.668 65.3C289.668 66.1166 289.935 66.8083 290.468 67.375C291.018 67.925 291.727 68.2 292.593 68.2C293.227 68.2 293.777 68.0416 294.243 67.725C294.727 67.4083 295.077 66.9916 295.293 66.475L292.818 62.425C291.868 62.425 291.102 62.6833 290.518 63.2C289.952 63.7 289.668 64.4 289.668 65.3Z" fill="#313131"/>
<path d="M308.723 55.625L310.298 56.525C310.115 56.825 309.94 57.1333 309.773 57.45C309.606 57.75 309.431 58.05 309.248 58.35C308.981 58.2 308.723 58.05 308.473 57.9C308.223 57.7333 307.965 57.575 307.698 57.425C307.698 57.7083 307.69 58 307.673 58.3C307.673 58.5833 307.673 58.8666 307.673 59.15H305.673V57.4C305.423 57.55 305.165 57.7 304.898 57.85C304.648 57.9833 304.398 58.125 304.148 58.275C303.965 57.975 303.79 57.675 303.623 57.375C303.456 57.0583 303.281 56.75 303.098 56.45C303.365 56.3166 303.623 56.175 303.873 56.025C304.123 55.875 304.381 55.7333 304.648 55.6C304.398 55.45 304.14 55.3 303.873 55.15C303.623 54.9833 303.373 54.825 303.123 54.675L304.098 52.95C304.365 53.1 304.623 53.2583 304.873 53.425C305.14 53.575 305.406 53.725 305.673 53.875V52H307.773C307.773 52.3166 307.765 52.6333 307.748 52.95C307.748 53.25 307.748 53.5583 307.748 53.875C308.015 53.725 308.281 53.575 308.548 53.425C308.815 53.275 309.081 53.125 309.348 52.975C309.515 53.2583 309.681 53.55 309.848 53.85C310.015 54.1333 310.181 54.4166 310.348 54.7C310.065 54.85 309.79 55.0083 309.523 55.175C309.273 55.325 309.006 55.475 308.723 55.625Z" fill="#313131"/>
<path d="M313.722 62.725C313.722 61.475 313.839 60.2833 314.072 59.15C314.306 58.0166 314.614 56.9666 314.997 56C315.38 55.0333 315.814 54.1583 316.297 53.375C316.797 52.575 317.314 51.9 317.847 51.35C318.147 51.45 318.447 51.55 318.747 51.65C319.064 51.7333 319.372 51.825 319.672 51.925C319.189 52.475 318.714 53.125 318.247 53.875C317.797 54.625 317.389 55.4583 317.022 56.375C316.655 57.2916 316.364 58.2833 316.147 59.35C315.93 60.4166 315.822 61.5416 315.822 62.725C315.822 63.9083 315.93 65.0333 316.147 66.1C316.364 67.1666 316.655 68.1583 317.022 69.075C317.389 69.9916 317.797 70.825 318.247 71.575C318.714 72.325 319.189 72.975 319.672 73.525C319.372 73.625 319.064 73.7166 318.747 73.8C318.447 73.9 318.147 74 317.847 74.1C317.314 73.55 316.797 72.875 316.297 72.075C315.814 71.2916 315.38 70.4166 314.997 69.45C314.614 68.4833 314.306 67.4333 314.072 66.3C313.839 65.1666 313.722 63.975 313.722 62.725Z" fill="#313131"/>
<path d="M329.243 62.8C329.243 64.05 329.126 65.2416 328.893 66.375C328.66 67.5083 328.351 68.5583 327.968 69.525C327.585 70.4916 327.143 71.3666 326.643 72.15C326.143 72.95 325.635 73.625 325.118 74.175C324.818 74.0916 324.51 74 324.193 73.9C323.893 73.8166 323.593 73.7333 323.293 73.65C323.776 73.1 324.243 72.45 324.693 71.7C325.16 70.95 325.576 70.1166 325.943 69.2C326.31 68.2833 326.601 67.2916 326.818 66.225C327.035 65.1583 327.143 64.0333 327.143 62.85C327.143 61.6666 327.035 60.5416 326.818 59.475C326.601 58.4083 326.31 57.4166 325.943 56.5C325.576 55.5833 325.16 54.75 324.693 54C324.243 53.25 323.776 52.6 323.293 52.05C323.593 51.95 323.893 51.85 324.193 51.75C324.51 51.6333 324.818 51.525 325.118 51.425C325.635 51.975 326.143 52.65 326.643 53.45C327.143 54.2333 327.585 55.1083 327.968 56.075C328.351 57.0416 328.66 58.0916 328.893 59.225C329.126 60.3583 329.243 61.55 329.243 62.8Z" fill="#313131"/>
<path d="M334.303 56.2C334.003 56.0833 333.694 55.975 333.378 55.875C333.078 55.7583 332.778 55.6416 332.478 55.525C332.594 55.1583 332.761 54.7583 332.978 54.325C333.194 53.875 333.494 53.4583 333.878 53.075C334.261 52.6916 334.744 52.3666 335.328 52.1C335.911 51.8333 336.628 51.7 337.478 51.7C338.161 51.7 338.803 51.8333 339.403 52.1C340.003 52.35 340.519 52.7 340.953 53.15C341.403 53.5833 341.753 54.1 342.003 54.7C342.253 55.2833 342.378 55.9083 342.378 56.575C342.378 57.5083 342.153 58.325 341.703 59.025C341.269 59.7083 340.678 60.3333 339.928 60.9C339.694 61.0666 339.444 61.2416 339.178 61.425C338.911 61.5916 338.661 61.7916 338.428 62.025C338.194 62.2416 338.003 62.5083 337.853 62.825C337.703 63.125 337.628 63.5 337.628 63.95V65.9H335.528V63.475C335.528 62.9416 335.611 62.5083 335.778 62.175C335.944 61.8416 336.169 61.55 336.453 61.3C336.736 61.0333 337.053 60.7916 337.403 60.575C337.753 60.3416 338.119 60.075 338.503 59.775C339.103 59.325 339.544 58.8333 339.828 58.3C340.111 57.7666 340.253 57.1916 340.253 56.575C340.253 55.7583 339.994 55.0833 339.478 54.55C338.978 54 338.311 53.725 337.478 53.725C336.544 53.725 335.844 53.9333 335.378 54.35C334.911 54.7666 334.553 55.3833 334.303 56.2ZM336.553 70C336.219 70 335.919 69.8833 335.653 69.65C335.386 69.4 335.253 69.0833 335.253 68.7C335.253 68.3166 335.386 68 335.653 67.75C335.919 67.5 336.219 67.375 336.553 67.375C336.869 67.375 337.161 67.5 337.428 67.75C337.694 68 337.828 68.3166 337.828 68.7C337.828 69.0833 337.694 69.4 337.428 69.65C337.161 69.8833 336.869 70 336.553 70Z" fill="#313131"/>
<path d="M344.656 55.85C344.473 55.75 344.298 55.65 344.131 55.55C343.981 55.45 343.815 55.35 343.631 55.25C343.981 54.9166 344.231 54.5083 344.381 54.025C344.548 53.525 344.573 52.9833 344.456 52.4C344.673 52.3666 344.89 52.3416 345.106 52.325C345.323 52.2916 345.54 52.2583 345.756 52.225C345.89 52.925 345.856 53.5916 345.656 54.225C345.456 54.8416 345.123 55.3833 344.656 55.85Z" fill="#313131"/>
<path d="M348.158 55.85C347.975 55.75 347.8 55.65 347.633 55.55C347.483 55.45 347.316 55.35 347.133 55.25C347.483 54.9166 347.733 54.5083 347.883 54.025C348.05 53.525 348.075 52.9833 347.958 52.4C348.175 52.3666 348.391 52.3416 348.608 52.325C348.825 52.2916 349.041 52.2583 349.258 52.225C349.391 52.925 349.358 53.5916 349.158 54.225C348.958 54.8416 348.625 55.3833 348.158 55.85ZM350.758 55.85C350.575 55.75 350.4 55.65 350.233 55.55C350.083 55.45 349.916 55.35 349.733 55.25C350.083 54.9166 350.333 54.5083 350.483 54.025C350.65 53.525 350.675 52.9833 350.558 52.4C350.775 52.3666 350.991 52.3416 351.208 52.325C351.425 52.2916 351.641 52.2583 351.858 52.225C351.991 52.925 351.958 53.5916 351.758 54.225C351.558 54.8416 351.225 55.3833 350.758 55.85Z" fill="#313131"/>
<path d="M354.659 62.45C354.659 62.0666 354.792 61.75 355.059 61.5C355.326 61.25 355.626 61.125 355.959 61.125C356.276 61.125 356.567 61.25 356.834 61.5C357.101 61.75 357.234 62.0666 357.234 62.45C357.234 62.8333 357.101 63.15 356.834 63.4C356.567 63.6333 356.276 63.75 355.959 63.75C355.626 63.75 355.326 63.6333 355.059 63.4C354.792 63.15 354.659 62.8333 354.659 62.45ZM356.784 67.85C356.417 68.7166 356.059 69.575 355.709 70.425C355.359 71.275 355.001 72.1333 354.634 73H352.759C353.092 72.1333 353.409 71.275 353.709 70.425C354.026 69.575 354.351 68.7166 354.684 67.85H356.784Z" fill="#313131"/>
<path d="M358.913 62.45C358.913 62.0666 359.047 61.75 359.313 61.5C359.58 61.25 359.88 61.125 360.213 61.125C360.53 61.125 360.822 61.25 361.088 61.5C361.355 61.75 361.488 62.0666 361.488 62.45C361.488 62.8333 361.355 63.15 361.088 63.4C360.822 63.6333 360.53 63.75 360.213 63.75C359.88 63.75 359.58 63.6333 359.313 63.4C359.047 63.15 358.913 62.8333 358.913 62.45ZM358.913 68.7C358.913 68.3166 359.047 68 359.313 67.75C359.58 67.5 359.88 67.375 360.213 67.375C360.53 67.375 360.822 67.5 361.088 67.75C361.355 68 361.488 68.3166 361.488 68.7C361.488 69.0833 361.355 69.4 361.088 69.65C360.822 69.8833 360.53 70 360.213 70C359.88 70 359.58 69.8833 359.313 69.65C359.047 69.4 358.913 69.0833 358.913 68.7Z" fill="#313131"/>
<path d="M366.534 67.85C366.167 68.7166 365.808 69.575 365.458 70.425C365.108 71.275 364.75 72.1333 364.383 73H362.508C362.842 72.1333 363.158 71.275 363.458 70.425C363.775 69.575 364.1 68.7166 364.434 67.85H366.534Z" fill="#313131"/>
<path d="M368.288 68.7C368.288 68.3166 368.422 68 368.688 67.75C368.955 67.5 369.255 67.375 369.588 67.375C369.905 67.375 370.197 67.5 370.463 67.75C370.73 68 370.863 68.3166 370.863 68.7C370.863 69.0833 370.73 69.4 370.463 69.65C370.197 69.8833 369.905 70 369.588 70C369.255 70 368.955 69.8833 368.688 69.65C368.422 69.4 368.288 69.0833 368.288 68.7Z" fill="#313131"/>
</svg>
