<svg id="Logo" xmlns="http://www.w3.org/2000/svg" viewBox="0 0 216 82.6"><path id="the-thai-cauldron_blk" d="M46.7,76.16h0v.44h-21v-.44h-.05C4.49,64.54,18.47,40.91,18.47,40.91H53.89S67.87,64.54,46.7,76.16ZM60.22,72.6a12.32,12.32,0,0,0,5.56,5.88v.88H6.58v-.88a12.25,12.25,0,0,0,5.55-5.88C9.94,75.93,3,77.05,3,77.05V82.6h66.3V77.05S62.42,75.93,60.22,72.6ZM36.14,13.36,3.88,45.63V37.26C16.53,30.52,7.76,19.5,7.76,19.5,10.21,32.36,0,35.83,0,35.83V56.55L36.18,20.37,72.36,56.55V35.83S62.15,32.36,64.6,19.5c0,0-8.78,11,3.88,17.76v8.37Zm0-7.54-22,22V22.12C22.74,17.52,16.75,10,16.75,10c1.67,8.77-5.29,11.14-5.29,11.14V35.28L36.14,10.6,60.82,35.28V21.15s-7-2.37-5.29-11.14c0,0-6,7.51,2.65,12.11v5.71ZM36.1,0,22,14.07V10.42c5.52-2.94,1.69-7.74,1.69-7.74,1.07,5.6-3.38,7.12-3.38,7.12v9L36.11,3.05,51.89,18.83v-9s-4.45-1.52-3.38-7.12c0,0-3.83,4.8,1.69,7.74v3.65ZM79.82,17.74q.87-.81,2.34-1.95c.59-.47,1.1-.86,1.5-1.16l.51-.35.51-.35,3.58.22,4,0,3.91,0h1c1.75,0,3,0,3.63,0s1.62-.1,2.83-.21l-3.39,3.36a2.15,2.15,0,0,1-.62.41,8.45,8.45,0,0,1-1.14.42l-.83.13a15.73,15.73,0,0,1-2,.09l-2,0-.09,3.94c0,2.26,0,4.31.09,6.17s.19,3.77.36,5.75a45.6,45.6,0,0,0-5.57,3.84l.16-2,0-17.81c-1.1,0-2.15,0-3.13-.08S82.59,18,79.82,17.74Zm21.91-2.37c0-.09.29-.34,1-.77s1.45-.91,2.82-1.79l.57-.35.58-.35c.17-.09.34-.18.51-.29a1.56,1.56,0,0,1,.32-.13,1.06,1.06,0,0,1,.45-.09,1.16,1.16,0,0,1,1,.57,2.89,2.89,0,0,1,.4,1.66c0,.92,0,1.76,0,2.51s0,1.54.09,2.35V29.5l1.12-1.31c1.24-1.45,2.09-2.44,2.57-3s.95-1,1.4-1.44c1.74-1.62,3-2.43,3.64-2.43s1,.47,1.41,1.41a12.31,12.31,0,0,1,.65,2.63c.23,1.29.41,2.51.56,3.66l.19,2.11.13,1.41.07,1.25.19,1.37-1,.64-1,.67-1.12.74-1.08.74c0-.84,0-1.58-.08-2.24s-.14-1.51-.26-2.55-.25-1.93-.4-2.7a13.18,13.18,0,0,0-.41-1.66c-.39-1.11-.89-1.66-1.51-1.66a3.2,3.2,0,0,0-1.79.89,9.52,9.52,0,0,0-.91.82l-.85.85a20.86,20.86,0,0,0-1.59,1.88,24.81,24.81,0,0,0-3.71,6.3l-.77-.29.09-1.69L105,34V28.61c0-1.73,0-3.37,0-4.93l0-.83-.19-3.1a14.88,14.88,0,0,0-.08-1.65,8.57,8.57,0,0,0-.31-1.37,2.86,2.86,0,0,0-.46-1,.8.8,0,0,0-.62-.27,3.07,3.07,0,0,0-1.16.35l-.31.19Zm28.2,15-.42-.55.42-.32a11.05,11.05,0,0,0,1.16-1.07,6.2,6.2,0,0,0,.66-.81,1.85,1.85,0,0,0,.38-1.09c0-1-.72-1.67-2.17-2.08a2.57,2.57,0,0,0-.61-.09,1.86,1.86,0,0,0-1.52.75,3.28,3.28,0,0,0-.59,2.06,7.11,7.11,0,0,0,2,5,6.1,6.1,0,0,0,4.38,2,6.66,6.66,0,0,0,2.4-.48l.45-.19.35.58-.61.54c-1.34,1.19-2.21,2-2.62,2.27a6,6,0,0,1-1.18.74,6.08,6.08,0,0,1-2.18.51A5.63,5.63,0,0,1,127,36.89a4.23,4.23,0,0,1-.55-.42l-.54-.54a7.36,7.36,0,0,1-2.27-5.18,7.74,7.74,0,0,1,1-3.71,12.7,12.7,0,0,1,3-3.58,11,11,0,0,1,2.67-1.76,6.44,6.44,0,0,1,2.54-.51,4.39,4.39,0,0,1,2.82.83,2.55,2.55,0,0,1,1,2.05,2.64,2.64,0,0,1-.24,1.08,3.75,3.75,0,0,1-.74,1.07,10.92,10.92,0,0,1-1.58,1.33l-1.37,1-.16.1-1.31.8Zm16.14-12.66q.87-.81,2.34-1.95c.59-.47,1.09-.86,1.5-1.16l.51-.35.51-.35,3.58.22,4,0,3.91,0h1c1.75,0,3,0,3.63,0s1.62-.1,2.83-.21l-3.39,3.36a2.15,2.15,0,0,1-.62.41,8.45,8.45,0,0,1-1.14.42l-.83.13a15.73,15.73,0,0,1-2,.09l-2,0-.09,3.94c0,2.26,0,4.31.09,6.17s.19,3.77.36,5.75a45.6,45.6,0,0,0-5.57,3.84l.16-2,0-17.81c-1.1,0-2.15,0-3.13-.08S148.84,18,146.07,17.74ZM168,15.37c0-.09.29-.34,1-.77s1.45-.91,2.82-1.79l.57-.35.58-.35c.17-.09.34-.18.51-.29a1.56,1.56,0,0,1,.32-.13,1.06,1.06,0,0,1,.45-.09,1.16,1.16,0,0,1,1,.57,2.89,2.89,0,0,1,.4,1.66c0,.92,0,1.76,0,2.51s0,1.54.09,2.35V29.5l1.12-1.31c1.24-1.45,2.09-2.44,2.57-3s.95-1,1.39-1.44q2.63-2.43,3.65-2.43.79,0,1.41,1.41a12.31,12.31,0,0,1,.65,2.63c.23,1.29.41,2.51.56,3.66l.19,2.11.13,1.41.07,1.25.19,1.37-1,.64-1,.67-1.12.74-1.08.74c0-.84,0-1.58-.08-2.24s-.14-1.51-.26-2.55-.25-1.93-.4-2.7a13.18,13.18,0,0,0-.41-1.66c-.39-1.11-.89-1.66-1.51-1.66a3.2,3.2,0,0,0-1.79.89,9.52,9.52,0,0,0-.91.82l-.85.85a20.86,20.86,0,0,0-1.59,1.88,24.81,24.81,0,0,0-3.71,6.3l-.77-.29.09-1.69.07-1.89V28.61c0-1.73,0-3.37,0-4.93l0-.83-.19-3.1A14.88,14.88,0,0,0,171,18.1a8.57,8.57,0,0,0-.31-1.37,2.86,2.86,0,0,0-.46-1,.8.8,0,0,0-.62-.27,3.07,3.07,0,0,0-1.16.35l-.31.19Zm30.53,12.72-.38-.63q-1.83-2.79-3.46-2.79a2.29,2.29,0,0,0-1.15.36l-.25-.39,2.24-1.85c1.32-1.09,2.24-1.63,2.78-1.63s1.81,1.06,3.45,3.19c.32.41.73,1,1.23,1.75s1,1.56,1.55,2.41q.51.87,1.23,2.19c.48.89,1.12,2.1,1.9,3.63l.42.8-4,2.75a8.31,8.31,0,0,0-.36-1c-.14-.34-.26-.61-.35-.8a13.54,13.54,0,0,0-2-3.2A7.75,7.75,0,0,0,199,31.16a8.31,8.31,0,0,0-1.07-.38,8.08,8.08,0,0,0-1.28-.24c-.46-.05-.79-.08-1-.08a5.69,5.69,0,0,0-1,.1,1.5,1.5,0,0,0-.89.46,1.21,1.21,0,0,0-.34.85,1.47,1.47,0,0,0,.07.38,3,3,0,0,0,1.15,1.3,4.81,4.81,0,0,0,2.14.78,7.34,7.34,0,0,0,.8.06,5.42,5.42,0,0,0,2.37-.51l.41.45-.06.06-1.57,1.47a10.32,10.32,0,0,1-2.08,1.62,3.82,3.82,0,0,1-1.85.46l-.42,0-.35,0a5.86,5.86,0,0,1-3.18-1.14,2.69,2.69,0,0,1-1.1-2.15,3.35,3.35,0,0,1,.46-1.64,8,8,0,0,1,1.29-1.66,10.58,10.58,0,0,1,2-1.53,11.36,11.36,0,0,1,2.81-1.15l.45-.1.64-.16Zm9.11-3.38,1.79-1,2.16-1.47a16.63,16.63,0,0,0,1.42-1,1.24,1.24,0,0,1,.64-.19,4.22,4.22,0,0,1,.55.09,1.1,1.1,0,0,1,.72.66,5,5,0,0,1,.27,2l.22,5.18.13,5.89a39.9,39.9,0,0,0-4.54,3.1q0-1.12,0-2.94c0-1.22,0-2.06,0-2.53l-.29-4.76c0-1.73-.44-2.59-1.31-2.59a2.85,2.85,0,0,0-1,.19l-.29.13ZM209.41,18a27.3,27.3,0,0,1,2.79-2.21l1.05-.67.48.51a8.61,8.61,0,0,0,1.13,1.17,3.36,3.36,0,0,0,1.14.53l-2.85,2.2a1.78,1.78,0,0,1-1.21.36,4.17,4.17,0,0,1-.77-.1,1.68,1.68,0,0,1-.78-.38,4.73,4.73,0,0,1-.79-1ZM95.2,52.2a3.06,3.06,0,0,0-.78-.86,6.71,6.71,0,0,0-1.33-.74,6.55,6.55,0,0,0-2.43-.54,4.18,4.18,0,0,0-3.11,1.29A6.92,6.92,0,0,0,86,55.81a12.28,12.28,0,0,0,.12,1.63,11.74,11.74,0,0,0,.52,2.15A11,11,0,0,0,89,63.73a10.55,10.55,0,0,0,7.39,3.05A10.68,10.68,0,0,0,99,66.46l.29.45-1.06.83a28,28,0,0,1-2.59,1.87,15.37,15.37,0,0,1-2.11,1,10.4,10.4,0,0,1-1.4.09l-.48,0-.39,0a9.9,9.9,0,0,1-4.6-1.63,11.94,11.94,0,0,1-3.62-3.84,11.82,11.82,0,0,1-1.43-3.58c-.09-.45-.15-.86-.2-1.23a11.2,11.2,0,0,1-.06-1.2A10.33,10.33,0,0,1,83,54c.25-.43.42-.71.51-.85a8.19,8.19,0,0,1,.57-.75,12.75,12.75,0,0,1,3.11-2.75,16.54,16.54,0,0,1,4-2A12.22,12.22,0,0,1,95,47a8.23,8.23,0,0,1,2.3.24,3.94,3.94,0,0,1,1.44.84.86.86,0,0,1,.32.67,1,1,0,0,1-.38.77c-.26.24-.66.58-1.22,1s-.89.71-1.34,1.05Zm14.52,8.86-.38-.64c-1.22-1.86-2.37-2.78-3.46-2.78a2.27,2.27,0,0,0-1.15.35l-.25-.39,2.23-1.85c1.33-1.09,2.25-1.63,2.79-1.63s1.81,1.06,3.45,3.2q.48.6,1.23,1.74c.5.76,1,1.56,1.55,2.41q.51.87,1.23,2.19c.48.89,1.12,2.1,1.9,3.63l.42.8-4,2.75a8.31,8.31,0,0,0-.36-1c-.15-.34-.26-.61-.35-.8a13.54,13.54,0,0,0-2-3.2,7.58,7.58,0,0,0-2.46-1.75,7,7,0,0,0-1.07-.39,11.22,11.22,0,0,0-1.28-.24c-.46,0-.79-.08-1-.08a5.69,5.69,0,0,0-1,.1,1.5,1.5,0,0,0-.89.46,1.21,1.21,0,0,0-.34.85,1.47,1.47,0,0,0,.07.38,3,3,0,0,0,1.15,1.3,4.69,4.69,0,0,0,2.14.78,7.87,7.87,0,0,0,.8.07,5.21,5.21,0,0,0,2.36-.52l.42.45-.06.07-1.57,1.47a10.58,10.58,0,0,1-2.08,1.61,3.82,3.82,0,0,1-1.85.46l-.42,0-.35,0A5.94,5.94,0,0,1,102,69.71a2.72,2.72,0,0,1-1.1-2.16,3.28,3.28,0,0,1,.46-1.63,7.83,7.83,0,0,1,1.29-1.67,10.58,10.58,0,0,1,2-1.53,11.36,11.36,0,0,1,2.81-1.15l.45-.1.64-.16Zm9.11-3.71,4.93-2.88a.91.91,0,0,1,.7-.16,1,1,0,0,1,.67.26.76.76,0,0,1,.29.57l.38,3.71.26,1.73.38,2.78c0,.13,0,.27.08.41a3.19,3.19,0,0,0,.26.66.87.87,0,0,0,.88.43,1.7,1.7,0,0,0,.83-.25,8,8,0,0,0,1.4-1.11,11.6,11.6,0,0,0,1.41-1.72,8.38,8.38,0,0,0,1.12-2.21,7.55,7.55,0,0,0,.35-2.35l1-.83c.68-.51,1.3-1,1.85-1.31s1.29-.82,1.95-1.19c-.06.71-.11,1.44-.14,2.21s-.05,1.65-.05,2.65v4l.13,3.42.06,1.63-1.25.74c-.51.32-1.08.7-1.72,1.15s-1.23.88-1.76,1.31l-.19-8.92-.64.83-.07.06-.38.67c-.32.5-.67,1-1.06,1.48s-1.13,1.38-2,2.36l-1,1.15-.1.13-.09.06-1.18,1-1,.8a1.39,1.39,0,0,1-.86.28A1.42,1.42,0,0,1,123,70a2.21,2.21,0,0,1-.27-.62c-.06-.2-.15-.64-.28-1.3,0-.25-.16-1.17-.36-2.75s-.39-3.05-.55-4.41a9.26,9.26,0,0,0-.51-2.54,1.14,1.14,0,0,0-1.1-.5,5.43,5.43,0,0,0-.7.07L119,58Zm19.7-9.18,3.26-2.33.19-.13.86-.61.64-.41a2.56,2.56,0,0,1,1-.26,1,1,0,0,1,1.09.77c0,.17.07.34.1.51s0,.36.06.57v1.6l0,1.6c.21,6.23.32,10,.32,11.45l.1,1.37.09,1.76.07,1.35,0,1.15,0,1.31a34.23,34.23,0,0,0-4.63,3c0-1.34,0-2.69,0-4l.06-4.08q0-4.06-.09-6.16T141.34,51l-.16-1.4c-.13-.79-.49-1.19-1.09-1.19a3.81,3.81,0,0,0-1,.2l-.29.12Zm10,3.68,4.16-3.14.55.39a1.43,1.43,0,0,0-.55,1.12c0,.59.42,1.18,1.25,1.76l.57.35.87.45.32.19c1,.49,2.22,1,3.61,1.5l.54.22.74.26a13.2,13.2,0,0,1,2.94,1.47,5.29,5.29,0,0,1,2.3,4.22,6.84,6.84,0,0,1-.86,3.1,8.27,8.27,0,0,1-1.09,1.6,21.5,21.5,0,0,1-2.2,2.21c-.34.32-.7.62-1.06.91a10.92,10.92,0,0,1-1,.72,14,14,0,0,1-2.33,1.31,5.16,5.16,0,0,1-1.86.35,5.37,5.37,0,0,1-2.46-.59,6.33,6.33,0,0,1-2.11-1.84,6.45,6.45,0,0,1-1.44-3.9q0-3.3,3.52-5.47L154,58.5l.39.25a5.75,5.75,0,0,0-.87,3.07,6.16,6.16,0,0,0,.13,1.17,7.1,7.1,0,0,0,.27,1,7.32,7.32,0,0,0,.47.89A5.67,5.67,0,0,0,157,67.2a4.06,4.06,0,0,0,1.56.31,2.86,2.86,0,0,0,1.92-.67,3,3,0,0,0,1-1.79,4.77,4.77,0,0,0,.1-1v-.48a2.79,2.79,0,0,1-.06-.48,5.67,5.67,0,0,0-1.28-3,10.15,10.15,0,0,0-3.46-2.26l-.76-.35-.8-.28c-2.86-1-4.64-1.68-5.36-2a6.31,6.31,0,0,1-1.42-.72,1.57,1.57,0,0,1-.7-1.18,1.81,1.81,0,0,1,.51-1.15Zm17.27,6.07,5.34-3.58a1.07,1.07,0,0,1,.51-.13,1.26,1.26,0,0,1,.74.26q.35.26.48,1.47l.09,1,0,.13,0,1.34,3.48-3.16.29-.23a3.37,3.37,0,0,1,1.6-.8c.53,0,1.12.71,1.76,2.11a5.54,5.54,0,0,1,.48,1.54l-.74.64-.73.61-2.37,1.82a3,3,0,0,0-.67-1.54,2.77,2.77,0,0,0-.77-.73,1,1,0,0,0-.51-.13c-.55,0-1,.37-1.21,1.12a8.13,8.13,0,0,0-.36,1.41,14.16,14.16,0,0,0-.09,1.85V65q0,1,0,2v1.12l-.9.58-.86.61-1.25.83-1.28.86V69.13c0-.63,0-1.26,0-1.9v-.61a43.2,43.2,0,0,0-.23-4.36,16.36,16.36,0,0,0-.52-3.12c-.21-.6-.52-.9-.95-.9a1.68,1.68,0,0,0-.77.23l-.32.22Zm19.51.23-.39,1.21a7.25,7.25,0,0,0-.45,2.3,6.75,6.75,0,0,0,.29,1.76A5.9,5.9,0,0,0,187.61,67l.6.32a3,3,0,0,0,1.12.26c1.28,0,2-.84,2.18-2.53a10.38,10.38,0,0,0-.18-2.06,6.45,6.45,0,0,0-.72-1.87,7.72,7.72,0,0,0-2.41-2.86,5.29,5.29,0,0,0-3-.95h-.42a1.8,1.8,0,0,1-.41.07l-.68.16-.12-.58a9.64,9.64,0,0,1,1.34-1,15.43,15.43,0,0,1,2.53-1.28,6.08,6.08,0,0,1,2.07-.41,5.49,5.49,0,0,1,3.23,1.21,6.32,6.32,0,0,1,1.14,1.17,6.9,6.9,0,0,1,.85,1.52,12.17,12.17,0,0,1,.54,1.65,6.19,6.19,0,0,1,.19,1.51q0,3.16-3.32,6.3c-2.31,2.18-4.33,3.26-6.08,3.26q-2.26,0-4.25-2.55a6.45,6.45,0,0,1-1.41-4,4.49,4.49,0,0,1,.61-2.46,12,12,0,0,1,2.56-2.53c.21-.17.47-.36.78-.58S185,58.34,185.31,58.15Zm9.94-.07,5.11-3.77a.79.79,0,0,1,.48-.16,1.57,1.57,0,0,1,1.22.86,3.86,3.86,0,0,1,.38,1,14.07,14.07,0,0,1,.29,2l0,.19.13,2.24,0,.51.13,1.35,1.95-2.5c.79-.94,1.53-1.77,2.22-2.51s1.42-1.45,2.18-2.14a3.18,3.18,0,0,1,1.93-1c.66,0,1.22.59,1.67,1.76a6.89,6.89,0,0,1,.31,1.12c.3,1.19.59,2.69.87,4.51l.54,3.67.19,1.54.07.61.06.7-1,.54a30.19,30.19,0,0,0-3.1,2.24l-.07-.45-.6-4.51c-.17-1.17-.32-2.07-.45-2.71a7.59,7.59,0,0,0-.35-1.31c-.47-1.09-1-1.63-1.6-1.63a2.77,2.77,0,0,0-1.52.67,12.35,12.35,0,0,0-2.22,2.33,29.24,29.24,0,0,0-2.75,4.09,15.53,15.53,0,0,0-.72,1.41c-.23.49-.42,1-.59,1.41l-.13.32-.16.38-.9-.06c0-1,0-1.8-.06-2.53-.15-2.56-.22-3.86-.22-3.9l-.35-3.42-.07-.58-.1-.7a1.7,1.7,0,0,0-.46-1,1.25,1.25,0,0,0-.91-.37,1.69,1.69,0,0,0-.8.23l-.29.19Z" fill="#231f20"/></svg>