<svg xmlns="http://www.w3.org/2000/svg" viewBox="0 0 216 82.72"><g id="option_2" data-name="option 2"><path d="M72.3,37.72,71,30l-.38,7.89a2.44,2.44,0,0,1-.14.6,6.07,6.07,0,0,1-.29.7,7.92,7.92,0,0,1-.87,1.32,13.65,13.65,0,0,1-2.4,2.27,22,22,0,0,1-2.87,1.8c-.5.27-1,.52-1.53.78l-1.62.87a10.38,10.38,0,0,0-4.46,5.68A11.7,11.7,0,0,0,56,55.43a12,12,0,0,0,.47,3.33,7.66,7.66,0,0,1-1.91.14,9.8,9.8,0,0,1-2.36-.48c-.16-.56-.32-1.11-.49-1.67a27.36,27.36,0,0,0,3.72-6,29.86,29.86,0,0,0,2.35-7.63,26.75,26.75,0,0,0,.1-8,14.62,14.62,0,0,0-.38-2,14.08,14.08,0,0,0-.73-1.94,18.67,18.67,0,0,0-.95-1.83c-.39-.56-.74-1.15-1.17-1.68a32.13,32.13,0,0,0-5.76-5.66,60,60,0,0,0-6.66-4.47,92.58,92.58,0,0,0-14.49-6.74L23.61,9.23l3.25,2.91a12.79,12.79,0,0,1,3.63,5.58,33.28,33.28,0,0,1,1.34,6.84c.49,4.7.64,9.49,1,14.26l.12,1.79c.06.61.1,1.22.2,1.83A20,20,0,0,0,34,46a16,16,0,0,0,3.92,6.18A17.91,17.91,0,0,0,44.09,56,21.9,21.9,0,0,0,51,57.41l.66,2.32a12,12,0,0,1-1,3.48,4.86,4.86,0,0,1-1.36,1.7,3.3,3.3,0,0,1-.65.39,21.27,21.27,0,0,0-6.71-8.07,19.65,19.65,0,0,0-5-2.46A18.93,18.93,0,0,0,31.36,54H30l-1.37.13c-.92.07-1.83.22-2.74.37s-1.81.38-2.72.56-1.79.47-2.66.8a27.43,27.43,0,0,0-5.09,2.31A24,24,0,0,0,13,59.74a14,14,0,0,0-2.14,2l-1,1.22,1.64.16a40.78,40.78,0,0,1,10.06,2.16,20.19,20.19,0,0,1,4.53,2.26,17.76,17.76,0,0,1,2,1.6,12.74,12.74,0,0,0,2.25,1.65,15.34,15.34,0,0,0,10.61,1.52A11.6,11.6,0,0,0,45.73,70a9.93,9.93,0,0,0,2.82-3.82,4,4,0,0,0,1.14-.67,5.14,5.14,0,0,0,1.42-2,10.25,10.25,0,0,0,.67-3.12l.18.62c.58,2.05,1.09,4.12,1.48,6.21l.26,1.57c.06.52.13,1,.17,1.58a11.94,11.94,0,0,1-.14,3.16l.08,0A15.66,15.66,0,0,0,54,67.06a59.19,59.19,0,0,0-1.25-6.34c-.17-.68-.37-1.36-.56-2a7.2,7.2,0,0,0,2.22.8,7.48,7.48,0,0,0,3-.1,11.12,11.12,0,0,0,3,.68,11.71,11.71,0,0,0,4.2-.39,14.32,14.32,0,0,0,3.85-1.83,7.94,7.94,0,0,0,1.61-1.56,10.93,10.93,0,0,0,1.12-1.89,22.05,22.05,0,0,0,1.64-8.31A43.48,43.48,0,0,0,72.3,37.72ZM45.46,69.6a11,11,0,0,1-4.73,1.88,14.94,14.94,0,0,1-5.08-.09A13.7,13.7,0,0,1,31,69.63,11.57,11.57,0,0,1,29,68.1a16.5,16.5,0,0,0-2.07-1.8,21.92,21.92,0,0,0-4.83-2.55,39.75,39.75,0,0,0-8.71-2.14l.66-.54a22.89,22.89,0,0,1,2.16-1.48A27.24,27.24,0,0,1,21,57.37c.82-.33,1.68-.54,2.53-.81s1.71-.46,2.59-.6,1.75-.33,2.63-.42l1.33-.17,1.31-.06a18.69,18.69,0,0,1,5.21.53,19.3,19.3,0,0,1,4.83,2.09,22,22,0,0,1,7.15,7.38,3.89,3.89,0,0,1-1.3.33,10.59,10.59,0,0,1-4.38-.83,38,38,0,0,1-4.21-1.94c-1.39-.7-2.7-1.58-4.2-2.18a18.88,18.88,0,0,0-4.6-1.19,24.23,24.23,0,0,0-9.37.71l0,.08A24.18,24.18,0,0,1,29.81,60a17.76,17.76,0,0,1,4.43,1.29c1.41.6,2.69,1.51,4.08,2.27a32.39,32.39,0,0,0,4.26,2.1,13.18,13.18,0,0,0,2.32.69,7,7,0,0,0,2.46.13,4.84,4.84,0,0,0,1.12-.28A10.76,10.76,0,0,1,45.46,69.6Zm-7-18a15.11,15.11,0,0,1-3.47-6,20.32,20.32,0,0,1-.71-3.4c-.08-.57-.1-1.15-.15-1.73l-.07-1.79c-.21-4.77-.29-9.54-.71-14.35a32.34,32.34,0,0,0-1.34-7.21,14.45,14.45,0,0,0-1.79-3.66,93.66,93.66,0,0,1,11.1,5.35,60.21,60.21,0,0,1,6.55,4.26,31.35,31.35,0,0,1,5.61,5.3c.42.48.76,1,1.14,1.54a16.56,16.56,0,0,1,.92,1.65,13.94,13.94,0,0,1,.71,1.75,13.8,13.8,0,0,1,.4,1.85A26.14,26.14,0,0,1,56.88,43a30.35,30.35,0,0,1-5.24,13.7c-.85-2.77-1.81-5.49-2.8-8.21-2.93-8-6.23-16-9.77-23.75l-.08,0q2.5,5.91,4.8,11.91c1.55,4,3,8,4.41,12q1.47,4.32,2.74,8.69C46.29,56.84,41.67,55,38.5,51.63ZM70,53.84a7.28,7.28,0,0,1-2.16,3,13.6,13.6,0,0,1-3.42,1.94,11.47,11.47,0,0,1-6.62.46,11.64,11.64,0,0,0,4.88-3.12,27.54,27.54,0,0,0,3.71-4.65,39,39,0,0,0,2.77-5.23l-.08,0a38.2,38.2,0,0,1-3,5,26.88,26.88,0,0,1-3.83,4.4,13.37,13.37,0,0,1-4.88,2.86,7.38,7.38,0,0,1-.84.22,12.93,12.93,0,0,1,.74-6.63,9.89,9.89,0,0,1,4.38-4.86l1.52-.72c.55-.24,1.1-.46,1.64-.73A22.42,22.42,0,0,0,67.85,44a13.54,13.54,0,0,0,2.76-2.49c.14-.17.26-.34.39-.52a45.16,45.16,0,0,1,.22,5.07A22,22,0,0,1,70,53.84Z" fill="#0d0d0d"/><path d="M79.39,3.33V65.87L65.87,79.39H3.33V16.85L16.85,3.33H79.39M82.72,0H15.47L0,15.47V82.72H67.25L82.72,67.25V0Z" fill="#0d0d0d"/><path d="M94,32.15V1.87l2.2-1h13.15V1L107.65,4.6H98.13v10h11.2v.21l-1.68,3.56H98.13v10h14.66v.21l-1.68,3.57Z" fill="#0d0d0d"/><path d="M121.09,32.15q-6.23,0-6.22-6.23V23.08q0-6.21,6.22-6.22h4.36a3.92,3.92,0,0,1,2.07.62V15.55c0-1.65-.69-2.48-2.07-2.48H118v-.21l1.66-3.53h5.77q6.21,0,6.22,6.22V31.11L127.73,33h-.21V31.52a3.23,3.23,0,0,1-2.07.63Zm0-3.74h4.36q2.07,0,2.07-2.49V23.08q0-2.49-2.07-2.49h-4.36q-2.07,0-2.07,2.49v2.84Q119,28.41,121.09,28.41Z" fill="#0d0d0d"/><path d="M136.19,33V15.55q0-6.21,6.22-6.22h5.19v.21l-1.66,3.53h-3.53c-1.38,0-2.07.83-2.07,2.48V31.11L136.4,33Z" fill="#0d0d0d"/><path d="M153.86,33V13.11h-5.33V12.9l1.68-3.57h3.65V1.87L157.8,0H158V9.33h5.33v.21l-1.68,3.57H158v18L154.07,33Z" fill="#0d0d0d"/><path d="M166.3,33V1.87L170.25,0h.2V10a3.52,3.52,0,0,1,2.08-.65h4.77q6.21,0,6.22,6.22V31.11L179.58,33h-.21V15.55c0-1.65-.69-2.48-2.07-2.48h-4.77c-1.39,0-2.08.83-2.08,2.48V31.11L166.51,33Z" fill="#0d0d0d"/><path d="M189.08,33V1.87L193,0h.21V31.11L189.29,33Z" fill="#0d0d0d"/><path d="M205,32.15q-6.22,0-6.22-6.23V10.37l3.94-1.87h.2V25.92c0,1.66.7,2.49,2.08,2.49h4.77q2.07,0,2.07-2.49V10.37l3.94-1.87H216V34.43q0,6.23-6.22,6.22h-8.84v-.21l1.66-3.52h7.18q2.07,0,2.07-2.49V31.52a3.27,3.27,0,0,1-2.07.63Z" fill="#0d0d0d"/><path d="M94,82.72V51.61l2.2-1h11.08q7.26,0,7.26,7.26v6.23q0,6.77-6.31,7.22L115,81l-3.65,1.72h-.21l-8-11.4h-5v9.54l-3.94,1.86Zm4.15-28.41V67.58h9.13q3.1,0,3.11-3.52V57.84q0-3.53-3.11-3.53Z" fill="#0d0d0d"/><path d="M126.42,81.89q-6.23,0-6.22-6.22V65.3q0-6.21,6.22-6.22h4.77q6.23,0,6.22,6.22V75.67q0,6.22-6.22,6.22Zm0-3.73h4.77q2.07,0,2.07-2.49V65.3q0-2.49-2.07-2.49h-4.77q-2.07,0-2.07,2.49V75.67Q124.35,78.16,126.42,78.16Z" fill="#0d0d0d"/><path d="M148.82,81.89q-6.23,0-6.22-6.22V72.83q0-6.22,6.22-6.22h4.35a3.93,3.93,0,0,1,2.08.62V65.3c0-1.66-.69-2.49-2.08-2.49h-7.42v-.2l1.66-3.53h5.76q6.22,0,6.23,6.22V80.86l-3.94,1.86h-.21V81.27a3.24,3.24,0,0,1-2.08.62Zm0-3.73h4.35c1.39,0,2.08-.83,2.08-2.49V72.83c0-1.66-.69-2.49-2.08-2.49h-4.35c-1.38,0-2.08.83-2.08,2.49v2.84C146.74,77.33,147.44,78.16,148.82,78.16Z" fill="#0d0d0d"/><path d="M171.84,81.89q-6.22,0-6.22-6.22V65.3q0-6.21,6.22-6.22h4.77a2.87,2.87,0,0,1,2.07.64V51.61l3.94-1.86h.21V75.67q0,6.22-6.22,6.22Zm0-3.73h4.77q2.07,0,2.07-2.49V65.3q0-2.49-2.07-2.49h-4.77q-2.07,0-2.07,2.49V75.67Q169.77,78.16,171.84,78.16Z" fill="#0d0d0d"/><path d="M195.69,81.89q-6.23,0-6.22-6.22v-.74l3.94-1.87h.21v2.61q0,2.49,2.07,2.49h4.77q2.07,0,2.07-2.49V74q0-2.49-2.07-2.49h-3.9q-6.23,0-6.22-6.24t6.22-6.22H199c4.14,0,6.22,1.67,6.22,5L201.27,66h-.21V65.3q0-2.49-2.07-2.49h-2.43q-2.07,0-2.07,2.49c0,1.68.69,2.51,2.07,2.51h3.9q6.22,0,6.22,6.22v1.64q0,6.22-6.22,6.22Z" fill="#0d0d0d"/></g></svg>