<?xml version="1.0" encoding="UTF-8"?>
<svg id="Layer_2" xmlns="http://www.w3.org/2000/svg" viewBox="0 0 77.27 75.56">
  <defs>
    <style>
      .cls-1 {
        fill: #20c4f4;
      }

      .cls-2 {
        fill: #f9e500;
      }

      .cls-3 {
        fill: #ed1556;
      }
    </style>
  </defs>
  <g id="logo-variant-1">
    <g id="um-ico">
      <path id="u" class="cls-3" d="M28.96,53.29l10.07,11.86c-1.89,3.13-4.38,5.64-7.44,7.53-.44.25-.9.51-1.34.76-.14.05-.28.12-.41.18-.32.18-.65.32-.99.46-.23.09-.46.18-.69.25-2.21.81-4.63,1.22-7.19,1.22-3.78,0-7.28-.97-10.48-2.95-3.2-1.96-5.76-4.58-7.65-7.86-1.89-3.29-2.83-6.89-2.83-10.8L.21.41c0-.28.14-.41.41-.41h12c.28,0,.44.14.44.41v53.54c0,2.42.76,4.47,2.28,6.15,1.54,1.68,3.41,2.51,5.62,2.51,2.1,0,3.89-.71,5.37-2.14.14-.12.25-.23.37-.37,1.11-1.22,1.82-2.63,2.12-4.22v-.3c.09-.53.14-1.08.14-1.64v-.67Z"/>
      <path id="u-ico" class="cls-2" d="M26.33,50.19v2.13c0,1.89-.52,3.5-1.53,4.82-1.03,1.32-2.3,1.97-3.81,1.97s-2.71-.65-3.73-1.97c-1.01-1.32-1.51-2.92-1.51-4.82v-14.61l10.59,12.49Z"/>
      <path id="m" class="cls-1" d="M77.27,73.95c0,.37-.14.55-.41.55h-12.12c-.28,0-.41-.18-.41-.55l-.12-54.58-11.24,16.26-11.08-16.22-.05-.05-.05,23.34-.02,11.77c0,2.49-.37,4.98-1.17,7.3l-11.63-13.71V15.11l.05-14.7c0-.21.07-.35.23-.39.05-.02.12-.02.18-.02h13.06c.28,0,.53.14.76.41l9.72,14.15L62.71.41c.23-.28.46-.41.76-.41h13.15c.3,0,.44.14.44.41l.21,73.54Z"/>
      <path id="m-ico" class="cls-2" d="M59.4.27l-6.39,9.28L46.64.27c-.08-.11,0-.27.14-.27h12.48c.14,0,.22.15.14.27Z"/>
    </g>
  </g>
</svg>