<?xml version="1.0" encoding="UTF-8"?>
<svg id="Layer_2" xmlns="http://www.w3.org/2000/svg" viewBox="0 0 215.28 75.56">
  <defs>
    <style>
      .cls-1 {
        fill: #20c4f4;
      }

      .cls-2 {
        fill: #f9e500;
      }

      .cls-3 {
        fill: #ed1556;
      }

      .cls-4 {
        fill: #272727;
      }
    </style>
  </defs>
  <g id="logo-variant-1">
    <g id="umdesigns-logo-clr">
      <g id="uniquem">
        <path id="u" class="cls-4" d="M90.11,30.91c-1.52,0-2.93-.39-4.23-1.18s-2.32-1.85-3.08-3.17c-.76-1.32-1.14-2.77-1.14-4.35l.09-21.56c0-.12.06-.17.17-.17h4.83c.11,0,.17.06.17.17v21.56c0,.98.31,1.8.93,2.48.62.67,1.37,1.01,2.26,1.01s1.69-.34,2.31-1.01.93-1.5.93-2.48V.65c0-.12.06-.17.17-.17h4.83c.11,0,.17.06.17.17l.09,21.56c0,1.61-.38,3.07-1.14,4.4-.76,1.32-1.78,2.37-3.06,3.15s-2.71,1.16-4.29,1.16Z"/>
        <path id="n" class="cls-4" d="M102.4,30.48c-.23,0-.34-.1-.34-.3l-.04-29.36c0-.23.11-.34.34-.34h3.88l7.29,16.99-.22-16.64c0-.23.13-.34.39-.34h4.27c.17,0,.26.11.26.34l.04,29.41c0,.17-.07.26-.22.26h-3.79l-7.46-15.87.3,15.52c0,.23-.13.34-.39.34h-4.31Z"/>
        <path id="i" class="cls-4" d="M122.23,30.48c-.14,0-.22-.07-.22-.22l.04-29.62c0-.12.06-.17.17-.17h4.83c.11,0,.17.06.17.17l.04,29.62c0,.14-.06.22-.17.22h-4.87Z"/>
        <path id="q" class="cls-4" d="M145.26,33.24l-2.97-3.02c-1.03.46-2.11.69-3.23.69-1.52,0-2.93-.39-4.22-1.16-1.29-.78-2.33-1.82-3.11-3.15-.77-1.32-1.16-2.77-1.16-4.35l.04-13.67c0-1.52.37-2.94,1.12-4.25s1.76-2.36,3.04-3.15,2.71-1.19,4.29-1.19,2.92.38,4.2,1.14c1.28.76,2.3,1.79,3.06,3.08.76,1.29,1.14,2.75,1.14,4.36l.04,13.67c0,.83-.12,1.64-.34,2.41-.23.78-.53,1.49-.91,2.16l2.67,2.72c.11.12.13.22.04.3l-3.41,3.41c-.11.09-.22.09-.3,0ZM139.05,25.7c.98,0,1.76-.37,2.35-1.1.59-.73.88-1.52.88-2.35l-.04-13.67c0-.92-.3-1.72-.91-2.39-.6-.67-1.37-1.01-2.28-1.01-.98,0-1.76.35-2.35,1.03-.59.69-.88,1.48-.88,2.37v13.67c0,1.03.34,1.87,1.01,2.5.67.63,1.42.95,2.22.95Z"/>
        <path id="u2" class="cls-4" d="M159.36,30.91c-1.52,0-2.93-.39-4.22-1.18-1.29-.79-2.32-1.85-3.08-3.17-.76-1.32-1.14-2.77-1.14-4.35l.09-21.56c0-.12.06-.17.17-.17h4.83c.12,0,.17.06.17.17v21.56c0,.98.31,1.8.93,2.48s1.37,1.01,2.26,1.01,1.69-.34,2.31-1.01c.62-.67.93-1.5.93-2.48V.65c0-.12.06-.17.17-.17h4.83c.12,0,.17.06.17.17l.09,21.56c0,1.61-.38,3.07-1.14,4.4-.76,1.32-1.78,2.37-3.06,3.15-1.28.78-2.71,1.16-4.29,1.16Z"/>
        <path id="e" class="cls-4" d="M171.43,30.48c-.12,0-.17-.07-.17-.22l.04-29.62c0-.12.06-.17.17-.17h13.84c.11,0,.17.07.17.22v4.83c0,.12-.06.17-.17.17h-8.84v6.73h8.84c.11,0,.17.06.17.17l.04,4.87c0,.12-.06.17-.17.17h-8.88v7.55h8.88c.12,0,.17.07.17.22v4.92c0,.12-.06.17-.17.17h-13.93Z"/>
        <path id="m" class="cls-4" d="M195.92,30.48c-.12,0-.17-.07-.17-.22l.09-29.62c0-.12.06-.17.17-.17h5.26c.12,0,.22.06.3.17l3.92,5.69,3.92-5.69c.09-.12.19-.17.3-.17h5.3c.12,0,.17.06.17.17l.09,29.62c0,.14-.06.22-.17.22h-4.87c-.11,0-.17-.07-.17-.22l-.04-21.99-4.53,6.55-4.48-6.55-.04,21.99c0,.14-.06.22-.17.22h-4.87Z"/>
      </g>
      <g id="designs">
        <path id="d" class="cls-4" d="M82.4,74.1c-.14,0-.22-.07-.22-.22l.09-29.62c0-.12.06-.17.17-.17l8.06-.04c1.58-.03,3.02.35,4.33,1.12,1.31.77,2.35,1.82,3.13,3.12.78,1.31,1.16,2.75,1.16,4.33v12.37c0,1.67-.4,3.18-1.21,4.55-.8,1.37-1.88,2.45-3.23,3.26-1.35.8-2.87,1.22-4.57,1.25l-7.72.04ZM87.44,68.79h2.67c1.06,0,1.96-.37,2.69-1.12.73-.75,1.1-1.64,1.1-2.67v-12.42c0-.92-.34-1.72-1.01-2.39-.68-.67-1.47-1-2.39-.97l-3.02.04-.04,19.53Z"/>
        <path id="e-2" data-name="e" class="cls-4" d="M102.7,74.1c-.12,0-.17-.07-.17-.22l.04-29.62c0-.12.06-.17.17-.17h13.84c.11,0,.17.07.17.22v4.83c0,.12-.06.17-.17.17h-8.84v6.73h8.84c.11,0,.17.06.17.17l.04,4.87c0,.12-.06.17-.17.17h-8.88v7.55h8.88c.12,0,.17.07.17.22v4.92c0,.12-.06.17-.17.17h-13.93Z"/>
        <path id="s" class="cls-4" d="M127.71,74.53c-1.55,0-2.97-.39-4.25-1.18s-2.3-1.84-3.06-3.15-1.14-2.75-1.14-4.33v-1.98c0-.14.07-.22.22-.22h4.83c.11,0,.17.07.17.22v1.98c0,.95.32,1.76.95,2.44.63.67,1.39,1.01,2.28,1.01s1.65-.34,2.29-1.03c.63-.69.95-1.49.95-2.41,0-1.06-.69-1.98-2.07-2.76-.46-.26-1.18-.66-2.16-1.21s-1.9-1.06-2.76-1.55c-1.58-.92-2.75-2.08-3.51-3.47s-1.14-2.97-1.14-4.72c0-1.61.39-3.05,1.16-4.33s1.8-2.29,3.08-3.04c1.28-.75,2.67-1.12,4.16-1.12s2.92.38,4.2,1.14,2.3,1.78,3.06,3.06c.76,1.28,1.14,2.71,1.14,4.29v3.53c0,.12-.06.17-.17.17h-4.83c-.12,0-.17-.06-.17-.17l-.04-3.53c0-1.01-.32-1.82-.95-2.46-.63-.63-1.38-.95-2.24-.95s-1.65.34-2.28,1.01c-.63.67-.95,1.47-.95,2.39s.2,1.74.6,2.37c.4.63,1.13,1.24,2.2,1.81.14.09.42.24.84.45s.87.46,1.36.73.93.51,1.32.71c.39.2.62.33.71.39,1.44.81,2.57,1.79,3.41,2.95.83,1.16,1.25,2.59,1.25,4.29s-.38,3.11-1.14,4.42-1.78,2.34-3.06,3.1-2.69,1.14-4.25,1.14Z"/>
        <path id="i-2" data-name="i" class="cls-4" d="M139.39,74.1c-.14,0-.22-.07-.22-.22l.04-29.62c0-.12.06-.17.17-.17h4.83c.11,0,.17.06.17.17l.04,29.62c0,.14-.06.22-.17.22h-4.87Z"/>
        <path id="g" class="cls-4" d="M156.12,74.53c-1.55,0-2.96-.39-4.23-1.16-1.26-.78-2.28-1.82-3.04-3.12-.76-1.31-1.14-2.77-1.14-4.38v-13.67c0-1.55.38-2.98,1.14-4.29.76-1.31,1.78-2.35,3.06-3.13s2.68-1.16,4.2-1.16,3.01.38,4.29,1.14c1.28.76,2.29,1.79,3.04,3.08.75,1.29,1.12,2.75,1.12,4.36v1.98c0,.12-.07.17-.22.17h-4.83c-.12,0-.17-.06-.17-.17v-1.64c0-1.09-.31-2-.93-2.72-.62-.72-1.39-1.08-2.31-1.08-.83,0-1.57.35-2.22,1.03-.65.69-.97,1.5-.97,2.42v13.67c0,.95.32,1.76.95,2.44s1.38,1.01,2.24,1.01c.92,0,1.69-.33,2.31-.99.62-.66.93-1.48.93-2.46v-2.11h-3.02c-.14,0-.22-.07-.22-.22v-4.83c0-.14.07-.22.22-.22h8.06c.12,0,.17.07.17.22v7.16c0,1.61-.38,3.07-1.14,4.38-.76,1.31-1.77,2.35-3.04,3.12s-2.69,1.16-4.27,1.16Z"/>
        <path id="n-2" data-name="n" class="cls-4" d="M168.02,74.1c-.23,0-.34-.1-.34-.3l-.04-29.36c0-.23.11-.34.34-.34h3.88l7.29,16.99-.22-16.64c0-.23.13-.34.39-.34h4.27c.17,0,.26.11.26.34l.04,29.41c0,.17-.07.26-.22.26h-3.79l-7.46-15.87.3,15.52c0,.23-.13.34-.39.34h-4.31Z"/>
        <path id="s2" class="cls-4" d="M194.97,74.53c-1.55,0-2.97-.39-4.25-1.18s-2.3-1.84-3.06-3.15-1.14-2.75-1.14-4.33v-1.98c0-.14.07-.22.22-.22h4.83c.11,0,.17.07.17.22v1.98c0,.95.32,1.76.95,2.44.63.67,1.39,1.01,2.28,1.01s1.65-.34,2.29-1.03c.63-.69.95-1.49.95-2.41,0-1.06-.69-1.98-2.07-2.76-.46-.26-1.18-.66-2.16-1.21s-1.9-1.06-2.76-1.55c-1.58-.92-2.75-2.08-3.51-3.47s-1.14-2.97-1.14-4.72c0-1.61.39-3.05,1.16-4.33s1.8-2.29,3.08-3.04c1.28-.75,2.67-1.12,4.16-1.12s2.92.38,4.2,1.14,2.3,1.78,3.06,3.06c.76,1.28,1.14,2.71,1.14,4.29v3.53c0,.12-.06.17-.17.17h-4.83c-.12,0-.17-.06-.17-.17l-.04-3.53c0-1.01-.32-1.82-.95-2.46-.63-.63-1.38-.95-2.24-.95s-1.65.34-2.28,1.01c-.63.67-.95,1.47-.95,2.39s.2,1.74.6,2.37c.4.63,1.13,1.24,2.2,1.81.14.09.42.24.84.45s.87.46,1.36.73.93.51,1.32.71c.39.2.62.33.71.39,1.44.81,2.57,1.79,3.41,2.95.83,1.16,1.25,2.59,1.25,4.29s-.38,3.11-1.14,4.42-1.78,2.34-3.06,3.1-2.69,1.14-4.25,1.14Z"/>
      </g>
      <g id="um-ico">
        <path id="u-2" data-name="u" class="cls-3" d="M28.96,53.29l10.07,11.86c-1.89,3.13-4.38,5.64-7.44,7.53-.44.25-.9.51-1.34.76-.14.05-.28.12-.41.18-.32.18-.65.32-.99.46-.23.09-.46.18-.69.25-2.21.81-4.63,1.22-7.19,1.22-3.78,0-7.28-.97-10.48-2.95-3.2-1.96-5.76-4.58-7.65-7.86-1.89-3.29-2.83-6.89-2.83-10.8L.21.41c0-.28.14-.41.41-.41h12c.28,0,.44.14.44.41v53.54c0,2.42.76,4.47,2.28,6.15,1.54,1.68,3.41,2.51,5.62,2.51,2.1,0,3.89-.71,5.37-2.14.14-.12.25-.23.37-.37,1.11-1.22,1.82-2.63,2.12-4.22v-.3c.09-.53.14-1.08.14-1.64v-.67Z"/>
        <path id="u-ico" class="cls-2" d="M26.33,50.19v2.13c0,1.89-.52,3.5-1.53,4.82-1.03,1.32-2.3,1.97-3.81,1.97s-2.71-.65-3.73-1.97c-1.01-1.32-1.51-2.92-1.51-4.82v-14.61l10.59,12.49Z"/>
        <path id="m-2" data-name="m" class="cls-1" d="M77.27,73.95c0,.37-.14.55-.41.55h-12.12c-.28,0-.41-.18-.41-.55l-.12-54.58-11.24,16.26-11.08-16.22-.05-.05-.05,23.34-.02,11.77c0,2.49-.37,4.98-1.17,7.3l-11.63-13.71V15.11l.05-14.7c0-.21.07-.35.23-.39.05-.02.12-.02.18-.02h13.06c.28,0,.53.14.76.41l9.72,14.15L62.71.41c.23-.28.46-.41.76-.41h13.15c.3,0,.44.14.44.41l.21,73.54Z"/>
        <path id="m-ico" class="cls-2" d="M59.4.27l-6.39,9.28L46.64.27c-.08-.11,0-.27.14-.27h12.48c.14,0,.22.15.14.27Z"/>
      </g>
    </g>
  </g>
</svg>