<svg width="19" height="15" viewBox="0 0 19 15" fill="none" xmlns="http://www.w3.org/2000/svg">
<path fill-rule="evenodd" clip-rule="evenodd" d="M6.44334 0.276508C6.81851 0.645184 6.81851 1.24293 6.44334 1.6116L3.27995 4.72028H13.7697C16.6583 4.72028 19 7.02147 19 9.86014C19 12.6988 16.6583 15 13.7697 15H11.6348C11.1043 15 10.6742 14.5773 10.6742 14.0559C10.6742 13.5346 11.1043 13.1119 11.6348 13.1119H13.7697C15.5972 13.1119 17.0787 11.656 17.0787 9.86014C17.0787 8.06425 15.5972 6.60839 13.7697 6.60839H3.27995L6.44334 9.71707C6.81851 10.0857 6.81851 10.6835 6.44334 11.0522C6.06818 11.4208 5.45991 11.4208 5.08475 11.0522L0.281375 6.33188C-0.0937917 5.96321 -0.0937917 5.36546 0.281375 4.99679L5.08475 0.276508C5.45991 -0.0921692 6.06818 -0.0921692 6.44334 0.276508Z" fill="#FAFAFA"/>
</svg>
