<svg width="491" height="153" viewBox="0 0 491 153" fill="none" xmlns="http://www.w3.org/2000/svg">
<path d="M36.7889 13.3602C36.8689 14.1602 36.9089 15.1735 36.9089 16.4002C36.9089 17.6002 36.6689 19.0802 36.1889 20.8402C35.7089 22.5735 34.8423 24.1069 33.5889 25.4402C31.0289 28.1869 27.5089 29.5602 23.0289 29.5602C17.5889 29.5602 13.2956 28.2269 10.1489 25.5602C7.00228 22.8669 5.42895 19.3602 5.42895 15.0402C5.42895 10.6935 7.01561 7.17353 10.1889 4.4802C13.3889 1.78686 17.6023 0.440195 22.8289 0.440195C24.8289 0.440195 26.7356 0.640194 28.5489 1.04019C30.3623 1.4402 31.8689 1.9602 33.0689 2.6002L33.1489 9.4802H32.8289C32.3756 7.77353 31.6156 6.34686 30.5489 5.2002C28.6289 3.14686 26.0423 2.12019 22.7889 2.12019C19.5356 2.12019 16.9089 3.28019 14.9089 5.60019C12.9356 7.9202 11.9489 11.0002 11.9489 14.8402C11.9489 18.6535 12.9756 21.7602 15.0289 24.1602C17.1089 26.5602 19.9623 27.8002 23.5889 27.8802C27.5089 27.8802 30.6289 26.6269 32.9489 24.1202C35.2689 21.6135 36.4289 18.2135 36.4289 13.9202C36.4289 13.7335 36.4289 13.5469 36.4289 13.3602H36.7889Z" fill="#313131"/>
<path d="M41.4814 28.6002C42.1748 28.6002 42.7614 28.3602 43.2414 27.8802C43.7481 27.3735 44.0148 26.7735 44.0414 26.0802V3.8802C44.0148 3.18686 43.7481 2.60019 43.2414 2.12019C42.7614 1.64019 42.1748 1.40019 41.4814 1.40019H40.9614V1.00019H53.1214L53.0814 1.40019H52.6014C51.9081 1.40019 51.3081 1.64019 50.8014 2.12019C50.2948 2.60019 50.0414 3.18686 50.0414 3.8802V26.0802C50.0414 26.7735 50.2948 27.3735 50.8014 27.8802C51.3081 28.3602 51.9081 28.6002 52.6014 28.6002H53.0814L53.1214 29.0002H40.9614V28.6002H41.4814Z" fill="#313131"/>
<path d="M89.3911 1.40019C88.7245 1.40019 88.1511 1.64019 87.6711 2.12019C87.1911 2.57353 86.9378 3.13353 86.9111 3.80019V24.4402C86.9111 26.2269 87.0311 27.7335 87.2711 28.9602L87.3911 29.5602H87.0311L66.8311 10.3202V26.2002C66.8311 26.8669 67.0711 27.4402 67.5511 27.9202C68.0311 28.3735 68.6045 28.6002 69.2711 28.6002H70.0311V29.0002H57.9111V28.6002H58.6311C59.3245 28.6002 59.9111 28.3735 60.3911 27.9202C60.8711 27.4402 61.1111 26.8535 61.1111 26.1602V5.4002C61.1111 3.6402 60.9911 2.17353 60.7511 1.00019L60.6711 0.400195H61.0311L81.2311 19.6402V3.8402C81.2045 3.14686 80.9511 2.57353 80.4711 2.12019C79.9911 1.64019 79.4178 1.40019 78.7511 1.40019H78.0311V1.00019H90.1511V1.40019H89.3911Z" fill="#313131"/>
<path d="M95.6805 0.240195C96.0805 0.400194 96.7738 0.560195 97.7605 0.720196C98.7738 0.880195 99.4805 0.960195 99.8805 0.960195C100.307 0.960195 100.521 0.960195 100.521 0.960195H113.281C114.587 0.960195 115.587 0.893528 116.281 0.760195C116.974 0.600196 117.374 0.493529 117.481 0.440195V0.800195L102.681 27.3202H111.081C112.787 27.3202 114.267 26.7469 115.521 25.6002C116.801 24.4535 117.707 22.9069 118.241 20.9602H118.641L117.201 29.0002H95.1205V28.6402L109.801 2.64019H100.121C98.8938 2.66686 97.9072 3.05353 97.1605 3.80019C96.4405 4.52019 96.0805 5.49353 96.0805 6.72019V7.2002H95.6805V0.240195Z" fill="#313131"/>
<path d="M123.927 28.6002C124.62 28.6002 125.207 28.3602 125.687 27.8802C126.193 27.3735 126.46 26.7735 126.487 26.0802V3.80019C126.407 2.86686 125.967 2.17353 125.167 1.72019C124.767 1.50686 124.353 1.40019 123.927 1.40019H123.407V1.00019H138.727C139.553 1.00019 140.46 0.920195 141.447 0.760195C142.433 0.600196 143.127 0.440195 143.527 0.280194V7.28019H143.127V6.8002C143.127 5.6002 142.767 4.6402 142.047 3.9202C141.353 3.17353 140.407 2.77353 139.207 2.7202H132.487V14.3602H137.767C138.753 14.3335 139.567 14.0002 140.207 13.3602C140.847 12.6935 141.167 11.8802 141.167 10.9202V10.5602H141.567V19.8002H141.167V19.4802C141.167 18.1469 140.633 17.1602 139.567 16.5202C139.033 16.2269 138.447 16.0669 137.807 16.0402H132.487V27.2802H137.727C139.673 27.2802 141.3 26.7202 142.607 25.6002C143.94 24.4802 144.927 22.8935 145.567 20.8402H145.967L144.127 29.0002H123.407V28.6002H123.927Z" fill="#313131"/>
<path d="M151.005 28.6002C151.698 28.6002 152.285 28.3602 152.765 27.8802C153.272 27.3735 153.538 26.7735 153.565 26.0802V3.9202C153.538 3.22686 153.272 2.64019 152.765 2.1602C152.285 1.65353 151.698 1.40019 151.005 1.40019H150.485V1.00019H162.645L162.605 1.40019H162.125C161.432 1.40019 160.832 1.65353 160.325 2.1602C159.818 2.64019 159.565 3.22686 159.565 3.9202V27.2802H164.805C166.752 27.2802 168.378 26.7202 169.685 25.6002C171.018 24.4802 172.005 22.8935 172.645 20.8402H173.045L171.205 29.0002H150.485V28.6002H151.005Z" fill="#313131"/>
<path d="M195.733 0.960195C196.187 0.960195 197.013 0.960195 198.213 0.960195C199.413 0.960195 201.64 0.973528 204.893 1.00019C209.613 1.05353 213.347 2.33353 216.093 4.8402C218.84 7.32019 220.213 10.7202 220.213 15.0402C220.213 19.3335 218.84 22.7335 216.093 25.2402C213.347 27.7469 209.613 29.0002 204.893 29.0002H190.373V28.6002H190.893C191.56 28.6002 192.133 28.3735 192.613 27.9202C193.12 27.4402 193.4 26.8669 193.453 26.2002V2.8002C190.467 3.01353 188.253 3.70686 186.813 4.88019C186.093 5.4402 185.533 6.01353 185.133 6.6002C184.707 7.18686 184.293 7.89353 183.893 8.7202L183.493 8.56019C184.133 5.89353 185.467 3.97353 187.493 2.8002C189.547 1.60019 192.293 0.986861 195.733 0.960195ZM204.413 27.3202C207.267 27.3202 209.52 26.2135 211.173 24.0002C212.853 21.7869 213.693 18.7869 213.693 15.0002C213.693 11.2135 212.853 8.22686 211.173 6.0402C209.52 3.85353 207.293 2.7602 204.493 2.7602C204.467 2.7602 204.44 2.7602 204.413 2.7602H199.453V27.3202H204.413Z" fill="#313131"/>
<path d="M225.364 28.6002C226.058 28.6002 226.644 28.3602 227.124 27.8802C227.631 27.3735 227.898 26.7735 227.924 26.0802V3.80019C227.844 2.86686 227.404 2.17353 226.604 1.72019C226.204 1.50686 225.791 1.40019 225.364 1.40019H224.844V1.00019H240.164C240.991 1.00019 241.898 0.920195 242.884 0.760195C243.871 0.600196 244.564 0.440195 244.964 0.280194V7.28019H244.564V6.8002C244.564 5.6002 244.204 4.6402 243.484 3.9202C242.791 3.17353 241.844 2.77353 240.644 2.7202H233.924V14.3602H239.204C240.191 14.3335 241.004 14.0002 241.644 13.3602C242.284 12.6935 242.604 11.8802 242.604 10.9202V10.5602H243.004V19.8002H242.604V19.4802C242.604 18.1469 242.071 17.1602 241.004 16.5202C240.471 16.2269 239.884 16.0669 239.244 16.0402H233.924V27.2802H239.164C241.111 27.2802 242.738 26.7202 244.044 25.6002C245.378 24.4802 246.364 22.8935 247.004 20.8402H247.404L245.564 29.0002H224.844V28.6002H225.364Z" fill="#313131"/>
<path d="M268.406 29.5202C263.259 29.5202 259.219 28.2269 256.286 25.6402C253.353 23.0535 251.886 19.5069 251.886 15.0002C251.886 10.4935 253.339 6.94686 256.246 4.36019C259.153 1.74686 263.139 0.440195 268.206 0.440195C272.073 0.440195 275.393 1.16019 278.166 2.6002L278.246 9.4802H277.926C276.566 4.57353 273.459 2.12019 268.606 2.12019C265.459 2.12019 262.966 3.26686 261.126 5.5602C259.313 7.82686 258.406 10.9335 258.406 14.8802C258.406 18.8269 259.273 21.9602 261.006 24.2802C262.766 26.6002 265.139 27.8002 268.126 27.8802C271.219 27.8802 273.579 27.1069 275.206 25.5602C276.859 23.9602 278.006 21.2135 278.646 17.3202H278.966L279.366 24.2002C277.206 27.7735 273.553 29.5469 268.406 29.5202Z" fill="#313131"/>
<path d="M300.897 0.440195C305.83 0.440195 309.75 1.74686 312.657 4.36019C315.564 6.97353 317.017 10.5202 317.017 15.0002C317.017 19.4802 315.564 23.0269 312.657 25.6402C309.75 28.2535 305.83 29.5602 300.897 29.5602C295.964 29.5602 292.044 28.2535 289.137 25.6402C286.23 23.0269 284.777 19.4802 284.777 15.0002C284.777 12.0402 285.43 9.46686 286.737 7.28019C288.07 5.06686 289.95 3.37353 292.377 2.2002C294.804 1.02686 297.644 0.440195 300.897 0.440195ZM293.897 24.4402C295.63 26.7335 297.964 27.8802 300.897 27.8802C303.83 27.8802 306.15 26.7335 307.857 24.4402C309.59 22.1202 310.457 18.9735 310.457 15.0002C310.457 12.3869 310.07 10.1069 309.297 8.1602C308.524 6.21353 307.417 4.7202 305.977 3.6802C304.537 2.64019 302.844 2.12019 300.897 2.12019C297.964 2.12019 295.63 3.28019 293.897 5.60019C292.19 7.89353 291.337 11.0269 291.337 15.0002C291.337 18.9735 292.19 22.1202 293.897 24.4402Z" fill="#313131"/>
<path d="M332.392 2.7602H330.672C330.619 2.7602 330.579 2.7602 330.552 2.7602V26.0802C330.579 27.0669 331.005 27.8002 331.832 28.2802C332.232 28.4935 332.659 28.6002 333.112 28.6002H333.632V29.0002H321.472V28.6002H321.992C322.952 28.6002 323.685 28.1869 324.192 27.3602C324.405 26.9869 324.525 26.5735 324.552 26.1202V3.9202C324.525 3.22686 324.259 2.64019 323.752 2.1602C323.272 1.65353 322.685 1.40019 321.992 1.40019H321.472V1.00019H335.192C337.779 1.00019 339.965 1.56019 341.752 2.68019C342.659 3.2402 343.379 4.02686 343.912 5.04019C344.445 6.02686 344.712 7.1602 344.712 8.4402C344.712 9.69353 344.485 10.8535 344.032 11.9202C343.605 12.9869 342.872 13.9202 341.832 14.7202C340.819 15.5202 339.592 16.0002 338.152 16.1602C339.699 16.6669 341.059 17.8402 342.232 19.6802C345.112 24.2935 347.245 27.0402 348.632 27.9202C349.325 28.3469 350.192 28.5735 351.232 28.6002V29.0002H347.312C345.045 29.0002 343.152 28.6935 341.632 28.0802C340.112 27.4402 338.872 26.3602 337.912 24.8402C337.432 24.0669 336.819 22.9069 336.072 21.3602C335.325 19.7869 334.832 18.6669 334.592 18.0002C333.872 16.4002 332.965 15.5069 331.872 15.3202V14.9202H333.112C334.312 14.9202 335.365 14.5602 336.272 13.8402C337.205 13.1202 337.832 11.9469 338.152 10.3202C338.259 9.7602 338.312 9.3202 338.312 9.0002C338.312 6.81353 337.872 5.2402 336.992 4.2802C336.112 3.29353 334.979 2.78686 333.592 2.7602C333.325 2.7602 332.925 2.7602 332.392 2.7602Z" fill="#313131"/>
<path d="M380.567 28.6002H380.927V29.0002H368.167V28.6002H368.527C369.114 28.6002 369.54 28.4269 369.807 28.0802C370.1 27.7069 370.247 27.3602 370.247 27.0402C370.247 26.7202 370.18 26.4002 370.047 26.0802L368.087 21.1602H358.727L356.647 26.0802C356.514 26.4269 356.447 26.7602 356.447 27.0802C356.447 27.3735 356.58 27.7069 356.847 28.0802C357.14 28.4269 357.594 28.6002 358.207 28.6002H358.527V29.0002H349.967V28.6002H350.327C350.94 28.6002 351.554 28.4135 352.167 28.0402C352.78 27.6669 353.287 27.1069 353.687 26.3602L362.927 5.44019C364.18 2.8002 364.847 1.05353 364.927 0.200195H365.287L377.167 26.2802C377.567 27.0535 378.074 27.6402 378.687 28.0402C379.3 28.4135 379.927 28.6002 380.567 28.6002ZM359.407 19.4802H367.407L363.527 9.6402L359.407 19.4802Z" fill="#313131"/>
<path d="M394.524 2.64019V26.1202C394.551 26.8135 394.804 27.4002 395.284 27.8802C395.791 28.3602 396.391 28.6002 397.084 28.6002H397.564L397.604 29.0002H385.444V28.6002H385.964C386.631 28.6002 387.204 28.3602 387.684 27.8802C388.191 27.4002 388.471 26.8269 388.524 26.1602V2.64019H383.124C381.898 2.66686 380.924 3.05353 380.204 3.80019C379.484 4.54686 379.124 5.52019 379.124 6.72019V7.2002H378.724V0.240195C379.098 0.400194 379.764 0.560195 380.724 0.720196C381.711 0.880195 382.618 0.960195 383.444 0.960195H399.564C400.871 0.933529 401.938 0.826862 402.764 0.640194C403.591 0.453529 404.098 0.320195 404.284 0.240195V7.2002H403.884V6.72019C403.884 5.52019 403.524 4.54686 402.804 3.80019C402.084 3.05353 401.111 2.66686 399.884 2.64019H394.524Z" fill="#313131"/>
<path d="M409.005 28.6002C409.698 28.6002 410.285 28.3602 410.765 27.8802C411.272 27.3735 411.538 26.7735 411.565 26.0802V3.8802C411.538 3.18686 411.272 2.60019 410.765 2.12019C410.285 1.64019 409.698 1.40019 409.005 1.40019H408.485V1.00019H420.645L420.605 1.40019H420.125C419.432 1.40019 418.832 1.64019 418.325 2.12019C417.818 2.60019 417.565 3.18686 417.565 3.8802V26.0802C417.565 26.7735 417.818 27.3735 418.325 27.8802C418.832 28.3602 419.432 28.6002 420.125 28.6002H420.605L420.645 29.0002H408.485V28.6002H409.005Z" fill="#313131"/>
<path d="M454.515 1.40019H454.155C453.541 1.40019 452.928 1.58686 452.315 1.96019C451.701 2.33353 451.195 2.89353 450.795 3.6402L441.315 24.5602C440.088 27.2002 439.435 28.9469 439.355 29.8002H438.995L426.875 3.6802C426.475 2.93353 425.968 2.37353 425.355 2.0002C424.741 1.60019 424.115 1.40019 423.475 1.40019H423.155V1.00019H435.875V1.40019H435.555C434.968 1.40019 434.528 1.58686 434.235 1.96019C433.968 2.30686 433.835 2.64019 433.835 2.9602C433.835 3.28019 433.888 3.60019 433.995 3.9202L440.795 20.4402L447.835 3.9202C447.968 3.57353 448.035 3.25353 448.035 2.9602C448.035 2.64019 447.888 2.30686 447.595 1.96019C447.328 1.58686 446.901 1.40019 446.315 1.40019H445.955V1.00019H454.515V1.40019Z" fill="#313131"/>
<path d="M457.497 28.6002C458.19 28.6002 458.777 28.3602 459.257 27.8802C459.764 27.3735 460.03 26.7735 460.057 26.0802V3.80019C459.977 2.86686 459.537 2.17353 458.737 1.72019C458.337 1.50686 457.924 1.40019 457.497 1.40019H456.977V1.00019H472.297C473.124 1.00019 474.03 0.920195 475.017 0.760195C476.004 0.600196 476.697 0.440195 477.097 0.280194V7.28019H476.697V6.8002C476.697 5.6002 476.337 4.6402 475.617 3.9202C474.924 3.17353 473.977 2.77353 472.777 2.7202H466.057V14.3602H471.337C472.324 14.3335 473.137 14.0002 473.777 13.3602C474.417 12.6935 474.737 11.8802 474.737 10.9202V10.5602H475.137V19.8002H474.737V19.4802C474.737 18.1469 474.204 17.1602 473.137 16.5202C472.604 16.2269 472.017 16.0669 471.377 16.0402H466.057V27.2802H471.297C473.244 27.2802 474.87 26.7202 476.177 25.6002C477.51 24.4802 478.497 22.8935 479.137 20.8402H479.537L477.697 29.0002H456.977V28.6002H457.497Z" fill="#313131"/>
<path d="M24.4644 107.75H24.6894V108H16.7144V107.75H16.9394C17.306 107.75 17.5727 107.642 17.7394 107.425C17.9227 107.192 18.0144 106.975 18.0144 106.775C18.0144 106.575 17.9727 106.375 17.8894 106.175L16.6644 103.1H10.8144L9.51436 106.175C9.43102 106.392 9.38936 106.6 9.38936 106.8C9.38936 106.984 9.47269 107.192 9.63936 107.425C9.82269 107.642 10.106 107.75 10.4894 107.75H10.6894V108H5.33936V107.75H5.56436C5.94769 107.75 6.33102 107.634 6.71436 107.4C7.09769 107.167 7.41436 106.817 7.66436 106.35L13.4394 93.2752C14.2227 91.6252 14.6394 90.5335 14.6894 90.0002H14.9144L22.3394 106.3C22.5894 106.784 22.906 107.15 23.2894 107.4C23.6727 107.634 24.0644 107.75 24.4644 107.75ZM11.2394 102.05H16.2394L13.8144 95.9002L11.2394 102.05Z" fill="#313131"/>
<path d="M32.8849 108H24.9599V107.75H25.2849C25.7182 107.75 26.0849 107.6 26.3849 107.3C26.7015 107 26.8682 106.634 26.8849 106.2V92.3002C26.8682 91.8669 26.7015 91.5002 26.3849 91.2002C26.0849 90.9002 25.7182 90.7502 25.2849 90.7502H24.9599V90.5002H32.2099C34.1432 90.5002 35.6765 90.8502 36.8099 91.5502C37.9599 92.2502 38.5432 93.3252 38.5599 94.7752C38.5432 95.5085 38.3849 96.1502 38.0849 96.7002C37.5349 97.7335 36.6682 98.3252 35.4849 98.4752C36.7682 98.5919 37.8265 99.0752 38.6599 99.9252C39.4932 100.759 39.9099 101.825 39.9099 103.125C39.9099 104.692 39.2765 105.9 38.0099 106.75C36.7599 107.584 35.0515 108 32.8849 108ZM34.5599 95.1002C34.5432 92.7502 33.4765 91.5752 31.3599 91.5752H30.6349V106.85H31.7849C31.8015 106.85 31.8182 106.85 31.8349 106.85C32.9849 106.85 33.9015 106.517 34.5849 105.85C35.2682 105.184 35.6099 104.175 35.6099 102.825C35.6099 101.875 35.4182 101.092 35.0349 100.475C34.3182 99.3252 33.1349 98.7502 31.4849 98.7502V98.5252C32.3515 98.5252 33.0765 98.2502 33.6599 97.7002C34.2432 97.1335 34.5432 96.2669 34.5599 95.1002Z" fill="#313131"/>
<path d="M52.4497 108.325C49.233 108.325 46.708 107.517 44.8747 105.9C43.0414 104.284 42.1247 102.067 42.1247 99.2502C42.1247 96.4335 43.033 94.2169 44.8497 92.6002C46.6664 90.9669 49.158 90.1502 52.3247 90.1502C54.7414 90.1502 56.8164 90.6002 58.5497 91.5002L58.5997 95.8002H58.3997C57.5497 92.7335 55.608 91.2002 52.5747 91.2002C50.608 91.2002 49.0497 91.9169 47.8997 93.3502C46.7664 94.7669 46.1997 96.7085 46.1997 99.1752C46.1997 101.642 46.7414 103.6 47.8247 105.05C48.9247 106.5 50.408 107.25 52.2747 107.3C54.208 107.3 55.683 106.817 56.6997 105.85C57.733 104.85 58.4497 103.134 58.8497 100.7H59.0497L59.2997 105C57.9497 107.234 55.6664 108.342 52.4497 108.325Z" fill="#313131"/>
<path d="M70.5583 90.5002C73.5083 90.5002 75.8416 91.2835 77.5583 92.8502C79.275 94.4169 80.1333 96.5502 80.1333 99.2502C80.1333 101.95 79.275 104.084 77.5583 105.65C75.8416 107.217 73.5083 108 70.5583 108H61.4833V107.75H61.8083C62.2416 107.75 62.6083 107.6 62.9083 107.3C63.225 106.984 63.3916 106.609 63.4083 106.175V92.1752C63.3583 91.7752 63.1833 91.4419 62.8833 91.1752C62.5833 90.8919 62.225 90.7502 61.8083 90.7502H61.4833V90.5002H70.5583ZM70.2333 106.95C71.4333 106.95 72.4666 106.642 73.3333 106.025C74.2166 105.392 74.8916 104.5 75.3583 103.35C75.825 102.184 76.0583 100.817 76.0583 99.2502C76.0583 96.8835 75.5333 95.0085 74.4833 93.6252C73.45 92.2419 72.0333 91.5502 70.2333 91.5502H67.1583V106.95H70.2333Z" fill="#313131"/>
<path d="M82.0231 107.75C82.4565 107.75 82.8231 107.6 83.1231 107.3C83.4398 106.984 83.6065 106.609 83.6231 106.175V92.2502C83.5731 91.6669 83.2981 91.2335 82.7981 90.9502C82.5481 90.8169 82.2898 90.7502 82.0231 90.7502H81.6981V90.5002H91.2731C91.7898 90.5002 92.3565 90.4502 92.9731 90.3502C93.5898 90.2502 94.0231 90.1502 94.2731 90.0502V94.4252H94.0231V94.1252C94.0231 93.3752 93.7981 92.7752 93.3481 92.3252C92.9148 91.8585 92.3231 91.6085 91.5731 91.5752H87.3731V98.8502H90.6731C91.2898 98.8335 91.7981 98.6252 92.1981 98.2252C92.5981 97.8085 92.7981 97.3002 92.7981 96.7002V96.4752H93.0481V102.25H92.7981V102.05C92.7981 101.217 92.4648 100.6 91.7981 100.2C91.4648 100.017 91.0981 99.9169 90.6981 99.9002H87.3731V106.925H90.6481C91.8648 106.925 92.8815 106.575 93.6981 105.875C94.5315 105.175 95.1481 104.184 95.5481 102.9H95.7981L94.6481 108H81.6981V107.75H82.0231Z" fill="#313131"/>
<path d="M103.047 91.5752V98.8502H106.347C106.964 98.8335 107.472 98.6252 107.872 98.2252C108.272 97.8252 108.472 97.3169 108.472 96.7002V96.4752H108.722V102.25H108.472V102.05C108.472 101.434 108.272 100.925 107.872 100.525C107.489 100.125 106.989 99.9169 106.372 99.9002H103.047V106.175C103.047 106.792 103.314 107.25 103.847 107.55C104.097 107.684 104.364 107.75 104.647 107.75H104.947L104.972 108H97.372V107.75H97.697C98.1303 107.75 98.497 107.6 98.797 107.3C99.1136 106.984 99.2803 106.609 99.297 106.175V92.2502C99.2636 91.8335 99.0886 91.4835 98.772 91.2002C98.472 90.9002 98.1136 90.7502 97.697 90.7502H97.372V90.5002H106.947C107.764 90.5002 108.439 90.4419 108.972 90.3252C109.505 90.1919 109.83 90.1002 109.947 90.0502V94.2752H109.697V94.0252C109.697 93.2919 109.48 92.7085 109.047 92.2752C108.63 91.8252 108.055 91.5919 107.322 91.5752H103.047Z" fill="#313131"/>
<path d="M131.47 99.8752H131.095C130.695 99.8752 130.386 99.9752 130.17 100.175C129.953 100.359 129.845 100.634 129.845 101V105.125C129.195 105.975 128.12 106.725 126.62 107.375C125.12 108.025 123.436 108.35 121.57 108.35C118.72 108.35 116.428 107.534 114.695 105.9C112.978 104.25 112.12 102.034 112.12 99.2502C112.12 96.4502 112.978 94.2335 114.695 92.6002C116.428 90.9669 118.77 90.1502 121.72 90.1502C123.053 90.1502 124.345 90.2835 125.595 90.5502C126.845 90.8002 127.853 91.1169 128.62 91.5002L128.67 95.8002H128.445C128.011 94.1835 127.27 93.0169 126.22 92.3002C125.17 91.5669 123.92 91.2002 122.47 91.2002C120.453 91.2002 118.903 91.9252 117.82 93.3752C116.736 94.8085 116.195 96.7835 116.195 99.3002C116.195 101.8 116.686 103.759 117.67 105.175C118.67 106.592 120.078 107.3 121.895 107.3C123.211 107.3 124.311 106.925 125.195 106.175C125.628 105.792 125.945 105.342 126.145 104.825V101C126.145 100.634 126.028 100.359 125.795 100.175C125.578 99.9752 125.261 99.8752 124.845 99.8752H124.445V99.6252H131.47V99.8752Z" fill="#313131"/>
<path d="M144.483 107.75C144.917 107.75 145.25 107.642 145.483 107.425C145.867 107.042 146.067 106.634 146.083 106.2V99.8252H137.983V106.175C137.983 106.609 138.142 106.984 138.458 107.3C138.775 107.6 139.15 107.75 139.583 107.75H139.883L139.908 108H132.309V107.75H132.633C133.067 107.75 133.433 107.6 133.733 107.3C134.05 106.984 134.217 106.609 134.233 106.175V92.3002C134.217 91.8669 134.05 91.5002 133.733 91.2002C133.433 90.9002 133.067 90.7502 132.633 90.7502H132.309V90.5002H139.908L139.883 90.7502H139.583C139.15 90.7502 138.775 90.9002 138.458 91.2002C138.142 91.5002 137.983 91.8669 137.983 92.3002V98.7502H146.083V92.3002C146.067 91.8669 145.9 91.5002 145.583 91.2002C145.283 90.9002 144.917 90.7502 144.483 90.7502H144.158V90.5002H151.758V90.7502H151.434C151 90.7502 150.625 90.9085 150.309 91.2252C149.992 91.5252 149.833 91.8919 149.833 92.3252V106.175C149.833 106.609 149.992 106.984 150.309 107.3C150.625 107.6 151 107.75 151.434 107.75H151.758V108H144.158V107.75H144.483Z" fill="#313131"/>
<path d="M154.167 107.75C154.6 107.75 154.967 107.6 155.267 107.3C155.583 106.984 155.75 106.609 155.767 106.175V92.3002C155.75 91.8669 155.583 91.5002 155.267 91.2002C154.967 90.9002 154.6 90.7502 154.167 90.7502H153.842V90.5002H161.442L161.417 90.7502H161.117C160.683 90.7502 160.308 90.9002 159.992 91.2002C159.675 91.5002 159.517 91.8669 159.517 92.3002V106.175C159.517 106.609 159.675 106.984 159.992 107.3C160.308 107.6 160.683 107.75 161.117 107.75H161.417L161.442 108H153.842V107.75H154.167Z" fill="#313131"/>
<path d="M170.835 90.7502C170.402 90.7502 170.027 90.9085 169.71 91.2252C169.41 91.5252 169.252 91.8919 169.235 92.3252V107.25C169.235 108.434 168.919 109.492 168.285 110.425C167.652 111.359 166.877 112.025 165.96 112.425C165.044 112.825 164.127 113.025 163.21 113.025C162.994 113.025 162.777 113.017 162.56 113V112.775C163.56 112.359 164.294 111.634 164.76 110.6C165.244 109.584 165.485 108.442 165.485 107.175V92.3252C165.469 91.7085 165.202 91.2502 164.685 90.9502C164.435 90.8169 164.169 90.7502 163.885 90.7502H163.56V90.5002H171.16V90.7502H170.835Z" fill="#313131"/>
<path d="M173.405 107.75C173.838 107.75 174.205 107.6 174.505 107.3C174.822 106.984 174.988 106.609 175.005 106.175V92.3002C174.988 91.7002 174.713 91.2502 174.18 90.9502C173.947 90.8169 173.688 90.7502 173.405 90.7502H173.08V90.5002H180.68L180.655 90.7502H180.355C179.755 90.7502 179.297 91.0085 178.98 91.5252C178.83 91.7585 178.755 92.0169 178.755 92.3002V106.175C178.755 106.609 178.913 106.984 179.23 107.3C179.547 107.6 179.922 107.75 180.355 107.75H180.655L180.68 108H173.08V107.75H173.405ZM191.455 108H189.405C186.872 108 185.08 107.309 184.03 105.925C181.047 101.875 179.555 99.8169 179.555 99.7502L185.48 91.9002C185.613 91.7335 185.68 91.5835 185.68 91.4502C185.68 91.3169 185.655 91.2002 185.605 91.1002C185.472 90.8502 185.238 90.7252 184.905 90.7252H184.655V90.5002H190.38V90.7252H190.28C189.163 90.7252 188.255 91.1252 187.555 91.9252L182.68 97.7002L188.905 106.2C189.672 107.2 190.522 107.717 191.455 107.75V108Z" fill="#313131"/>
<path d="M192.301 107.75C192.735 107.75 193.101 107.6 193.401 107.3C193.718 106.984 193.885 106.609 193.901 106.175V92.3252C193.885 91.8919 193.718 91.5252 193.401 91.2252C193.101 90.9085 192.735 90.7502 192.301 90.7502H191.976V90.5002H199.576L199.551 90.7502H199.251C198.818 90.7502 198.443 90.9085 198.126 91.2252C197.81 91.5252 197.651 91.8919 197.651 92.3252V106.925H200.926C202.143 106.925 203.16 106.575 203.976 105.875C204.81 105.175 205.426 104.184 205.826 102.9H206.076L204.926 108H191.976V107.75H192.301Z" fill="#313131"/>
<path d="M230.007 107.75H230.407V108H222.907V107.775H223.282C223.565 107.775 223.807 107.667 224.007 107.45C224.207 107.217 224.29 106.967 224.257 106.7L223.282 97.6252L218.582 105.725C217.965 106.759 217.648 107.684 217.632 108.5H217.382L210.957 97.7002L209.982 106.7C209.948 106.967 210.032 107.217 210.232 107.45C210.432 107.667 210.673 107.775 210.957 107.775H211.332V108H206.107V107.75H206.507C206.973 107.75 207.373 107.609 207.707 107.325C208.057 107.042 208.265 106.659 208.332 106.175L210.407 90.1502H210.632L218.382 102.9L225.832 90.1502H226.057L228.182 106.175C228.265 106.659 228.473 107.042 228.807 107.325C229.157 107.609 229.557 107.75 230.007 107.75Z" fill="#313131"/>
<path d="M250.585 90.7502C250.168 90.7502 249.81 90.9002 249.51 91.2002C249.21 91.4835 249.052 91.8335 249.035 92.2502V105.15C249.035 106.267 249.11 107.209 249.26 107.975L249.335 108.35H249.11L236.485 96.3252V106.25C236.485 106.667 236.635 107.025 236.935 107.325C237.235 107.609 237.593 107.75 238.01 107.75H238.485V108H230.91V107.75H231.36C231.793 107.75 232.16 107.609 232.46 107.325C232.76 107.025 232.91 106.659 232.91 106.225V93.2502C232.91 92.1502 232.835 91.2335 232.685 90.5002L232.635 90.1252H232.86L245.485 102.15V92.2752C245.468 91.8419 245.31 91.4835 245.01 91.2002C244.71 90.9002 244.352 90.7502 243.935 90.7502H243.485V90.5002H251.06V90.7502H250.585Z" fill="#313131"/>
<path d="M262.376 90.1502C265.459 90.1502 267.909 90.9669 269.726 92.6002C271.542 94.2335 272.451 96.4502 272.451 99.2502C272.451 102.05 271.542 104.267 269.726 105.9C267.909 107.534 265.459 108.35 262.376 108.35C259.292 108.35 256.842 107.534 255.026 105.9C253.209 104.267 252.301 102.05 252.301 99.2502C252.301 97.4002 252.709 95.7919 253.526 94.4252C254.359 93.0419 255.534 91.9835 257.051 91.2502C258.567 90.5169 260.342 90.1502 262.376 90.1502ZM258.001 105.15C259.084 106.584 260.542 107.3 262.376 107.3C264.209 107.3 265.659 106.584 266.726 105.15C267.809 103.7 268.351 101.734 268.351 99.2502C268.351 97.6169 268.109 96.1919 267.626 94.9752C267.142 93.7585 266.451 92.8252 265.551 92.1752C264.651 91.5252 263.592 91.2002 262.376 91.2002C260.542 91.2002 259.084 91.9252 258.001 93.3752C256.934 94.8085 256.401 96.7669 256.401 99.2502C256.401 101.734 256.934 103.7 258.001 105.15Z" fill="#313131"/>
<path d="M288.085 97.6752C287.518 98.9752 286.468 99.8752 284.935 100.375C284.485 100.525 284.068 100.6 283.685 100.6C282.502 100.6 281.443 100.292 280.51 99.6752V99.4252C281.76 99.4585 282.768 99.0502 283.535 98.2002C284.218 97.4669 284.56 96.5085 284.56 95.3252C284.56 93.5085 283.927 92.3335 282.66 91.8002C282.26 91.6335 281.818 91.5502 281.335 91.5502H279.66V106.175C279.66 106.609 279.818 106.984 280.135 107.3C280.452 107.6 280.827 107.75 281.26 107.75H281.585V108H273.985V107.75H274.31C274.743 107.75 275.11 107.6 275.41 107.3C275.727 106.984 275.893 106.609 275.91 106.175V92.2002C275.843 91.6335 275.56 91.2169 275.06 90.9502C274.827 90.8169 274.577 90.7502 274.31 90.7502H273.985V90.5002H282.335C285.352 90.5002 287.285 91.4585 288.135 93.3752C288.402 94.0085 288.535 94.7169 288.535 95.5002C288.535 96.2669 288.385 96.9919 288.085 97.6752Z" fill="#313131"/>
<path d="M317.51 111.625C319.86 111.625 321.785 111.017 323.285 109.8L323.435 109.9C323.352 111.25 322.719 112.4 321.535 113.35C320.202 114.434 318.544 114.975 316.56 114.975C314.594 114.975 312.46 114.417 310.16 113.3C309.127 112.784 307.419 111.759 305.035 110.225C304.369 109.775 303.61 109.367 302.76 109C301.91 108.634 301.119 108.417 300.385 108.35C297.385 108.284 295.002 107.442 293.235 105.825C291.485 104.192 290.61 102 290.61 99.2502C290.61 97.4002 291.019 95.7919 291.835 94.4252C292.669 93.0419 293.844 91.9835 295.36 91.2502C296.877 90.5169 298.652 90.1502 300.685 90.1502C303.769 90.1502 306.219 90.9669 308.035 92.6002C309.852 94.2335 310.76 96.4502 310.76 99.2502C310.76 101.467 310.177 103.334 309.01 104.85C307.844 106.367 306.219 107.392 304.135 107.925C305.185 108.142 306.227 108.425 307.26 108.775C308.31 109.142 309.81 109.709 311.76 110.475C313.727 111.242 315.644 111.625 317.51 111.625ZM296.31 93.3752C295.244 94.8085 294.71 96.7669 294.71 99.2502C294.71 101.734 295.244 103.7 296.31 105.15C297.394 106.584 298.852 107.3 300.685 107.3C302.519 107.3 303.969 106.584 305.035 105.15C306.119 103.7 306.66 101.734 306.66 99.2502C306.66 97.6169 306.419 96.1919 305.935 94.9752C305.452 93.7585 304.76 92.8252 303.86 92.1752C302.96 91.5252 301.902 91.2002 300.685 91.2002C298.852 91.2002 297.394 91.9252 296.31 93.3752Z" fill="#313131"/>
<path d="M319.311 91.6002H318.236C318.203 91.6002 318.178 91.6002 318.161 91.6002V106.175C318.178 106.792 318.444 107.25 318.961 107.55C319.211 107.684 319.478 107.75 319.761 107.75H320.086V108H312.486V107.75H312.811C313.411 107.75 313.869 107.492 314.186 106.975C314.319 106.742 314.394 106.484 314.411 106.2V92.3252C314.394 91.8919 314.228 91.5252 313.911 91.2252C313.611 90.9085 313.244 90.7502 312.811 90.7502H312.486V90.5002H321.061C322.678 90.5002 324.044 90.8502 325.161 91.5502C325.728 91.9002 326.178 92.3919 326.511 93.0252C326.844 93.6419 327.011 94.3502 327.011 95.1502C327.011 95.9335 326.869 96.6585 326.586 97.3252C326.319 97.9919 325.861 98.5752 325.211 99.0752C324.578 99.5752 323.811 99.8752 322.911 99.9752C323.878 100.292 324.728 101.025 325.461 102.175C327.261 105.059 328.594 106.775 329.461 107.325C329.894 107.592 330.436 107.734 331.086 107.75V108H328.636C327.219 108 326.036 107.809 325.086 107.425C324.136 107.025 323.361 106.35 322.761 105.4C322.461 104.917 322.078 104.192 321.611 103.225C321.144 102.242 320.836 101.542 320.686 101.125C320.236 100.125 319.669 99.5669 318.986 99.4502V99.2002H319.761C320.511 99.2002 321.169 98.9752 321.736 98.5252C322.319 98.0752 322.711 97.3419 322.911 96.3252C322.978 95.9752 323.011 95.7002 323.011 95.5002C323.011 94.1335 322.736 93.1502 322.186 92.5502C321.636 91.9335 320.928 91.6169 320.061 91.6002C319.894 91.6002 319.644 91.6002 319.311 91.6002Z" fill="#313131"/>
<path d="M331.068 105.675C331.068 104.475 331.326 103.45 331.843 102.6H332.068C332.051 102.734 332.043 102.867 332.043 103C332.043 104.15 332.451 105.159 333.268 106.025C334.101 106.875 335.235 107.3 336.668 107.3C337.785 107.3 338.651 107.034 339.268 106.5C339.901 105.967 340.218 105.292 340.218 104.475C340.218 103.492 339.551 102.634 338.218 101.9L333.868 99.0252C333.001 98.5252 332.376 97.9252 331.993 97.2252C331.626 96.5085 331.443 95.7835 331.443 95.0502C331.443 93.4835 331.935 92.2752 332.918 91.4252C333.918 90.5752 335.193 90.1502 336.743 90.1502C337.66 90.1502 338.793 90.2335 340.143 90.4002H341.718L341.393 94.0752H341.143C341.143 93.2085 340.818 92.5169 340.168 92.0002C339.535 91.4669 338.685 91.2002 337.618 91.2002C336.318 91.2002 335.376 91.6002 334.793 92.4002C334.493 92.7835 334.343 93.2169 334.343 93.7002C334.343 94.5002 334.926 95.2419 336.093 95.9252L340.868 99.0252C342.368 99.8919 343.118 101.167 343.118 102.85C343.118 104.634 342.51 106 341.293 106.95C340.093 107.884 338.493 108.35 336.493 108.35C335.36 108.35 334.31 108.217 333.343 107.95C332.393 107.667 331.693 107.292 331.243 106.825C331.126 106.509 331.068 106.125 331.068 105.675Z" fill="#313131"/>
<path d="M354.496 91.5252V106.2C354.513 106.634 354.671 107 354.971 107.3C355.288 107.6 355.663 107.75 356.096 107.75H356.396L356.421 108H348.821V107.75H349.146C349.563 107.75 349.921 107.6 350.221 107.3C350.538 107 350.713 106.642 350.746 106.225V91.5252H347.371C346.605 91.5419 345.996 91.7835 345.546 92.2502C345.096 92.7169 344.871 93.3252 344.871 94.0752V94.3752H344.621V90.0252C344.855 90.1252 345.271 90.2252 345.871 90.3252C346.488 90.4252 347.055 90.4752 347.571 90.4752H357.646C358.463 90.4585 359.13 90.3919 359.646 90.2752C360.163 90.1585 360.48 90.0752 360.596 90.0252V94.3752H360.346V94.0752C360.346 93.3252 360.121 92.7169 359.671 92.2502C359.221 91.7835 358.613 91.5419 357.846 91.5252H354.496Z" fill="#313131"/>
<path d="M380.672 90.7502H380.247C379.897 90.7502 379.588 90.8669 379.322 91.1002C379.072 91.3169 378.947 91.5919 378.947 91.9252V101.675C378.947 103.725 378.305 105.35 377.022 106.55C375.738 107.75 373.98 108.35 371.747 108.35C369.113 108.35 367.097 107.767 365.697 106.6C364.297 105.417 363.597 103.784 363.597 101.7V92.0002C363.597 91.6335 363.463 91.3335 363.197 91.1002C362.947 90.8669 362.638 90.7502 362.272 90.7502H361.872V90.5002H369.072V90.7502H368.672C368.305 90.7502 367.997 90.8669 367.747 91.1002C367.497 91.3169 367.363 91.6002 367.347 91.9502V101.5C367.347 103.267 367.78 104.667 368.647 105.7C369.513 106.734 370.705 107.25 372.222 107.25C373.738 107.25 374.938 106.767 375.822 105.8C376.705 104.817 377.155 103.492 377.172 101.825V91.9502C377.172 91.6002 377.038 91.3169 376.772 91.1002C376.522 90.8669 376.213 90.7502 375.847 90.7502H375.447V90.5002H380.672V90.7502Z" fill="#313131"/>
<path d="M400.379 90.7502H400.154C399.77 90.7502 399.387 90.8669 399.004 91.1002C398.62 91.3335 398.304 91.6835 398.054 92.1502L392.129 105.225C391.362 106.875 390.954 107.967 390.904 108.5H390.679L383.104 92.1752C382.854 91.7085 382.537 91.3585 382.154 91.1252C381.77 90.8752 381.379 90.7502 380.979 90.7502H380.779V90.5002H388.729V90.7502H388.529C388.162 90.7502 387.887 90.8669 387.704 91.1002C387.537 91.3169 387.454 91.5252 387.454 91.7252C387.454 91.9252 387.487 92.1252 387.554 92.3252L391.804 102.65L396.204 92.3252C396.287 92.1085 396.329 91.9085 396.329 91.7252C396.329 91.5252 396.237 91.3169 396.054 91.1002C395.887 90.8669 395.62 90.7502 395.254 90.7502H395.029V90.5002H400.379V90.7502Z" fill="#313131"/>
<path d="M425.253 90.7502H425.028C424.612 90.7502 424.187 90.8752 423.753 91.1252C423.337 91.3752 423.037 91.7335 422.853 92.2002L418.653 105.675C418.37 106.592 418.228 107.442 418.228 108.225C418.228 108.309 418.228 108.384 418.228 108.45H417.978L412.528 96.3752L408.578 105.675C408.195 106.642 407.995 107.567 407.978 108.45H407.728L401.753 92.2002C401.537 91.7169 401.228 91.3585 400.828 91.1252C400.428 90.8752 400.02 90.7502 399.603 90.7502H399.403V90.5002H407.028V90.7502H406.803C406.453 90.7502 406.187 90.8669 406.003 91.1002C405.837 91.3169 405.753 91.5252 405.753 91.7252C405.753 91.9252 405.787 92.1169 405.853 92.3002L408.928 101L413.453 90.1002L413.678 90.1252L418.653 101.1L421.153 92.3002C421.203 92.1169 421.228 91.9252 421.228 91.7252C421.228 91.5252 421.145 91.3169 420.978 91.1002C420.828 90.8669 420.57 90.7502 420.203 90.7502H419.978V90.5002H425.253V90.7502Z" fill="#313131"/>
<path d="M435.441 107.75C435.791 107.75 436.074 107.584 436.291 107.25C436.391 107.067 436.441 106.892 436.441 106.725C436.441 106.559 436.391 106.392 436.291 106.225L432.791 100.775L429.116 106.2C428.832 106.7 428.916 107.134 429.366 107.5C429.566 107.667 429.774 107.75 429.991 107.75H430.316V108H424.141V107.75H424.491C425.424 107.75 426.249 107.284 426.966 106.35L431.891 99.3752L427.266 92.2252C426.982 91.8085 426.616 91.4585 426.166 91.1752C425.716 90.8919 425.241 90.7502 424.741 90.7502H424.391V90.5002H432.891V90.7502H432.566C432.216 90.7502 431.932 90.9169 431.716 91.2502C431.616 91.4335 431.566 91.6169 431.566 91.8002C431.566 91.9669 431.607 92.1252 431.691 92.2752L434.816 97.1002L437.891 92.3002C437.991 92.1335 438.041 91.9669 438.041 91.8002C438.041 91.6169 437.982 91.4419 437.866 91.2752C437.649 90.9252 437.366 90.7502 437.016 90.7502H436.691V90.5002H442.841V90.7502H442.491C441.991 90.7502 441.524 90.8919 441.091 91.1752C440.657 91.4419 440.291 91.7835 439.991 92.2002L435.741 98.5252L440.766 106.3C441.049 106.717 441.416 107.067 441.866 107.35C442.332 107.617 442.807 107.75 443.291 107.75H443.641V108H435.116V107.75H435.441Z" fill="#313131"/>
<path d="M461.303 90.7502H460.953C460.453 90.7502 459.978 90.8919 459.528 91.1752C459.078 91.4585 458.72 91.8002 458.453 92.2002L453.528 100.05V106.175C453.528 106.609 453.687 106.984 454.003 107.3C454.32 107.6 454.695 107.75 455.128 107.75H455.428L455.453 108H447.853V107.75H448.178C448.612 107.75 448.978 107.6 449.278 107.3C449.595 107 449.762 106.634 449.778 106.2V100.025L445.003 92.1752C444.753 91.7752 444.395 91.4419 443.928 91.1752C443.478 90.8919 443.012 90.7502 442.528 90.7502H442.178V90.5002H450.453V90.7502H450.128C449.762 90.7502 449.478 90.9169 449.278 91.2502C449.178 91.4335 449.128 91.6169 449.128 91.8002C449.128 91.9669 449.17 92.1335 449.253 92.3002L452.828 98.8002L456.528 92.3002C456.628 92.1335 456.678 91.9669 456.678 91.8002C456.678 91.6169 456.62 91.4419 456.503 91.2752C456.303 90.9252 456.02 90.7502 455.653 90.7502H455.353V90.5002H461.303V90.7502Z" fill="#313131"/>
<path d="M461.957 90.0252C462.207 90.1252 462.64 90.2252 463.257 90.3252C463.89 90.4252 464.332 90.4752 464.582 90.4752C464.849 90.4752 464.982 90.4752 464.982 90.4752H472.957C473.774 90.4752 474.399 90.4335 474.832 90.3502C475.265 90.2502 475.515 90.1835 475.582 90.1502V90.3752L466.332 106.95H471.582C472.649 106.95 473.574 106.592 474.357 105.875C475.157 105.159 475.724 104.192 476.057 102.975H476.307L475.407 108H461.607V107.775L470.782 91.5252H464.732C463.965 91.5419 463.349 91.7835 462.882 92.2502C462.432 92.7002 462.207 93.3085 462.207 94.0752V94.3752H461.957V90.0252Z" fill="#313131"/>
<path d="M25.3553 150.575C23.5386 151.492 21.6969 151.642 19.8303 151.025C17.8469 150.392 16.1386 149.042 14.7053 146.975C13.9386 145.875 13.2803 144.6 12.7303 143.15L11.9303 141.025H6.03027L4.70527 144.175C4.62194 144.392 4.58027 144.567 4.58027 144.7C4.58027 144.834 4.60527 144.984 4.65527 145.15C4.72194 145.3 4.84694 145.442 5.03027 145.575C5.23027 145.692 5.44694 145.75 5.68027 145.75H5.88027V146H0.530273V145.75H0.755273C1.13861 145.75 1.51361 145.642 1.88027 145.425C2.26361 145.192 2.58027 144.85 2.83027 144.4L8.40527 131.675C7.75527 130.209 7.06361 129.2 6.33027 128.65C5.71361 128.184 5.12194 127.95 4.55527 127.95C4.00527 127.95 3.48861 128.034 3.00527 128.2L2.95527 127.95C4.15527 127.334 5.30527 127.025 6.40527 127.025C7.77194 127.025 8.99694 127.559 10.0803 128.625C11.1469 129.675 12.0886 131.192 12.9053 133.175L16.5303 142.125C17.8969 145.509 19.2969 147.834 20.7303 149.1C21.3136 149.617 21.9136 149.975 22.5303 150.175C23.1469 150.375 23.6636 150.475 24.0803 150.475C24.5136 150.475 24.9303 150.425 25.3303 150.325L25.3553 150.575ZM6.45527 139.95H11.5553L9.80527 135.325C9.72194 135.092 9.60527 134.775 9.45527 134.375C9.30527 133.959 9.20527 133.667 9.15527 133.5L6.45527 139.95Z" fill="#313131"/>
<path d="M32.9822 132.8C32.9822 133.584 32.7822 134.284 32.3822 134.9C31.9989 135.517 31.4989 135.942 30.8822 136.175C32.8156 136.275 34.2239 137.034 35.1072 138.45C35.5572 139.167 35.7822 140.05 35.7822 141.1C35.7822 142.15 35.3739 143.109 34.5572 143.975C33.7572 144.842 32.7322 145.459 31.4822 145.825C30.2322 146.192 28.9156 146.375 27.5322 146.375C24.0822 146.375 21.6156 145.459 20.1322 143.625C19.1822 142.459 18.7072 140.884 18.7072 138.9C18.7072 138.567 18.7239 138.234 18.7572 137.9L19.0072 137.875C19.1239 140.742 20.1489 142.792 22.0822 144.025V130.3C22.0656 129.684 21.7906 129.234 21.2572 128.95C21.0239 128.817 20.7656 128.75 20.4822 128.75H20.1572V128.5H26.5072C28.3572 128.5 29.8989 128.875 31.1322 129.625C32.3656 130.359 32.9822 131.417 32.9822 132.8ZM26.5322 145.2C28.0822 145.2 29.2906 144.792 30.1572 143.975C31.0406 143.159 31.4822 142.084 31.4822 140.75C31.4822 139.917 31.3239 139.217 31.0072 138.65C30.7072 138.067 30.3072 137.634 29.8072 137.35C28.8906 136.8 27.8489 136.525 26.6822 136.525V136.3C27.2156 136.3 27.6656 136.109 28.0322 135.725C28.6656 135.059 28.9822 134.15 28.9822 133C28.9822 131.85 28.7239 131 28.2072 130.45C27.7072 129.9 26.9156 129.609 25.8322 129.575V145.175C26.0656 145.192 26.2989 145.2 26.5322 145.2Z" fill="#313131"/>
<path d="M57.0742 136.225C57.1242 136.725 57.1492 137.359 57.1492 138.125C57.1492 138.875 56.9992 139.8 56.6992 140.9C56.3992 141.984 55.8576 142.942 55.0742 143.775C53.4742 145.492 51.2742 146.35 48.4742 146.35C45.0742 146.35 42.3909 145.517 40.4242 143.85C38.4576 142.167 37.4742 139.975 37.4742 137.275C37.4742 134.559 38.4659 132.359 40.4492 130.675C42.4492 128.992 45.0826 128.15 48.3492 128.15C49.5992 128.15 50.7909 128.275 51.9242 128.525C53.0576 128.775 53.9992 129.1 54.7492 129.5L54.7992 133.8H54.5992C54.3159 132.734 53.8409 131.842 53.1742 131.125C51.9742 129.842 50.3576 129.2 48.3242 129.2C46.2909 129.2 44.6492 129.925 43.3992 131.375C42.1659 132.825 41.5492 134.75 41.5492 137.15C41.5492 139.534 42.1909 141.475 43.4742 142.975C44.7742 144.475 46.5576 145.25 48.8242 145.3C51.2742 145.3 53.2242 144.517 54.6742 142.95C56.1242 141.384 56.8492 139.259 56.8492 136.575C56.8492 136.459 56.8492 136.342 56.8492 136.225H57.0742Z" fill="#313131"/>
<path d="M62.9232 128.475C63.2066 128.475 63.7232 128.475 64.4732 128.475C65.2232 128.475 66.6149 128.484 68.6482 128.5C71.5982 128.534 73.9316 129.334 75.6482 130.9C77.3649 132.45 78.2232 134.575 78.2232 137.275C78.2232 139.959 77.3649 142.084 75.6482 143.65C73.9316 145.217 71.5982 146 68.6482 146H59.5732V145.75H59.8982C60.3149 145.75 60.6732 145.609 60.9732 145.325C61.2899 145.025 61.4649 144.667 61.4982 144.25V129.625C59.6316 129.759 58.2482 130.192 57.3482 130.925C56.8982 131.275 56.5482 131.634 56.2982 132C56.0316 132.367 55.7732 132.809 55.5232 133.325L55.2732 133.225C55.6732 131.559 56.5066 130.359 57.7732 129.625C59.0566 128.875 60.7732 128.492 62.9232 128.475ZM68.3482 144.95C70.1316 144.95 71.5399 144.259 72.5732 142.875C73.6232 141.492 74.1482 139.617 74.1482 137.25C74.1482 134.884 73.6232 133.017 72.5732 131.65C71.5399 130.284 70.1482 129.6 68.3982 129.6C68.3816 129.6 68.3649 129.6 68.3482 129.6H65.2482V144.95H68.3482Z" fill="#313131"/>
<path d="M80.1926 145.75C80.6259 145.75 80.9926 145.6 81.2926 145.3C81.6092 144.984 81.7759 144.609 81.7926 144.175V130.25C81.7426 129.667 81.4676 129.234 80.9676 128.95C80.7176 128.817 80.4592 128.75 80.1926 128.75H79.8676V128.5H86.8926C87.6259 128.5 88.2676 128.442 88.8176 128.325C89.3676 128.209 89.7259 128.117 89.8926 128.05V132.425H89.6176V132.125C89.6342 131.375 89.4176 130.775 88.9676 130.325C88.5342 129.859 87.9426 129.609 87.1926 129.575H85.5426V136.85H89.5176C90.1342 136.834 90.6426 136.625 91.0426 136.225C91.4426 135.809 91.6426 135.3 91.6426 134.7V134.475H91.8676V140.25H91.6426V140.05C91.6426 139.434 91.4426 138.925 91.0426 138.525C90.6426 138.125 90.1426 137.917 89.5426 137.9H85.5426V144.925H90.4176C91.6342 144.925 92.6509 144.575 93.4676 143.875C94.3009 143.175 94.9176 142.184 95.3176 140.9H95.5676L94.3926 146H79.8676V145.75H80.1926Z" fill="#313131"/>
<path d="M102.193 137.9V144.175C102.193 144.609 102.351 144.984 102.668 145.3C102.985 145.6 103.36 145.75 103.793 145.75H104.093L104.118 146H96.518V145.75H96.843C97.2763 145.75 97.643 145.6 97.943 145.3C98.2596 144.984 98.4263 144.609 98.443 144.175V130.25C98.4096 129.834 98.2346 129.484 97.918 129.2C97.618 128.9 97.2596 128.75 96.843 128.75H96.518V128.5H106.093C106.826 128.5 107.468 128.442 108.018 128.325C108.568 128.209 108.926 128.117 109.093 128.05V132.275H108.843V132.025C108.843 131.025 108.468 130.317 107.718 129.9C107.368 129.7 106.951 129.592 106.468 129.575H102.193V136.85H109.393C110.01 136.834 110.518 136.625 110.918 136.225C111.318 135.809 111.518 135.3 111.518 134.7V134.475H111.768V140.25H111.518V140.05C111.518 139.434 111.318 138.925 110.918 138.525C110.535 138.125 110.043 137.917 109.443 137.9H102.193Z" fill="#313131"/>
<path d="M136.579 150.95C136.163 150.95 135.754 150.917 135.354 150.85C133.738 150.6 132.363 149.984 131.229 149C130.096 148.034 129.279 146.825 128.779 145.375C127.213 146.025 125.521 146.35 123.704 146.35C120.704 146.35 118.246 145.5 116.329 143.8C114.413 142.1 113.454 139.917 113.454 137.25C113.454 135.467 113.888 133.884 114.754 132.5C115.638 131.117 116.871 130.05 118.454 129.3C120.038 128.534 121.846 128.15 123.879 128.15C125.213 128.15 126.504 128.284 127.754 128.55C129.004 128.8 130.013 129.117 130.779 129.5L130.829 133.8H130.629C130.229 132.284 129.454 131.142 128.304 130.375C127.171 129.592 125.804 129.2 124.204 129.2C122.238 129.2 120.629 129.959 119.379 131.475C118.146 132.975 117.529 134.917 117.529 137.3C117.529 139.667 118.138 141.592 119.354 143.075C120.571 144.559 122.138 145.3 124.054 145.3C125.088 145.3 125.979 145.075 126.729 144.625C127.496 144.175 128.013 143.575 128.279 142.825V139.025C128.279 138.659 128.171 138.375 127.954 138.175C127.738 137.975 127.429 137.875 127.029 137.875H126.629V137.625H133.654V137.875H133.279C132.863 137.875 132.546 137.975 132.329 138.175C132.113 138.375 132.013 138.65 132.029 139V142.975C132.046 144.075 132.254 145.1 132.654 146.05C133.538 148.084 135.004 149.35 137.054 149.85C137.604 149.984 138.171 150.05 138.754 150.05C139.354 150.05 139.963 149.984 140.579 149.85L140.629 150.1C139.196 150.667 137.846 150.95 136.579 150.95Z" fill="#313131"/>
<path d="M146.995 145.75C147.428 145.75 147.803 145.6 148.12 145.3C148.437 145 148.603 144.634 148.62 144.2V137.825H140.745V144.25C140.745 146.25 140.237 147.842 139.22 149.025C138.42 149.959 137.27 150.425 135.77 150.425C135.287 150.425 134.762 150.367 134.195 150.25L134.145 150C135.378 149.484 136.17 148.717 136.52 147.7C136.837 146.834 136.995 145.684 136.995 144.25V130.3C136.978 129.867 136.812 129.5 136.495 129.2C136.195 128.9 135.828 128.75 135.395 128.75H135.07V128.5H142.67V128.75H142.345C141.745 128.75 141.295 129 140.995 129.5C140.845 129.734 140.762 130 140.745 130.3V136.75H148.62V130.75C148.62 128.8 149.228 127.25 150.445 126.1C151.412 125.15 152.628 124.675 154.095 124.675C154.428 124.675 154.778 124.7 155.145 124.75L155.195 125C153.978 125.434 153.187 126.2 152.82 127.3C152.52 128.2 152.362 129.35 152.345 130.75V144.175C152.362 144.775 152.628 145.225 153.145 145.525C153.395 145.675 153.67 145.75 153.97 145.75H154.27V146H146.695V145.75H146.995Z" fill="#313131"/>
<path d="M165.553 145.75H165.878V146H158.278V145.75H158.603C159.037 145.75 159.403 145.6 159.703 145.3C160.02 144.984 160.187 144.609 160.203 144.175V129.525L157.828 129.625C156.262 129.692 155.478 130.275 155.478 131.375C155.478 131.825 155.628 132.209 155.928 132.525C156.245 132.825 156.678 132.975 157.228 132.975C157.278 132.975 157.328 132.975 157.378 132.975V133.125C157.045 133.242 156.762 133.3 156.528 133.3C155.778 133.3 155.203 133.034 154.803 132.5C154.52 132.134 154.378 131.717 154.378 131.25C154.378 130.517 154.67 129.917 155.253 129.45C155.82 128.967 156.703 128.684 157.903 128.6C158.12 128.584 158.82 128.55 160.003 128.5C162.703 128.4 164.662 128.234 165.878 128L165.928 128.25C165.212 128.367 164.703 128.609 164.403 128.975C164.12 129.342 163.97 129.884 163.953 130.6V144.175C163.97 144.609 164.128 144.984 164.428 145.3C164.745 145.6 165.12 145.75 165.553 145.75Z" fill="#313131"/>
<path d="M175.28 128.75C174.68 128.75 174.221 129.009 173.905 129.525C173.755 129.759 173.68 130.025 173.68 130.325V144C173.68 146.25 173.105 148 171.955 149.25C170.905 150.384 169.671 150.95 168.255 150.95C167.155 150.95 166.038 150.642 164.905 150.025L164.98 149.775C165.296 149.842 165.596 149.875 165.88 149.875C166.563 149.875 167.171 149.7 167.705 149.35C169.188 148.417 169.93 146.609 169.93 143.925V130.325C169.913 129.709 169.646 129.25 169.13 128.95C168.88 128.817 168.613 128.75 168.33 128.75H168.005V128.5H175.605V128.75H175.28Z" fill="#313131"/>
<path d="M177.678 145.75C178.111 145.75 178.478 145.6 178.778 145.3C179.095 144.984 179.261 144.609 179.278 144.175V130.3C179.261 129.7 178.986 129.25 178.453 128.95C178.22 128.817 177.961 128.75 177.678 128.75H177.353V128.5H184.953L184.928 128.75H184.628C184.195 128.75 183.82 128.9 183.503 129.2C183.186 129.5 183.028 129.867 183.028 130.3V144.175C183.028 144.609 183.186 144.984 183.503 145.3C183.82 145.6 184.195 145.75 184.628 145.75H184.928L184.953 146H177.353V145.75H177.678ZM202.503 150.25C201.286 150.884 200.178 151.2 199.178 151.2C198.178 151.2 197.278 151.059 196.478 150.775C194.495 150.059 192.47 148.417 190.403 145.85L183.828 137.75L189.753 129.9C189.886 129.734 189.953 129.584 189.953 129.45C189.953 129.317 189.928 129.2 189.878 129.1C189.745 128.85 189.511 128.725 189.178 128.725H188.928V128.5H194.653V128.725H194.553C193.436 128.725 192.528 129.125 191.828 129.925L186.953 135.725L193.753 144.175C195.27 146.175 196.695 147.625 198.028 148.525C199.361 149.425 200.845 149.917 202.478 150L202.503 150.25Z" fill="#313131"/>
<path d="M216.671 149.475C218.405 149.475 219.805 149.134 220.871 148.45L221.046 148.65C219.613 150.634 217.83 151.734 215.696 151.95C215.246 152 214.855 152.025 214.521 152.025C214.205 152.025 213.83 152.009 213.396 151.975C212.98 151.959 212.388 151.85 211.621 151.65C210.855 151.45 210.18 151.242 209.596 151.025C209.013 150.825 208.338 150.55 207.571 150.2C206.805 149.867 206.171 149.567 205.671 149.3C205.171 149.05 204.571 148.742 203.871 148.375C203.188 148.025 202.588 147.725 202.071 147.475C201.555 147.225 201.055 147.009 200.571 146.825C199.205 146.275 197.805 146 196.371 146V145.75H196.696C197.13 145.75 197.496 145.6 197.796 145.3C198.113 145 198.28 144.625 198.296 144.175V130.325C198.28 129.875 198.113 129.5 197.796 129.2C197.496 128.9 197.13 128.75 196.696 128.75H196.371V128.5H203.971L203.946 128.75H203.696C203.063 128.75 202.588 129.009 202.271 129.525C202.121 129.759 202.046 130.025 202.046 130.325V144.825C202.046 145.375 202.155 145.759 202.371 145.975C202.588 146.175 202.83 146.317 203.096 146.4C209.363 148.45 213.888 149.475 216.671 149.475Z" fill="#313131"/>
<path d="M203.59 126.85C204.54 126.45 205.365 126.25 206.065 126.25C206.765 126.25 207.382 126.317 207.915 126.45C208.449 126.584 208.99 126.809 209.54 127.125C210.107 127.425 210.632 127.8 211.115 128.25C212.049 129.134 212.84 130.134 213.49 131.25L218.49 140.625L225.74 128.15H225.965L228.565 142.85C228.965 145.117 229.657 146.917 230.64 148.25C231.624 149.6 232.974 150.275 234.69 150.275C234.807 150.275 234.915 150.275 235.015 150.275V150.525C234.099 150.775 233.199 150.9 232.315 150.9C230.515 150.9 228.874 150.192 227.39 148.775C225.957 147.425 224.982 145.45 224.465 142.85L223.24 135.575L218.54 143.725C217.907 144.775 217.582 145.7 217.565 146.5H217.34L211.115 134.7L209.89 144.7C209.84 145.084 210.007 145.392 210.39 145.625C210.54 145.725 210.699 145.775 210.865 145.775H211.265V146H206.04V145.75H206.44C206.874 145.75 207.257 145.625 207.59 145.375C207.94 145.109 208.157 144.75 208.24 144.3L209.94 132.375C209.19 131.042 208.332 129.859 207.365 128.825C206.282 127.659 205.149 127.075 203.965 127.075C203.849 127.075 203.74 127.084 203.64 127.1L203.59 126.85Z" fill="#313131"/>
<path d="M253.535 148.6C253.818 148.767 254.135 148.917 254.485 149.05C254.835 149.2 255.168 149.3 255.485 149.35C255.818 149.417 256.176 149.45 256.56 149.45C256.96 149.45 257.368 149.4 257.785 149.3L257.885 149.55C256.951 150 256.01 150.225 255.06 150.225C252.876 150.225 250.651 149.017 248.385 146.6L236.535 134.025V144.25C236.535 144.667 236.685 145.025 236.985 145.325C237.285 145.609 237.643 145.75 238.06 145.75H238.535V146H230.96V145.75H231.41C231.843 145.75 232.21 145.609 232.51 145.325C232.81 145.025 232.96 144.659 232.96 144.225V130.2C232.143 129.267 231.526 128.617 231.11 128.25C230.693 127.867 230.326 127.55 230.01 127.3C229.676 127.05 229.36 126.842 229.06 126.675C228.36 126.275 227.801 126.042 227.385 125.975C226.951 125.909 226.551 125.875 226.185 125.875C225.801 125.875 225.393 125.95 224.96 126.1L224.86 125.85C225.776 125.317 226.718 125.05 227.685 125.05C229.785 125.05 232.01 126.3 234.36 128.8L245.535 140.675V130.275C245.518 129.842 245.36 129.484 245.06 129.2C244.76 128.9 244.401 128.75 243.985 128.75H243.535V128.5H251.11V128.75H250.635C250.218 128.75 249.86 128.9 249.56 129.2C249.26 129.484 249.101 129.834 249.085 130.25V144.475L249.485 144.875C249.585 144.975 249.735 145.15 249.935 145.4C250.151 145.634 250.343 145.834 250.51 146C250.676 146.184 250.885 146.409 251.135 146.675C251.401 146.942 251.643 147.175 251.86 147.375C252.093 147.575 252.36 147.792 252.66 148.025C252.976 148.259 253.268 148.45 253.535 148.6Z" fill="#313131"/>
<path d="M259.92 134.825C259.62 134.192 259.47 133.592 259.47 133.025C259.47 132.442 259.545 131.909 259.695 131.425C259.845 130.925 260.095 130.442 260.445 129.975C260.795 129.492 261.287 129.092 261.92 128.775C262.787 128.325 263.829 128.1 265.045 128.1C266.645 128.1 268.162 128.509 269.595 129.325C271.479 130.392 272.787 131.867 273.52 133.75C273.937 134.784 274.145 135.892 274.145 137.075C274.145 139.859 273.137 142.1 271.12 143.8C269.12 145.5 266.504 146.35 263.27 146.35C260.054 146.35 257.429 145.5 255.395 143.8C253.379 142.1 252.37 139.867 252.37 137.1C252.37 135.034 252.954 133.242 254.12 131.725C255.304 130.192 256.895 129.15 258.895 128.6L259.045 128.825C258.195 129.542 257.554 130.592 257.12 131.975C256.687 133.359 256.47 134.85 256.47 136.45C256.47 139.15 257.095 141.3 258.345 142.9C259.595 144.5 261.229 145.3 263.245 145.3C265.279 145.3 266.912 144.55 268.145 143.05C269.395 141.534 270.02 139.534 270.02 137.05C270.02 135.55 269.787 134.2 269.32 133C268.87 131.784 268.212 130.85 267.345 130.2C266.479 129.534 265.512 129.2 264.445 129.2C263.262 129.2 262.304 129.509 261.57 130.125C260.537 131.009 260.02 132.134 260.02 133.5C260.02 133.934 260.079 134.375 260.195 134.825H259.92Z" fill="#313131"/>
<path d="M282.52 136.5C282.803 137.167 283.386 137.5 284.27 137.5C285.27 137.5 286.07 137 286.67 136C287.086 135.317 287.295 134.45 287.295 133.4C287.295 131.85 286.886 130.717 286.07 130C285.453 129.467 284.67 129.2 283.72 129.2C283.503 129.2 283.278 129.217 283.045 129.25L281.37 129.5V144.175C281.37 144.625 281.528 145 281.845 145.3C282.161 145.6 282.536 145.75 282.97 145.75H283.295V146H275.695V145.75H276.02C276.453 145.75 276.82 145.6 277.12 145.3C277.436 145 277.603 144.625 277.62 144.175V130.85C277.603 130.417 277.47 130.075 277.22 129.825C276.986 129.575 276.636 129.45 276.17 129.45C276.053 129.45 275.903 129.459 275.72 129.475L275.67 129.25C277.086 129.134 278.57 128.942 280.12 128.675C281.686 128.392 282.711 128.217 283.195 128.15C283.695 128.084 284.195 128.05 284.695 128.05C285.211 128.05 285.828 128.109 286.545 128.225C287.261 128.325 287.995 128.567 288.745 128.95C289.495 129.317 290.103 129.867 290.57 130.6C291.053 131.4 291.295 132.309 291.295 133.325C291.295 134.325 291.111 135.209 290.745 135.975C290.045 137.442 288.845 138.375 287.145 138.775C286.728 138.875 286.328 138.925 285.945 138.925C285.578 138.925 285.228 138.892 284.895 138.825C284.211 138.725 283.636 138.492 283.17 138.125C282.703 137.759 282.411 137.25 282.295 136.6L282.52 136.5Z" fill="#313131"/>
<path d="M329.538 151.05C327.822 152.217 325.63 152.8 322.963 152.8C320.13 152.8 317.297 152.259 314.463 151.175C313.63 150.859 312.405 150.35 310.788 149.65C306.522 147.784 303.863 146.684 302.813 146.35V146.1H302.863C302.88 146.1 302.897 146.1 302.913 146.1C304.897 146.1 306.638 145.475 308.138 144.225C308.888 143.592 309.505 142.742 309.988 141.675C310.538 140.459 310.813 139.084 310.813 137.55C310.813 135.4 310.272 133.525 309.188 131.925C308.622 131.109 307.905 130.442 307.038 129.925C306.088 129.359 305.013 129.075 303.813 129.075C301.947 129.075 300.363 129.792 299.063 131.225C297.763 132.642 297.113 134.642 297.113 137.225C297.113 139.009 297.472 140.509 298.188 141.725C299.038 143.159 300.288 143.875 301.938 143.875C302.288 143.875 302.688 143.825 303.138 143.725C303.605 143.609 304.08 143.3 304.563 142.8C305.063 142.3 305.38 141.65 305.513 140.85L305.788 140.875C305.772 142.275 305.363 143.292 304.563 143.925C303.747 144.559 302.822 144.875 301.788 144.875C301.255 144.875 300.68 144.834 300.063 144.75C298.013 144.4 296.338 143.525 295.038 142.125C293.755 140.725 293.113 139.025 293.113 137.025C293.113 135.759 293.372 134.567 293.888 133.45C294.972 131.167 296.872 129.575 299.588 128.675C300.905 128.242 302.338 128.025 303.888 128.025C307.138 128.025 309.772 128.892 311.788 130.625C313.805 132.359 314.813 134.542 314.813 137.175C314.813 138.475 314.563 139.684 314.063 140.8C313.58 141.917 312.93 142.85 312.113 143.6C310.447 145.167 308.497 146.117 306.263 146.45C307.73 146.667 309.622 147.025 311.938 147.525C314.272 148.042 315.897 148.4 316.813 148.6C320.48 149.384 323.472 149.775 325.788 149.775C326.072 149.775 326.522 149.759 327.138 149.725C327.755 149.692 328.513 149.542 329.413 149.275C330.33 149.009 331.072 148.617 331.638 148.1L331.788 148.2C331.405 149.35 330.655 150.3 329.538 151.05Z" fill="#313131"/>
<path d="M342.49 150.25C341.19 150.9 339.807 151.225 338.34 151.225C337.04 151.225 335.857 151.025 334.79 150.625C332.49 149.775 330.532 148.117 328.915 145.65C328.499 145.05 327.724 143.9 326.59 142.2C325.457 140.5 324.724 139.417 324.39 138.95C323.807 138.034 323.34 137.534 322.99 137.45V137.2C323.007 137.2 323.024 137.2 323.04 137.2C323.074 137.2 323.107 137.2 323.14 137.2C323.174 137.2 323.207 137.2 323.24 137.2C323.274 137.2 323.315 137.2 323.365 137.2C323.415 137.2 323.457 137.2 323.49 137.2C324.34 137.2 325.124 137.009 325.84 136.625C326.924 136.025 327.465 134.917 327.465 133.3C327.465 132.117 327.132 131.209 326.465 130.575C325.799 129.925 324.999 129.6 324.065 129.6H322.165V144.175C322.165 144.609 322.324 144.984 322.64 145.3C322.957 145.6 323.332 145.75 323.765 145.75H324.09V146H316.49V145.75H316.815C317.232 145.75 317.599 145.6 317.915 145.3C318.232 145 318.399 144.634 318.415 144.2V130.325C318.399 129.892 318.232 129.525 317.915 129.225C317.615 128.909 317.249 128.75 316.815 128.75H316.49V128.5H325.065C327.215 128.5 328.882 128.992 330.065 129.975C330.999 130.742 331.465 131.825 331.465 133.225C331.465 134.625 331.007 135.767 330.09 136.65C329.19 137.517 328.157 137.95 326.99 137.95C326.89 137.95 326.782 137.942 326.665 137.925C327.349 138.292 327.915 138.7 328.365 139.15C328.832 139.6 329.232 140.025 329.565 140.425C329.915 140.825 330.207 141.184 330.44 141.5C330.69 141.8 331.015 142.209 331.415 142.725C331.815 143.225 332.232 143.75 332.665 144.3C333.099 144.85 333.574 145.417 334.09 146C334.624 146.567 335.207 147.109 335.84 147.625C336.49 148.142 337.149 148.567 337.815 148.9C339.232 149.617 340.79 149.984 342.49 150V150.25Z" fill="#313131"/>
<path d="M336.197 138.9C335.53 139.967 335.197 141.059 335.197 142.175C335.197 143.392 335.639 144.5 336.522 145.5C337.005 146.067 337.614 146.509 338.347 146.825C339.097 147.142 339.914 147.3 340.797 147.3C341.68 147.3 342.472 147.134 343.172 146.8C344.572 146.117 345.272 145 345.272 143.45C345.272 142.867 345.072 142.25 344.672 141.6C344.289 140.95 343.705 140.367 342.922 139.85L338.672 137C337.022 135.967 336.197 134.634 336.197 133C336.197 132.834 336.205 132.667 336.222 132.5C336.322 131.217 336.83 130.175 337.747 129.375C338.68 128.559 339.922 128.15 341.472 128.15C342.422 128.15 343.572 128.234 344.922 128.4H346.472L346.147 132.075H345.922C345.905 131.209 345.572 130.517 344.922 130C344.272 129.467 343.414 129.2 342.347 129.2C341.047 129.2 340.105 129.592 339.522 130.375C339.239 130.775 339.097 131.209 339.097 131.675C339.097 132.142 339.239 132.542 339.522 132.875C339.805 133.192 340.255 133.542 340.872 133.925L345.547 136.975C346.497 137.592 347.239 138.317 347.772 139.15C348.405 140.134 348.722 141.142 348.722 142.175C348.722 142.842 348.58 143.55 348.297 144.3C348.03 145.034 347.58 145.717 346.947 146.35C346.33 146.984 345.53 147.5 344.547 147.9C343.564 148.3 342.472 148.5 341.272 148.5C340.089 148.5 339.014 148.292 338.047 147.875C336.264 147.125 335.13 145.817 334.647 143.95C334.547 143.55 334.497 143.134 334.497 142.7C334.497 141.3 334.989 139.975 335.972 138.725L336.197 138.9Z" fill="#313131"/>
<path d="M348.798 134.325C347.981 133.542 347.573 132.7 347.573 131.8C347.573 131.1 347.798 130.492 348.248 129.975C349.098 128.975 350.29 128.475 351.823 128.475H363.598C364.331 128.459 364.973 128.4 365.523 128.3C366.073 128.184 366.423 128.092 366.573 128.025V132.375H366.323V132.075C366.323 131.325 366.098 130.717 365.648 130.25C365.198 129.784 364.59 129.542 363.823 129.525H360.448V144.2C360.481 144.8 360.756 145.25 361.273 145.55C361.506 145.684 361.765 145.75 362.048 145.75H362.373V146H354.773V145.75H355.098C355.531 145.75 355.898 145.6 356.198 145.3C356.515 145 356.681 144.642 356.698 144.225V129.525H351.823C351.14 129.525 350.54 129.65 350.023 129.9C348.973 130.4 348.448 131.184 348.448 132.25C348.448 132.884 348.648 133.534 349.048 134.2L348.798 134.325Z" fill="#313131"/>
<path d="M389.629 123.425C389.846 123.425 390.071 123.434 390.304 123.45V123.7C388.337 123.85 386.921 124.784 386.054 126.5C385.487 127.617 385.204 129.034 385.204 130.75V139.675C385.171 141.775 384.496 143.417 383.179 144.6C381.862 145.767 379.979 146.35 377.529 146.35C375.096 146.35 373.154 145.75 371.704 144.55C370.254 143.334 369.537 141.717 369.554 139.7V129.975C369.554 129.625 369.421 129.334 369.154 129.1C368.904 128.867 368.596 128.75 368.229 128.75H367.829V128.5H375.029V128.75H374.629C374.112 128.75 373.729 128.95 373.479 129.35C373.362 129.534 373.304 129.734 373.304 129.95V139.5C373.304 141.267 373.762 142.667 374.679 143.7C375.596 144.734 376.804 145.25 378.304 145.25C378.321 145.25 378.329 145.25 378.329 145.25C378.329 145.25 378.337 145.25 378.354 145.25C379.837 145.25 381.054 144.767 382.004 143.8C382.954 142.834 383.429 141.509 383.429 139.825V130.75C383.429 128.5 384.021 126.717 385.204 125.4C386.404 124.084 387.879 123.425 389.629 123.425Z" fill="#313131"/>
<path d="M410.635 122.3C411.051 122.3 411.401 122.317 411.685 122.35V122.6C410.651 122.65 409.76 122.9 409.01 123.35C408.16 123.867 407.551 124.35 407.185 124.8C406.835 125.234 406.551 125.592 406.335 125.875C406.135 126.142 405.935 126.467 405.735 126.85C405.418 127.434 405.126 128.009 404.86 128.575L398.16 143.225C397.393 144.875 396.985 145.967 396.935 146.5H396.71L389.135 130.175C388.885 129.709 388.568 129.359 388.185 129.125C387.801 128.875 387.41 128.75 387.01 128.75H386.81V128.5H394.76V128.75H394.56C394.193 128.75 393.918 128.867 393.735 129.1C393.568 129.317 393.485 129.525 393.485 129.725C393.485 129.925 393.518 130.125 393.585 130.325L397.835 140.65L403.01 128.575C403.793 126.725 404.71 125.334 405.76 124.4C407.31 123 408.935 122.3 410.635 122.3Z" fill="#313131"/>
<path d="M432.453 122.65C433.22 122.45 433.845 122.35 434.328 122.35C434.812 122.35 435.195 122.367 435.478 122.4V122.65C433.295 122.767 431.545 123.767 430.228 125.65C429.545 126.617 428.995 127.742 428.578 129.025L423.878 143.675C423.595 144.592 423.453 145.442 423.453 146.225C423.453 146.309 423.453 146.384 423.453 146.45H423.203L417.778 134.4L413.328 144.975C412.878 146.075 412.22 147.142 411.353 148.175C410.42 149.275 409.287 150 407.953 150.35C407.637 150.45 407.303 150.5 406.953 150.5C406.603 150.5 406.228 150.442 405.828 150.325L405.853 150.075C406.47 150.042 407.062 149.875 407.628 149.575C408.212 149.275 408.72 148.909 409.153 148.475C409.587 148.059 410.003 147.567 410.403 147C411.053 146.084 411.603 145.084 412.053 144L406.978 130.2C406.762 129.717 406.453 129.359 406.053 129.125C405.653 128.875 405.245 128.75 404.828 128.75H404.628V128.5H412.253V128.75H412.028C411.678 128.75 411.412 128.867 411.228 129.1C411.062 129.317 410.978 129.525 410.978 129.725C410.978 129.925 411.012 130.117 411.078 130.3L414.153 138.975L418.678 128.1L418.903 128.125L423.878 139.1L426.753 129.025C427.17 127.575 427.828 126.292 428.728 125.175C429.778 123.859 431.02 123.017 432.453 122.65Z" fill="#313131"/>
<path d="M448.247 145.75H448.597V146H440.072V145.75H440.397C440.747 145.75 441.03 145.584 441.247 145.25C441.347 145.067 441.397 144.892 441.397 144.725C441.397 144.559 441.347 144.392 441.247 144.225L437.772 138.8L432.922 145.7C430.955 148.467 428.797 149.85 426.447 149.85C426.097 149.85 425.739 149.817 425.372 149.75V149.5C426.839 149.367 428.097 148.742 429.147 147.625C429.647 147.092 430.247 146.35 430.947 145.4L436.797 137.3L432.222 130.225C431.839 129.642 431.33 129.217 430.697 128.95C430.364 128.817 430.03 128.75 429.697 128.75H429.347V128.5H437.847V128.75H437.522C437.172 128.75 436.889 128.917 436.672 129.25C436.572 129.434 436.522 129.617 436.522 129.8C436.522 129.967 436.564 130.125 436.647 130.275L439.722 135L444.072 128.6C445.972 125.817 448.105 124.425 450.472 124.425C450.672 124.425 450.88 124.434 451.097 124.45V124.7C449.73 124.734 448.364 125.675 446.997 127.525C446.797 127.775 446.597 128.042 446.397 128.325C446.214 128.609 446.097 128.775 446.047 128.825L440.722 136.55L445.722 144.3C446.005 144.717 446.372 145.067 446.822 145.35C447.289 145.617 447.764 145.75 448.247 145.75Z" fill="#313131"/>
<path d="M446.21 127.05C446.477 127.034 446.902 127.025 447.485 127.025C448.052 127.025 448.802 127.15 449.735 127.4C450.685 127.634 451.56 128.009 452.36 128.525C453.16 129.042 453.893 129.667 454.56 130.4C455.793 131.767 456.76 133.409 457.46 135.325C458.46 132.475 459.76 130.292 461.36 128.775C462.577 127.625 463.918 127.05 465.385 127.05C465.452 127.05 465.518 127.05 465.585 127.05V127.3C464.752 127.317 463.885 127.759 462.985 128.625C462.102 129.475 461.327 130.509 460.66 131.725C459.993 132.942 459.427 134.209 458.96 135.525C458.51 136.842 458.243 137.984 458.16 138.95V144.175C458.16 144.592 458.31 144.959 458.61 145.275C458.927 145.592 459.31 145.75 459.76 145.75H460.085V146H452.485V145.75H452.81C453.243 145.75 453.61 145.6 453.91 145.3C454.227 144.984 454.393 144.609 454.41 144.175V138.925C454.21 137.125 453.61 135.217 452.61 133.2C451.46 130.867 450.168 129.209 448.735 128.225C447.902 127.642 447.06 127.334 446.21 127.3V127.05Z" fill="#313131"/>
<path d="M490.96 148.8C490.31 149.584 489.585 150.209 488.785 150.675C488.001 151.142 487.251 151.442 486.535 151.575C485.818 151.709 485.235 151.775 484.785 151.775C484.335 151.775 483.818 151.759 483.235 151.725C482.668 151.692 481.935 151.55 481.035 151.3C480.135 151.067 479.201 150.784 478.235 150.45C477.268 150.117 476.343 149.75 475.46 149.35C474.576 148.95 473.676 148.55 472.76 148.15C471.843 147.767 470.993 147.417 470.21 147.1C468.476 146.384 467.026 146.017 465.86 146H465.685V145.775L474.86 129.525H468.81C468.043 129.542 467.426 129.784 466.96 130.25C466.51 130.7 466.285 131.309 466.285 132.075V132.375H466.035V128.025C466.285 128.125 466.718 128.225 467.335 128.325C467.968 128.425 468.41 128.475 468.66 128.475C468.926 128.475 469.06 128.475 469.06 128.475H477.035C477.735 128.475 478.326 128.434 478.81 128.35C479.293 128.267 479.576 128.2 479.66 128.15V128.375L469.91 145.8L470.66 145.975C471.243 146.142 472.135 146.384 473.335 146.7C474.551 147.017 475.418 147.242 475.935 147.375C476.468 147.525 477.235 147.725 478.235 147.975C479.251 148.225 480.001 148.4 480.485 148.5C480.985 148.6 481.651 148.734 482.485 148.9C483.335 149.067 483.993 149.167 484.46 149.2C485.76 149.284 486.585 149.325 486.935 149.325C487.301 149.325 487.66 149.309 488.01 149.275C489.11 149.142 490.035 148.925 490.785 148.625L490.96 148.8Z" fill="#313131"/>
<path d="M71.212 56.7752C72.562 55.3585 74.3953 54.6502 76.712 54.6502C79.0287 54.6502 80.8537 55.3585 82.187 56.7752C83.537 58.1752 84.212 60.0835 84.212 62.5002C84.212 64.9169 83.537 66.8335 82.187 68.2502C80.8537 69.6502 79.0287 70.3502 76.712 70.3502C75.1787 70.3502 73.8453 70.0335 72.712 69.4002C71.5787 68.7669 70.712 67.8585 70.112 66.6752C69.512 65.4919 69.212 64.1002 69.212 62.5002C69.212 60.0835 69.8787 58.1752 71.212 56.7752ZM78.637 56.5252C78.087 55.9752 77.4453 55.7002 76.712 55.7002C75.9787 55.7002 75.337 55.9752 74.787 56.5252C73.6537 57.6585 73.087 59.6502 73.087 62.5002C73.087 64.6002 73.412 66.2585 74.062 67.4752C74.712 68.6919 75.5953 69.3002 76.712 69.3002C77.8287 69.3002 78.712 68.6919 79.362 67.4752C80.0287 66.2585 80.362 64.6002 80.362 62.5002C80.362 59.6502 79.787 57.6585 78.637 56.5252Z" fill="#313131"/>
<path d="M88.2739 68.4002V56.5752C88.2739 56.0752 88.0406 55.6919 87.5739 55.4252C87.3573 55.3085 87.1239 55.2502 86.8739 55.2502H86.3739L86.3489 55.0002H93.8989V55.2502H93.3739C92.8573 55.2502 92.4656 55.4669 92.1989 55.9002C92.0656 56.1169 91.9989 56.3419 91.9989 56.5752V68.4002C91.9989 68.9169 92.2323 69.3085 92.6989 69.5752C92.8989 69.6919 93.1239 69.7502 93.3739 69.7502H93.8989V70.0002H86.3739V69.7502H86.8989C87.2656 69.7502 87.5823 69.6169 87.8489 69.3502C88.1323 69.0835 88.2739 68.7669 88.2739 68.4002Z" fill="#313131"/>
<path d="M101.745 54.3502C103.679 54.3502 105.245 54.7502 106.445 55.5502C107.662 56.3335 108.27 57.4169 108.27 58.8002C108.27 59.8669 107.879 60.8835 107.095 61.8502C106.512 62.5669 105.987 63.1169 105.52 63.5002C105.07 63.8669 104.72 64.1502 104.47 64.3502C104.237 64.5335 103.895 64.7752 103.445 65.0752C103.012 65.3585 102.695 65.5669 102.495 65.7002C102.312 65.8169 102.004 66.0085 101.57 66.2752C101.137 66.5419 100.87 66.7085 100.77 66.7752H105.945C106.679 66.7752 107.287 66.6085 107.77 66.2752C108.27 65.9252 108.745 65.3585 109.195 64.5752H109.445L107.945 70.0002H95.9454V69.7752C96.3621 69.3419 96.9454 68.7502 97.6954 68.0002C98.4621 67.2335 99.0954 66.5919 99.5954 66.0752C100.112 65.5585 100.687 64.9335 101.32 64.2002C101.97 63.4669 102.487 62.8085 102.87 62.2252C103.804 60.8252 104.27 59.6002 104.27 58.5502C104.27 57.4835 103.979 56.6835 103.395 56.1502C102.829 55.6002 102.087 55.3252 101.17 55.3252C99.9371 55.3252 99.0037 55.7085 98.3704 56.4752C97.7537 57.2252 97.4454 58.2585 97.4454 59.5752H97.1954L96.0204 55.9752C96.6371 55.4752 97.4704 55.0835 98.5204 54.8002C99.5871 54.5002 100.662 54.3502 101.745 54.3502Z" fill="#313131"/>
<path d="M110.861 56.4752C112.161 55.2919 114.003 54.7002 116.386 54.7002C118.07 54.7002 119.42 55.0669 120.436 55.8002C121.453 56.5169 121.961 57.5085 121.961 58.7752C121.961 59.4919 121.786 60.1419 121.436 60.7252C121.103 61.3085 120.678 61.7585 120.161 62.0752C119.661 62.3919 119.12 62.5669 118.536 62.6002C119.586 62.8002 120.503 63.2585 121.286 63.9752C122.153 64.7752 122.595 65.9002 122.611 67.3502C122.611 68.3335 122.378 69.2502 121.911 70.1002C121.045 71.6669 119.536 72.7919 117.386 73.4752C116.486 73.7585 115.528 73.9002 114.511 73.9002C113.295 73.9002 112.12 73.7002 110.986 73.3002L111.036 73.0502C111.12 73.0502 111.203 73.0502 111.286 73.0502C112.536 73.0502 113.72 72.8169 114.836 72.3502C115.953 71.8835 116.853 71.1835 117.536 70.2502C118.236 69.3169 118.586 68.2585 118.586 67.0752C118.586 65.4252 117.903 64.2419 116.536 63.5252C115.753 63.1085 114.828 62.9002 113.761 62.9002L113.811 62.6502C113.861 62.6502 113.903 62.6502 113.936 62.6502C115.07 62.6502 116.045 62.2669 116.861 61.5002C117.695 60.7335 118.111 59.8085 118.111 58.7252C118.111 57.7085 117.828 56.9585 117.261 56.4752C116.695 55.9919 116.028 55.7502 115.261 55.7502C113.195 55.7502 112.161 57.0502 112.161 59.6502C112.161 59.7669 112.161 59.8919 112.161 60.0252H111.911L110.861 56.4752Z" fill="#313131"/>
<path d="M135.943 67.2002V70.9252C135.96 71.4585 136.226 71.8585 136.743 72.1252C136.926 72.2085 137.126 72.2502 137.343 72.2502H137.593L137.618 72.5002H130.543V72.2502H130.818C131.185 72.2502 131.501 72.1252 131.768 71.8752C132.035 71.6252 132.176 71.3169 132.193 70.9502V67.2002H124.293V66.9502L135.718 54.6502H135.943V65.0502H137.043C137.476 65.0502 137.793 64.9919 137.993 64.8752C138.21 64.7419 138.401 64.5335 138.568 64.2502H138.818L138.118 67.2002H135.943ZM132.193 65.0502V60.1252L127.593 65.0502H132.193Z" fill="#313131"/>
<path d="M145.896 61.2502C147.33 61.2502 148.555 61.5752 149.571 62.2252C151.171 63.2085 151.971 64.7085 151.971 66.7252C151.971 67.8419 151.738 68.8335 151.271 69.7002C150.821 70.5502 150.263 71.2419 149.596 71.7752C147.83 73.1585 145.755 73.8502 143.371 73.8502C142.138 73.8502 141.096 73.6585 140.246 73.2752L140.296 73.0252C140.346 73.0252 140.488 73.0252 140.721 73.0252C140.955 73.0252 141.355 72.9669 141.921 72.8502C142.488 72.7335 143.113 72.5252 143.796 72.2252C144.496 71.9419 145.138 71.5919 145.721 71.1752C146.305 70.7585 146.805 70.2169 147.221 69.5502C147.688 68.8002 147.921 67.9919 147.921 67.1252C147.921 66.2585 147.63 65.5252 147.046 64.9252C146.413 64.2585 145.555 63.9252 144.471 63.9252C143.405 63.9252 142.296 64.1252 141.146 64.5252L140.921 64.4002L142.946 55.9002L149.396 55.3752C150.296 55.3752 150.963 54.9585 151.396 54.1252H151.646L150.671 58.3002L143.696 58.8252L142.971 61.6252C144.021 61.3752 144.996 61.2502 145.896 61.2502Z" fill="#313131"/>
<path d="M161.639 60.6502C160.972 60.6502 160.397 60.8835 159.914 61.3502L159.739 61.1502C160.205 60.3835 160.897 59.8252 161.814 59.4752C162.347 59.2752 162.855 59.1752 163.339 59.1752C163.822 59.1752 164.264 59.2252 164.664 59.3252C165.08 59.4085 165.497 59.5835 165.914 59.8502C167.347 60.7835 168.064 62.3085 168.064 64.4252C168.064 66.0919 167.505 67.4919 166.389 68.6252C165.222 69.7919 163.572 70.3752 161.439 70.3752C159.322 70.3752 157.672 69.7252 156.489 68.4252C155.305 67.1085 154.714 65.1752 154.714 62.6252C154.714 59.3085 155.63 56.6252 157.464 54.5752C158.364 53.5752 159.48 52.8335 160.814 52.3502C162.147 51.8669 163.58 51.6252 165.114 51.6252C165.364 51.6252 165.622 51.6335 165.889 51.6502L165.989 51.8252C163.922 52.4752 162.389 53.3252 161.389 54.3752C160.339 55.4585 159.647 56.6835 159.314 58.0502C159.014 59.3835 158.864 61.0585 158.864 63.0752C158.864 65.0752 159.055 66.5919 159.439 67.6252C159.822 68.6585 160.522 69.1752 161.539 69.1752C162.189 69.1752 162.722 68.9585 163.139 68.5252C163.855 67.7752 164.214 66.5335 164.214 64.8002C164.214 62.2502 163.522 60.8835 162.139 60.7002C161.972 60.6669 161.805 60.6502 161.639 60.6502Z" fill="#313131"/>
<path d="M171.272 58.2002C170.789 58.2002 170.397 58.3252 170.097 58.5752C169.814 58.8085 169.581 59.1835 169.397 59.7002H169.147L169.847 55.0502H181.797L178.822 62.3502C178.372 63.4169 177.772 65.0752 177.022 67.3252C176.272 69.5752 175.731 71.3002 175.397 72.5002H172.147C172.914 71.0669 173.831 69.2669 174.897 67.1002C175.981 64.9335 176.764 63.2835 177.247 62.1502L178.897 58.2002H171.272Z" fill="#313131"/>
<path d="M184.489 69.3252C183.889 68.9752 183.414 68.5085 183.064 67.9252C182.73 67.3252 182.564 66.6419 182.564 65.8752C182.564 63.8919 183.764 62.4502 186.164 61.5502C184.43 60.2835 183.564 58.7585 183.564 56.9752C183.564 55.5252 184.072 54.3585 185.089 53.4752C186.122 52.5919 187.43 52.1502 189.014 52.1502C190.614 52.1502 191.939 52.5419 192.989 53.3252C194.055 54.0919 194.589 55.1085 194.589 56.3752C194.589 56.9919 194.439 57.5585 194.139 58.0752C193.589 59.0419 192.647 59.7085 191.314 60.0752C192.514 60.6919 193.255 61.1169 193.539 61.3502C193.839 61.5835 194.105 61.8085 194.339 62.0252C194.589 62.2419 194.78 62.4585 194.914 62.6752C195.047 62.8919 195.18 63.1335 195.314 63.4002C195.564 63.9002 195.689 64.5169 195.689 65.2502C195.689 66.8502 195.064 68.1002 193.814 69.0002C192.58 69.9002 191.014 70.3502 189.114 70.3502C187.214 70.3502 185.672 70.0085 184.489 69.3252ZM190.239 59.5252C190.972 58.7085 191.339 57.6002 191.339 56.2002C191.339 55.3002 191.13 54.5835 190.714 54.0502C190.28 53.5002 189.714 53.2252 189.014 53.2252C188.314 53.2252 187.764 53.4585 187.364 53.9252C186.98 54.3919 186.789 54.9919 186.789 55.7252C186.789 56.4585 187.03 57.0919 187.514 57.6252C188.014 58.1752 188.922 58.8085 190.239 59.5252ZM188.989 69.3002C189.955 69.3002 190.722 69.0502 191.289 68.5502C191.872 68.0335 192.164 67.3835 192.164 66.6002C192.164 65.8169 191.872 65.1752 191.289 64.6752C190.722 64.1585 189.964 63.6585 189.014 63.1752C188.064 62.6752 187.414 62.3252 187.064 62.1252C186.264 62.9752 185.864 64.0335 185.864 65.3002C185.864 66.5669 186.13 67.5419 186.664 68.2252C187.264 68.9419 188.039 69.3002 188.989 69.3002Z" fill="#313131"/>
<path d="M203.811 64.4502C204.495 64.4502 205.078 64.2085 205.561 63.7252L205.736 63.9502C205.436 64.4502 205.02 64.8669 204.486 65.2002C203.72 65.6835 202.903 65.9252 202.036 65.9252C200.97 65.9252 200.003 65.5919 199.136 64.9252C198.62 64.5419 198.203 63.9919 197.886 63.2752C197.57 62.5419 197.411 61.7085 197.411 60.7752C197.411 58.9585 197.978 57.5002 199.111 56.4002C200.278 55.2835 201.92 54.7252 204.036 54.7252C206.17 54.7252 207.82 55.3752 208.986 56.6752C210.17 57.9752 210.761 59.9335 210.761 62.5502C210.761 65.8002 209.845 68.4502 208.011 70.5002C207.111 71.5169 205.995 72.2669 204.661 72.7502C203.345 73.2335 201.945 73.4752 200.461 73.4752C200.178 73.4752 199.886 73.4669 199.586 73.4502L199.486 73.2752C201.803 72.5752 203.528 71.5335 204.661 70.1502C205.628 68.9669 206.228 67.3502 206.461 65.3002C206.561 64.4502 206.611 63.4502 206.611 62.3002C206.611 60.1002 206.42 58.4919 206.036 57.4752C205.653 56.4419 204.953 55.9252 203.936 55.9252C203.286 55.9252 202.753 56.1419 202.336 56.5752C201.62 57.3085 201.261 58.5419 201.261 60.2752C201.261 62.8585 201.961 64.2335 203.361 64.4002C203.511 64.4335 203.661 64.4502 203.811 64.4502Z" fill="#313131"/>
<path d="M223.059 60.5252L222.159 64.8502H221.009L220.134 60.5252L219.659 52.4502H223.509L223.059 60.5252ZM222.834 69.7252C222.484 70.0752 222.059 70.2502 221.559 70.2502C221.059 70.2502 220.634 70.0752 220.284 69.7252C219.934 69.3752 219.759 68.9502 219.759 68.4502C219.759 67.9502 219.934 67.5252 220.284 67.1752C220.634 66.8085 221.059 66.6252 221.559 66.6252C222.059 66.6252 222.484 66.8085 222.834 67.1752C223.201 67.5252 223.384 67.9502 223.384 68.4502C223.384 68.9502 223.201 69.3752 222.834 69.7252Z" fill="#313131"/>
<path d="M227.198 67.1252C226.298 66.2419 225.848 65.0335 225.848 63.5002C225.848 62.4835 226.081 61.3585 226.548 60.1252C227.615 57.5752 229.448 55.6169 232.048 54.2502C234.031 53.1835 236.165 52.6502 238.448 52.6502C242.215 52.6502 244.998 53.7502 246.798 55.9502C248.081 57.5002 248.723 59.3502 248.723 61.5002C248.723 63.6502 248.231 65.5835 247.248 67.3002C246.281 69.0169 244.99 70.3835 243.373 71.4002C241.59 72.5502 239.556 73.1252 237.273 73.1252C234.99 73.1252 232.573 72.6085 230.023 71.5752L229.923 71.3252C231.756 72.0752 233.481 72.4502 235.098 72.4502C237.231 72.4502 239.131 71.9252 240.798 70.8752C242.198 69.9919 243.331 68.7835 244.198 67.2502C245.248 65.3835 245.773 63.3002 245.773 61.0002C245.773 59.2335 245.39 57.7419 244.623 56.5252C243.406 54.6085 241.465 53.6502 238.798 53.6502C236.498 53.6502 234.406 54.4752 232.523 56.1252C231.306 57.1919 230.306 58.5669 229.523 60.2502C228.756 61.9169 228.373 63.4502 228.373 64.8502C228.373 65.5669 228.506 66.1335 228.773 66.5502C229.056 66.9835 229.415 67.2002 229.848 67.2002C230.281 67.2002 230.665 67.1169 230.998 66.9502C231.348 66.7669 231.698 66.4835 232.048 66.1002C232.415 65.7169 232.723 65.3752 232.973 65.0752C233.223 64.7585 233.531 64.3419 233.898 63.8252C234.265 63.2919 234.523 62.9252 234.673 62.7252L237.848 58.4002C238.631 57.4502 239.09 56.8085 239.223 56.4752H239.398L241.073 66.5752C241.206 67.3585 241.54 67.7502 242.073 67.7502H242.198L242.173 67.9252H236.998L237.023 67.7502H237.198C237.448 67.7502 237.69 67.6502 237.923 67.4502C238.173 67.2335 238.281 66.9752 238.248 66.6752L238.048 64.8252H234.373C233.49 66.0085 232.723 66.8585 232.073 67.3752C231.39 67.9085 230.59 68.1752 229.673 68.1752C228.756 68.1752 227.931 67.8252 227.198 67.1252ZM237.548 60.3502L234.923 64.0752H237.973L237.548 60.3502Z" fill="#313131"/>
<path d="M263.029 58.7752H260.129L259.329 63.3752H261.929V64.5752H259.129L258.154 70.0002H256.904L257.854 64.5752H254.129L253.154 70.0002H251.904L252.854 64.5752H250.179V63.3752H253.079L253.879 58.7752H251.279V57.5752H254.104L254.979 52.5002H256.254L255.354 57.5752H259.104L259.979 52.5002H261.254L260.354 57.5752H263.029V58.7752ZM258.079 63.3752L258.879 58.7752H255.129L254.329 63.3752H258.079Z" fill="#313131"/>
<path d="M265.11 67.6752C265.11 66.4752 265.368 65.4502 265.885 64.6002H266.085C266.085 64.7169 266.085 64.8419 266.085 64.9752C266.085 66.0419 266.427 66.9919 267.11 67.8252C267.81 68.6419 268.81 69.1169 270.11 69.2502L270.585 62.8002L267.91 61.0252C267.027 60.5252 266.402 59.9252 266.035 59.2252C265.668 58.5085 265.485 57.7835 265.485 57.0502C265.485 56.8669 265.493 56.6919 265.51 56.5252C265.627 55.1919 266.143 54.1335 267.06 53.3502C267.993 52.5669 269.177 52.1752 270.61 52.1752C270.627 52.1752 270.643 52.1752 270.66 52.1752H271.41L271.535 50.3002L272.585 50.3252L272.435 52.2252C273.052 52.2752 273.635 52.3335 274.185 52.4002H275.76L275.435 56.0752H275.185C275.185 55.3085 274.935 54.6752 274.435 54.1752C273.935 53.6752 273.243 53.3669 272.36 53.2502L271.91 59.0752L274.91 61.0252C276.41 61.8919 277.16 63.1585 277.16 64.8252C277.16 66.5585 276.602 67.8919 275.485 68.8252C274.368 69.7585 272.885 70.2669 271.035 70.3502L270.885 72.5502L269.86 72.4752L270.01 70.3502C268.943 70.3002 267.993 70.1419 267.16 69.8752C266.327 69.6085 265.702 69.2585 265.285 68.8252C265.168 68.5085 265.11 68.1252 265.11 67.6752ZM271.335 53.2252C270.485 53.2752 269.777 53.5335 269.21 54.0002C268.66 54.4502 268.385 55.0502 268.385 55.8002C268.385 56.5335 268.968 57.2419 270.135 57.9252L270.935 58.4502L271.335 53.2252ZM271.585 63.4502L271.135 69.2752C272.102 69.2085 272.86 68.9169 273.41 68.4002C273.977 67.8835 274.26 67.2502 274.26 66.5002C274.26 65.5002 273.593 64.6335 272.26 63.9002L271.585 63.4502Z" fill="#313131"/>
<path d="M286.526 53.8002C286.776 54.3169 286.901 54.8252 286.901 55.3252C286.901 57.3252 286.351 58.8169 285.251 59.8002C284.384 60.5835 283.318 60.9752 282.051 60.9752C280.801 60.9752 279.884 60.5752 279.301 59.7752C278.901 59.1919 278.701 58.4502 278.701 57.5502C278.701 55.7169 279.259 54.3002 280.376 53.3002C281.226 52.5335 282.301 52.1502 283.601 52.1502C284.234 52.1502 284.801 52.2502 285.301 52.4502C285.801 52.6502 286.251 52.8585 286.651 53.0752C287.134 53.3252 287.559 53.4502 287.926 53.4502C288.293 53.4502 288.634 53.4169 288.951 53.3502C289.284 53.2669 289.559 53.1752 289.776 53.0752C290.009 52.9585 290.301 52.8085 290.651 52.6252C291.001 52.4419 291.218 52.3252 291.301 52.2752L292.126 52.6252L282.801 70.4002L281.876 70.0002L290.626 53.4502C289.809 53.9335 289.076 54.1752 288.426 54.1752C287.776 54.1752 287.143 54.0502 286.526 53.8002ZM281.251 58.1502C281.251 59.5002 281.593 60.1752 282.276 60.1752C282.776 60.1752 283.209 59.8585 283.576 59.2252C283.943 58.5752 284.184 57.8335 284.301 57.0002C284.434 56.1669 284.501 55.5252 284.501 55.0752C284.501 53.6585 284.151 52.9502 283.451 52.9502C282.984 52.9502 282.568 53.2752 282.201 53.9252C281.851 54.5585 281.601 55.3085 281.451 56.1752C281.318 57.0419 281.251 57.7002 281.251 58.1502ZM288.951 62.6502C289.801 61.9002 290.834 61.5252 292.051 61.5252C293.284 61.5252 294.193 61.9169 294.776 62.7002C295.226 63.3169 295.451 64.1085 295.451 65.0752C295.451 66.8419 294.918 68.2085 293.851 69.1752C292.984 69.9585 291.909 70.3502 290.626 70.3502C289.359 70.3502 288.443 69.9419 287.876 69.1252C287.459 68.5585 287.251 67.8252 287.251 66.9252C287.251 65.0919 287.818 63.6669 288.951 62.6502ZM289.726 67.5252C289.726 68.8752 290.059 69.5502 290.726 69.5502C291.226 69.5502 291.659 69.2335 292.026 68.6002C292.409 67.9669 292.659 67.2335 292.776 66.4002C292.893 65.5502 292.951 64.9002 292.951 64.4502C292.951 63.0335 292.609 62.3252 291.926 62.3252C291.459 62.3252 291.043 62.6502 290.676 63.3002C290.309 63.9335 290.059 64.6835 289.926 65.5502C289.793 66.4169 289.726 67.0752 289.726 67.5252Z" fill="#313131"/>
<path d="M302.582 60.5752H304.207L309.407 65.6002H307.457L303.407 61.7752L299.307 65.6002H297.332L302.582 60.5752Z" fill="#313131"/>
<path d="M339.976 72.6502C338.476 73.5002 336.826 73.9252 335.026 73.9252C332.326 73.9252 329.792 73.0085 327.426 71.1752C326.942 70.7919 326.092 70.1169 324.876 69.1502C323.376 69.9002 321.726 70.2752 319.926 70.2752C318.609 70.2752 317.409 70.1085 316.326 69.7752C315.242 69.4252 314.351 69.0419 313.651 68.6252C312.967 68.2085 312.392 67.6585 311.926 66.9752C311.476 66.2752 311.251 65.4835 311.251 64.6002C311.251 63.2335 311.792 62.1002 312.876 61.2002C313.459 60.7169 314.126 60.3419 314.876 60.0752C314.109 58.8919 313.726 57.7752 313.726 56.7252C313.726 55.6752 314.009 54.8085 314.576 54.1252C315.642 52.8085 317.342 52.1502 319.676 52.1502C321.159 52.1502 322.426 52.4169 323.476 52.9502C324.009 53.2169 324.409 53.5419 324.676 53.9252L323.826 57.5002H323.601C323.551 55.8169 323.084 54.5919 322.201 53.8252C321.717 53.4085 321.084 53.2002 320.301 53.2002C319.517 53.2002 318.867 53.4752 318.351 54.0252C317.834 54.5585 317.576 55.2669 317.576 56.1502C317.576 57.0335 317.917 57.9085 318.601 58.7752C319.284 59.6252 320.317 60.6502 321.701 61.8502C323.101 63.0335 324.834 64.4835 326.901 66.2002C328.901 64.1502 329.901 61.7835 329.901 59.1002C329.901 57.1169 329.267 55.2835 328.001 53.6002C327.134 52.4502 326.001 51.4085 324.601 50.4752L324.751 50.3252C326.234 51.1752 327.451 52.1752 328.401 53.3252C329.351 54.4585 329.984 55.5669 330.301 56.6502C330.617 57.7169 330.776 58.7502 330.776 59.7502C330.776 62.4835 329.784 64.8835 327.801 66.9502L328.576 67.6002C329.359 68.2669 330.017 68.8085 330.551 69.2252C331.101 69.6419 331.776 70.1002 332.576 70.6002C333.376 71.1169 334.126 71.5002 334.826 71.7502C336.076 72.2335 337.376 72.4752 338.726 72.4752C339.126 72.4752 339.526 72.4502 339.926 72.4002L339.976 72.6502ZM315.201 63.7502C315.201 65.5002 315.817 66.8585 317.051 67.8252C318.101 68.6419 319.317 69.0502 320.701 69.0502C321.784 69.0502 322.842 68.8169 323.876 68.3502C321.226 66.2169 319.609 64.9002 319.026 64.4002C317.659 63.2669 316.592 62.2502 315.826 61.3502C315.409 62.0335 315.201 62.8335 315.201 63.7502Z" fill="#313131"/>
<path d="M337.249 54.8752L338.624 55.6002L340.224 57.2002L339.499 58.1502L338.399 58.5252L337.324 56.5502L337.074 55.0002L336.799 56.5502L335.774 58.5502L334.649 58.1502L333.949 57.2252L335.499 55.6002L336.899 54.8752L335.349 55.1002L333.124 54.7252V53.5502L333.824 52.5752L335.849 53.5752L336.974 54.6752L336.274 53.2502L335.924 51.0252L337.049 50.6752L338.199 51.0252L337.874 53.2502L337.174 54.6752L338.299 53.5752L340.324 52.5502L341.024 53.5252V54.7002L338.799 55.1002L337.249 54.8752Z" fill="#313131"/>
<path d="M347.866 61.6002C347.866 64.1335 348.216 66.3502 348.916 68.2502C349.616 70.1335 350.541 71.4752 351.691 72.2752L351.541 72.5002C349.975 72.0169 348.625 71.2252 347.491 70.1252C345.258 67.9252 344.141 65.0835 344.141 61.6002C344.141 58.0669 345.258 55.3669 347.491 53.5002C348.625 52.5669 349.991 51.9669 351.591 51.7002L351.741 51.9002C350.508 52.4835 349.55 53.6085 348.866 55.2752C348.2 56.9419 347.866 59.0502 347.866 61.6002Z" fill="#313131"/>
<path d="M357.088 61.6252C357.088 59.0585 356.746 56.9419 356.063 55.2752C355.379 53.6085 354.429 52.4835 353.213 51.9002L353.363 51.7002C355.746 52.0835 357.579 53.1835 358.863 55.0002C360.163 56.8169 360.813 59.0169 360.813 61.6002C360.813 65.0835 359.688 67.9252 357.438 70.1252C356.304 71.2252 354.963 72.0169 353.413 72.5002L353.263 72.2752C354.379 71.4919 355.279 70.2002 355.963 68.4002C356.713 66.4335 357.088 64.1752 357.088 61.6252Z" fill="#313131"/>
<path d="M368.034 52.1502C369.817 52.1502 371.192 52.5335 372.159 53.3002C373.142 54.0669 373.634 55.1335 373.634 56.5002C373.634 57.1002 373.501 57.6752 373.234 58.2252C372.967 58.7752 372.676 59.2169 372.359 59.5502C372.042 59.8835 371.592 60.3335 371.009 60.9002C370.426 61.4502 369.992 61.8835 369.709 62.2002C369.442 62.5002 369.251 62.7169 369.134 62.8502C369.034 62.9835 368.926 63.1752 368.809 63.4252C368.592 63.8585 368.651 64.3585 368.984 64.9252L368.784 65.0752C367.484 64.4919 366.834 63.6252 366.834 62.4752C366.834 61.7252 367.101 61.0502 367.634 60.4502C368.151 59.8669 368.551 59.3752 368.834 58.9752C369.367 58.2085 369.634 57.3335 369.634 56.3502C369.634 55.3669 369.409 54.6002 368.959 54.0502C368.509 53.4835 367.934 53.2002 367.234 53.2002C366.551 53.2002 366.001 53.3419 365.584 53.6252C364.734 54.2085 364.317 55.3502 364.334 57.0502H364.084L363.234 54.3752C363.617 53.6919 364.226 53.1502 365.059 52.7502C365.909 52.3502 366.901 52.1502 368.034 52.1502ZM370.034 68.4502C370.034 68.9502 369.859 69.3752 369.509 69.7252C369.159 70.0752 368.734 70.2502 368.234 70.2502C367.734 70.2502 367.301 70.0752 366.934 69.7252C366.584 69.3752 366.409 68.9919 366.409 68.5752C366.409 68.1585 366.492 67.8085 366.659 67.5252C367.009 66.9252 367.534 66.6252 368.234 66.6252C368.734 66.6252 369.159 66.8085 369.509 67.1752C369.859 67.5252 370.034 67.9502 370.034 68.4502Z" fill="#313131"/>
<path d="M375.632 55.6252C376.416 55.3252 376.807 54.8002 376.807 54.0502C376.807 53.6002 376.616 53.1585 376.232 52.7252C375.849 52.2752 375.657 51.7835 375.657 51.2502C375.657 50.7169 375.816 50.2919 376.132 49.9752C376.449 49.6419 376.832 49.4752 377.282 49.4752C378.199 49.4752 378.832 49.8752 379.182 50.6752C379.416 51.1752 379.532 51.5919 379.532 51.9252C379.532 52.8752 379.332 53.6585 378.932 54.2752C378.216 55.3919 377.282 55.9502 376.132 55.9502C375.982 55.9502 375.841 55.9335 375.707 55.9002L375.632 55.6252Z" fill="#313131"/>
<path d="M386.391 55.6252C387.174 55.3252 387.566 54.8002 387.566 54.0502C387.566 53.6002 387.374 53.1585 386.991 52.7252C386.624 52.2752 386.441 51.7835 386.441 51.2502C386.441 50.7169 386.599 50.2919 386.916 49.9752C387.232 49.6419 387.616 49.4752 388.066 49.4752C388.966 49.4752 389.599 49.8752 389.966 50.6752C390.199 51.1752 390.316 51.5919 390.316 51.9252C390.316 52.8752 390.116 53.6585 389.716 54.2752C388.999 55.3919 388.057 55.9502 386.891 55.9502C386.757 55.9502 386.624 55.9335 386.491 55.9002L386.391 55.6252ZM381.541 55.6252C382.324 55.3252 382.716 54.8002 382.716 54.0502C382.716 53.6002 382.524 53.1585 382.141 52.7252C381.757 52.2752 381.566 51.7835 381.566 51.2502C381.566 50.7169 381.724 50.2919 382.041 49.9752C382.357 49.6419 382.741 49.4752 383.191 49.4752C384.107 49.4752 384.741 49.8752 385.091 50.6752C385.324 51.1752 385.441 51.5919 385.441 51.9252C385.441 52.8752 385.241 53.6585 384.841 54.2752C384.124 55.3919 383.191 55.9502 382.041 55.9502C381.891 55.9502 381.749 55.9335 381.616 55.9002L381.541 55.6252Z" fill="#313131"/>
<path d="M395.331 59.4502C394.981 59.8002 394.556 59.9752 394.056 59.9752C393.556 59.9752 393.131 59.8002 392.781 59.4502C392.431 59.0835 392.256 58.6585 392.256 58.1752C392.256 57.6752 392.431 57.2502 392.781 56.9002C393.131 56.5335 393.556 56.3502 394.056 56.3502C394.556 56.3502 394.981 56.5335 395.331 56.9002C395.698 57.2502 395.881 57.6752 395.881 58.1752C395.881 58.6585 395.698 59.0835 395.331 59.4502ZM392.331 72.5502C393.098 72.2669 393.481 71.7585 393.481 71.0252C393.481 70.6085 393.298 70.1919 392.931 69.7752C392.564 69.3419 392.381 68.8669 392.381 68.3502C392.381 67.8335 392.531 67.4252 392.831 67.1252C393.148 66.8085 393.514 66.6502 393.931 66.6502C394.814 66.6502 395.423 67.0419 395.756 67.8252C395.989 68.2919 396.106 68.6835 396.106 69.0002C396.106 69.9169 395.914 70.6669 395.531 71.2502C394.831 72.3169 393.931 72.8502 392.831 72.8502C392.698 72.8502 392.564 72.8419 392.431 72.8252L392.331 72.5502Z" fill="#313131"/>
<path d="M401.393 59.8002C401.226 60.0669 401.001 60.2835 400.718 60.4502C400.451 60.6002 400.109 60.6752 399.693 60.6752C399.276 60.6752 398.893 60.5002 398.543 60.1502C398.193 59.8002 398.018 59.3752 398.018 58.8752C398.018 58.3752 398.193 57.9502 398.543 57.6002C398.893 57.2502 399.318 57.0752 399.818 57.0752C400.318 57.0752 400.743 57.2502 401.093 57.6002C401.459 57.9502 401.643 58.3335 401.643 58.7502C401.643 59.1669 401.559 59.5169 401.393 59.8002ZM401.093 69.7252C400.743 70.0752 400.318 70.2502 399.818 70.2502C399.318 70.2502 398.893 70.0752 398.543 69.7252C398.193 69.3752 398.018 68.9502 398.018 68.4502C398.018 67.9502 398.193 67.5252 398.543 67.1752C398.893 66.8085 399.318 66.6252 399.818 66.6252C400.318 66.6252 400.743 66.8085 401.093 67.1752C401.459 67.5252 401.643 67.9502 401.643 68.4502C401.643 68.9502 401.459 69.3752 401.093 69.7252Z" fill="#313131"/>
<path d="M403.635 72.5502C404.401 72.2669 404.785 71.7585 404.785 71.0252C404.785 70.6085 404.601 70.1919 404.235 69.7752C403.868 69.3419 403.685 68.8669 403.685 68.3502C403.685 67.8335 403.835 67.4252 404.135 67.1252C404.451 66.8085 404.818 66.6502 405.235 66.6502C406.118 66.6502 406.726 67.0419 407.06 67.8252C407.293 68.2919 407.41 68.6835 407.41 69.0002C407.41 69.9169 407.218 70.6669 406.835 71.2502C406.135 72.3169 405.235 72.8502 404.135 72.8502C404.001 72.8502 403.868 72.8419 403.735 72.8252L403.635 72.5502Z" fill="#313131"/>
<path d="M412.396 69.7252C412.046 70.0752 411.621 70.2502 411.121 70.2502C410.621 70.2502 410.196 70.0752 409.846 69.7252C409.496 69.3752 409.321 68.9502 409.321 68.4502C409.321 67.9502 409.496 67.5252 409.846 67.1752C410.196 66.8085 410.621 66.6252 411.121 66.6252C411.621 66.6252 412.046 66.8085 412.396 67.1752C412.763 67.5252 412.946 67.9502 412.946 68.4502C412.946 68.9502 412.763 69.3752 412.396 69.7252Z" fill="#313131"/>
</svg>
