<svg width="23" height="24" viewBox="0 0 23 24" fill="none" xmlns="http://www.w3.org/2000/svg">
<path fill-rule="evenodd" clip-rule="evenodd" d="M0 4.8C0 3.52696 0.484642 2.30606 1.34731 1.40589C2.20998 0.505713 3.38 0 4.6 0H18.4C19.62 0 20.79 0.505713 21.6527 1.40589C22.5154 2.30606 23 3.52696 23 4.8V19.2C23 20.473 22.5154 21.6939 21.6527 22.5941C20.79 23.4943 19.62 24 18.4 24H4.6C3.38 24 2.20998 23.4943 1.34731 22.5941C0.484642 21.6939 0 20.473 0 19.2V4.8ZM4.6 2.4C3.99 2.4 3.40499 2.65286 2.97365 3.10294C2.54232 3.55303 2.3 4.16348 2.3 4.8V19.2C2.3 19.8365 2.54232 20.447 2.97365 20.8971C3.40499 21.3471 3.99 21.6 4.6 21.6H18.4C19.01 21.6 19.595 21.3471 20.0263 20.8971C20.4577 20.447 20.7 19.8365 20.7 19.2V4.8C20.7 4.16348 20.4577 3.55303 20.0263 3.10294C19.595 2.65286 19.01 2.4 18.4 2.4H4.6ZM11.5 8.4C10.585 8.4 9.70748 8.77928 9.06048 9.45442C8.41348 10.1295 8.05 11.0452 8.05 12C8.05 12.9548 8.41348 13.8705 9.06048 14.5456C9.70748 15.2207 10.585 15.6 11.5 15.6C12.415 15.6 13.2925 15.2207 13.9395 14.5456C14.5865 13.8705 14.95 12.9548 14.95 12C14.95 11.0452 14.5865 10.1295 13.9395 9.45442C13.2925 8.77928 12.415 8.4 11.5 8.4ZM5.75 12C5.75 10.4087 6.3558 8.88258 7.43414 7.75736C8.51247 6.63214 9.97501 6 11.5 6C13.025 6 14.4875 6.63214 15.5659 7.75736C16.6442 8.88258 17.25 10.4087 17.25 12C17.25 13.5913 16.6442 15.1174 15.5659 16.2426C14.4875 17.3679 13.025 18 11.5 18C9.97501 18 8.51247 17.3679 7.43414 16.2426C6.3558 15.1174 5.75 13.5913 5.75 12ZM17.825 7.2C18.2825 7.2 18.7213 7.01036 19.0448 6.67279C19.3683 6.33523 19.55 5.87739 19.55 5.4C19.55 4.92261 19.3683 4.46477 19.0448 4.12721C18.7213 3.78964 18.2825 3.6 17.825 3.6C17.3675 3.6 16.9287 3.78964 16.6052 4.12721C16.2817 4.46477 16.1 4.92261 16.1 5.4C16.1 5.87739 16.2817 6.33523 16.6052 6.67279C16.9287 7.01036 17.3675 7.2 17.825 7.2Z" fill="#313131"/>
</svg>
