<svg width="26" height="24" viewBox="0 0 26 24" fill="none" xmlns="http://www.w3.org/2000/svg">
<path fill-rule="evenodd" clip-rule="evenodd" d="M5.2 0C3.82087 0 2.49823 0.505713 1.52304 1.40589C0.547856 2.30606 0 3.52696 0 4.8V19.2C0 20.473 0.547856 21.6939 1.52304 22.5941C2.49823 23.4943 3.82087 24 5.2 24H20.8C22.1791 24 23.5018 23.4943 24.477 22.5941C25.4521 21.6939 26 20.473 26 19.2V4.8C26 3.52696 25.4521 2.30606 24.477 1.40589C23.5018 0.505713 22.1791 0 20.8 0H5.2ZM2.6 4.8C2.6 4.16348 2.87393 3.55303 3.36152 3.10294C3.84912 2.65286 4.51044 2.4 5.2 2.4H20.8C21.4896 2.4 22.1509 2.65286 22.6385 3.10294C23.1261 3.55303 23.4 4.16348 23.4 4.8V19.2C23.4 19.8365 23.1261 20.447 22.6385 20.8971C22.1509 21.3471 21.4896 21.6 20.8 21.6H5.2C4.51044 21.6 3.84912 21.3471 3.36152 20.8971C2.87393 20.447 2.6 19.8365 2.6 19.2V4.8ZM9.1 10.8C9.1 10.4817 8.96304 10.1765 8.71924 9.95147C8.47544 9.72643 8.14478 9.6 7.8 9.6C7.45522 9.6 7.12456 9.72643 6.88076 9.95147C6.63696 10.1765 6.5 10.4817 6.5 10.8V18C6.5 18.3183 6.63696 18.6235 6.88076 18.8485C7.12456 19.0736 7.45522 19.2 7.8 19.2C8.14478 19.2 8.47544 19.0736 8.71924 18.8485C8.96304 18.6235 9.1 18.3183 9.1 18V10.8ZM9.75 6.6C9.75 7.07739 9.54455 7.53523 9.17886 7.87279C8.81316 8.21036 8.31717 8.4 7.8 8.4C7.28283 8.4 6.78684 8.21036 6.42114 7.87279C6.05545 7.53523 5.85 7.07739 5.85 6.6C5.85 6.12261 6.05545 5.66477 6.42114 5.32721C6.78684 4.98964 7.28283 4.8 7.8 4.8C8.31717 4.8 8.81316 4.98964 9.17886 5.32721C9.54455 5.66477 9.75 6.12261 9.75 6.6ZM13 9.6C13.442 9.6 13.832 9.804 14.066 10.1136C14.736 9.77653 15.4869 9.59994 16.25 9.6C19.058 9.6 20.8 11.9112 20.8 13.8852V18C20.8 18.3183 20.663 18.6235 20.4192 18.8485C20.1754 19.0736 19.8448 19.2 19.5 19.2C19.1552 19.2 18.8246 19.0736 18.5808 18.8485C18.337 18.6235 18.2 18.3183 18.2 18V13.884C18.2 12.9624 17.342 11.9988 16.25 11.9988C15.5688 11.9988 14.8161 12.3408 14.3 13.1544V18C14.3 18.3183 14.163 18.6235 13.9192 18.8485C13.6754 19.0736 13.3448 19.2 13 19.2C12.6552 19.2 12.3246 19.0736 12.0808 18.8485C11.837 18.6235 11.7 18.3183 11.7 18V10.8C11.7 10.4817 11.837 10.1765 12.0808 9.95147C12.3246 9.72643 12.6552 9.6 13 9.6Z" fill="#313131"/>
</svg>
