<svg width="419" height="148" viewBox="0 0 419 148" fill="none" xmlns="http://www.w3.org/2000/svg">
<path d="M87.9302 30.7812V7.34375C87.9302 2.78646 90.2088 0.507812 94.7661 0.507812H100.821C105.378 0.507812 107.657 2.78646 107.657 7.34375V29.0234L103.946 30.7812H103.75V7.34375C103.75 5.13021 102.774 4.02344 100.821 4.02344H94.7661C92.813 4.02344 91.8364 5.13021 91.8364 7.34375V29.0234L88.1255 30.7812H87.9302Z" fill="#313131"/>
<path d="M122.352 26.4844H126.844C128.146 26.4844 128.797 25.7031 128.797 24.1406V14.375C128.797 12.8125 128.146 12.0312 126.844 12.0312H122.352C121.05 12.0312 120.399 12.8125 120.399 14.375V24.1406C120.399 25.7031 121.05 26.4844 122.352 26.4844ZM122.352 30C118.446 30 116.493 28.0469 116.493 24.1406V14.375C116.493 10.4688 118.446 8.51562 122.352 8.51562H126.844C130.75 8.51562 132.704 10.4688 132.704 14.375V24.1406C132.704 28.0469 130.75 30 126.844 30H122.352Z" fill="#313131"/>
<path d="M145.172 30.7812L137.633 9.33594L141.012 7.73438H141.208L146.735 24.0234L152.145 7.73438H152.34L155.719 9.33594L148.747 29.1797L145.368 30.7812H145.172Z" fill="#313131"/>
<path d="M165.532 26.4844H169.633C170.935 26.4844 171.586 25.7031 171.586 24.1406V21.4648C171.586 19.9023 170.935 19.1211 169.633 19.1211H165.532C164.23 19.1211 163.579 19.9023 163.579 21.4648V24.1406C163.579 25.7031 164.23 26.4844 165.532 26.4844ZM165.532 30C161.625 30 159.672 28.0469 159.672 24.1406V21.4648C159.672 17.5586 161.625 15.6055 165.532 15.6055H169.633C170.31 15.6055 170.961 15.8008 171.586 16.1914V14.375C171.586 12.8125 170.935 12.0312 169.633 12.0312H162.641V11.8359L164.204 8.51562H169.633C173.54 8.51562 175.493 10.4688 175.493 14.375V29.0234L171.782 30.7812H171.586V29.4141C171.092 29.8047 170.441 30 169.633 30H165.532Z" fill="#313131"/>
<path d="M208.008 30C203.451 30 201.172 27.7214 201.172 23.1641V21.0156L204.883 19.2578H205.079V23.1641C205.079 25.3776 206.055 26.4844 208.008 26.4844H214.063C216.016 26.4844 216.993 25.3776 216.993 23.1641V19.0625C216.993 16.849 216.016 15.7422 214.063 15.7422H208.79C204.883 15.7422 202.93 13.7891 202.93 9.88281V6.36719C202.93 2.46094 204.883 0.507812 208.79 0.507812H213.282C217.188 0.507812 219.141 2.46094 219.141 6.36719V7.40234L215.43 9.16016H215.235V6.36719C215.235 4.80469 214.584 4.02344 213.282 4.02344H208.79C207.487 4.02344 206.836 4.80469 206.836 6.36719V9.88281C206.836 11.4453 207.487 12.2266 208.79 12.2266H214.063C218.62 12.2266 220.899 14.5052 220.899 19.0625V23.1641C220.899 27.7214 218.62 30 214.063 30H208.008Z" fill="#313131"/>
<path d="M234.813 26.4844H239.305C240.607 26.4844 241.258 25.7031 241.258 24.1406V14.375C241.258 12.8125 240.607 12.0312 239.305 12.0312H234.813C233.511 12.0312 232.86 12.8125 232.86 14.375V24.1406C232.86 25.7031 233.511 26.4844 234.813 26.4844ZM234.813 30C230.907 30 228.954 28.0469 228.954 24.1406V14.375C228.954 10.4688 230.907 8.51562 234.813 8.51562H239.305C243.211 8.51562 245.165 10.4688 245.165 14.375V37.0312L241.454 38.7891H241.258V29.3945C240.737 29.7982 240.086 30 239.305 30H234.813Z" fill="#313131"/>
<path d="M259.86 30C255.954 30 254 28.0469 254 24.1406V9.49219L257.711 7.73438H257.907V24.1406C257.907 25.7031 258.558 26.4844 259.86 26.4844H264.352C265.654 26.4844 266.305 25.7031 266.305 24.1406V9.49219L270.016 7.73438H270.211V24.1406C270.211 28.0469 268.258 30 264.352 30H259.86Z" fill="#313131"/>
<path d="M282.954 26.4844H287.055C288.357 26.4844 289.008 25.7031 289.008 24.1406V21.4648C289.008 19.9023 288.357 19.1211 287.055 19.1211H282.954C281.652 19.1211 281 19.9023 281 21.4648V24.1406C281 25.7031 281.652 26.4844 282.954 26.4844ZM282.954 30C279.047 30 277.094 28.0469 277.094 24.1406V21.4648C277.094 17.5586 279.047 15.6055 282.954 15.6055H287.055C287.732 15.6055 288.383 15.8008 289.008 16.1914V14.375C289.008 12.8125 288.357 12.0312 287.055 12.0312H280.063V11.8359L281.625 8.51562H287.055C290.961 8.51562 292.915 10.4688 292.915 14.375V29.0234L289.204 30.7812H289.008V29.4141C288.514 29.8047 287.862 30 287.055 30H282.954Z" fill="#313131"/>
<path d="M300.774 30.7812V14.375C300.774 10.4688 302.727 8.51562 306.633 8.51562H311.516V8.71094L309.954 12.0312H306.633C305.331 12.0312 304.68 12.8125 304.68 14.375V29.0234L300.969 30.7812H300.774Z" fill="#313131"/>
<path d="M322.696 30C318.79 30 316.836 28.0469 316.836 24.1406V14.375C316.836 10.4688 318.79 8.51562 322.696 8.51562H327.188C331.094 8.51562 333.047 10.4688 333.047 14.375V15.4102L320.801 24.8828C320.984 25.9505 321.615 26.4844 322.696 26.4844H327.188C328.49 26.4844 329.141 25.7031 329.141 24.1406V23.1055L332.852 21.3477H333.047V24.1406C333.047 28.0469 331.094 30 327.188 30H322.696ZM320.743 20.8008L329.122 14.043C329.043 12.7018 328.399 12.0312 327.188 12.0312H322.696C321.394 12.0312 320.743 12.8125 320.743 14.375V20.8008Z" fill="#313131"/>
<path d="M45.377 106.803H47.9404C48.7542 106.803 49.1611 106.314 49.1611 105.338V103.666C49.1611 102.689 48.7542 102.201 47.9404 102.201H45.377C44.5632 102.201 44.1562 102.689 44.1562 103.666V105.338C44.1562 106.314 44.5632 106.803 45.377 106.803ZM45.377 109C42.9355 109 41.7148 107.779 41.7148 105.338V103.666C41.7148 101.224 42.9355 100.003 45.377 100.003H47.9404C48.3636 100.003 48.7705 100.125 49.1611 100.37V99.2344C49.1611 98.2578 48.7542 97.7695 47.9404 97.7695H43.5703V97.6475L44.5469 95.5723H47.9404C50.3818 95.5723 51.6025 96.793 51.6025 99.2344V108.39L49.2832 109.488H49.1611V108.634C48.8519 108.878 48.445 109 47.9404 109H45.377Z" fill="#313131"/>
<path d="M59.5371 106.803H62.3447C63.1585 106.803 63.5654 106.314 63.5654 105.338V99.2344C63.5654 98.2578 63.1585 97.7695 62.3447 97.7695H59.5371C58.7233 97.7695 58.3164 98.2578 58.3164 99.2344V105.338C58.3164 106.314 58.7233 106.803 59.5371 106.803ZM59.5371 109C57.0957 109 55.875 107.779 55.875 105.338V91.1777L58.1943 90.0791H58.3164V95.9507C58.6419 95.6984 59.0488 95.5723 59.5371 95.5723H62.3447C64.7861 95.5723 66.0068 96.793 66.0068 99.2344V105.338C66.0068 107.779 64.7861 109 62.3447 109H59.5371Z" fill="#313131"/>
<path d="M73.3311 109C70.8896 109 69.6689 107.779 69.6689 105.338V99.2344C69.6689 96.793 70.8896 95.5723 73.3311 95.5723H76.1387C78.5801 95.5723 79.8008 96.793 79.8008 99.2344V99.8813L77.4814 100.98H77.3594V99.2344C77.3594 98.2578 76.9525 97.7695 76.1387 97.7695H73.3311C72.5173 97.7695 72.1104 98.2578 72.1104 99.2344V105.338C72.1104 106.314 72.5173 106.803 73.3311 106.803H76.1387C76.9525 106.803 77.3594 106.314 77.3594 105.338V104.691L79.6787 103.592H79.8008V105.338C79.8008 107.779 78.5801 109 76.1387 109H73.3311Z" fill="#313131"/>
<path d="M87.125 109C84.6836 109 83.4629 107.779 83.4629 105.338V99.2344C83.4629 96.793 84.6836 95.5723 87.125 95.5723H89.9326C90.486 95.5723 90.8929 95.6984 91.1533 95.9507V91.1777L93.4727 90.0791H93.5947V105.338C93.5947 107.779 92.374 109 89.9326 109H87.125ZM87.125 106.803H89.9326C90.7464 106.803 91.1533 106.314 91.1533 105.338V99.2344C91.1533 98.2578 90.7464 97.7695 89.9326 97.7695H87.125C86.3112 97.7695 85.9043 98.2578 85.9043 99.2344V105.338C85.9043 106.314 86.3112 106.803 87.125 106.803Z" fill="#313131"/>
<path d="M101.529 109C99.0879 109 97.8672 107.779 97.8672 105.338V99.2344C97.8672 96.793 99.0879 95.5723 101.529 95.5723H104.337C106.778 95.5723 107.999 96.793 107.999 99.2344V99.8813L100.345 105.802C100.459 106.469 100.854 106.803 101.529 106.803H104.337C105.151 106.803 105.558 106.314 105.558 105.338V104.691L107.877 103.592H107.999V105.338C107.999 107.779 106.778 109 104.337 109H101.529ZM100.309 103.25L105.545 99.0269C105.497 98.1886 105.094 97.7695 104.337 97.7695H101.529C100.715 97.7695 100.309 98.2578 100.309 99.2344V103.25Z" fill="#313131"/>
<path d="M112.271 109.488V99.0146H110.44V98.8926L111.429 96.793H112.271V94.2295C112.271 91.7881 113.492 90.5674 115.934 90.5674H118.985V90.6895L118.009 92.7646H115.934C115.12 92.7646 114.713 93.2529 114.713 94.2295V96.793H118.753V96.915L117.765 99.0146H114.713V108.39L112.394 109.488H112.271Z" fill="#313131"/>
<path d="M125.089 109C122.647 109 121.427 107.779 121.427 105.338V99.2344C121.427 96.793 122.647 95.5723 125.089 95.5723H127.896C130.338 95.5723 131.559 96.793 131.559 99.2344V110.343C131.559 112.784 130.338 114.005 127.896 114.005H122.696V113.883L123.673 111.808H127.896C128.71 111.808 129.117 111.319 129.117 110.343V108.634C128.775 108.878 128.368 109 127.896 109H125.089ZM125.089 106.803H127.896C128.71 106.803 129.117 106.314 129.117 105.338V99.2344C129.117 98.2578 128.71 97.7695 127.896 97.7695H125.089C124.275 97.7695 123.868 98.2578 123.868 99.2344V105.338C123.868 106.314 124.275 106.803 125.089 106.803Z" fill="#313131"/>
<path d="M136.197 109.488V91.1777L138.517 90.0791H138.639V95.9507C138.997 95.6984 139.404 95.5723 139.859 95.5723H142.667C145.108 95.5723 146.329 96.793 146.329 99.2344V108.39L144.01 109.488H143.888V99.2344C143.888 98.2578 143.481 97.7695 142.667 97.7695H139.859C139.046 97.7695 138.639 98.2578 138.639 99.2344V108.39L136.319 109.488H136.197Z" fill="#313131"/>
<path d="M150.785 92.8745C150.5 92.5815 150.357 92.2316 150.357 91.8247C150.357 91.4097 150.5 91.0557 150.785 90.7627C151.069 90.4697 151.415 90.3232 151.822 90.3232C152.229 90.3232 152.575 90.4697 152.86 90.7627C153.145 91.0557 153.287 91.4097 153.287 91.8247C153.287 92.2316 153.145 92.5815 152.86 92.8745C152.575 93.1675 152.229 93.314 151.822 93.314C151.415 93.314 151.069 93.1675 150.785 92.8745ZM150.602 109.488V96.1826L152.921 95.084H153.043V108.39L150.724 109.488H150.602Z" fill="#313131"/>
<path d="M155.484 114.005V113.883L156.461 111.808H156.705C157.519 111.808 157.926 111.319 157.926 110.343V96.1826L160.245 95.084H160.367V110.343C160.367 112.784 159.146 114.005 156.705 114.005H155.484ZM158.109 92.8745C157.824 92.5815 157.682 92.2316 157.682 91.8247C157.682 91.4097 157.824 91.0557 158.109 90.7627C158.394 90.4697 158.74 90.3232 159.146 90.3232C159.553 90.3232 159.899 90.4697 160.184 90.7627C160.469 91.0557 160.611 91.4097 160.611 91.8247C160.611 92.2316 160.469 92.5815 160.184 92.8745C159.899 93.1675 159.553 93.314 159.146 93.314C158.74 93.314 158.394 93.1675 158.109 92.8745Z" fill="#313131"/>
<path d="M165.25 109.488V91.1777L167.569 90.0791H167.691V99.9668C167.797 99.9424 167.911 99.922 168.033 99.9058L172.794 95.084H172.916L175.064 96.0972L170.987 99.8447H171.72C174.161 99.8447 175.382 101.065 175.382 103.507V108.39L173.062 109.488H172.94V103.507C172.94 102.53 172.534 102.042 171.72 102.042H168.912C168.098 102.042 167.691 102.53 167.691 103.507V108.39L165.372 109.488H165.25Z" fill="#313131"/>
<path d="M179.654 109.488V91.1777L181.974 90.0791H182.096V108.39L179.776 109.488H179.654Z" fill="#313131"/>
<path d="M186.368 109.488V99.2344C186.368 96.793 187.589 95.5723 190.03 95.5723H192.838C193.961 95.5723 194.775 95.8734 195.279 96.4756C195.816 95.8734 196.63 95.5723 197.721 95.5723H200.528C202.97 95.5723 204.19 96.793 204.19 99.2344V108.39L201.871 109.488H201.749V99.2344C201.749 98.2578 201.342 97.7695 200.528 97.7695H197.721C196.907 97.7695 196.5 98.2578 196.5 99.2344V108.39L194.181 109.488H194.059V99.2344C194.059 98.2578 193.652 97.7695 192.838 97.7695H190.03C189.216 97.7695 188.81 98.2578 188.81 99.2344V108.39L186.49 109.488H186.368Z" fill="#313131"/>
<path d="M207.853 109.488V99.2344C207.853 96.793 209.073 95.5723 211.515 95.5723H214.322C216.764 95.5723 217.984 96.793 217.984 99.2344V108.39L215.665 109.488H215.543V99.2344C215.543 98.2578 215.136 97.7695 214.322 97.7695H211.515C210.701 97.7695 210.294 98.2578 210.294 99.2344V108.39L207.975 109.488H207.853Z" fill="#313131"/>
<path d="M225.309 106.803H228.116C228.93 106.803 229.337 106.314 229.337 105.338V99.2344C229.337 98.2578 228.93 97.7695 228.116 97.7695H225.309C224.495 97.7695 224.088 98.2578 224.088 99.2344V105.338C224.088 106.314 224.495 106.803 225.309 106.803ZM225.309 109C222.867 109 221.646 107.779 221.646 105.338V99.2344C221.646 96.793 222.867 95.5723 225.309 95.5723H228.116C230.558 95.5723 231.778 96.793 231.778 99.2344V105.338C231.778 107.779 230.558 109 228.116 109H225.309Z" fill="#313131"/>
<path d="M239.713 109C239.16 109 238.753 108.874 238.492 108.622V113.395L236.173 114.493H236.051V99.2344C236.051 96.793 237.271 95.5723 239.713 95.5723H242.521C244.962 95.5723 246.183 96.793 246.183 99.2344V105.338C246.183 107.779 244.962 109 242.521 109H239.713ZM239.713 106.803H242.521C243.334 106.803 243.741 106.314 243.741 105.338V99.2344C243.741 98.2578 243.334 97.7695 242.521 97.7695H239.713C238.899 97.7695 238.492 98.2578 238.492 99.2344V105.338C238.492 106.314 238.899 106.803 239.713 106.803Z" fill="#313131"/>
<path d="M253.507 106.803H256.314C257.128 106.803 257.535 106.314 257.535 105.338V99.2344C257.535 98.2578 257.128 97.7695 256.314 97.7695H253.507C252.693 97.7695 252.286 98.2578 252.286 99.2344V105.338C252.286 106.314 252.693 106.803 253.507 106.803ZM253.507 109C251.065 109 249.845 107.779 249.845 105.338V99.2344C249.845 96.793 251.065 95.5723 253.507 95.5723H256.314C258.756 95.5723 259.977 96.793 259.977 99.2344V113.395L257.657 114.493H257.535V108.622C257.21 108.874 256.803 109 256.314 109H253.507Z" fill="#313131"/>
<path d="M264.249 109.488V99.2344C264.249 96.793 265.47 95.5723 267.911 95.5723H270.963V95.6943L269.986 97.7695H267.911C267.097 97.7695 266.69 98.2578 266.69 99.2344V108.39L264.371 109.488H264.249Z" fill="#313131"/>
<path d="M276.334 109C273.893 109 272.672 107.779 272.672 105.338V104.898L274.991 103.8H275.113V105.338C275.113 106.314 275.52 106.803 276.334 106.803H279.142C279.955 106.803 280.362 106.314 280.362 105.338V104.374C280.362 103.397 279.955 102.909 279.142 102.909H276.847C274.405 102.909 273.185 101.684 273.185 99.2344C273.185 96.793 274.405 95.5723 276.847 95.5723H278.275C280.716 95.5723 281.937 96.557 281.937 98.5264L279.618 99.625H279.496V99.2344C279.496 98.2578 279.089 97.7695 278.275 97.7695H276.847C276.033 97.7695 275.626 98.2578 275.626 99.2344C275.626 100.219 276.033 100.711 276.847 100.711H279.142C281.583 100.711 282.804 101.932 282.804 104.374V105.338C282.804 107.779 281.583 109 279.142 109H276.334Z" fill="#313131"/>
<path d="M287.711 109.488V97.7939H284.574V97.6719L285.562 95.5723H287.711V91.1777L290.03 90.0791H290.152V95.5723H293.29V95.6943L292.301 97.7939H290.152V108.39L287.833 109.488H287.711Z" fill="#313131"/>
<path d="M299.088 109C296.646 109 295.426 107.779 295.426 105.338V96.1826L297.745 95.084H297.867V105.338C297.867 106.314 298.274 106.803 299.088 106.803H301.896C302.709 106.803 303.116 106.314 303.116 105.338V96.1826L305.436 95.084H305.558V105.338C305.558 107.779 304.337 109 301.896 109H299.088Z" fill="#313131"/>
<path d="M312.101 109.488L307.389 96.085L309.5 95.084H309.623L313.077 105.265L316.458 95.084H316.581L318.692 96.085L314.334 108.487L312.223 109.488H312.101Z" fill="#313131"/>
<path d="M324.186 109C321.744 109 320.523 107.779 320.523 105.338V96.1826L322.843 95.084H322.965V105.338C322.965 106.314 323.372 106.803 324.186 106.803H326.993C327.807 106.803 328.214 106.314 328.214 105.338V96.1826L330.533 95.084H330.655V105.338C330.655 106.314 331.062 106.803 331.876 106.803H334.684C335.497 106.803 335.904 106.314 335.904 105.338V96.1826L338.224 95.084H338.346V105.338C338.346 107.779 337.125 109 334.684 109H331.876C330.753 109 329.939 108.699 329.435 108.097C328.897 108.699 328.084 109 326.993 109H324.186Z" fill="#313131"/>
<path d="M343.033 109.488H342.911L340.787 108.487L344.571 102.286L340.787 96.0972L342.923 95.084H343.045L346.012 100.296L348.966 95.084H349.088L351.224 96.0972L347.44 102.286L351.224 108.487L349.1 109.488H348.978L346.012 104.264L343.033 109.488Z" fill="#313131"/>
<path d="M357.34 109C354.898 109 353.678 107.779 353.678 105.338V96.1826L355.997 95.084H356.119V105.338C356.119 106.314 356.526 106.803 357.34 106.803H360.147C360.961 106.803 361.368 106.314 361.368 105.338V96.1826L363.688 95.084H363.81V110.343C363.81 112.784 362.589 114.005 360.147 114.005H354.947V113.883L355.924 111.808H360.147C360.961 111.808 361.368 111.319 361.368 110.343V108.634C361.051 108.878 360.644 109 360.147 109H357.34Z" fill="#313131"/>
<path d="M366.861 109V108.878L373.246 97.7939H366.983V97.6719L367.972 95.5723H377.152V95.6943L370.78 106.778H377.274V106.9L376.285 109H366.861Z" fill="#313131"/>
<path d="M0.601562 147.488V132.84C0.601562 129.992 2.02572 128.567 4.87402 128.567H8.6582C11.5065 128.567 12.9307 129.992 12.9307 132.84V146.39L10.6113 147.488H10.4893V138.895H3.04297V146.39L0.723633 147.488H0.601562ZM3.04297 136.673H10.4893V132.84C10.4893 131.456 9.87891 130.765 8.6582 130.765H4.87402C3.65332 130.765 3.04297 131.456 3.04297 132.84V136.673Z" fill="#313131"/>
<path d="M17.8135 147V129.178L19.1074 128.567H25.1377C27.5791 128.567 28.7998 129.788 28.7998 132.229V134.231C28.7998 135.127 28.5638 135.839 28.0918 136.368C29.2962 137.051 29.8984 138.252 29.8984 139.969V142.728C29.8984 145.576 28.4743 147 25.626 147H17.8135ZM20.2549 144.803H25.626C26.8467 144.803 27.457 144.111 27.457 142.728V139.969C27.457 138.585 26.8467 137.894 25.626 137.894H20.2549V144.803ZM20.2549 135.696H25.1377C25.9515 135.696 26.3584 135.208 26.3584 134.231V132.229C26.3584 131.253 25.9515 130.765 25.1377 130.765H20.2549V135.696Z" fill="#313131"/>
<path d="M38.8096 147C35.9613 147 34.5371 145.576 34.5371 142.728V132.84C34.5371 129.992 35.9613 128.567 38.8096 128.567H42.5938C45.4421 128.567 46.8662 129.992 46.8662 132.84V134.183L44.5469 135.281H44.4248V132.84C44.4248 131.456 43.8145 130.765 42.5938 130.765H38.8096C37.5889 130.765 36.9785 131.456 36.9785 132.84V142.728C36.9785 144.111 37.5889 144.803 38.8096 144.803H42.5938C43.8145 144.803 44.4248 144.111 44.4248 142.728V141.385L46.7441 140.286H46.8662V142.728C46.8662 145.576 45.4421 147 42.5938 147H38.8096Z" fill="#313131"/>
<path d="M54.1904 144.803H59.5615C60.7822 144.803 61.3926 144.111 61.3926 142.728V132.84C61.3926 131.456 60.7822 130.765 59.5615 130.765H54.1904V144.803ZM51.749 147V129.178L53.043 128.567H59.5615C62.4098 128.567 63.834 129.992 63.834 132.84V142.728C63.834 145.576 62.4098 147 59.5615 147H51.749Z" fill="#313131"/>
<path d="M68.7168 147V129.178L70.0107 128.567H77.75V128.689L76.7612 130.789H71.1582V136.673H77.75V136.795L76.7612 138.895H71.1582V144.778H79.7886V144.9L78.7998 147H68.7168Z" fill="#313131"/>
<path d="M82.8525 147.488V129.178L84.1465 128.567H91.8857V128.689L90.897 130.789H85.2939V136.673H91.8857V136.795L90.897 138.895H85.2939V146.39L82.9746 147.488H82.8525Z" fill="#313131"/>
<path d="M100.797 147C97.9486 147 96.5244 145.576 96.5244 142.728V132.84C96.5244 129.992 97.9486 128.567 100.797 128.567H104.581C107.429 128.567 108.854 129.992 108.854 132.84V134.183L106.534 135.281H106.412V132.84C106.412 131.456 105.802 130.765 104.581 130.765H100.797C99.5762 130.765 98.9658 131.456 98.9658 132.84V142.728C98.9658 144.111 99.5762 144.803 100.797 144.803H104.581C105.802 144.803 106.412 144.111 106.412 142.728V138.895H102.164V138.772L103.153 136.673H108.854V142.728C108.854 145.576 107.429 147 104.581 147H100.797Z" fill="#313131"/>
<path d="M113.736 147.488V129.178L116.056 128.079H116.178V136.673H123.38V129.178L125.699 128.079H125.821V146.39L123.502 147.488H123.38V138.895H116.178V146.39L113.858 147.488H113.736Z" fill="#313131"/>
<path d="M130.704 147.488V129.178L133.023 128.079H133.146V146.39L130.826 147.488H130.704Z" fill="#313131"/>
<path d="M140.836 147C137.988 147 136.563 145.576 136.563 142.728V141.385L138.883 140.286H139.005V142.728C139.005 144.111 139.615 144.803 140.836 144.803H144.376C145.597 144.803 146.207 144.111 146.207 142.728V130.789H139.212V130.667L140.201 128.567H148.648V142.728C148.648 145.576 147.224 147 144.376 147H140.836Z" fill="#313131"/>
<path d="M153.531 147.488V129.178L155.851 128.079H155.973V136.6C156.16 136.535 156.359 136.486 156.571 136.453L162.601 128.079H162.723L164.872 129.092L159.427 136.343H161.222C164.07 136.343 165.494 137.767 165.494 140.616V146.39L163.175 147.488H163.053V140.616C163.053 139.232 162.442 138.541 161.222 138.541H157.804C156.583 138.541 155.973 139.232 155.973 140.616V146.39L153.653 147.488H153.531Z" fill="#313131"/>
<path d="M170.133 147V129.178L172.452 128.079H172.574V144.778H180.936V144.9L179.947 147H170.133Z" fill="#313131"/>
<path d="M181.974 147.488V132.84C181.974 129.992 183.398 128.567 186.246 128.567H190.03C191.495 128.567 192.512 128.958 193.082 129.739C193.733 128.958 194.75 128.567 196.134 128.567H199.918C202.766 128.567 204.19 129.992 204.19 132.84V146.39L201.871 147.488H201.749V132.84C201.749 131.456 201.139 130.765 199.918 130.765H196.134C194.913 130.765 194.303 131.456 194.303 132.84V146.39L191.983 147.488H191.861V132.84C191.861 131.456 191.251 130.765 190.03 130.765H186.246C185.025 130.765 184.415 131.456 184.415 132.84V146.39L182.096 147.488H181.974Z" fill="#313131"/>
<path d="M209.073 147.488V132.84C209.073 129.992 210.497 128.567 213.346 128.567H217.13C219.978 128.567 221.402 129.992 221.402 132.84V146.39L219.083 147.488H218.961V132.84C218.961 131.456 218.351 130.765 217.13 130.765H213.346C212.125 130.765 211.515 131.456 211.515 132.84V146.39L209.195 147.488H209.073Z" fill="#313131"/>
<path d="M230.558 144.803H234.342C235.562 144.803 236.173 144.111 236.173 142.728V132.84C236.173 131.456 235.562 130.765 234.342 130.765H230.558C229.337 130.765 228.727 131.456 228.727 132.84V142.728C228.727 144.111 229.337 144.803 230.558 144.803ZM230.558 147C227.709 147 226.285 145.576 226.285 142.728V132.84C226.285 129.992 227.709 128.567 230.558 128.567H234.342C237.19 128.567 238.614 129.992 238.614 132.84V142.728C238.614 145.576 237.19 147 234.342 147H230.558Z" fill="#313131"/>
<path d="M243.497 147.488V129.178L244.791 128.567H251.31C254.158 128.567 255.582 129.992 255.582 132.84V136.502C255.582 139.35 254.158 140.774 251.31 140.774H245.938V146.39L243.619 147.488H243.497ZM245.938 130.765V138.577H251.31C252.53 138.577 253.141 137.885 253.141 136.502V132.84C253.141 131.456 252.53 130.765 251.31 130.765H245.938Z" fill="#313131"/>
<path d="M264.505 141.446L266.654 140.433H266.776L269.022 143.643C269.095 143.383 269.132 143.077 269.132 142.728V132.84C269.132 131.456 268.521 130.765 267.301 130.765H263.517C262.296 130.765 261.686 131.456 261.686 132.84V142.728C261.686 144.111 262.296 144.803 263.517 144.803H266.849L264.505 141.446ZM263.517 147C260.668 147 259.244 145.576 259.244 142.728V132.84C259.244 129.992 260.668 128.567 263.517 128.567H267.301C270.149 128.567 271.573 129.992 271.573 132.84V142.728C271.573 144.103 271.24 145.149 270.572 145.865L271 146.475L268.851 147.488H268.729L268.338 146.927C268.013 146.976 267.667 147 267.301 147H263.517Z" fill="#313131"/>
<path d="M278.897 130.765V138.577H284.269C285.489 138.577 286.1 137.885 286.1 136.502V132.84C286.1 131.456 285.489 130.765 284.269 130.765H278.897ZM276.456 147.488V129.178L277.75 128.567H284.269C287.117 128.567 288.541 129.992 288.541 132.84V136.502C288.541 139.155 287.308 140.571 284.842 140.75L288.834 146.475L286.686 147.488H286.563L281.864 140.774H278.897V146.39L276.578 147.488H276.456Z" fill="#313131"/>
<path d="M296.891 147C294.042 147 292.618 145.576 292.618 142.728V141.385L294.938 140.286H295.06V142.728C295.06 144.111 295.67 144.803 296.891 144.803H300.675C301.896 144.803 302.506 144.111 302.506 142.728V140.164C302.506 138.781 301.896 138.089 300.675 138.089H297.379C294.938 138.089 293.717 136.868 293.717 134.427V132.229C293.717 129.788 294.938 128.567 297.379 128.567H300.187C302.628 128.567 303.849 129.788 303.849 132.229V132.876L301.529 133.975H301.407V132.229C301.407 131.253 301 130.765 300.187 130.765H297.379C296.565 130.765 296.158 131.253 296.158 132.229V134.427C296.158 135.403 296.565 135.892 297.379 135.892H300.675C303.523 135.892 304.947 137.316 304.947 140.164V142.728C304.947 145.576 303.523 147 300.675 147H296.891Z" fill="#313131"/>
<path d="M310.355 147.488V130.789H305.13V130.667L306.119 128.567H318.021V128.689L317.032 130.789H312.796V146.39L310.477 147.488H310.355Z" fill="#313131"/>
<path d="M323.575 147C320.727 147 319.303 145.576 319.303 142.728V129.178L321.622 128.079H321.744V142.728C321.744 144.111 322.354 144.803 323.575 144.803H327.359C328.58 144.803 329.19 144.111 329.19 142.728V129.178L331.51 128.079H331.632V142.728C331.632 145.576 330.208 147 327.359 147H323.575Z" fill="#313131"/>
<path d="M340.36 147.488L334.134 129.08L336.246 128.079H336.368L341.422 143.411L346.195 128.079H346.317L348.429 129.08L342.594 146.487L340.482 147.488H340.36Z" fill="#313131"/>
<path d="M355.216 147C352.368 147 350.943 145.576 350.943 142.728V129.178L353.263 128.079H353.385V142.728C353.385 144.111 353.995 144.803 355.216 144.803H359C360.221 144.803 360.831 144.111 360.831 142.728V129.178L363.15 128.079H363.272V142.728C363.272 144.111 363.883 144.803 365.104 144.803H368.888C370.108 144.803 370.719 144.111 370.719 142.728V129.178L373.038 128.079H373.16V142.728C373.16 145.576 371.736 147 368.888 147H365.104C363.639 147 362.621 146.609 362.052 145.828C361.401 146.609 360.383 147 359 147H355.216Z" fill="#313131"/>
<path d="M378.336 147.488L376.212 146.487L381.363 137.784L376.212 129.092L378.348 128.079H378.47L382.792 135.623L387.113 128.079H387.235L389.371 129.092L384.22 137.784L389.371 146.487L387.247 147.488H387.125L382.792 139.944L378.458 147.488H378.336Z" fill="#313131"/>
<path d="M396.146 147.488V141.116H395.475C392.626 141.116 391.202 139.692 391.202 136.844V129.178L393.521 128.079H393.644V136.844C393.644 138.227 394.254 138.919 395.475 138.919H399.259C400.479 138.919 401.09 138.227 401.09 136.844V129.178L403.409 128.079H403.531V136.844C403.531 139.692 402.107 141.116 399.259 141.116H398.587V146.39L396.268 147.488H396.146Z" fill="#313131"/>
<path d="M407.193 147V146.878L415.091 130.789H407.315V130.667L408.304 128.567H418.875V128.689L410.941 144.778H418.998V144.9L418.009 147H407.193Z" fill="#313131"/>
<path d="M25.8462 68.8027H29.6304C30.8511 68.8027 31.4614 68.111 31.4614 66.7275V56.8398C31.4614 55.4564 30.8511 54.7646 29.6304 54.7646H25.8462C24.6255 54.7646 24.0151 55.4564 24.0151 56.8398V66.7275C24.0151 68.111 24.6255 68.8027 25.8462 68.8027ZM25.8462 71C22.9979 71 21.5737 69.5758 21.5737 66.7275V56.8398C21.5737 53.9915 22.9979 52.5674 25.8462 52.5674H29.6304C32.4787 52.5674 33.9028 53.9915 33.9028 56.8398V66.7275C33.9028 69.5758 32.4787 71 29.6304 71H25.8462Z" fill="#313131"/>
<path d="M39.5669 71.4883V55.4727L36.5884 57.1084V54.606L41.8862 52.0791H42.0083V70.3896L39.689 71.4883H39.5669Z" fill="#313131"/>
<path d="M46.8911 71V70.8779L47.8799 68.7783L53.7271 63.1143C55.6802 61.1937 56.6567 59.7655 56.6567 58.8296V56.8398C56.6567 55.4564 56.0464 54.7646 54.8257 54.7646H51.2856C50.0649 54.7646 49.4546 55.4564 49.4546 56.8398V58.1826L47.1353 59.2812H47.0132V56.8398C47.0132 53.9915 48.4373 52.5674 51.2856 52.5674H54.8257C57.674 52.5674 59.0981 53.9915 59.0981 56.8398V58.9517C59.0981 60.4979 58.0524 62.1947 55.9609 64.042L50.8218 68.7783H59.3789V68.9004L58.3901 71H46.8911Z" fill="#313131"/>
<path d="M67.5698 71C64.7215 71 63.2974 69.5758 63.2974 66.7275V65.3848L65.6167 64.2861H65.7388V66.7275C65.7388 68.111 66.3491 68.8027 67.5698 68.8027H71.354C72.5747 68.8027 73.1851 68.111 73.1851 66.7275V63.8955C73.1851 62.512 72.5747 61.8203 71.354 61.8203C71.354 61.8203 69.9136 61.8203 67.0327 61.8203L70.7803 54.7891H64.3838V54.667L65.3726 52.5674H74.5645L70.5117 59.623H71.354C74.2023 59.623 75.6265 61.0472 75.6265 63.8955V66.7275C75.6265 69.5758 74.2023 71 71.354 71H67.5698Z" fill="#313131"/>
<path d="M86.5884 64.4082V56.5225L81.2783 64.4082H86.5884ZM86.5884 71.4883V66.6299H77.6406V66.5078L78.6294 64.4082L86.5884 53.1777L88.9077 52.0791H89.0298V64.4082H90.8608V64.5303L89.8721 66.6299H89.0298V70.3896L86.7104 71.4883H86.5884Z" fill="#313131"/>
<path d="M98.3071 71C95.4588 71 94.0347 69.5758 94.0347 66.7275V65.3848L96.354 64.2861H96.4761V66.7275C96.4761 68.111 97.0864 68.8027 98.3071 68.8027H102.091C103.312 68.8027 103.922 68.111 103.922 66.7275V63.8955C103.922 62.512 103.312 61.8203 102.091 61.8203H97.4771L94.9258 60.5874L96.9644 52.5674H105.424V52.6895L104.435 54.7891H98.8198L97.5747 59.623H102.091C104.94 59.623 106.364 61.0472 106.364 63.8955V66.7275C106.364 69.5758 104.94 71 102.091 71H98.3071Z" fill="#313131"/>
<path d="M115.031 68.8027H118.815C120.036 68.8027 120.646 68.111 120.646 66.7275V63.5781C120.646 62.1947 120.036 61.5029 118.815 61.5029H115.031C113.81 61.5029 113.2 62.1947 113.2 63.5781V66.7275C113.2 68.111 113.81 68.8027 115.031 68.8027ZM115.031 71C112.182 71 110.758 69.5758 110.758 66.7275V56.8398C110.758 53.9915 112.182 52.5674 115.031 52.5674H118.571C121.419 52.5674 122.843 53.9915 122.843 56.8398V57.2061L120.524 58.3047H120.402V56.8398C120.402 55.4564 119.792 54.7646 118.571 54.7646H115.031C113.81 54.7646 113.2 55.4564 113.2 56.8398V59.8184C113.769 59.4766 114.38 59.3057 115.031 59.3057H118.815C121.663 59.3057 123.087 60.7298 123.087 63.5781V66.7275C123.087 69.5758 121.663 71 118.815 71H115.031Z" fill="#313131"/>
<path d="M131.12 71.4883H130.998L128.8 70.4507L134.391 54.7891H126.139V54.667L127.128 52.5674H137.699V52.6895L131.12 71.4883Z" fill="#313131"/>
<path d="M144.547 71C141.699 71 140.275 69.5758 140.275 66.7275V63.9688C140.275 62.2516 140.877 61.0513 142.082 60.3677C141.61 59.8387 141.374 59.1266 141.374 58.2314V56.2295C141.374 53.7881 142.594 52.5674 145.036 52.5674H147.843C150.285 52.5674 151.505 53.7881 151.505 56.2295V58.2314C151.505 59.1266 151.269 59.8387 150.797 60.3677C152.002 61.0513 152.604 62.2516 152.604 63.9688V66.7275C152.604 69.5758 151.18 71 148.332 71H144.547ZM144.547 68.8027H148.332C149.552 68.8027 150.163 68.111 150.163 66.7275V63.9688C150.163 62.5853 149.552 61.8936 148.332 61.8936H144.547C143.327 61.8936 142.716 62.5853 142.716 63.9688V66.7275C142.716 68.111 143.327 68.8027 144.547 68.8027ZM145.036 59.6963H147.843C148.657 59.6963 149.064 59.208 149.064 58.2314V56.2295C149.064 55.2529 148.657 54.7646 147.843 54.7646H145.036C144.222 54.7646 143.815 55.2529 143.815 56.2295V58.2314C143.815 59.208 144.222 59.6963 145.036 59.6963Z" fill="#313131"/>
<path d="M161.271 62.0645H165.055C166.276 62.0645 166.886 61.3727 166.886 59.9893V56.8398C166.886 55.4564 166.276 54.7646 165.055 54.7646H161.271C160.05 54.7646 159.44 55.4564 159.44 56.8398V59.9893C159.44 61.3727 160.05 62.0645 161.271 62.0645ZM161.515 71C158.667 71 157.243 69.5758 157.243 66.7275V66.3613L159.562 65.2627H159.684V66.7275C159.684 68.111 160.294 68.8027 161.515 68.8027H165.055C166.276 68.8027 166.886 68.111 166.886 66.7275V63.749C166.317 64.0908 165.706 64.2617 165.055 64.2617H161.271C158.423 64.2617 156.999 62.8376 156.999 59.9893V56.8398C156.999 53.9915 158.423 52.5674 161.271 52.5674H165.055C167.903 52.5674 169.328 53.9915 169.328 56.8398V66.7275C169.328 69.5758 167.903 71 165.055 71H161.515Z" fill="#313131"/>
<path d="M184.159 70.8047C183.874 70.5117 183.732 70.1618 183.732 69.7549C183.732 69.3398 183.874 68.9858 184.159 68.6929C184.444 68.3999 184.79 68.2534 185.197 68.2534C185.604 68.2534 185.95 68.3999 186.234 68.6929C186.519 68.9858 186.662 69.3398 186.662 69.7549C186.662 70.1618 186.519 70.5117 186.234 70.8047C185.95 71.0977 185.604 71.2441 185.197 71.2441C184.79 71.2441 184.444 71.0977 184.159 70.8047ZM186.295 52.0791H186.417V64.7744L184.098 65.873H183.976V53.1777L186.295 52.0791Z" fill="#313131"/>
<path d="M198.49 71C196.049 71 194.828 69.7793 194.828 67.3379V66.4346C194.828 63.9932 196.049 62.7725 198.49 62.7725H199.723C200.171 62.7725 200.578 62.8132 200.944 62.8945V61.2344C200.944 60.2578 200.537 59.7695 199.723 59.7695H195.329C194.108 59.7695 193.498 60.4613 193.498 61.8447V71.7324C193.498 73.1159 194.108 73.8076 195.329 73.8076H198.625V76.0049H195.329C192.48 76.0049 191.056 74.5807 191.056 71.7324V61.8447C191.056 58.9964 192.48 57.5723 195.329 57.5723H199.723C202.165 57.5723 203.385 58.793 203.385 61.2344V70.3896L201.066 71.4883H200.944V70.8779C200.578 70.9593 200.171 71 199.723 71H198.49ZM198.49 68.8027H199.723C200.537 68.8027 200.944 68.3145 200.944 67.3379V66.4346C200.944 65.458 200.537 64.9697 199.723 64.9697H198.49C197.676 64.9697 197.27 65.458 197.27 66.4346V67.3379C197.27 68.3145 197.676 68.8027 198.49 68.8027Z" fill="#313131"/>
<path d="M211.173 68.29H211.051V64.6523H207.414V64.5303L208.402 62.4307H211.051V61.1123H207.414V60.9902L208.402 58.8906H211.051V56.2417L213.151 55.2529H213.273V58.8906H214.591V56.2417L216.691 55.2529H216.813V58.8906H220.451V59.0127L219.462 61.1123H216.813V62.4307H220.451V62.5527L219.462 64.6523H216.813V67.3013L214.713 68.29H214.591V64.6523H213.273V67.3013L211.173 68.29ZM213.273 62.4307H214.591V61.1123H213.273V62.4307Z" fill="#313131"/>
<path d="M228.507 71C225.659 71 224.235 69.5758 224.235 66.7275V65.3848L226.554 64.2861H226.676V66.7275C226.676 68.111 227.287 68.8027 228.507 68.8027H229.691V62.0889H228.996C226.554 62.0889 225.333 60.8682 225.333 58.4268V56.2295C225.333 53.7881 226.554 52.5674 228.996 52.5674H229.691V50.248L230.985 49.6377H231.107V52.5674H231.803C234.245 52.5674 235.465 53.7881 235.465 56.2295V56.8765L233.146 57.9751H233.024V56.2295C233.024 55.2529 232.617 54.7646 231.803 54.7646H231.107V59.8916H232.292C235.14 59.8916 236.564 61.3158 236.564 64.1641V66.7275C236.564 69.5758 235.14 71 232.292 71H231.107V73.3193L229.813 73.9297H229.691V71H228.507ZM229.691 59.8916V54.7646H228.996C228.182 54.7646 227.775 55.2529 227.775 56.2295V58.4268C227.775 59.4033 228.182 59.8916 228.996 59.8916H229.691ZM231.107 62.0889V68.8027H232.292C233.512 68.8027 234.123 68.111 234.123 66.7275V64.1641C234.123 62.7806 233.512 62.0889 232.292 62.0889H231.107Z" fill="#313131"/>
<path d="M256.388 68.8027H259.196C260.01 68.8027 260.417 68.3145 260.417 67.3379V65.3848C260.417 64.4082 260.01 63.9199 259.196 63.9199H256.388C255.574 63.9199 255.167 64.4082 255.167 65.3848V67.3379C255.167 68.3145 255.574 68.8027 256.388 68.8027ZM256.388 71C253.947 71 252.726 69.7793 252.726 67.3379V65.3848C252.726 62.9434 253.947 61.7227 256.388 61.7227H259.196C261.637 61.7227 262.858 62.9434 262.858 65.3848V67.3379C262.858 69.7793 261.637 71 259.196 71H256.388ZM244.01 59.6475H246.818C247.632 59.6475 248.039 59.1592 248.039 58.1826V56.2295C248.039 55.2529 247.632 54.7646 246.818 54.7646H244.01C243.196 54.7646 242.79 55.2529 242.79 56.2295V58.1826C242.79 59.1592 243.196 59.6475 244.01 59.6475ZM244.01 61.8447C241.569 61.8447 240.348 60.624 240.348 58.1826V56.2295C240.348 53.7881 241.569 52.5674 244.01 52.5674H246.818C249.259 52.5674 250.48 53.7881 250.48 56.2295V58.1826C250.48 60.624 249.259 61.8447 246.818 61.8447H244.01ZM248.136 71.4883L246.415 70.6582L255.07 52.0791H255.192L256.913 52.9092L248.258 71.4883H248.136Z" fill="#313131"/>
<path d="M266.52 57.7188L271.134 53.0801L273.246 52.0791H273.368L278.983 57.7188L276.872 58.7197H276.75L272.733 54.7891L268.754 58.7197H268.632L266.52 57.7188Z" fill="#313131"/>
<path d="M290.324 68.8027C291.593 67.4844 292.521 66.5241 293.107 65.9219L289.689 61.8936H287.052C285.832 61.8936 285.221 62.5853 285.221 63.9688V66.7275C285.221 68.111 285.832 68.8027 287.052 68.8027H290.324ZM291.3 71H287.052C284.204 71 282.78 69.5758 282.78 66.7275V63.9688C282.78 62.2516 283.382 61.0513 284.586 60.3677C284.114 59.8387 283.878 59.1266 283.878 58.2314V56.2295C283.878 53.7881 285.099 52.5674 287.541 52.5674H290.348C292.79 52.5674 294.01 53.7881 294.01 56.2295V57.1206L291.691 58.2192H291.569V56.2295C291.569 55.2529 291.162 54.7646 290.348 54.7646H287.541C286.727 54.7646 286.32 55.2529 286.32 56.2295V58.2314C286.32 59.208 286.727 59.6963 287.541 59.6963H290.812L294.547 64.1641L297.624 60.0625H297.746L299.845 61.0635L295.963 65.8975L299.87 70.4873L297.746 71.4883H297.624L294.328 67.5332L291.3 71Z" fill="#313131"/>
<path d="M310.148 52.0791V55.9731L312.455 54.3984L314.372 55.729L314.433 55.8267L311.015 57.6577L314.433 59.4888L314.372 59.5864L312.455 60.917L310.148 59.3423V62.2476L308.048 63.2363H307.926V59.3423L305.619 60.917L303.715 59.5864L303.654 59.4888L307.06 57.6577L303.654 55.8267L303.715 55.729L305.619 54.3984L307.926 55.9731V53.0679L310.026 52.0791H310.148Z" fill="#313131"/>
<path d="M324.882 49.6377V51.835C324.068 51.835 323.319 51.9692 322.636 52.2378C321.651 52.6284 321.159 53.1045 321.159 53.666V69.9014C321.159 70.4629 321.651 70.939 322.636 71.3296C323.319 71.5981 324.068 71.7324 324.882 71.7324V73.9297C323.653 73.9297 322.522 73.714 321.488 73.2827C319.641 72.5177 318.717 71.3906 318.717 69.9014V53.666C318.717 52.1768 319.641 51.0496 321.488 50.2847C322.522 49.8534 323.653 49.6377 324.882 49.6377Z" fill="#313131"/>
<path d="M326.115 49.6377C327.344 49.6377 328.475 49.8534 329.508 50.2847C331.356 51.0496 332.279 52.1768 332.279 53.666V69.9014C332.279 71.3906 331.356 72.5177 329.508 73.2827C328.475 73.714 327.344 73.9297 326.115 73.9297V71.7324C326.929 71.7324 327.677 71.5981 328.361 71.3296C329.346 70.939 329.838 70.4629 329.838 69.9014V53.666C329.838 53.1045 329.346 52.6284 328.361 52.2378C327.677 51.9692 326.929 51.835 326.115 51.835V49.6377Z" fill="#313131"/>
<path d="M336.564 59.2812V56.8398C336.564 53.9915 337.988 52.5674 340.836 52.5674H344.621C347.469 52.5674 348.893 53.9915 348.893 56.8398V58.1826C348.893 60.1927 347.514 62.0604 344.755 63.7856C344.047 64.2251 343.681 64.7826 343.656 65.458L341.3 66.5933H341.178C341.186 64.5262 341.898 63.0573 343.314 62.1865C345.406 60.9007 346.452 59.562 346.452 58.1704V56.8398C346.452 55.4564 345.841 54.7646 344.621 54.7646H340.836C339.616 54.7646 339.005 55.4564 339.005 56.8398V58.1826L336.686 59.2812H336.564ZM341.569 70.8047C341.284 70.5117 341.142 70.1618 341.142 69.7549C341.142 69.3398 341.284 68.9858 341.569 68.6929C341.854 68.3999 342.2 68.2534 342.606 68.2534C343.013 68.2534 343.359 68.3999 343.644 68.6929C343.929 68.9858 344.071 69.3398 344.071 69.7549C344.071 70.1618 343.929 70.5117 343.644 70.8047C343.359 71.0977 343.013 71.2441 342.606 71.2441C342.2 71.2441 341.854 71.0977 341.569 70.8047Z" fill="#313131"/>
<path d="M354.875 52.0791H354.997C355.884 52.9499 356.327 53.9427 356.327 55.0576C356.327 56.612 355.33 57.9141 353.336 58.9639L352.812 58.3535C353.731 57.4176 354.191 56.5387 354.191 55.7168C354.191 54.7321 353.646 53.8857 352.555 53.1777L354.875 52.0791Z" fill="#313131"/>
<path d="M366.166 52.0791H366.288C367.175 52.9499 367.619 53.9427 367.619 55.0576C367.619 56.612 366.622 57.9141 364.628 58.9639L364.103 58.3535C365.023 57.4176 365.482 56.5387 365.482 55.7168C365.482 54.7321 364.937 53.8857 363.847 53.1777L366.166 52.0791ZM362.321 52.0791H362.443C363.33 52.9499 363.773 53.9427 363.773 55.0576C363.773 56.612 362.777 57.9141 360.783 58.9639L360.258 58.3535C361.177 57.4176 361.637 56.5387 361.637 55.7168C361.637 54.7321 361.092 53.8857 360.001 53.1777L362.321 52.0791Z" fill="#313131"/>
<path d="M371.952 74.4912C371.952 74.4912 371.777 74.2878 371.427 73.8809C372.347 72.945 372.807 72.0661 372.807 71.2441C372.807 70.2594 372.261 69.4131 371.171 68.7051C371.171 68.7051 371.944 68.3389 373.49 67.6064H373.612C374.499 68.4772 374.943 69.4701 374.943 70.585C374.943 72.1393 373.946 73.4414 371.952 74.4912ZM372.074 62.8579C371.789 62.5649 371.647 62.215 371.647 61.8081C371.647 61.3931 371.789 61.0391 372.074 60.7461C372.359 60.4531 372.705 60.3066 373.112 60.3066C373.519 60.3066 373.865 60.4531 374.149 60.7461C374.434 61.0391 374.577 61.3931 374.577 61.8081C374.577 62.215 374.434 62.5649 374.149 62.8579C373.865 63.1509 373.519 63.2974 373.112 63.2974C372.705 63.2974 372.359 63.1509 372.074 62.8579Z" fill="#313131"/>
<path d="M379.398 62.8579C379.114 62.5649 378.971 62.215 378.971 61.8081C378.971 61.3931 379.114 61.0391 379.398 60.7461C379.683 60.4531 380.029 60.3066 380.436 60.3066C380.843 60.3066 381.189 60.4531 381.474 60.7461C381.758 61.0391 381.901 61.3931 381.901 61.8081C381.901 62.215 381.758 62.5649 381.474 62.8579C381.189 63.1509 380.843 63.2974 380.436 63.2974C380.029 63.2974 379.683 63.1509 379.398 62.8579ZM379.398 70.8047C379.114 70.5117 378.971 70.1618 378.971 69.7549C378.971 69.3398 379.114 68.9858 379.398 68.6929C379.683 68.3999 380.029 68.2534 380.436 68.2534C380.843 68.2534 381.189 68.3999 381.474 68.6929C381.758 68.9858 381.901 69.3398 381.901 69.7549C381.901 70.1618 381.758 70.5117 381.474 70.8047C381.189 71.0977 380.843 71.2441 380.436 71.2441C380.029 71.2441 379.683 71.0977 379.398 70.8047Z" fill="#313131"/>
<path d="M388.249 67.6064H388.371C389.258 68.4772 389.701 69.4701 389.701 70.585C389.701 72.1393 388.704 73.4414 386.71 74.4912L386.186 73.8809C387.105 72.945 387.565 72.0661 387.565 71.2441C387.565 70.2594 387.02 69.4131 385.929 68.7051L388.249 67.6064Z" fill="#313131"/>
<path d="M394.169 70.8047C393.884 70.5117 393.742 70.1618 393.742 69.7549C393.742 69.3398 393.884 68.9858 394.169 68.6929C394.454 68.3999 394.8 68.2534 395.207 68.2534C395.613 68.2534 395.959 68.3999 396.244 68.6929C396.529 68.9858 396.671 69.3398 396.671 69.7549C396.671 70.1618 396.529 70.5117 396.244 70.8047C395.959 71.0977 395.613 71.2441 395.207 71.2441C394.8 71.2441 394.454 71.0977 394.169 70.8047Z" fill="#313131"/>
</svg>
