<svg width="442" height="151" viewBox="0 0 442 151" fill="none" xmlns="http://www.w3.org/2000/svg">
<path d="M156.439 13C156.439 14.6267 156.066 16.12 155.319 17.48C154.573 18.8133 153.426 19.8933 151.879 20.72C150.333 21.5467 148.413 21.96 146.119 21.96H141.879V32.04H135.039V3.96H146.119C148.359 3.96 150.253 4.34667 151.799 5.12C153.346 5.89333 154.506 6.96 155.279 8.32C156.053 9.68 156.439 11.24 156.439 13ZM145.599 16.52C146.906 16.52 147.879 16.2133 148.519 15.6C149.159 14.9867 149.479 14.12 149.479 13C149.479 11.88 149.159 11.0133 148.519 10.4C147.879 9.78667 146.906 9.48 145.599 9.48H141.879V16.52H145.599Z" fill="#313131"/>
<path d="M172.16 32.36C169.974 32.36 168 31.8933 166.24 30.96C164.507 30.0267 163.134 28.6933 162.12 26.96C161.134 25.2267 160.64 23.2 160.64 20.88C160.64 18.5867 161.147 16.5733 162.16 14.84C163.174 13.08 164.56 11.7333 166.32 10.8C168.08 9.86667 170.054 9.4 172.24 9.4C174.427 9.4 176.4 9.86667 178.16 10.8C179.92 11.7333 181.307 13.08 182.32 14.84C183.334 16.5733 183.84 18.5867 183.84 20.88C183.84 23.1733 183.32 25.2 182.28 26.96C181.267 28.6933 179.867 30.0267 178.08 30.96C176.32 31.8933 174.347 32.36 172.16 32.36ZM172.16 26.44C173.467 26.44 174.574 25.96 175.48 25C176.414 24.04 176.88 22.6667 176.88 20.88C176.88 19.0933 176.427 17.72 175.52 16.76C174.64 15.8 173.547 15.32 172.24 15.32C170.907 15.32 169.8 15.8 168.92 16.76C168.04 17.6933 167.6 19.0667 167.6 20.88C167.6 22.6667 168.027 24.04 168.88 25C169.76 25.96 170.854 26.44 172.16 26.44Z" fill="#313131"/>
<path d="M196.309 12.88C196.976 11.84 197.896 11 199.069 10.36C200.243 9.72 201.616 9.4 203.189 9.4C205.029 9.4 206.696 9.86667 208.189 10.8C209.682 11.7333 210.856 13.0667 211.709 14.8C212.589 16.5333 213.029 18.5467 213.029 20.84C213.029 23.1333 212.589 25.16 211.709 26.92C210.856 28.6533 209.682 30 208.189 30.96C206.696 31.8933 205.029 32.36 203.189 32.36C201.642 32.36 200.269 32.04 199.069 31.4C197.896 30.76 196.976 29.9333 196.309 28.92V42.68H189.469V9.72H196.309V12.88ZM206.069 20.84C206.069 19.1333 205.589 17.8 204.629 16.84C203.696 15.8533 202.536 15.36 201.149 15.36C199.789 15.36 198.629 15.8533 197.669 16.84C196.736 17.8267 196.269 19.1733 196.269 20.88C196.269 22.5867 196.736 23.9333 197.669 24.92C198.629 25.9067 199.789 26.4 201.149 26.4C202.509 26.4 203.669 25.9067 204.629 24.92C205.589 23.9067 206.069 22.5467 206.069 20.84Z" fill="#313131"/>
<path d="M225.458 12.88C226.124 11.84 227.044 11 228.218 10.36C229.391 9.72 230.764 9.4 232.338 9.4C234.178 9.4 235.844 9.86667 237.338 10.8C238.831 11.7333 240.004 13.0667 240.858 14.8C241.738 16.5333 242.178 18.5467 242.178 20.84C242.178 23.1333 241.738 25.16 240.858 26.92C240.004 28.6533 238.831 30 237.338 30.96C235.844 31.8933 234.178 32.36 232.338 32.36C230.791 32.36 229.418 32.04 228.218 31.4C227.044 30.76 226.124 29.9333 225.458 28.92V42.68H218.618V9.72H225.458V12.88ZM235.218 20.84C235.218 19.1333 234.738 17.8 233.778 16.84C232.844 15.8533 231.684 15.36 230.298 15.36C228.938 15.36 227.778 15.8533 226.818 16.84C225.884 17.8267 225.418 19.1733 225.418 20.88C225.418 22.5867 225.884 23.9333 226.818 24.92C227.778 25.9067 228.938 26.4 230.298 26.4C231.658 26.4 232.818 25.9067 233.778 24.92C234.738 23.9067 235.218 22.5467 235.218 20.84Z" fill="#313131"/>
<path d="M251.206 7.4C250.006 7.4 249.019 7.05333 248.246 6.36C247.499 5.64 247.126 4.76 247.126 3.72C247.126 2.65333 247.499 1.77333 248.246 1.08C249.019 0.36 250.006 0 251.206 0C252.379 0 253.339 0.36 254.086 1.08C254.859 1.77333 255.246 2.65333 255.246 3.72C255.246 4.76 254.859 5.64 254.086 6.36C253.339 7.05333 252.379 7.4 251.206 7.4ZM254.606 9.72V32.04H247.766V9.72H254.606Z" fill="#313131"/>
<path d="M275.163 9.48C277.776 9.48 279.856 10.3333 281.403 12.04C282.976 13.72 283.763 16.04 283.763 19V32.04H276.963V19.92C276.963 18.4267 276.576 17.2667 275.803 16.44C275.03 15.6133 273.99 15.2 272.683 15.2C271.376 15.2 270.336 15.6133 269.563 16.44C268.79 17.2667 268.403 18.4267 268.403 19.92V32.04H261.563V9.72H268.403V12.68C269.096 11.6933 270.03 10.92 271.203 10.36C272.376 9.77334 273.696 9.48 275.163 9.48Z" fill="#313131"/>
<path d="M299.596 32.36C297.649 32.36 295.916 32.0267 294.396 31.36C292.876 30.6933 291.676 29.7867 290.796 28.64C289.916 27.4667 289.423 26.16 289.316 24.72H296.076C296.156 25.4933 296.516 26.12 297.156 26.6C297.796 27.08 298.583 27.32 299.516 27.32C300.369 27.32 301.023 27.16 301.476 26.84C301.956 26.4933 302.196 26.0533 302.196 25.52C302.196 24.88 301.863 24.4133 301.196 24.12C300.529 23.8 299.449 23.4533 297.956 23.08C296.356 22.7067 295.023 22.32 293.956 21.92C292.889 21.4933 291.969 20.84 291.196 19.96C290.423 19.0533 290.036 17.84 290.036 16.32C290.036 15.04 290.383 13.88 291.076 12.84C291.796 11.7733 292.836 10.9333 294.196 10.32C295.583 9.70667 297.223 9.4 299.116 9.4C301.916 9.4 304.116 10.0933 305.716 11.48C307.343 12.8667 308.276 14.7067 308.516 17H302.196C302.089 16.2267 301.743 15.6133 301.156 15.16C300.596 14.7067 299.849 14.48 298.916 14.48C298.116 14.48 297.503 14.64 297.076 14.96C296.649 15.2533 296.436 15.6667 296.436 16.2C296.436 16.84 296.769 17.32 297.436 17.64C298.129 17.96 299.196 18.28 300.636 18.6C302.289 19.0267 303.636 19.4533 304.676 19.88C305.716 20.28 306.623 20.9467 307.396 21.88C308.196 22.7867 308.609 24.0133 308.636 25.56C308.636 26.8667 308.263 28.04 307.516 29.08C306.796 30.0933 305.743 30.8933 304.356 31.48C302.996 32.0667 301.409 32.36 299.596 32.36Z" fill="#313131"/>
<path d="M28.2419 102.04C28.2419 100.607 28.5086 99.3483 29.0419 98.265C29.5919 97.1817 30.3336 96.3483 31.2669 95.765C32.2002 95.1817 33.2419 94.89 34.3919 94.89C35.3752 94.89 36.2336 95.09 36.9669 95.49C37.7169 95.89 38.2919 96.415 38.6919 97.065V95.09H42.9669V109.04H38.6919V107.065C38.2752 107.715 37.6919 108.24 36.9419 108.64C36.2086 109.04 35.3502 109.24 34.3669 109.24C33.2336 109.24 32.2002 108.948 31.2669 108.365C30.3336 107.765 29.5919 106.923 29.0419 105.84C28.5086 104.74 28.2419 103.473 28.2419 102.04ZM38.6919 102.065C38.6919 100.998 38.3919 100.157 37.7919 99.54C37.2086 98.9233 36.4919 98.615 35.6419 98.615C34.7919 98.615 34.0669 98.9233 33.4669 99.54C32.8836 100.14 32.5919 100.973 32.5919 102.04C32.5919 103.107 32.8836 103.957 33.4669 104.59C34.0669 105.207 34.7919 105.515 35.6419 105.515C36.4919 105.515 37.2086 105.207 37.7919 104.59C38.3919 103.973 38.6919 103.132 38.6919 102.065Z" fill="#313131"/>
<path d="M50.3347 97.065C50.7347 96.415 51.3097 95.89 52.0597 95.49C52.8097 95.09 53.668 94.89 54.6347 94.89C55.7847 94.89 56.8263 95.1817 57.7597 95.765C58.693 96.3483 59.4263 97.1817 59.9597 98.265C60.5097 99.3483 60.7847 100.607 60.7847 102.04C60.7847 103.473 60.5097 104.74 59.9597 105.84C59.4263 106.923 58.693 107.765 57.7597 108.365C56.8263 108.948 55.7847 109.24 54.6347 109.24C53.6513 109.24 52.793 109.048 52.0597 108.665C51.3263 108.265 50.7513 107.74 50.3347 107.09V109.04H46.0597V90.54H50.3347V97.065ZM56.4347 102.04C56.4347 100.973 56.1347 100.14 55.5347 99.54C54.9513 98.9233 54.2263 98.615 53.3597 98.615C52.5097 98.615 51.7847 98.9233 51.1847 99.54C50.6013 100.157 50.3097 100.998 50.3097 102.065C50.3097 103.132 50.6013 103.973 51.1847 104.59C51.7847 105.207 52.5097 105.515 53.3597 105.515C54.2097 105.515 54.9347 105.207 55.5347 104.59C56.1347 103.957 56.4347 103.107 56.4347 102.04Z" fill="#313131"/>
<path d="M62.1774 102.065C62.1774 100.615 62.4691 99.3483 63.0524 98.265C63.6524 97.1817 64.4774 96.3483 65.5274 95.765C66.5941 95.1817 67.8108 94.89 69.1774 94.89C70.9274 94.89 72.3858 95.3483 73.5524 96.265C74.7358 97.1817 75.5108 98.4733 75.8774 100.14H71.3274C70.9441 99.0733 70.2024 98.54 69.1024 98.54C68.3191 98.54 67.6941 98.8483 67.2274 99.465C66.7608 100.065 66.5274 100.932 66.5274 102.065C66.5274 103.198 66.7608 104.073 67.2274 104.69C67.6941 105.29 68.3191 105.59 69.1024 105.59C70.2024 105.59 70.9441 105.057 71.3274 103.99H75.8774C75.5108 105.623 74.7358 106.907 73.5524 107.84C72.3691 108.773 70.9108 109.24 69.1774 109.24C67.8108 109.24 66.5941 108.948 65.5274 108.365C64.4774 107.782 63.6524 106.948 63.0524 105.865C62.4691 104.782 62.1774 103.515 62.1774 102.065Z" fill="#313131"/>
<path d="M77.3142 102.04C77.3142 100.607 77.5808 99.3483 78.1142 98.265C78.6642 97.1817 79.4058 96.3483 80.3392 95.765C81.2725 95.1817 82.3142 94.89 83.4642 94.89C84.3808 94.89 85.2142 95.0817 85.9642 95.465C86.7308 95.8483 87.3308 96.365 87.7642 97.015V90.54H92.0392V109.04H87.7642V107.04C87.3642 107.707 86.7892 108.24 86.0392 108.64C85.3058 109.04 84.4475 109.24 83.4642 109.24C82.3142 109.24 81.2725 108.948 80.3392 108.365C79.4058 107.765 78.6642 106.923 78.1142 105.84C77.5808 104.74 77.3142 103.473 77.3142 102.04ZM87.7642 102.065C87.7642 100.998 87.4642 100.157 86.8642 99.54C86.2808 98.9233 85.5642 98.615 84.7142 98.615C83.8642 98.615 83.1392 98.9233 82.5392 99.54C81.9558 100.14 81.6642 100.973 81.6642 102.04C81.6642 103.107 81.9558 103.957 82.5392 104.59C83.1392 105.207 83.8642 105.515 84.7142 105.515C85.5642 105.515 86.2808 105.207 86.8642 104.59C87.4642 103.973 87.7642 103.132 87.7642 102.065Z" fill="#313131"/>
<path d="M108.282 101.84C108.282 102.24 108.257 102.657 108.207 103.09H98.5319C98.5986 103.957 98.8736 104.623 99.3569 105.09C99.8569 105.54 100.465 105.765 101.182 105.765C102.249 105.765 102.99 105.315 103.407 104.415H107.957C107.724 105.332 107.299 106.157 106.682 106.89C106.082 107.623 105.324 108.198 104.407 108.615C103.49 109.032 102.465 109.24 101.332 109.24C99.9653 109.24 98.7486 108.948 97.6819 108.365C96.6153 107.782 95.7819 106.948 95.1819 105.865C94.5819 104.782 94.2819 103.515 94.2819 102.065C94.2819 100.615 94.5736 99.3483 95.1569 98.265C95.7569 97.1817 96.5903 96.3483 97.6569 95.765C98.7236 95.1817 99.9486 94.89 101.332 94.89C102.682 94.89 103.882 95.1733 104.932 95.74C105.982 96.3067 106.799 97.115 107.382 98.165C107.982 99.215 108.282 100.44 108.282 101.84ZM103.907 100.715C103.907 99.9817 103.657 99.3983 103.157 98.965C102.657 98.5317 102.032 98.315 101.282 98.315C100.565 98.315 99.9569 98.5233 99.4569 98.94C98.9736 99.3567 98.6736 99.9483 98.5569 100.715H103.907Z" fill="#313131"/>
<path d="M117.537 98.64H115.237V109.04H110.962V98.64H109.412V95.09H110.962V94.69C110.962 92.9733 111.454 91.6733 112.437 90.79C113.421 89.89 114.862 89.44 116.762 89.44C117.079 89.44 117.312 89.4483 117.462 89.465V93.09C116.646 93.04 116.071 93.1567 115.737 93.44C115.404 93.7233 115.237 94.2317 115.237 94.965V95.09H117.537V98.64Z" fill="#313131"/>
<path d="M124.846 94.89C125.829 94.89 126.688 95.09 127.421 95.49C128.171 95.89 128.746 96.415 129.146 97.065V95.09H133.421V109.015C133.421 110.298 133.163 111.457 132.646 112.49C132.146 113.54 131.371 114.373 130.321 114.99C129.288 115.607 127.996 115.915 126.446 115.915C124.379 115.915 122.704 115.423 121.421 114.44C120.138 113.473 119.404 112.157 119.221 110.49H123.446C123.579 111.023 123.896 111.44 124.396 111.74C124.896 112.057 125.513 112.215 126.246 112.215C127.129 112.215 127.829 111.957 128.346 111.44C128.879 110.94 129.146 110.132 129.146 109.015V107.04C128.729 107.69 128.154 108.223 127.421 108.64C126.688 109.04 125.829 109.24 124.846 109.24C123.696 109.24 122.654 108.948 121.721 108.365C120.788 107.765 120.046 106.923 119.496 105.84C118.963 104.74 118.696 103.473 118.696 102.04C118.696 100.607 118.963 99.3483 119.496 98.265C120.046 97.1817 120.788 96.3483 121.721 95.765C122.654 95.1817 123.696 94.89 124.846 94.89ZM129.146 102.065C129.146 100.998 128.846 100.157 128.246 99.54C127.663 98.9233 126.946 98.615 126.096 98.615C125.246 98.615 124.521 98.9233 123.921 99.54C123.338 100.14 123.046 100.973 123.046 102.04C123.046 103.107 123.338 103.957 123.921 104.59C124.521 105.207 125.246 105.515 126.096 105.515C126.946 105.515 127.663 105.207 128.246 104.59C128.846 103.973 129.146 103.132 129.146 102.065Z" fill="#313131"/>
<path d="M145.089 94.94C146.689 94.94 147.972 95.4733 148.939 96.54C149.905 97.59 150.389 99.04 150.389 100.89V109.04H146.139V101.465C146.139 100.532 145.897 99.8067 145.414 99.29C144.93 98.7733 144.28 98.515 143.464 98.515C142.647 98.515 141.997 98.7733 141.514 99.29C141.03 99.8067 140.789 100.532 140.789 101.465V109.04H136.514V90.54H140.789V96.965C141.222 96.3483 141.814 95.8567 142.564 95.49C143.314 95.1233 144.155 94.94 145.089 94.94Z" fill="#313131"/>
<path d="M155.509 93.64C154.759 93.64 154.143 93.4233 153.659 92.99C153.193 92.54 152.959 91.99 152.959 91.34C152.959 90.6733 153.193 90.1233 153.659 89.69C154.143 89.24 154.759 89.015 155.509 89.015C156.243 89.015 156.843 89.24 157.309 89.69C157.793 90.1233 158.034 90.6733 158.034 91.34C158.034 91.99 157.793 92.54 157.309 92.99C156.843 93.4233 156.243 93.64 155.509 93.64ZM157.634 95.09V109.04H153.359V95.09H157.634Z" fill="#313131"/>
<path d="M162.858 93.64C162.108 93.64 161.491 93.4233 161.008 92.99C160.541 92.54 160.308 91.99 160.308 91.34C160.308 90.6733 160.541 90.1233 161.008 89.69C161.491 89.24 162.108 89.015 162.858 89.015C163.591 89.015 164.191 89.24 164.658 89.69C165.141 90.1233 165.383 90.6733 165.383 91.34C165.383 91.99 165.141 92.54 164.658 92.99C164.191 93.4233 163.591 93.64 162.858 93.64ZM165.008 110.84C165.008 112.557 164.574 113.79 163.708 114.54C162.841 115.307 161.633 115.69 160.083 115.69H158.408V112.065H159.433C159.899 112.065 160.233 111.973 160.433 111.79C160.633 111.607 160.733 111.307 160.733 110.89V95.09H165.008V110.84Z" fill="#313131"/>
<path d="M176.606 109.04L172.356 103.19V109.04H168.081V90.54H172.356V100.765L176.581 95.09H181.856L176.056 102.09L181.906 109.04H176.606Z" fill="#313131"/>
<path d="M187.81 90.54V109.04H183.535V90.54H187.81Z" fill="#313131"/>
<path d="M208.708 94.94C210.442 94.94 211.817 95.465 212.833 96.515C213.867 97.565 214.383 99.0233 214.383 100.89V109.04H210.133V101.465C210.133 100.565 209.892 99.8733 209.408 99.39C208.942 98.89 208.292 98.64 207.458 98.64C206.625 98.64 205.967 98.89 205.483 99.39C205.017 99.8733 204.783 100.565 204.783 101.465V109.04H200.533V101.465C200.533 100.565 200.292 99.8733 199.808 99.39C199.342 98.89 198.692 98.64 197.858 98.64C197.025 98.64 196.367 98.89 195.883 99.39C195.417 99.8733 195.183 100.565 195.183 101.465V109.04H190.908V95.09H195.183V96.84C195.617 96.2567 196.183 95.7983 196.883 95.465C197.583 95.115 198.375 94.94 199.258 94.94C200.308 94.94 201.242 95.165 202.058 95.615C202.892 96.065 203.542 96.7067 204.008 97.54C204.492 96.7733 205.15 96.1483 205.983 95.665C206.817 95.1817 207.725 94.94 208.708 94.94Z" fill="#313131"/>
<path d="M225.873 94.94C227.506 94.94 228.806 95.4733 229.773 96.54C230.756 97.59 231.248 99.04 231.248 100.89V109.04H226.998V101.465C226.998 100.532 226.756 99.8067 226.273 99.29C225.79 98.7733 225.14 98.515 224.323 98.515C223.506 98.515 222.856 98.7733 222.373 99.29C221.89 99.8067 221.648 100.532 221.648 101.465V109.04H217.373V95.09H221.648V96.94C222.081 96.3233 222.665 95.84 223.398 95.49C224.131 95.1233 224.956 94.94 225.873 94.94Z" fill="#313131"/>
<path d="M240.569 109.24C239.202 109.24 237.969 108.948 236.869 108.365C235.786 107.782 234.927 106.948 234.294 105.865C233.677 104.782 233.369 103.515 233.369 102.065C233.369 100.632 233.686 99.3733 234.319 98.29C234.952 97.19 235.819 96.3483 236.919 95.765C238.019 95.1817 239.252 94.89 240.619 94.89C241.986 94.89 243.219 95.1817 244.319 95.765C245.419 96.3483 246.286 97.19 246.919 98.29C247.552 99.3733 247.869 100.632 247.869 102.065C247.869 103.498 247.544 104.765 246.894 105.865C246.261 106.948 245.386 107.782 244.269 108.365C243.169 108.948 241.936 109.24 240.569 109.24ZM240.569 105.54C241.386 105.54 242.077 105.24 242.644 104.64C243.227 104.04 243.519 103.182 243.519 102.065C243.519 100.948 243.236 100.09 242.669 99.49C242.119 98.89 241.436 98.59 240.619 98.59C239.786 98.59 239.094 98.89 238.544 99.49C237.994 100.073 237.719 100.932 237.719 102.065C237.719 103.182 237.986 104.04 238.519 104.64C239.069 105.24 239.752 105.54 240.569 105.54Z" fill="#313131"/>
<path d="M254.412 97.065C254.828 96.415 255.403 95.89 256.137 95.49C256.87 95.09 257.728 94.89 258.712 94.89C259.862 94.89 260.903 95.1817 261.837 95.765C262.77 96.3483 263.503 97.1817 264.037 98.265C264.587 99.3483 264.862 100.607 264.862 102.04C264.862 103.473 264.587 104.74 264.037 105.84C263.503 106.923 262.77 107.765 261.837 108.365C260.903 108.948 259.862 109.24 258.712 109.24C257.745 109.24 256.887 109.04 256.137 108.64C255.403 108.24 254.828 107.723 254.412 107.09V115.69H250.137V95.09H254.412V97.065ZM260.512 102.04C260.512 100.973 260.212 100.14 259.612 99.54C259.028 98.9233 258.303 98.615 257.437 98.615C256.587 98.615 255.862 98.9233 255.262 99.54C254.678 100.157 254.387 100.998 254.387 102.065C254.387 103.132 254.678 103.973 255.262 104.59C255.862 105.207 256.587 105.515 257.437 105.515C258.287 105.515 259.012 105.207 259.612 104.59C260.212 103.957 260.512 103.107 260.512 102.04Z" fill="#313131"/>
<path d="M266.255 102.09C266.255 100.707 266.538 99.4733 267.105 98.39C267.688 97.3067 268.463 96.465 269.43 95.865C270.413 95.2483 271.48 94.94 272.63 94.94C273.513 94.94 274.305 95.0983 275.005 95.415C275.705 95.715 276.271 96.14 276.705 96.69V95.09H280.98V115.69H276.705V107.29C276.221 107.873 275.63 108.34 274.93 108.69C274.246 109.04 273.463 109.215 272.58 109.215C271.446 109.215 270.396 108.915 269.43 108.315C268.463 107.715 267.688 106.873 267.105 105.79C266.538 104.707 266.255 103.473 266.255 102.09ZM276.705 102.065C276.705 101.315 276.555 100.69 276.255 100.19C275.971 99.6733 275.596 99.29 275.13 99.04C274.663 98.7733 274.171 98.64 273.655 98.64C273.155 98.64 272.671 98.7733 272.205 99.04C271.738 99.29 271.355 99.6733 271.055 100.19C270.755 100.707 270.605 101.34 270.605 102.09C270.605 102.84 270.755 103.473 271.055 103.99C271.355 104.49 271.738 104.873 272.205 105.14C272.671 105.39 273.155 105.515 273.655 105.515C274.155 105.515 274.638 105.39 275.105 105.14C275.588 104.873 275.971 104.482 276.255 103.965C276.555 103.448 276.705 102.815 276.705 102.065Z" fill="#313131"/>
<path d="M288.347 97.415C288.847 96.6483 289.472 96.0483 290.222 95.615C290.972 95.165 291.806 94.94 292.722 94.94V99.465H291.547C290.481 99.465 289.681 99.6983 289.147 100.165C288.614 100.615 288.347 101.415 288.347 102.565V109.04H284.072V95.09H288.347V97.415Z" fill="#313131"/>
<path d="M300.441 109.24C299.224 109.24 298.141 109.032 297.191 108.615C296.241 108.198 295.491 107.632 294.941 106.915C294.391 106.182 294.082 105.365 294.016 104.465H298.241C298.291 104.948 298.516 105.34 298.916 105.64C299.316 105.94 299.807 106.09 300.391 106.09C300.924 106.09 301.332 105.99 301.616 105.79C301.916 105.573 302.066 105.298 302.066 104.965C302.066 104.565 301.857 104.273 301.441 104.09C301.024 103.89 300.349 103.673 299.416 103.44C298.416 103.207 297.582 102.965 296.916 102.715C296.249 102.448 295.674 102.04 295.191 101.49C294.707 100.923 294.466 100.165 294.466 99.215C294.466 98.415 294.682 97.69 295.116 97.04C295.566 96.3733 296.216 95.8483 297.066 95.465C297.932 95.0817 298.957 94.89 300.141 94.89C301.891 94.89 303.266 95.3233 304.266 96.19C305.282 97.0567 305.866 98.2067 306.016 99.64H302.066C301.999 99.1567 301.782 98.7733 301.416 98.49C301.066 98.2067 300.599 98.065 300.016 98.065C299.516 98.065 299.132 98.165 298.866 98.365C298.599 98.5483 298.466 98.8067 298.466 99.14C298.466 99.54 298.674 99.84 299.091 100.04C299.524 100.24 300.191 100.44 301.091 100.64C302.124 100.907 302.966 101.173 303.616 101.44C304.266 101.69 304.832 102.107 305.316 102.69C305.816 103.257 306.074 104.023 306.091 104.99C306.091 105.807 305.857 106.54 305.391 107.19C304.941 107.823 304.282 108.323 303.416 108.69C302.566 109.057 301.574 109.24 300.441 109.24Z" fill="#313131"/>
<path d="M316.481 105.415V109.04H314.306C312.756 109.04 311.548 108.665 310.681 107.915C309.814 107.148 309.381 105.907 309.381 104.19V98.64H307.681V95.09H309.381V91.69H313.656V95.09H316.456V98.64H313.656V104.24C313.656 104.657 313.756 104.957 313.956 105.14C314.156 105.323 314.489 105.415 314.956 105.415H316.481Z" fill="#313131"/>
<path d="M332.637 95.09V109.04H328.362V107.14C327.929 107.757 327.337 108.257 326.587 108.64C325.854 109.007 325.037 109.19 324.137 109.19C323.071 109.19 322.129 108.957 321.312 108.49C320.496 108.007 319.862 107.315 319.412 106.415C318.962 105.515 318.737 104.457 318.737 103.24V95.09H322.987V102.665C322.987 103.598 323.229 104.323 323.712 104.84C324.196 105.357 324.846 105.615 325.662 105.615C326.496 105.615 327.154 105.357 327.637 104.84C328.121 104.323 328.362 103.598 328.362 102.665V95.09H332.637Z" fill="#313131"/>
<path d="M341.983 105.04L345.008 95.09H349.558L344.608 109.04H339.333L334.383 95.09H338.958L341.983 105.04Z" fill="#313131"/>
<path d="M371.383 95.09L367.608 109.04H362.883L360.683 99.99L358.408 109.04H353.708L349.908 95.09H354.183L356.158 105.065L358.508 95.09H363.033L365.408 105.015L367.358 95.09H371.383Z" fill="#313131"/>
<path d="M381.263 109.04L378.588 105.165L376.338 109.04H371.713L376.313 101.915L371.588 95.09H376.388L379.063 98.94L381.313 95.09H385.938L381.263 102.115L386.063 109.04H381.263Z" fill="#313131"/>
<path d="M401.96 95.09L393.21 115.665H388.61L391.81 108.565L386.135 95.09H390.91L394.135 103.815L397.335 95.09H401.96Z" fill="#313131"/>
<path d="M407.506 105.515H413.556V109.04H402.731V105.64L408.531 98.615H402.781V95.09H413.431V98.49L407.506 105.515Z" fill="#313131"/>
<path d="M12.075 143.94H5.525L4.475 147.04H0L6.35 129.49H11.3L17.65 147.04H13.125L12.075 143.94ZM10.975 140.64L8.8 134.215L6.65 140.64H10.975Z" fill="#313131"/>
<path d="M30.2076 138.04C31.2243 138.257 32.041 138.765 32.6576 139.565C33.2743 140.348 33.5826 141.248 33.5826 142.265C33.5826 143.732 33.0659 144.898 32.0326 145.765C31.0159 146.615 29.591 147.04 27.7576 147.04H19.5826V129.49H27.4826C29.266 129.49 30.6576 129.898 31.6576 130.715C32.6743 131.532 33.1826 132.64 33.1826 134.04C33.1826 135.073 32.9076 135.932 32.3576 136.615C31.8243 137.298 31.1076 137.773 30.2076 138.04ZM23.8576 136.59H26.6576C27.3576 136.59 27.891 136.44 28.2576 136.14C28.641 135.823 28.8326 135.365 28.8326 134.765C28.8326 134.165 28.641 133.707 28.2576 133.39C27.891 133.073 27.3576 132.915 26.6576 132.915H23.8576V136.59ZM27.0076 143.59C27.7243 143.59 28.2743 143.432 28.6576 143.115C29.0576 142.782 29.2576 142.307 29.2576 141.69C29.2576 141.073 29.0493 140.59 28.6326 140.24C28.2326 139.89 27.6743 139.715 26.9576 139.715H23.8576V143.59H27.0076Z" fill="#313131"/>
<path d="M35.3371 138.24C35.3371 136.507 35.7121 134.965 36.4621 133.615C37.2121 132.248 38.2538 131.19 39.5871 130.44C40.9371 129.673 42.4621 129.29 44.1621 129.29C46.2454 129.29 48.0288 129.84 49.5121 130.94C50.9954 132.04 51.9871 133.54 52.4871 135.44H47.7871C47.4371 134.707 46.9371 134.148 46.2871 133.765C45.6538 133.382 44.9288 133.19 44.1121 133.19C42.7954 133.19 41.7288 133.648 40.9121 134.565C40.0954 135.482 39.6871 136.707 39.6871 138.24C39.6871 139.773 40.0954 140.998 40.9121 141.915C41.7288 142.832 42.7954 143.29 44.1121 143.29C44.9288 143.29 45.6538 143.098 46.2871 142.715C46.9371 142.332 47.4371 141.773 47.7871 141.04H52.4871C51.9871 142.94 50.9954 144.44 49.5121 145.54C48.0288 146.623 46.2454 147.165 44.1621 147.165C42.4621 147.165 40.9371 146.79 39.5871 146.04C38.2538 145.273 37.2121 144.215 36.4621 142.865C35.7121 141.515 35.3371 139.973 35.3371 138.24Z" fill="#313131"/>
<path d="M61.6801 129.49C63.5301 129.49 65.1467 129.857 66.5301 130.59C67.9134 131.323 68.9801 132.357 69.7301 133.69C70.4967 135.007 70.8801 136.532 70.8801 138.265C70.8801 139.982 70.4967 141.507 69.7301 142.84C68.9801 144.173 67.9051 145.207 66.5051 145.94C65.1217 146.673 63.5134 147.04 61.6801 147.04H55.1051V129.49H61.6801ZM61.4051 143.34C63.0217 143.34 64.2801 142.898 65.1801 142.015C66.0801 141.132 66.5301 139.882 66.5301 138.265C66.5301 136.648 66.0801 135.39 65.1801 134.49C64.2801 133.59 63.0217 133.14 61.4051 133.14H59.3801V143.34H61.4051Z" fill="#313131"/>
<path d="M77.5441 132.915V136.465H83.2691V139.765H77.5441V143.615H84.0191V147.04H73.2691V129.49H84.0191V132.915H77.5441Z" fill="#313131"/>
<path d="M98.2195 129.49V132.915H91.0695V136.615H96.4195V139.94H91.0695V147.04H86.7945V129.49H98.2195Z" fill="#313131"/>
<path d="M112.116 135.04C111.8 134.457 111.341 134.015 110.741 133.715C110.158 133.398 109.466 133.24 108.666 133.24C107.283 133.24 106.175 133.698 105.341 134.615C104.508 135.515 104.091 136.723 104.091 138.24C104.091 139.857 104.525 141.123 105.391 142.04C106.275 142.94 107.483 143.39 109.016 143.39C110.066 143.39 110.95 143.123 111.666 142.59C112.4 142.057 112.933 141.29 113.266 140.29H107.841V137.14H117.141V141.115C116.825 142.182 116.283 143.173 115.516 144.09C114.766 145.007 113.808 145.748 112.641 146.315C111.475 146.882 110.158 147.165 108.691 147.165C106.958 147.165 105.408 146.79 104.041 146.04C102.691 145.273 101.633 144.215 100.866 142.865C100.116 141.515 99.7414 139.973 99.7414 138.24C99.7414 136.507 100.116 134.965 100.866 133.615C101.633 132.248 102.691 131.19 104.041 130.44C105.391 129.673 106.933 129.29 108.666 129.29C110.766 129.29 112.533 129.798 113.966 130.815C115.416 131.832 116.375 133.24 116.841 135.04H112.116Z" fill="#313131"/>
<path d="M134.709 129.49V147.04H130.434V139.815H123.784V147.04H119.509V129.49H123.784V136.365H130.434V129.49H134.709Z" fill="#313131"/>
<path d="M142.071 129.49V147.04H137.796V129.49H142.071Z" fill="#313131"/>
<path d="M156.169 129.49V141.44C156.169 143.29 155.644 144.715 154.594 145.715C153.56 146.715 152.16 147.215 150.394 147.215C148.544 147.215 147.06 146.69 145.944 145.64C144.827 144.59 144.269 143.098 144.269 141.165H148.519C148.519 141.898 148.669 142.457 148.969 142.84C149.269 143.207 149.702 143.39 150.269 143.39C150.785 143.39 151.185 143.223 151.469 142.89C151.752 142.557 151.894 142.073 151.894 141.44V129.49H156.169Z" fill="#313131"/>
<path d="M169.797 147.04L163.897 139.29V147.04H159.622V129.49H163.897V137.19L169.747 129.49H174.772L167.972 138.09L175.022 147.04H169.797Z" fill="#313131"/>
<path d="M181.328 143.74H186.928V147.04H177.053V129.49H181.328V143.74Z" fill="#313131"/>
<path d="M208.842 129.49V147.04H204.567V136.515L200.642 147.04H197.192L193.242 136.49V147.04H188.967V129.49H194.017L198.942 141.64L203.817 129.49H208.842Z" fill="#313131"/>
<path d="M227.617 147.04H223.342L216.192 136.215V147.04H211.917V129.49H216.192L223.342 140.365V129.49H227.617V147.04Z" fill="#313131"/>
<path d="M239.015 147.215C237.365 147.215 235.849 146.832 234.465 146.065C233.099 145.298 232.007 144.232 231.19 142.865C230.39 141.482 229.99 139.932 229.99 138.215C229.99 136.498 230.39 134.957 231.19 133.59C232.007 132.223 233.099 131.157 234.465 130.39C235.849 129.623 237.365 129.24 239.015 129.24C240.665 129.24 242.174 129.623 243.54 130.39C244.924 131.157 246.007 132.223 246.79 133.59C247.59 134.957 247.99 136.498 247.99 138.215C247.99 139.932 247.59 141.482 246.79 142.865C245.99 144.232 244.907 145.298 243.54 146.065C242.174 146.832 240.665 147.215 239.015 147.215ZM239.015 143.315C240.415 143.315 241.532 142.848 242.365 141.915C243.215 140.982 243.64 139.748 243.64 138.215C243.64 136.665 243.215 135.432 242.365 134.515C241.532 133.582 240.415 133.115 239.015 133.115C237.599 133.115 236.465 133.573 235.615 134.49C234.782 135.407 234.365 136.648 234.365 138.215C234.365 139.765 234.782 141.007 235.615 141.94C236.465 142.857 237.599 143.315 239.015 143.315Z" fill="#313131"/>
<path d="M263.744 135.14C263.744 136.157 263.51 137.09 263.044 137.94C262.577 138.773 261.86 139.448 260.894 139.965C259.927 140.482 258.727 140.74 257.294 140.74H254.644V147.04H250.369V129.49H257.294C258.694 129.49 259.877 129.732 260.844 130.215C261.81 130.698 262.535 131.365 263.019 132.215C263.502 133.065 263.744 134.04 263.744 135.14ZM256.969 137.34C257.785 137.34 258.394 137.148 258.794 136.765C259.194 136.382 259.394 135.84 259.394 135.14C259.394 134.44 259.194 133.898 258.794 133.515C258.394 133.132 257.785 132.94 256.969 132.94H254.644V137.34H256.969Z" fill="#313131"/>
<path d="M278.469 150.04L276.219 147.015C275.553 147.148 274.903 147.215 274.269 147.215C272.619 147.215 271.103 146.832 269.719 146.065C268.353 145.298 267.261 144.232 266.444 142.865C265.644 141.482 265.244 139.932 265.244 138.215C265.244 136.498 265.644 134.957 266.444 133.59C267.261 132.223 268.353 131.157 269.719 130.39C271.103 129.623 272.619 129.24 274.269 129.24C275.919 129.24 277.428 129.623 278.794 130.39C280.178 131.157 281.261 132.223 282.044 133.59C282.844 134.957 283.244 136.498 283.244 138.215C283.244 139.715 282.936 141.09 282.319 142.34C281.719 143.573 280.878 144.598 279.794 145.415L283.644 150.04H278.469ZM269.619 138.215C269.619 139.765 270.036 141.007 270.869 141.94C271.719 142.857 272.853 143.315 274.269 143.315C275.669 143.315 276.786 142.848 277.619 141.915C278.469 140.982 278.894 139.748 278.894 138.215C278.894 136.665 278.469 135.432 277.619 134.515C276.786 133.582 275.669 133.115 274.269 133.115C272.853 133.115 271.719 133.573 270.869 134.49C270.036 135.407 269.619 136.648 269.619 138.215Z" fill="#313131"/>
<path d="M294.621 147.04L290.971 140.415H289.946V147.04H285.671V129.49H292.846C294.23 129.49 295.405 129.732 296.371 130.215C297.355 130.698 298.088 131.365 298.571 132.215C299.055 133.048 299.296 133.982 299.296 135.015C299.296 136.182 298.963 137.223 298.296 138.14C297.646 139.057 296.68 139.707 295.396 140.09L299.446 147.04H294.621ZM289.946 137.39H292.596C293.38 137.39 293.963 137.198 294.346 136.815C294.746 136.432 294.946 135.89 294.946 135.19C294.946 134.523 294.746 133.998 294.346 133.615C293.963 133.232 293.38 133.04 292.596 133.04H289.946V137.39Z" fill="#313131"/>
<path d="M308.33 147.215C307.047 147.215 305.897 147.007 304.88 146.59C303.863 146.173 303.047 145.557 302.43 144.74C301.83 143.923 301.513 142.94 301.48 141.79H306.03C306.097 142.44 306.322 142.94 306.705 143.29C307.088 143.623 307.588 143.79 308.205 143.79C308.838 143.79 309.338 143.648 309.705 143.365C310.072 143.065 310.255 142.657 310.255 142.14C310.255 141.707 310.105 141.348 309.805 141.065C309.522 140.782 309.163 140.548 308.73 140.365C308.313 140.182 307.713 139.973 306.93 139.74C305.797 139.39 304.872 139.04 304.155 138.69C303.438 138.34 302.822 137.823 302.305 137.14C301.788 136.457 301.53 135.565 301.53 134.465C301.53 132.832 302.122 131.557 303.305 130.64C304.488 129.707 306.03 129.24 307.93 129.24C309.863 129.24 311.422 129.707 312.605 130.64C313.788 131.557 314.422 132.84 314.505 134.49H309.88C309.847 133.923 309.638 133.482 309.255 133.165C308.872 132.832 308.38 132.665 307.78 132.665C307.263 132.665 306.847 132.807 306.53 133.09C306.213 133.357 306.055 133.748 306.055 134.265C306.055 134.832 306.322 135.273 306.855 135.59C307.388 135.907 308.222 136.248 309.355 136.615C310.488 136.998 311.405 137.365 312.105 137.715C312.822 138.065 313.438 138.573 313.955 139.24C314.472 139.907 314.73 140.765 314.73 141.815C314.73 142.815 314.472 143.723 313.955 144.54C313.455 145.357 312.722 146.007 311.755 146.49C310.788 146.973 309.647 147.215 308.33 147.215Z" fill="#313131"/>
<path d="M329.986 129.49V132.915H325.336V147.04H321.061V132.915H316.411V129.49H329.986Z" fill="#313131"/>
<path d="M336.331 129.49V139.99C336.331 141.04 336.59 141.848 337.106 142.415C337.623 142.982 338.381 143.265 339.381 143.265C340.381 143.265 341.148 142.982 341.681 142.415C342.215 141.848 342.481 141.04 342.481 139.99V129.49H346.756V139.965C346.756 141.532 346.423 142.857 345.756 143.94C345.09 145.023 344.19 145.84 343.056 146.39C341.94 146.94 340.69 147.215 339.306 147.215C337.923 147.215 336.681 146.948 335.581 146.415C334.498 145.865 333.64 145.048 333.006 143.965C332.373 142.865 332.056 141.532 332.056 139.965V129.49H336.331Z" fill="#313131"/>
<path d="M366.233 129.49L360.008 147.04H354.658L348.433 129.49H352.983L357.333 142.74L361.708 129.49H366.233Z" fill="#313131"/>
<path d="M392.17 129.49L387.595 147.04H382.42L379.62 135.49L376.72 147.04H371.545L367.095 129.49H371.67L374.195 142.265L377.32 129.49H382.02L385.02 142.265L387.57 129.49H392.17Z" fill="#313131"/>
<path d="M405.064 147.04L401.489 141.665L398.339 147.04H393.489L399.114 138.115L393.364 129.49H398.339L401.864 134.79L404.964 129.49H409.814L404.239 138.34L410.039 147.04H405.064Z" fill="#313131"/>
<path d="M427.235 129.49L421.16 141.24V147.04H416.885V141.24L410.81 129.49H415.66L419.06 136.84L422.435 129.49H427.235Z" fill="#313131"/>
<path d="M433.508 143.54H441.058V147.04H428.658V143.79L436.158 132.99H428.658V129.49H441.058V132.74L433.508 143.54Z" fill="#313131"/>
<path d="M25.6767 61.665C25.6767 58.7983 26.2267 56.54 27.3267 54.89C28.4433 53.24 30.235 52.415 32.7017 52.415C35.1683 52.415 36.9517 53.24 38.0517 54.89C39.1683 56.54 39.7267 58.7983 39.7267 61.665C39.7267 64.565 39.1683 66.84 38.0517 68.49C36.9517 70.14 35.1683 70.965 32.7017 70.965C30.235 70.965 28.4433 70.14 27.3267 68.49C26.2267 66.84 25.6767 64.565 25.6767 61.665ZM35.5267 61.665C35.5267 59.9817 35.3433 58.69 34.9767 57.79C34.61 56.8733 33.8517 56.415 32.7017 56.415C31.5517 56.415 30.7933 56.8733 30.4267 57.79C30.06 58.69 29.8767 59.9817 29.8767 61.665C29.8767 62.7983 29.9433 63.74 30.0767 64.49C30.21 65.2233 30.4767 65.8233 30.8767 66.29C31.2933 66.74 31.9017 66.965 32.7017 66.965C33.5017 66.965 34.1017 66.74 34.5017 66.29C34.9183 65.8233 35.1933 65.2233 35.3267 64.49C35.46 63.74 35.5267 62.7983 35.5267 61.665Z" fill="#313131"/>
<path d="M41.5353 56.765V52.79H48.4603V71.04H44.0103V56.765H41.5353Z" fill="#313131"/>
<path d="M51.2347 67.615C51.8013 67.165 52.0597 66.9567 52.0097 66.99C53.643 65.64 54.9263 64.5317 55.8597 63.665C56.8097 62.7983 57.6097 61.89 58.2597 60.94C58.9097 59.99 59.2347 59.065 59.2347 58.165C59.2347 57.4817 59.0763 56.9483 58.7597 56.565C58.443 56.1817 57.968 55.99 57.3347 55.99C56.7013 55.99 56.2013 56.2317 55.8347 56.715C55.4847 57.1817 55.3097 57.8483 55.3097 58.715H51.1847C51.218 57.2983 51.518 56.115 52.0847 55.165C52.668 54.215 53.4263 53.515 54.3597 53.065C55.3097 52.615 56.3597 52.39 57.5097 52.39C59.493 52.39 60.9847 52.8983 61.9847 53.915C63.0013 54.9317 63.5097 56.2567 63.5097 57.89C63.5097 59.6733 62.9013 61.3317 61.6847 62.865C60.468 64.3817 58.918 65.865 57.0347 67.315H63.7847V70.79H51.2347V67.615Z" fill="#313131"/>
<path d="M65.8169 57.94C65.8836 56.1567 66.4669 54.7817 67.5669 53.815C68.6669 52.8483 70.1586 52.365 72.0419 52.365C73.2919 52.365 74.3586 52.5817 75.2419 53.015C76.1419 53.4483 76.8169 54.04 77.2669 54.79C77.7336 55.54 77.9669 56.3817 77.9669 57.315C77.9669 58.415 77.6919 59.315 77.1419 60.015C76.5919 60.6983 75.9502 61.165 75.2169 61.415V61.515C76.1669 61.8317 76.9169 62.3567 77.4669 63.09C78.0169 63.8233 78.2919 64.765 78.2919 65.915C78.2919 66.9483 78.0502 67.865 77.5669 68.665C77.1002 69.4483 76.4086 70.065 75.4919 70.515C74.5919 70.965 73.5169 71.19 72.2669 71.19C70.2669 71.19 68.6669 70.6983 67.4669 69.715C66.2836 68.7317 65.6586 67.2483 65.5919 65.265H69.7419C69.7586 65.9983 69.9669 66.5817 70.3669 67.015C70.7669 67.4317 71.3502 67.64 72.1169 67.64C72.7669 67.64 73.2669 67.4567 73.6169 67.09C73.9836 66.7067 74.1669 66.2067 74.1669 65.59C74.1669 64.79 73.9086 64.215 73.3919 63.865C72.8919 63.4983 72.0836 63.315 70.9669 63.315H70.1669V59.84H70.9669C71.8169 59.84 72.5002 59.6983 73.0169 59.415C73.5502 59.115 73.8169 58.59 73.8169 57.84C73.8169 57.24 73.6502 56.7733 73.3169 56.44C72.9836 56.1067 72.5252 55.94 71.9419 55.94C71.3086 55.94 70.8336 56.1317 70.5169 56.515C70.2169 56.8983 70.0419 57.3733 69.9919 57.94H65.8169Z" fill="#313131"/>
<path d="M80.9036 67.79V64.34L88.8036 53.04H93.5786V64.09H95.6286V67.79H93.5786V71.04H89.3036V67.79H80.9036ZM89.6036 57.74L85.4036 64.09H89.6036V57.74Z" fill="#313131"/>
<path d="M110.573 56.515H102.773V59.965C103.106 59.5983 103.573 59.2983 104.173 59.065C104.773 58.8317 105.423 58.715 106.123 58.715C107.373 58.715 108.406 58.9983 109.223 59.565C110.056 60.1317 110.664 60.865 111.048 61.765C111.431 62.665 111.623 63.64 111.623 64.69C111.623 66.64 111.073 68.19 109.973 69.34C108.873 70.4733 107.323 71.04 105.323 71.04C103.989 71.04 102.831 70.815 101.848 70.365C100.864 69.8983 100.106 69.2567 99.5726 68.44C99.0392 67.6233 98.7476 66.6817 98.6976 65.615H102.873C102.973 66.1317 103.214 66.565 103.598 66.915C103.981 67.2483 104.506 67.415 105.173 67.415C105.956 67.415 106.539 67.165 106.923 66.665C107.306 66.165 107.498 65.4983 107.498 64.665C107.498 63.8483 107.298 63.2233 106.898 62.79C106.498 62.3567 105.914 62.14 105.148 62.14C104.581 62.14 104.114 62.2817 103.748 62.565C103.381 62.8317 103.139 63.19 103.023 63.64H98.8976V52.765H110.573V56.515Z" fill="#313131"/>
<path d="M123.007 57.715C122.874 57.0983 122.641 56.64 122.307 56.34C121.974 56.0233 121.499 55.865 120.882 55.865C119.932 55.865 119.249 56.2817 118.832 57.115C118.416 57.9317 118.199 59.2317 118.182 61.015C118.549 60.4317 119.074 59.9733 119.757 59.64C120.457 59.3067 121.224 59.14 122.057 59.14C123.691 59.14 124.999 59.6567 125.982 60.69C126.982 61.7233 127.482 63.165 127.482 65.015C127.482 66.2317 127.232 67.2983 126.732 68.215C126.249 69.1317 125.532 69.8483 124.582 70.365C123.649 70.8817 122.541 71.14 121.257 71.14C118.691 71.14 116.907 70.34 115.907 68.74C114.907 67.1233 114.407 64.8067 114.407 61.79C114.407 58.6233 114.932 56.2733 115.982 54.74C117.049 53.19 118.749 52.415 121.082 52.415C122.332 52.415 123.382 52.665 124.232 53.165C125.099 53.6483 125.749 54.29 126.182 55.09C126.632 55.89 126.899 56.765 126.982 57.715H123.007ZM121.032 62.515C120.316 62.515 119.716 62.7317 119.232 63.165C118.766 63.5817 118.532 64.1817 118.532 64.965C118.532 65.765 118.749 66.39 119.182 66.84C119.632 67.29 120.266 67.515 121.082 67.515C121.816 67.515 122.391 67.2983 122.807 66.865C123.241 66.415 123.457 65.8067 123.457 65.04C123.457 64.2567 123.249 63.64 122.832 63.19C122.416 62.74 121.816 62.515 121.032 62.515Z" fill="#313131"/>
<path d="M141.55 55.99L135.275 71.04H130.9L137.25 56.465H129.475V52.815H141.55V55.99Z" fill="#313131"/>
<path d="M146.279 61.24C144.713 60.4067 143.929 59.0983 143.929 57.315C143.929 56.415 144.163 55.5983 144.629 54.865C145.096 54.115 145.804 53.5233 146.754 53.09C147.704 52.64 148.871 52.415 150.254 52.415C151.638 52.415 152.796 52.64 153.729 53.09C154.679 53.5233 155.388 54.115 155.854 54.865C156.321 55.5983 156.554 56.415 156.554 57.315C156.554 58.215 156.338 58.9983 155.904 59.665C155.488 60.3317 154.921 60.8567 154.204 61.24C155.104 61.6733 155.796 62.2733 156.279 63.04C156.763 63.79 157.004 64.6733 157.004 65.69C157.004 66.8733 156.704 67.8983 156.104 68.765C155.504 69.615 154.688 70.265 153.654 70.715C152.638 71.165 151.504 71.39 150.254 71.39C149.004 71.39 147.863 71.165 146.829 70.715C145.813 70.265 145.004 69.615 144.404 68.765C143.804 67.8983 143.504 66.8733 143.504 65.69C143.504 64.6567 143.746 63.765 144.229 63.015C144.713 62.2483 145.396 61.6567 146.279 61.24ZM152.404 57.965C152.404 57.2817 152.204 56.7567 151.804 56.39C151.421 56.0067 150.904 55.815 150.254 55.815C149.604 55.815 149.079 56.0067 148.679 56.39C148.296 56.7733 148.104 57.3067 148.104 57.99C148.104 58.64 148.304 59.1567 148.704 59.54C149.104 59.9067 149.621 60.09 150.254 60.09C150.888 60.09 151.404 59.8983 151.804 59.515C152.204 59.1317 152.404 58.615 152.404 57.965ZM150.254 63.09C149.471 63.09 148.838 63.3067 148.354 63.74C147.871 64.1567 147.629 64.74 147.629 65.49C147.629 66.19 147.863 66.765 148.329 67.215C148.813 67.665 149.454 67.89 150.254 67.89C151.054 67.89 151.679 67.665 152.129 67.215C152.596 66.765 152.829 66.19 152.829 65.49C152.829 64.7567 152.588 64.1733 152.104 63.74C151.638 63.3067 151.021 63.09 150.254 63.09Z" fill="#313131"/>
<path d="M164.09 65.69C164.34 67.0067 165.107 67.665 166.39 67.665C167.273 67.665 167.898 67.2733 168.265 66.49C168.632 65.7067 168.815 64.4317 168.815 62.665C168.448 63.1817 167.948 63.5817 167.315 63.865C166.682 64.1483 165.973 64.29 165.19 64.29C164.123 64.29 163.173 64.0733 162.34 63.64C161.507 63.19 160.848 62.5317 160.365 61.665C159.898 60.7817 159.665 59.715 159.665 58.465C159.665 57.2317 159.915 56.1567 160.415 55.24C160.932 54.3233 161.657 53.615 162.59 53.115C163.54 52.615 164.657 52.365 165.94 52.365C168.407 52.365 170.132 53.1317 171.115 54.665C172.098 56.1983 172.59 58.4567 172.59 61.44C172.59 63.6067 172.39 65.3983 171.99 66.815C171.607 68.215 170.948 69.2817 170.015 70.015C169.098 70.7483 167.84 71.115 166.24 71.115C164.973 71.115 163.89 70.865 162.99 70.365C162.107 69.865 161.423 69.2067 160.94 68.39C160.473 67.5733 160.207 66.6733 160.14 65.69H164.09ZM166.165 60.915C166.865 60.915 167.423 60.7067 167.84 60.29C168.257 59.8567 168.465 59.2733 168.465 58.54C168.465 57.74 168.248 57.1233 167.815 56.69C167.382 56.2567 166.798 56.04 166.065 56.04C165.332 56.04 164.748 56.265 164.315 56.715C163.898 57.1483 163.69 57.7483 163.69 58.515C163.69 59.2317 163.898 59.815 164.315 60.265C164.748 60.6983 165.365 60.915 166.165 60.915Z" fill="#313131"/>
<path d="M186.219 52.865L185.719 64.84H182.094L181.594 52.865H186.219ZM183.969 71.24C183.219 71.24 182.602 71.0233 182.119 70.59C181.652 70.14 181.419 69.59 181.419 68.94C181.419 68.2733 181.652 67.715 182.119 67.265C182.602 66.815 183.219 66.59 183.969 66.59C184.702 66.59 185.302 66.815 185.769 67.265C186.252 67.715 186.494 68.2733 186.494 68.94C186.494 69.59 186.252 70.14 185.769 70.59C185.302 71.0233 184.702 71.24 183.969 71.24Z" fill="#313131"/>
<path d="M204.284 54.34C206.251 54.34 207.967 54.715 209.434 55.465C210.901 56.1983 212.026 57.24 212.809 58.59C213.609 59.9233 214.009 61.465 214.009 63.215C214.009 64.6317 213.759 65.9483 213.259 67.165C212.776 68.3817 212.051 69.3567 211.084 70.09C210.134 70.8067 209.001 71.165 207.684 71.165C206.801 71.165 206.067 70.99 205.484 70.64C204.917 70.29 204.534 69.7983 204.334 69.165C203.867 69.815 203.267 70.3233 202.534 70.69C201.801 71.04 201.001 71.215 200.134 71.215C198.901 71.215 197.926 70.8483 197.209 70.115C196.509 69.365 196.159 68.3483 196.159 67.065C196.159 65.8483 196.409 64.7067 196.909 63.64C197.409 62.5567 198.101 61.69 198.984 61.04C199.867 60.39 200.859 60.065 201.959 60.065C203.359 60.065 204.309 60.565 204.809 61.565L205.034 60.24H208.484L207.384 66.515C207.334 66.815 207.309 67.0817 207.309 67.315C207.309 68.0483 207.634 68.415 208.284 68.415C209.084 68.415 209.692 67.9067 210.109 66.89C210.542 65.8567 210.759 64.6733 210.759 63.34C210.759 61.4233 210.151 59.9233 208.934 58.84C207.734 57.7567 206.042 57.215 203.859 57.215C201.992 57.215 200.292 57.665 198.759 58.565C197.242 59.465 196.051 60.6983 195.184 62.265C194.317 63.815 193.884 65.5233 193.884 67.39C193.884 69.4067 194.467 70.9733 195.634 72.09C196.817 73.2067 198.467 73.765 200.584 73.765C202.234 73.765 203.709 73.465 205.009 72.865L205.684 75.59C204.051 76.3067 202.217 76.665 200.184 76.665C198.284 76.665 196.609 76.2983 195.159 75.565C193.726 74.8317 192.617 73.79 191.834 72.44C191.051 71.09 190.659 69.515 190.659 67.715C190.659 65.1983 191.251 62.9233 192.434 60.89C193.617 58.84 195.242 57.24 197.309 56.09C199.392 54.9233 201.717 54.34 204.284 54.34ZM201.534 68.14C202.001 68.14 202.434 67.9983 202.834 67.715C203.251 67.4317 203.576 67.0567 203.809 66.59C204.059 66.1067 204.184 65.59 204.184 65.04C204.184 64.4733 204.026 64.015 203.709 63.665C203.392 63.2983 202.959 63.115 202.409 63.115C201.676 63.115 201.067 63.4317 200.584 64.065C200.101 64.6983 199.859 65.4483 199.859 66.315C199.859 66.865 200.001 67.3067 200.284 67.64C200.567 67.9733 200.984 68.14 201.534 68.14Z" fill="#313131"/>
<path d="M233.711 60.09L233.011 63.365H236.011V67.215H232.186L231.361 71.04H227.361L228.186 67.215H224.036L223.211 71.04H219.211L220.036 67.215H216.336V63.365H220.861L221.561 60.09H217.936V56.24H222.361L223.161 52.54H227.161L226.361 56.24H230.511L231.311 52.54H235.311L234.511 56.24H237.611V60.09H233.711ZM229.711 60.09H225.561L224.861 63.365H229.011L229.711 60.09Z" fill="#313131"/>
<path d="M253.268 65.94C253.268 66.8567 253.027 67.7067 252.543 68.49C252.077 69.2567 251.377 69.89 250.443 70.39C249.527 70.8733 248.435 71.14 247.168 71.19V73.215H245.568V71.165C243.802 71.015 242.377 70.49 241.293 69.59C240.21 68.6733 239.635 67.4317 239.568 65.865H244.118C244.218 66.865 244.702 67.5067 245.568 67.79V63.84C244.268 63.5067 243.227 63.1817 242.443 62.865C241.677 62.5483 241.002 62.04 240.418 61.34C239.835 60.64 239.543 59.6817 239.543 58.465C239.543 56.9483 240.102 55.7317 241.218 54.815C242.352 53.8983 243.802 53.3817 245.568 53.265V51.24H247.168V53.265C248.918 53.3983 250.302 53.9067 251.318 54.79C252.335 55.6733 252.902 56.8983 253.018 58.465H248.443C248.343 57.565 247.918 56.9817 247.168 56.715V60.59C248.552 60.9733 249.618 61.315 250.368 61.615C251.118 61.915 251.785 62.415 252.368 63.115C252.968 63.7983 253.268 64.74 253.268 65.94ZM244.068 58.265C244.068 58.6817 244.193 59.0317 244.443 59.315C244.71 59.5983 245.085 59.8483 245.568 60.065V56.59C245.102 56.6733 244.735 56.8567 244.468 57.14C244.202 57.4067 244.068 57.7817 244.068 58.265ZM247.168 67.865C247.668 67.7817 248.06 67.5817 248.343 67.265C248.643 66.9483 248.793 66.5567 248.793 66.09C248.793 65.6567 248.652 65.3067 248.368 65.04C248.102 64.7567 247.702 64.515 247.168 64.315V67.865Z" fill="#313131"/>
<path d="M255.673 57.39C255.673 56.04 256.057 54.9983 256.823 54.265C257.607 53.5317 258.615 53.165 259.848 53.165C261.082 53.165 262.082 53.5317 262.848 54.265C263.615 54.9983 263.998 56.04 263.998 57.39C263.998 58.74 263.615 59.7817 262.848 60.515C262.082 61.2483 261.082 61.615 259.848 61.615C258.615 61.615 257.607 61.2483 256.823 60.515C256.057 59.7817 255.673 58.74 255.673 57.39ZM272.648 53.44L263.023 71.04H258.898L268.523 53.44H272.648ZM259.823 55.665C259.023 55.665 258.623 56.24 258.623 57.39C258.623 58.5233 259.023 59.09 259.823 59.09C260.207 59.09 260.507 58.9483 260.723 58.665C260.94 58.3817 261.048 57.9567 261.048 57.39C261.048 56.24 260.64 55.665 259.823 55.665ZM267.573 67.09C267.573 65.74 267.957 64.6983 268.723 63.965C269.49 63.2317 270.49 62.865 271.723 62.865C272.957 62.865 273.957 63.2317 274.723 63.965C275.49 64.6983 275.873 65.74 275.873 67.09C275.873 68.44 275.49 69.4817 274.723 70.215C273.957 70.9483 272.957 71.315 271.723 71.315C270.49 71.315 269.49 70.9483 268.723 70.215C267.957 69.4817 267.573 68.44 267.573 67.09ZM271.698 65.365C271.315 65.365 271.015 65.5067 270.798 65.79C270.598 66.0733 270.498 66.5067 270.498 67.09C270.498 68.2233 270.898 68.79 271.698 68.79C272.082 68.79 272.382 68.6483 272.598 68.365C272.815 68.0817 272.923 67.6567 272.923 67.09C272.923 66.5233 272.815 66.0983 272.598 65.815C272.382 65.515 272.082 65.365 271.698 65.365Z" fill="#313131"/>
<path d="M281.701 66.915H277.401L283.451 53.44H287.601L293.626 66.915H289.326L285.526 58.39L281.701 66.915Z" fill="#313131"/>
<path d="M309.351 71.04L307.726 69.465C306.109 70.6983 304.176 71.315 301.926 71.315C300.576 71.315 299.401 71.0983 298.401 70.665C297.401 70.215 296.626 69.59 296.076 68.79C295.543 67.9733 295.276 67.0233 295.276 65.94C295.276 64.84 295.568 63.8483 296.151 62.965C296.751 62.065 297.643 61.3317 298.826 60.765C298.393 60.2317 298.084 59.7233 297.901 59.24C297.718 58.74 297.626 58.1983 297.626 57.615C297.626 56.7817 297.843 56.0233 298.276 55.34C298.709 54.6567 299.334 54.1233 300.151 53.74C300.984 53.34 301.968 53.14 303.101 53.14C304.251 53.14 305.226 53.3483 306.026 53.765C306.826 54.1817 307.426 54.74 307.826 55.44C308.226 56.14 308.409 56.9067 308.376 57.74H304.351C304.368 57.29 304.251 56.9483 304.001 56.715C303.768 56.465 303.451 56.34 303.051 56.34C302.651 56.34 302.318 56.4567 302.051 56.69C301.784 56.9233 301.651 57.2233 301.651 57.59C301.651 57.94 301.759 58.3067 301.976 58.69C302.209 59.0733 302.568 59.515 303.051 60.015L307.326 64.19C307.359 64.1067 307.401 64.0067 307.451 63.89C307.518 63.7733 307.584 63.64 307.651 63.49L308.576 61.915H312.851L311.651 64.09C311.201 65.0733 310.684 66.0067 310.101 66.89L314.326 71.04H309.351ZM302.126 67.865C303.243 67.865 304.234 67.5483 305.101 66.915L301.201 63.14C300.001 63.7567 299.401 64.59 299.401 65.64C299.401 66.2733 299.643 66.8067 300.126 67.24C300.626 67.6567 301.293 67.865 302.126 67.865Z" fill="#313131"/>
<path d="M324.497 53.665L325.897 56.215L322.822 57.29L325.897 58.34L324.397 60.99L321.897 58.79L322.522 62.04H319.597L320.197 58.79L317.722 61.015L316.172 58.315L319.247 57.24L316.197 56.24L317.622 53.665L320.222 55.84L319.572 52.54H322.547L321.897 55.84L324.497 53.665Z" fill="#313131"/>
<path d="M334.977 76.265C333.36 74.715 332.102 72.715 331.202 70.265C330.302 67.815 329.852 65.1733 329.852 62.34C329.852 59.4733 330.318 56.7983 331.252 54.315C332.185 51.815 333.51 49.7817 335.227 48.215H339.427V48.615C337.677 50.3483 336.327 52.4317 335.377 54.865C334.427 57.2817 333.952 59.7733 333.952 62.34C333.952 64.89 334.41 67.3483 335.327 69.715C336.243 72.0817 337.535 74.1317 339.202 75.865V76.265H334.977Z" fill="#313131"/>
<path d="M339.991 76.265V75.865C341.657 74.1317 342.949 72.0817 343.866 69.715C344.782 67.3483 345.241 64.89 345.241 62.34C345.241 59.7733 344.766 57.2817 343.816 54.865C342.866 52.4317 341.516 50.3483 339.766 48.615V48.215H343.966C345.682 49.7817 347.007 51.815 347.941 54.315C348.874 56.7983 349.341 59.4733 349.341 62.34C349.341 65.1733 348.891 67.815 347.991 70.265C347.091 72.715 345.832 74.715 344.216 76.265H339.991Z" fill="#313131"/>
<path d="M358.18 52.515C359.963 52.515 361.388 52.9817 362.455 53.915C363.538 54.8483 364.08 56.165 364.08 57.865C364.08 59.4317 363.563 60.6567 362.53 61.54C361.513 62.4067 360.163 62.8483 358.48 62.865L358.355 64.74H354.605L354.48 60.09H355.98C357.263 60.09 358.238 59.9317 358.905 59.615C359.588 59.2983 359.93 58.7233 359.93 57.89C359.93 57.3067 359.771 56.8483 359.455 56.515C359.138 56.1817 358.696 56.015 358.13 56.015C357.53 56.015 357.063 56.19 356.73 56.54C356.396 56.8733 356.23 57.3317 356.23 57.915H352.205C352.171 56.8983 352.38 55.9817 352.83 55.165C353.296 54.3483 353.98 53.7067 354.88 53.24C355.796 52.7567 356.896 52.515 358.18 52.515ZM356.53 71.24C355.78 71.24 355.163 71.0233 354.68 70.59C354.213 70.14 353.98 69.59 353.98 68.94C353.98 68.2733 354.213 67.715 354.68 67.265C355.163 66.815 355.78 66.59 356.53 66.59C357.263 66.59 357.863 66.815 358.33 67.265C358.813 67.715 359.055 68.2733 359.055 68.94C359.055 69.59 358.813 70.14 358.33 70.59C357.863 71.0233 357.263 71.24 356.53 71.24Z" fill="#313131"/>
<path d="M367.482 53.49H371.857L369.057 60.19H366.182L367.482 53.49Z" fill="#313131"/>
<path d="M375.343 53.49H379.718L376.918 60.19H374.043L375.343 53.49ZM381.018 53.49H385.393L382.593 60.19H379.718L381.018 53.49Z" fill="#313131"/>
<path d="M390.619 61.265C389.869 61.265 389.252 61.0483 388.769 60.615C388.302 60.165 388.069 59.615 388.069 58.965C388.069 58.2983 388.302 57.74 388.769 57.29C389.252 56.84 389.869 56.615 390.619 56.615C391.352 56.615 391.952 56.84 392.419 57.29C392.902 57.74 393.144 58.2983 393.144 58.965C393.144 59.615 392.902 60.165 392.419 60.615C391.952 61.0483 391.352 61.265 390.619 61.265ZM393.094 67.09L390.319 74.265H387.594L389.044 67.09H393.094Z" fill="#313131"/>
<path d="M398.561 71.24C397.811 71.24 397.194 71.0233 396.711 70.59C396.244 70.14 396.011 69.59 396.011 68.94C396.011 68.2733 396.244 67.715 396.711 67.265C397.194 66.815 397.811 66.59 398.561 66.59C399.294 66.59 399.894 66.815 400.361 67.265C400.844 67.715 401.086 68.2733 401.086 68.94C401.086 69.59 400.844 70.14 400.361 70.59C399.894 71.0233 399.294 71.24 398.561 71.24ZM398.561 61.065C397.811 61.065 397.194 60.8483 396.711 60.415C396.244 59.965 396.011 59.415 396.011 58.765C396.011 58.0983 396.244 57.54 396.711 57.09C397.194 56.64 397.811 56.415 398.561 56.415C399.294 56.415 399.894 56.64 400.361 57.09C400.844 57.54 401.086 58.0983 401.086 58.765C401.086 59.415 400.844 59.965 400.361 60.415C399.894 60.8483 399.294 61.065 398.561 61.065Z" fill="#313131"/>
<path d="M408.265 67.09L405.49 74.265H402.765L404.215 67.09H408.265Z" fill="#313131"/>
<path d="M412.843 71.24C412.093 71.24 411.476 71.0233 410.993 70.59C410.526 70.14 410.293 69.59 410.293 68.94C410.293 68.2733 410.526 67.715 410.993 67.265C411.476 66.815 412.093 66.59 412.843 66.59C413.576 66.59 414.176 66.815 414.643 67.265C415.126 67.715 415.368 68.2733 415.368 68.94C415.368 69.59 415.126 70.14 414.643 70.59C414.176 71.0233 413.576 71.24 412.843 71.24Z" fill="#313131"/>
</svg>
