<svg width="417" height="151" viewBox="0 0 417 151" fill="none" xmlns="http://www.w3.org/2000/svg">
<path d="M153.133 19.5898H148.465V30H142.606V1.5625H153.172C156.532 1.5625 159.123 2.3112 160.946 3.80859C162.769 5.30599 163.68 7.42188 163.68 10.1562C163.68 12.0964 163.257 13.7174 162.411 15.0195C161.577 16.3086 160.308 17.3372 158.602 18.1055L164.754 29.7266V30H158.465L153.133 19.5898ZM148.465 14.8438H153.192C154.663 14.8438 155.803 14.4727 156.61 13.7305C157.417 12.9753 157.821 11.9401 157.821 10.625C157.821 9.28385 157.437 8.22917 156.668 7.46094C155.913 6.69271 154.748 6.30859 153.172 6.30859H148.465V14.8438Z" fill="#313131"/>
<path d="M168.903 19.2383C168.903 17.1419 169.306 15.2734 170.114 13.6328C170.921 11.9922 172.08 10.7227 173.59 9.82422C175.114 8.92578 176.878 8.47656 178.883 8.47656C181.735 8.47656 184.059 9.34896 185.856 11.0938C187.666 12.8385 188.675 15.2083 188.883 18.2031L188.922 19.6484C188.922 22.8906 188.017 25.4948 186.208 27.4609C184.398 29.4141 181.969 30.3906 178.922 30.3906C175.875 30.3906 173.441 29.4141 171.618 27.4609C169.808 25.5078 168.903 22.8516 168.903 19.4922V19.2383ZM174.547 19.6484C174.547 21.6536 174.925 23.1901 175.68 24.2578C176.435 25.3125 177.516 25.8398 178.922 25.8398C180.29 25.8398 181.357 25.319 182.125 24.2773C182.894 23.2227 183.278 21.543 183.278 19.2383C183.278 17.2721 182.894 15.7487 182.125 14.668C181.357 13.5872 180.277 13.0469 178.883 13.0469C177.503 13.0469 176.435 13.5872 175.68 14.668C174.925 15.7357 174.547 17.3958 174.547 19.6484Z" fill="#313131"/>
<path d="M213.442 19.6289C213.442 23.0143 212.719 25.6576 211.274 27.5586C209.829 29.4466 207.81 30.3906 205.219 30.3906C202.928 30.3906 201.098 29.5117 199.731 27.7539L199.477 30H194.399V0H200.043V10.7617C201.346 9.23828 203.058 8.47656 205.18 8.47656C207.758 8.47656 209.777 9.42708 211.235 11.3281C212.706 13.2161 213.442 15.8789 213.442 19.3164V19.6289ZM207.797 19.2188C207.797 17.0833 207.459 15.5273 206.782 14.5508C206.105 13.5612 205.096 13.0664 203.754 13.0664C201.958 13.0664 200.721 13.8021 200.043 15.2734V23.6133C200.734 25.0977 201.984 25.8398 203.793 25.8398C205.616 25.8398 206.814 24.9414 207.387 23.1445C207.661 22.2852 207.797 20.9766 207.797 19.2188Z" fill="#313131"/>
<path d="M218.059 19.2383C218.059 17.1419 218.463 15.2734 219.27 13.6328C220.077 11.9922 221.236 10.7227 222.747 9.82422C224.27 8.92578 226.034 8.47656 228.04 8.47656C230.891 8.47656 233.215 9.34896 235.012 11.0938C236.822 12.8385 237.831 15.2083 238.04 18.2031L238.079 19.6484C238.079 22.8906 237.174 25.4948 235.364 27.4609C233.554 29.4141 231.125 30.3906 228.079 30.3906C225.032 30.3906 222.597 29.4141 220.774 27.4609C218.964 25.5078 218.059 22.8516 218.059 19.4922V19.2383ZM223.704 19.6484C223.704 21.6536 224.081 23.1901 224.836 24.2578C225.592 25.3125 226.672 25.8398 228.079 25.8398C229.446 25.8398 230.514 25.319 231.282 24.2773C232.05 23.2227 232.434 21.543 232.434 19.2383C232.434 17.2721 232.05 15.7487 231.282 14.668C230.514 13.5872 229.433 13.0469 228.04 13.0469C226.659 13.0469 225.592 13.5872 224.836 14.668C224.081 15.7357 223.704 17.3958 223.704 19.6484Z" fill="#313131"/>
<path d="M250.313 3.67188V8.86719H253.926V13.0078H250.313V23.5547C250.313 24.3359 250.463 24.8958 250.762 25.2344C251.062 25.5729 251.635 25.7422 252.481 25.7422C253.106 25.7422 253.659 25.6966 254.141 25.6055V29.8828C253.034 30.2214 251.895 30.3906 250.723 30.3906C246.765 30.3906 244.747 28.3919 244.668 24.3945V13.0078H241.583V8.86719H244.668V3.67188H250.313Z" fill="#313131"/>
<path d="M257.606 19.2383C257.606 17.1419 258.01 15.2734 258.817 13.6328C259.624 11.9922 260.783 10.7227 262.293 9.82422C263.817 8.92578 265.581 8.47656 267.586 8.47656C270.438 8.47656 272.762 9.34896 274.559 11.0938C276.369 12.8385 277.378 15.2083 277.586 18.2031L277.625 19.6484C277.625 22.8906 276.721 25.4948 274.911 27.4609C273.101 29.4141 270.672 30.3906 267.625 30.3906C264.579 30.3906 262.144 29.4141 260.321 27.4609C258.511 25.5078 257.606 22.8516 257.606 19.4922V19.2383ZM263.25 19.6484C263.25 21.6536 263.628 23.1901 264.383 24.2578C265.139 25.3125 266.219 25.8398 267.625 25.8398C268.993 25.8398 270.06 25.319 270.829 24.2773C271.597 23.2227 271.981 21.543 271.981 19.2383C271.981 17.2721 271.597 15.7487 270.829 14.668C270.06 13.5872 268.98 13.0469 267.586 13.0469C266.206 13.0469 265.139 13.5872 264.383 14.668C263.628 15.7357 263.25 17.3958 263.25 19.6484Z" fill="#313131"/>
<path d="M52.1655 109C52.0028 108.683 51.8848 108.288 51.8115 107.816C50.957 108.768 49.8462 109.244 48.479 109.244C47.1851 109.244 46.1108 108.87 45.2563 108.121C44.41 107.372 43.9868 106.428 43.9868 105.289C43.9868 103.889 44.5036 102.815 45.5371 102.066C46.5788 101.318 48.0802 100.939 50.0415 100.931H51.665V100.174C51.665 99.564 51.5063 99.0757 51.189 98.7095C50.8797 98.3433 50.3874 98.1602 49.7119 98.1602C49.1178 98.1602 48.6499 98.3026 48.3081 98.5874C47.9744 98.8722 47.8076 99.2629 47.8076 99.7593H44.2798C44.2798 98.9943 44.5158 98.2863 44.9878 97.6353C45.4598 96.9842 46.1271 96.4756 46.9897 96.1094C47.8524 95.735 48.8208 95.5479 49.895 95.5479C51.5226 95.5479 52.8125 95.9588 53.7646 96.7808C54.7249 97.5946 55.2051 98.742 55.2051 100.223V105.948C55.2132 107.201 55.3882 108.15 55.73 108.792V109H52.1655ZM49.248 106.546C49.7689 106.546 50.249 106.432 50.6885 106.205C51.1279 105.969 51.4535 105.655 51.665 105.265V102.994H50.3467C48.5807 102.994 47.6408 103.604 47.5269 104.825L47.5146 105.033C47.5146 105.472 47.6693 105.834 47.9785 106.119C48.2878 106.404 48.7109 106.546 49.248 106.546Z" fill="#313131"/>
<path d="M69.8169 102.518C69.8169 104.634 69.3652 106.286 68.4619 107.474C67.5586 108.654 66.2972 109.244 64.6777 109.244C63.2454 109.244 62.1021 108.695 61.2476 107.596L61.0889 109H57.915V90.25H61.4429V96.9761C62.2567 96.0239 63.3268 95.5479 64.6533 95.5479C66.2646 95.5479 67.526 96.1419 68.4375 97.3301C69.3571 98.5101 69.8169 100.174 69.8169 102.323V102.518ZM66.2891 102.262C66.2891 100.927 66.0775 99.9546 65.6543 99.3442C65.2311 98.7257 64.6004 98.4165 63.7622 98.4165C62.6392 98.4165 61.866 98.8763 61.4429 99.7959V105.008C61.8742 105.936 62.6554 106.4 63.7866 106.4C64.9259 106.4 65.6746 105.838 66.0327 104.715C66.2036 104.178 66.2891 103.36 66.2891 102.262Z" fill="#313131"/>
<path d="M77.4951 106.4C78.1462 106.4 78.6751 106.221 79.082 105.863C79.4889 105.505 79.7005 105.029 79.7168 104.435H83.0249C83.0168 105.33 82.7726 106.152 82.2925 106.9C81.8123 107.641 81.1532 108.219 80.3149 108.634C79.4849 109.041 78.5653 109.244 77.5562 109.244C75.6681 109.244 74.1789 108.646 73.0884 107.45C71.9979 106.245 71.4526 104.585 71.4526 102.469V102.237C71.4526 100.203 71.9938 98.5793 73.0762 97.3667C74.1585 96.1541 75.6437 95.5479 77.5317 95.5479C79.1838 95.5479 80.5062 96.0199 81.499 96.9639C82.5 97.8997 83.0086 99.1489 83.0249 100.711H79.7168C79.7005 100.028 79.4889 99.4744 79.082 99.0513C78.6751 98.62 78.138 98.4043 77.4707 98.4043C76.6488 98.4043 76.0262 98.7054 75.603 99.3076C75.188 99.9017 74.9805 100.87 74.9805 102.213V102.579C74.9805 103.938 75.188 104.915 75.603 105.509C76.0181 106.103 76.6488 106.4 77.4951 106.4Z" fill="#313131"/>
<path d="M84.4897 102.298C84.4897 100.239 84.9495 98.5996 85.8691 97.3789C86.7969 96.1582 88.0623 95.5479 89.6655 95.5479C90.9513 95.5479 92.0133 96.028 92.8516 96.9883V90.25H96.3916V109H93.2056L93.0347 107.596C92.1558 108.695 91.0246 109.244 89.6411 109.244C88.0868 109.244 86.8376 108.634 85.8936 107.413C84.9577 106.184 84.4897 104.479 84.4897 102.298ZM88.0176 102.555C88.0176 103.792 88.2332 104.74 88.6646 105.399C89.0959 106.058 89.7225 106.388 90.5444 106.388C91.6349 106.388 92.404 105.928 92.8516 105.008V99.7959C92.4121 98.8763 91.6512 98.4165 90.5688 98.4165C88.868 98.4165 88.0176 99.7959 88.0176 102.555Z" fill="#313131"/>
<path d="M105.205 109.244C103.268 109.244 101.689 108.65 100.469 107.462C99.2562 106.274 98.6499 104.691 98.6499 102.713V102.372C98.6499 101.045 98.9062 99.861 99.4189 98.8193C99.9316 97.7695 100.656 96.9639 101.592 96.4023C102.536 95.8327 103.61 95.5479 104.814 95.5479C106.621 95.5479 108.041 96.1175 109.075 97.2568C110.116 98.3962 110.637 100.012 110.637 102.103V103.543H102.227C102.34 104.406 102.682 105.098 103.252 105.619C103.83 106.139 104.558 106.4 105.437 106.4C106.796 106.4 107.858 105.908 108.623 104.923L110.356 106.864C109.827 107.612 109.111 108.198 108.208 108.622C107.305 109.037 106.304 109.244 105.205 109.244ZM104.802 98.4043C104.102 98.4043 103.533 98.6403 103.093 99.1123C102.662 99.5843 102.385 100.26 102.263 101.139H107.17V100.858C107.154 100.077 106.943 99.4744 106.536 99.0513C106.129 98.62 105.551 98.4043 104.802 98.4043Z" fill="#313131"/>
<path d="M113.616 109V98.3799H111.65V95.792H113.616V94.6689C113.616 93.1878 114.039 92.0404 114.885 91.2266C115.74 90.4046 116.932 89.9937 118.462 89.9937C118.95 89.9937 119.548 90.075 120.256 90.2378L120.22 92.9722C119.927 92.8989 119.569 92.8623 119.146 92.8623C117.819 92.8623 117.156 93.4849 117.156 94.73V95.792H119.78V98.3799H117.156V109H113.616Z" fill="#313131"/>
<path d="M120.806 102.298C120.806 100.272 121.286 98.6403 122.246 97.4033C123.215 96.1663 124.517 95.5479 126.152 95.5479C127.601 95.5479 128.728 96.0443 129.534 97.0371L129.68 95.792H132.878V108.561C132.878 109.716 132.614 110.721 132.085 111.576C131.564 112.43 130.828 113.081 129.875 113.529C128.923 113.976 127.808 114.2 126.531 114.2C125.562 114.2 124.618 114.005 123.699 113.614C122.779 113.232 122.083 112.735 121.611 112.125L123.174 109.977C124.053 110.961 125.119 111.454 126.372 111.454C127.308 111.454 128.036 111.201 128.557 110.697C129.078 110.2 129.338 109.492 129.338 108.573V107.865C128.525 108.784 127.454 109.244 126.128 109.244C124.541 109.244 123.255 108.626 122.271 107.389C121.294 106.144 120.806 104.496 120.806 102.445V102.298ZM124.333 102.555C124.333 103.751 124.574 104.691 125.054 105.375C125.534 106.05 126.193 106.388 127.031 106.388C128.105 106.388 128.875 105.985 129.338 105.179V99.625C128.866 98.8193 128.105 98.4165 127.056 98.4165C126.209 98.4165 125.542 98.7624 125.054 99.4541C124.574 100.146 124.333 101.179 124.333 102.555Z" fill="#313131"/>
<path d="M139.043 97.2324C139.979 96.1094 141.155 95.5479 142.571 95.5479C145.435 95.5479 146.888 97.2121 146.929 100.541V109H143.401V100.638C143.401 99.8813 143.238 99.3239 142.913 98.9658C142.587 98.5996 142.046 98.4165 141.289 98.4165C140.256 98.4165 139.507 98.8153 139.043 99.6128V109H135.515V90.25H139.043V97.2324Z" fill="#313131"/>
<path d="M153.313 109H149.773V95.792H153.313V109ZM149.565 92.374C149.565 91.8451 149.74 91.4097 150.09 91.0679C150.448 90.7261 150.933 90.5552 151.543 90.5552C152.145 90.5552 152.625 90.7261 152.983 91.0679C153.341 91.4097 153.521 91.8451 153.521 92.374C153.521 92.9111 153.337 93.3506 152.971 93.6924C152.613 94.0342 152.137 94.2051 151.543 94.2051C150.949 94.2051 150.469 94.0342 150.103 93.6924C149.744 93.3506 149.565 92.9111 149.565 92.374Z" fill="#313131"/>
<path d="M159.966 95.792V109.72C159.966 111.177 159.579 112.308 158.806 113.114C158.033 113.928 156.918 114.334 155.461 114.334C154.851 114.334 154.269 114.265 153.716 114.127V111.332C154.139 111.405 154.509 111.441 154.827 111.441C155.893 111.441 156.426 110.876 156.426 109.745V95.792H159.966ZM156.145 92.374C156.145 91.8451 156.32 91.4097 156.67 91.0679C157.028 90.7261 157.512 90.5552 158.123 90.5552C158.733 90.5552 159.213 90.7261 159.563 91.0679C159.921 91.4097 160.1 91.8451 160.1 92.374C160.1 92.9111 159.917 93.3506 159.551 93.6924C159.193 94.0342 158.717 94.2051 158.123 94.2051C157.528 94.2051 157.048 94.0342 156.682 93.6924C156.324 93.3506 156.145 92.9111 156.145 92.374Z" fill="#313131"/>
<path d="M167.522 103.702L166.252 104.972V109H162.725V90.25H166.252V100.638L166.936 99.7593L170.317 95.792H174.553L169.78 101.297L174.968 109H170.916L167.522 103.702Z" fill="#313131"/>
<path d="M179.802 109H176.262V90.25H179.802V109Z" fill="#313131"/>
<path d="M186.028 95.792L186.138 97.269C187.074 96.1216 188.339 95.5479 189.934 95.5479C191.635 95.5479 192.803 96.2192 193.438 97.562C194.365 96.2192 195.688 95.5479 197.405 95.5479C198.837 95.5479 199.903 95.967 200.603 96.8052C201.303 97.6353 201.653 98.8885 201.653 100.565V109H198.113V100.577C198.113 99.8285 197.966 99.2832 197.673 98.9414C197.38 98.5915 196.864 98.4165 196.123 98.4165C195.065 98.4165 194.333 98.9211 193.926 99.9302L193.938 109H190.41V100.589C190.41 99.8244 190.26 99.271 189.958 98.9292C189.657 98.5874 189.145 98.4165 188.42 98.4165C187.419 98.4165 186.695 98.8315 186.248 99.6616V109H182.72V95.792H186.028Z" fill="#313131"/>
<path d="M207.622 95.792L207.732 97.3179C208.676 96.1379 209.941 95.5479 211.528 95.5479C212.928 95.5479 213.97 95.9588 214.653 96.7808C215.337 97.6027 215.687 98.8315 215.703 100.467V109H212.175V100.553C212.175 99.804 212.013 99.2629 211.687 98.9292C211.361 98.5874 210.82 98.4165 210.063 98.4165C209.071 98.4165 208.326 98.8397 207.83 99.686V109H204.302V95.792H207.622Z" fill="#313131"/>
<path d="M217.839 102.274C217.839 100.964 218.092 99.7959 218.596 98.7705C219.101 97.7451 219.825 96.9517 220.769 96.3901C221.721 95.8286 222.824 95.5479 224.077 95.5479C225.859 95.5479 227.312 96.0931 228.435 97.1836C229.566 98.2741 230.197 99.7552 230.327 101.627L230.352 102.53C230.352 104.557 229.786 106.184 228.655 107.413C227.524 108.634 226.006 109.244 224.102 109.244C222.197 109.244 220.675 108.634 219.536 107.413C218.405 106.192 217.839 104.532 217.839 102.433V102.274ZM221.367 102.53C221.367 103.784 221.603 104.744 222.075 105.411C222.547 106.07 223.223 106.4 224.102 106.4C224.956 106.4 225.623 106.074 226.104 105.423C226.584 104.764 226.824 103.714 226.824 102.274C226.824 101.045 226.584 100.093 226.104 99.4175C225.623 98.742 224.948 98.4043 224.077 98.4043C223.215 98.4043 222.547 98.742 222.075 99.4175C221.603 100.085 221.367 101.122 221.367 102.53Z" fill="#313131"/>
<path d="M244.414 102.518C244.414 104.553 243.95 106.184 243.022 107.413C242.103 108.634 240.858 109.244 239.287 109.244C237.952 109.244 236.874 108.78 236.052 107.853V114.078H232.524V95.792H235.796L235.918 97.0859C236.772 96.0605 237.887 95.5479 239.263 95.5479C240.89 95.5479 242.156 96.1501 243.059 97.3545C243.962 98.5589 244.414 100.219 244.414 102.335V102.518ZM240.886 102.262C240.886 101.033 240.667 100.085 240.227 99.4175C239.796 98.7502 239.165 98.4165 238.335 98.4165C237.228 98.4165 236.467 98.8397 236.052 99.686V105.094C236.484 105.965 237.253 106.4 238.359 106.4C240.044 106.4 240.886 105.021 240.886 102.262Z" fill="#313131"/>
<path d="M246.062 102.274C246.062 100.199 246.522 98.5589 247.441 97.3545C248.369 96.1501 249.639 95.5479 251.25 95.5479C252.666 95.5479 253.793 96.089 254.631 97.1714L254.863 95.792H257.964V114.078H254.424V107.865C253.61 108.784 252.544 109.244 251.226 109.244C249.655 109.244 248.402 108.634 247.466 107.413C246.53 106.192 246.062 104.479 246.062 102.274ZM249.59 102.53C249.59 103.792 249.81 104.752 250.249 105.411C250.697 106.07 251.323 106.4 252.129 106.4C253.211 106.4 253.976 105.969 254.424 105.106V99.6494C253.984 98.8193 253.228 98.4043 252.153 98.4043C251.34 98.4043 250.709 98.7339 250.261 99.3931C249.814 100.052 249.59 101.098 249.59 102.53Z" fill="#313131"/>
<path d="M268.169 99.1001C267.689 99.035 267.266 99.0024 266.899 99.0024C265.565 99.0024 264.69 99.4541 264.275 100.357V109H260.747V95.792H264.08L264.177 97.3667C264.885 96.1541 265.866 95.5479 267.119 95.5479C267.51 95.5479 267.876 95.6007 268.218 95.7065L268.169 99.1001Z" fill="#313131"/>
<path d="M277.031 105.35C277.031 104.919 276.816 104.581 276.384 104.337C275.961 104.085 275.278 103.861 274.333 103.666C271.192 103.006 269.622 101.672 269.622 99.6616C269.622 98.4897 270.106 97.5132 271.074 96.7319C272.051 95.9425 273.324 95.5479 274.895 95.5479C276.571 95.5479 277.91 95.9425 278.911 96.7319C279.92 97.5213 280.425 98.5467 280.425 99.8081H276.897C276.897 99.3035 276.734 98.8885 276.409 98.563C276.083 98.2293 275.575 98.0625 274.883 98.0625C274.289 98.0625 273.829 98.1968 273.503 98.4653C273.178 98.7339 273.015 99.0757 273.015 99.4907C273.015 99.8813 273.198 100.199 273.564 100.443C273.939 100.679 274.565 100.886 275.444 101.065C276.323 101.236 277.064 101.432 277.666 101.651C279.53 102.335 280.461 103.519 280.461 105.204C280.461 106.408 279.945 107.385 278.911 108.133C277.878 108.874 276.543 109.244 274.907 109.244C273.8 109.244 272.816 109.049 271.953 108.658C271.099 108.259 270.427 107.718 269.939 107.035C269.451 106.343 269.207 105.598 269.207 104.801H272.551C272.584 105.427 272.816 105.908 273.247 106.241C273.678 106.575 274.256 106.742 274.98 106.742C275.656 106.742 276.165 106.616 276.506 106.363C276.856 106.103 277.031 105.765 277.031 105.35Z" fill="#313131"/>
<path d="M286.968 92.5449V95.792H289.226V98.3799H286.968V104.972C286.968 105.46 287.061 105.81 287.249 106.021C287.436 106.233 287.794 106.339 288.323 106.339C288.713 106.339 289.059 106.31 289.36 106.253V108.927C288.669 109.138 287.957 109.244 287.224 109.244C284.75 109.244 283.489 107.995 283.44 105.497V98.3799H281.511V95.792H283.44V92.5449H286.968Z" fill="#313131"/>
<path d="M299.102 107.657C298.231 108.715 297.026 109.244 295.488 109.244C294.072 109.244 292.99 108.837 292.241 108.023C291.501 107.21 291.122 106.017 291.106 104.447V95.792H294.634V104.325C294.634 105.7 295.26 106.388 296.514 106.388C297.71 106.388 298.532 105.973 298.979 105.143V95.792H302.52V109H299.199L299.102 107.657Z" fill="#313131"/>
<path d="M310.125 104.691L312.578 95.792H316.265L311.809 109H308.44L303.984 95.792H307.671L310.125 104.691Z" fill="#313131"/>
<path d="M329.314 104.203L331.047 95.792H334.453L331.084 109H328.13L325.627 100.687L323.125 109H320.183L316.814 95.792H320.22L321.941 104.19L324.358 95.792H326.909L329.314 104.203Z" fill="#313131"/>
<path d="M341.24 99.7349L343.462 95.792H347.234L343.474 102.262L347.393 109H343.608L341.252 104.85L338.909 109H335.112L339.031 102.262L335.283 95.792H339.067L341.24 99.7349Z" fill="#313131"/>
<path d="M353.862 104.007L356.304 95.792H360.088L354.778 111.051L354.485 111.747C353.695 113.472 352.393 114.334 350.579 114.334C350.066 114.334 349.545 114.257 349.016 114.103V111.429L349.553 111.441C350.221 111.441 350.717 111.34 351.042 111.136C351.376 110.933 351.637 110.595 351.824 110.123L352.239 109.037L347.612 95.792H351.409L353.862 104.007Z" fill="#313131"/>
<path d="M365.532 106.156H371.99V109H361.028V106.852L367.241 98.6484H361.211V95.792H371.794V97.8794L365.532 106.156Z" fill="#313131"/>
<path d="M11.7231 143.338H5.30225L4.08154 147H0.1875L6.80371 129.227H10.1973L16.8501 147H12.9561L11.7231 143.338ZM6.29102 140.372H10.7344L8.50049 133.719L6.29102 140.372Z" fill="#313131"/>
<path d="M18.5103 147V129.227H24.7358C26.8924 129.227 28.5282 129.642 29.6431 130.472C30.758 131.294 31.3154 132.502 31.3154 134.097C31.3154 134.968 31.0916 135.737 30.644 136.404C30.1965 137.063 29.5739 137.548 28.7764 137.857C29.6878 138.085 30.404 138.545 30.9248 139.236C31.4538 139.928 31.7183 140.774 31.7183 141.775C31.7183 143.484 31.173 144.778 30.0825 145.657C28.992 146.536 27.4377 146.984 25.4194 147H18.5103ZM22.1724 139.261V144.058H25.3096C26.1722 144.058 26.8436 143.855 27.3237 143.448C27.812 143.033 28.0562 142.463 28.0562 141.739C28.0562 140.111 27.2139 139.285 25.5293 139.261H22.1724ZM22.1724 136.673H24.8823C26.7297 136.64 27.6533 135.904 27.6533 134.463C27.6533 133.658 27.4173 133.08 26.9453 132.73C26.4814 132.372 25.745 132.193 24.7358 132.193H22.1724V136.673Z" fill="#313131"/>
<path d="M48.4297 141.08C48.2913 142.992 47.5833 144.498 46.3057 145.596C45.0361 146.695 43.3597 147.244 41.2764 147.244C38.9977 147.244 37.2033 146.479 35.8931 144.949C34.591 143.411 33.9399 141.303 33.9399 138.626V137.54C33.9399 135.831 34.241 134.325 34.8433 133.023C35.4455 131.721 36.304 130.724 37.4189 130.032C38.542 129.332 39.8441 128.982 41.3252 128.982C43.376 128.982 45.028 129.532 46.2812 130.63C47.5345 131.729 48.2588 133.271 48.4541 135.257H44.792C44.7025 134.109 44.381 133.279 43.8276 132.767C43.2824 132.246 42.4482 131.985 41.3252 131.985C40.1045 131.985 39.189 132.425 38.5786 133.304C37.9764 134.174 37.6672 135.529 37.6509 137.369V138.711C37.6509 140.632 37.9398 142.036 38.5176 142.923C39.1035 143.81 40.0231 144.253 41.2764 144.253C42.4076 144.253 43.2498 143.997 43.8032 143.484C44.3647 142.964 44.6862 142.162 44.7676 141.08H48.4297Z" fill="#313131"/>
<path d="M50.8345 147V129.227H56.3032C57.8657 129.227 59.2614 129.581 60.4902 130.289C61.7272 130.988 62.6916 131.989 63.3833 133.292C64.075 134.585 64.4209 136.058 64.4209 137.71V138.528C64.4209 140.18 64.0791 141.649 63.3955 142.935C62.7201 144.221 61.7638 145.218 60.5269 145.926C59.2899 146.634 57.8942 146.992 56.3398 147H50.8345ZM54.4966 132.193V144.058H56.2666C57.6989 144.058 58.7935 143.59 59.5503 142.654C60.3071 141.718 60.6937 140.38 60.71 138.638V137.698C60.71 135.892 60.3356 134.524 59.5869 133.597C58.8382 132.661 57.7437 132.193 56.3032 132.193H54.4966Z" fill="#313131"/>
<path d="M77.7876 139.297H70.7563V144.058H79.0083V147H67.0942V129.227H78.9839V132.193H70.7563V136.429H77.7876V139.297Z" fill="#313131"/>
<path d="M91.8501 139.737H84.8188V147H81.1567V129.227H92.729V132.193H84.8188V136.783H91.8501V139.737Z" fill="#313131"/>
<path d="M108.916 144.754C108.256 145.543 107.325 146.158 106.12 146.597C104.916 147.028 103.581 147.244 102.116 147.244C100.578 147.244 99.2272 146.91 98.0635 146.243C96.9079 145.568 96.0127 144.591 95.3779 143.313C94.7513 142.036 94.4299 140.534 94.4136 138.809V137.601C94.4136 135.826 94.7106 134.292 95.3047 132.999C95.9069 131.696 96.7695 130.704 97.8926 130.02C99.0238 129.328 100.346 128.982 101.86 128.982C103.968 128.982 105.616 129.487 106.804 130.496C107.992 131.497 108.696 132.958 108.916 134.878H105.351C105.188 133.861 104.826 133.117 104.265 132.645C103.711 132.173 102.946 131.937 101.97 131.937C100.725 131.937 99.7765 132.404 99.1255 133.34C98.4744 134.276 98.1449 135.668 98.1367 137.515V138.65C98.1367 140.514 98.4907 141.922 99.1987 142.874C99.9067 143.826 100.944 144.302 102.312 144.302C103.687 144.302 104.667 144.009 105.253 143.423V140.359H101.921V137.662H108.916V144.754Z" fill="#313131"/>
<path d="M126.359 147H122.697V139.383H115.556V147H111.894V129.227H115.556V136.429H122.697V129.227H126.359V147Z" fill="#313131"/>
<path d="M133.464 147H129.802V129.227H133.464V147Z" fill="#313131"/>
<path d="M144.035 129.227H147.697V141.531C147.697 142.662 147.445 143.663 146.94 144.534C146.444 145.397 145.74 146.064 144.829 146.536C143.917 147.008 142.888 147.244 141.74 147.244C139.86 147.244 138.396 146.768 137.346 145.816C136.296 144.856 135.771 143.501 135.771 141.751H139.458C139.458 142.622 139.641 143.265 140.007 143.68C140.373 144.095 140.951 144.302 141.74 144.302C142.44 144.302 142.998 144.062 143.413 143.582C143.828 143.102 144.035 142.418 144.035 141.531V129.227Z" fill="#313131"/>
<path d="M156.401 139.871L154.497 141.922V147H150.834V129.227H154.497V137.283L156.108 135.074L160.637 129.227H165.141L158.83 137.125L165.324 147H160.966L156.401 139.871Z" fill="#313131"/>
<path d="M170.366 144.058H178.142V147H166.704V129.227H170.366V144.058Z" fill="#313131"/>
<path d="M185.039 129.227L189.604 142.117L194.145 129.227H198.955V147H195.28V142.142L195.646 133.755L190.849 147H188.334L183.549 133.768L183.916 142.142V147H180.253V129.227H185.039Z" fill="#313131"/>
<path d="M216.606 147H212.944L205.815 135.306V147H202.153V129.227H205.815L212.956 140.945V129.227H216.606V147Z" fill="#313131"/>
<path d="M234.404 138.516C234.404 140.266 234.095 141.8 233.476 143.118C232.858 144.437 231.971 145.454 230.815 146.17C229.667 146.886 228.349 147.244 226.86 147.244C225.387 147.244 224.073 146.89 222.917 146.182C221.761 145.474 220.866 144.465 220.231 143.155C219.597 141.836 219.275 140.323 219.267 138.614V137.735C219.267 135.985 219.58 134.447 220.207 133.121C220.842 131.786 221.733 130.765 222.88 130.057C224.036 129.34 225.354 128.982 226.835 128.982C228.317 128.982 229.631 129.34 230.778 130.057C231.934 130.765 232.825 131.786 233.452 133.121C234.086 134.447 234.404 135.981 234.404 137.723V138.516ZM230.693 137.71C230.693 135.847 230.359 134.431 229.692 133.462C229.025 132.494 228.072 132.01 226.835 132.01C225.607 132.01 224.659 132.49 223.991 133.45C223.324 134.402 222.986 135.802 222.978 137.649V138.516C222.978 140.331 223.312 141.739 223.979 142.74C224.646 143.741 225.607 144.241 226.86 144.241C228.089 144.241 229.033 143.761 229.692 142.801C230.351 141.832 230.685 140.424 230.693 138.577V137.71Z" fill="#313131"/>
<path d="M240.727 140.738V147H237.065V129.227H243.999C245.333 129.227 246.505 129.471 247.514 129.959C248.531 130.447 249.313 131.143 249.858 132.046C250.403 132.942 250.676 133.963 250.676 135.11C250.676 136.852 250.078 138.227 248.881 139.236C247.693 140.237 246.045 140.738 243.938 140.738H240.727ZM240.727 137.771H243.999C244.967 137.771 245.703 137.544 246.208 137.088C246.721 136.632 246.977 135.981 246.977 135.135C246.977 134.264 246.721 133.56 246.208 133.023C245.695 132.486 244.987 132.209 244.084 132.193H240.727V137.771Z" fill="#313131"/>
<path d="M267.778 138.516C267.778 140.176 267.509 141.621 266.972 142.85C266.435 144.07 265.69 145.051 264.738 145.792L267.692 148.111L265.361 150.174L261.577 147.134C261.145 147.208 260.698 147.244 260.234 147.244C258.761 147.244 257.447 146.89 256.291 146.182C255.135 145.474 254.24 144.465 253.605 143.155C252.971 141.836 252.649 140.323 252.641 138.614V137.735C252.641 135.985 252.954 134.447 253.581 133.121C254.216 131.786 255.107 130.765 256.254 130.057C257.41 129.34 258.728 128.982 260.209 128.982C261.691 128.982 263.005 129.34 264.152 130.057C265.308 130.765 266.199 131.786 266.826 133.121C267.46 134.447 267.778 135.981 267.778 137.723V138.516ZM264.067 137.71C264.067 135.847 263.733 134.431 263.066 133.462C262.399 132.494 261.446 132.01 260.209 132.01C258.981 132.01 258.033 132.49 257.365 133.45C256.698 134.402 256.36 135.802 256.352 137.649V138.516C256.352 140.331 256.686 141.739 257.353 142.74C258.02 143.741 258.981 144.241 260.234 144.241C261.463 144.241 262.407 143.761 263.066 142.801C263.725 141.832 264.059 140.424 264.067 138.577V137.71Z" fill="#313131"/>
<path d="M277.043 140.494H274.125V147H270.463V129.227H277.067C279.167 129.227 280.786 129.694 281.926 130.63C283.065 131.566 283.635 132.889 283.635 134.598C283.635 135.81 283.37 136.823 282.841 137.637C282.32 138.443 281.527 139.086 280.461 139.566L284.306 146.829V147H280.375L277.043 140.494ZM274.125 137.527H277.08C277.999 137.527 278.711 137.295 279.216 136.832C279.72 136.36 279.973 135.713 279.973 134.891C279.973 134.052 279.733 133.393 279.252 132.913C278.78 132.433 278.052 132.193 277.067 132.193H274.125V137.527Z" fill="#313131"/>
<path d="M295.646 142.337C295.646 141.645 295.402 141.116 294.914 140.75C294.426 140.376 293.547 139.985 292.277 139.578C291.008 139.163 290.003 138.756 289.262 138.357C287.244 137.267 286.235 135.798 286.235 133.951C286.235 132.99 286.503 132.136 287.041 131.387C287.586 130.63 288.363 130.04 289.372 129.617C290.389 129.194 291.529 128.982 292.79 128.982C294.06 128.982 295.191 129.214 296.184 129.678C297.176 130.134 297.945 130.781 298.491 131.619C299.044 132.457 299.321 133.41 299.321 134.476H295.659C295.659 133.662 295.402 133.031 294.89 132.583C294.377 132.128 293.657 131.9 292.729 131.9C291.834 131.9 291.138 132.091 290.642 132.474C290.145 132.848 289.897 133.344 289.897 133.963C289.897 134.541 290.186 135.025 290.764 135.416C291.35 135.806 292.208 136.172 293.339 136.514C295.423 137.141 296.94 137.918 297.893 138.846C298.845 139.773 299.321 140.929 299.321 142.312C299.321 143.851 298.739 145.059 297.575 145.938C296.411 146.809 294.845 147.244 292.875 147.244C291.508 147.244 290.263 146.996 289.14 146.5C288.017 145.995 287.159 145.307 286.564 144.437C285.979 143.566 285.686 142.557 285.686 141.409H289.36C289.36 143.37 290.532 144.351 292.875 144.351C293.746 144.351 294.426 144.176 294.914 143.826C295.402 143.468 295.646 142.972 295.646 142.337Z" fill="#313131"/>
<path d="M315.19 132.193H309.746V147H306.083V132.193H300.712V129.227H315.19V132.193Z" fill="#313131"/>
<path d="M330.742 129.227V140.933C330.742 142.878 330.131 144.416 328.911 145.547C327.698 146.679 326.038 147.244 323.93 147.244C321.855 147.244 320.207 146.695 318.986 145.596C317.766 144.498 317.143 142.988 317.119 141.067V129.227H320.781V140.958C320.781 142.121 321.057 142.972 321.611 143.509C322.172 144.038 322.945 144.302 323.93 144.302C325.989 144.302 327.035 143.22 327.067 141.055V129.227H330.742Z" fill="#313131"/>
<path d="M340.312 142.593L344.34 129.227H348.417L342.229 147H338.408L332.243 129.227H336.308L340.312 142.593Z" fill="#313131"/>
<path d="M363.945 141.873L366.337 129.227H369.987L366.044 147H362.358L359.465 135.11L356.572 147H352.885L348.942 129.227H352.592L354.997 141.849L357.927 129.227H361.027L363.945 141.873Z" fill="#313131"/>
<path d="M378.337 135.354L381.669 129.227H385.881L380.705 138.04L386.015 147H381.755L378.337 140.774L374.919 147H370.659L375.969 138.04L370.793 129.227H375.004L378.337 135.354Z" fill="#313131"/>
<path d="M393.999 137.234L397.697 129.227H401.701L395.866 140.555V147H392.143V140.555L386.308 129.227H390.324L393.999 137.234Z" fill="#313131"/>
<path d="M407.207 144.058H416.167V147H402.629V144.852L411.418 132.193H402.641V129.227H415.971V131.326L407.207 144.058Z" fill="#313131"/>
<path d="M52.2144 63.6514C52.2144 66.109 51.7057 67.9889 50.6885 69.291C49.6712 70.5931 48.182 71.2441 46.2207 71.2441C44.2839 71.2441 42.8027 70.6053 41.7773 69.3276C40.752 68.05 40.2271 66.2189 40.2026 63.8345V60.563C40.2026 58.0809 40.7153 56.1969 41.7407 54.9111C42.7743 53.6253 44.2594 52.9824 46.1963 52.9824C48.1331 52.9824 49.6143 53.6213 50.6396 54.8989C51.665 56.1685 52.1899 57.9954 52.2144 60.3799V63.6514ZM48.6865 60.0625C48.6865 58.5895 48.4831 57.5194 48.0762 56.8521C47.6774 56.1766 47.0508 55.8389 46.1963 55.8389C45.3662 55.8389 44.7518 56.1603 44.353 56.8032C43.9624 57.438 43.7549 58.4349 43.7305 59.7939V64.1152C43.7305 65.5638 43.9258 66.6421 44.3164 67.3501C44.7152 68.05 45.3499 68.3999 46.2207 68.3999C47.0833 68.3999 47.7059 68.0622 48.0884 67.3867C48.4709 66.7113 48.6702 65.6777 48.6865 64.2861V60.0625Z" fill="#313131"/>
<path d="M63.1763 71H59.6484V57.4014L55.437 58.7075V55.8389L62.7979 53.2021H63.1763V71Z" fill="#313131"/>
<path d="M81.145 71H68.9624V68.583L74.7119 62.4551C75.5013 61.5924 76.0832 60.8397 76.4575 60.1968C76.84 59.5539 77.0312 58.9435 77.0312 58.3657C77.0312 57.5763 76.8319 56.9578 76.4331 56.5103C76.0343 56.0545 75.4647 55.8267 74.7241 55.8267C73.9266 55.8267 73.2959 56.1034 72.832 56.6567C72.3763 57.202 72.1484 57.9222 72.1484 58.8174H68.6084C68.6084 57.735 68.8647 56.7463 69.3774 55.8511C69.8983 54.9559 70.6307 54.256 71.5747 53.7515C72.5187 53.2388 73.5889 52.9824 74.7852 52.9824C76.6162 52.9824 78.0363 53.4219 79.0454 54.3008C80.0627 55.1797 80.5713 56.4207 80.5713 58.0239C80.5713 58.9028 80.3434 59.798 79.8877 60.7095C79.432 61.6209 78.6507 62.6829 77.5439 63.8955L73.5034 68.1558H81.145V71Z" fill="#313131"/>
<path d="M86.9067 60.5508H88.7866C89.6818 60.5508 90.3451 60.327 90.7764 59.8794C91.2077 59.4318 91.4233 58.8377 91.4233 58.0972C91.4233 57.381 91.2077 56.8236 90.7764 56.4248C90.3532 56.026 89.7673 55.8267 89.0186 55.8267C88.3431 55.8267 87.7775 56.0138 87.3218 56.3882C86.866 56.7544 86.6382 57.2345 86.6382 57.8286H83.1104C83.1104 56.9009 83.3586 56.0708 83.855 55.3384C84.3595 54.5978 85.0594 54.02 85.9546 53.605C86.8579 53.1899 87.8507 52.9824 88.9331 52.9824C90.813 52.9824 92.286 53.4341 93.3521 54.3374C94.4181 55.2326 94.9512 56.4696 94.9512 58.0483C94.9512 58.8621 94.703 59.6108 94.2065 60.2944C93.7101 60.978 93.0591 61.5029 92.2534 61.8691C93.2544 62.2272 93.999 62.7643 94.4873 63.4805C94.9837 64.1966 95.2319 65.043 95.2319 66.0195C95.2319 67.5983 94.6541 68.8638 93.4985 69.8159C92.3511 70.7681 90.8293 71.2441 88.9331 71.2441C87.159 71.2441 85.7064 70.7762 84.5752 69.8403C83.4521 68.9045 82.8906 67.6675 82.8906 66.1294H86.4185C86.4185 66.7967 86.6667 67.342 87.1631 67.7651C87.6676 68.1883 88.2861 68.3999 89.0186 68.3999C89.8568 68.3999 90.5119 68.1802 90.9839 67.7407C91.464 67.2931 91.7041 66.7031 91.7041 65.9707C91.7041 64.1966 90.7275 63.3096 88.7744 63.3096H86.9067V60.5508Z" fill="#313131"/>
<path d="M108.11 64.3105H110.125V67.1548H108.11V71H104.583V67.1548H97.2949L97.1362 64.9331L104.546 53.2266H108.11V64.3105ZM100.652 64.3105H104.583V58.0361L104.351 58.439L100.652 64.3105Z" fill="#313131"/>
<path d="M112.554 62.2598L113.579 53.2266H123.54V56.1685H116.472L116.033 59.9893C116.871 59.5417 117.762 59.3179 118.706 59.3179C120.399 59.3179 121.725 59.8428 122.686 60.8926C123.646 61.9424 124.126 63.4113 124.126 65.2993C124.126 66.4468 123.882 67.4762 123.394 68.3877C122.913 69.291 122.222 69.995 121.318 70.4995C120.415 70.9959 119.349 71.2441 118.12 71.2441C117.046 71.2441 116.049 71.0285 115.129 70.5972C114.21 70.1577 113.481 69.5433 112.944 68.7539C112.415 67.9645 112.135 67.0653 112.102 66.0562H115.593C115.667 66.7967 115.923 67.3745 116.362 67.7896C116.81 68.1965 117.392 68.3999 118.108 68.3999C118.905 68.3999 119.52 68.1151 119.951 67.5454C120.382 66.9676 120.598 66.1538 120.598 65.104C120.598 64.0949 120.35 63.3218 119.854 62.7847C119.357 62.2476 118.653 61.979 117.742 61.979C116.903 61.979 116.224 62.1987 115.703 62.6382L115.361 62.9556L112.554 62.2598Z" fill="#313131"/>
<path d="M135.955 53.0435V55.9487H135.613C134.018 55.9731 132.732 56.3882 131.755 57.1938C130.787 57.9995 130.205 59.1185 130.01 60.5508C130.954 59.5905 132.146 59.1104 133.586 59.1104C135.133 59.1104 136.361 59.6637 137.273 60.7705C138.184 61.8773 138.64 63.334 138.64 65.1406C138.64 66.2962 138.388 67.342 137.883 68.2778C137.387 69.2137 136.679 69.9421 135.759 70.4629C134.848 70.9837 133.814 71.2441 132.659 71.2441C130.787 71.2441 129.273 70.5931 128.118 69.291C126.97 67.9889 126.396 66.2515 126.396 64.0786V62.8091C126.396 60.8804 126.759 59.1795 127.483 57.7065C128.215 56.2254 129.261 55.082 130.62 54.2764C131.987 53.4626 133.57 53.0516 135.369 53.0435H135.955ZM132.512 61.9424C131.943 61.9424 131.426 62.0929 130.962 62.394C130.498 62.687 130.156 63.0776 129.937 63.5659V64.6401C129.937 65.8201 130.168 66.7438 130.632 67.4111C131.096 68.0703 131.747 68.3999 132.585 68.3999C133.342 68.3999 133.953 68.1029 134.417 67.5088C134.889 66.9066 135.125 66.1294 135.125 65.1772C135.125 64.2088 134.889 63.4276 134.417 62.8335C133.944 62.2394 133.31 61.9424 132.512 61.9424Z" fill="#313131"/>
<path d="M152.825 55.2041L145.952 71H142.229L149.114 56.083H140.276V53.2266H152.825V55.2041Z" fill="#313131"/>
<path d="M166.68 57.9507C166.68 58.8133 166.464 59.5783 166.033 60.2456C165.601 60.9129 165.007 61.446 164.25 61.8447C165.113 62.2598 165.797 62.8335 166.301 63.5659C166.806 64.2902 167.058 65.1447 167.058 66.1294C167.058 67.7082 166.521 68.9574 165.447 69.877C164.373 70.7884 162.912 71.2441 161.064 71.2441C159.217 71.2441 157.752 70.7843 156.67 69.8647C155.588 68.9451 155.046 67.7 155.046 66.1294C155.046 65.1447 155.299 64.2861 155.803 63.5537C156.308 62.8213 156.987 62.2516 157.842 61.8447C157.085 61.446 156.491 60.9129 156.06 60.2456C155.636 59.5783 155.425 58.8133 155.425 57.9507C155.425 56.437 155.929 55.2326 156.938 54.3374C157.948 53.4341 159.319 52.9824 161.052 52.9824C162.778 52.9824 164.145 53.43 165.154 54.3252C166.171 55.2122 166.68 56.4207 166.68 57.9507ZM163.518 65.873C163.518 65.0999 163.294 64.4814 162.847 64.0176C162.399 63.5537 161.797 63.3218 161.04 63.3218C160.291 63.3218 159.693 63.5537 159.246 64.0176C158.798 64.4733 158.574 65.0918 158.574 65.873C158.574 66.6299 158.794 67.2402 159.233 67.7041C159.673 68.168 160.283 68.3999 161.064 68.3999C161.829 68.3999 162.428 68.1761 162.859 67.7285C163.298 67.2809 163.518 66.6624 163.518 65.873ZM163.152 58.1216C163.152 57.4299 162.969 56.8765 162.603 56.4614C162.236 56.0382 161.72 55.8267 161.052 55.8267C160.393 55.8267 159.88 56.0301 159.514 56.437C159.148 56.8439 158.965 57.4054 158.965 58.1216C158.965 58.8296 159.148 59.3993 159.514 59.8306C159.88 60.2619 160.397 60.4775 161.064 60.4775C161.732 60.4775 162.244 60.2619 162.603 59.8306C162.969 59.3993 163.152 58.8296 163.152 58.1216Z" fill="#313131"/>
<path d="M177.703 63.8955C176.783 64.7988 175.709 65.2505 174.48 65.2505C172.909 65.2505 171.652 64.7134 170.708 63.6392C169.764 62.5568 169.292 61.1001 169.292 59.269C169.292 58.1053 169.544 57.0392 170.049 56.0708C170.562 55.0942 171.274 54.3374 172.185 53.8003C173.097 53.255 174.122 52.9824 175.261 52.9824C176.433 52.9824 177.475 53.2754 178.386 53.8613C179.298 54.4473 180.006 55.2896 180.51 56.3882C181.015 57.4868 181.271 58.7441 181.279 60.1602V61.4663C181.279 64.4285 180.543 66.756 179.07 68.4487C177.597 70.1414 175.509 71.0448 172.808 71.1587L171.941 71.1709V68.229L172.722 68.2168C175.79 68.0785 177.45 66.638 177.703 63.8955ZM175.347 62.5527C175.916 62.5527 176.405 62.4062 176.812 62.1133C177.227 61.8203 177.54 61.4663 177.751 61.0513V59.5986C177.751 58.4023 177.524 57.4746 177.068 56.8154C176.612 56.1562 176.002 55.8267 175.237 55.8267C174.529 55.8267 173.947 56.1522 173.491 56.8032C173.035 57.4461 172.808 58.2559 172.808 59.2324C172.808 60.2008 173.027 60.9984 173.467 61.625C173.914 62.2435 174.541 62.5527 175.347 62.5527Z" fill="#313131"/>
<path d="M193.767 65.5435H190.837L190.422 53.2266H194.182L193.767 65.5435ZM192.302 67.4722C192.896 67.4722 193.372 67.6471 193.73 67.9971C194.097 68.347 194.28 68.7946 194.28 69.3398C194.28 69.877 194.097 70.3205 193.73 70.6704C193.372 71.0203 192.896 71.1953 192.302 71.1953C191.716 71.1953 191.24 71.0203 190.874 70.6704C190.516 70.3205 190.337 69.877 190.337 69.3398C190.337 68.8027 190.516 68.3592 190.874 68.0093C191.24 67.6512 191.716 67.4722 192.302 67.4722Z" fill="#313131"/>
<path d="M216.985 64.457C216.895 66.5404 216.379 68.1965 215.435 69.4253C214.499 70.646 213.237 71.2563 211.65 71.2563C210.951 71.2563 210.344 71.1058 209.832 70.8047C209.327 70.5036 208.944 70.0723 208.684 69.5107C207.87 70.6501 206.808 71.2197 205.498 71.2197C204.31 71.2197 203.39 70.7192 202.739 69.7183C202.088 68.7173 201.844 67.3949 202.007 65.751C202.153 64.4082 202.491 63.216 203.02 62.1743C203.557 61.1245 204.233 60.3188 205.046 59.7573C205.86 59.1958 206.739 58.915 207.683 58.915C208.847 58.915 209.84 59.1836 210.662 59.7207L211.431 60.2456L210.808 67.3013C210.727 67.9442 210.796 68.4365 211.016 68.7783C211.243 69.1201 211.602 69.291 212.09 69.291C212.839 69.291 213.465 68.8556 213.97 67.9849C214.474 67.106 214.751 65.9585 214.8 64.5425C214.938 61.7023 214.364 59.5213 213.079 57.9995C211.801 56.4696 209.905 55.7046 207.39 55.7046C205.819 55.7046 204.42 56.1034 203.191 56.9009C201.962 57.6984 200.994 58.8337 200.286 60.3066C199.578 61.7715 199.179 63.452 199.089 65.3481C198.959 68.229 199.537 70.4548 200.823 72.0254C202.109 73.6042 204.033 74.3936 206.597 74.3936C207.272 74.3936 207.98 74.3162 208.721 74.1616C209.461 74.0151 210.1 73.8158 210.637 73.5635L211.101 75.4434C210.605 75.7689 209.933 76.0293 209.087 76.2246C208.249 76.4281 207.402 76.5298 206.548 76.5298C204.399 76.5298 202.568 76.0944 201.055 75.2236C199.541 74.361 198.41 73.0833 197.661 71.3906C196.921 69.7061 196.599 67.6919 196.697 65.3481C196.794 63.1021 197.307 61.0879 198.235 59.3057C199.163 57.5234 200.424 56.1481 202.019 55.1797C203.622 54.2031 205.429 53.7148 207.439 53.7148C209.482 53.7148 211.239 54.1543 212.712 55.0332C214.185 55.904 215.288 57.1532 216.021 58.7808C216.753 60.4084 217.074 62.3005 216.985 64.457ZM204.717 65.751C204.627 66.8252 204.721 67.6431 204.998 68.2046C205.274 68.758 205.722 69.0347 206.34 69.0347C206.739 69.0347 207.118 68.8597 207.476 68.5098C207.834 68.1598 208.131 67.6553 208.367 66.9961L208.879 61.2222C208.562 61.1164 208.236 61.0635 207.903 61.0635C206.967 61.0635 206.239 61.4622 205.718 62.2598C205.205 63.0573 204.871 64.221 204.717 65.751Z" fill="#313131"/>
<path d="M226.165 65.9951H223.809L222.93 71H220.696L221.575 65.9951H218.804V63.8955H221.941L222.551 60.4287H219.719V58.3047H222.93L223.821 53.2266H226.042L225.151 58.3047H227.52L228.411 53.2266H230.645L229.753 58.3047H232.427V60.4287H229.375L228.765 63.8955H231.499V65.9951H228.398L227.52 71H225.286L226.165 65.9951ZM224.175 63.8955H226.531L227.141 60.4287H224.773L224.175 63.8955Z" fill="#313131"/>
<path d="M242.559 66.3247C242.559 65.6574 242.371 65.1284 241.997 64.7378C241.631 64.339 241.004 63.9728 240.117 63.6392C239.23 63.3055 238.465 62.9759 237.822 62.6504C237.179 62.3167 236.626 61.9383 236.162 61.5151C235.706 61.0838 235.348 60.5793 235.088 60.0015C234.836 59.4237 234.709 58.736 234.709 57.9385C234.709 56.5632 235.149 55.436 236.028 54.5571C236.907 53.6782 238.075 53.1655 239.531 53.019V50.4067H241.484V53.0557C242.925 53.2591 244.052 53.8613 244.866 54.8623C245.68 55.8551 246.086 57.145 246.086 58.7319H242.559C242.559 57.7554 242.355 57.027 241.948 56.5469C241.549 56.0586 241.012 55.8145 240.337 55.8145C239.67 55.8145 239.153 56.0057 238.787 56.3882C238.42 56.7625 238.237 57.2834 238.237 57.9507C238.237 58.5692 238.416 59.0656 238.774 59.4399C239.132 59.8143 239.796 60.1968 240.764 60.5874C241.741 60.978 242.542 61.3483 243.169 61.6982C243.796 62.04 244.325 62.4307 244.756 62.8701C245.187 63.3014 245.517 63.7979 245.745 64.3594C245.972 64.9128 246.086 65.5597 246.086 66.3003C246.086 67.6838 245.655 68.8068 244.792 69.6694C243.93 70.5321 242.742 71.0407 241.228 71.1953V73.6245H239.287V71.2075C237.619 71.0285 236.325 70.4385 235.405 69.4375C234.494 68.4284 234.038 67.0897 234.038 65.4214H237.566C237.566 66.3898 237.794 67.1344 238.25 67.6553C238.713 68.168 239.377 68.4243 240.239 68.4243C240.955 68.4243 241.521 68.2371 241.936 67.8628C242.351 67.4803 242.559 66.9676 242.559 66.3247Z" fill="#313131"/>
<path d="M248.43 56.6445C248.43 55.554 248.784 54.6711 249.492 53.9956C250.2 53.312 251.128 52.9702 252.275 52.9702C253.439 52.9702 254.375 53.3079 255.083 53.9834C255.791 54.6507 256.145 55.5581 256.145 56.7056V57.5845C256.145 58.6831 255.791 59.5661 255.083 60.2334C254.375 60.9007 253.447 61.2344 252.3 61.2344C251.144 61.2344 250.208 60.9007 249.492 60.2334C248.784 59.5579 248.43 58.6506 248.43 57.5112V56.6445ZM250.774 57.5845C250.774 58.0728 250.912 58.4674 251.189 58.7686C251.474 59.0615 251.844 59.208 252.3 59.208C252.756 59.208 253.118 59.0575 253.386 58.7563C253.655 58.4552 253.789 58.0524 253.789 57.5479V56.6445C253.789 56.1562 253.655 55.7616 253.386 55.4604C253.118 55.1593 252.747 55.0088 252.275 55.0088C251.828 55.0088 251.466 55.1593 251.189 55.4604C250.912 55.7534 250.774 56.1644 250.774 56.6934V57.5845ZM256.926 66.6421C256.926 65.5435 257.284 64.6605 258 63.9932C258.717 63.3177 259.644 62.98 260.784 62.98C261.939 62.98 262.871 63.3136 263.579 63.981C264.295 64.6401 264.653 65.5516 264.653 66.7153V67.5942C264.653 68.6847 264.303 69.5677 263.604 70.2432C262.904 70.9105 261.972 71.2441 260.808 71.2441C259.636 71.2441 258.696 70.9064 257.988 70.231C257.28 69.5555 256.926 68.6603 256.926 67.5454V66.6421ZM259.27 67.5942C259.27 68.0418 259.417 68.4243 259.709 68.7417C260.002 69.0591 260.369 69.2178 260.808 69.2178C261.801 69.2178 262.297 68.6685 262.297 67.5698V66.6421C262.297 66.1538 262.159 65.7632 261.882 65.4702C261.606 65.1691 261.239 65.0186 260.784 65.0186C260.328 65.0186 259.962 65.1691 259.685 65.4702C259.408 65.7632 259.27 66.166 259.27 66.6787V67.5942ZM252.996 69.6694L251.274 68.7417L259.954 54.8501L261.675 55.7778L252.996 69.6694Z" fill="#313131"/>
<path d="M271.196 56.5225L269.072 62.1011H266.265L269.915 53.2266H272.478L276.128 62.1011H273.333L271.196 56.5225Z" fill="#313131"/>
<path d="M277.532 66.2148C277.532 65.3929 277.76 64.632 278.215 63.9321C278.679 63.2323 279.526 62.4551 280.754 61.6006C280.225 60.8926 279.81 60.2293 279.509 59.6108C279.208 58.9842 279.058 58.3332 279.058 57.6577C279.058 56.2743 279.493 55.1512 280.364 54.2886C281.243 53.4178 282.423 52.9824 283.904 52.9824C285.23 52.9824 286.317 53.3771 287.163 54.1665C288.018 54.9559 288.445 55.9406 288.445 57.1206C288.445 58.5366 287.729 59.7858 286.296 60.8682L284.929 61.8569L287.993 65.4214C288.473 64.4774 288.713 63.4357 288.713 62.2964H291.716C291.716 64.6076 291.183 66.4793 290.117 67.9116L292.778 71H288.774L287.859 69.9502C286.549 70.8128 285.043 71.2441 283.342 71.2441C281.584 71.2441 280.177 70.7843 279.119 69.8647C278.061 68.937 277.532 67.7204 277.532 66.2148ZM283.513 68.4121C284.36 68.4121 285.161 68.1761 285.918 67.7041L282.415 63.6514L282.158 63.8345C281.434 64.453 281.072 65.1813 281.072 66.0195C281.072 66.7275 281.296 67.3053 281.743 67.7529C282.199 68.1924 282.789 68.4121 283.513 68.4121ZM282.219 57.6089C282.219 58.2192 282.577 58.9883 283.293 59.916L284.233 59.2935C284.714 58.9842 285.043 58.6831 285.222 58.3901C285.409 58.0972 285.503 57.7472 285.503 57.3403C285.503 56.9334 285.352 56.5794 285.051 56.2783C284.75 55.9772 284.364 55.8267 283.892 55.8267C283.387 55.8267 282.98 55.9894 282.671 56.3149C282.37 56.6405 282.219 57.0718 282.219 57.6089Z" fill="#313131"/>
<path d="M297.234 59.2568L293.401 58.1704L294.121 55.9609L297.917 57.4868L297.673 53.2266H300.066L299.822 57.5723L303.521 56.0708L304.241 58.3047L300.334 59.3911L302.898 62.6382L300.957 64.0176L298.735 60.4531L296.538 63.8955L294.597 62.5771L297.234 59.2568Z" fill="#313131"/>
<path d="M305.913 63.7734C305.913 61.9098 306.161 60.1357 306.658 58.4512C307.154 56.7666 307.887 55.2773 308.855 53.9834C309.823 52.6813 310.873 51.778 312.004 51.2734L312.688 53.1777C311.5 54.0566 310.572 55.4157 309.905 57.2549C309.237 59.0941 308.904 61.2425 308.904 63.7002V64.0786C308.904 66.5444 309.233 68.701 309.893 70.5483C310.552 72.3957 311.484 73.7751 312.688 74.6865L312.004 76.5542C310.898 76.0578 309.864 75.1789 308.904 73.9175C307.952 72.6642 307.223 71.2157 306.719 69.5718C306.214 67.9279 305.946 66.2108 305.913 64.4204V63.7734Z" fill="#313131"/>
<path d="M320.623 64.0542C320.623 65.8934 320.358 67.6634 319.829 69.3643C319.3 71.0651 318.539 72.5666 317.546 73.8687C316.554 75.1707 315.492 76.0659 314.36 76.5542L313.677 74.6865C314.832 73.8158 315.744 72.473 316.411 70.6582C317.078 68.8434 317.424 66.756 317.449 64.396V63.749C317.449 61.3158 317.115 59.1714 316.448 57.3159C315.789 55.4604 314.865 54.0688 313.677 53.1411L314.36 51.2734C315.467 51.7536 316.509 52.6243 317.485 53.8857C318.47 55.1471 319.231 56.616 319.768 58.2925C320.313 59.9689 320.598 61.7064 320.623 63.5049V64.0542Z" fill="#313131"/>
<path d="M326.238 65.5435C326.238 64.4041 326.376 63.4967 326.653 62.8213C326.93 62.1458 327.434 61.4826 328.167 60.8315C328.907 60.1724 329.399 59.6393 329.644 59.2324C329.888 58.8174 330.01 58.382 330.01 57.9263C330.01 56.5509 329.375 55.8633 328.105 55.8633C327.503 55.8633 327.019 56.0505 326.653 56.4248C326.295 56.791 326.108 57.2996 326.091 57.9507H322.551C322.568 56.3963 323.068 55.1797 324.053 54.3008C325.046 53.4219 326.396 52.9824 328.105 52.9824C329.831 52.9824 331.169 53.4015 332.122 54.2397C333.074 55.0698 333.55 56.2458 333.55 57.7676C333.55 58.4593 333.395 59.1144 333.086 59.7329C332.777 60.3433 332.236 61.0228 331.462 61.7715L330.474 62.7114C329.855 63.3055 329.501 64.0013 329.412 64.7988L329.363 65.5435H326.238ZM325.884 69.291C325.884 68.7458 326.067 68.2982 326.433 67.9482C326.807 67.5902 327.284 67.4111 327.861 67.4111C328.439 67.4111 328.911 67.5902 329.277 67.9482C329.652 68.2982 329.839 68.7458 329.839 69.291C329.839 69.8281 329.656 70.2716 329.29 70.6216C328.931 70.9715 328.455 71.1465 327.861 71.1465C327.267 71.1465 326.787 70.9715 326.421 70.6216C326.063 70.2716 325.884 69.8281 325.884 69.291Z" fill="#313131"/>
<path d="M336.821 58.6831L335.161 57.7188C335.861 56.6201 336.223 55.4849 336.248 54.313V52.25H339.055V54.1421C339.055 54.8745 338.852 55.668 338.445 56.5225C338.038 57.377 337.497 58.0972 336.821 58.6831Z" fill="#313131"/>
<path d="M342.266 58.6831L340.605 57.7188C341.305 56.6201 341.667 55.4849 341.692 54.313V52.25H344.5V54.1421C344.5 54.8745 344.296 55.668 343.889 56.5225C343.482 57.377 342.941 58.0972 342.266 58.6831ZM346.501 58.6831L344.841 57.7188C345.541 56.6201 345.903 55.4849 345.928 54.313V52.25H348.735V54.1421C348.735 54.8745 348.532 55.668 348.125 56.5225C347.718 57.377 347.177 58.0972 346.501 58.6831Z" fill="#313131"/>
<path d="M351.274 59.269C351.274 58.7075 351.462 58.2518 351.836 57.9019C352.218 57.5519 352.694 57.377 353.264 57.377C353.842 57.377 354.318 57.5519 354.692 57.9019C355.075 58.2518 355.266 58.7075 355.266 59.269C355.266 59.8224 355.079 60.2741 354.705 60.624C354.33 60.9658 353.85 61.1367 353.264 61.1367C352.686 61.1367 352.21 60.9658 351.836 60.624C351.462 60.2741 351.274 59.8224 351.274 59.269ZM352.495 75.4556L350.652 74.4912L351.091 73.6978C351.637 72.7049 351.917 71.7161 351.934 70.7314V67.9971H354.912L354.9 70.4385C354.892 71.3418 354.664 72.2533 354.216 73.1729C353.769 74.0924 353.195 74.8534 352.495 75.4556Z" fill="#313131"/>
<path d="M358.049 69.2666C358.049 68.7051 358.236 68.2493 358.611 67.8994C358.993 67.5495 359.469 67.3745 360.039 67.3745C360.617 67.3745 361.093 67.5495 361.467 67.8994C361.85 68.2493 362.041 68.7051 362.041 69.2666C362.041 69.82 361.854 70.2716 361.479 70.6216C361.105 70.9634 360.625 71.1343 360.039 71.1343C359.461 71.1343 358.985 70.9634 358.611 70.6216C358.236 70.2716 358.049 69.82 358.049 69.2666ZM358.049 59.269C358.049 58.7075 358.236 58.2518 358.611 57.9019C358.993 57.5519 359.469 57.377 360.039 57.377C360.617 57.377 361.093 57.5519 361.467 57.9019C361.85 58.2518 362.041 58.7075 362.041 59.269C362.041 59.8224 361.854 60.2741 361.479 60.624C361.105 60.9658 360.625 61.1367 360.039 61.1367C359.461 61.1367 358.985 60.9658 358.611 60.624C358.236 60.2741 358.049 59.8224 358.049 59.269Z" fill="#313131"/>
<path d="M365.85 75.4556L364.006 74.4912L364.446 73.6978C364.991 72.7049 365.272 71.7161 365.288 70.7314V67.9971H368.267L368.254 70.4385C368.246 71.3418 368.018 72.2533 367.571 73.1729C367.123 74.0924 366.549 74.8534 365.85 75.4556Z" fill="#313131"/>
<path d="M371.221 69.2666C371.221 68.7051 371.408 68.2493 371.782 67.8994C372.165 67.5495 372.641 67.3745 373.21 67.3745C373.788 67.3745 374.264 67.5495 374.639 67.8994C375.021 68.2493 375.212 68.7051 375.212 69.2666C375.212 69.82 375.025 70.2716 374.651 70.6216C374.277 70.9634 373.796 71.1343 373.21 71.1343C372.633 71.1343 372.157 70.9634 371.782 70.6216C371.408 70.2716 371.221 69.82 371.221 69.2666Z" fill="#313131"/>
</svg>
