<svg width="28" height="24" viewBox="0 0 28 24" fill="none" xmlns="http://www.w3.org/2000/svg">
<path fill-rule="evenodd" clip-rule="evenodd" d="M17.8021 2.74273C17.1915 2.74247 16.5884 2.88129 16.0365 3.14919C15.4845 3.41709 14.9974 3.80737 14.6103 4.29186C14.2232 4.77635 13.9458 5.34297 13.7981 5.95082C13.6504 6.55866 13.636 7.19257 13.7562 7.80678C13.7975 8.0196 13.789 8.23944 13.7314 8.44825C13.6738 8.65705 13.5688 8.84885 13.4248 9.00788C13.2809 9.16691 13.1023 9.28862 12.9036 9.36302C12.7049 9.43742 12.4918 9.46237 12.2818 9.43583C9.40773 9.07363 6.69838 7.86157 4.48395 5.94736C4.52538 6.77285 4.80474 7.65046 5.41023 8.5692L6.3178 9.94594L4.82746 10.5973L4.54009 10.7234C4.75395 10.9744 5.01058 11.2308 5.29796 11.4845C5.68212 11.8218 6.08853 12.1316 6.51429 12.4115L6.52899 12.4211L8.59943 13.7087L6.43409 14.8194C6.32716 14.8742 6.22023 14.9236 6.1133 14.9675C6.5789 15.3644 7.09183 15.6989 7.63973 15.963L9.49765 16.8639L7.94181 18.2407C7.09305 18.9921 6.23894 19.553 5.13088 19.8492C6.83032 20.7778 8.72701 21.2616 10.6525 21.2574C17.0763 21.2574 22.2491 15.9987 22.2491 9.55513V8.84208L22.8172 8.43207C23.7047 7.79307 24.3316 6.92918 24.7807 5.9405H21.8936L21.53 5.15888C21.1952 4.43577 20.6674 3.82492 20.0077 3.39724C19.3481 2.96957 18.5838 2.74261 17.8035 2.74273H17.8021ZM2.72494 12.7529C2.59881 12.9011 2.50524 13.0754 2.45058 13.264C2.39592 13.4525 2.38145 13.651 2.40816 13.8458C2.5592 14.9442 3.19945 15.8903 3.90786 16.613C4.10033 16.8091 4.30618 16.9969 4.52271 17.1766L4.42246 17.204C3.77954 17.3686 2.91207 17.4028 1.46717 17.2589C1.19431 17.2314 0.919817 17.2907 0.680905 17.4287C0.441994 17.5666 0.250223 17.7767 0.131595 18.0302C0.0129668 18.2838 -0.0267801 18.5687 0.0177432 18.8462C0.0622664 19.1238 0.188906 19.3806 0.380492 19.5818C1.71815 20.9845 3.31612 22.0981 5.08011 22.8569C6.8441 23.6157 8.73838 24.0044 10.6512 24C18.2873 24 24.5508 17.9171 24.905 10.2408C26.6292 8.75569 27.4914 6.74406 27.9565 4.91617C28.0082 4.71329 28.0139 4.50095 27.9731 4.29547C27.9323 4.09 27.8461 3.89686 27.7211 3.73091C27.5962 3.56497 27.4358 3.43063 27.2523 3.33825C27.0688 3.24586 26.8671 3.19787 26.6627 3.19798H23.5176C22.7483 1.97252 21.624 1.02514 20.3028 0.488973C18.9816 -0.0471982 17.5299 -0.145212 16.1516 0.208703C14.7733 0.562619 13.5377 1.35068 12.6185 2.46214C11.6993 3.5736 11.1426 4.9526 11.0268 6.40536C8.56288 5.74736 6.35835 4.32215 4.71652 2.32586C4.57112 2.1495 4.38465 2.01367 4.17441 1.93098C3.96417 1.8483 3.73698 1.82144 3.51392 1.8529C3.29086 1.88436 3.07916 1.97312 2.89847 2.11094C2.71778 2.24876 2.57395 2.43117 2.48034 2.64125C1.67034 4.45406 1.51529 6.54385 2.41885 8.6693L2.10608 8.80643C1.80678 8.93727 1.56426 9.17561 1.424 9.47678C1.28374 9.77794 1.25537 10.1212 1.3442 10.4423C1.59282 11.3364 2.15286 12.1262 2.72494 12.7529Z" fill="#313131"/>
</svg>
