<svg width="19" height="16" viewBox="0 0 19 16" fill="none" xmlns="http://www.w3.org/2000/svg">
<path fill-rule="evenodd" clip-rule="evenodd" d="M7.75688 0C6.36097 0 5.22936 1.04919 5.22936 2.34343V3.23232H2.52752C1.13161 3.23232 0 4.28151 0 5.57576V13.6566C0 14.9508 1.13161 16 2.52752 16H16.4725C17.8684 16 19 14.9508 19 13.6566V5.57576C19 4.28151 17.8684 3.23232 16.4725 3.23232H13.7706V2.34343C13.7706 1.04919 12.639 0 11.2431 0H7.75688ZM12.2018 3.23232H6.79817V2.34343C6.79817 1.85251 7.2274 1.45455 7.75688 1.45455H11.2431C11.7726 1.45455 12.2018 1.85251 12.2018 2.34343V3.23232Z" fill="#050505"/>
</svg>
