<svg width="13" height="16" viewBox="0 0 13 16" fill="none" xmlns="http://www.w3.org/2000/svg">
<path d="M10.3293 3.80952C10.3293 5.91347 8.61488 7.61905 6.5 7.61905C4.38513 7.61905 2.67068 5.91347 2.67068 3.80952C2.67068 1.70558 4.38513 0 6.5 0C8.61488 0 10.3293 1.70558 10.3293 3.80952Z" fill="#050505"/>
<path d="M1.37704 14.9588C0.08704 14.409 -0.436395 12.8591 0.417208 11.7509C1.81694 9.93371 4.02091 8.7619 6.5 8.7619C8.97909 8.7619 11.1831 9.93371 12.5828 11.7509C13.4364 12.8591 12.913 14.409 11.623 14.9588C10.0506 15.629 8.31887 16 6.5 16C4.68113 16 2.94937 15.629 1.37704 14.9588Z" fill="#050505"/>
</svg>
