<svg xmlns="http://www.w3.org/2000/svg" viewBox="0 0 216 129.25">
  <g id="logo">
    <g id="logo-color">
      <path id="brandbug" d="M149.65,76.9c.42-.62.9-1.2,1.41-1.86l.46.63A17.53,17.53,0,0,1,155,70.8c4.17-3.53,2-9,1.09-10.78l2.39-6.84h-3.11l-2.48,7.07.29.51c0,.05,3,5.32-.2,8a21.68,21.68,0,0,0-4.31,6c.78-.69,1.57-1.38,2.33-2.1.51-.49.88-.76,1.55,0a7.06,7.06,0,0,0-3.38,4,10.07,10.07,0,0,0-1.26-.24h-.1c-.33.7-.66,1.4-1,2.13l1.57.22C148.84,78.2,149.22,77.53,149.65,76.9Zm5-7.09,0,.09-.05-.08ZM153.69,71l.22,0-.1,1-.28,0C153.59,71.66,153.64,71.35,153.69,71Zm-.93-1.71s.08.05.08.07,0,.06-.06.08l-.08-.06Zm-5.07,12-2.13.67c.29-.8.59-1.59.91-2.37.42.23.8.17,1-.71l.37.26C147.82,79.88,147.75,80.61,147.69,81.3Zm-39-5.66-1.78.3c.64-.58,1.06-.91,1.06-.91S108.28,75.25,108.72,75.64Zm-.46,21.51-.53.06.27-1.77Zm.34,2.15-1.16-.23.22-1.43.32.25a.43.43,0,0,1,.37-.17Zm10.84-37,.1.1-.67.78,0,0a8.39,8.39,0,0,0-1.07,2.35A15.8,15.8,0,0,0,118,68.8l0,0,.24.13-.17.44a8.41,8.41,0,0,0,2.13,4.33,2.25,2.25,0,0,1,.91-1.73l0-.26.33-.1.07.17c1.38-.59,3.35-.1,3.35-3.17a2.16,2.16,0,0,1,.61-1.52,1.6,1.6,0,0,1,1.28-1.11l-.12.29a14.82,14.82,0,0,1,3.88-1.12l.07-.35.45,0,0,.22c3.54-.6,7.62-.88,9.3-2.16,3.24-2.47,2-7.72,2-7.72-1.33-.08-2.6-.12-3.79-.11l-.13.08-.06-.08a40.67,40.67,0,0,0-6.23.52c-.19.77-.41,1.54-.63,2.3l-.43-.18c.13-.64.26-1.3.39-2A25.2,25.2,0,0,0,126,57.32l-.19.33v-.24a17.88,17.88,0,0,0-3.54,2.08l-.74.88a2.44,2.44,0,0,1,0-.27A13.72,13.72,0,0,0,119.44,62.27Zm22.18-1.66h.1a.58.58,0,0,1-.1.12l-.08-.06Zm-2-4.49a.72.72,0,0,1,.11.19s0,.06-.06.09a1.22,1.22,0,0,1-.12-.19S139.61,56.15,139.63,56.12ZM121.7,66.36l0-.15h0l-.22-.94.36,0-.11.93v0l.19.06Zm.82,5s-.11,0-.11,0a2,2,0,0,1,0-.24s.1,0,.1.07A.82.82,0,0,1,122.52,71.32Zm1.2-3.56a4.45,4.45,0,0,1-1,.68l-.27-.17,1.09-1.64.42.18C123.86,67.13,123.9,67.54,123.72,67.76ZM123.6,65l-.14-1.45,1.33.38Zm3.32-.32,0-.07H127Zm-.39-2.63.34-.62,0,0,.09,0,.13-.2.11.07-.24.13,0,.07h0l1,.73Zm4.12,1.77v-.08l.09,0Zm-.38-3,1.43.7C130.74,62.11,130.71,62.1,130.27,60.77Zm7.42-3.39-.09,0v-.09Zm-.3,2-.53.48-.16-.17.52-.5Zm-.79-3.62.24.26c-.25.21-.49.43-.73.65l-.23-.26Zm-.77,5.6.89.34-.08.24-.93-.24Zm-.13,1.48a1.33,1.33,0,0,1,0,.36l-.41-.24.28-.4A.79.79,0,0,1,135.7,62.89Zm-.44-3.61a.87.87,0,0,1,.11.18s0,.07-.06.1a1.22,1.22,0,0,1-.12-.19S135.24,59.31,135.26,59.28Zm-.24,2c-.3.34-.6.68-.89,1l-.37-.28.81-1.1Zm-.46-1.7-.63.14,0-.29h.66Zm-.74-2s.17,0,.43,0l-.5.32A2,2,0,0,1,133.82,57.6Zm0,5.1c.05,0,.21.15.2.19a.45.45,0,0,1-.22.25c-.07,0-.18-.09-.31-.17C133.61,62.84,133.68,62.73,133.79,62.7Zm-.65-4.52c-.06,1.25-.06,1.25-2.19,1.36Zm-2.33.73-.57.75-.2-.18.6-.7Zm-.7-.42,0,.13a.4.4,0,0,1-.11,0s0,0,0-.07Zm-.53-1v.14h-.09s0-.08,0-.1S129.55,57.49,129.58,57.48Zm-.16,4.45,0,.09,0-.09Zm-.58-.63s.07.05.1.07a1.2,1.2,0,0,1-.21.13s-.07,0-.1-.08A1.43,1.43,0,0,1,128.84,61.3Zm-1.13-.86s.08,0,.12,0l-.1.24-.18-.12A.75.75,0,0,1,127.71,60.44Zm-.54-2.36.06.26-.78.18-.06-.26Zm-.88,1.34.21.91h-.3Zm.13,4.66-1,.81-.28-.28.86-.9Zm-.9-3.52.36.21-.47.68-.26-.16Zm-.41-2.48v.83l-.25,0-.07-.78Zm-1.32,1c.11,0,.2.16.3.24-.1.07-.18.17-.28.18a1.44,1.44,0,0,1-.48-.1C123.6,59.17,123.71,59,123.79,59.05Zm.18,1.42,0,.1-.09-.11Zm-1.32.3s0,0,0,.08l-.1,0,0-.13A.4.4,0,0,1,122.65,60.77Zm-1.09,1.93,2.32-.54.12.3-2.61,1.2C121.5,63.05,121.56,62.72,121.56,62.7Zm-.17-1.34v.08l-.08,0Zm-1.56,9.58-.25-.07c0-.16.11-.32.16-.49l.13,0Zm.18-4.31c-.2.38-.37.77-.55,1.15L118,66.92A13.67,13.67,0,0,1,120.4,66l0,0,0,0h.08l0,0,0,0,0,0C120.27,66.23,120.12,66.42,120,66.63Zm.3,2.71,0-.49,0-.14.05,0v0h0l0,0v.1l.11.5Zm0-4.78v.07h-.09L117.87,66c.3-1.34.48-1.44,2.35-1.39l0,0,0,0v-.27l.19.09Zm.41-1.34s-.07,0-.09,0a.3.3,0,0,1,0-.1l.15,0Zm26.92,21.86-2.57-1.66c.13-.37.24-.75.37-1.12.4.23.71.43.78.37.62-.54.76-.16,1.23.29.3.28.51.47.66.64C147.94,84.09,147.78,84.59,147.64,85.08ZM113.34,87a5.11,5.11,0,0,1-.77,1.57c-.16.16-.35.34-.55.51a8.23,8.23,0,0,1,1.07,3,8.92,8.92,0,0,0,1.7-3.52h-.12l.22-.44.06-.46-2-2.36.75-.87c.32.62.61,1.08.81,1.58a1.25,1.25,0,0,0,.54.66,11.52,11.52,0,0,0-1.83-5.72l0,.08c0-.14-.11-.27-.15-.4a23.66,23.66,0,0,0-4.08-4.75c-.07.49-.16.92-.93.69-.36-.11-.73-.24-1.18-.41-.28.27-.6.57-.93.91l-.11.33-.17,0a23.07,23.07,0,0,0-2,2.5c.68,0,.8-.06,2-1.22a7.63,7.63,0,0,1-.74,1.31,9.45,9.45,0,0,1-1.23,1l-.21-.91A12,12,0,0,0,101,86.83l.17-.12.08.15-.24.08a4.84,4.84,0,0,0,0,.53l.67-.32.12.23-.75.38A8.58,8.58,0,0,0,102.91,92a6.13,6.13,0,0,1,.12-.64l-.89-.94a2,2,0,0,0,1.16,0,5,5,0,0,1,4.7-3.69,4.74,4.74,0,0,1,.86.08l.33-.5.35.66.13.06,1.18-.93c.1.75-.09,1.11-.41,1.3a4.84,4.84,0,0,1,1,.9l1.21-.15-1.09-1.78,1.37-.46-1,.85Zm.13,4.14,0-.1.06.09Zm.28-1.71.44.25c-.14.25-.27.5-.4.75l-.43-.24Zm-11.58-6.77,0-.13h0l0,0Zm.28,3.48.4-.21.05-.08.06-.06h0v0h0v0l0,0s0,0,0,0l0,0,0,.1-.09,0-.24.4Zm.35,2.69a1.27,1.27,0,0,1-.11-.3,3.68,3.68,0,0,1,.49-.23l.1.29Zm3.89-10.26,2.41.24-1.41.88-1.08-.84Zm-.13,1,.53.33-.36.51-.49-.31C106.34,79.85,106.45,79.68,106.56,79.5Zm.49,2.1a2.12,2.12,0,0,1-.2.12s0,0-.08-.08a.72.72,0,0,1,.19-.11S107,81.57,107.05,81.6ZM105.7,83v.6h-.18l-.06-.59Zm-1.39-.29.41.23-.46.23a.75.75,0,0,1-.11-.28C104.15,82.82,104.25,82.76,104.31,82.7Zm.51,2.4-.43.77c-.06-.06-.17-.13-.16-.16.11-.25.23-.48.35-.72Zm-1.2,2.35s.08-.13.14-.15.1.06.16.09,0,.08-.08.08A.82.82,0,0,1,103.62,87.45Zm.67.55-.29.55-.16-.12.42-.39,0-.09Zm3.31-3.58c0,1-1,1.25-1.6,1.82a3.5,3.5,0,0,1-1.68.91L106.45,85l-.2-.24,1.36-.31.08,0Zm.34-2.34.55-.45.16.2-.55.44Zm.37,2.34-.14-.32.57-.23.08.2Zm1,1.11-.13-.06-.16,0s0,0-.06-.06l.22.1.09,0h0v0h.09l-.08,0Zm.73.13v-.11l.2-.09s0,.1,0,.11A1.89,1.89,0,0,1,110,85.66Zm.94-3.92-.11.07-.55.93-.39-.34.94-.59.06-.1.55-.47h0l.05,0,0,.05Zm.75,2.45,0,0v.09ZM111.61,80l0,0V80l.39-.21v-.12l0,.15Zm.77,1.21,0-.08h.09Zm.52,1-.36,0,0-.06.38-.08ZM75.69,62.86a3.37,3.37,0,0,0,.37.24l.12-.59.3.14-.41.46a11.51,11.51,0,0,0,3.32,1,.21.21,0,0,1,0-.1s.08-.1.13-.15l.17.18-.1.1c1,.19,2.1.34,3.2.5l.4-.77.45.26-.46.57c.89.13,1.77.26,2.61.42l.13-.17.17.23c2.82.56,5.07,1.43,5.07,3.35,0,4.47,4.17,1.39,4.63,5.09,0,0,2.49-2.21,2.47-7.77l-2.51,1.64,0,0,.2.13-.22-.13,0,0a3.38,3.38,0,0,1,2.51-1.8v-.25S95.6,53.75,73.68,55.14C73.68,55.14,72.45,60.39,75.69,62.86Zm21,6.93s.06,0,.09.06l-.19.11s-.06,0-.09-.08A1.63,1.63,0,0,1,96.68,69.79Zm0,1.72.11.19-.65.36-.1-.17Zm1.13-7a1.21,1.21,0,0,1,0,.18l0,.06-.09,0,.06,0s0,0,0-.06l-.13-.16Zm-.54-.67-.06.09s-.08,0-.09,0,0-.07,0-.1ZM95.66,68.4l-.1.06v-.09Zm-5.42-2.48,0-.12.06.1Zm.06-1.4a.77.77,0,0,1-.72,0c-.22-.11-.52-.41-.5-.61a8.66,8.66,0,0,1,.37-1.48l.47.13a5.83,5.83,0,0,1,.48,1.09A1.09,1.09,0,0,1,90.3,64.52Zm.41,1.9.05-.15L92,66.7l-.13.3ZM92,69.36l-.22-.09c.09-.26.17-.51.26-.76l.35.15Zm1.54-1.87c-.06-.12-.16-.25-.15-.36s.16-.17.25-.26l.45.32Zm1,3.53L94.48,71l.07-.09s.08,0,.08.07S94.59,71,94.57,71Zm.67-7-1.66.38c0-.11-.07-.22-.1-.33l1.64-.46Zm-.19-3.29a.24.24,0,0,1,.06.08l-.12.06v-.11ZM93.75,62l.3-.56.16.15-.46.41-.18.53-.19-.12Zm-.44-1.89h0l0-.19,0,.21-.06.17Zm-.37,6a1,1,0,0,1-.19.25.32.32,0,0,1-.16-.09c0-.11.09-.22.15-.36C92.85,66,93,66.07,92.94,66.09Zm-.24-3.27c-.39,2.57-.39,2.57-1.74,2.53.51-.94,1-1.81,1.46-2.69Zm-.58-3s.06.06.09.09a1.32,1.32,0,0,1-.2.12S92,60,91.93,60A1.22,1.22,0,0,1,92.12,59.86Zm-.93,2.25h0c.68.23.88.52-.12,1.09,0-.49.09-.79.12-1.09h0l-.77.18,0-.24.79.06Zm-1.3-4.7.45.14c-.11.33-.23.67-.35,1l-.43-.14Zm-.45,2.24a1.55,1.55,0,0,1,.12.22s0,.07-.07.11-.09-.14-.13-.22Zm-.14,1,.44.78-.33.11-.36-.75Zm-.55,4.58,1,.58-.22.36-1-.65Zm-.51-2.38-1.34.44C87.12,62.41,87.12,62.41,88.24,62.83Zm-2-6.49h0l.06-.21,0,.22,0,0,0,.37-.19-.05.17-.32Zm-1.33,8.3s.1,0,.09.06a.78.78,0,0,1,0,.22s-.09,0-.09-.07A1.55,1.55,0,0,1,84.93,64.64ZM84,61.53a.57.57,0,0,1,0,.13s-.09,0-.09,0,0-.08,0-.12Zm-2.85,2.3.1,0v.08Zm2.18-8.19.06.07v0l-.35.13.34-.15Zm-.67,1.45s.1,0,.1.06a.78.78,0,0,1,0,.21,1,1,0,0,1-.13-.16S82.63,57.13,82.66,57.09Zm-.32,5.52c0,.06.11.13.09.18s-.1.11-.16.17-.1-.15-.1-.21S82.28,62.66,82.34,62.61Zm-.31-2-.68.44-.11-.17.67-.45Zm-.88-3.89a1.77,1.77,0,0,1,.12.17s0,.06-.07.09l-.11,0A1.66,1.66,0,0,1,81.15,56.71ZM79.56,63.3s.07,0,.08.07,0,.05-.06.08l-.08-.07Zm-.8-6,0,.08h-.09Zm-.34-2.15,0,.14-.4.07,0-.12Zm0,7.86,0,.45-1,.11-.1-.33Zm-1.31-4.12a.33.33,0,0,1-.1.06s-.06,0-.1,0l.1-.06Zm-.42-2L77,57l-.31.84-.34-.15Zm-2.21,2.74.15.12c-.15.17-.29.35-.43.52l-.16-.13ZM57.66,53.7l.2-.14.09.17a1.55,1.55,0,0,1-.23.06s0,0,0,0L59.87,60C59,61.76,56.79,67.27,61,70.8c2.43,2,5.5,8.12,7.3,14,.23-.15.46-.3.68-.46l.23.2-.79.66A25.52,25.52,0,0,1,69.72,94l-.16,1.73,1-.22,0,0h0c-.72-1.16-.6-1.7.8-3.18-.21,1.21.88,2.5-.8,3.18l0,0h0a1.64,1.64,0,0,1-.19.4l1.42-.53A29.48,29.48,0,0,1,78.63,94c-.79-1-1.62-.71-2.5-.1.63-.74,1.27-1.38,2.18-.68a1.26,1.26,0,0,1,.38.78,20.16,20.16,0,0,1,4.64.13l.53-.29a.06.06,0,0,1,0,0v0l-.22-.35-.1-.5c0-1.08,1-.44,1.36-1l.16.29-1.51.63c0,.18.07.36.11.55l.33,0-.13.37,0,0,0,0c0,.11-.07.24-.1.36a12.31,12.31,0,0,1,4.59,1.75c.17.11.33.24.5.36l1-.61c-.15.79-.22,1-.57.9a10.93,10.93,0,0,1,2.56,3.06,1.06,1.06,0,0,1,.25.11.26.26,0,0,1-.08.19c.15.29.3.59.44.91l.31-.08-.18.36A21.88,21.88,0,0,1,94,108.77l.17.17-.12.4h0q0,1.51-.06,3.18l-.24,4.09.68-.74c-.49-.25-.08-.87,0-1.32h0l-.25.24-.09-.15.34-.09,0,0v0h0l1.16.07,1-1.15c.77-.84,3.2-2.86,5.14-2.39a3.52,3.52,0,0,1,1.79,1.26c.2-.45.32-.7.42-.92l1.41.64-1.74.4c1,1.29,2.14,3.71,2.92,8.22l1.46,8.57,1.46-8.57c1.31-7.63,3.57-9.29,4.8-9.6a4.87,4.87,0,0,1,3.64,1.1l.14-.4.22.08-.12.5a9.17,9.17,0,0,1,1.26,1.11l2.86,3.14-.17-3s0,0,0,0-.07,0-.1-.07,0-.09.08-.1l0,0,0-.82-.3.07-.09-.38.37-.1c-.05-1.09-.07-2.12,0-3.12l-.28,0,.29-.3c.2-6.13,2-10.41,5.43-12.78.19-.32.38-.66.6-1.06l.36.46a12,12,0,0,1,3-1.16l.45-.25,0,.14a20.26,20.26,0,0,1,5.89-.22l0,0a1.24,1.24,0,0,1,.18-.14l.1.07-.13.1a30.25,30.25,0,0,1,3,.48l0-.15.06.16.71.16,0,0,1.83-1.14.19.32-1.67.92c1.33.34,2.17.64,2.21.65l2.23.83L146.27,94a17.92,17.92,0,0,1,.36-4.88,1.23,1.23,0,0,1-.66-.3c1.45-.83.58-1.93.46-2.84-.77.53-1.63,1.08-2.41,1.72-.07.06.3.67.48,1.07l-.87.3c-.13.72-.22,1.42-.28,2.1h0v.22h0c0,.27-.05.56-.07.82a28.85,28.85,0,0,0-10.37-.93l0,.11-.19-.07a18.22,18.22,0,0,0-1.91.34l-.09.64c-.39-.2-.55-.3-.49-.49a15,15,0,0,0-4.24,1.87A13.36,13.36,0,0,0,121.82,98l.34.06c.16,0,.26.34.39.52l1.2-.25,0,.46-1.22-.21c-.35,0-.74,0-1.08.08a16.88,16.88,0,0,0-1.09,2.44v.06h0c-.08.22-.17.42-.24.64l.48.11-.59.22c-.11.38-.19.79-.29,1.19l.22.11c-.12.19-.24.37-.37.54a30.2,30.2,0,0,0-.59,5.62,10.39,10.39,0,0,0-1.82-.78,18,18,0,0,0-.61-3.17h0l0-.07a42.69,42.69,0,0,0-2.26-6.09s.24,5.28,0,9a4.71,4.71,0,0,0-.84,0,6.22,6.22,0,0,0-3.16,2l-.75-4.83a3,3,0,0,1-.75-.07l.66-.54-.46-2.94-.21.1-.16-.25.31-.22-.34-2.24-1.34.64-.08.52.08,0-.11.21-.65,4.26.73-.21.23.15-1.16,1.54,0-.08-.38,2.45.1-.06-.11.1-.23,1.51a6.22,6.22,0,0,0-3.16-2,3,3,0,0,0-.58-.08l-.12.08-1.72-.53,1.14-1,.4.58c0-1.13,0-2.34,0-3.48l-1-.34-.06-.26,1.05-.12c0-2.18.11-3.91.11-3.91a46.05,46.05,0,0,0-2.13,5.61l.75-.35.16.46-1,.36a18.15,18.15,0,0,0-.63,3.17,10.07,10.07,0,0,0-1.52.7l.09.15-.22.17-.13-.18,0,0a.28.28,0,0,1,0-.09l-.33-.46.27-.19,0,0c0-.31,0-.6,0-.91l-.48.61c-.29-.79-.15-1.28.43-1.49,0-.24,0-.46-.07-.7h0c-.18-.18-.33-.26-.33-.35a.4.4,0,0,1,.16-.32h.07a20,20,0,0,0-2.18-7.07h0v.2l0-.22,0,0a14.14,14.14,0,0,0-1.47-2.21,2.59,2.59,0,0,1-.17.38c-.16-.09-.42-.17-.45-.29s.09-.3.21-.52a13.09,13.09,0,0,0-2.57-2.24,13.83,13.83,0,0,0-1.59-.88l.49.25-.25.44-.58-.42.21-.33c-5.59-2.63-12.3-1.42-15.62-.53a1.64,1.64,0,0,1,0-.22l-.07,0-.15-.3.19-.12c-.05-.64-.13-1.3-.23-2l-.14-.19.08-.18a46.41,46.41,0,0,0-2.64-9.13l-.39-.05.12-.46.07,0c-.41-1-.83-2-1.28-2.92l-2,1.68-.25-.3,2-1.77a29.5,29.5,0,0,0-4.26-6.73,1.07,1.07,0,0,1-1.11.13.86.86,0,0,1,.32-.9.12.12,0,0,0-.05,0c-2.39-2-1.36-5.44-.66-7.09l-.19-.09.54-1.21.25.12.15-.28-2.48-7.07H57.48Zm84,40.3s-.12-.12-.11-.15a1,1,0,0,1,.18-.18l.13.21A.59.59,0,0,1,141.67,94Zm0-2,.11.19-1.21.88-.26-.32Zm-1.76-.13.08.23-.47.1,0-.12Zm-.38,1.93-.09.07,0-.09Zm-2-.6s-.07,0-.11-.06l.1-.08h.11A.64.64,0,0,1,137.51,93.24Zm.07-1.86c.08.35.15.66.22,1L136,91.75Zm-2.25.9v.43H134v-.31Zm-3.26.53.07,0,.93-.21,0,.49-.9-.28h0l0,0ZM128.29,94s.15,0,.22,0,0,.18-.08.22-.14,0-.22,0S128.24,94,128.29,94Zm-2.36.8.5.39-1.06,1.38-.47-.41Zm-1.71,1.06V96l-.08-.09Zm-1.3,5.42c0,.08.12.16.12.24s-.1.11-.15.17a1.59,1.59,0,0,1-.13-.22A1.46,1.46,0,0,0,122.92,101.25Zm-.79.34s.06.06.07.09,0,.07,0,.1l-.07-.08Zm0,3.3-.08,0v-.08Zm-2.51,7.56s-.11,0-.11-.07a1.85,1.85,0,0,1,0-.23.8.8,0,0,1,.13.19S119.6,112.42,119.57,112.45Zm2-4.69.08.06s0,.07-.06.07,0,0-.08,0Zm0,6.89-.83.19,0-.16.83-.19Zm-.75-6.18a.4.4,0,0,1,.11,0s0,.06,0,.09l-.09.06Zm0-1-.29-.12.24-.57.2.06Zm-.43-2.66H121l-.07.35-.53-.14Zm-.52,2.79,0,.07,0-.07Zm0,2.2s.06,0,.1,0l-.16.14-.1-.06A.65.65,0,0,1,119.86,109.83Zm.51,1.19.09.32-.88.27-.12-.38Zm-3.86-1.69.39.13-.17.34c-.1,0-.23-.07-.29-.15S116.48,109.46,116.51,109.33Zm-1.83-4.92c.19-.17.4-.33.6-.49l.18.25-.76.55C114.69,104.54,114.65,104.44,114.68,104.41Zm-.55,5.1,0,.1-.06-.08Zm-2,1.61c-.2.39-.36.68-.51,1v0h-.06l-.63.24,0-.23h.67l0,0h0C111.33,111.38,111.34,111.38,112.09,111.12Zm-2.26.36a.3.3,0,0,1,0,.13s-.06,0-.09,0l-.06-.1Zm-1.75,9.42-.31-.31a2.4,2.4,0,0,1,.29-.19s.18.1.17.15A1.5,1.5,0,0,1,108.08,120.9Zm0-2.79s.07,0,.11.06a1.2,1.2,0,0,1-.21.13s-.07,0-.1-.07A.82.82,0,0,1,108.07,118.11Zm-.13-9c0-.06,0-.13.08-.19s.1,0,.1.06a2,2,0,0,1,0,.24C108,109.17,107.94,109.14,107.94,109.1Zm1,6.69-.38.87-.47-.23.46-.83Zm0-12,.07,0,0,0h0l-.15.76-.24-.1Zm-.67-2.41a.41.41,0,0,1,0,.09s0,0-.07,0l0-.09S108.27,101.4,108.29,101.38ZM107.13,104l-.14-.44,1.22-.14.07,0h.06l.29-.24.09.19-.38,0,0,0h-.09Zm.17,8.15.08.08-.09.08-.12,0Zm-.21-1.07.06.09h-.09Zm-.41,3.29.59-.14h0v0l-.6.14-.29,1.06-.48-.28Zm-2-3.85c.08,0,.17.13.26.21-.08.08-.14.2-.23.23s-.18-.08-.34-.16C104.47,110.63,104.56,110.49,104.64,110.49ZM101,105.33l.08.07s-.1.11-.15.15-.06,0-.09,0Zm-1,3.94s.09.1.13.16l-.17.12-.15-.17C99.83,109.34,99.9,109.26,100,109.27Zm-.27-1v.2h-.53v-.19Zm-.56,1.21s0,.06,0,.09l-.11.07-.06-.14A.3.3,0,0,1,99.13,109.49Zm-6.27-10,0-.09,0,.08Zm.22,2.32,0-.11,0,.21Zm2.07,9a.58.58,0,0,1-.23,0s.08-.12.14-.14.11,0,.16.09S95.17,110.84,95.15,110.84Zm-.25-1.66V109l.36-.06c0,.06,0,.18,0,.18Zm-.12-1.41.69-1.54C95.85,107.32,95.81,107.39,94.78,107.77Zm-.1-1.41s0-.09.07-.1.07,0,.11.07,0,.09-.08.09S94.71,106.38,94.68,106.36Zm.57-3.7.1.26-.48.25-.11-.2Zm-.33,1.56-.06.39-.88-.16,0-.36Zm-.64-3.29-.7.09a1.85,1.85,0,0,1,.28-.28S94,100.8,94.28,100.93Zm-.5-1-.15,0,0,0-.06,0,0,0,.12-.11Zm-.09-1.18-.29.4-.7-.62Zm-2-2.17s.07,0,.07.07,0,0-.06.08-.07,0-.07-.07S91.67,96.61,91.69,96.58Zm-1.36-2.45-.07,0V94.1Zm-1.87-.23,0,0V93.8l0,0,0,0h0l-.78.76-.22-.33Zm-2.23-1.46,0,.09H86.2Zm-11.78.24.1.28-.72.27L73.74,93ZM72.06,90.5l-.87.3L71,90.52l.76-.6Zm-1-3.64a.86.86,0,0,1,.1.16l-.22,0s0,0-.08-.07Zm-1.42-.18a1.07,1.07,0,0,1,.14.16s0,.09-.08.09a.16.16,0,0,1-.11,0A1.6,1.6,0,0,1,69.66,86.68Zm-.48-5.26h.12s-.07.1-.11.14-.07,0-.11-.06ZM68.61,83l.62.08a2.27,2.27,0,0,1-.43.3.35.35,0,0,1-.22,0A2,2,0,0,1,68.61,83Zm-1.32-3.26c0,.07.09.16.07.21s-.12.12-.19.14-.09-.07-.16-.13Zm-1.52-5.62a.93.93,0,0,1,0,.22s0,0-.07.08l-.14-.21Zm-1.08-2,.58.66-.18.15-.56-.67Zm-2.95-9.46c0,.08.11.2.1.22s-.25.18-.37.27l-.14-.23Zm-.3,7.16.12.21-.45.24-.1-.16Zm-.77-12.85V57l-.09,0Z" fill="#7a1502"/>
      <path id="dreadful" d="M147.73,48,148,48l0,.29-.31,0v.34H149a.33.33,0,0,1,.12-.14c.05,0,.16,0,.23.06l0,.08h2.43v0c0-.06.11-.12.17-.18s.08.14.1.2h.49V38.5h4.26c.1-.25.2-.51.31-.76l.52.21-.21.55h2.78V34.69h-7.66V28.53h10V24.65H147.73Zm11.55-9.57h0l.09,0Zm-.05-2.71a.44.44,0,0,1,.14.13s0,.1-.06.1a.43.43,0,0,1-.19,0Zm-4.56-.63a.4.4,0,0,1,.11,0s0,.09,0,.09a.25.25,0,0,1-.12,0S154.65,35.13,154.67,35.13Zm-2,1.85s.05,0,.08.06,0,.07-.07.07,0,0-.08-.06S152.66,37,152.69,37Zm9.73-11.67.09.39-1,.21s-.06-.24-.1-.37Zm-1.12,2.94v.22l-.56,0v-.13Zm-7.93-2.14.09.08-.08.09h-.13ZM152,43.78l-.05-.08H152Zm-.09-9.18s.09,0,.09.08,0,.06-.07.1-.09-.05-.09-.08S151.84,34.63,151.87,34.6Zm-1.92,4,0-.07H150Zm1.54-2.9c-.05-.16-.11-.33-.17-.5l.17-.06.19.5Zm-.1-8.11c.16.14.31.21.33.3s-.13.19-.22.25-.18-.08-.19-.14A1.31,1.31,0,0,1,151.39,27.58Zm-.16,3.25.13,0-.1.45-.25-.09Zm-.55-2.16.19.11s-.07.08-.09.07a.69.69,0,0,1-.19-.1Zm-.92,4.08-.44-.28.43-.66.42.24Zm.12-5.86.21.14a2.69,2.69,0,0,1-.19.32c-.06-.05-.17-.11-.16-.15A1.66,1.66,0,0,1,149.88,26.89Zm-.79-.93c.09,0,.23,0,.24,0a1,1,0,0,1,0,.34c-.13,0-.27,0-.27-.06A1.82,1.82,0,0,1,149.09,26Zm-.29.88a.77.77,0,0,1,.15.3c0,.05-.13.18-.15.17a2,2,0,0,1-.36-.26Zm-.06,17.38-.1,0,.09-.06Zm-.55-10.42s0,.05.06.08h-.2Zm.29,12.08.32.2-.86.6Zm25.23-10.94c-.52.28-1,.63-1.51,1v3.56a11.85,11.85,0,0,0,.23,2.29l0-.45h.17c0,.18,0,.35,0,.52h-.22a8.4,8.4,0,0,0,1,2.82,8.08,8.08,0,0,0,3.45,3.18c.13.07.27.11.4.17l1-.83a4.2,4.2,0,0,1-.47,1.06,11.85,11.85,0,0,0,8.85-.4,8.48,8.48,0,0,0,3.54-3.18,9.55,9.55,0,0,0,1.32-5.17V24.65h-4.21l-.1.08v-.08h-.55V32l.2.36-.2.06v3.43l.22.06-.07.12-.15-.1V39.5a5.09,5.09,0,0,1-1.27,3.73,4.84,4.84,0,0,1-3.61,1.28,4.77,4.77,0,0,1-3.57-1.28A5.09,5.09,0,0,1,177,39.5V32.56c-1,.11-1.93.31-2.82.45.39-.64.8-1.38,1.28-2.08a1.2,1.2,0,0,1,.74-.4,4.25,4.25,0,0,1,.8-.05V25.11l-.07,0c0-.19,0-.35.05-.49h-4.8v8l.39-.47.27.21-.66.85v2.11l1.38-.68Zm-.73,2,.1,0v.08Zm18.1-8.37-.06,0v-.07Zm-.31,6.2.58.2,0,.14-.62,0Zm-.87-.07s.07,0,.11.06,0,.09-.08.1-.07,0-.11-.07S189.87,34.66,189.9,34.66Zm-.61-9.43a1.42,1.42,0,0,1,.54.26c-.09.13-.17.36-.28.38s-.37-.09-.67-.18C189.08,25.46,189.19,25.23,189.29,25.23Zm-1.2,0v.15l-.1,0s0-.07,0-.09S188.06,25.24,188.09,25.23ZM185.7,43.89l.05,0h.07l0,0v0l-.16.08,0-.13h.11Zm-3.52.76L182,45h0l.24.27L182,45.1l0-.06-.1-.31Zm-.44,1.4.1.08a1,1,0,0,1-.21.14s-.07-.05-.11-.07Zm-1.46,1.22v.12h-.1s0-.07,0-.08Zm-1.38-.64a5.93,5.93,0,0,1,.83-.21l0,.49-.79.18A2.89,2.89,0,0,1,178.9,46.63Zm-5.18-1.93s-.07,0-.1-.07a1.37,1.37,0,0,1,.2-.13s.07,0,.1.07A1.37,1.37,0,0,1,173.72,44.7Zm1.66-1.31v-.12l.17-.11s0,.11,0,.12A1.86,1.86,0,0,1,175.38,43.39Zm0-2.15c0-.07,0-.17.11-.2s.13,0,.27.09Zm1.42-6.45-.95,1.78C175.22,35.5,175.22,35.5,176.76,34.79Zm-1.23,2.6-.71.36-.15-.32.72-.32Zm-.88-2.94.7.17,0,.23-.72-.18ZM174.31,39l-.32.83-.26-.09c.08-.28.17-.56.25-.85Zm1.33-10.22-.21-.29.53-.3.14.18Zm.24-3.8.22.05a2.07,2.07,0,0,0,0,.22c-.07,0-.19,0-.2,0S175.87,25.07,175.88,25Zm-1.61-.08s.11,0,.12,0a1.08,1.08,0,0,1,0,.18l-.24-.05A.67.67,0,0,1,174.27,24.91Zm.36,1.9.05,0h.06l.66-.27.06.38-.72-.11,0,0,0,0,0,0-.07,0-.76.77-.25-.46Zm-2.31,2.46-.06-.08.09,0Zm.28-1.3a.54.54,0,0,1-.19-.08.17.17,0,0,1,0-.12l.2,0Zm.05-2c-.06,0-.14-.09-.22-.14l0-.17.46.11A1.08,1.08,0,0,1,172.65,26Zm.89,3.73s.1.05.1.05a1.76,1.76,0,0,1-.09.2l-.2-.12Zm-.08,2,.76-.24.05.17-.75.27Zm34.64,7.53-.17-.17.11-.21.06,0V24.65h-4.82v24H216V44.82h-7.9Zm7,7.43.08.08-.08.07-.11,0Zm-.82-1.75h.11s0,.08,0,.08h-.11S214.27,44.87,214.28,44.87ZM212,48.54l-.07.05v-.08Zm-.49-3.19a.54.54,0,0,1,.05.11l-.08,0-.05-.11Zm-7.4-13.79s.12.09.29.24h-.61A1.91,1.91,0,0,1,204.13,31.56Zm.19,14.52,0,.09,0-.08h0c-.05,0,0,0,0,0l.15-.06-.13.06h0ZM204,38.85l1.07-1.35C205.43,38.46,205.41,38.48,204,38.85Zm1.44-8.35.72-.49.22.31-.72.5Zm1,10-.2.14-.11-.07.2-.14S206.46,40.48,206.5,40.51Zm-.36,1.35,0-.16.42-.1,0,.11Zm.56,5.64.09-.06,0,.07Zm.79-19.31a1.42,1.42,0,0,1-.38-.1l.3-.32c.07.07.17.14.2.22S207.54,28.18,207.49,28.19Zm.35,19.94-.1,0,.11-.05Zm0-1-.21,0c0-.19.05-.39.07-.58l.3.08ZM88.7,48.64l.46-1.34a.86.86,0,0,1,.32-.91l.8-2.32h9.55l1.59,4.57h.73c-.39-.88-.22-.93.91-1.13.23,1.13.29,1.15,1.73.38l-.89.1-.14-.29a5.17,5.17,0,0,1,1.38-.71l.73-.12-.32-.87,0,0,0,0-1.6-4.46-.2-.13.11-.11-6-16.62H94c-.22.9-1.29,1.34-2.18,1.93v.05l0,.46h0l0-.47,0,0L92,25.46a1.42,1.42,0,0,0,1.23-.84h-1l-1.72,4.81h0l0,.09-.12.35V30l-.07.1,0,.51-.14,0L83.65,48.64Zm15.52-3.76.21,1.46-.29,0c0-.49-.11-1-.16-1.47Zm-1.29.77.29.17-.42.73-.29-.17Zm-1-6.56-.07,0v-.07Zm-.2,2.24s0,.05,0,.08l-.1.07-.06-.14S101.74,41.32,101.78,41.33Zm.19,3s.1.16.15.24a1.61,1.61,0,0,1-.33.15s-.09-.14-.17-.24A1.06,1.06,0,0,1,102,44.35ZM87.76,46.59l-.11,0,.11,0Zm.45-3.75v-.08l.11,0Zm1.7-1.51,0-.06.08-.05,0,.07Zm2,1.4-.14-.52.21-.05.18.53Zm1.83,1.16s-.07,0-.07,0,0-.27,0-.4l.22,0ZM95,41.26l0-.09.06.08Zm1,.81v-.13s.08,0,.09,0,0,.07.07.1Zm.77.52,0-.07h.07Zm.31-.87a.93.93,0,0,1-.23,0c0-.05.07-.13.12-.14s.12,0,.18.06S97.13,41.72,97.1,41.72Zm1-.74-.15.07,0-.11h.16l0,0,.06,0Zm3.29,1.85.05.07h-.08Zm-.51-4.35v.08l-.1,0ZM100.3,33a1.3,1.3,0,0,1-.14.45l-.27,0c0-.23,0-.45,0-1C100.14,32.75,100.29,32.85,100.3,33Zm-.15.92.12.21-.48.16-.05.05.09.18-.14-.2.1,0Zm-.94,2.21V36l.07,0ZM99,32.92l.29.13c-.12.22-.23.45-.34.67l-.22-.09Zm-.11,4.35-.1.06v-.09Zm-.18,1.6s.07,0,.11.06l-.14.15L98.51,39A1.22,1.22,0,0,1,98.7,38.87Zm-1.08-5.8.23.27-.7.54-.21-.23ZM94.4,26.44l.13.14s-.08.06-.11.05-.06-.06-.09-.09Zm.66,3.74,3.47,10H91.59Zm-1.44,3.6-.88.68c-.07-.25-.17-.41-.13-.46.21-.24.44-.44.67-.66C93.39,33.49,93.5,33.64,93.62,33.78Zm-.66-2,.11,0a1.8,1.8,0,0,1-.08.21l-.1-.06Zm-1.43-4c.06,0,.13.06.19.09s0,.09-.08.09a.93.93,0,0,1-.23,0C91.45,27.93,91.48,27.84,91.53,27.83Zm1.11,1.38.06.21-1.29.29-.07-.26ZM91.2,33.94l-.09.06v-.1Zm.48,2.14.07.36-1.47.24-.07-.35ZM91,38.76s0,0,0,0l.06-.07.12-.52.21.12-.33.4,0,.1H91c-1,1.18-2.31,1.29-3.79,1ZM86.35,46a4.51,4.51,0,0,1-.52.17l-.09-.32a5,5,0,0,1,.56-.07A.51.51,0,0,1,86.35,46ZM86,43.7a.82.82,0,0,1-.19.18l-.15-.22c.07,0,.14-.11.21-.12S86,43.67,86,43.7ZM36,24.94s-.2,0-.3-.05l.11-.24H31.61v8.56a2.28,2.28,0,0,1,1.32-.53c-.66.49-.21,1.79-1.32,1.93v3.12h0V42l1.54-.35h0l-.06-.43a1.72,1.72,0,0,1,.07.21.74.74,0,0,1,0,.21h0A7.32,7.32,0,0,1,31.61,43v5.63h4.81V43.36c-.08-.08-.07-.15,0-.25V41.32h0a.81.81,0,0,0,0-.15V39.29h2.27l3.06,5.41h0v0L44,48.64h5.57l-5.74-9.73A6.94,6.94,0,0,0,49.28,32c0-.26,0-.52-.05-.78h0l-.29-.13.2-.47a6.9,6.9,0,0,0-.85-2.35,6.77,6.77,0,0,0-2.93-2.65,10.59,10.59,0,0,0-4.75-1H36.14C36.12,24.75,36.11,24.88,36,24.94Zm-3.71,4.47c0-.07-.11-.14-.1-.21s.1-.1.15-.15.1.12.09.17A.62.62,0,0,1,32.33,29.41Zm-.56,6.8.7-.21.08.31-.72.16Zm.67,4.27s-.12,0-.22-.09l.28-.3s.16.13.15.14A1.27,1.27,0,0,1,32.44,40.48Zm.65-12.84L33,27.58l.06-.09s.07,0,.08.06S33.11,27.61,33.09,27.64ZM47.27,46.49v.08l-.08,0Zm-.65.91-.77.18-.07-.21.77-.3Zm-.33-3.8.05.06h-.08Zm-.48,2.66v.07l-.07,0Zm-1.23-5.82,0,0v.09l0,0-.07.15Zm3.25-9.81,0,.1-.11-.11Zm-14-3.7a1.42,1.42,0,0,1,0,.2h0l.71-.68.17.29-.88.39,0,0h0C33.79,27.06,33.8,27,33.82,26.93ZM35,29.19,33.85,30l.58-1.06ZM33.2,45.54l-.05-.1.13,0s0,.08,0,.11S33.23,45.53,33.2,45.54Zm1-8.29.18.23-1,.52-.11-.18Zm-.79,9.16s-.06,0-.09-.07l.07-.09.09.07S33.47,46.4,33.44,46.41ZM34.38,40c0,.34,0,.5,0,.66a1.62,1.62,0,0,1-.25-.28S34.24,40.27,34.38,40Zm.21,8.46-.25-.17c.14-.21.27-.43.4-.64l.36.27ZM34.75,46h0l.17.19-.18-.2h0c.44-.12.91-.58,1.46.23ZM35.06,43c.11-.29.25-.58.39-.86l.35.2c-.11.29-.22.58-.34.87A3.08,3.08,0,0,1,35.06,43Zm1.46-3.72c0-.07,0-.18.11-.22s.14,0,.28.09Zm.84-1.3-.3-.12c0-.08.12-.25.16-.24a1.05,1.05,0,0,1,.31.17Zm2.83.14.19-.5.21.08c-.06.16-.12.32-.19.48A1.22,1.22,0,0,1,40.19,38.09Zm.5,4-.17-.15.55-.65.19.16ZM42,40.55s-.07,0-.11-.06l.07-.12.11.07S42,40.54,42,40.55Zm.62-.55-.09-.08.35-.42.2.16Zm.46-1.76.06-.05v.07Zm3-4.31s-.07,0-.1-.07,0-.09.08-.09.07,0,.1.07S46.09,33.93,46.06,33.93Zm0-5.48,0,.13-.51.12,0-.13ZM46.44,31c.1,1.43-.79,1.17-1.26,1.44l-.24-.32Zm-2.57-3.6-.81.19L43,27.38l.86-.07Zm-.94-1.52a.75.75,0,0,1,.27.13L43,26.2l-.2-.08C42.85,26.05,42.9,25.91,42.93,25.91ZM42,26s.06,0,.09.06a1.22,1.22,0,0,1-.19.12s-.06-.05-.1-.07A1,1,0,0,1,42,26Zm1.4,3.53a3.35,3.35,0,0,1,1,2.56,3.53,3.53,0,0,1-1,2.63,4,4,0,0,1-2.92.94h-4v-.35l-1.24.91a1.86,1.86,0,0,1,1.24-1.58v-6h4A4.09,4.09,0,0,1,43.36,29.55Zm-3.11-2.62,0,.08s-.06,0-.09,0-.05-.06,0-.08S40.22,26.94,40.25,26.93ZM0,24.65v1.87l.35.32L0,27V48.64H1.36l-.79,0c0-.18,0-.36,0-.54.44,0,.88.13,1.32.14s.87-.05,1.31-.07l0,.5H8a.14.14,0,0,1,0-.08,2.36,2.36,0,0,1,.25-.39c.08.19.18.31.15.39s0,0-.07.08h.12a17.69,17.69,0,0,0,1.81-.09,2.1,2.1,0,0,0,1-1.28l.41,1.06a12.87,12.87,0,0,0,2.38-.7l0,0,.12-.05v.05c.33-.13.67-.26,1-.42,0-.21,0-.41,0-.61a11.3,11.3,0,0,0,.08-1.15c0-.28-.32-.52-.49-.78-.09.29-.18.59-.28.88a3.94,3.94,0,0,1-.37.56c-.26-.72-.7-1.58-.58-1.67.62-.45.8-1.73,2-1.3-.51,1.35-.49,1.4.87,1.57.18.45.13,1.09.6,1.3a10.29,10.29,0,0,0,.87-.74l-.13.09-.27-.42.9-.6.15.21A9.45,9.45,0,0,0,19.47,43,12.34,12.34,0,0,0,21,36.68v-.17l-.07.13-.41-.2.43-.76a12.25,12.25,0,0,0-1.51-5.34,11,11,0,0,0-1.33-1.81,12.67,12.67,0,0,1-2,.58c-.26.05-.6-.3-1.05-.54a5.46,5.46,0,0,1,1.64-1,1.09,1.09,0,0,1,.4,0A11.29,11.29,0,0,0,15,26.13a14.26,14.26,0,0,0-6.65-1.48Zm19.74,8.83s.08,0,.08,0a.34.34,0,0,1,0,.1h-.08A.41.41,0,0,1,19.74,33.48Zm-.23-2.89,0,.14-.66.15,0-.14Zm.06,10.82,0,.18-1.09.25-.05-.25ZM18,32.22l.15.22c-.07,0-.14.09-.21.09s-.09-.1-.13-.16Zm-.91,5c.05,0,.14,0,.21,0s0,.18-.07.21-.15,0-.24,0S17.06,37.27,17.11,37.23ZM8.34,25v.12s-.09,0-.1,0,0-.08-.05-.11Zm-4,5.71s.07,0,.11.05l-.18.13-.1-.06A1.77,1.77,0,0,1,4.34,30.66ZM4.4,35.3l-.75.5,0,.08-.66.27.05,0-.07,0v0l.65-.28.08-.05.5-.73Zm-.91,2.94s0,.06-.05.09l-.09-.06.06-.1S3.49,38.21,3.49,38.24ZM3.06,39a1.22,1.22,0,0,1-.19.12S2.81,39,2.78,39L3,38.87Zm.65-9.37.21.4L3,30.5l-.19-.31ZM2.27,33.93l.26.11-.28.73L2,34.65ZM2.13,37h.08l-.06,0-.07.83-.27-.05C1.91,37.52,2,37.26,2.13,37Zm-.25,4.17-.07.05v-.07ZM1.38,30.5s.06,0,.09.06,0,.08-.07.08-.06,0-.09-.05S1.35,30.51,1.38,30.5Zm-.24.93h.1a.17.17,0,0,1,0,.08h-.1S1.13,31.43,1.14,31.43ZM.86,41.88A1,1,0,0,1,1,42l-.07.09s-.1,0-.1-.06S.85,42,.86,41.88ZM.58,28c-.08-.07-.17-.11-.17-.16a.27.27,0,0,1,.09-.2c.06,0,.16,0,.24,0Zm.8,15-.74-.34h.78Zm.18,1.43-.12,0a.86.86,0,0,1,.13-.14l.08.07Zm.21-.74,0,.08-.11,0Zm.13,2.56L1.74,46c.24-.15.49-.29.74-.43l.15.28ZM2.67,33l1.27-.29,0,.11-1.27.29ZM4,47.75l-.09-.34,1-.29.1.4Zm1.44-.83.91-.85C6.67,47.14,6.67,47.14,5.44,46.92Zm3-.43s-.07,0-.1-.06l.08-.1.13,0A.67.67,0,0,1,8.44,46.49Zm.43,1.82L8.58,48l.81-.61.22.25Zm.92-2.76c-.06-.14-.11-.27-.17-.4l.25-.06c0,.15,0,.29,0,.44Zm1.3.38L11,45.81l.45-.52.14.13Zm5.13-2.63-.11.42-.05,0s0,0,0,0-.06,0-.08,0l.1,0a.08.08,0,0,1,0,0l.14-.4.05-.22V43l0,0ZM16.43,42l0,.1L16.34,42Zm-.28-6.31.06.05h0v.05l.14.5-.19,0,.05-.52Zm-.82-3.35a1.74,1.74,0,0,1,.11.18s0,.06-.08.09l-.13-.19Zm.79,4.31a7.88,7.88,0,0,1-2.06,5.81,7.92,7.92,0,0,1-5.84,2.06H4.81v-.09l-.29,0h0l-1.78-.32c0-.7,0-1.58,0-2.46h.46l.12,1.48c.45.11,1-.64,1.48-.37v-1.1l-.13.07s-.09-.1-.16-.19l.29-.11V28.7H6.4v0l.11,0H8.22a7.79,7.79,0,0,1,5.84,2.12A8.05,8.05,0,0,1,16.12,36.68Zm-3.56-7.75.12.21a.63.63,0,0,1-.23.12s-.11-.06-.21-.11Zm-.81-2.07.34.25-.61.69-.26-.2Zm-2.4.33.25,0c0,.22,0,.44-.08.67l-.26-.08Zm-.35,1s.16.11.15.16-.08.2-.16.37l-.28-.32A1.54,1.54,0,0,1,9,28.19ZM116.12,33.9a3.82,3.82,0,0,1,.84.4l-.84.08v5.87h.32l0,0v-.07l-.26-.71.28,0,0,.75,0,.09h-.08l-.3.17,0,0v1.84l2-1.54.23.32-1,.49,1,.26c-.39,1.51-1.48.15-2.22.48v6.41h5.7c0-1,1-1.61,1.7-2.34-.07.28-.08.78-.22.82-.84.25-1,.88-1.13,1.52h2.34a16.68,16.68,0,0,0,3.32-.33l-.08-.23.56.12a12.73,12.73,0,0,0,2.85-1A10.67,10.67,0,0,0,135.6,43a12.34,12.34,0,0,0,1.56-6.3,12.55,12.55,0,0,0-1.56-6.34,10.61,10.61,0,0,0-4.44-4.21,14.26,14.26,0,0,0-6.65-1.48h-5.24l.12.36-.31.1-.15-.46h-2.81Zm19,7.42v.08l-.08,0Zm-.33-5.08.14.17-.41.36a1.29,1.29,0,0,1-.13-.19A4.47,4.47,0,0,1,134.78,36.24Zm-.36,7.56s0,.08-.08.08a.78.78,0,0,1-.21,0l.15-.18Zm-.37-2.27a.29.29,0,0,1,.13,0s0,.08,0,.09H134S134,41.53,134.05,41.53Zm-17.14-1.09.1,0v.07Zm.48-1.85-.76-.84C117.49,37.5,117.49,37.5,117.39,38.59Zm-.11-2.23-.4-.07.24-1.06.35.07C117.41,35.65,117.34,36,117.28,36.36Zm.09-2.61-.05-.29.94-.16,0,.19Zm.55-2,0-.07,0,.06ZM118,47.33s0-.06-.06-.08l.18-.14.08.18Zm.67-1.08a1.08,1.08,0,0,1,.18-.11s0,0,.07.08l-.18.11S118.68,46.28,118.65,46.25Zm.24,2s0,0-.08-.06,0-.07.07-.08.06,0,.08.06S118.92,48.23,118.89,48.23Zm1.63-.67,0-.09.46-.1,0,.08Zm1.45-2s-.06,0-.08-.06l.06-.09.09.07S122,45.56,122,45.56Zm1.43-.18-.75-.05v-.25h.76Zm1.4,2.06-.32-.19.14-.37a1.09,1.09,0,0,1,.33.26S124.86,47.34,124.8,47.44Zm.37-2.35,0-.05,0,0,0-.05,0,0Zm4.07,1.9s-.06,0-.09-.06,0-.1,0-.1a1.2,1.2,0,0,1,.2,0A1,1,0,0,1,129.24,47Zm.14-1.05-.36-.09.31-1.28.48.11Zm.34-2-.82-.2,0-.18.9.08Zm1.51,1.43a.64.64,0,0,1-.25-.11s0-.13,0-.2.2,0,.23.05S131.23,45.23,131.23,45.32Zm.16-2.19a1.55,1.55,0,0,1-.21,0c0-.05.08-.13.13-.14s.1.06.16.1S131.42,43.13,131.39,43.13Zm.1-1.13s-.05,0-.08-.07l.07-.08.11.11A.26.26,0,0,1,131.49,42Zm1.3-.91-.07,0,.07,0ZM125.27,26.9l.07.18-.49.19-.07-.19Zm-2.19-1.19s.07,0,.08.07,0,0-.06.08L123,25.8Zm-.67,2.64-.26.29V28.2Zm-.77-1c-.26-.53-.41-.85-.67-1.37C121.79,26.2,122.21,26.43,121.64,27.32Zm-.34.38a1.55,1.55,0,0,1-.21,0s0,0-.07-.07l.2-.14Zm-.36,9.3V33.69l-.15,0,0-.13.19-.06V28.7h3.4a7.78,7.78,0,0,1,5.84,2.12,8,8,0,0,1,2.07,5.86,11.41,11.41,0,0,1-.1,1.46l.57-.07,0,.25-.64.1a7.09,7.09,0,0,1-1.94,4.07A6.55,6.55,0,0,1,127.82,44l-1.11,1.55-.29-.17.81-1.19a10.32,10.32,0,0,1-2.89.38h-3.25l-.33.44-1,1.36-.33-.18.9-1.79-.47-.06a5.3,5.3,0,0,1,1.12-1.51V41.57a6.17,6.17,0,0,1-1.71,1.57c-.54.36-.87,1-1.51,1.38.34-.74.69-1.48,1.08-2.31l1,.18.24-.18-.59-.81,1.54-.35V37.54l-.63,1.07A1.11,1.11,0,0,1,120.94,37ZM119,40a1,1,0,0,1,.2-.12s.06,0,.1.06a2.12,2.12,0,0,1-.2.12S119,40,119,40Zm1.14.23.08.08-.08.08-.12,0Zm-.5-9.58s.1.05.1.07a1.21,1.21,0,0,1-.09.2l-.19-.13Zm0,5.41c-.29.61-.61,1.27-.92,1.94l-.25,0c.06-.72.11-1.44.16-2.18Zm-.62-3.7H119v0l0,0h0Zm-1.17-4.43h0l1-.46.08.21-1.07.25,0,0h0l-1.24,1.16C116.72,27.64,116.91,27.46,117.84,27.92ZM60.28,48.64h9.87a1.2,1.2,0,0,1,.55-.2l0,.2h1.87a1.19,1.19,0,0,1,.18-.25c.08.07.21.12.24.21s0,0,0,0H74.2V44.72H67.72l-.22.22-.25-.22H65.09V43l-.09,0,0-.1.06.07V38.36h2.34v0l.18-.16-.14.18h5.7V34.55H66.66l-.24.5a6.2,6.2,0,0,1-.37-.5h-1v-6h1.36l1.75-1.11.14.27c-.45.4-.75.66-1,.84H74.2V24.62H60.28Zm13.14-2.23,0,.06H73.4Zm-.62.85.1.2-.6.24-.07-.17Zm-4.4-1.33,1.09.75-.34.43-1-.82Zm-.64.9c-.21.46-.37.79-.59,1.25l-.85-.92Zm-1.55,1.26,0,.06h-.07Zm4.1-10.5,0,.07,0-.07Zm-2.2-.29,0,0,.19,0-.1.16-.1-.13-.07,0Zm-2.59-1.95a.36.36,0,0,1,.22.09s0,.13,0,.2l-.34-.07C65.45,35.47,65.48,35.36,65.52,35.35Zm8.38-9s.07,0,.07.07,0,.05-.06.08l-.08-.07Zm-.35,1.91,0,.11-.06-.1Zm-2-3.09h.21s0,.11,0,.11a1,1,0,0,1-.24,0Zm-1.77,1.15a.53.53,0,0,1,.25.12l-.18.16-.2-.08C69.67,26.41,69.72,26.27,69.76,26.28Zm-.16,1.51v0l.06.05-.05.06h0c0,.16,0,.1,0,0h0c0,.08-.08.11,0,0h0ZM68,25.16v.09l-.11,0ZM60.57,38.83l.18.13-.22.2c0-.07-.12-.13-.12-.19S60.51,38.88,60.57,38.83Zm-.15-8.46.29-.05,0,.84-.13,0Zm.31,14.81a1.18,1.18,0,0,1-.11-.19s0-.06.06-.09a1.22,1.22,0,0,1,.12.19S60.75,45.15,60.73,45.18ZM62,39s-.06,0-.1-.07a1,1,0,0,1,.2-.11s.07,0,.11.06A.75.75,0,0,1,62,39Zm2.55,9.58-.18-.13.38-.5.17.12Zm.25-23.15c.15.08.31.12.34.2s-.06.24-.1.36a1.44,1.44,0,0,1-.39-.2S64.68,25.63,64.75,25.47Zm-.09,5h0l-.05-.1.08.11h0l-.28.16v-.18Zm-.41,3.32a3.52,3.52,0,0,1,.46.06l-.21.87-.42-.08A7.52,7.52,0,0,1,64.25,33.75Zm0,8.22c0,.06-.08.19-.11.18a1,1,0,0,1-.31-.09l.12-.25Zm-.35-14.5,0,.09-.13,0ZM63.4,45.62l.09.28-.67.16-.07-.2Zm-.86-3.79a.87.87,0,0,1,.11.18s0,.07,0,.1-.09,0-.09-.07A1.52,1.52,0,0,1,62.54,41.83Zm-.33-16a.36.36,0,0,1,0,.09l0,0h-.08l.07,0h0l-.12-.14Zm-.13,9.8s.15,0,.22,0,0,.19-.06.22-.16,0-.25,0S62,35.66,62.08,35.62Zm-.21,1.88a.44.44,0,0,1-.12.15s-.06,0-.09,0l.14-.19S61.88,37.49,61.87,37.5Zm-.11-12.35s0,.05.05.08l-.11.06-.06-.14Zm-.83,19-.4,0v-1H61Zm-.42-17c.11,0,.2.12.3.19l-.22.28-.31-.26C60.36,27.23,60.44,27.09,60.51,27.1Z" fill="#7a1502"/>
      <path id="gloomy" d="M160.11,4.92l-1.24-2.63-.87.54c.17-.38.26-.89.65-1L157.9.23h-3.62l3,5.75,1.89-1.4ZM154.9.86h-.2c0-.19,0-.39,0-.58H155Zm1.86.92a.85.85,0,0,1-.17-.12,1.75,1.75,0,0,1,.16-.25c0,.06.12.11.12.17A.81.81,0,0,1,156.76,1.78ZM47.7,7.51c.13.08.26.16.4.23.33.16.68.27,1,.4l.39-.09h0l-.4.09c-.26.76-.7.46-1.1.17L47.67,8c0,.06,0,.12,0,.18a9.23,9.23,0,0,0,.16,1.69l.75-.54c.06.15.13.3.2.46l-.89.39a7.92,7.92,0,0,0,.85,2.23,7.7,7.7,0,0,0,2.93,2.9,8.54,8.54,0,0,0,4.19,1,8,8,0,0,0,3.73-.86,7.76,7.76,0,0,0,2.72-2.28,7.5,7.5,0,0,0,1.37-3.1V7.34H55V9.8h5.51A4.7,4.7,0,0,1,59,12.52a4.53,4.53,0,0,1-3,1,5.16,5.16,0,0,1-2.62-.64A4.53,4.53,0,0,1,51.59,11,5.9,5.9,0,0,1,51,8.21a5.93,5.93,0,0,1,.62-2.75A4.41,4.41,0,0,1,53.3,3.63a4.5,4.5,0,0,1,.93-.4l0,0,1.19-.85.17.23-.64.47a6.41,6.41,0,0,1,.9-.08,4.61,4.61,0,0,1,2.24.53,3.7,3.7,0,0,1,1.52,1.54h.14l.19-.25.35.25h3a.78.78,0,0,1-.15-.1l.09-.16a6.73,6.73,0,0,0-2.65-3.45A8.33,8.33,0,0,0,55.83,0a8.89,8.89,0,0,0-1.66.17.54.54,0,0,1-.34.06,7.44,7.44,0,0,0-.95.28s0,.06-.06.1L52.74.57a7.71,7.71,0,0,0-4,3.41A8.1,8.1,0,0,0,47.7,7.51Zm.89,3.25.09-.06v.09Zm9.67-2.44a.61.61,0,0,1,.09-.16s.1,0,.1,0a.86.86,0,0,1,0,.17Zm4.64,2.89-1,.52-.12-.28L62.8,11ZM61.64,8.84l.36.23-.54.8-.26-.15Zm-.47,4.8h.11a3.59,3.59,0,0,1-.08.35v.06h0l-.05,0-.18.34-.09-.09.27-.25,0-.06v0Zm-2-.59.08.14-.62.44-.16-.3ZM52.7,14.47l.06,0h0l.2.08-.23,0h0l-.56.27-.08-.39ZM60.6,2.61l0,.06h-.07Zm-9.23.47c.07.13.18.26.15.31a.49.49,0,0,1-.28.19s-.16-.14-.15-.16A2.35,2.35,0,0,1,51.37,3.08Zm-2,.67v.1l-.1,0Zm-.21,2.51,0-.06,0-.26.12.07-.15.19v.08h0l-.1.2.07-.22h0Zm21.63-3,.82-.55.25.45L71,3.56l-.16-.27v13h8.49V13.7H76.75v0l-.12,0V13.7H74V8.12l0,0L73.87,8,74,7.85V.23H70.8ZM78.57,13.7l0,.14-.11,0s0-.06,0-.07A.16.16,0,0,1,78.57,13.7Zm.31,1.7-1.41.42C77.9,14.75,78,14.72,78.88,15.4Zm-3.71.08.79-.09,0,.34-.83.09Zm-.24-.68s0,0,.08.07,0,.08-.07.08-.06,0-.09-.06S74.9,14.81,74.93,14.8Zm-4-10.4,0,.09,0-.08Zm.23,6.35s-.05,0-.08-.06,0-.08.07-.08,0,0,.08.06S71.18,10.74,71.15,10.75Zm-.08-2-.22-.13.41-.74.29.2Zm2,3.54L73,12.14a.25.25,0,0,1,.12,0s0,0,0,.08Zm.48-9.1.19.26-.72.5-.17-.24ZM72.8,15c.07,0,.16,0,.25,0s0,.18-.09.21-.16,0-.24,0S72.75,15,72.8,15ZM72.19,2.17l.14.13a1.28,1.28,0,0,1-.22.09s-.07,0-.11-.07Zm0,8.46-.17.14-.14-.18L72,10.4Zm-.3-4a1.74,1.74,0,0,1-.11-.18l.06-.11a1.22,1.22,0,0,1,.12.19S71.93,6.56,71.91,6.59ZM130.51.23V3.62a1.9,1.9,0,0,1,.38-.48c.05,0,.36.15.36.18a1.3,1.3,0,0,1-.27.52s-.23,0-.47-.11V16.24h3.22V5.83L138,16.24h.73l.15-.12.14.12h1.41l4.29-10.41V16.24H148V14.57l-.19,0s.05-.1.07-.1l.12,0V3.94l-.36-.24.36-.05V1h0s0-.06,0-.06h0V.23h-3.62l-1.16,2.71.75-.29c-.41.61-.69.88-1,.91l-3.67,8.58-.4-.94-.41-.3c.07-.06.12-.14.19-.21L134.16.23Zm.57,6.18c-.07,0-.16,0-.24-.08s.08-.19.1-.19a1.19,1.19,0,0,1,.32.1C131.2,6.3,131.15,6.39,131.08,6.41Zm.37,8-.1-.08.07-.1s.1,0,.1.08S131.48,14.37,131.45,14.4Zm.25-2.27-.28-.06a1.82,1.82,0,0,1,.16-.31s.19,0,.19.06A2.82,2.82,0,0,1,131.7,12.13Zm.39-1.32-.15-.28.95-.81.25.31ZM147.32,12a.34.34,0,0,1-.09.08c0-.06-.07-.12-.1-.19l.22,0A.5.5,0,0,1,147.32,12ZM147,6.18l.06.08H147Zm-.12,2.74.06,0,.25-.5.24.25-.49.25,0,0,0,0v.12s0-.06,0-.07l0,0Zm-.22-5.45v.1l-.34.05V3.53ZM145.89.8l-.06.07h0l.3-.17.05.18h-.35l0,0v0h0Zm0,11.31v.07l-.08,0Zm-.4-2.74-.23,1-.23,0c0-.34,0-.68,0-1Zm0,4.72.06-.06.12,0,.43-.33.11.21-.54.12-.07.06-.11,0-.52.43-.15-.28Zm-.85-12.76.15.15-.54.7-.3-.29ZM144,4.87v.76l-.24,0-.12-.73Zm-.74,1.35s0,0,0,.07h-.19A.62.62,0,0,1,143.27,6.22Zm-.21,2a1.25,1.25,0,0,1,0,.19h-.25a.71.71,0,0,1,.11-.17S143.06,8.21,143.06,8.21Zm-.14-3.3V5l-.09,0Zm-.73,3.77.19.24-.77.57-.16-.19Zm-.72,4.86.08,0-.1.05a2.68,2.68,0,0,1-.07.27l-.12,0ZM139.75,15l.13.11-.07.08-.08-.08ZM134.24,2.49l-.09-.06.09-.08h.11A1.27,1.27,0,0,1,134.24,2.49ZM134.43,1l-.38.1s0-.05-.06-.08l.36-.2Zm26.91,6.53-1-2.13a11.42,11.42,0,0,0-1.77.23,1.41,1.41,0,0,0-1.07.77l2.21,4.25v5.57h3.21V10.67l.74-1.44.28-1,.22.06,2.41-4.64-1.4.32-.09-.3,1.65-.51,0,.11,1.56-3h-.73l-1.32.3-.16-.3h-1.37Zm.65,2.66-.12-.06c0-.07,0-.15.07-.23s.11.05.11.07A1.8,1.8,0,0,1,162,10.21Zm.26,1.8.41-.1,0,.11-.41.1Zm.25.77a.25.25,0,0,1,.21.07c0,.06,0,.16,0,.24l-.34-.14C162.42,12.88,162.46,12.78,162.5,12.78Zm.21,1.12s0,.09-.06.1-.07,0-.1-.05l.07-.11S162.71,13.88,162.71,13.9Zm-.06,1.24s-.07,0-.11-.07l.19-.15.13.13A.64.64,0,0,1,162.65,15.14Zm0-9.25-.11-.15.56-.43.11.14Zm1.07-2.51a1.39,1.39,0,0,1,.14-.51c.12.09.28.17.34.29a2.13,2.13,0,0,1,0,.62C163.9,3.56,163.71,3.48,163.7,3.38Zm.13,1.7-.07-.16.4-.17.07.15Zm1.6.2.09.07-.13.12s0-.08,0-.11A.2.2,0,0,1,165.43,5.28ZM165.34.79l.23.07c0,.08-.08.2-.14.21s-.16-.05-.25-.09C165.24.92,165.29.85,165.34.79Zm.55.62.37.27c-.25.36-.51.72-.76,1.09l-.4-.29ZM108.17,4a8.19,8.19,0,0,0-1.1,4.21,8.18,8.18,0,0,0,1.1,4.23,7.91,7.91,0,0,0,3,2.93,8.67,8.67,0,0,0,8.27,0,7.81,7.81,0,0,0,3-2.93,8.27,8.27,0,0,0,1.08-4.23A8.27,8.27,0,0,0,122.39,4a7.83,7.83,0,0,0-3-2.92,8.61,8.61,0,0,0-8.28,0A7.88,7.88,0,0,0,108.17,4ZM108,7.91c0-.1-.11-.18-.09-.23s.1-.12.16-.17.06.11.05.16A1.07,1.07,0,0,1,108,7.91Zm15.18-.09-.1,0,.08-.06ZM123,6.06l.13.1-.26.36-.13-.1ZM108.67,6V6l.09,0ZM113,13.86l2.92.79C114.72,15.48,114.1,15.35,113,13.86Zm5,.83s0,0-.06-.08.07-.06.1-.06,0,.06.06.09A.24.24,0,0,1,117.94,14.69Zm3.4-5.36,1,.38-.77,1-.28,0Zm-.08,3.95a1.29,1.29,0,0,1-2,.87l-.35,1.24c-.23-.42-.46-.71-.4-.79A2.88,2.88,0,0,1,121.26,13.28Zm-1.23-2s.06-.05.09-.05,0,.05,0,.08l-.09.06Zm.81-5.33.08,0,0,.06-.08,0ZM121,7.08l0,.11-.45.1,0-.11Zm-2.09-5.55.18.18-.63.75-.24-.17ZM115.71.71l.07.09h-.09Zm-3.68,1,.16-.64.35.25-.42.47-.34.25s-.06,0-.09-.06l.34-.27.09.08Zm-1,3.7a4.51,4.51,0,0,1,1.74-1.85,4.9,4.9,0,0,1,1.8-.59c.07,0,.14-.11.21-.11a.19.19,0,0,1,.09.09c.15,0,.3,0,.45,0a5,5,0,0,1,2.55.64,4.4,4.4,0,0,1,1.72,1.85,6.09,6.09,0,0,1,.62,2.81,6.17,6.17,0,0,1-.62,2.82c-.07.14-.15.26-.22.38h0l0,0a4.25,4.25,0,0,1-1.47,1.45,4.84,4.84,0,0,1-2.55.66,4.89,4.89,0,0,1-2.55-.66A4.5,4.5,0,0,1,111,11a6.17,6.17,0,0,1-.62-2.82A6.09,6.09,0,0,1,111,5.38Zm-.68-1.89c-.46.7-.92,1.41-1.37,2.12l-.41-.28,1.3-2.13ZM85.58,4c-.09.15-.16.32-.24.48a1.56,1.56,0,0,0,.57,0c.33-.08.73.14,1.28.26-.17.19-.56.68-.57.67a1.38,1.38,0,0,0-1.67,0,8.12,8.12,0,0,0-.44,2.17l.19,0,.07,0,.06-.08.1-.45.18.08-.28.37,0,.11h-.1l-.19.11c0,.18,0,.36,0,.55a8.82,8.82,0,0,0,.07,1.16l.62-.42.18.26-.71.5,0-.06a8.61,8.61,0,0,0,.47,1.76l0,0s.12.15.11.17l-.06.05a7.18,7.18,0,0,0,.42.83,7.77,7.77,0,0,0,3,2.93,7.91,7.91,0,0,0,2.63.91l.3-.7c.42.37.58.58.42.8.26,0,.51,0,.78,0a8.34,8.34,0,0,0,4.13-1,7.81,7.81,0,0,0,3-2.93,8.18,8.18,0,0,0,1.09-4.23A8.65,8.65,0,0,0,100.61,6c-.27.35-.45.89-1.25.42-.17-.1-.74.47-1,.63a5.92,5.92,0,0,0-1.15-1,6.52,6.52,0,0,1,.34,2.13s0,0,0,.06l.52,0v.26h-.54A5.92,5.92,0,0,1,97,11a4.4,4.4,0,0,1-1.72,1.87,4.83,4.83,0,0,1-2.54.66,4.9,4.9,0,0,1-2.56-.66,4.2,4.2,0,0,1-1.22-1.08l0,0h0A4.46,4.46,0,0,1,88.4,11a5.59,5.59,0,0,1-.56-1.87h-.11s0-.09.06-.1h0a7.92,7.92,0,0,1,0-.85,6.09,6.09,0,0,1,.62-2.81,4.42,4.42,0,0,1,1.73-1.85,5,5,0,0,1,2-.61l.1-.09,0,.08.41,0a5,5,0,0,1,2.54.64,5.19,5.19,0,0,1,.59.42,2.24,2.24,0,0,1,1.63-.46c-.18.6-.34,1.12-.55,1.8l0,0,3.62.44A7.66,7.66,0,0,0,99.79,4c-.32,0-.56.29-.56,1.23l-.43-.7c.23-.32.46-.64.69-1a7.71,7.71,0,0,0-2.66-2.48,8.6,8.6,0,0,0-8.27,0,5.72,5.72,0,0,0-.58.37l.09.79c-.57,0-.7-.19-.64-.38A7.79,7.79,0,0,0,85.58,4Zm-.23,1.8,0-.09.12,0Zm1.09,3.81s-.1,0-.1-.05a.67.67,0,0,1,.07-.18l.1,0A1.18,1.18,0,0,1,86.44,9.59Zm14.15-.45.14.14-.43.44-.15-.16Zm-5.21,6.07,0,.1,0-.09ZM93,13.55l0,.09,0-.08Zm-4.36.08.06.12s-.08,0-.11,0,0,0,0-.07Zm7.43-12.4.06.08H96ZM89.27,2.64l.07,0,0,.06-.13,0,.11-.06ZM87.72,6.53h.11l-.09.26v0h0l0,0,0-.06.07,0v0ZM87,7.28l0,.07,0-.07Zm-.16,3.64a1.66,1.66,0,0,1,.12-.31s.16,0,.25.05l-.1.35Zm.33,2.53.09-.06v.09Z" fill="#7a1502"/>
    </g>
  </g>
</svg>
