<svg id="artwork" xmlns="http://www.w3.org/2000/svg" viewBox="0 0 216 76.2"><g id="logo_black"><path id="dot" d="M3.12,73a11.11,11.11,0,0,1,0-15.44,10.19,10.19,0,0,1,7.59-3.21,10.18,10.18,0,0,1,7.58,3.21,11.11,11.11,0,0,1,0,15.44,10.18,10.18,0,0,1-7.58,3.21A10.19,10.19,0,0,1,3.12,73Z" fill="#231f20"/><g id="slashes"><path id="slash" d="M159.08,75.86a3.91,3.91,0,0,0,5.25-2.16L192.18.1,192,0,178,5.83l-22.6,64.45a3.89,3.89,0,0,0,2.07,4.87Z" fill="#231f20"/><path id="slash-2" data-name="slash" d="M182.9,75.86a3.9,3.9,0,0,0,5.24-2.16L216,.1l-.2-.1-14,5.83-22.6,64.45a3.91,3.91,0,0,0,2.07,4.87Z" fill="#231f20"/></g><path d="M41.51,76.2q-13.62,0-13.62-13.62V39.88q0-13.62,13.62-13.62H52a6.32,6.32,0,0,1,4.54,1.41V9.92l8.63-4.09h.45V62.58Q65.57,76.2,52,76.2Zm0-8.17H52c3,0,4.54-1.81,4.54-5.45V39.88q0-5.44-4.54-5.44H41.51Q37,34.44,37,39.88v22.7C37,66.22,38.48,68,41.51,68Z" fill="#231f20"/><path d="M95.08,76.2q-13.62,0-13.62-13.62v-34l8.63-4.08h.45V62.58c0,3.64,1.52,5.45,4.54,5.45h10.45c3,0,4.54-1.81,4.54-5.45v-34l8.62-4.08h.46V62.58c0,3.64,1.51,5.45,4.54,5.45h10.44c3,0,4.54-1.81,4.54-5.45v-34l8.62-4.08h.46V62.58q0,13.62-13.62,13.62H123.69q-6.27,0-9.08-3.36-3,3.36-9.08,3.36Z" fill="#231f20"/></g></svg>